%TF.GenerationSoftware,KiCad,Pcbnew,7.0.10+dfsg-1*%
%TF.CreationDate,2024-02-08T12:56:13+01:00*%
%TF.ProjectId,chibi_v2,63686962-695f-4763-922e-6b696361645f,rev?*%
%TF.SameCoordinates,Original*%
%TF.FileFunction,Copper,L1,Top*%
%TF.FilePolarity,Positive*%
%FSLAX46Y46*%
G04 Gerber Fmt 4.6, Leading zero omitted, Abs format (unit mm)*
G04 Created by KiCad (PCBNEW 7.0.10+dfsg-1) date 2024-02-08 12:56:13*
%MOMM*%
%LPD*%
G01*
G04 APERTURE LIST*
%TA.AperFunction,ComponentPad*%
%ADD10C,1.600000*%
%TD*%
%TA.AperFunction,ComponentPad*%
%ADD11O,1.600000X1.600000*%
%TD*%
%TA.AperFunction,ComponentPad*%
%ADD12O,1.700000X1.700000*%
%TD*%
%TA.AperFunction,ComponentPad*%
%ADD13C,1.676400*%
%TD*%
%TA.AperFunction,ComponentPad*%
%ADD14R,1.800000X1.800000*%
%TD*%
%TA.AperFunction,ComponentPad*%
%ADD15C,1.800000*%
%TD*%
%TA.AperFunction,ComponentPad*%
%ADD16R,2.000000X2.000000*%
%TD*%
%TA.AperFunction,ComponentPad*%
%ADD17C,2.000000*%
%TD*%
%TA.AperFunction,ComponentPad*%
%ADD18R,1.700000X1.700000*%
%TD*%
%TA.AperFunction,ComponentPad*%
%ADD19O,1.600000X2.000000*%
%TD*%
%TA.AperFunction,ViaPad*%
%ADD20C,2.200000*%
%TD*%
%TA.AperFunction,Conductor*%
%ADD21C,0.250000*%
%TD*%
G04 APERTURE END LIST*
D10*
%TO.P,R2,1*%
%TO.N,Net-(Q2-C)*%
X104775000Y-53340000D03*
D11*
%TO.P,R2,2*%
%TO.N,Net-(D1-A)*%
X104775000Y-43180000D03*
%TD*%
D10*
%TO.P,R1,1*%
%TO.N,Net-(Q3-C)*%
X121285000Y-44450000D03*
D11*
%TO.P,R1,2*%
%TO.N,Net-(D2-A)*%
X111125000Y-44450000D03*
%TD*%
D12*
%TO.P,U2,1,3v*%
%TO.N,+3V3*%
X117475000Y-123825000D03*
%TO.P,U2,2,GND*%
%TO.N,GND*%
X117475000Y-121285000D03*
%TO.P,U2,3,CLK*%
%TO.N,Net-(U1-GPIO18)*%
X117475000Y-118745000D03*
%TO.P,U2,4,Slave_Output*%
%TO.N,Net-(U1-GPIO16)*%
X117475000Y-116205000D03*
%TO.P,U2,5,Slave_Input*%
%TO.N,Net-(U1-GPIO19)*%
X117475000Y-113665000D03*
%TO.P,U2,6,Chip_Select*%
%TO.N,Net-(U1-GPIO17)*%
X117475000Y-111125000D03*
%TO.P,U2,7*%
%TO.N,unconnected-(U2-Pad7)*%
X117475000Y-108585000D03*
%TO.P,U2,8*%
%TO.N,unconnected-(U2-Pad8)*%
X117475000Y-106045000D03*
%TO.P,U2,9,Card_Detect*%
%TO.N,unconnected-(U2-Card_Detect-Pad9)*%
X117475000Y-103505000D03*
%TD*%
D13*
%TO.P,Q3,1,C*%
%TO.N,Net-(Q3-C)*%
X124460000Y-44450000D03*
%TO.P,Q3,2,B*%
%TO.N,Net-(Q3-B)*%
X125730000Y-46355000D03*
%TO.P,Q3,3,E*%
%TO.N,+3V3*%
X127000000Y-44450000D03*
%TD*%
%TO.P,Q2,1,C*%
%TO.N,Net-(Q2-C)*%
X104775000Y-56515000D03*
%TO.P,Q2,2,B*%
%TO.N,Net-(Q2-B)*%
X106045000Y-58420000D03*
%TO.P,Q2,3,E*%
%TO.N,+3V3*%
X107315000Y-56515000D03*
%TD*%
%TO.P,Q1,1,C*%
%TO.N,GND*%
X139065000Y-53340000D03*
%TO.P,Q1,2,B*%
%TO.N,Net-(Q1-B)*%
X140970000Y-52070000D03*
%TO.P,Q1,3,E*%
%TO.N,Net-(BZ1-+)*%
X139065000Y-50800000D03*
%TD*%
D14*
%TO.P,D2,1,K*%
%TO.N,GND*%
X113645000Y-40410000D03*
D15*
%TO.P,D2,2,A*%
%TO.N,Net-(D2-A)*%
X111105000Y-40410000D03*
%TD*%
D14*
%TO.P,D1,1,K*%
%TO.N,GND*%
X107295000Y-40410000D03*
D15*
%TO.P,D1,2,A*%
%TO.N,Net-(D1-A)*%
X104755000Y-40410000D03*
%TD*%
D16*
%TO.P,BZ1,1,+*%
%TO.N,Net-(BZ1-+)*%
X139690000Y-41910000D03*
D17*
%TO.P,BZ1,2,-*%
%TO.N,+3V3*%
X132090000Y-41910000D03*
%TD*%
D18*
%TO.P,J2,1,Pin_1*%
%TO.N,GND*%
X104681900Y-102235000D03*
D12*
%TO.P,J2,2,Pin_2*%
%TO.N,Net-(J2-Pin_2)*%
X104681900Y-104775000D03*
%TO.P,J2,3,Pin_3*%
%TO.N,Net-(J2-Pin_3)*%
X104681900Y-107315000D03*
%TO.P,J2,4,Pin_4*%
%TO.N,Net-(J2-Pin_4)*%
X104681900Y-109855000D03*
%TO.P,J2,5,Pin_5*%
%TO.N,Net-(J2-Pin_5)*%
X104681900Y-112395000D03*
%TO.P,J2,6,Pin_6*%
%TO.N,Net-(J2-Pin_6)*%
X104681900Y-114935000D03*
%TO.P,J2,7,Pin_7*%
%TO.N,Net-(J2-Pin_7)*%
X104681900Y-117475000D03*
%TO.P,J2,8,Pin_8*%
%TO.N,Net-(J2-Pin_8)*%
X104681900Y-120015000D03*
%TD*%
D19*
%TO.P,Brd1,1,GND*%
%TO.N,GND*%
X118110000Y-59690000D03*
%TO.P,Brd1,2,VCC*%
%TO.N,+3V3*%
X120650000Y-59690000D03*
%TO.P,Brd1,3,SCL*%
%TO.N,Net-(Brd1-SCL)*%
X123190000Y-59690000D03*
%TO.P,Brd1,4,SDA*%
%TO.N,Net-(Brd1-SDA)*%
X125730000Y-59690000D03*
%TD*%
D12*
%TO.P,U1,1,GPIO0*%
%TO.N,Net-(Brd1-SDA)*%
X131200000Y-49445000D03*
%TO.P,U1,2,GPIO1*%
%TO.N,Net-(Brd1-SCL)*%
X131200000Y-51985000D03*
D18*
%TO.P,U1,3,GND*%
%TO.N,GND*%
X131200000Y-54525000D03*
D12*
%TO.P,U1,4,GPIO2*%
%TO.N,Net-(J2-Pin_2)*%
X131200000Y-57065000D03*
%TO.P,U1,5,GPIO3*%
%TO.N,Net-(J2-Pin_3)*%
X131200000Y-59605000D03*
%TO.P,U1,6,GPIO4*%
%TO.N,Net-(J2-Pin_4)*%
X131200000Y-62145000D03*
%TO.P,U1,7,GPIO5*%
%TO.N,Net-(J2-Pin_5)*%
X131200000Y-64685000D03*
D18*
%TO.P,U1,8,GND*%
%TO.N,GND*%
X131200000Y-67225000D03*
D12*
%TO.P,U1,9,GPIO6*%
%TO.N,Net-(J2-Pin_6)*%
X131200000Y-69765000D03*
%TO.P,U1,10,GPIO7*%
%TO.N,Net-(J2-Pin_7)*%
X131200000Y-72305000D03*
%TO.P,U1,11,GPIO8*%
%TO.N,Net-(J2-Pin_8)*%
X131200000Y-74845000D03*
%TO.P,U1,12,GPIO9*%
%TO.N,Net-(Q1-B)*%
X131200000Y-77385000D03*
D18*
%TO.P,U1,13,GND*%
%TO.N,GND*%
X131200000Y-79925000D03*
D12*
%TO.P,U1,14,GPIO10*%
%TO.N,Net-(Q2-B)*%
X131200000Y-82465000D03*
%TO.P,U1,15,GPIO11*%
%TO.N,Net-(Q3-B)*%
X131200000Y-85005000D03*
%TO.P,U1,16,GPIO12*%
%TO.N,unconnected-(U1-GPIO12-Pad16)*%
X131200000Y-87545000D03*
%TO.P,U1,17,GPIO13*%
%TO.N,unconnected-(U1-GPIO13-Pad17)*%
X131200000Y-90085000D03*
D18*
%TO.P,U1,18,GND*%
%TO.N,GND*%
X131200000Y-92625000D03*
D12*
%TO.P,U1,19,GPIO14*%
%TO.N,unconnected-(U1-GPIO14-Pad19)*%
X131200000Y-95165000D03*
%TO.P,U1,20,GPIO15*%
%TO.N,unconnected-(U1-GPIO15-Pad20)*%
X131200000Y-97705000D03*
%TO.P,U1,21,GPIO16*%
%TO.N,Net-(U1-GPIO16)*%
X113420000Y-97705000D03*
%TO.P,U1,22,GPIO17*%
%TO.N,Net-(U1-GPIO17)*%
X113420000Y-95165000D03*
D18*
%TO.P,U1,23,GND*%
%TO.N,unconnected-(U1-GND-Pad23)*%
X113420000Y-92625000D03*
D12*
%TO.P,U1,24,GPIO18*%
%TO.N,Net-(U1-GPIO18)*%
X113420000Y-90085000D03*
%TO.P,U1,25,GPIO19*%
%TO.N,Net-(U1-GPIO19)*%
X113420000Y-87545000D03*
%TO.P,U1,26,GPIO20*%
%TO.N,unconnected-(U1-GPIO20-Pad26)*%
X113420000Y-85005000D03*
%TO.P,U1,27,GPIO21*%
%TO.N,unconnected-(U1-GPIO21-Pad27)*%
X113420000Y-82465000D03*
D18*
%TO.P,U1,28,GND*%
%TO.N,unconnected-(U1-GND-Pad28)*%
X113420000Y-79925000D03*
D12*
%TO.P,U1,29,GPIO22*%
%TO.N,unconnected-(U1-GPIO22-Pad29)*%
X113420000Y-77385000D03*
%TO.P,U1,30,RUN*%
%TO.N,unconnected-(U1-RUN-Pad30)*%
X113420000Y-74845000D03*
%TO.P,U1,31,GPIO26_ADC0*%
%TO.N,unconnected-(U1-GPIO26_ADC0-Pad31)*%
X113420000Y-72305000D03*
%TO.P,U1,32,GPIO27_ADC1*%
%TO.N,unconnected-(U1-GPIO27_ADC1-Pad32)*%
X113420000Y-69765000D03*
D18*
%TO.P,U1,33,AGND*%
%TO.N,unconnected-(U1-AGND-Pad33)*%
X113420000Y-67225000D03*
D12*
%TO.P,U1,34,GPIO28_ADC2*%
%TO.N,unconnected-(U1-GPIO28_ADC2-Pad34)*%
X113420000Y-64685000D03*
%TO.P,U1,35,ADC_VREF*%
%TO.N,unconnected-(U1-ADC_VREF-Pad35)*%
X113420000Y-62145000D03*
%TO.P,U1,36,3V3*%
%TO.N,+3V3*%
X113420000Y-59605000D03*
%TO.P,U1,37,3V3_EN*%
%TO.N,unconnected-(U1-3V3_EN-Pad37)*%
X113420000Y-57065000D03*
D18*
%TO.P,U1,38,GND*%
%TO.N,GND*%
X113420000Y-54525000D03*
D12*
%TO.P,U1,39,VSYS*%
%TO.N,unconnected-(U1-VSYS-Pad39)*%
X113420000Y-51985000D03*
%TO.P,U1,40,VBUS*%
%TO.N,unconnected-(U1-VBUS-Pad40)*%
X113420000Y-49445000D03*
%TO.P,U1,41,SWCLK*%
%TO.N,unconnected-(U1-SWCLK-Pad41)*%
X124850000Y-97475000D03*
D18*
%TO.P,U1,42,GND*%
%TO.N,unconnected-(U1-GND-Pad42)*%
X122310000Y-97475000D03*
D12*
%TO.P,U1,43,SWDIO*%
%TO.N,unconnected-(U1-SWDIO-Pad43)*%
X119770000Y-97475000D03*
%TD*%
D20*
%TO.N,*%
X141605000Y-126365000D03*
X101600000Y-126365000D03*
X141605000Y-36195000D03*
X101600000Y-36195000D03*
%TD*%
D21*
%TO.N,Net-(D1-A)*%
X104775000Y-43180000D02*
X104775000Y-40430000D01*
X104775000Y-40430000D02*
X104755000Y-40410000D01*
%TO.N,Net-(Q2-C)*%
X104775000Y-53340000D02*
X104775000Y-56515000D01*
%TO.N,Net-(Q3-C)*%
X121285000Y-44450000D02*
X124460000Y-44450000D01*
%TO.N,Net-(Q3-B)*%
X125730000Y-46355000D02*
X129771701Y-46355000D01*
%TO.N,Net-(D2-A)*%
X111125000Y-44450000D02*
X111125000Y-40430000D01*
X111125000Y-40430000D02*
X111105000Y-40410000D01*
%TO.N,Net-(J2-Pin_2)*%
X103505000Y-103332700D02*
X103770400Y-103598100D01*
X103770400Y-103598100D02*
X104775000Y-103598100D01*
X104775000Y-103598100D02*
X104775000Y-104775000D01*
%TO.N,Net-(Q3-B)*%
X129771701Y-46355000D02*
X132375000Y-48958299D01*
X132375000Y-48958299D02*
X132375000Y-70824999D01*
X132375000Y-70824999D02*
X132069999Y-71130000D01*
X132069999Y-71130000D02*
X130165000Y-71130000D01*
X130165000Y-71130000D02*
X130025000Y-71270000D01*
X130025000Y-71270000D02*
X130025000Y-83830000D01*
X130025000Y-83830000D02*
X131200000Y-85005000D01*
%TO.N,Net-(Q1-B)*%
X140970000Y-52070000D02*
X140970000Y-67615000D01*
X140970000Y-67615000D02*
X131200000Y-77385000D01*
%TO.N,Net-(BZ1-+)*%
X139065000Y-50800000D02*
X139065000Y-42535000D01*
X139065000Y-42535000D02*
X139690000Y-41910000D01*
%TO.N,Net-(Brd1-SDA)*%
X131200000Y-49445000D02*
X131200000Y-50621900D01*
X125730000Y-55724100D02*
X125730000Y-59690000D01*
X131200000Y-50621900D02*
X130832200Y-50621900D01*
X130832200Y-50621900D02*
X125730000Y-55724100D01*
%TO.N,Net-(J2-Pin_2)*%
X103505000Y-93069200D02*
X103505000Y-103253500D01*
X114999500Y-74074600D02*
X114999500Y-82551900D01*
X130832200Y-58241900D02*
X114999500Y-74074600D01*
X131200000Y-57065000D02*
X131200000Y-58241900D01*
X114999500Y-82551900D02*
X113816400Y-83735000D01*
X112932300Y-83735000D02*
X103598100Y-93069200D01*
X113816400Y-83735000D02*
X112932300Y-83735000D01*
X131200000Y-58241900D02*
X130832200Y-58241900D01*
%TO.N,Net-(J2-Pin_4)*%
X130832100Y-63321900D02*
X130023100Y-64130900D01*
X130023100Y-70084800D02*
X113832900Y-86275000D01*
X131200000Y-62145000D02*
X131200000Y-63321900D01*
X104775000Y-109855000D02*
X104775000Y-108678100D01*
X131200000Y-63321900D02*
X130832100Y-63321900D01*
X113832900Y-86275000D02*
X113020700Y-86275000D01*
X130023100Y-64130900D02*
X130023100Y-70084800D01*
X113020700Y-86275000D02*
X106139600Y-93156100D01*
X106139600Y-93156100D02*
X106139600Y-107679300D01*
X106139600Y-107679300D02*
X105140800Y-108678100D01*
X105140800Y-108678100D02*
X104775000Y-108678100D01*
%TO.N,Net-(U1-GPIO16)*%
X117475000Y-116205000D02*
X117475000Y-115028100D01*
X113420000Y-97705000D02*
X113420000Y-98881900D01*
X117475000Y-115028100D02*
X117107200Y-115028100D01*
X113420100Y-98881900D02*
X113420000Y-98881900D01*
X113420100Y-111341000D02*
X113420100Y-98881900D01*
X117107200Y-115028100D02*
X113420100Y-111341000D01*
%TO.N,Net-(U1-GPIO17)*%
X113740400Y-96341900D02*
X113420000Y-96341900D01*
X117475000Y-111125000D02*
X117475000Y-109948100D01*
X117475000Y-109948100D02*
X117107100Y-109948100D01*
X115500700Y-98102200D02*
X113740400Y-96341900D01*
X113420000Y-95165000D02*
X113420000Y-96341900D01*
X117107100Y-109948100D02*
X115500700Y-108341700D01*
X115500700Y-108341700D02*
X115500700Y-98102200D01*
%TO.N,Net-(U1-GPIO18)*%
X112610900Y-91261900D02*
X112223600Y-91649200D01*
X112223600Y-91649200D02*
X112223600Y-112684500D01*
X112223600Y-112684500D02*
X117107200Y-117568100D01*
X117475000Y-118745000D02*
X117475000Y-117568100D01*
X113420000Y-91261900D02*
X112610900Y-91261900D01*
X113420000Y-90085000D02*
X113420000Y-91261900D01*
X117107200Y-117568100D02*
X117475000Y-117568100D01*
%TO.N,Net-(U1-GPIO19)*%
X117475000Y-112488100D02*
X117842800Y-112488100D01*
X117475000Y-113665000D02*
X117475000Y-112488100D01*
X118653900Y-100490300D02*
X114784600Y-96621000D01*
X117842800Y-112488100D02*
X118653900Y-111677000D01*
X113785800Y-88721900D02*
X113420000Y-88721900D01*
X114784600Y-89720700D02*
X113785800Y-88721900D01*
X114784600Y-96621000D02*
X114784600Y-89720700D01*
X113420000Y-87545000D02*
X113420000Y-88721900D01*
X118653900Y-111677000D02*
X118653900Y-100490300D01*
%TD*%
%TA.AperFunction,Conductor*%
%TO.N,+3V3*%
G36*
X140021217Y-35579685D02*
G01*
X140066972Y-35632489D01*
X140076916Y-35701647D01*
X140074752Y-35712947D01*
X140019317Y-35943848D01*
X139999551Y-36195000D01*
X140019317Y-36446151D01*
X140078126Y-36691110D01*
X140174533Y-36923859D01*
X140306160Y-37138653D01*
X140306161Y-37138656D01*
X140306164Y-37138659D01*
X140469776Y-37330224D01*
X140618066Y-37456875D01*
X140661343Y-37493838D01*
X140661346Y-37493839D01*
X140876140Y-37625466D01*
X141028611Y-37688621D01*
X141108889Y-37721873D01*
X141353852Y-37780683D01*
X141605000Y-37800449D01*
X141856148Y-37780683D01*
X141993956Y-37747598D01*
X142063735Y-37751089D01*
X142120552Y-37791752D01*
X142146366Y-37856678D01*
X142146900Y-37868172D01*
X142146900Y-51054330D01*
X142127215Y-51121369D01*
X142074411Y-51167124D01*
X142005253Y-51177068D01*
X141941697Y-51148043D01*
X141935219Y-51142011D01*
X141833791Y-51040583D01*
X141833787Y-51040579D01*
X141641907Y-50906223D01*
X141429611Y-50807228D01*
X141429607Y-50807227D01*
X141429603Y-50807225D01*
X141203356Y-50746603D01*
X141203346Y-50746601D01*
X140970001Y-50726186D01*
X140969999Y-50726186D01*
X140736653Y-50746601D01*
X140736643Y-50746603D01*
X140554499Y-50795408D01*
X140484649Y-50793745D01*
X140426787Y-50754582D01*
X140399283Y-50690354D01*
X140398881Y-50686476D01*
X140388398Y-50566649D01*
X140327772Y-50340389D01*
X140228777Y-50128093D01*
X140094421Y-49936213D01*
X139928787Y-49770579D01*
X139743375Y-49640752D01*
X139699751Y-49586176D01*
X139690500Y-49539178D01*
X139690500Y-43534499D01*
X139710185Y-43467460D01*
X139762989Y-43421705D01*
X139814500Y-43410499D01*
X140737871Y-43410499D01*
X140737872Y-43410499D01*
X140797483Y-43404091D01*
X140932331Y-43353796D01*
X141047546Y-43267546D01*
X141133796Y-43152331D01*
X141184091Y-43017483D01*
X141190500Y-42957873D01*
X141190499Y-40862128D01*
X141184091Y-40802517D01*
X141140778Y-40686390D01*
X141133797Y-40667671D01*
X141133793Y-40667664D01*
X141047547Y-40552455D01*
X141047544Y-40552452D01*
X140932335Y-40466206D01*
X140932328Y-40466202D01*
X140797482Y-40415908D01*
X140797483Y-40415908D01*
X140737883Y-40409501D01*
X140737881Y-40409500D01*
X140737873Y-40409500D01*
X140737864Y-40409500D01*
X138642129Y-40409500D01*
X138642123Y-40409501D01*
X138582516Y-40415908D01*
X138447671Y-40466202D01*
X138447664Y-40466206D01*
X138332455Y-40552452D01*
X138332452Y-40552455D01*
X138246206Y-40667664D01*
X138246202Y-40667671D01*
X138195908Y-40802517D01*
X138189501Y-40862116D01*
X138189501Y-40862123D01*
X138189500Y-40862135D01*
X138189500Y-42957870D01*
X138189501Y-42957876D01*
X138195908Y-43017483D01*
X138246202Y-43152328D01*
X138246203Y-43152329D01*
X138246204Y-43152331D01*
X138332454Y-43267546D01*
X138384800Y-43306732D01*
X138389810Y-43310482D01*
X138431682Y-43366415D01*
X138439500Y-43409749D01*
X138439500Y-49539178D01*
X138419815Y-49606217D01*
X138386625Y-49640751D01*
X138201213Y-49770579D01*
X138201211Y-49770580D01*
X138201208Y-49770583D01*
X138035583Y-49936208D01*
X138035580Y-49936211D01*
X138035579Y-49936213D01*
X137901223Y-50128093D01*
X137809924Y-50323886D01*
X137802229Y-50340387D01*
X137802225Y-50340396D01*
X137741603Y-50566643D01*
X137741601Y-50566653D01*
X137721186Y-50799999D01*
X137721186Y-50800000D01*
X137741601Y-51033346D01*
X137741603Y-51033356D01*
X137802225Y-51259603D01*
X137802227Y-51259607D01*
X137802228Y-51259611D01*
X137901223Y-51471907D01*
X138035579Y-51663787D01*
X138201213Y-51829421D01*
X138393093Y-51963777D01*
X138393094Y-51963777D01*
X138397528Y-51966882D01*
X138396521Y-51968319D01*
X138439297Y-52013190D01*
X138452513Y-52081798D01*
X138426540Y-52146660D01*
X138396953Y-52172297D01*
X138397528Y-52173118D01*
X138393094Y-52176222D01*
X138393093Y-52176223D01*
X138201213Y-52310579D01*
X138201211Y-52310580D01*
X138201208Y-52310583D01*
X138035583Y-52476208D01*
X138035580Y-52476211D01*
X138035579Y-52476213D01*
X137984844Y-52548670D01*
X137901223Y-52668093D01*
X137802229Y-52880387D01*
X137802225Y-52880396D01*
X137741603Y-53106643D01*
X137741601Y-53106653D01*
X137721186Y-53339999D01*
X137721186Y-53340000D01*
X137741601Y-53573346D01*
X137741603Y-53573356D01*
X137802225Y-53799603D01*
X137802227Y-53799607D01*
X137802228Y-53799611D01*
X137901223Y-54011907D01*
X138035579Y-54203787D01*
X138201213Y-54369421D01*
X138393093Y-54503777D01*
X138605389Y-54602772D01*
X138831649Y-54663398D01*
X139018329Y-54679730D01*
X139064999Y-54683814D01*
X139065000Y-54683814D01*
X139065001Y-54683814D01*
X139103891Y-54680411D01*
X139298351Y-54663398D01*
X139524611Y-54602772D01*
X139736907Y-54503777D01*
X139928787Y-54369421D01*
X140094421Y-54203787D01*
X140118927Y-54168787D01*
X140173502Y-54125166D01*
X140243001Y-54117973D01*
X140305355Y-54149495D01*
X140340769Y-54209725D01*
X140344500Y-54239914D01*
X140344500Y-67304546D01*
X140324815Y-67371585D01*
X140308181Y-67392227D01*
X132767340Y-74933068D01*
X132706017Y-74966553D01*
X132636325Y-74961569D01*
X132580392Y-74919697D01*
X132555975Y-74854233D01*
X132555659Y-74845387D01*
X132555659Y-74844999D01*
X132535063Y-74609596D01*
X132535063Y-74609592D01*
X132488626Y-74436285D01*
X132473905Y-74381344D01*
X132473904Y-74381343D01*
X132473903Y-74381337D01*
X132374035Y-74167171D01*
X132238495Y-73973599D01*
X132238494Y-73973597D01*
X132071402Y-73806506D01*
X132071396Y-73806501D01*
X131885842Y-73676575D01*
X131842217Y-73621998D01*
X131835023Y-73552500D01*
X131866546Y-73490145D01*
X131885842Y-73473425D01*
X131908026Y-73457891D01*
X132071401Y-73343495D01*
X132238495Y-73176401D01*
X132374035Y-72982830D01*
X132473903Y-72768663D01*
X132535063Y-72540408D01*
X132555659Y-72305000D01*
X132535063Y-72069592D01*
X132473903Y-71841337D01*
X132437246Y-71762727D01*
X132426754Y-71693650D01*
X132455273Y-71629866D01*
X132461933Y-71622655D01*
X132470584Y-71614004D01*
X132485378Y-71601368D01*
X132501586Y-71589594D01*
X132529437Y-71555926D01*
X132537278Y-71547309D01*
X132758786Y-71325801D01*
X132771048Y-71315979D01*
X132770865Y-71315758D01*
X132776868Y-71310790D01*
X132776877Y-71310785D01*
X132822934Y-71261738D01*
X132825582Y-71259005D01*
X132845120Y-71239469D01*
X132847570Y-71236309D01*
X132855154Y-71227428D01*
X132885062Y-71195581D01*
X132894714Y-71178022D01*
X132905389Y-71161771D01*
X132917674Y-71145935D01*
X132935030Y-71105824D01*
X132940161Y-71095353D01*
X132961194Y-71057097D01*
X132961194Y-71057096D01*
X132961197Y-71057091D01*
X132966180Y-71037679D01*
X132972477Y-71019290D01*
X132980438Y-71000894D01*
X132987270Y-70957747D01*
X132989639Y-70946315D01*
X133000499Y-70904021D01*
X133000500Y-70904016D01*
X133000500Y-70883982D01*
X133002027Y-70864581D01*
X133005160Y-70844803D01*
X133001504Y-70806131D01*
X133001050Y-70801323D01*
X133000500Y-70789654D01*
X133000500Y-49041041D01*
X133002224Y-49025421D01*
X133001939Y-49025394D01*
X133002673Y-49017632D01*
X133000561Y-48950411D01*
X133000500Y-48946517D01*
X133000500Y-48918955D01*
X133000500Y-48918949D01*
X132999996Y-48914967D01*
X132999081Y-48903328D01*
X132998360Y-48880370D01*
X132997710Y-48859672D01*
X132992119Y-48840429D01*
X132988173Y-48821377D01*
X132985664Y-48801507D01*
X132969579Y-48760882D01*
X132965806Y-48749861D01*
X132953618Y-48707909D01*
X132953617Y-48707908D01*
X132953617Y-48707906D01*
X132953616Y-48707905D01*
X132943423Y-48690670D01*
X132934861Y-48673193D01*
X132927487Y-48654568D01*
X132901816Y-48619236D01*
X132895405Y-48609476D01*
X132873170Y-48571879D01*
X132873168Y-48571877D01*
X132873165Y-48571873D01*
X132859006Y-48557714D01*
X132846368Y-48542918D01*
X132845042Y-48541093D01*
X132834594Y-48526712D01*
X132800940Y-48498871D01*
X132792299Y-48491008D01*
X130272504Y-45971212D01*
X130262681Y-45958950D01*
X130262460Y-45959134D01*
X130257487Y-45953122D01*
X130208477Y-45907099D01*
X130205678Y-45904386D01*
X130186178Y-45884885D01*
X130186172Y-45884880D01*
X130182987Y-45882409D01*
X130174135Y-45874848D01*
X130142283Y-45844938D01*
X130142281Y-45844936D01*
X130142278Y-45844935D01*
X130124730Y-45835288D01*
X130108464Y-45824604D01*
X130092633Y-45812324D01*
X130052550Y-45794978D01*
X130042064Y-45789841D01*
X130003795Y-45768803D01*
X130003793Y-45768802D01*
X129984394Y-45763822D01*
X129965982Y-45757518D01*
X129947599Y-45749562D01*
X129947593Y-45749560D01*
X129904461Y-45742729D01*
X129893023Y-45740361D01*
X129850721Y-45729500D01*
X129850720Y-45729500D01*
X129830685Y-45729500D01*
X129811287Y-45727973D01*
X129803863Y-45726797D01*
X129791506Y-45724840D01*
X129791505Y-45724840D01*
X129748026Y-45728950D01*
X129736357Y-45729500D01*
X127873083Y-45729500D01*
X127806044Y-45709815D01*
X127760289Y-45657011D01*
X127749555Y-45594693D01*
X127752900Y-45556453D01*
X127049994Y-44853547D01*
X127127150Y-44841327D01*
X127241854Y-44782883D01*
X127332883Y-44691854D01*
X127391327Y-44577150D01*
X127403547Y-44499994D01*
X128106453Y-45202900D01*
X128163342Y-45121655D01*
X128262298Y-44909441D01*
X128262302Y-44909432D01*
X128322902Y-44683268D01*
X128322904Y-44683258D01*
X128343312Y-44450001D01*
X128343312Y-44449998D01*
X128322904Y-44216741D01*
X128322902Y-44216731D01*
X128262302Y-43990567D01*
X128262298Y-43990558D01*
X128163342Y-43778345D01*
X128163341Y-43778343D01*
X128106453Y-43697099D01*
X128106453Y-43697098D01*
X127403547Y-44400004D01*
X127391327Y-44322850D01*
X127332883Y-44208146D01*
X127241854Y-44117117D01*
X127127150Y-44058673D01*
X127049994Y-44046452D01*
X127752900Y-43343546D01*
X127752899Y-43343545D01*
X127671656Y-43286658D01*
X127671654Y-43286657D01*
X127459441Y-43187701D01*
X127459432Y-43187697D01*
X127233268Y-43127097D01*
X127233258Y-43127095D01*
X127000002Y-43106688D01*
X126999998Y-43106688D01*
X126766741Y-43127095D01*
X126766731Y-43127097D01*
X126540567Y-43187697D01*
X126540558Y-43187701D01*
X126328341Y-43286659D01*
X126247099Y-43343544D01*
X126247098Y-43343545D01*
X126950006Y-44046452D01*
X126872850Y-44058673D01*
X126758146Y-44117117D01*
X126667117Y-44208146D01*
X126608673Y-44322850D01*
X126596452Y-44400005D01*
X125893544Y-43697098D01*
X125833553Y-43782778D01*
X125832187Y-43781821D01*
X125787081Y-43824808D01*
X125718471Y-43838014D01*
X125653613Y-43812029D01*
X125627614Y-43782014D01*
X125626882Y-43782528D01*
X125619247Y-43771624D01*
X125489421Y-43586213D01*
X125323787Y-43420579D01*
X125131907Y-43286223D01*
X124919611Y-43187228D01*
X124919607Y-43187227D01*
X124919603Y-43187225D01*
X124693356Y-43126603D01*
X124693346Y-43126601D01*
X124460001Y-43106186D01*
X124459999Y-43106186D01*
X124226653Y-43126601D01*
X124226643Y-43126603D01*
X124000396Y-43187225D01*
X124000389Y-43187227D01*
X124000389Y-43187228D01*
X123788093Y-43286223D01*
X123596213Y-43420579D01*
X123596211Y-43420580D01*
X123596208Y-43420583D01*
X123430583Y-43586208D01*
X123430580Y-43586211D01*
X123430579Y-43586213D01*
X123300753Y-43771624D01*
X123246176Y-43815249D01*
X123199178Y-43824500D01*
X122499188Y-43824500D01*
X122432149Y-43804815D01*
X122397613Y-43771623D01*
X122285045Y-43610858D01*
X122124141Y-43449954D01*
X121937734Y-43319432D01*
X121937732Y-43319431D01*
X121731497Y-43223261D01*
X121731488Y-43223258D01*
X121511697Y-43164366D01*
X121511693Y-43164365D01*
X121511692Y-43164365D01*
X121511691Y-43164364D01*
X121511686Y-43164364D01*
X121285002Y-43144532D01*
X121284998Y-43144532D01*
X121058313Y-43164364D01*
X121058302Y-43164366D01*
X120838511Y-43223258D01*
X120838502Y-43223261D01*
X120632267Y-43319431D01*
X120632265Y-43319432D01*
X120445858Y-43449954D01*
X120284954Y-43610858D01*
X120154432Y-43797265D01*
X120154431Y-43797267D01*
X120058261Y-44003502D01*
X120058258Y-44003511D01*
X119999366Y-44223302D01*
X119999364Y-44223313D01*
X119979532Y-44449998D01*
X119979532Y-44450001D01*
X119999364Y-44676686D01*
X119999366Y-44676697D01*
X120058258Y-44896488D01*
X120058261Y-44896497D01*
X120154431Y-45102732D01*
X120154432Y-45102734D01*
X120284954Y-45289141D01*
X120445858Y-45450045D01*
X120445861Y-45450047D01*
X120632266Y-45580568D01*
X120838504Y-45676739D01*
X120838509Y-45676740D01*
X120838511Y-45676741D01*
X120891415Y-45690916D01*
X121058308Y-45735635D01*
X121217471Y-45749560D01*
X121284998Y-45755468D01*
X121285000Y-45755468D01*
X121285002Y-45755468D01*
X121341673Y-45750509D01*
X121511692Y-45735635D01*
X121731496Y-45676739D01*
X121937734Y-45580568D01*
X122124139Y-45450047D01*
X122285047Y-45289139D01*
X122397613Y-45128377D01*
X122452189Y-45084752D01*
X122499188Y-45075500D01*
X123199178Y-45075500D01*
X123266217Y-45095185D01*
X123300751Y-45128374D01*
X123430579Y-45313787D01*
X123596213Y-45479421D01*
X123788093Y-45613777D01*
X124000389Y-45712772D01*
X124000395Y-45712773D01*
X124000396Y-45712774D01*
X124054853Y-45727365D01*
X124226649Y-45773398D01*
X124346441Y-45783878D01*
X124411509Y-45809330D01*
X124452488Y-45865921D01*
X124456366Y-45935683D01*
X124455408Y-45939499D01*
X124406603Y-46121643D01*
X124406601Y-46121653D01*
X124386186Y-46354999D01*
X124386186Y-46355000D01*
X124406601Y-46588346D01*
X124406603Y-46588356D01*
X124467225Y-46814603D01*
X124467227Y-46814607D01*
X124467228Y-46814611D01*
X124566223Y-47026907D01*
X124700579Y-47218787D01*
X124866213Y-47384421D01*
X125058093Y-47518777D01*
X125270389Y-47617772D01*
X125496649Y-47678398D01*
X125683329Y-47694730D01*
X125729999Y-47698814D01*
X125730000Y-47698814D01*
X125730001Y-47698814D01*
X125768891Y-47695411D01*
X125963351Y-47678398D01*
X126189611Y-47617772D01*
X126401907Y-47518777D01*
X126593787Y-47384421D01*
X126759421Y-47218787D01*
X126889247Y-47033375D01*
X126943824Y-46989751D01*
X126990822Y-46980500D01*
X129461249Y-46980500D01*
X129528288Y-47000185D01*
X129548930Y-47016819D01*
X130588522Y-48056411D01*
X130622007Y-48117734D01*
X130617023Y-48187426D01*
X130575151Y-48243359D01*
X130553246Y-48256474D01*
X130522171Y-48270964D01*
X130522169Y-48270965D01*
X130328597Y-48406505D01*
X130161505Y-48573597D01*
X130025965Y-48767169D01*
X130025964Y-48767171D01*
X129926098Y-48981335D01*
X129926094Y-48981344D01*
X129864938Y-49209586D01*
X129864936Y-49209596D01*
X129844341Y-49444999D01*
X129844341Y-49445000D01*
X129864936Y-49680403D01*
X129864938Y-49680413D01*
X129926094Y-49908655D01*
X129926096Y-49908659D01*
X129926097Y-49908663D01*
X130014887Y-50099074D01*
X130025965Y-50122830D01*
X130025967Y-50122834D01*
X130139550Y-50285047D01*
X130161877Y-50351253D01*
X130144867Y-50419020D01*
X130125656Y-50443851D01*
X125346208Y-55223299D01*
X125333951Y-55233120D01*
X125334134Y-55233341D01*
X125328122Y-55238314D01*
X125282098Y-55287323D01*
X125279391Y-55290116D01*
X125259889Y-55309617D01*
X125259875Y-55309634D01*
X125257407Y-55312815D01*
X125249843Y-55321670D01*
X125219937Y-55353518D01*
X125219936Y-55353520D01*
X125210284Y-55371076D01*
X125199610Y-55387326D01*
X125187329Y-55403161D01*
X125187324Y-55403168D01*
X125169975Y-55443258D01*
X125164838Y-55453744D01*
X125143803Y-55492006D01*
X125138822Y-55511407D01*
X125132521Y-55529810D01*
X125124562Y-55548202D01*
X125124561Y-55548205D01*
X125117728Y-55591343D01*
X125115360Y-55602774D01*
X125104501Y-55645071D01*
X125104500Y-55645082D01*
X125104500Y-55665116D01*
X125102973Y-55684515D01*
X125099840Y-55704294D01*
X125099840Y-55704295D01*
X125103950Y-55747774D01*
X125104500Y-55759443D01*
X125104500Y-58275811D01*
X125084815Y-58342850D01*
X125051623Y-58377386D01*
X124890859Y-58489953D01*
X124729954Y-58650858D01*
X124599432Y-58837265D01*
X124599431Y-58837267D01*
X124572382Y-58895275D01*
X124526209Y-58947714D01*
X124459016Y-58966866D01*
X124392135Y-58946650D01*
X124347618Y-58895275D01*
X124320686Y-58837520D01*
X124320568Y-58837266D01*
X124190047Y-58650861D01*
X124190045Y-58650858D01*
X124029141Y-58489954D01*
X123842734Y-58359432D01*
X123842732Y-58359431D01*
X123636497Y-58263261D01*
X123636488Y-58263258D01*
X123416697Y-58204366D01*
X123416693Y-58204365D01*
X123416692Y-58204365D01*
X123416691Y-58204364D01*
X123416686Y-58204364D01*
X123190002Y-58184532D01*
X123189998Y-58184532D01*
X122963313Y-58204364D01*
X122963302Y-58204366D01*
X122743511Y-58263258D01*
X122743502Y-58263261D01*
X122537267Y-58359431D01*
X122537265Y-58359432D01*
X122350858Y-58489954D01*
X122189954Y-58650858D01*
X122059433Y-58837264D01*
X122059432Y-58837266D01*
X122059315Y-58837518D01*
X122032106Y-58895867D01*
X121985933Y-58948306D01*
X121918739Y-58967457D01*
X121851858Y-58947241D01*
X121807342Y-58895865D01*
X121780135Y-58837520D01*
X121780134Y-58837518D01*
X121649657Y-58651179D01*
X121488820Y-58490342D01*
X121302482Y-58359865D01*
X121096328Y-58263734D01*
X120900000Y-58211127D01*
X120900000Y-59254498D01*
X120792315Y-59205320D01*
X120685763Y-59190000D01*
X120614237Y-59190000D01*
X120507685Y-59205320D01*
X120400000Y-59254498D01*
X120400000Y-58211127D01*
X120203671Y-58263734D01*
X119997517Y-58359865D01*
X119811179Y-58490342D01*
X119650342Y-58651179D01*
X119519867Y-58837515D01*
X119492657Y-58895867D01*
X119446484Y-58948306D01*
X119379290Y-58967457D01*
X119312409Y-58947241D01*
X119267893Y-58895865D01*
X119240685Y-58837518D01*
X119240568Y-58837266D01*
X119110047Y-58650861D01*
X119110045Y-58650858D01*
X118949141Y-58489954D01*
X118762734Y-58359432D01*
X118762732Y-58359431D01*
X118556497Y-58263261D01*
X118556488Y-58263258D01*
X118336697Y-58204366D01*
X118336693Y-58204365D01*
X118336692Y-58204365D01*
X118336691Y-58204364D01*
X118336686Y-58204364D01*
X118110002Y-58184532D01*
X118109998Y-58184532D01*
X117883313Y-58204364D01*
X117883302Y-58204366D01*
X117663511Y-58263258D01*
X117663502Y-58263261D01*
X117457267Y-58359431D01*
X117457265Y-58359432D01*
X117270858Y-58489954D01*
X117109954Y-58650858D01*
X116979432Y-58837265D01*
X116979431Y-58837267D01*
X116883261Y-59043502D01*
X116883258Y-59043511D01*
X116824366Y-59263302D01*
X116824364Y-59263312D01*
X116809500Y-59433214D01*
X116809500Y-59946785D01*
X116824364Y-60116687D01*
X116824366Y-60116697D01*
X116883258Y-60336488D01*
X116883261Y-60336497D01*
X116979431Y-60542732D01*
X116979432Y-60542734D01*
X117109954Y-60729141D01*
X117270858Y-60890045D01*
X117270861Y-60890047D01*
X117457266Y-61020568D01*
X117663504Y-61116739D01*
X117883308Y-61175635D01*
X118045230Y-61189801D01*
X118109998Y-61195468D01*
X118110000Y-61195468D01*
X118110002Y-61195468D01*
X118166673Y-61190509D01*
X118336692Y-61175635D01*
X118556496Y-61116739D01*
X118762734Y-61020568D01*
X118949139Y-60890047D01*
X119110047Y-60729139D01*
X119240568Y-60542734D01*
X119267895Y-60484129D01*
X119314064Y-60431695D01*
X119381257Y-60412542D01*
X119448139Y-60432757D01*
X119492657Y-60484133D01*
X119519865Y-60542482D01*
X119650342Y-60728820D01*
X119811179Y-60889657D01*
X119997517Y-61020134D01*
X120203673Y-61116265D01*
X120203682Y-61116269D01*
X120399999Y-61168872D01*
X120400000Y-61168871D01*
X120400000Y-60125501D01*
X120507685Y-60174680D01*
X120614237Y-60190000D01*
X120685763Y-60190000D01*
X120792315Y-60174680D01*
X120900000Y-60125501D01*
X120900000Y-61168872D01*
X121096317Y-61116269D01*
X121096326Y-61116265D01*
X121302482Y-61020134D01*
X121488820Y-60889657D01*
X121649657Y-60728820D01*
X121780132Y-60542484D01*
X121807341Y-60484134D01*
X121853513Y-60431695D01*
X121920707Y-60412542D01*
X121987588Y-60432757D01*
X122032106Y-60484133D01*
X122059431Y-60542732D01*
X122059432Y-60542734D01*
X122189954Y-60729141D01*
X122350858Y-60890045D01*
X122350861Y-60890047D01*
X122537266Y-61020568D01*
X122743504Y-61116739D01*
X122963308Y-61175635D01*
X123125230Y-61189801D01*
X123189998Y-61195468D01*
X123190000Y-61195468D01*
X123190002Y-61195468D01*
X123246673Y-61190509D01*
X123416692Y-61175635D01*
X123636496Y-61116739D01*
X123842734Y-61020568D01*
X124029139Y-60890047D01*
X124190047Y-60729139D01*
X124320568Y-60542734D01*
X124347618Y-60484724D01*
X124393790Y-60432285D01*
X124460983Y-60413133D01*
X124527865Y-60433348D01*
X124572382Y-60484725D01*
X124599429Y-60542728D01*
X124599432Y-60542734D01*
X124729954Y-60729141D01*
X124890858Y-60890045D01*
X124890861Y-60890047D01*
X125077266Y-61020568D01*
X125283504Y-61116739D01*
X125503308Y-61175635D01*
X125665230Y-61189801D01*
X125729998Y-61195468D01*
X125730000Y-61195468D01*
X125730002Y-61195468D01*
X125786673Y-61190509D01*
X125956692Y-61175635D01*
X126176496Y-61116739D01*
X126382734Y-61020568D01*
X126569139Y-60890047D01*
X126730047Y-60729139D01*
X126860568Y-60542734D01*
X126956739Y-60336496D01*
X127015635Y-60116692D01*
X127030500Y-59946784D01*
X127030500Y-59433216D01*
X127015635Y-59263308D01*
X126956739Y-59043504D01*
X126860568Y-58837266D01*
X126730047Y-58650861D01*
X126730045Y-58650858D01*
X126569140Y-58489953D01*
X126408377Y-58377386D01*
X126364752Y-58322809D01*
X126355500Y-58275811D01*
X126355500Y-56034551D01*
X126375185Y-55967512D01*
X126391814Y-55946875D01*
X129789406Y-52549282D01*
X129850727Y-52515799D01*
X129920419Y-52520783D01*
X129976352Y-52562655D01*
X129989467Y-52584560D01*
X130025965Y-52662830D01*
X130025967Y-52662834D01*
X130103483Y-52773537D01*
X130161501Y-52856396D01*
X130161506Y-52856402D01*
X130283430Y-52978326D01*
X130316915Y-53039649D01*
X130311931Y-53109341D01*
X130270059Y-53165274D01*
X130239083Y-53182189D01*
X130107669Y-53231203D01*
X130107664Y-53231206D01*
X129992455Y-53317452D01*
X129992452Y-53317455D01*
X129906206Y-53432664D01*
X129906202Y-53432671D01*
X129855908Y-53567517D01*
X129850184Y-53620765D01*
X129849501Y-53627123D01*
X129849500Y-53627135D01*
X129849500Y-55422870D01*
X129849501Y-55422876D01*
X129855908Y-55482483D01*
X129906202Y-55617328D01*
X129906206Y-55617335D01*
X129992452Y-55732544D01*
X129992455Y-55732547D01*
X130107664Y-55818793D01*
X130107671Y-55818797D01*
X130239081Y-55867810D01*
X130295015Y-55909681D01*
X130319432Y-55975145D01*
X130304580Y-56043418D01*
X130283430Y-56071673D01*
X130161503Y-56193600D01*
X130025965Y-56387169D01*
X130025964Y-56387171D01*
X129926098Y-56601335D01*
X129926094Y-56601344D01*
X129864938Y-56829586D01*
X129864936Y-56829596D01*
X129844341Y-57064999D01*
X129844341Y-57065000D01*
X129864936Y-57300403D01*
X129864938Y-57300413D01*
X129926094Y-57528655D01*
X129926096Y-57528659D01*
X129926097Y-57528663D01*
X129938944Y-57556213D01*
X130025965Y-57742830D01*
X130025967Y-57742834D01*
X130139550Y-57905047D01*
X130161877Y-57971253D01*
X130144867Y-58039020D01*
X130125656Y-58063851D01*
X114615708Y-73573799D01*
X114603451Y-73583620D01*
X114603634Y-73583841D01*
X114597622Y-73588814D01*
X114551598Y-73637823D01*
X114548891Y-73640616D01*
X114529389Y-73660117D01*
X114529375Y-73660134D01*
X114526907Y-73663315D01*
X114519343Y-73672170D01*
X114489437Y-73704018D01*
X114489436Y-73704020D01*
X114479784Y-73721576D01*
X114469110Y-73737826D01*
X114456822Y-73753669D01*
X114454442Y-73757694D01*
X114403368Y-73805372D01*
X114334625Y-73817869D01*
X114276595Y-73796137D01*
X114105839Y-73676573D01*
X114062217Y-73621998D01*
X114055024Y-73552499D01*
X114086546Y-73490145D01*
X114105842Y-73473425D01*
X114128026Y-73457891D01*
X114291401Y-73343495D01*
X114458495Y-73176401D01*
X114594035Y-72982830D01*
X114693903Y-72768663D01*
X114755063Y-72540408D01*
X114775659Y-72305000D01*
X114755063Y-72069592D01*
X114693903Y-71841337D01*
X114594035Y-71627171D01*
X114570102Y-71592990D01*
X114458494Y-71433597D01*
X114291402Y-71266506D01*
X114291396Y-71266501D01*
X114105842Y-71136575D01*
X114062217Y-71081998D01*
X114055023Y-71012500D01*
X114086546Y-70950145D01*
X114105842Y-70933425D01*
X114232407Y-70844803D01*
X114291401Y-70803495D01*
X114458495Y-70636401D01*
X114594035Y-70442830D01*
X114693903Y-70228663D01*
X114755063Y-70000408D01*
X114775659Y-69765000D01*
X114755063Y-69529592D01*
X114693903Y-69301337D01*
X114594035Y-69087171D01*
X114458495Y-68893599D01*
X114336567Y-68771671D01*
X114303084Y-68710351D01*
X114308068Y-68640659D01*
X114349939Y-68584725D01*
X114380915Y-68567810D01*
X114512331Y-68518796D01*
X114627546Y-68432546D01*
X114713796Y-68317331D01*
X114764091Y-68182483D01*
X114770500Y-68122873D01*
X114770499Y-66327128D01*
X114764091Y-66267517D01*
X114713796Y-66132669D01*
X114713795Y-66132668D01*
X114713793Y-66132664D01*
X114627547Y-66017455D01*
X114627544Y-66017452D01*
X114512335Y-65931206D01*
X114512328Y-65931202D01*
X114380917Y-65882189D01*
X114324983Y-65840318D01*
X114300566Y-65774853D01*
X114315418Y-65706580D01*
X114336563Y-65678332D01*
X114458495Y-65556401D01*
X114594035Y-65362830D01*
X114693903Y-65148663D01*
X114755063Y-64920408D01*
X114775659Y-64685000D01*
X114755063Y-64449592D01*
X114693903Y-64221337D01*
X114594035Y-64007171D01*
X114591758Y-64003918D01*
X114458494Y-63813597D01*
X114291402Y-63646506D01*
X114291396Y-63646501D01*
X114105842Y-63516575D01*
X114062217Y-63461998D01*
X114055023Y-63392500D01*
X114086546Y-63330145D01*
X114105842Y-63313425D01*
X114128026Y-63297891D01*
X114291401Y-63183495D01*
X114458495Y-63016401D01*
X114594035Y-62822830D01*
X114693903Y-62608663D01*
X114755063Y-62380408D01*
X114775659Y-62145000D01*
X114755063Y-61909592D01*
X114693903Y-61681337D01*
X114594035Y-61467171D01*
X114458495Y-61273599D01*
X114458494Y-61273597D01*
X114291402Y-61106506D01*
X114291401Y-61106505D01*
X114105405Y-60976269D01*
X114061781Y-60921692D01*
X114054588Y-60852193D01*
X114086110Y-60789839D01*
X114105405Y-60773119D01*
X114291082Y-60643105D01*
X114458105Y-60476082D01*
X114593600Y-60282578D01*
X114693429Y-60068492D01*
X114693432Y-60068486D01*
X114750636Y-59855000D01*
X113865572Y-59855000D01*
X113888682Y-59819040D01*
X113930000Y-59678327D01*
X113930000Y-59531673D01*
X113888682Y-59390960D01*
X113865572Y-59355000D01*
X114750636Y-59355000D01*
X114750635Y-59354999D01*
X114693432Y-59141513D01*
X114693429Y-59141507D01*
X114593600Y-58927422D01*
X114593599Y-58927420D01*
X114458113Y-58733926D01*
X114458108Y-58733920D01*
X114291078Y-58566890D01*
X114105405Y-58436879D01*
X114061780Y-58382302D01*
X114054588Y-58312804D01*
X114086110Y-58250449D01*
X114105406Y-58233730D01*
X114291401Y-58103495D01*
X114458495Y-57936401D01*
X114594035Y-57742830D01*
X114693903Y-57528663D01*
X114755063Y-57300408D01*
X114775659Y-57065000D01*
X114755063Y-56829592D01*
X114693903Y-56601337D01*
X114594035Y-56387171D01*
X114520212Y-56281741D01*
X114458496Y-56193600D01*
X114426342Y-56161446D01*
X114336567Y-56071671D01*
X114303084Y-56010351D01*
X114308068Y-55940659D01*
X114349939Y-55884725D01*
X114380915Y-55867810D01*
X114512331Y-55818796D01*
X114627546Y-55732546D01*
X114713796Y-55617331D01*
X114764091Y-55482483D01*
X114770500Y-55422873D01*
X114770499Y-53627128D01*
X114764091Y-53567517D01*
X114763785Y-53566697D01*
X114713797Y-53432671D01*
X114713793Y-53432664D01*
X114627547Y-53317455D01*
X114627544Y-53317452D01*
X114512335Y-53231206D01*
X114512328Y-53231202D01*
X114380917Y-53182189D01*
X114324983Y-53140318D01*
X114300566Y-53074853D01*
X114315418Y-53006580D01*
X114336563Y-52978332D01*
X114458495Y-52856401D01*
X114594035Y-52662830D01*
X114621000Y-52605003D01*
X118629723Y-52605003D01*
X118631331Y-52623389D01*
X118631678Y-52639752D01*
X118630709Y-52661324D01*
X118630710Y-52661328D01*
X118641444Y-52740576D01*
X118642094Y-52746412D01*
X118648792Y-52822972D01*
X118648795Y-52822989D01*
X118654461Y-52844134D01*
X118657563Y-52859576D01*
X118660923Y-52884380D01*
X118660926Y-52884392D01*
X118684573Y-52957169D01*
X118686417Y-52963393D01*
X118705423Y-53034324D01*
X118705428Y-53034337D01*
X118716135Y-53057300D01*
X118721682Y-53071380D01*
X118730483Y-53098464D01*
X118765128Y-53162845D01*
X118768316Y-53169200D01*
X118797897Y-53232638D01*
X118797898Y-53232639D01*
X118814410Y-53256221D01*
X118822025Y-53268578D01*
X118837146Y-53296678D01*
X118837152Y-53296687D01*
X118880587Y-53351153D01*
X118885214Y-53357340D01*
X118910510Y-53393465D01*
X118923402Y-53411877D01*
X118923405Y-53411880D01*
X118946186Y-53434661D01*
X118955452Y-53445029D01*
X118977492Y-53472666D01*
X119027387Y-53516259D01*
X119033484Y-53521959D01*
X119078116Y-53566592D01*
X119078121Y-53566596D01*
X119078123Y-53566598D01*
X119087768Y-53573351D01*
X119107332Y-53587050D01*
X119117793Y-53595244D01*
X119147004Y-53620765D01*
X119147013Y-53620771D01*
X119200924Y-53652981D01*
X119208449Y-53657854D01*
X119257359Y-53692101D01*
X119257365Y-53692104D01*
X119292798Y-53708627D01*
X119303992Y-53714561D01*
X119340234Y-53736214D01*
X119340236Y-53736215D01*
X119385728Y-53753288D01*
X119395838Y-53757082D01*
X119404669Y-53760792D01*
X119448300Y-53781138D01*
X119455670Y-53784575D01*
X119455675Y-53784577D01*
X119496756Y-53795584D01*
X119508227Y-53799262D01*
X119550976Y-53815307D01*
X119606047Y-53825301D01*
X119615965Y-53827526D01*
X119667023Y-53841207D01*
X119712829Y-53845214D01*
X119724121Y-53846728D01*
X119772453Y-53855500D01*
X119824985Y-53855500D01*
X119835792Y-53855972D01*
X119884998Y-53860277D01*
X119885000Y-53860277D01*
X119935369Y-53855870D01*
X119940600Y-53855524D01*
X119941122Y-53855500D01*
X119941155Y-53855500D01*
X119994217Y-53850724D01*
X119995173Y-53850638D01*
X119995180Y-53850724D01*
X119995477Y-53850611D01*
X120102977Y-53841207D01*
X120102982Y-53841205D01*
X120105000Y-53841029D01*
X120107205Y-53840736D01*
X120109182Y-53840377D01*
X120109188Y-53840377D01*
X120212684Y-53811812D01*
X120213350Y-53811631D01*
X120314330Y-53784575D01*
X120314337Y-53784571D01*
X120318913Y-53782906D01*
X120324449Y-53781138D01*
X120326159Y-53780495D01*
X120326170Y-53780493D01*
X120419890Y-53735359D01*
X120421016Y-53734825D01*
X120512639Y-53692102D01*
X120512640Y-53692101D01*
X120517327Y-53689395D01*
X120517400Y-53689522D01*
X120528164Y-53683218D01*
X120528973Y-53682829D01*
X120610325Y-53623721D01*
X120611993Y-53622531D01*
X120691877Y-53566598D01*
X120692747Y-53565727D01*
X120707550Y-53553084D01*
X120711078Y-53550522D01*
X120778237Y-53480277D01*
X120780098Y-53478376D01*
X120846592Y-53411883D01*
X120846592Y-53411882D01*
X120846598Y-53411877D01*
X120849285Y-53408039D01*
X120861239Y-53393465D01*
X120866629Y-53387828D01*
X120866628Y-53387828D01*
X120866632Y-53387825D01*
X120918266Y-53309600D01*
X120920083Y-53306928D01*
X120972102Y-53232639D01*
X120975543Y-53225259D01*
X120984432Y-53209364D01*
X120990635Y-53199968D01*
X121026114Y-53116958D01*
X121027713Y-53113377D01*
X121064575Y-53034330D01*
X121067570Y-53023148D01*
X121073325Y-53006505D01*
X121076965Y-52997989D01*
X121079103Y-52992988D01*
X121082450Y-52978326D01*
X121098417Y-52908366D01*
X121099533Y-52903863D01*
X121102309Y-52893504D01*
X121121207Y-52822977D01*
X121122515Y-52808015D01*
X121125150Y-52791237D01*
X121129191Y-52773537D01*
X121132934Y-52690183D01*
X121133274Y-52685036D01*
X121140277Y-52605003D01*
X123479723Y-52605003D01*
X123481331Y-52623389D01*
X123481678Y-52639752D01*
X123480709Y-52661324D01*
X123480710Y-52661328D01*
X123491444Y-52740576D01*
X123492094Y-52746412D01*
X123498792Y-52822972D01*
X123498795Y-52822989D01*
X123504461Y-52844134D01*
X123507563Y-52859576D01*
X123510923Y-52884380D01*
X123510926Y-52884392D01*
X123534573Y-52957169D01*
X123536417Y-52963393D01*
X123555423Y-53034324D01*
X123555428Y-53034337D01*
X123566135Y-53057300D01*
X123571682Y-53071380D01*
X123580483Y-53098464D01*
X123615128Y-53162845D01*
X123618316Y-53169200D01*
X123647897Y-53232638D01*
X123647898Y-53232639D01*
X123664410Y-53256221D01*
X123672025Y-53268578D01*
X123687146Y-53296678D01*
X123687152Y-53296687D01*
X123730587Y-53351153D01*
X123735214Y-53357340D01*
X123760510Y-53393465D01*
X123773402Y-53411877D01*
X123773405Y-53411880D01*
X123796186Y-53434661D01*
X123805452Y-53445029D01*
X123827492Y-53472666D01*
X123877387Y-53516259D01*
X123883484Y-53521959D01*
X123928116Y-53566592D01*
X123928121Y-53566596D01*
X123928123Y-53566598D01*
X123937768Y-53573351D01*
X123957332Y-53587050D01*
X123967793Y-53595244D01*
X123997004Y-53620765D01*
X123997013Y-53620771D01*
X124050924Y-53652981D01*
X124058449Y-53657854D01*
X124107359Y-53692101D01*
X124107365Y-53692104D01*
X124142798Y-53708627D01*
X124153992Y-53714561D01*
X124190234Y-53736214D01*
X124190236Y-53736215D01*
X124235728Y-53753288D01*
X124245838Y-53757082D01*
X124254669Y-53760792D01*
X124298300Y-53781138D01*
X124305670Y-53784575D01*
X124305675Y-53784577D01*
X124346756Y-53795584D01*
X124358227Y-53799262D01*
X124400976Y-53815307D01*
X124456047Y-53825301D01*
X124465965Y-53827526D01*
X124517023Y-53841207D01*
X124562829Y-53845214D01*
X124574121Y-53846728D01*
X124622453Y-53855500D01*
X124674985Y-53855500D01*
X124685792Y-53855972D01*
X124734998Y-53860277D01*
X124735000Y-53860277D01*
X124785369Y-53855870D01*
X124790600Y-53855524D01*
X124791122Y-53855500D01*
X124791155Y-53855500D01*
X124844217Y-53850724D01*
X124845173Y-53850638D01*
X124845180Y-53850724D01*
X124845477Y-53850611D01*
X124952977Y-53841207D01*
X124952982Y-53841205D01*
X124955000Y-53841029D01*
X124957205Y-53840736D01*
X124959182Y-53840377D01*
X124959188Y-53840377D01*
X125062684Y-53811812D01*
X125063350Y-53811631D01*
X125164330Y-53784575D01*
X125164337Y-53784571D01*
X125168913Y-53782906D01*
X125174449Y-53781138D01*
X125176159Y-53780495D01*
X125176170Y-53780493D01*
X125269890Y-53735359D01*
X125271016Y-53734825D01*
X125362639Y-53692102D01*
X125362640Y-53692101D01*
X125367327Y-53689395D01*
X125367400Y-53689522D01*
X125378164Y-53683218D01*
X125378973Y-53682829D01*
X125460325Y-53623721D01*
X125461993Y-53622531D01*
X125541877Y-53566598D01*
X125542747Y-53565727D01*
X125557550Y-53553084D01*
X125561078Y-53550522D01*
X125628237Y-53480277D01*
X125630098Y-53478376D01*
X125696592Y-53411883D01*
X125696592Y-53411882D01*
X125696598Y-53411877D01*
X125699285Y-53408039D01*
X125711239Y-53393465D01*
X125716629Y-53387828D01*
X125716628Y-53387828D01*
X125716632Y-53387825D01*
X125768266Y-53309600D01*
X125770083Y-53306928D01*
X125822102Y-53232639D01*
X125825543Y-53225259D01*
X125834432Y-53209364D01*
X125840635Y-53199968D01*
X125876114Y-53116958D01*
X125877713Y-53113377D01*
X125914575Y-53034330D01*
X125917570Y-53023148D01*
X125923325Y-53006505D01*
X125926965Y-52997989D01*
X125929103Y-52992988D01*
X125932450Y-52978326D01*
X125948417Y-52908366D01*
X125949533Y-52903863D01*
X125952309Y-52893504D01*
X125971207Y-52822977D01*
X125972515Y-52808015D01*
X125975150Y-52791237D01*
X125979191Y-52773537D01*
X125982934Y-52690183D01*
X125983274Y-52685036D01*
X125990277Y-52605000D01*
X125988667Y-52586608D01*
X125988321Y-52570239D01*
X125989290Y-52548670D01*
X125978549Y-52469385D01*
X125977905Y-52463600D01*
X125971207Y-52387023D01*
X125965539Y-52365870D01*
X125962434Y-52350412D01*
X125959076Y-52325619D01*
X125959075Y-52325618D01*
X125959075Y-52325613D01*
X125935414Y-52252795D01*
X125933578Y-52246593D01*
X125914576Y-52175674D01*
X125914575Y-52175671D01*
X125914575Y-52175670D01*
X125903863Y-52152699D01*
X125898317Y-52138618D01*
X125889519Y-52111541D01*
X125889517Y-52111537D01*
X125889517Y-52111536D01*
X125863276Y-52062772D01*
X125854869Y-52047149D01*
X125851681Y-52040794D01*
X125829398Y-51993009D01*
X125822102Y-51977362D01*
X125805592Y-51953785D01*
X125797976Y-51941425D01*
X125782852Y-51913319D01*
X125739398Y-51858830D01*
X125734785Y-51852661D01*
X125696598Y-51798123D01*
X125673804Y-51775329D01*
X125664545Y-51764968D01*
X125642508Y-51737334D01*
X125635967Y-51731619D01*
X125592611Y-51693739D01*
X125586514Y-51688039D01*
X125541878Y-51643402D01*
X125512663Y-51622946D01*
X125502210Y-51614759D01*
X125472996Y-51589235D01*
X125470156Y-51587538D01*
X125419073Y-51557017D01*
X125411550Y-51552145D01*
X125362641Y-51517899D01*
X125327205Y-51501374D01*
X125316015Y-51495442D01*
X125279769Y-51473787D01*
X125279767Y-51473786D01*
X125271951Y-51470852D01*
X125224154Y-51452914D01*
X125215349Y-51449216D01*
X125164330Y-51425425D01*
X125123232Y-51414412D01*
X125111759Y-51410731D01*
X125069024Y-51394692D01*
X125013965Y-51384700D01*
X125004016Y-51382468D01*
X124952977Y-51368793D01*
X124907176Y-51364785D01*
X124895846Y-51363264D01*
X124847552Y-51354500D01*
X124847547Y-51354500D01*
X124795015Y-51354500D01*
X124784208Y-51354028D01*
X124735002Y-51349723D01*
X124734996Y-51349723D01*
X124684651Y-51354127D01*
X124679442Y-51354473D01*
X124678848Y-51354499D01*
X124624915Y-51359352D01*
X124624613Y-51359379D01*
X124527239Y-51367899D01*
X124517023Y-51368793D01*
X124517022Y-51368793D01*
X124515081Y-51368963D01*
X124512708Y-51369278D01*
X124510809Y-51369623D01*
X124407522Y-51398129D01*
X124406628Y-51398372D01*
X124305668Y-51425425D01*
X124301051Y-51427105D01*
X124295520Y-51428872D01*
X124293836Y-51429504D01*
X124200246Y-51474573D01*
X124198853Y-51475233D01*
X124107359Y-51517899D01*
X124102670Y-51520606D01*
X124102598Y-51520481D01*
X124091871Y-51526764D01*
X124091031Y-51527168D01*
X124009662Y-51586284D01*
X124007904Y-51587538D01*
X123928121Y-51643403D01*
X123927241Y-51644284D01*
X123912461Y-51656906D01*
X123908928Y-51659472D01*
X123908921Y-51659478D01*
X123841847Y-51729632D01*
X123839903Y-51731619D01*
X123773404Y-51798119D01*
X123773402Y-51798121D01*
X123770711Y-51801965D01*
X123758773Y-51816521D01*
X123753368Y-51822174D01*
X123733253Y-51852647D01*
X123701750Y-51900369D01*
X123699865Y-51903142D01*
X123647901Y-51977356D01*
X123647891Y-51977374D01*
X123644457Y-51984738D01*
X123635572Y-52000628D01*
X123629363Y-52010034D01*
X123593893Y-52093020D01*
X123592254Y-52096688D01*
X123555426Y-52175664D01*
X123555424Y-52175671D01*
X123552425Y-52186860D01*
X123546681Y-52203475D01*
X123540899Y-52217005D01*
X123540896Y-52217014D01*
X123521576Y-52301659D01*
X123520460Y-52306158D01*
X123498793Y-52387022D01*
X123497483Y-52401992D01*
X123494847Y-52418769D01*
X123490809Y-52436459D01*
X123490809Y-52436464D01*
X123487066Y-52519777D01*
X123486719Y-52525016D01*
X123479723Y-52604995D01*
X123479723Y-52605003D01*
X121140277Y-52605003D01*
X121140277Y-52605000D01*
X121138667Y-52586608D01*
X121138321Y-52570239D01*
X121139290Y-52548670D01*
X121128549Y-52469385D01*
X121127905Y-52463600D01*
X121121207Y-52387023D01*
X121115539Y-52365870D01*
X121112434Y-52350412D01*
X121109076Y-52325619D01*
X121109075Y-52325618D01*
X121109075Y-52325613D01*
X121085414Y-52252795D01*
X121083578Y-52246593D01*
X121064576Y-52175674D01*
X121064575Y-52175671D01*
X121064575Y-52175670D01*
X121053863Y-52152699D01*
X121048317Y-52138618D01*
X121039519Y-52111541D01*
X121039517Y-52111537D01*
X121039517Y-52111536D01*
X121013276Y-52062772D01*
X121004869Y-52047149D01*
X121001681Y-52040794D01*
X120979398Y-51993009D01*
X120972102Y-51977362D01*
X120955592Y-51953785D01*
X120947976Y-51941425D01*
X120932852Y-51913319D01*
X120889398Y-51858830D01*
X120884785Y-51852661D01*
X120846598Y-51798123D01*
X120823804Y-51775329D01*
X120814545Y-51764968D01*
X120792508Y-51737334D01*
X120785967Y-51731619D01*
X120742611Y-51693739D01*
X120736514Y-51688039D01*
X120691878Y-51643402D01*
X120662663Y-51622946D01*
X120652210Y-51614759D01*
X120622996Y-51589235D01*
X120620156Y-51587538D01*
X120569073Y-51557017D01*
X120561550Y-51552145D01*
X120512641Y-51517899D01*
X120477205Y-51501374D01*
X120466015Y-51495442D01*
X120429769Y-51473787D01*
X120429767Y-51473786D01*
X120421951Y-51470852D01*
X120374154Y-51452914D01*
X120365349Y-51449216D01*
X120314330Y-51425425D01*
X120273232Y-51414412D01*
X120261759Y-51410731D01*
X120219024Y-51394692D01*
X120163965Y-51384700D01*
X120154016Y-51382468D01*
X120102977Y-51368793D01*
X120057176Y-51364785D01*
X120045846Y-51363264D01*
X119997552Y-51354500D01*
X119997547Y-51354500D01*
X119945015Y-51354500D01*
X119934208Y-51354028D01*
X119885002Y-51349723D01*
X119884996Y-51349723D01*
X119834651Y-51354127D01*
X119829442Y-51354473D01*
X119828848Y-51354499D01*
X119774915Y-51359352D01*
X119774613Y-51359379D01*
X119677239Y-51367899D01*
X119667023Y-51368793D01*
X119667022Y-51368793D01*
X119665081Y-51368963D01*
X119662708Y-51369278D01*
X119660809Y-51369623D01*
X119557522Y-51398129D01*
X119556628Y-51398372D01*
X119455668Y-51425425D01*
X119451051Y-51427105D01*
X119445520Y-51428872D01*
X119443836Y-51429504D01*
X119350246Y-51474573D01*
X119348853Y-51475233D01*
X119257359Y-51517899D01*
X119252670Y-51520606D01*
X119252598Y-51520481D01*
X119241871Y-51526764D01*
X119241031Y-51527168D01*
X119159662Y-51586284D01*
X119157904Y-51587538D01*
X119078121Y-51643403D01*
X119077241Y-51644284D01*
X119062461Y-51656906D01*
X119058928Y-51659472D01*
X119058921Y-51659478D01*
X118991847Y-51729632D01*
X118989903Y-51731619D01*
X118923404Y-51798119D01*
X118923402Y-51798121D01*
X118920711Y-51801965D01*
X118908773Y-51816521D01*
X118903368Y-51822174D01*
X118883253Y-51852647D01*
X118851750Y-51900369D01*
X118849865Y-51903142D01*
X118797901Y-51977356D01*
X118797891Y-51977374D01*
X118794457Y-51984738D01*
X118785572Y-52000628D01*
X118779363Y-52010034D01*
X118743893Y-52093020D01*
X118742254Y-52096688D01*
X118705426Y-52175664D01*
X118705424Y-52175671D01*
X118702425Y-52186860D01*
X118696681Y-52203475D01*
X118690899Y-52217005D01*
X118690896Y-52217014D01*
X118671576Y-52301659D01*
X118670460Y-52306158D01*
X118648793Y-52387022D01*
X118647483Y-52401992D01*
X118644847Y-52418769D01*
X118640809Y-52436459D01*
X118640809Y-52436464D01*
X118637066Y-52519777D01*
X118636719Y-52525016D01*
X118629723Y-52604995D01*
X118629723Y-52605003D01*
X114621000Y-52605003D01*
X114693903Y-52448663D01*
X114755063Y-52220408D01*
X114775659Y-51985000D01*
X114755063Y-51749592D01*
X114703463Y-51557017D01*
X114693905Y-51521344D01*
X114693904Y-51521343D01*
X114693903Y-51521337D01*
X114594035Y-51307171D01*
X114560734Y-51259611D01*
X114458494Y-51113597D01*
X114291402Y-50946506D01*
X114291396Y-50946501D01*
X114105842Y-50816575D01*
X114062217Y-50761998D01*
X114055023Y-50692500D01*
X114086546Y-50630145D01*
X114105842Y-50613425D01*
X114188170Y-50555778D01*
X114291401Y-50483495D01*
X114458495Y-50316401D01*
X114594035Y-50122830D01*
X114693903Y-49908663D01*
X114755063Y-49680408D01*
X114764285Y-49574998D01*
X118179700Y-49574998D01*
X118186750Y-49660098D01*
X118187061Y-49665071D01*
X118190819Y-49753523D01*
X118190820Y-49753534D01*
X118195092Y-49773355D01*
X118197451Y-49789238D01*
X118198865Y-49806301D01*
X118198865Y-49806306D01*
X118220660Y-49892372D01*
X118221670Y-49896685D01*
X118241044Y-49986575D01*
X118241046Y-49986582D01*
X118247333Y-50002228D01*
X118252477Y-50018010D01*
X118255843Y-50031300D01*
X118285571Y-50099075D01*
X118292875Y-50115725D01*
X118294377Y-50119300D01*
X118329934Y-50207787D01*
X118329935Y-50207788D01*
X118336981Y-50219232D01*
X118344943Y-50234428D01*
X118349076Y-50243850D01*
X118401366Y-50323886D01*
X118403147Y-50326693D01*
X118454930Y-50410794D01*
X118461543Y-50418308D01*
X118472263Y-50432402D01*
X118476019Y-50438151D01*
X118476021Y-50438153D01*
X118543117Y-50511040D01*
X118544930Y-50513054D01*
X118612436Y-50589755D01*
X118617564Y-50593895D01*
X118630882Y-50606377D01*
X118633216Y-50608913D01*
X118673620Y-50640360D01*
X118714062Y-50671837D01*
X118715795Y-50673211D01*
X118797920Y-50739523D01*
X118797922Y-50739524D01*
X118800678Y-50741064D01*
X118816360Y-50751460D01*
X118816367Y-50751465D01*
X118816371Y-50751467D01*
X118816374Y-50751470D01*
X118909507Y-50801870D01*
X118910785Y-50802573D01*
X118964637Y-50832657D01*
X119006051Y-50855793D01*
X119008849Y-50857058D01*
X119015695Y-50860097D01*
X119015794Y-50859873D01*
X119020491Y-50861933D01*
X119020497Y-50861936D01*
X119123950Y-50897451D01*
X119124557Y-50897662D01*
X119230829Y-50935211D01*
X119230843Y-50935213D01*
X119232392Y-50935617D01*
X119238492Y-50936910D01*
X119239999Y-50937291D01*
X119240019Y-50937298D01*
X119351192Y-50955849D01*
X119351608Y-50955919D01*
X119377416Y-50960345D01*
X119465792Y-50975499D01*
X119465800Y-50975500D01*
X119701044Y-50975500D01*
X119701049Y-50975500D01*
X119755013Y-50966494D01*
X119764883Y-50965252D01*
X119822541Y-50960346D01*
X119871925Y-50947487D01*
X119882760Y-50945177D01*
X119929981Y-50937298D01*
X119984963Y-50918421D01*
X119993941Y-50915716D01*
X120053249Y-50900275D01*
X120096642Y-50880659D01*
X120107436Y-50876377D01*
X120149503Y-50861936D01*
X120203611Y-50832653D01*
X120211541Y-50828721D01*
X120270486Y-50802077D01*
X120307120Y-50777316D01*
X120317503Y-50771018D01*
X120353626Y-50751470D01*
X120404878Y-50711578D01*
X120411584Y-50706710D01*
X120468003Y-50668579D01*
X120497460Y-50640345D01*
X120507075Y-50632035D01*
X120536784Y-50608913D01*
X120583070Y-50558632D01*
X120588490Y-50553100D01*
X120640118Y-50503621D01*
X120662351Y-50473557D01*
X120670799Y-50463331D01*
X120693979Y-50438153D01*
X120733223Y-50378084D01*
X120737317Y-50372196D01*
X120781879Y-50311947D01*
X120797176Y-50281604D01*
X120804074Y-50269637D01*
X120820924Y-50243849D01*
X120851130Y-50174984D01*
X120853927Y-50169045D01*
X120889207Y-50099074D01*
X120898155Y-50069854D01*
X120903153Y-50056383D01*
X120914157Y-50031300D01*
X120933450Y-49955110D01*
X120935088Y-49949255D01*
X120959015Y-49871126D01*
X120959016Y-49871121D01*
X120962460Y-49844227D01*
X120965251Y-49829535D01*
X120971132Y-49806311D01*
X120971134Y-49806305D01*
X120977903Y-49724600D01*
X120978484Y-49719095D01*
X120989298Y-49634654D01*
X120988291Y-49610961D01*
X120988602Y-49595481D01*
X120990300Y-49575000D01*
X120990300Y-49574998D01*
X123629700Y-49574998D01*
X123636750Y-49660098D01*
X123637061Y-49665071D01*
X123640819Y-49753523D01*
X123640820Y-49753534D01*
X123645092Y-49773355D01*
X123647451Y-49789238D01*
X123648865Y-49806301D01*
X123648865Y-49806306D01*
X123670660Y-49892372D01*
X123671670Y-49896685D01*
X123691044Y-49986575D01*
X123691046Y-49986582D01*
X123697333Y-50002228D01*
X123702477Y-50018010D01*
X123705843Y-50031300D01*
X123735571Y-50099075D01*
X123742875Y-50115725D01*
X123744377Y-50119300D01*
X123779934Y-50207787D01*
X123779935Y-50207788D01*
X123786981Y-50219232D01*
X123794943Y-50234428D01*
X123799076Y-50243850D01*
X123851366Y-50323886D01*
X123853147Y-50326693D01*
X123904930Y-50410794D01*
X123911543Y-50418308D01*
X123922263Y-50432402D01*
X123926019Y-50438151D01*
X123926021Y-50438153D01*
X123993117Y-50511040D01*
X123994930Y-50513054D01*
X124062436Y-50589755D01*
X124067564Y-50593895D01*
X124080882Y-50606377D01*
X124083216Y-50608913D01*
X124123620Y-50640360D01*
X124164062Y-50671837D01*
X124165795Y-50673211D01*
X124247920Y-50739523D01*
X124247922Y-50739524D01*
X124250678Y-50741064D01*
X124266360Y-50751460D01*
X124266367Y-50751465D01*
X124266371Y-50751467D01*
X124266374Y-50751470D01*
X124359507Y-50801870D01*
X124360785Y-50802573D01*
X124414637Y-50832657D01*
X124456051Y-50855793D01*
X124458849Y-50857058D01*
X124465695Y-50860097D01*
X124465794Y-50859873D01*
X124470491Y-50861933D01*
X124470497Y-50861936D01*
X124573950Y-50897451D01*
X124574557Y-50897662D01*
X124680829Y-50935211D01*
X124680843Y-50935213D01*
X124682392Y-50935617D01*
X124688492Y-50936910D01*
X124689999Y-50937291D01*
X124690019Y-50937298D01*
X124801192Y-50955849D01*
X124801608Y-50955919D01*
X124827416Y-50960345D01*
X124915792Y-50975499D01*
X124915800Y-50975500D01*
X125151044Y-50975500D01*
X125151049Y-50975500D01*
X125205013Y-50966494D01*
X125214883Y-50965252D01*
X125272541Y-50960346D01*
X125321925Y-50947487D01*
X125332760Y-50945177D01*
X125379981Y-50937298D01*
X125434963Y-50918421D01*
X125443941Y-50915716D01*
X125503249Y-50900275D01*
X125546642Y-50880659D01*
X125557436Y-50876377D01*
X125599503Y-50861936D01*
X125653611Y-50832653D01*
X125661541Y-50828721D01*
X125720486Y-50802077D01*
X125757120Y-50777316D01*
X125767503Y-50771018D01*
X125803626Y-50751470D01*
X125854878Y-50711578D01*
X125861584Y-50706710D01*
X125918003Y-50668579D01*
X125947460Y-50640345D01*
X125957075Y-50632035D01*
X125986784Y-50608913D01*
X126033070Y-50558632D01*
X126038490Y-50553100D01*
X126090118Y-50503621D01*
X126112351Y-50473557D01*
X126120799Y-50463331D01*
X126143979Y-50438153D01*
X126183223Y-50378084D01*
X126187317Y-50372196D01*
X126231879Y-50311947D01*
X126247176Y-50281604D01*
X126254074Y-50269637D01*
X126270924Y-50243849D01*
X126301130Y-50174984D01*
X126303927Y-50169045D01*
X126339207Y-50099074D01*
X126348155Y-50069854D01*
X126353153Y-50056383D01*
X126364157Y-50031300D01*
X126383450Y-49955110D01*
X126385088Y-49949255D01*
X126409015Y-49871126D01*
X126409016Y-49871121D01*
X126412460Y-49844227D01*
X126415251Y-49829535D01*
X126421132Y-49806311D01*
X126421134Y-49806305D01*
X126427903Y-49724600D01*
X126428484Y-49719095D01*
X126439298Y-49634654D01*
X126438291Y-49610961D01*
X126438602Y-49595481D01*
X126440300Y-49575000D01*
X126433248Y-49489902D01*
X126432938Y-49484943D01*
X126431241Y-49445000D01*
X126429180Y-49396468D01*
X126424906Y-49376640D01*
X126422548Y-49360764D01*
X126421134Y-49343695D01*
X126399325Y-49257577D01*
X126398336Y-49253354D01*
X126378954Y-49163419D01*
X126372665Y-49147770D01*
X126367519Y-49131980D01*
X126364157Y-49118700D01*
X126327092Y-49034202D01*
X126325621Y-49030697D01*
X126324277Y-49027353D01*
X126290064Y-48942210D01*
X126283021Y-48930771D01*
X126275053Y-48915565D01*
X126270924Y-48906151D01*
X126218639Y-48826122D01*
X126216859Y-48823315D01*
X126165074Y-48739212D01*
X126165071Y-48739209D01*
X126165069Y-48739205D01*
X126158451Y-48731686D01*
X126147727Y-48717584D01*
X126143980Y-48711848D01*
X126116748Y-48682266D01*
X126076876Y-48638953D01*
X126075068Y-48636944D01*
X126055316Y-48614502D01*
X126007564Y-48560245D01*
X126002436Y-48556104D01*
X125989117Y-48543621D01*
X125986785Y-48541088D01*
X125986783Y-48541086D01*
X125905936Y-48478161D01*
X125904198Y-48476783D01*
X125822080Y-48410477D01*
X125822073Y-48410472D01*
X125819311Y-48408929D01*
X125803643Y-48398542D01*
X125803634Y-48398535D01*
X125803628Y-48398532D01*
X125803626Y-48398530D01*
X125710485Y-48348125D01*
X125709094Y-48347359D01*
X125613961Y-48294213D01*
X125611381Y-48293047D01*
X125604284Y-48289898D01*
X125604188Y-48290119D01*
X125599499Y-48288062D01*
X125496278Y-48252626D01*
X125495233Y-48252262D01*
X125389172Y-48214789D01*
X125387635Y-48214389D01*
X125381549Y-48213098D01*
X125379995Y-48212704D01*
X125268772Y-48194144D01*
X125268227Y-48194051D01*
X125154210Y-48174500D01*
X125154200Y-48174500D01*
X125151049Y-48174500D01*
X124918951Y-48174500D01*
X124864993Y-48183503D01*
X124855101Y-48184747D01*
X124797470Y-48189652D01*
X124797461Y-48189653D01*
X124748077Y-48202511D01*
X124737250Y-48204819D01*
X124690012Y-48212703D01*
X124635068Y-48231566D01*
X124626051Y-48234284D01*
X124566749Y-48249725D01*
X124566743Y-48249727D01*
X124523361Y-48269337D01*
X124512553Y-48273624D01*
X124470504Y-48288060D01*
X124470498Y-48288063D01*
X124416396Y-48317341D01*
X124408460Y-48321275D01*
X124349514Y-48347922D01*
X124312883Y-48372679D01*
X124302470Y-48378994D01*
X124266379Y-48398526D01*
X124266367Y-48398533D01*
X124215126Y-48438416D01*
X124208402Y-48443297D01*
X124152001Y-48481417D01*
X124151994Y-48481423D01*
X124122546Y-48509644D01*
X124112918Y-48517967D01*
X124083217Y-48541085D01*
X124083209Y-48541093D01*
X124036925Y-48591369D01*
X124031500Y-48596905D01*
X123979882Y-48646378D01*
X123979880Y-48646380D01*
X123957657Y-48676427D01*
X123949198Y-48686668D01*
X123926021Y-48711846D01*
X123886781Y-48771906D01*
X123882671Y-48777814D01*
X123838124Y-48838047D01*
X123838119Y-48838055D01*
X123822826Y-48868384D01*
X123815918Y-48880370D01*
X123799076Y-48906149D01*
X123768887Y-48974974D01*
X123766060Y-48980975D01*
X123739189Y-49034274D01*
X123730791Y-49050930D01*
X123721847Y-49080131D01*
X123716842Y-49093620D01*
X123705845Y-49118691D01*
X123705845Y-49118692D01*
X123686552Y-49194872D01*
X123684913Y-49200735D01*
X123660984Y-49278877D01*
X123660983Y-49278879D01*
X123657538Y-49305777D01*
X123654750Y-49320454D01*
X123648867Y-49343687D01*
X123648864Y-49343706D01*
X123642097Y-49425377D01*
X123641517Y-49430887D01*
X123630702Y-49515344D01*
X123630701Y-49515345D01*
X123631707Y-49539025D01*
X123631396Y-49554520D01*
X123629700Y-49574998D01*
X120990300Y-49574998D01*
X120983248Y-49489902D01*
X120982938Y-49484943D01*
X120981241Y-49445000D01*
X120979180Y-49396468D01*
X120974906Y-49376640D01*
X120972548Y-49360764D01*
X120971134Y-49343695D01*
X120949325Y-49257577D01*
X120948336Y-49253354D01*
X120928954Y-49163419D01*
X120922665Y-49147770D01*
X120917519Y-49131980D01*
X120914157Y-49118700D01*
X120877092Y-49034202D01*
X120875621Y-49030697D01*
X120874277Y-49027353D01*
X120840064Y-48942210D01*
X120833021Y-48930771D01*
X120825053Y-48915565D01*
X120820924Y-48906151D01*
X120768639Y-48826122D01*
X120766859Y-48823315D01*
X120715074Y-48739212D01*
X120715071Y-48739209D01*
X120715069Y-48739205D01*
X120708451Y-48731686D01*
X120697727Y-48717584D01*
X120693980Y-48711848D01*
X120666748Y-48682266D01*
X120626876Y-48638953D01*
X120625068Y-48636944D01*
X120605316Y-48614502D01*
X120557564Y-48560245D01*
X120552436Y-48556104D01*
X120539117Y-48543621D01*
X120536785Y-48541088D01*
X120536783Y-48541086D01*
X120455936Y-48478161D01*
X120454198Y-48476783D01*
X120372080Y-48410477D01*
X120372073Y-48410472D01*
X120369311Y-48408929D01*
X120353643Y-48398542D01*
X120353634Y-48398535D01*
X120353628Y-48398532D01*
X120353626Y-48398530D01*
X120260485Y-48348125D01*
X120259094Y-48347359D01*
X120163961Y-48294213D01*
X120161381Y-48293047D01*
X120154284Y-48289898D01*
X120154188Y-48290119D01*
X120149499Y-48288062D01*
X120046278Y-48252626D01*
X120045233Y-48252262D01*
X119939172Y-48214789D01*
X119937635Y-48214389D01*
X119931549Y-48213098D01*
X119929995Y-48212704D01*
X119818772Y-48194144D01*
X119818227Y-48194051D01*
X119704210Y-48174500D01*
X119704200Y-48174500D01*
X119701049Y-48174500D01*
X119468951Y-48174500D01*
X119414993Y-48183503D01*
X119405101Y-48184747D01*
X119347470Y-48189652D01*
X119347461Y-48189653D01*
X119298077Y-48202511D01*
X119287250Y-48204819D01*
X119240012Y-48212703D01*
X119185068Y-48231566D01*
X119176051Y-48234284D01*
X119116749Y-48249725D01*
X119116743Y-48249727D01*
X119073361Y-48269337D01*
X119062553Y-48273624D01*
X119020504Y-48288060D01*
X119020498Y-48288063D01*
X118966396Y-48317341D01*
X118958460Y-48321275D01*
X118899514Y-48347922D01*
X118862883Y-48372679D01*
X118852470Y-48378994D01*
X118816379Y-48398526D01*
X118816367Y-48398533D01*
X118765126Y-48438416D01*
X118758402Y-48443297D01*
X118702001Y-48481417D01*
X118701994Y-48481423D01*
X118672546Y-48509644D01*
X118662918Y-48517967D01*
X118633217Y-48541085D01*
X118633209Y-48541093D01*
X118586925Y-48591369D01*
X118581500Y-48596905D01*
X118529882Y-48646378D01*
X118529880Y-48646380D01*
X118507657Y-48676427D01*
X118499198Y-48686668D01*
X118476021Y-48711846D01*
X118436781Y-48771906D01*
X118432671Y-48777814D01*
X118388124Y-48838047D01*
X118388119Y-48838055D01*
X118372826Y-48868384D01*
X118365918Y-48880370D01*
X118349076Y-48906149D01*
X118318887Y-48974974D01*
X118316060Y-48980975D01*
X118289189Y-49034274D01*
X118280791Y-49050930D01*
X118271847Y-49080131D01*
X118266842Y-49093620D01*
X118255845Y-49118691D01*
X118255845Y-49118692D01*
X118236552Y-49194872D01*
X118234913Y-49200735D01*
X118210984Y-49278877D01*
X118210983Y-49278879D01*
X118207538Y-49305777D01*
X118204750Y-49320454D01*
X118198867Y-49343687D01*
X118198864Y-49343706D01*
X118192097Y-49425377D01*
X118191517Y-49430887D01*
X118180702Y-49515344D01*
X118180701Y-49515345D01*
X118181707Y-49539025D01*
X118181396Y-49554520D01*
X118179700Y-49574998D01*
X114764285Y-49574998D01*
X114775659Y-49445000D01*
X114755063Y-49209592D01*
X114693903Y-48981337D01*
X114594035Y-48767171D01*
X114589644Y-48760899D01*
X114458494Y-48573597D01*
X114291402Y-48406506D01*
X114291395Y-48406501D01*
X114288297Y-48404332D01*
X114252111Y-48378994D01*
X114097834Y-48270967D01*
X114097830Y-48270965D01*
X114058502Y-48252626D01*
X113883663Y-48171097D01*
X113883659Y-48171096D01*
X113883655Y-48171094D01*
X113655413Y-48109938D01*
X113655403Y-48109936D01*
X113420001Y-48089341D01*
X113419999Y-48089341D01*
X113184596Y-48109936D01*
X113184586Y-48109938D01*
X112956344Y-48171094D01*
X112956335Y-48171098D01*
X112742171Y-48270964D01*
X112742169Y-48270965D01*
X112548597Y-48406505D01*
X112381505Y-48573597D01*
X112245965Y-48767169D01*
X112245964Y-48767171D01*
X112146098Y-48981335D01*
X112146094Y-48981344D01*
X112084938Y-49209586D01*
X112084936Y-49209596D01*
X112064341Y-49444999D01*
X112064341Y-49445000D01*
X112084936Y-49680403D01*
X112084938Y-49680413D01*
X112146094Y-49908655D01*
X112146096Y-49908659D01*
X112146097Y-49908663D01*
X112234887Y-50099074D01*
X112245965Y-50122830D01*
X112245967Y-50122834D01*
X112313466Y-50219232D01*
X112378388Y-50311950D01*
X112381501Y-50316395D01*
X112381506Y-50316402D01*
X112548597Y-50483493D01*
X112548603Y-50483498D01*
X112734158Y-50613425D01*
X112777783Y-50668002D01*
X112784977Y-50737500D01*
X112753454Y-50799855D01*
X112734158Y-50816575D01*
X112548597Y-50946505D01*
X112381505Y-51113597D01*
X112245965Y-51307169D01*
X112245964Y-51307171D01*
X112146098Y-51521335D01*
X112146094Y-51521344D01*
X112084938Y-51749586D01*
X112084936Y-51749596D01*
X112064341Y-51984999D01*
X112064341Y-51985000D01*
X112084936Y-52220403D01*
X112084938Y-52220413D01*
X112146094Y-52448655D01*
X112146096Y-52448659D01*
X112146097Y-52448663D01*
X112235204Y-52639752D01*
X112245965Y-52662830D01*
X112245967Y-52662834D01*
X112323483Y-52773537D01*
X112381501Y-52856396D01*
X112381506Y-52856402D01*
X112503430Y-52978326D01*
X112536915Y-53039649D01*
X112531931Y-53109341D01*
X112490059Y-53165274D01*
X112459083Y-53182189D01*
X112327669Y-53231203D01*
X112327664Y-53231206D01*
X112212455Y-53317452D01*
X112212452Y-53317455D01*
X112126206Y-53432664D01*
X112126202Y-53432671D01*
X112075908Y-53567517D01*
X112070184Y-53620765D01*
X112069501Y-53627123D01*
X112069500Y-53627135D01*
X112069500Y-55422870D01*
X112069501Y-55422876D01*
X112075908Y-55482483D01*
X112126202Y-55617328D01*
X112126206Y-55617335D01*
X112212452Y-55732544D01*
X112212455Y-55732547D01*
X112327664Y-55818793D01*
X112327671Y-55818797D01*
X112459081Y-55867810D01*
X112515015Y-55909681D01*
X112539432Y-55975145D01*
X112524580Y-56043418D01*
X112503430Y-56071673D01*
X112381503Y-56193600D01*
X112245965Y-56387169D01*
X112245964Y-56387171D01*
X112146098Y-56601335D01*
X112146094Y-56601344D01*
X112084938Y-56829586D01*
X112084936Y-56829596D01*
X112064341Y-57064999D01*
X112064341Y-57065000D01*
X112084936Y-57300403D01*
X112084938Y-57300413D01*
X112146094Y-57528655D01*
X112146096Y-57528659D01*
X112146097Y-57528663D01*
X112158944Y-57556213D01*
X112245965Y-57742830D01*
X112245967Y-57742834D01*
X112381501Y-57936395D01*
X112381506Y-57936402D01*
X112548597Y-58103493D01*
X112548603Y-58103498D01*
X112734594Y-58233730D01*
X112778219Y-58288307D01*
X112785413Y-58357805D01*
X112753890Y-58420160D01*
X112734595Y-58436880D01*
X112548922Y-58566890D01*
X112548920Y-58566891D01*
X112381891Y-58733920D01*
X112381886Y-58733926D01*
X112246400Y-58927420D01*
X112246399Y-58927422D01*
X112146570Y-59141507D01*
X112146567Y-59141513D01*
X112089364Y-59354999D01*
X112089364Y-59355000D01*
X112974428Y-59355000D01*
X112951318Y-59390960D01*
X112910000Y-59531673D01*
X112910000Y-59678327D01*
X112951318Y-59819040D01*
X112974428Y-59855000D01*
X112089364Y-59855000D01*
X112146567Y-60068486D01*
X112146570Y-60068492D01*
X112246399Y-60282578D01*
X112381894Y-60476082D01*
X112548917Y-60643105D01*
X112734595Y-60773119D01*
X112778219Y-60827696D01*
X112785412Y-60897195D01*
X112753890Y-60959549D01*
X112734595Y-60976269D01*
X112548594Y-61106508D01*
X112381505Y-61273597D01*
X112245965Y-61467169D01*
X112245964Y-61467171D01*
X112146098Y-61681335D01*
X112146094Y-61681344D01*
X112084938Y-61909586D01*
X112084936Y-61909596D01*
X112064341Y-62144999D01*
X112064341Y-62145000D01*
X112084936Y-62380403D01*
X112084938Y-62380413D01*
X112146094Y-62608655D01*
X112146096Y-62608659D01*
X112146097Y-62608663D01*
X112245965Y-62822830D01*
X112245967Y-62822834D01*
X112381501Y-63016395D01*
X112381506Y-63016402D01*
X112548597Y-63183493D01*
X112548603Y-63183498D01*
X112734158Y-63313425D01*
X112777783Y-63368002D01*
X112784977Y-63437500D01*
X112753454Y-63499855D01*
X112734158Y-63516575D01*
X112548597Y-63646505D01*
X112381505Y-63813597D01*
X112245965Y-64007169D01*
X112245964Y-64007171D01*
X112146098Y-64221335D01*
X112146094Y-64221344D01*
X112084938Y-64449586D01*
X112084936Y-64449596D01*
X112064341Y-64684999D01*
X112064341Y-64685000D01*
X112084936Y-64920403D01*
X112084938Y-64920413D01*
X112146094Y-65148655D01*
X112146096Y-65148659D01*
X112146097Y-65148663D01*
X112245965Y-65362830D01*
X112245967Y-65362834D01*
X112354281Y-65517521D01*
X112381501Y-65556396D01*
X112381506Y-65556402D01*
X112503430Y-65678326D01*
X112536915Y-65739649D01*
X112531931Y-65809341D01*
X112490059Y-65865274D01*
X112459083Y-65882189D01*
X112327669Y-65931203D01*
X112327664Y-65931206D01*
X112212455Y-66017452D01*
X112212452Y-66017455D01*
X112126206Y-66132664D01*
X112126202Y-66132671D01*
X112075908Y-66267517D01*
X112069501Y-66327116D01*
X112069501Y-66327123D01*
X112069500Y-66327135D01*
X112069500Y-68122870D01*
X112069501Y-68122876D01*
X112075908Y-68182483D01*
X112126202Y-68317328D01*
X112126206Y-68317335D01*
X112212452Y-68432544D01*
X112212455Y-68432547D01*
X112327664Y-68518793D01*
X112327671Y-68518797D01*
X112459081Y-68567810D01*
X112515015Y-68609681D01*
X112539432Y-68675145D01*
X112524580Y-68743418D01*
X112503430Y-68771673D01*
X112381503Y-68893600D01*
X112245965Y-69087169D01*
X112245964Y-69087171D01*
X112146098Y-69301335D01*
X112146094Y-69301344D01*
X112084938Y-69529586D01*
X112084936Y-69529596D01*
X112064341Y-69764999D01*
X112064341Y-69765000D01*
X112084936Y-70000403D01*
X112084938Y-70000413D01*
X112146094Y-70228655D01*
X112146096Y-70228659D01*
X112146097Y-70228663D01*
X112245965Y-70442830D01*
X112245967Y-70442834D01*
X112381501Y-70636395D01*
X112381506Y-70636402D01*
X112548597Y-70803493D01*
X112548603Y-70803498D01*
X112734158Y-70933425D01*
X112777783Y-70988002D01*
X112784977Y-71057500D01*
X112753454Y-71119855D01*
X112734158Y-71136575D01*
X112548597Y-71266505D01*
X112381505Y-71433597D01*
X112245965Y-71627169D01*
X112245964Y-71627171D01*
X112146098Y-71841335D01*
X112146094Y-71841344D01*
X112084938Y-72069586D01*
X112084936Y-72069596D01*
X112064341Y-72304999D01*
X112064341Y-72305000D01*
X112084936Y-72540403D01*
X112084938Y-72540413D01*
X112146094Y-72768655D01*
X112146096Y-72768659D01*
X112146097Y-72768663D01*
X112245965Y-72982830D01*
X112245967Y-72982834D01*
X112381501Y-73176395D01*
X112381506Y-73176402D01*
X112548597Y-73343493D01*
X112548603Y-73343498D01*
X112734158Y-73473425D01*
X112777783Y-73528002D01*
X112784977Y-73597500D01*
X112753454Y-73659855D01*
X112734158Y-73676575D01*
X112548597Y-73806505D01*
X112381505Y-73973597D01*
X112245965Y-74167169D01*
X112245964Y-74167171D01*
X112146098Y-74381335D01*
X112146094Y-74381344D01*
X112084938Y-74609586D01*
X112084936Y-74609596D01*
X112064341Y-74844999D01*
X112064341Y-74845000D01*
X112084936Y-75080403D01*
X112084938Y-75080413D01*
X112146094Y-75308655D01*
X112146096Y-75308659D01*
X112146097Y-75308663D01*
X112245965Y-75522830D01*
X112245967Y-75522834D01*
X112381501Y-75716395D01*
X112381506Y-75716402D01*
X112548597Y-75883493D01*
X112548603Y-75883498D01*
X112734158Y-76013425D01*
X112777783Y-76068002D01*
X112784977Y-76137500D01*
X112753454Y-76199855D01*
X112734158Y-76216575D01*
X112548597Y-76346505D01*
X112381505Y-76513597D01*
X112245965Y-76707169D01*
X112245964Y-76707171D01*
X112146098Y-76921335D01*
X112146094Y-76921344D01*
X112084938Y-77149586D01*
X112084936Y-77149596D01*
X112064341Y-77384999D01*
X112064341Y-77385000D01*
X112084936Y-77620403D01*
X112084938Y-77620413D01*
X112146094Y-77848655D01*
X112146096Y-77848659D01*
X112146097Y-77848663D01*
X112245965Y-78062830D01*
X112245967Y-78062834D01*
X112354281Y-78217521D01*
X112381501Y-78256396D01*
X112381506Y-78256402D01*
X112503430Y-78378326D01*
X112536915Y-78439649D01*
X112531931Y-78509341D01*
X112490059Y-78565274D01*
X112459083Y-78582189D01*
X112327669Y-78631203D01*
X112327664Y-78631206D01*
X112212455Y-78717452D01*
X112212452Y-78717455D01*
X112126206Y-78832664D01*
X112126202Y-78832671D01*
X112075908Y-78967517D01*
X112069501Y-79027116D01*
X112069501Y-79027123D01*
X112069500Y-79027135D01*
X112069500Y-80822870D01*
X112069501Y-80822876D01*
X112075908Y-80882483D01*
X112126202Y-81017328D01*
X112126206Y-81017335D01*
X112212452Y-81132544D01*
X112212455Y-81132547D01*
X112327664Y-81218793D01*
X112327671Y-81218797D01*
X112459081Y-81267810D01*
X112515015Y-81309681D01*
X112539432Y-81375145D01*
X112524580Y-81443418D01*
X112503430Y-81471673D01*
X112381503Y-81593600D01*
X112245965Y-81787169D01*
X112245964Y-81787171D01*
X112146098Y-82001335D01*
X112146094Y-82001344D01*
X112084938Y-82229586D01*
X112084936Y-82229596D01*
X112064341Y-82464999D01*
X112064341Y-82465000D01*
X112084936Y-82700403D01*
X112084938Y-82700413D01*
X112146094Y-82928655D01*
X112146096Y-82928659D01*
X112146097Y-82928663D01*
X112245965Y-83142830D01*
X112348513Y-83289283D01*
X112370840Y-83355490D01*
X112353830Y-83423257D01*
X112334619Y-83448088D01*
X103327849Y-92454858D01*
X103278490Y-92485107D01*
X103236560Y-92498732D01*
X103103123Y-92583414D01*
X102994937Y-92698619D01*
X102994934Y-92698622D01*
X102918804Y-92837104D01*
X102918801Y-92837112D01*
X102879500Y-92990178D01*
X102879500Y-103249955D01*
X102877775Y-103265572D01*
X102878061Y-103265599D01*
X102877326Y-103273365D01*
X102882291Y-103431328D01*
X102926380Y-103583085D01*
X102926382Y-103583090D01*
X103006827Y-103719116D01*
X103006834Y-103719125D01*
X103269598Y-103981889D01*
X103279422Y-103994150D01*
X103279643Y-103993968D01*
X103284613Y-103999976D01*
X103333624Y-104046001D01*
X103336422Y-104048713D01*
X103355922Y-104068214D01*
X103355926Y-104068217D01*
X103355929Y-104068220D01*
X103359102Y-104070681D01*
X103367979Y-104078263D01*
X103405506Y-104113503D01*
X103403238Y-104115917D01*
X103436663Y-104159262D01*
X103442642Y-104228875D01*
X103433495Y-104256654D01*
X103407998Y-104311334D01*
X103407994Y-104311344D01*
X103346838Y-104539586D01*
X103346836Y-104539596D01*
X103326241Y-104774999D01*
X103326241Y-104775000D01*
X103346836Y-105010403D01*
X103346838Y-105010413D01*
X103407994Y-105238655D01*
X103407996Y-105238659D01*
X103407997Y-105238663D01*
X103507865Y-105452830D01*
X103507867Y-105452834D01*
X103643401Y-105646395D01*
X103643406Y-105646402D01*
X103810497Y-105813493D01*
X103810503Y-105813498D01*
X103996058Y-105943425D01*
X104039683Y-105998002D01*
X104046877Y-106067500D01*
X104015354Y-106129855D01*
X103996058Y-106146575D01*
X103810497Y-106276505D01*
X103643405Y-106443597D01*
X103507865Y-106637169D01*
X103507864Y-106637171D01*
X103407998Y-106851335D01*
X103407994Y-106851344D01*
X103346838Y-107079586D01*
X103346836Y-107079596D01*
X103326241Y-107314999D01*
X103326241Y-107315000D01*
X103346836Y-107550403D01*
X103346838Y-107550413D01*
X103407994Y-107778655D01*
X103407996Y-107778659D01*
X103407997Y-107778663D01*
X103469890Y-107911392D01*
X103507865Y-107992830D01*
X103507867Y-107992834D01*
X103643401Y-108186395D01*
X103643406Y-108186402D01*
X103810497Y-108353493D01*
X103810503Y-108353498D01*
X103996058Y-108483425D01*
X104039683Y-108538002D01*
X104046877Y-108607500D01*
X104015354Y-108669855D01*
X103996058Y-108686575D01*
X103810497Y-108816505D01*
X103643405Y-108983597D01*
X103507865Y-109177169D01*
X103507864Y-109177171D01*
X103407998Y-109391335D01*
X103407994Y-109391344D01*
X103346838Y-109619586D01*
X103346836Y-109619596D01*
X103326241Y-109854999D01*
X103326241Y-109855000D01*
X103346836Y-110090403D01*
X103346838Y-110090413D01*
X103407994Y-110318655D01*
X103407996Y-110318659D01*
X103407997Y-110318663D01*
X103507865Y-110532830D01*
X103507867Y-110532834D01*
X103643401Y-110726395D01*
X103643406Y-110726402D01*
X103810497Y-110893493D01*
X103810503Y-110893498D01*
X103996058Y-111023425D01*
X104039683Y-111078002D01*
X104046877Y-111147500D01*
X104015354Y-111209855D01*
X103996058Y-111226575D01*
X103810497Y-111356505D01*
X103643405Y-111523597D01*
X103507865Y-111717169D01*
X103507864Y-111717171D01*
X103407998Y-111931335D01*
X103407994Y-111931344D01*
X103346838Y-112159586D01*
X103346836Y-112159596D01*
X103326241Y-112394999D01*
X103326241Y-112395000D01*
X103346836Y-112630403D01*
X103346838Y-112630413D01*
X103407994Y-112858655D01*
X103407996Y-112858659D01*
X103407997Y-112858663D01*
X103489442Y-113033321D01*
X103507865Y-113072830D01*
X103507867Y-113072834D01*
X103643401Y-113266395D01*
X103643406Y-113266402D01*
X103810497Y-113433493D01*
X103810503Y-113433498D01*
X103996058Y-113563425D01*
X104039683Y-113618002D01*
X104046877Y-113687500D01*
X104015354Y-113749855D01*
X103996058Y-113766575D01*
X103810497Y-113896505D01*
X103643405Y-114063597D01*
X103507865Y-114257169D01*
X103507864Y-114257171D01*
X103407998Y-114471335D01*
X103407994Y-114471344D01*
X103346838Y-114699586D01*
X103346836Y-114699596D01*
X103326241Y-114934999D01*
X103326241Y-114935000D01*
X103346836Y-115170403D01*
X103346838Y-115170413D01*
X103407994Y-115398655D01*
X103407996Y-115398659D01*
X103407997Y-115398663D01*
X103504418Y-115605438D01*
X103507865Y-115612830D01*
X103507867Y-115612834D01*
X103643401Y-115806395D01*
X103643406Y-115806402D01*
X103810497Y-115973493D01*
X103810503Y-115973498D01*
X103996058Y-116103425D01*
X104039683Y-116158002D01*
X104046877Y-116227500D01*
X104015354Y-116289855D01*
X103996058Y-116306575D01*
X103810497Y-116436505D01*
X103643405Y-116603597D01*
X103507865Y-116797169D01*
X103507864Y-116797171D01*
X103407998Y-117011335D01*
X103407994Y-117011344D01*
X103346838Y-117239586D01*
X103346836Y-117239596D01*
X103326241Y-117474999D01*
X103326241Y-117475000D01*
X103346836Y-117710403D01*
X103346838Y-117710413D01*
X103407994Y-117938655D01*
X103407996Y-117938659D01*
X103407997Y-117938663D01*
X103507865Y-118152830D01*
X103507867Y-118152834D01*
X103643401Y-118346395D01*
X103643406Y-118346402D01*
X103810497Y-118513493D01*
X103810503Y-118513498D01*
X103996058Y-118643425D01*
X104039683Y-118698002D01*
X104046877Y-118767500D01*
X104015354Y-118829855D01*
X103996058Y-118846575D01*
X103810497Y-118976505D01*
X103643405Y-119143597D01*
X103507865Y-119337169D01*
X103507864Y-119337171D01*
X103407998Y-119551335D01*
X103407994Y-119551344D01*
X103346838Y-119779586D01*
X103346836Y-119779596D01*
X103326241Y-120014999D01*
X103326241Y-120015000D01*
X103346836Y-120250403D01*
X103346838Y-120250413D01*
X103407994Y-120478655D01*
X103407996Y-120478659D01*
X103407997Y-120478663D01*
X103507865Y-120692830D01*
X103507867Y-120692834D01*
X103616181Y-120847521D01*
X103643405Y-120886401D01*
X103810499Y-121053495D01*
X103907284Y-121121265D01*
X104004065Y-121189032D01*
X104004067Y-121189033D01*
X104004070Y-121189035D01*
X104218237Y-121288903D01*
X104446492Y-121350063D01*
X104634818Y-121366539D01*
X104681899Y-121370659D01*
X104681900Y-121370659D01*
X104681901Y-121370659D01*
X104721134Y-121367226D01*
X104917308Y-121350063D01*
X105145563Y-121288903D01*
X105359730Y-121189035D01*
X105553301Y-121053495D01*
X105720395Y-120886401D01*
X105855935Y-120692830D01*
X105955803Y-120478663D01*
X106016963Y-120250408D01*
X106037559Y-120015000D01*
X106035590Y-119992500D01*
X106028672Y-119913425D01*
X106016963Y-119779592D01*
X105955803Y-119551337D01*
X105855935Y-119337171D01*
X105765954Y-119208663D01*
X105720394Y-119143597D01*
X105553302Y-118976506D01*
X105553296Y-118976501D01*
X105367742Y-118846575D01*
X105324117Y-118791998D01*
X105316923Y-118722500D01*
X105348446Y-118660145D01*
X105367742Y-118643425D01*
X105389926Y-118627891D01*
X105553301Y-118513495D01*
X105720395Y-118346401D01*
X105855935Y-118152830D01*
X105955803Y-117938663D01*
X106016963Y-117710408D01*
X106037559Y-117475000D01*
X106016963Y-117239592D01*
X105955803Y-117011337D01*
X105855935Y-116797171D01*
X105765954Y-116668663D01*
X105720394Y-116603597D01*
X105553302Y-116436506D01*
X105553296Y-116436501D01*
X105367742Y-116306575D01*
X105324117Y-116251998D01*
X105316923Y-116182500D01*
X105348446Y-116120145D01*
X105367742Y-116103425D01*
X105389926Y-116087891D01*
X105553301Y-115973495D01*
X105720395Y-115806401D01*
X105855935Y-115612830D01*
X105955803Y-115398663D01*
X106016963Y-115170408D01*
X106037559Y-114935000D01*
X106016963Y-114699592D01*
X105955803Y-114471337D01*
X105855935Y-114257171D01*
X105765954Y-114128663D01*
X105720394Y-114063597D01*
X105553302Y-113896506D01*
X105553296Y-113896501D01*
X105367742Y-113766575D01*
X105324117Y-113711998D01*
X105316923Y-113642500D01*
X105348446Y-113580145D01*
X105367742Y-113563425D01*
X105389926Y-113547891D01*
X105553301Y-113433495D01*
X105720395Y-113266401D01*
X105855935Y-113072830D01*
X105955803Y-112858663D01*
X106016963Y-112630408D01*
X106037559Y-112395000D01*
X106016963Y-112159592D01*
X105955803Y-111931337D01*
X105855935Y-111717171D01*
X105803059Y-111641655D01*
X105720394Y-111523597D01*
X105553302Y-111356506D01*
X105553296Y-111356501D01*
X105367742Y-111226575D01*
X105324117Y-111171998D01*
X105316923Y-111102500D01*
X105348446Y-111040145D01*
X105367742Y-111023425D01*
X105389926Y-111007891D01*
X105553301Y-110893495D01*
X105720395Y-110726401D01*
X105855935Y-110532830D01*
X105955803Y-110318663D01*
X106016963Y-110090408D01*
X106037559Y-109855000D01*
X106016963Y-109619592D01*
X105955803Y-109391337D01*
X105855935Y-109177171D01*
X105779865Y-109068531D01*
X105757539Y-109002327D01*
X105774549Y-108934560D01*
X105793756Y-108909733D01*
X106523386Y-108180102D01*
X106535648Y-108170280D01*
X106535465Y-108170059D01*
X106541468Y-108165091D01*
X106541477Y-108165086D01*
X106587534Y-108116039D01*
X106590182Y-108113306D01*
X106609720Y-108093770D01*
X106612170Y-108090610D01*
X106619754Y-108081729D01*
X106649662Y-108049882D01*
X106659314Y-108032323D01*
X106669989Y-108016072D01*
X106682274Y-108000236D01*
X106699630Y-107960125D01*
X106704761Y-107949654D01*
X106725794Y-107911398D01*
X106725794Y-107911397D01*
X106725797Y-107911392D01*
X106730780Y-107891980D01*
X106737077Y-107873591D01*
X106745038Y-107855195D01*
X106751870Y-107812048D01*
X106754239Y-107800616D01*
X106765099Y-107758322D01*
X106765100Y-107758317D01*
X106765100Y-107738283D01*
X106766627Y-107718882D01*
X106767464Y-107713599D01*
X106769760Y-107699104D01*
X106765650Y-107655624D01*
X106765100Y-107643955D01*
X106765100Y-93466552D01*
X106784785Y-93399513D01*
X106801419Y-93378871D01*
X109395496Y-90784794D01*
X112028996Y-88151293D01*
X112090317Y-88117810D01*
X112160009Y-88122794D01*
X112215942Y-88164666D01*
X112229055Y-88186567D01*
X112245965Y-88222830D01*
X112245966Y-88222832D01*
X112245967Y-88222833D01*
X112245967Y-88222834D01*
X112381501Y-88416395D01*
X112381506Y-88416402D01*
X112548597Y-88583493D01*
X112548603Y-88583498D01*
X112734158Y-88713425D01*
X112777783Y-88768002D01*
X112784977Y-88837500D01*
X112753454Y-88899855D01*
X112734158Y-88916575D01*
X112548597Y-89046505D01*
X112381505Y-89213597D01*
X112245965Y-89407169D01*
X112245964Y-89407171D01*
X112146098Y-89621335D01*
X112146094Y-89621344D01*
X112084938Y-89849586D01*
X112084936Y-89849596D01*
X112064341Y-90084999D01*
X112064341Y-90085000D01*
X112084936Y-90320403D01*
X112084938Y-90320413D01*
X112146094Y-90548655D01*
X112146099Y-90548669D01*
X112200581Y-90665506D01*
X112211073Y-90734583D01*
X112183741Y-90796953D01*
X112151469Y-90835961D01*
X112143608Y-90844599D01*
X111839811Y-91148397D01*
X111827548Y-91158222D01*
X111827731Y-91158444D01*
X111821720Y-91163416D01*
X111775697Y-91212424D01*
X111772990Y-91215217D01*
X111753489Y-91234717D01*
X111753475Y-91234734D01*
X111751007Y-91237915D01*
X111743443Y-91246770D01*
X111713537Y-91278618D01*
X111713536Y-91278620D01*
X111703884Y-91296176D01*
X111693210Y-91312426D01*
X111680929Y-91328261D01*
X111680924Y-91328268D01*
X111663575Y-91368358D01*
X111658438Y-91378844D01*
X111637403Y-91417106D01*
X111632422Y-91436507D01*
X111626121Y-91454910D01*
X111618162Y-91473302D01*
X111618161Y-91473305D01*
X111611328Y-91516443D01*
X111608960Y-91527874D01*
X111598101Y-91570171D01*
X111598100Y-91570182D01*
X111598100Y-91590216D01*
X111596573Y-91609615D01*
X111593440Y-91629394D01*
X111593440Y-91629395D01*
X111597550Y-91672874D01*
X111598100Y-91684543D01*
X111598100Y-112601755D01*
X111596375Y-112617372D01*
X111596661Y-112617399D01*
X111595926Y-112625165D01*
X111598039Y-112692372D01*
X111598100Y-112696267D01*
X111598100Y-112723857D01*
X111598603Y-112727835D01*
X111599518Y-112739467D01*
X111600890Y-112783124D01*
X111600891Y-112783127D01*
X111606480Y-112802367D01*
X111610424Y-112821411D01*
X111610872Y-112824951D01*
X111612936Y-112841292D01*
X111629014Y-112881903D01*
X111632797Y-112892952D01*
X111644981Y-112934888D01*
X111655180Y-112952134D01*
X111663738Y-112969603D01*
X111671114Y-112988232D01*
X111696781Y-113023560D01*
X111703193Y-113033321D01*
X111725428Y-113070917D01*
X111725433Y-113070924D01*
X111739590Y-113085080D01*
X111752228Y-113099876D01*
X111764005Y-113116086D01*
X111764006Y-113116087D01*
X111797657Y-113143925D01*
X111806298Y-113151788D01*
X116400657Y-117746148D01*
X116434142Y-117807471D01*
X116429158Y-117877163D01*
X116414551Y-117904952D01*
X116300965Y-118067169D01*
X116300964Y-118067171D01*
X116201098Y-118281335D01*
X116201094Y-118281344D01*
X116139938Y-118509586D01*
X116139936Y-118509596D01*
X116119341Y-118744999D01*
X116119341Y-118745000D01*
X116139936Y-118980403D01*
X116139938Y-118980413D01*
X116201094Y-119208655D01*
X116201096Y-119208659D01*
X116201097Y-119208663D01*
X116300965Y-119422830D01*
X116300967Y-119422834D01*
X116436501Y-119616395D01*
X116436506Y-119616402D01*
X116603597Y-119783493D01*
X116603603Y-119783498D01*
X116789158Y-119913425D01*
X116832783Y-119968002D01*
X116839977Y-120037500D01*
X116808454Y-120099855D01*
X116789158Y-120116575D01*
X116603597Y-120246505D01*
X116436505Y-120413597D01*
X116300965Y-120607169D01*
X116300964Y-120607171D01*
X116201098Y-120821335D01*
X116201094Y-120821344D01*
X116139938Y-121049586D01*
X116139936Y-121049596D01*
X116119341Y-121284999D01*
X116119341Y-121285000D01*
X116139936Y-121520403D01*
X116139938Y-121520413D01*
X116201094Y-121748655D01*
X116201096Y-121748659D01*
X116201097Y-121748663D01*
X116300965Y-121962830D01*
X116300967Y-121962834D01*
X116436501Y-122156395D01*
X116436506Y-122156402D01*
X116603597Y-122323493D01*
X116603603Y-122323498D01*
X116789594Y-122453730D01*
X116833219Y-122508307D01*
X116840413Y-122577805D01*
X116808890Y-122640160D01*
X116789595Y-122656880D01*
X116603922Y-122786890D01*
X116603920Y-122786891D01*
X116436891Y-122953920D01*
X116436886Y-122953926D01*
X116301400Y-123147420D01*
X116301399Y-123147422D01*
X116201570Y-123361507D01*
X116201567Y-123361513D01*
X116144364Y-123574999D01*
X116144364Y-123575000D01*
X117029428Y-123575000D01*
X117006318Y-123610960D01*
X116965000Y-123751673D01*
X116965000Y-123898327D01*
X117006318Y-124039040D01*
X117029428Y-124075000D01*
X116144364Y-124075000D01*
X116201567Y-124288486D01*
X116201570Y-124288492D01*
X116301399Y-124502578D01*
X116436894Y-124696082D01*
X116603917Y-124863105D01*
X116797421Y-124998600D01*
X117011507Y-125098429D01*
X117011516Y-125098433D01*
X117225000Y-125155634D01*
X117225000Y-124271494D01*
X117329839Y-124319373D01*
X117438527Y-124335000D01*
X117511473Y-124335000D01*
X117620161Y-124319373D01*
X117725000Y-124271494D01*
X117725000Y-125155633D01*
X117938483Y-125098433D01*
X117938492Y-125098429D01*
X118152578Y-124998600D01*
X118346082Y-124863105D01*
X118513105Y-124696082D01*
X118648600Y-124502578D01*
X118748429Y-124288492D01*
X118748432Y-124288486D01*
X118805636Y-124075000D01*
X117920572Y-124075000D01*
X117943682Y-124039040D01*
X117985000Y-123898327D01*
X117985000Y-123751673D01*
X117943682Y-123610960D01*
X117920572Y-123575000D01*
X118805636Y-123575000D01*
X118805635Y-123574999D01*
X118748432Y-123361513D01*
X118748429Y-123361507D01*
X118648600Y-123147422D01*
X118648599Y-123147420D01*
X118513113Y-122953926D01*
X118513108Y-122953920D01*
X118346078Y-122786890D01*
X118160405Y-122656879D01*
X118116780Y-122602302D01*
X118109588Y-122532804D01*
X118141110Y-122470449D01*
X118160406Y-122453730D01*
X118346401Y-122323495D01*
X118513495Y-122156401D01*
X118649035Y-121962830D01*
X118748903Y-121748663D01*
X118810063Y-121520408D01*
X118830659Y-121285000D01*
X118810063Y-121049592D01*
X118748903Y-120821337D01*
X118649035Y-120607171D01*
X118559054Y-120478663D01*
X118513494Y-120413597D01*
X118346402Y-120246506D01*
X118346396Y-120246501D01*
X118160842Y-120116575D01*
X118117217Y-120061998D01*
X118110023Y-119992500D01*
X118141546Y-119930145D01*
X118160842Y-119913425D01*
X118183026Y-119897891D01*
X118346401Y-119783495D01*
X118513495Y-119616401D01*
X118649035Y-119422830D01*
X118748903Y-119208663D01*
X118810063Y-118980408D01*
X118830659Y-118745000D01*
X118828690Y-118722500D01*
X118821772Y-118643425D01*
X118810063Y-118509592D01*
X118748903Y-118281337D01*
X118649035Y-118067171D01*
X118559054Y-117938663D01*
X118513494Y-117873597D01*
X118346402Y-117706506D01*
X118346401Y-117706505D01*
X118160840Y-117576574D01*
X118117216Y-117521997D01*
X118110023Y-117452498D01*
X118141545Y-117390144D01*
X118160831Y-117373432D01*
X118346401Y-117243495D01*
X118513495Y-117076401D01*
X118649035Y-116882830D01*
X118748903Y-116668663D01*
X118810063Y-116440408D01*
X118830659Y-116205000D01*
X118828690Y-116182500D01*
X118821772Y-116103425D01*
X118810063Y-115969592D01*
X118748903Y-115741337D01*
X118649035Y-115527171D01*
X118559054Y-115398663D01*
X118513494Y-115333597D01*
X118346402Y-115166506D01*
X118346401Y-115166505D01*
X118160840Y-115036574D01*
X118117216Y-114981997D01*
X118110023Y-114912498D01*
X118141545Y-114850144D01*
X118160831Y-114833432D01*
X118346401Y-114703495D01*
X118513495Y-114536401D01*
X118649035Y-114342830D01*
X118748903Y-114128663D01*
X118810063Y-113900408D01*
X118830659Y-113665000D01*
X118828690Y-113642500D01*
X118821772Y-113563425D01*
X118810063Y-113429592D01*
X118748903Y-113201337D01*
X118649035Y-112987171D01*
X118630382Y-112960532D01*
X118535448Y-112824951D01*
X118513121Y-112758745D01*
X118530131Y-112690978D01*
X118549339Y-112666150D01*
X119037686Y-112177802D01*
X119049948Y-112167980D01*
X119049765Y-112167759D01*
X119055768Y-112162791D01*
X119055777Y-112162786D01*
X119101834Y-112113739D01*
X119104482Y-112111006D01*
X119124020Y-112091470D01*
X119126470Y-112088310D01*
X119134054Y-112079429D01*
X119163962Y-112047582D01*
X119173614Y-112030023D01*
X119184289Y-112013772D01*
X119196574Y-111997936D01*
X119213930Y-111957825D01*
X119219061Y-111947354D01*
X119240094Y-111909098D01*
X119240094Y-111909097D01*
X119240097Y-111909092D01*
X119245080Y-111889680D01*
X119251377Y-111871291D01*
X119259338Y-111852895D01*
X119266170Y-111809748D01*
X119268539Y-111798316D01*
X119279399Y-111756022D01*
X119279400Y-111756017D01*
X119279400Y-111735983D01*
X119280927Y-111716582D01*
X119284060Y-111696804D01*
X119279950Y-111653324D01*
X119279400Y-111641655D01*
X119279400Y-100573042D01*
X119281124Y-100557422D01*
X119280839Y-100557395D01*
X119281573Y-100549633D01*
X119279461Y-100482412D01*
X119279400Y-100478518D01*
X119279400Y-100450956D01*
X119279400Y-100450950D01*
X119278896Y-100446968D01*
X119277981Y-100435329D01*
X119276610Y-100391673D01*
X119271019Y-100372430D01*
X119267073Y-100353378D01*
X119264564Y-100333508D01*
X119248479Y-100292883D01*
X119244706Y-100281862D01*
X119232518Y-100239910D01*
X119232517Y-100239909D01*
X119232517Y-100239907D01*
X119232516Y-100239906D01*
X119222323Y-100222671D01*
X119213761Y-100205194D01*
X119206387Y-100186569D01*
X119180716Y-100151237D01*
X119174305Y-100141477D01*
X119152070Y-100103880D01*
X119152068Y-100103878D01*
X119152065Y-100103874D01*
X119137906Y-100089715D01*
X119125268Y-100074919D01*
X119113494Y-100058713D01*
X119079840Y-100030872D01*
X119071199Y-100023009D01*
X116523191Y-97475000D01*
X118414341Y-97475000D01*
X118434936Y-97710403D01*
X118434938Y-97710413D01*
X118496094Y-97938655D01*
X118496096Y-97938659D01*
X118496097Y-97938663D01*
X118580499Y-98119663D01*
X118595965Y-98152830D01*
X118595967Y-98152834D01*
X118688126Y-98284449D01*
X118731505Y-98346401D01*
X118898599Y-98513495D01*
X118988429Y-98576395D01*
X119092165Y-98649032D01*
X119092167Y-98649033D01*
X119092170Y-98649035D01*
X119306337Y-98748903D01*
X119534592Y-98810063D01*
X119711034Y-98825500D01*
X119769999Y-98830659D01*
X119770000Y-98830659D01*
X119770001Y-98830659D01*
X119828966Y-98825500D01*
X120005408Y-98810063D01*
X120233663Y-98748903D01*
X120447830Y-98649035D01*
X120641401Y-98513495D01*
X120763329Y-98391566D01*
X120824648Y-98358084D01*
X120894340Y-98363068D01*
X120950274Y-98404939D01*
X120967189Y-98435917D01*
X121016202Y-98567328D01*
X121016206Y-98567335D01*
X121102452Y-98682544D01*
X121102455Y-98682547D01*
X121217664Y-98768793D01*
X121217671Y-98768797D01*
X121352517Y-98819091D01*
X121352516Y-98819091D01*
X121359444Y-98819835D01*
X121412127Y-98825500D01*
X123207872Y-98825499D01*
X123267483Y-98819091D01*
X123402331Y-98768796D01*
X123517546Y-98682546D01*
X123603796Y-98567331D01*
X123652810Y-98435916D01*
X123694681Y-98379984D01*
X123760145Y-98355566D01*
X123828418Y-98370417D01*
X123856673Y-98391569D01*
X123978599Y-98513495D01*
X124068429Y-98576395D01*
X124172165Y-98649032D01*
X124172167Y-98649033D01*
X124172170Y-98649035D01*
X124386337Y-98748903D01*
X124614592Y-98810063D01*
X124791034Y-98825500D01*
X124849999Y-98830659D01*
X124850000Y-98830659D01*
X124850001Y-98830659D01*
X124908966Y-98825500D01*
X125085408Y-98810063D01*
X125313663Y-98748903D01*
X125527830Y-98649035D01*
X125721401Y-98513495D01*
X125888495Y-98346401D01*
X126024035Y-98152830D01*
X126123903Y-97938663D01*
X126185063Y-97710408D01*
X126205659Y-97475000D01*
X126185063Y-97239592D01*
X126123903Y-97011337D01*
X126024035Y-96797171D01*
X125932540Y-96666501D01*
X125888494Y-96603597D01*
X125721402Y-96436506D01*
X125721395Y-96436501D01*
X125719251Y-96435000D01*
X125644518Y-96382671D01*
X125527834Y-96300967D01*
X125527830Y-96300965D01*
X125527828Y-96300964D01*
X125313663Y-96201097D01*
X125313659Y-96201096D01*
X125313655Y-96201094D01*
X125085413Y-96139938D01*
X125085403Y-96139936D01*
X124850001Y-96119341D01*
X124849999Y-96119341D01*
X124614596Y-96139936D01*
X124614586Y-96139938D01*
X124386344Y-96201094D01*
X124386335Y-96201098D01*
X124172171Y-96300964D01*
X124172169Y-96300965D01*
X123978600Y-96436503D01*
X123856673Y-96558430D01*
X123795350Y-96591914D01*
X123725658Y-96586930D01*
X123669725Y-96545058D01*
X123652810Y-96514081D01*
X123603797Y-96382671D01*
X123603793Y-96382664D01*
X123517547Y-96267455D01*
X123517544Y-96267452D01*
X123402335Y-96181206D01*
X123402328Y-96181202D01*
X123267482Y-96130908D01*
X123267483Y-96130908D01*
X123207883Y-96124501D01*
X123207881Y-96124500D01*
X123207873Y-96124500D01*
X123207864Y-96124500D01*
X121412129Y-96124500D01*
X121412123Y-96124501D01*
X121352516Y-96130908D01*
X121217671Y-96181202D01*
X121217664Y-96181206D01*
X121102455Y-96267452D01*
X121102452Y-96267455D01*
X121016206Y-96382664D01*
X121016203Y-96382669D01*
X120967189Y-96514083D01*
X120925317Y-96570016D01*
X120859853Y-96594433D01*
X120791580Y-96579581D01*
X120763326Y-96558430D01*
X120641402Y-96436506D01*
X120641395Y-96436501D01*
X120639251Y-96435000D01*
X120564518Y-96382671D01*
X120447834Y-96300967D01*
X120447830Y-96300965D01*
X120447828Y-96300964D01*
X120233663Y-96201097D01*
X120233659Y-96201096D01*
X120233655Y-96201094D01*
X120005413Y-96139938D01*
X120005403Y-96139936D01*
X119770001Y-96119341D01*
X119769999Y-96119341D01*
X119534596Y-96139936D01*
X119534586Y-96139938D01*
X119306344Y-96201094D01*
X119306335Y-96201098D01*
X119092171Y-96300964D01*
X119092169Y-96300965D01*
X118898597Y-96436505D01*
X118731505Y-96603597D01*
X118595965Y-96797169D01*
X118595964Y-96797171D01*
X118496098Y-97011335D01*
X118496094Y-97011344D01*
X118434938Y-97239586D01*
X118434936Y-97239596D01*
X118414341Y-97474999D01*
X118414341Y-97475000D01*
X116523191Y-97475000D01*
X115446419Y-96398228D01*
X115412934Y-96336905D01*
X115410100Y-96310547D01*
X115410100Y-89803442D01*
X115411824Y-89787822D01*
X115411539Y-89787795D01*
X115412273Y-89780033D01*
X115410161Y-89712812D01*
X115410100Y-89708918D01*
X115410100Y-89681356D01*
X115410100Y-89681350D01*
X115409596Y-89677368D01*
X115408681Y-89665729D01*
X115407310Y-89622073D01*
X115401719Y-89602830D01*
X115397773Y-89583778D01*
X115395264Y-89563908D01*
X115379179Y-89523283D01*
X115375404Y-89512255D01*
X115363218Y-89470310D01*
X115353019Y-89453064D01*
X115344458Y-89435588D01*
X115337087Y-89416971D01*
X115337086Y-89416968D01*
X115311405Y-89381621D01*
X115305009Y-89371882D01*
X115282771Y-89334280D01*
X115282769Y-89334278D01*
X115282766Y-89334274D01*
X115268605Y-89320113D01*
X115255970Y-89305320D01*
X115244193Y-89289112D01*
X115210545Y-89261276D01*
X115201904Y-89253413D01*
X114493519Y-88545028D01*
X114460034Y-88483705D01*
X114465018Y-88414013D01*
X114479622Y-88386228D01*
X114594035Y-88222830D01*
X114693903Y-88008663D01*
X114755063Y-87780408D01*
X114775659Y-87545000D01*
X114755063Y-87309592D01*
X114693903Y-87081337D01*
X114594035Y-86867171D01*
X114460680Y-86676719D01*
X114438353Y-86610513D01*
X114455363Y-86542746D01*
X114474570Y-86517919D01*
X129187819Y-71804671D01*
X129249142Y-71771186D01*
X129318834Y-71776170D01*
X129374767Y-71818042D01*
X129399184Y-71883506D01*
X129399500Y-71892352D01*
X129399500Y-83747255D01*
X129397775Y-83762872D01*
X129398061Y-83762899D01*
X129397326Y-83770665D01*
X129399439Y-83837872D01*
X129399500Y-83841767D01*
X129399500Y-83869357D01*
X129400003Y-83873335D01*
X129400918Y-83884967D01*
X129402290Y-83928624D01*
X129402291Y-83928627D01*
X129407880Y-83947867D01*
X129411824Y-83966911D01*
X129414336Y-83986792D01*
X129430414Y-84027403D01*
X129434197Y-84038452D01*
X129446381Y-84080388D01*
X129456580Y-84097634D01*
X129465138Y-84115103D01*
X129472514Y-84133732D01*
X129498181Y-84169060D01*
X129504593Y-84178821D01*
X129526828Y-84216417D01*
X129526833Y-84216424D01*
X129540990Y-84230580D01*
X129553628Y-84245376D01*
X129565405Y-84261586D01*
X129565406Y-84261587D01*
X129599057Y-84289425D01*
X129607698Y-84297288D01*
X129859762Y-84549352D01*
X129893247Y-84610675D01*
X129891856Y-84669126D01*
X129864938Y-84769586D01*
X129864936Y-84769596D01*
X129844341Y-85004999D01*
X129844341Y-85005000D01*
X129864936Y-85240403D01*
X129864938Y-85240413D01*
X129926094Y-85468655D01*
X129926096Y-85468659D01*
X129926097Y-85468663D01*
X130025965Y-85682830D01*
X130025967Y-85682834D01*
X130161501Y-85876395D01*
X130161506Y-85876402D01*
X130328597Y-86043493D01*
X130328603Y-86043498D01*
X130514158Y-86173425D01*
X130557783Y-86228002D01*
X130564977Y-86297500D01*
X130533454Y-86359855D01*
X130514158Y-86376575D01*
X130328597Y-86506505D01*
X130161505Y-86673597D01*
X130025965Y-86867169D01*
X130025964Y-86867171D01*
X129926098Y-87081335D01*
X129926094Y-87081344D01*
X129864938Y-87309586D01*
X129864936Y-87309596D01*
X129844341Y-87544999D01*
X129844341Y-87545000D01*
X129864936Y-87780403D01*
X129864938Y-87780413D01*
X129926094Y-88008655D01*
X129926096Y-88008659D01*
X129926097Y-88008663D01*
X129992608Y-88151295D01*
X130025965Y-88222830D01*
X130025967Y-88222834D01*
X130161501Y-88416395D01*
X130161506Y-88416402D01*
X130328597Y-88583493D01*
X130328603Y-88583498D01*
X130514158Y-88713425D01*
X130557783Y-88768002D01*
X130564977Y-88837500D01*
X130533454Y-88899855D01*
X130514158Y-88916575D01*
X130328597Y-89046505D01*
X130161505Y-89213597D01*
X130025965Y-89407169D01*
X130025964Y-89407171D01*
X129926098Y-89621335D01*
X129926094Y-89621344D01*
X129864938Y-89849586D01*
X129864936Y-89849596D01*
X129844341Y-90084999D01*
X129844341Y-90085000D01*
X129864936Y-90320403D01*
X129864938Y-90320413D01*
X129926094Y-90548655D01*
X129926096Y-90548659D01*
X129926097Y-90548663D01*
X129926100Y-90548669D01*
X130025965Y-90762830D01*
X130025967Y-90762834D01*
X130083220Y-90844599D01*
X130161501Y-90956396D01*
X130161506Y-90956402D01*
X130283430Y-91078326D01*
X130316915Y-91139649D01*
X130311931Y-91209341D01*
X130270059Y-91265274D01*
X130239083Y-91282189D01*
X130107669Y-91331203D01*
X130107664Y-91331206D01*
X129992455Y-91417452D01*
X129992452Y-91417455D01*
X129906206Y-91532664D01*
X129906202Y-91532671D01*
X129855908Y-91667517D01*
X129854078Y-91684543D01*
X129849501Y-91727123D01*
X129849500Y-91727135D01*
X129849500Y-93522870D01*
X129849501Y-93522876D01*
X129855908Y-93582483D01*
X129906202Y-93717328D01*
X129906206Y-93717335D01*
X129992452Y-93832544D01*
X129992455Y-93832547D01*
X130107664Y-93918793D01*
X130107671Y-93918797D01*
X130239081Y-93967810D01*
X130295015Y-94009681D01*
X130319432Y-94075145D01*
X130304580Y-94143418D01*
X130283430Y-94171673D01*
X130161503Y-94293600D01*
X130025965Y-94487169D01*
X130025964Y-94487171D01*
X129926098Y-94701335D01*
X129926094Y-94701344D01*
X129864938Y-94929586D01*
X129864936Y-94929596D01*
X129844341Y-95164999D01*
X129844341Y-95165000D01*
X129864936Y-95400403D01*
X129864938Y-95400413D01*
X129926094Y-95628655D01*
X129926096Y-95628659D01*
X129926097Y-95628663D01*
X130025965Y-95842830D01*
X130025967Y-95842834D01*
X130161501Y-96036395D01*
X130161506Y-96036402D01*
X130328597Y-96203493D01*
X130328603Y-96203498D01*
X130514158Y-96333425D01*
X130557783Y-96388002D01*
X130564977Y-96457500D01*
X130533454Y-96519855D01*
X130514158Y-96536575D01*
X130328597Y-96666505D01*
X130161505Y-96833597D01*
X130025965Y-97027169D01*
X130025964Y-97027171D01*
X129926098Y-97241335D01*
X129926094Y-97241344D01*
X129864938Y-97469586D01*
X129864936Y-97469596D01*
X129844341Y-97704999D01*
X129844341Y-97705000D01*
X129864936Y-97940403D01*
X129864938Y-97940413D01*
X129926094Y-98168655D01*
X129926096Y-98168659D01*
X129926097Y-98168663D01*
X130021322Y-98372873D01*
X130025965Y-98382830D01*
X130025967Y-98382834D01*
X130117456Y-98513493D01*
X130161505Y-98576401D01*
X130328599Y-98743495D01*
X130364733Y-98768796D01*
X130522165Y-98879032D01*
X130522167Y-98879033D01*
X130522170Y-98879035D01*
X130736337Y-98978903D01*
X130964592Y-99040063D01*
X131152918Y-99056539D01*
X131199999Y-99060659D01*
X131200000Y-99060659D01*
X131200001Y-99060659D01*
X131239234Y-99057226D01*
X131435408Y-99040063D01*
X131663663Y-98978903D01*
X131877830Y-98879035D01*
X132071401Y-98743495D01*
X132238495Y-98576401D01*
X132374035Y-98382830D01*
X132473903Y-98168663D01*
X132535063Y-97940408D01*
X132555659Y-97705000D01*
X132535063Y-97469592D01*
X132473903Y-97241337D01*
X132374035Y-97027171D01*
X132238495Y-96833599D01*
X132238494Y-96833597D01*
X132071402Y-96666506D01*
X132071396Y-96666501D01*
X131885842Y-96536575D01*
X131842217Y-96481998D01*
X131835023Y-96412500D01*
X131866546Y-96350145D01*
X131885842Y-96333425D01*
X131932197Y-96300967D01*
X132071401Y-96203495D01*
X132238495Y-96036401D01*
X132374035Y-95842830D01*
X132473903Y-95628663D01*
X132535063Y-95400408D01*
X132555659Y-95165000D01*
X132535063Y-94929592D01*
X132473903Y-94701337D01*
X132374035Y-94487171D01*
X132238495Y-94293599D01*
X132116567Y-94171671D01*
X132083084Y-94110351D01*
X132088068Y-94040659D01*
X132129939Y-93984725D01*
X132160915Y-93967810D01*
X132292331Y-93918796D01*
X132407546Y-93832546D01*
X132493796Y-93717331D01*
X132544091Y-93582483D01*
X132550500Y-93522873D01*
X132550499Y-91727128D01*
X132544091Y-91667517D01*
X132529872Y-91629395D01*
X132493797Y-91532671D01*
X132493793Y-91532664D01*
X132407547Y-91417455D01*
X132407544Y-91417452D01*
X132292335Y-91331206D01*
X132292328Y-91331202D01*
X132160917Y-91282189D01*
X132104983Y-91240318D01*
X132080566Y-91174853D01*
X132095418Y-91106580D01*
X132116563Y-91078332D01*
X132238495Y-90956401D01*
X132374035Y-90762830D01*
X132473903Y-90548663D01*
X132535063Y-90320408D01*
X132555659Y-90085000D01*
X132535063Y-89849592D01*
X132473903Y-89621337D01*
X132374035Y-89407171D01*
X132356160Y-89381642D01*
X132238494Y-89213597D01*
X132071402Y-89046506D01*
X132071396Y-89046501D01*
X131885842Y-88916575D01*
X131842217Y-88861998D01*
X131835023Y-88792500D01*
X131866546Y-88730145D01*
X131885842Y-88713425D01*
X131908026Y-88697891D01*
X132071401Y-88583495D01*
X132238495Y-88416401D01*
X132374035Y-88222830D01*
X132473903Y-88008663D01*
X132535063Y-87780408D01*
X132555659Y-87545000D01*
X132535063Y-87309592D01*
X132473903Y-87081337D01*
X132374035Y-86867171D01*
X132238495Y-86673599D01*
X132238494Y-86673597D01*
X132071402Y-86506506D01*
X132071396Y-86506501D01*
X131885842Y-86376575D01*
X131842217Y-86321998D01*
X131835023Y-86252500D01*
X131866546Y-86190145D01*
X131885842Y-86173425D01*
X131908026Y-86157891D01*
X132071401Y-86043495D01*
X132238495Y-85876401D01*
X132374035Y-85682830D01*
X132473903Y-85468663D01*
X132535063Y-85240408D01*
X132555659Y-85005000D01*
X132535063Y-84769592D01*
X132473903Y-84541337D01*
X132374035Y-84327171D01*
X132374034Y-84327169D01*
X132238494Y-84133597D01*
X132071402Y-83966506D01*
X132071396Y-83966501D01*
X131885842Y-83836575D01*
X131842217Y-83781998D01*
X131835023Y-83712500D01*
X131866546Y-83650145D01*
X131885842Y-83633425D01*
X131908026Y-83617891D01*
X132071401Y-83503495D01*
X132238495Y-83336401D01*
X132374035Y-83142830D01*
X132473903Y-82928663D01*
X132535063Y-82700408D01*
X132555659Y-82465000D01*
X132535063Y-82229592D01*
X132473903Y-82001337D01*
X132374035Y-81787171D01*
X132238495Y-81593599D01*
X132116567Y-81471671D01*
X132083084Y-81410351D01*
X132088068Y-81340659D01*
X132129939Y-81284725D01*
X132160915Y-81267810D01*
X132292331Y-81218796D01*
X132407546Y-81132546D01*
X132493796Y-81017331D01*
X132544091Y-80882483D01*
X132550500Y-80822873D01*
X132550499Y-79027128D01*
X132544091Y-78967517D01*
X132493796Y-78832669D01*
X132493795Y-78832668D01*
X132493793Y-78832664D01*
X132407547Y-78717455D01*
X132407544Y-78717452D01*
X132292335Y-78631206D01*
X132292328Y-78631202D01*
X132160917Y-78582189D01*
X132104983Y-78540318D01*
X132080566Y-78474853D01*
X132095418Y-78406580D01*
X132116563Y-78378332D01*
X132238495Y-78256401D01*
X132374035Y-78062830D01*
X132473903Y-77848663D01*
X132535063Y-77620408D01*
X132555659Y-77385000D01*
X132535063Y-77149592D01*
X132508143Y-77049125D01*
X132509806Y-76979276D01*
X132540235Y-76929353D01*
X141353786Y-68115802D01*
X141366048Y-68105980D01*
X141365865Y-68105759D01*
X141371868Y-68100791D01*
X141371877Y-68100786D01*
X141417934Y-68051739D01*
X141420582Y-68049006D01*
X141440120Y-68029470D01*
X141442570Y-68026310D01*
X141450154Y-68017429D01*
X141480062Y-67985582D01*
X141489714Y-67968023D01*
X141500389Y-67951772D01*
X141512674Y-67935936D01*
X141530030Y-67895825D01*
X141535161Y-67885354D01*
X141556194Y-67847098D01*
X141556194Y-67847097D01*
X141556197Y-67847092D01*
X141561180Y-67827680D01*
X141567477Y-67809291D01*
X141575438Y-67790895D01*
X141582270Y-67747748D01*
X141584639Y-67736316D01*
X141595499Y-67694022D01*
X141595500Y-67694017D01*
X141595500Y-67673983D01*
X141597027Y-67654582D01*
X141600160Y-67634804D01*
X141596050Y-67591324D01*
X141595500Y-67579655D01*
X141595500Y-53330821D01*
X141615185Y-53263782D01*
X141648372Y-53229250D01*
X141833787Y-53099421D01*
X141935219Y-52997989D01*
X141996542Y-52964504D01*
X142066234Y-52969488D01*
X142122167Y-53011360D01*
X142146584Y-53076824D01*
X142146900Y-53085670D01*
X142146900Y-124691826D01*
X142127215Y-124758865D01*
X142074411Y-124804620D01*
X142005253Y-124814564D01*
X141993954Y-124812400D01*
X141856152Y-124779318D01*
X141856148Y-124779317D01*
X141605000Y-124759551D01*
X141353848Y-124779317D01*
X141108889Y-124838126D01*
X140876140Y-124934533D01*
X140661346Y-125066160D01*
X140661343Y-125066161D01*
X140469776Y-125229776D01*
X140306161Y-125421343D01*
X140306160Y-125421346D01*
X140174533Y-125636140D01*
X140078126Y-125868889D01*
X140019317Y-126113848D01*
X139999551Y-126365000D01*
X140019317Y-126616151D01*
X140074752Y-126847053D01*
X140071261Y-126916836D01*
X140030597Y-126973653D01*
X139965671Y-126999466D01*
X139954178Y-127000000D01*
X103250822Y-127000000D01*
X103183783Y-126980315D01*
X103138028Y-126927511D01*
X103128084Y-126858353D01*
X103130248Y-126847053D01*
X103185682Y-126616151D01*
X103185683Y-126616148D01*
X103205449Y-126365000D01*
X103185683Y-126113852D01*
X103126873Y-125868889D01*
X103030466Y-125636141D01*
X103030466Y-125636140D01*
X102898839Y-125421346D01*
X102898838Y-125421343D01*
X102861875Y-125378066D01*
X102735224Y-125229776D01*
X102581441Y-125098433D01*
X102543656Y-125066161D01*
X102543653Y-125066160D01*
X102328859Y-124934533D01*
X102096110Y-124838126D01*
X101851151Y-124779317D01*
X101600000Y-124759551D01*
X101348848Y-124779317D01*
X101103887Y-124838127D01*
X101103885Y-124838127D01*
X101043352Y-124863201D01*
X100973882Y-124870670D01*
X100911403Y-124839394D01*
X100875752Y-124779305D01*
X100871900Y-124748640D01*
X100871900Y-56515000D01*
X103431186Y-56515000D01*
X103451601Y-56748346D01*
X103451603Y-56748356D01*
X103512225Y-56974603D01*
X103512227Y-56974607D01*
X103512228Y-56974611D01*
X103611223Y-57186907D01*
X103745579Y-57378787D01*
X103911213Y-57544421D01*
X104103093Y-57678777D01*
X104315389Y-57777772D01*
X104541649Y-57838398D01*
X104661441Y-57848878D01*
X104726509Y-57874330D01*
X104767488Y-57930921D01*
X104771366Y-58000683D01*
X104770408Y-58004499D01*
X104721603Y-58186643D01*
X104721601Y-58186653D01*
X104701186Y-58419999D01*
X104701186Y-58420000D01*
X104721601Y-58653346D01*
X104721603Y-58653356D01*
X104782225Y-58879603D01*
X104782227Y-58879607D01*
X104782228Y-58879611D01*
X104881223Y-59091907D01*
X105015579Y-59283787D01*
X105181213Y-59449421D01*
X105373093Y-59583777D01*
X105585389Y-59682772D01*
X105811649Y-59743398D01*
X105998329Y-59759730D01*
X106044999Y-59763814D01*
X106045000Y-59763814D01*
X106045001Y-59763814D01*
X106083891Y-59760411D01*
X106278351Y-59743398D01*
X106504611Y-59682772D01*
X106716907Y-59583777D01*
X106908787Y-59449421D01*
X107074421Y-59283787D01*
X107208777Y-59091907D01*
X107307772Y-58879611D01*
X107368398Y-58653351D01*
X107388814Y-58420000D01*
X107368398Y-58186649D01*
X107319460Y-58004009D01*
X107321123Y-57934159D01*
X107360286Y-57876297D01*
X107424514Y-57848793D01*
X107428428Y-57848388D01*
X107548258Y-57837904D01*
X107548268Y-57837902D01*
X107774432Y-57777302D01*
X107774441Y-57777298D01*
X107986655Y-57678342D01*
X108067900Y-57621453D01*
X107364994Y-56918547D01*
X107442150Y-56906327D01*
X107556854Y-56847883D01*
X107647883Y-56756854D01*
X107706327Y-56642150D01*
X107718547Y-56564994D01*
X108421453Y-57267900D01*
X108478342Y-57186655D01*
X108577298Y-56974441D01*
X108577302Y-56974432D01*
X108637902Y-56748268D01*
X108637904Y-56748258D01*
X108658312Y-56515001D01*
X108658312Y-56514998D01*
X108637904Y-56281741D01*
X108637902Y-56281731D01*
X108577302Y-56055567D01*
X108577298Y-56055558D01*
X108478342Y-55843345D01*
X108478341Y-55843343D01*
X108421453Y-55762099D01*
X108421453Y-55762098D01*
X107718547Y-56465004D01*
X107706327Y-56387850D01*
X107647883Y-56273146D01*
X107556854Y-56182117D01*
X107442150Y-56123673D01*
X107364994Y-56111452D01*
X108067900Y-55408546D01*
X108067899Y-55408545D01*
X107986656Y-55351658D01*
X107986654Y-55351657D01*
X107774441Y-55252701D01*
X107774432Y-55252697D01*
X107548268Y-55192097D01*
X107548258Y-55192095D01*
X107315002Y-55171688D01*
X107314998Y-55171688D01*
X107081741Y-55192095D01*
X107081731Y-55192097D01*
X106855567Y-55252697D01*
X106855558Y-55252701D01*
X106643341Y-55351659D01*
X106562099Y-55408544D01*
X106562098Y-55408545D01*
X107265006Y-56111452D01*
X107187850Y-56123673D01*
X107073146Y-56182117D01*
X106982117Y-56273146D01*
X106923673Y-56387850D01*
X106911452Y-56465005D01*
X106208544Y-55762098D01*
X106148553Y-55847778D01*
X106147187Y-55846821D01*
X106102081Y-55889808D01*
X106033471Y-55903014D01*
X105968613Y-55877029D01*
X105942614Y-55847014D01*
X105941882Y-55847528D01*
X105938777Y-55843093D01*
X105804421Y-55651213D01*
X105638787Y-55485579D01*
X105453375Y-55355752D01*
X105409751Y-55301176D01*
X105400500Y-55254178D01*
X105400500Y-54554188D01*
X105420185Y-54487149D01*
X105453377Y-54452613D01*
X105572195Y-54369416D01*
X105614139Y-54340047D01*
X105775047Y-54179139D01*
X105905568Y-53992734D01*
X106001739Y-53786496D01*
X106060635Y-53566692D01*
X106078951Y-53357340D01*
X106080468Y-53340001D01*
X106080468Y-53339998D01*
X106070950Y-53231206D01*
X106060635Y-53113308D01*
X106001739Y-52893504D01*
X105905568Y-52687266D01*
X105775047Y-52500861D01*
X105775045Y-52500858D01*
X105614141Y-52339954D01*
X105427734Y-52209432D01*
X105427732Y-52209431D01*
X105221497Y-52113261D01*
X105221488Y-52113258D01*
X105001697Y-52054366D01*
X105001693Y-52054365D01*
X105001692Y-52054365D01*
X105001691Y-52054364D01*
X105001686Y-52054364D01*
X104775002Y-52034532D01*
X104774998Y-52034532D01*
X104548313Y-52054364D01*
X104548302Y-52054366D01*
X104328511Y-52113258D01*
X104328502Y-52113261D01*
X104122267Y-52209431D01*
X104122265Y-52209432D01*
X103935858Y-52339954D01*
X103774954Y-52500858D01*
X103644432Y-52687265D01*
X103644431Y-52687267D01*
X103548261Y-52893502D01*
X103548258Y-52893511D01*
X103489366Y-53113302D01*
X103489364Y-53113313D01*
X103469532Y-53339998D01*
X103469532Y-53340001D01*
X103489364Y-53566686D01*
X103489366Y-53566697D01*
X103548258Y-53786488D01*
X103548261Y-53786497D01*
X103644431Y-53992732D01*
X103644432Y-53992734D01*
X103774954Y-54179141D01*
X103935858Y-54340045D01*
X104096623Y-54452613D01*
X104140248Y-54507189D01*
X104149500Y-54554188D01*
X104149500Y-55254178D01*
X104129815Y-55321217D01*
X104096625Y-55355751D01*
X103911213Y-55485579D01*
X103911211Y-55485580D01*
X103911208Y-55485583D01*
X103745583Y-55651208D01*
X103745580Y-55651211D01*
X103745579Y-55651213D01*
X103611223Y-55843093D01*
X103589440Y-55889808D01*
X103512229Y-56055387D01*
X103512225Y-56055396D01*
X103451603Y-56281643D01*
X103451601Y-56281653D01*
X103431186Y-56514999D01*
X103431186Y-56515000D01*
X100871900Y-56515000D01*
X100871900Y-40410006D01*
X103349700Y-40410006D01*
X103368864Y-40641297D01*
X103368866Y-40641308D01*
X103425842Y-40866300D01*
X103519075Y-41078848D01*
X103646016Y-41273147D01*
X103646019Y-41273151D01*
X103646021Y-41273153D01*
X103803216Y-41443913D01*
X103803219Y-41443915D01*
X103803222Y-41443918D01*
X103986365Y-41586464D01*
X103986372Y-41586468D01*
X103986374Y-41586470D01*
X104044516Y-41617935D01*
X104084517Y-41639582D01*
X104134108Y-41688801D01*
X104149500Y-41748637D01*
X104149500Y-41965811D01*
X104129815Y-42032850D01*
X104096623Y-42067386D01*
X103935859Y-42179953D01*
X103774954Y-42340858D01*
X103644432Y-42527265D01*
X103644431Y-42527267D01*
X103548261Y-42733502D01*
X103548258Y-42733511D01*
X103489366Y-42953302D01*
X103489364Y-42953313D01*
X103469532Y-43179998D01*
X103469532Y-43180001D01*
X103489364Y-43406686D01*
X103489366Y-43406697D01*
X103548258Y-43626488D01*
X103548261Y-43626497D01*
X103644431Y-43832732D01*
X103644432Y-43832734D01*
X103774954Y-44019141D01*
X103935858Y-44180045D01*
X103935861Y-44180047D01*
X104122266Y-44310568D01*
X104328504Y-44406739D01*
X104548308Y-44465635D01*
X104710230Y-44479801D01*
X104774998Y-44485468D01*
X104775000Y-44485468D01*
X104775002Y-44485468D01*
X104831673Y-44480509D01*
X105001692Y-44465635D01*
X105221496Y-44406739D01*
X105427734Y-44310568D01*
X105614139Y-44180047D01*
X105775047Y-44019139D01*
X105905568Y-43832734D01*
X106001739Y-43626496D01*
X106060635Y-43406692D01*
X106080468Y-43180000D01*
X106060635Y-42953308D01*
X106001739Y-42733504D01*
X105905568Y-42527266D01*
X105775047Y-42340861D01*
X105775045Y-42340858D01*
X105614140Y-42179953D01*
X105453377Y-42067386D01*
X105409752Y-42012809D01*
X105400500Y-41965811D01*
X105400500Y-41726990D01*
X105420185Y-41659951D01*
X105465483Y-41617935D01*
X105523624Y-41586471D01*
X105523623Y-41586471D01*
X105523626Y-41586470D01*
X105706784Y-41443913D01*
X105715130Y-41434846D01*
X105775010Y-41398854D01*
X105844849Y-41400949D01*
X105902468Y-41440469D01*
X105922544Y-41475491D01*
X105951203Y-41552330D01*
X105951206Y-41552335D01*
X106037452Y-41667544D01*
X106037455Y-41667547D01*
X106152664Y-41753793D01*
X106152671Y-41753797D01*
X106287517Y-41804091D01*
X106287516Y-41804091D01*
X106294444Y-41804835D01*
X106347127Y-41810500D01*
X108242872Y-41810499D01*
X108302483Y-41804091D01*
X108437331Y-41753796D01*
X108552546Y-41667546D01*
X108638796Y-41552331D01*
X108689091Y-41417483D01*
X108695500Y-41357873D01*
X108695500Y-40410006D01*
X109699700Y-40410006D01*
X109718864Y-40641297D01*
X109718866Y-40641308D01*
X109775842Y-40866300D01*
X109869075Y-41078848D01*
X109996016Y-41273147D01*
X109996019Y-41273151D01*
X109996021Y-41273153D01*
X110153216Y-41443913D01*
X110153219Y-41443915D01*
X110153222Y-41443918D01*
X110336365Y-41586464D01*
X110336372Y-41586468D01*
X110336374Y-41586470D01*
X110394516Y-41617935D01*
X110434517Y-41639582D01*
X110484108Y-41688801D01*
X110499500Y-41748637D01*
X110499500Y-43235811D01*
X110479815Y-43302850D01*
X110446623Y-43337386D01*
X110285859Y-43449953D01*
X110124954Y-43610858D01*
X109994432Y-43797265D01*
X109994431Y-43797267D01*
X109898261Y-44003502D01*
X109898258Y-44003511D01*
X109839366Y-44223302D01*
X109839364Y-44223313D01*
X109819532Y-44449998D01*
X109819532Y-44450001D01*
X109839364Y-44676686D01*
X109839366Y-44676697D01*
X109898258Y-44896488D01*
X109898261Y-44896497D01*
X109994431Y-45102732D01*
X109994432Y-45102734D01*
X110124954Y-45289141D01*
X110285858Y-45450045D01*
X110285861Y-45450047D01*
X110472266Y-45580568D01*
X110678504Y-45676739D01*
X110678509Y-45676740D01*
X110678511Y-45676741D01*
X110731415Y-45690916D01*
X110898308Y-45735635D01*
X111057471Y-45749560D01*
X111124998Y-45755468D01*
X111125000Y-45755468D01*
X111125002Y-45755468D01*
X111181673Y-45750509D01*
X111351692Y-45735635D01*
X111571496Y-45676739D01*
X111777734Y-45580568D01*
X111964139Y-45450047D01*
X112125047Y-45289139D01*
X112255568Y-45102734D01*
X112351739Y-44896496D01*
X112410635Y-44676692D01*
X112430468Y-44450000D01*
X112410635Y-44223308D01*
X112351739Y-44003504D01*
X112255568Y-43797266D01*
X112125047Y-43610861D01*
X112125045Y-43610858D01*
X111964140Y-43449953D01*
X111803377Y-43337386D01*
X111759752Y-43282809D01*
X111750500Y-43235811D01*
X111750500Y-41910005D01*
X130584859Y-41910005D01*
X130605385Y-42157729D01*
X130605387Y-42157738D01*
X130666412Y-42398717D01*
X130766266Y-42626364D01*
X130866564Y-42779882D01*
X131606923Y-42039523D01*
X131630507Y-42119844D01*
X131708239Y-42240798D01*
X131816900Y-42334952D01*
X131947685Y-42394680D01*
X131957466Y-42396086D01*
X131219942Y-43133609D01*
X131266768Y-43170055D01*
X131266770Y-43170056D01*
X131485385Y-43288364D01*
X131485396Y-43288369D01*
X131720506Y-43369083D01*
X131965707Y-43410000D01*
X132214293Y-43410000D01*
X132459493Y-43369083D01*
X132694603Y-43288369D01*
X132694614Y-43288364D01*
X132913228Y-43170057D01*
X132913231Y-43170055D01*
X132960056Y-43133609D01*
X132222533Y-42396086D01*
X132232315Y-42394680D01*
X132363100Y-42334952D01*
X132471761Y-42240798D01*
X132549493Y-42119844D01*
X132573076Y-42039524D01*
X133313434Y-42779882D01*
X133413731Y-42626369D01*
X133513587Y-42398717D01*
X133574612Y-42157738D01*
X133574614Y-42157729D01*
X133595141Y-41910005D01*
X133595141Y-41909994D01*
X133574614Y-41662270D01*
X133574612Y-41662261D01*
X133513587Y-41421282D01*
X133413731Y-41193630D01*
X133313434Y-41040116D01*
X132573076Y-41780475D01*
X132549493Y-41700156D01*
X132471761Y-41579202D01*
X132363100Y-41485048D01*
X132232315Y-41425320D01*
X132222534Y-41423913D01*
X132960057Y-40686390D01*
X132960056Y-40686389D01*
X132913229Y-40649943D01*
X132694614Y-40531635D01*
X132694603Y-40531630D01*
X132459493Y-40450916D01*
X132214293Y-40410000D01*
X131965707Y-40410000D01*
X131720506Y-40450916D01*
X131485396Y-40531630D01*
X131485390Y-40531632D01*
X131266761Y-40649949D01*
X131219942Y-40686388D01*
X131219942Y-40686390D01*
X131957466Y-41423913D01*
X131947685Y-41425320D01*
X131816900Y-41485048D01*
X131708239Y-41579202D01*
X131630507Y-41700156D01*
X131606923Y-41780475D01*
X130866564Y-41040116D01*
X130766267Y-41193632D01*
X130666412Y-41421282D01*
X130605387Y-41662261D01*
X130605385Y-41662270D01*
X130584859Y-41909994D01*
X130584859Y-41910005D01*
X111750500Y-41910005D01*
X111750500Y-41726990D01*
X111770185Y-41659951D01*
X111815483Y-41617935D01*
X111873624Y-41586471D01*
X111873623Y-41586471D01*
X111873626Y-41586470D01*
X112056784Y-41443913D01*
X112065130Y-41434846D01*
X112125010Y-41398854D01*
X112194849Y-41400949D01*
X112252468Y-41440469D01*
X112272544Y-41475491D01*
X112301203Y-41552330D01*
X112301206Y-41552335D01*
X112387452Y-41667544D01*
X112387455Y-41667547D01*
X112502664Y-41753793D01*
X112502671Y-41753797D01*
X112637517Y-41804091D01*
X112637516Y-41804091D01*
X112644444Y-41804835D01*
X112697127Y-41810500D01*
X114592872Y-41810499D01*
X114652483Y-41804091D01*
X114787331Y-41753796D01*
X114902546Y-41667546D01*
X114988796Y-41552331D01*
X115039091Y-41417483D01*
X115045500Y-41357873D01*
X115045499Y-39462128D01*
X115039091Y-39402517D01*
X115029233Y-39376087D01*
X114988797Y-39267671D01*
X114988793Y-39267664D01*
X114902547Y-39152455D01*
X114902544Y-39152452D01*
X114787335Y-39066206D01*
X114787328Y-39066202D01*
X114652482Y-39015908D01*
X114652483Y-39015908D01*
X114592883Y-39009501D01*
X114592881Y-39009500D01*
X114592873Y-39009500D01*
X114592864Y-39009500D01*
X112697129Y-39009500D01*
X112697123Y-39009501D01*
X112637516Y-39015908D01*
X112502671Y-39066202D01*
X112502664Y-39066206D01*
X112387455Y-39152452D01*
X112387452Y-39152455D01*
X112301206Y-39267664D01*
X112301203Y-39267670D01*
X112272544Y-39344508D01*
X112230672Y-39400441D01*
X112165208Y-39424858D01*
X112096935Y-39410006D01*
X112065135Y-39385158D01*
X112056784Y-39376087D01*
X112056778Y-39376082D01*
X112056777Y-39376081D01*
X111873634Y-39233535D01*
X111873628Y-39233531D01*
X111669504Y-39123064D01*
X111669495Y-39123061D01*
X111449984Y-39047702D01*
X111259450Y-39015908D01*
X111221049Y-39009500D01*
X110988951Y-39009500D01*
X110950550Y-39015908D01*
X110760015Y-39047702D01*
X110540504Y-39123061D01*
X110540495Y-39123064D01*
X110336371Y-39233531D01*
X110336365Y-39233535D01*
X110153222Y-39376081D01*
X110153219Y-39376084D01*
X110153216Y-39376086D01*
X110153216Y-39376087D01*
X110108319Y-39424858D01*
X109996016Y-39546852D01*
X109869075Y-39741151D01*
X109775842Y-39953699D01*
X109718866Y-40178691D01*
X109718864Y-40178702D01*
X109699700Y-40409993D01*
X109699700Y-40410006D01*
X108695500Y-40410006D01*
X108695499Y-39462128D01*
X108689091Y-39402517D01*
X108679233Y-39376087D01*
X108638797Y-39267671D01*
X108638793Y-39267664D01*
X108552547Y-39152455D01*
X108552544Y-39152452D01*
X108437335Y-39066206D01*
X108437328Y-39066202D01*
X108302482Y-39015908D01*
X108302483Y-39015908D01*
X108242883Y-39009501D01*
X108242881Y-39009500D01*
X108242873Y-39009500D01*
X108242864Y-39009500D01*
X106347129Y-39009500D01*
X106347123Y-39009501D01*
X106287516Y-39015908D01*
X106152671Y-39066202D01*
X106152664Y-39066206D01*
X106037455Y-39152452D01*
X106037452Y-39152455D01*
X105951206Y-39267664D01*
X105951203Y-39267670D01*
X105922544Y-39344508D01*
X105880672Y-39400441D01*
X105815208Y-39424858D01*
X105746935Y-39410006D01*
X105715135Y-39385158D01*
X105706784Y-39376087D01*
X105706778Y-39376082D01*
X105706777Y-39376081D01*
X105523634Y-39233535D01*
X105523628Y-39233531D01*
X105319504Y-39123064D01*
X105319495Y-39123061D01*
X105099984Y-39047702D01*
X104909450Y-39015908D01*
X104871049Y-39009500D01*
X104638951Y-39009500D01*
X104600550Y-39015908D01*
X104410015Y-39047702D01*
X104190504Y-39123061D01*
X104190495Y-39123064D01*
X103986371Y-39233531D01*
X103986365Y-39233535D01*
X103803222Y-39376081D01*
X103803219Y-39376084D01*
X103803216Y-39376086D01*
X103803216Y-39376087D01*
X103758319Y-39424858D01*
X103646016Y-39546852D01*
X103519075Y-39741151D01*
X103425842Y-39953699D01*
X103368866Y-40178691D01*
X103368864Y-40178702D01*
X103349700Y-40409993D01*
X103349700Y-40410006D01*
X100871900Y-40410006D01*
X100871900Y-37811359D01*
X100891585Y-37744320D01*
X100944389Y-37698565D01*
X101013547Y-37688621D01*
X101043349Y-37696796D01*
X101103889Y-37721873D01*
X101348852Y-37780683D01*
X101600000Y-37800449D01*
X101851148Y-37780683D01*
X102096111Y-37721873D01*
X102328859Y-37625466D01*
X102543659Y-37493836D01*
X102735224Y-37330224D01*
X102898836Y-37138659D01*
X103030466Y-36923859D01*
X103126873Y-36691111D01*
X103185683Y-36446148D01*
X103205449Y-36195000D01*
X103185683Y-35943852D01*
X103130248Y-35712946D01*
X103133739Y-35643164D01*
X103174403Y-35586347D01*
X103239329Y-35560534D01*
X103250822Y-35560000D01*
X139954178Y-35560000D01*
X140021217Y-35579685D01*
G37*
%TD.AperFunction*%
%TD*%
M02*
