%TF.GenerationSoftware,KiCad,Pcbnew,7.0.10+dfsg-1*%
%TF.CreationDate,2024-02-08T12:56:13+01:00*%
%TF.ProjectId,chibi_v2,63686962-695f-4763-922e-6b696361645f,rev?*%
%TF.SameCoordinates,Original*%
%TF.FileFunction,Soldermask,Top*%
%TF.FilePolarity,Negative*%
%FSLAX46Y46*%
G04 Gerber Fmt 4.6, Leading zero omitted, Abs format (unit mm)*
G04 Created by KiCad (PCBNEW 7.0.10+dfsg-1) date 2024-02-08 12:56:13*
%MOMM*%
%LPD*%
G01*
G04 APERTURE LIST*
%ADD10C,1.600000*%
%ADD11O,1.600000X1.600000*%
%ADD12O,1.700000X1.700000*%
%ADD13C,1.880400*%
%ADD14R,1.800000X1.800000*%
%ADD15C,1.800000*%
%ADD16R,2.000000X2.000000*%
%ADD17C,2.000000*%
%ADD18R,1.700000X1.700000*%
%ADD19O,1.600000X2.000000*%
%ADD20O,1.800000X1.800000*%
%ADD21O,1.500000X1.500000*%
G04 APERTURE END LIST*
D10*
%TO.C,R2*%
X104775000Y-53340000D03*
D11*
X104775000Y-43180000D03*
%TD*%
D10*
%TO.C,R1*%
X121285000Y-44450000D03*
D11*
X111125000Y-44450000D03*
%TD*%
D12*
%TO.C,U2*%
X117475000Y-123825000D03*
X117475000Y-121285000D03*
X117475000Y-118745000D03*
X117475000Y-116205000D03*
X117475000Y-113665000D03*
X117475000Y-111125000D03*
X117475000Y-108585000D03*
X117475000Y-106045000D03*
X117475000Y-103505000D03*
%TD*%
D13*
%TO.C,Q3*%
X124460000Y-44450000D03*
X125730000Y-46355000D03*
X127000000Y-44450000D03*
%TD*%
%TO.C,Q2*%
X104775000Y-56515000D03*
X106045000Y-58420000D03*
X107315000Y-56515000D03*
%TD*%
%TO.C,Q1*%
X139065000Y-53340000D03*
X140970000Y-52070000D03*
X139065000Y-50800000D03*
%TD*%
D14*
%TO.C,D2*%
X113645000Y-40410000D03*
D15*
X111105000Y-40410000D03*
%TD*%
D14*
%TO.C,D1*%
X107295000Y-40410000D03*
D15*
X104755000Y-40410000D03*
%TD*%
D16*
%TO.C,BZ1*%
X139690000Y-41910000D03*
D17*
X132090000Y-41910000D03*
%TD*%
D18*
%TO.C,J2*%
X104681900Y-102235000D03*
D12*
X104681900Y-104775000D03*
X104681900Y-107315000D03*
X104681900Y-109855000D03*
X104681900Y-112395000D03*
X104681900Y-114935000D03*
X104681900Y-117475000D03*
X104681900Y-120015000D03*
%TD*%
D19*
%TO.C,Brd1*%
X118110000Y-59690000D03*
X120650000Y-59690000D03*
X123190000Y-59690000D03*
X125730000Y-59690000D03*
%TD*%
D20*
%TO.C,U1*%
X125035000Y-49575000D03*
D21*
X124735000Y-52605000D03*
X119885000Y-52605000D03*
D20*
X119585000Y-49575000D03*
D12*
X131200000Y-49445000D03*
X131200000Y-51985000D03*
D18*
X131200000Y-54525000D03*
D12*
X131200000Y-57065000D03*
X131200000Y-59605000D03*
X131200000Y-62145000D03*
X131200000Y-64685000D03*
D18*
X131200000Y-67225000D03*
D12*
X131200000Y-69765000D03*
X131200000Y-72305000D03*
X131200000Y-74845000D03*
X131200000Y-77385000D03*
D18*
X131200000Y-79925000D03*
D12*
X131200000Y-82465000D03*
X131200000Y-85005000D03*
X131200000Y-87545000D03*
X131200000Y-90085000D03*
D18*
X131200000Y-92625000D03*
D12*
X131200000Y-95165000D03*
X131200000Y-97705000D03*
X113420000Y-97705000D03*
X113420000Y-95165000D03*
D18*
X113420000Y-92625000D03*
D12*
X113420000Y-90085000D03*
X113420000Y-87545000D03*
X113420000Y-85005000D03*
X113420000Y-82465000D03*
D18*
X113420000Y-79925000D03*
D12*
X113420000Y-77385000D03*
X113420000Y-74845000D03*
X113420000Y-72305000D03*
X113420000Y-69765000D03*
D18*
X113420000Y-67225000D03*
D12*
X113420000Y-64685000D03*
X113420000Y-62145000D03*
X113420000Y-59605000D03*
X113420000Y-57065000D03*
D18*
X113420000Y-54525000D03*
D12*
X113420000Y-51985000D03*
X113420000Y-49445000D03*
X124850000Y-97475000D03*
D18*
X122310000Y-97475000D03*
D12*
X119770000Y-97475000D03*
%TD*%
M02*
