%TF.GenerationSoftware,KiCad,Pcbnew,7.0.10+dfsg-1*%
%TF.CreationDate,2024-02-08T12:56:13+01:00*%
%TF.ProjectId,chibi_v2,63686962-695f-4763-922e-6b696361645f,rev?*%
%TF.SameCoordinates,Original*%
%TF.FileFunction,Legend,Top*%
%TF.FilePolarity,Positive*%
%FSLAX46Y46*%
G04 Gerber Fmt 4.6, Leading zero omitted, Abs format (unit mm)*
G04 Created by KiCad (PCBNEW 7.0.10+dfsg-1) date 2024-02-08 12:56:13*
%MOMM*%
%LPD*%
G01*
G04 APERTURE LIST*
%ADD10C,0.150000*%
%ADD11C,0.120000*%
%ADD12C,0.203200*%
G04 APERTURE END LIST*
D10*
X105229819Y-48426666D02*
X104753628Y-48759999D01*
X105229819Y-48998094D02*
X104229819Y-48998094D01*
X104229819Y-48998094D02*
X104229819Y-48617142D01*
X104229819Y-48617142D02*
X104277438Y-48521904D01*
X104277438Y-48521904D02*
X104325057Y-48474285D01*
X104325057Y-48474285D02*
X104420295Y-48426666D01*
X104420295Y-48426666D02*
X104563152Y-48426666D01*
X104563152Y-48426666D02*
X104658390Y-48474285D01*
X104658390Y-48474285D02*
X104706009Y-48521904D01*
X104706009Y-48521904D02*
X104753628Y-48617142D01*
X104753628Y-48617142D02*
X104753628Y-48998094D01*
X104325057Y-48045713D02*
X104277438Y-47998094D01*
X104277438Y-47998094D02*
X104229819Y-47902856D01*
X104229819Y-47902856D02*
X104229819Y-47664761D01*
X104229819Y-47664761D02*
X104277438Y-47569523D01*
X104277438Y-47569523D02*
X104325057Y-47521904D01*
X104325057Y-47521904D02*
X104420295Y-47474285D01*
X104420295Y-47474285D02*
X104515533Y-47474285D01*
X104515533Y-47474285D02*
X104658390Y-47521904D01*
X104658390Y-47521904D02*
X105229819Y-48093332D01*
X105229819Y-48093332D02*
X105229819Y-47474285D01*
X116038333Y-44904819D02*
X115705000Y-44428628D01*
X115466905Y-44904819D02*
X115466905Y-43904819D01*
X115466905Y-43904819D02*
X115847857Y-43904819D01*
X115847857Y-43904819D02*
X115943095Y-43952438D01*
X115943095Y-43952438D02*
X115990714Y-44000057D01*
X115990714Y-44000057D02*
X116038333Y-44095295D01*
X116038333Y-44095295D02*
X116038333Y-44238152D01*
X116038333Y-44238152D02*
X115990714Y-44333390D01*
X115990714Y-44333390D02*
X115943095Y-44381009D01*
X115943095Y-44381009D02*
X115847857Y-44428628D01*
X115847857Y-44428628D02*
X115466905Y-44428628D01*
X116990714Y-44904819D02*
X116419286Y-44904819D01*
X116705000Y-44904819D02*
X116705000Y-43904819D01*
X116705000Y-43904819D02*
X116609762Y-44047676D01*
X116609762Y-44047676D02*
X116514524Y-44142914D01*
X116514524Y-44142914D02*
X116419286Y-44190533D01*
X135009047Y-49041009D02*
X135151904Y-49088628D01*
X135151904Y-49088628D02*
X135199523Y-49136247D01*
X135199523Y-49136247D02*
X135247142Y-49231485D01*
X135247142Y-49231485D02*
X135247142Y-49374342D01*
X135247142Y-49374342D02*
X135199523Y-49469580D01*
X135199523Y-49469580D02*
X135151904Y-49517200D01*
X135151904Y-49517200D02*
X135056666Y-49564819D01*
X135056666Y-49564819D02*
X134675714Y-49564819D01*
X134675714Y-49564819D02*
X134675714Y-48564819D01*
X134675714Y-48564819D02*
X135009047Y-48564819D01*
X135009047Y-48564819D02*
X135104285Y-48612438D01*
X135104285Y-48612438D02*
X135151904Y-48660057D01*
X135151904Y-48660057D02*
X135199523Y-48755295D01*
X135199523Y-48755295D02*
X135199523Y-48850533D01*
X135199523Y-48850533D02*
X135151904Y-48945771D01*
X135151904Y-48945771D02*
X135104285Y-48993390D01*
X135104285Y-48993390D02*
X135009047Y-49041009D01*
X135009047Y-49041009D02*
X134675714Y-49041009D01*
X135580476Y-48564819D02*
X136247142Y-48564819D01*
X136247142Y-48564819D02*
X135580476Y-49564819D01*
X135580476Y-49564819D02*
X136247142Y-49564819D01*
X137151904Y-49564819D02*
X136580476Y-49564819D01*
X136866190Y-49564819D02*
X136866190Y-48564819D01*
X136866190Y-48564819D02*
X136770952Y-48707676D01*
X136770952Y-48707676D02*
X136675714Y-48802914D01*
X136675714Y-48802914D02*
X136580476Y-48850533D01*
X139319048Y-44523866D02*
X140080953Y-44523866D01*
X139700000Y-44904819D02*
X139700000Y-44142914D01*
X104348566Y-99359819D02*
X104348566Y-100074104D01*
X104348566Y-100074104D02*
X104300947Y-100216961D01*
X104300947Y-100216961D02*
X104205709Y-100312200D01*
X104205709Y-100312200D02*
X104062852Y-100359819D01*
X104062852Y-100359819D02*
X103967614Y-100359819D01*
X104777138Y-99455057D02*
X104824757Y-99407438D01*
X104824757Y-99407438D02*
X104919995Y-99359819D01*
X104919995Y-99359819D02*
X105158090Y-99359819D01*
X105158090Y-99359819D02*
X105253328Y-99407438D01*
X105253328Y-99407438D02*
X105300947Y-99455057D01*
X105300947Y-99455057D02*
X105348566Y-99550295D01*
X105348566Y-99550295D02*
X105348566Y-99645533D01*
X105348566Y-99645533D02*
X105300947Y-99788390D01*
X105300947Y-99788390D02*
X104729519Y-100359819D01*
X104729519Y-100359819D02*
X105348566Y-100359819D01*
X120563333Y-70475009D02*
X120706190Y-70522628D01*
X120706190Y-70522628D02*
X120753809Y-70570247D01*
X120753809Y-70570247D02*
X120801428Y-70665485D01*
X120801428Y-70665485D02*
X120801428Y-70808342D01*
X120801428Y-70808342D02*
X120753809Y-70903580D01*
X120753809Y-70903580D02*
X120706190Y-70951200D01*
X120706190Y-70951200D02*
X120610952Y-70998819D01*
X120610952Y-70998819D02*
X120230000Y-70998819D01*
X120230000Y-70998819D02*
X120230000Y-69998819D01*
X120230000Y-69998819D02*
X120563333Y-69998819D01*
X120563333Y-69998819D02*
X120658571Y-70046438D01*
X120658571Y-70046438D02*
X120706190Y-70094057D01*
X120706190Y-70094057D02*
X120753809Y-70189295D01*
X120753809Y-70189295D02*
X120753809Y-70284533D01*
X120753809Y-70284533D02*
X120706190Y-70379771D01*
X120706190Y-70379771D02*
X120658571Y-70427390D01*
X120658571Y-70427390D02*
X120563333Y-70475009D01*
X120563333Y-70475009D02*
X120230000Y-70475009D01*
X121230000Y-70998819D02*
X121230000Y-70332152D01*
X121230000Y-70522628D02*
X121277619Y-70427390D01*
X121277619Y-70427390D02*
X121325238Y-70379771D01*
X121325238Y-70379771D02*
X121420476Y-70332152D01*
X121420476Y-70332152D02*
X121515714Y-70332152D01*
X122277619Y-70998819D02*
X122277619Y-69998819D01*
X122277619Y-70951200D02*
X122182381Y-70998819D01*
X122182381Y-70998819D02*
X121991905Y-70998819D01*
X121991905Y-70998819D02*
X121896667Y-70951200D01*
X121896667Y-70951200D02*
X121849048Y-70903580D01*
X121849048Y-70903580D02*
X121801429Y-70808342D01*
X121801429Y-70808342D02*
X121801429Y-70522628D01*
X121801429Y-70522628D02*
X121849048Y-70427390D01*
X121849048Y-70427390D02*
X121896667Y-70379771D01*
X121896667Y-70379771D02*
X121991905Y-70332152D01*
X121991905Y-70332152D02*
X122182381Y-70332152D01*
X122182381Y-70332152D02*
X122277619Y-70379771D01*
X123277619Y-70998819D02*
X122706191Y-70998819D01*
X122991905Y-70998819D02*
X122991905Y-69998819D01*
X122991905Y-69998819D02*
X122896667Y-70141676D01*
X122896667Y-70141676D02*
X122801429Y-70236914D01*
X122801429Y-70236914D02*
X122706191Y-70284533D01*
D11*
%TO.C,R2*%
X104775000Y-44220000D02*
X104775000Y-44990000D01*
X104775000Y-52300000D02*
X104775000Y-51530000D01*
X103405000Y-51530000D02*
X106145000Y-51530000D01*
X106145000Y-44990000D02*
X103405000Y-44990000D01*
X106145000Y-51530000D02*
X106145000Y-44990000D01*
X103405000Y-44990000D02*
X103405000Y-51530000D01*
%TO.C,R1*%
X112165000Y-44450000D02*
X112935000Y-44450000D01*
X120245000Y-44450000D02*
X119475000Y-44450000D01*
X119475000Y-45820000D02*
X119475000Y-43080000D01*
X112935000Y-43080000D02*
X112935000Y-45820000D01*
X119475000Y-43080000D02*
X112935000Y-43080000D01*
X112935000Y-45820000D02*
X119475000Y-45820000D01*
D12*
%TO.C,Q3*%
X127830000Y-42850000D02*
X123630000Y-42850000D01*
X127130000Y-46750000D02*
G75*
G03*
X127830000Y-42850000I-1343401J2253944D01*
G01*
X123630001Y-42850001D02*
G75*
G03*
X124330000Y-46749999I1992097J-1655264D01*
G01*
%TO.C,Q2*%
X108145000Y-54915000D02*
X103945000Y-54915000D01*
X107445000Y-58815000D02*
G75*
G03*
X108145000Y-54915000I-1343401J2253944D01*
G01*
X103945001Y-54915001D02*
G75*
G03*
X104645000Y-58814999I1992097J-1655264D01*
G01*
%TO.C,Q1*%
X137465000Y-49970000D02*
X137465000Y-54170000D01*
X141365000Y-50670000D02*
G75*
G03*
X137465000Y-49970000I-2253944J-1343401D01*
G01*
X137465001Y-54169999D02*
G75*
G03*
X141364999Y-53470000I1655264J1992097D01*
G01*
D11*
%TO.C,D2*%
X110665000Y-39200000D02*
X114085000Y-39200000D01*
X113645000Y-39330000D02*
X113645000Y-39330000D01*
X113965000Y-39200000D02*
X113965000Y-37480000D01*
X111105000Y-39200000D02*
X111105000Y-39200000D01*
X111415000Y-36080000D02*
X111415000Y-37480000D01*
X114085000Y-37480000D02*
X110665000Y-37480000D01*
X113645000Y-39200000D02*
X113645000Y-39200000D01*
X113335000Y-37480000D02*
X113335000Y-36080000D01*
X113335000Y-36080000D02*
X111415000Y-36080000D01*
X113645000Y-39330000D02*
X113645000Y-39200000D01*
X110665000Y-37480000D02*
X110665000Y-39200000D01*
X113845000Y-39200000D02*
X113845000Y-37480000D01*
X111105000Y-39330000D02*
X111105000Y-39200000D01*
X111105000Y-39200000D02*
X111105000Y-39330000D01*
X114085000Y-39200000D02*
X114085000Y-37480000D01*
X111105000Y-39330000D02*
X111105000Y-39330000D01*
X111415000Y-37480000D02*
X113335000Y-37480000D01*
X113645000Y-39200000D02*
X113645000Y-39330000D01*
%TO.C,D1*%
X104315000Y-39200000D02*
X107735000Y-39200000D01*
X107295000Y-39330000D02*
X107295000Y-39330000D01*
X107615000Y-39200000D02*
X107615000Y-37480000D01*
X104755000Y-39200000D02*
X104755000Y-39200000D01*
X105065000Y-36080000D02*
X105065000Y-37480000D01*
X107735000Y-37480000D02*
X104315000Y-37480000D01*
X107295000Y-39200000D02*
X107295000Y-39200000D01*
X106985000Y-37480000D02*
X106985000Y-36080000D01*
X106985000Y-36080000D02*
X105065000Y-36080000D01*
X107295000Y-39330000D02*
X107295000Y-39200000D01*
X104315000Y-37480000D02*
X104315000Y-39200000D01*
X107495000Y-39200000D02*
X107495000Y-37480000D01*
X104755000Y-39330000D02*
X104755000Y-39200000D01*
X104755000Y-39200000D02*
X104755000Y-39330000D01*
X107735000Y-39200000D02*
X107735000Y-37480000D01*
X104755000Y-39330000D02*
X104755000Y-39330000D01*
X105065000Y-37480000D02*
X106985000Y-37480000D01*
X107295000Y-39200000D02*
X107295000Y-39330000D01*
%TO.C,BZ1*%
X141990000Y-41910000D02*
G75*
G03*
X129790000Y-41910000I-6100000J0D01*
G01*
X129790000Y-41910000D02*
G75*
G03*
X141990000Y-41910000I6100000J0D01*
G01*
%TO.C,J2*%
X103351900Y-100905000D02*
X104681900Y-100905000D01*
X103351900Y-102235000D02*
X103351900Y-100905000D01*
X103351900Y-103505000D02*
X103351900Y-121345000D01*
X103351900Y-103505000D02*
X106011900Y-103505000D01*
X103351900Y-121345000D02*
X106011900Y-121345000D01*
X106011900Y-103505000D02*
X106011900Y-121345000D01*
%TO.C,Brd1*%
X108330000Y-57990000D02*
X135730000Y-57990000D01*
X108330000Y-85290000D02*
X108330000Y-57990000D01*
X108752000Y-61285000D02*
X131852000Y-61285000D01*
X108752000Y-77885000D02*
X108752000Y-61285000D01*
X117031000Y-58479000D02*
X117031000Y-60892000D01*
X117031000Y-58479000D02*
X126810000Y-58479000D01*
X126810000Y-58479000D02*
X126810000Y-60892000D01*
X126810000Y-60892000D02*
X117031000Y-60892000D01*
X131852000Y-61285000D02*
X134938000Y-61285000D01*
X131852000Y-77885000D02*
X108752000Y-77885000D01*
X131852000Y-77885000D02*
X135192000Y-77910000D01*
X135192000Y-61273000D02*
X134938000Y-61285000D01*
X135192000Y-77910000D02*
X135192000Y-61273000D01*
X135730000Y-57990000D02*
X135730000Y-85290000D01*
X135730000Y-85290000D02*
X108330000Y-85290000D01*
%TO.C,G\u002A\u002A\u002A*%
G36*
X121882647Y-117045441D02*
G01*
X121863970Y-117064117D01*
X121845294Y-117045441D01*
X121863970Y-117026764D01*
X121882647Y-117045441D01*
G37*
G36*
X133462058Y-123021911D02*
G01*
X133443382Y-123040588D01*
X133424706Y-123021911D01*
X133443382Y-123003235D01*
X133462058Y-123021911D01*
G37*
G36*
X133910294Y-114580147D02*
G01*
X133891617Y-114598823D01*
X133872941Y-114580147D01*
X133891617Y-114561470D01*
X133910294Y-114580147D01*
G37*
G36*
X134545294Y-114878970D02*
G01*
X134526617Y-114897647D01*
X134507941Y-114878970D01*
X134526617Y-114860294D01*
X134545294Y-114878970D01*
G37*
G36*
X137346764Y-111330441D02*
G01*
X137328088Y-111349117D01*
X137309411Y-111330441D01*
X137328088Y-111311764D01*
X137346764Y-111330441D01*
G37*
G36*
X137944411Y-125636617D02*
G01*
X137925735Y-125655294D01*
X137907058Y-125636617D01*
X137925735Y-125617941D01*
X137944411Y-125636617D01*
G37*
G36*
X141941176Y-120593970D02*
G01*
X141922500Y-120612647D01*
X141903823Y-120593970D01*
X141922500Y-120575294D01*
X141941176Y-120593970D01*
G37*
G36*
X134614228Y-114912756D02*
G01*
X134654328Y-114950367D01*
X134646102Y-114971989D01*
X134640881Y-114972353D01*
X134609287Y-114945822D01*
X134597756Y-114929228D01*
X134593354Y-114903668D01*
X134614228Y-114912756D01*
G37*
G36*
X123653296Y-125593767D02*
G01*
X123694264Y-125617941D01*
X123690567Y-125647795D01*
X123634550Y-125647414D01*
X123544853Y-125617941D01*
X123499922Y-125594843D01*
X123520335Y-125585509D01*
X123570663Y-125583213D01*
X123653296Y-125593767D01*
G37*
G36*
X127448232Y-107567289D02*
G01*
X127448235Y-107569000D01*
X127439048Y-107640379D01*
X127411528Y-107639382D01*
X127390194Y-107610568D01*
X127390221Y-107552438D01*
X127406666Y-107528392D01*
X127438708Y-107514441D01*
X127448232Y-107567289D01*
G37*
G36*
X141639529Y-120435940D02*
G01*
X141706167Y-120456465D01*
X141709645Y-120494484D01*
X141683938Y-120516649D01*
X141636116Y-120509513D01*
X141606408Y-120483609D01*
X141584721Y-120443407D01*
X141625545Y-120435072D01*
X141639529Y-120435940D01*
G37*
G36*
X121452022Y-113904261D02*
G01*
X121500899Y-113964544D01*
X121532807Y-114019625D01*
X121537448Y-114034196D01*
X121498131Y-114022400D01*
X121461969Y-114012693D01*
X121416903Y-113983304D01*
X121417482Y-113960996D01*
X121406992Y-113931682D01*
X121378382Y-113926470D01*
X121337536Y-113909607D01*
X121340021Y-113890749D01*
X121387631Y-113868751D01*
X121452022Y-113904261D01*
G37*
G36*
X122842524Y-124398897D02*
G01*
X122841885Y-124446335D01*
X122772679Y-124519927D01*
X122705904Y-124570995D01*
X122622385Y-124616533D01*
X122575422Y-124612000D01*
X122574094Y-124610088D01*
X122582171Y-124577548D01*
X122608825Y-124572058D01*
X122659845Y-124547623D01*
X122667058Y-124525014D01*
X122692847Y-124476270D01*
X122750794Y-124426201D01*
X122811770Y-124395744D01*
X122842524Y-124398897D01*
G37*
G36*
X134003285Y-114615249D02*
G01*
X134092240Y-114653826D01*
X134204367Y-114706089D01*
X134318086Y-114761698D01*
X134411817Y-114810311D01*
X134463980Y-114841586D01*
X134466718Y-114843973D01*
X134469736Y-114860768D01*
X134414596Y-114844067D01*
X134308439Y-114796671D01*
X134171764Y-114728316D01*
X134059219Y-114667884D01*
X133983101Y-114622788D01*
X133957346Y-114601388D01*
X133959080Y-114600701D01*
X134003285Y-114615249D01*
G37*
G36*
X137866654Y-119203171D02*
G01*
X137959801Y-119230603D01*
X138010301Y-119272551D01*
X138012475Y-119279712D01*
X138001515Y-119360290D01*
X137953536Y-119427301D01*
X137893147Y-119449985D01*
X137831806Y-119437413D01*
X137733798Y-119412350D01*
X137710956Y-119406045D01*
X137608936Y-119365887D01*
X137574385Y-119315171D01*
X137600071Y-119242478D01*
X137603695Y-119236654D01*
X137661364Y-119203327D01*
X137758096Y-119193122D01*
X137866654Y-119203171D01*
G37*
G36*
X127059403Y-107588458D02*
G01*
X127181432Y-107616431D01*
X127320447Y-107659341D01*
X127357414Y-107672816D01*
X127459161Y-107718219D01*
X127506073Y-107763214D01*
X127515744Y-107825688D01*
X127515354Y-107833367D01*
X127494913Y-107931665D01*
X127455113Y-108002134D01*
X127415647Y-108021337D01*
X127366556Y-108009144D01*
X127281107Y-107984493D01*
X127280147Y-107984204D01*
X127162601Y-107928981D01*
X127051173Y-107844438D01*
X126965711Y-107749228D01*
X126926063Y-107662005D01*
X126925294Y-107650708D01*
X126933426Y-107596351D01*
X126972047Y-107579070D01*
X127059403Y-107588458D01*
G37*
G36*
X138140817Y-116823936D02*
G01*
X138235753Y-116875897D01*
X138269165Y-116947386D01*
X138263421Y-116978171D01*
X138273437Y-117007213D01*
X138301167Y-117002189D01*
X138345011Y-117006702D01*
X138349929Y-117055968D01*
X138315642Y-117130810D01*
X138303297Y-117148161D01*
X138233269Y-117207430D01*
X138165992Y-117192886D01*
X138136074Y-117163401D01*
X138113323Y-117107998D01*
X138121023Y-117086721D01*
X138116052Y-117075392D01*
X138083661Y-117084695D01*
X138021944Y-117081238D01*
X137991180Y-117025626D01*
X137997971Y-116936326D01*
X138014509Y-116891226D01*
X138060095Y-116825200D01*
X138122962Y-116818992D01*
X138140817Y-116823936D01*
G37*
G36*
X137785529Y-110672386D02*
G01*
X137816544Y-110690183D01*
X137820145Y-110697498D01*
X137801331Y-110740037D01*
X137739272Y-110817587D01*
X137646266Y-110915204D01*
X137620354Y-110940293D01*
X137514146Y-111042981D01*
X137372136Y-111182320D01*
X137211030Y-111341821D01*
X137047535Y-111504994D01*
X137007459Y-111545220D01*
X136828517Y-111721025D01*
X136693332Y-111843352D01*
X136596780Y-111915219D01*
X136533740Y-111939644D01*
X136499089Y-111919645D01*
X136487706Y-111858242D01*
X136487647Y-111851527D01*
X136513630Y-111725814D01*
X136585304Y-111570538D01*
X136680707Y-111423299D01*
X136734596Y-111331814D01*
X136792215Y-111206718D01*
X136816487Y-111143929D01*
X136862957Y-111030982D01*
X136912887Y-110967479D01*
X136988045Y-110930435D01*
X137030759Y-110917681D01*
X137143014Y-110869193D01*
X137211124Y-110804747D01*
X137214185Y-110798672D01*
X137267535Y-110740164D01*
X137372350Y-110705437D01*
X137419627Y-110697989D01*
X137599093Y-110676274D01*
X137717053Y-110667745D01*
X137785529Y-110672386D01*
G37*
G36*
X121905871Y-125082647D02*
G01*
X121982874Y-125146196D01*
X122074008Y-125231118D01*
X122161666Y-125320237D01*
X122228237Y-125396377D01*
X122256114Y-125442362D01*
X122256176Y-125443490D01*
X122224000Y-125455754D01*
X122144252Y-125450464D01*
X122120041Y-125446375D01*
X122035351Y-125436682D01*
X122007784Y-125455712D01*
X122036169Y-125511674D01*
X122099559Y-125589926D01*
X122114281Y-125611361D01*
X122110993Y-125627524D01*
X122081162Y-125639155D01*
X122016258Y-125646997D01*
X121907747Y-125651789D01*
X121747099Y-125654272D01*
X121525782Y-125655188D01*
X121346818Y-125655294D01*
X121110068Y-125654590D01*
X120900665Y-125652620D01*
X120729356Y-125649598D01*
X120606887Y-125645734D01*
X120544004Y-125641244D01*
X120537941Y-125639285D01*
X120561059Y-125603561D01*
X120597928Y-125563290D01*
X120663443Y-125525566D01*
X120703131Y-125540830D01*
X120771858Y-125570103D01*
X120857924Y-125583562D01*
X120926117Y-125583120D01*
X121043331Y-125578869D01*
X121192049Y-125571817D01*
X121354754Y-125562974D01*
X121513928Y-125553348D01*
X121652057Y-125543946D01*
X121751621Y-125535777D01*
X121795106Y-125529850D01*
X121795545Y-125529591D01*
X121791673Y-125493756D01*
X121774795Y-125408240D01*
X121761609Y-125348701D01*
X121745502Y-125201414D01*
X121772913Y-125102453D01*
X121841385Y-125059033D01*
X121860610Y-125057647D01*
X121905871Y-125082647D01*
G37*
G36*
X133704853Y-123040588D02*
G01*
X133694715Y-123072375D01*
X133660366Y-123080566D01*
X133617042Y-123086004D01*
X133640624Y-123103399D01*
X133667500Y-123115294D01*
X133709774Y-123140757D01*
X133700694Y-123150021D01*
X133674991Y-123183301D01*
X133676762Y-123244605D01*
X133679825Y-123329967D01*
X133669851Y-123457653D01*
X133653626Y-123571444D01*
X133636441Y-123694062D01*
X133616997Y-123870741D01*
X133597311Y-124080957D01*
X133579398Y-124304188D01*
X133573670Y-124385294D01*
X133555352Y-124648556D01*
X133539983Y-124848760D01*
X133526222Y-124997434D01*
X133512730Y-125106102D01*
X133498165Y-125186289D01*
X133481186Y-125249523D01*
X133469019Y-125284832D01*
X133451022Y-125383584D01*
X133451681Y-125503585D01*
X133452970Y-125515220D01*
X133459538Y-125606789D01*
X133440941Y-125646337D01*
X133385829Y-125655261D01*
X133378675Y-125655294D01*
X133315472Y-125641849D01*
X133272818Y-125589051D01*
X133240189Y-125498656D01*
X133218123Y-125395813D01*
X133195580Y-125241734D01*
X133175638Y-125059805D01*
X133164586Y-124924234D01*
X133151029Y-124752888D01*
X133136230Y-124608251D01*
X133122119Y-124507127D01*
X133112122Y-124467954D01*
X133108403Y-124407525D01*
X133128802Y-124282102D01*
X133172138Y-124096984D01*
X133237230Y-123857467D01*
X133283574Y-123698770D01*
X133338325Y-123541435D01*
X133369776Y-123486391D01*
X133545922Y-123486391D01*
X133551032Y-123488823D01*
X133585120Y-123462527D01*
X133592794Y-123451470D01*
X133602312Y-123416549D01*
X133597203Y-123414117D01*
X133563115Y-123440413D01*
X133555441Y-123451470D01*
X133545922Y-123486391D01*
X133369776Y-123486391D01*
X133389725Y-123451478D01*
X133429811Y-123423605D01*
X133487701Y-123387176D01*
X133499411Y-123357728D01*
X133529767Y-123305640D01*
X133563732Y-123285369D01*
X133605785Y-123259848D01*
X133578603Y-123230149D01*
X133575194Y-123228018D01*
X133542346Y-123189423D01*
X133555074Y-123124832D01*
X133566102Y-123099292D01*
X133619821Y-123019719D01*
X133673312Y-123008903D01*
X133704853Y-123040588D01*
G37*
G36*
X134220186Y-121526865D02*
G01*
X134223121Y-121551199D01*
X134180003Y-121602953D01*
X134124319Y-121658529D01*
X134060690Y-121734643D01*
X133981150Y-121849004D01*
X133895648Y-121984627D01*
X133814133Y-122124525D01*
X133746553Y-122251714D01*
X133702857Y-122349206D01*
X133692009Y-122396635D01*
X133665944Y-122431591D01*
X133616231Y-122461283D01*
X133543219Y-122519052D01*
X133509716Y-122592468D01*
X133524935Y-122655983D01*
X133541059Y-122669712D01*
X133567277Y-122699581D01*
X133526379Y-122725075D01*
X133471248Y-122761824D01*
X133469126Y-122793869D01*
X133519673Y-122798019D01*
X133527426Y-122796058D01*
X133544539Y-122796614D01*
X133501514Y-122821489D01*
X133489191Y-122827476D01*
X133424845Y-122868685D01*
X133409996Y-122901178D01*
X133411144Y-122902516D01*
X133408151Y-122945160D01*
X133368883Y-123003006D01*
X133327896Y-123058129D01*
X133342341Y-123077770D01*
X133353549Y-123078513D01*
X133385800Y-123086119D01*
X133357366Y-123109951D01*
X133318358Y-123156114D01*
X133316707Y-123174746D01*
X133309535Y-123231709D01*
X133285800Y-123302058D01*
X133258025Y-123377374D01*
X133250044Y-123414117D01*
X133235592Y-123455964D01*
X133196082Y-123533622D01*
X133189795Y-123544853D01*
X133132782Y-123657309D01*
X133089709Y-123759632D01*
X133045833Y-123833521D01*
X132996071Y-123862353D01*
X132949140Y-123847677D01*
X132945047Y-123834338D01*
X132940486Y-123790213D01*
X132911778Y-123707720D01*
X132854643Y-123575415D01*
X132819858Y-123499468D01*
X132776158Y-123399549D01*
X132749743Y-123328477D01*
X132746253Y-123312703D01*
X132732514Y-123261805D01*
X132699480Y-123173457D01*
X132690927Y-123152647D01*
X132656243Y-123066303D01*
X132638820Y-123016342D01*
X132638298Y-123012573D01*
X132639906Y-122972650D01*
X132640294Y-122924173D01*
X132623928Y-122865801D01*
X132569723Y-122863565D01*
X132485089Y-122863847D01*
X132448326Y-122849817D01*
X132424593Y-122824547D01*
X132470113Y-122816506D01*
X132472206Y-122816470D01*
X132521271Y-122809966D01*
X132501248Y-122785997D01*
X132490882Y-122779117D01*
X132462666Y-122749236D01*
X132478670Y-122742336D01*
X132531770Y-122717918D01*
X132608781Y-122658040D01*
X132629275Y-122639044D01*
X132749331Y-122527269D01*
X132892537Y-122401389D01*
X133068319Y-122253454D01*
X133286097Y-122075517D01*
X133519194Y-121888418D01*
X133644122Y-121796558D01*
X133786036Y-121704206D01*
X133928042Y-121620942D01*
X134053246Y-121556347D01*
X134144753Y-121520001D01*
X134176383Y-121515729D01*
X134220186Y-121526865D01*
G37*
G36*
X122684926Y-117284980D02*
G01*
X122842215Y-117313540D01*
X122996831Y-117350032D01*
X123077941Y-117373953D01*
X123189637Y-117422781D01*
X123332817Y-117501924D01*
X123480287Y-117595458D01*
X123582206Y-117669259D01*
X123827108Y-117865664D01*
X124009759Y-118022460D01*
X124130842Y-118140289D01*
X124191045Y-118219791D01*
X124198529Y-118245353D01*
X124218986Y-118285178D01*
X124272184Y-118365880D01*
X124334358Y-118453115D01*
X124437250Y-118632807D01*
X124470411Y-118804978D01*
X124435414Y-118984401D01*
X124399726Y-119067615D01*
X124289132Y-119212530D01*
X124125477Y-119312647D01*
X123916572Y-119366472D01*
X123670228Y-119372512D01*
X123394260Y-119329273D01*
X123246029Y-119288208D01*
X123034013Y-119217023D01*
X122875032Y-119151045D01*
X122749197Y-119079249D01*
X122636624Y-118990608D01*
X122538751Y-118896078D01*
X122443618Y-118802809D01*
X122367468Y-118735427D01*
X122325974Y-118707744D01*
X122324931Y-118707647D01*
X122286436Y-118677422D01*
X122244184Y-118607480D01*
X122212870Y-118528921D01*
X122207189Y-118472845D01*
X122210975Y-118466476D01*
X122208144Y-118449698D01*
X122187475Y-118452402D01*
X122125739Y-118432594D01*
X122060265Y-118355856D01*
X121997939Y-118239203D01*
X121945646Y-118099654D01*
X121910272Y-117954222D01*
X121910141Y-117952703D01*
X122149935Y-117952703D01*
X122182310Y-118094223D01*
X122217714Y-118146074D01*
X122279609Y-118232151D01*
X122313614Y-118301201D01*
X122346798Y-118359167D01*
X122369793Y-118371470D01*
X122408213Y-118401343D01*
X122456673Y-118474193D01*
X122461592Y-118483480D01*
X122544771Y-118606453D01*
X122664182Y-118738246D01*
X122797699Y-118857831D01*
X122923193Y-118944179D01*
X122969162Y-118965846D01*
X123077601Y-119008277D01*
X123167237Y-119045674D01*
X123171323Y-119047493D01*
X123300727Y-119091924D01*
X123474422Y-119134110D01*
X123662092Y-119168027D01*
X123833417Y-119187649D01*
X123889053Y-119190123D01*
X124011028Y-119186530D01*
X124081199Y-119166165D01*
X124121822Y-119122092D01*
X124124845Y-119116620D01*
X124142569Y-119048863D01*
X124152338Y-118941791D01*
X124154527Y-118817358D01*
X124149509Y-118697521D01*
X124137657Y-118604233D01*
X124119347Y-118559450D01*
X124115341Y-118558235D01*
X124088575Y-118528593D01*
X124086629Y-118511544D01*
X124058723Y-118457366D01*
X123983347Y-118370441D01*
X123873358Y-118262083D01*
X123741617Y-118143605D01*
X123600981Y-118026322D01*
X123464308Y-117921548D01*
X123344458Y-117840597D01*
X123288799Y-117809550D01*
X123173340Y-117755183D01*
X123085521Y-117718565D01*
X123046005Y-117707825D01*
X122990539Y-117701392D01*
X122894252Y-117674558D01*
X122785353Y-117635489D01*
X122760441Y-117625184D01*
X122685855Y-117599598D01*
X122580826Y-117570500D01*
X122469093Y-117543508D01*
X122374396Y-117524235D01*
X122320476Y-117518296D01*
X122315769Y-117520009D01*
X122291289Y-117554753D01*
X122254945Y-117603567D01*
X122228349Y-117648527D01*
X122242292Y-117650863D01*
X122285892Y-117663626D01*
X122359303Y-117718934D01*
X122446418Y-117800402D01*
X122531133Y-117891646D01*
X122597340Y-117976280D01*
X122628935Y-118037921D01*
X122629706Y-118044980D01*
X122659515Y-118083672D01*
X122739033Y-118149923D01*
X122853390Y-118233729D01*
X122987717Y-118325086D01*
X123127147Y-118413992D01*
X123256811Y-118490443D01*
X123361841Y-118544435D01*
X123388835Y-118555723D01*
X123497939Y-118585664D01*
X123582558Y-118595588D01*
X123647667Y-118615261D01*
X123731587Y-118664632D01*
X123816618Y-118729224D01*
X123885056Y-118794562D01*
X123919198Y-118846172D01*
X123913513Y-118866206D01*
X123862633Y-118868941D01*
X123757071Y-118858612D01*
X123615116Y-118838162D01*
X123455059Y-118810529D01*
X123295188Y-118778653D01*
X123153794Y-118745475D01*
X123140309Y-118741914D01*
X122953446Y-118664606D01*
X122755096Y-118537061D01*
X122566697Y-118376100D01*
X122409688Y-118198544D01*
X122364686Y-118133341D01*
X122291109Y-118002938D01*
X122237516Y-117880616D01*
X122215465Y-117792770D01*
X122215455Y-117792500D01*
X122211334Y-117717972D01*
X122202152Y-117714065D01*
X122181470Y-117773823D01*
X122149935Y-117952703D01*
X121910141Y-117952703D01*
X121898702Y-117819926D01*
X121905344Y-117755147D01*
X121947441Y-117625292D01*
X122011820Y-117509510D01*
X122084780Y-117427905D01*
X122147164Y-117400294D01*
X122206215Y-117385933D01*
X122218823Y-117367297D01*
X122253325Y-117330795D01*
X122345954Y-117294671D01*
X122461617Y-117268625D01*
X122549786Y-117268595D01*
X122684926Y-117284980D01*
G37*
G36*
X141408572Y-120418463D02*
G01*
X141474518Y-120434445D01*
X141472495Y-120450458D01*
X141435867Y-120466550D01*
X141386809Y-120488870D01*
X141406450Y-120496754D01*
X141429778Y-120497962D01*
X141484104Y-120509612D01*
X141480462Y-120531810D01*
X141433024Y-120555690D01*
X141355961Y-120572386D01*
X141306176Y-120575294D01*
X141207456Y-120584104D01*
X141144582Y-120605946D01*
X141138088Y-120612647D01*
X141086029Y-120642718D01*
X141033163Y-120649974D01*
X140968288Y-120665489D01*
X140861519Y-120705965D01*
X140732260Y-120762268D01*
X140599915Y-120825260D01*
X140483889Y-120885807D01*
X140403586Y-120934772D01*
X140378578Y-120958161D01*
X140335584Y-120983671D01*
X140312279Y-120986176D01*
X140265309Y-121011290D01*
X140179619Y-121079313D01*
X140068231Y-121179269D01*
X139967060Y-121277155D01*
X139745259Y-121492121D01*
X139553653Y-121661660D01*
X139375905Y-121798789D01*
X139195677Y-121916523D01*
X139083676Y-121980994D01*
X138980973Y-122045973D01*
X138866870Y-122129396D01*
X138841710Y-122149557D01*
X138753477Y-122214406D01*
X138684203Y-122252212D01*
X138667396Y-122256176D01*
X138616308Y-122275807D01*
X138610539Y-122284191D01*
X138575345Y-122318015D01*
X138496664Y-122378612D01*
X138393441Y-122452816D01*
X138284624Y-122527465D01*
X138189162Y-122589393D01*
X138126001Y-122625437D01*
X138113233Y-122629706D01*
X138067714Y-122651712D01*
X138036422Y-122676397D01*
X137939346Y-122758329D01*
X137859119Y-122808001D01*
X137760477Y-122846680D01*
X137746203Y-122851436D01*
X137658214Y-122888278D01*
X137610859Y-122923301D01*
X137608235Y-122930714D01*
X137576573Y-122963930D01*
X137514853Y-122987896D01*
X137444956Y-123015791D01*
X137421470Y-123041901D01*
X137391772Y-123078640D01*
X137320195Y-123124614D01*
X137318750Y-123125361D01*
X137062633Y-123257543D01*
X136865368Y-123360722D01*
X136719280Y-123439886D01*
X136616695Y-123500021D01*
X136549939Y-123546116D01*
X136511338Y-123583158D01*
X136493218Y-123616134D01*
X136487905Y-123650033D01*
X136487647Y-123665513D01*
X136467741Y-123720687D01*
X136397651Y-123760834D01*
X136328897Y-123781447D01*
X136202957Y-123806829D01*
X136088272Y-123818882D01*
X136065870Y-123818986D01*
X135980390Y-123825143D01*
X135935193Y-123842061D01*
X135936198Y-123880548D01*
X135987947Y-123924106D01*
X136068700Y-123959730D01*
X136156405Y-123974411D01*
X136239834Y-123986499D01*
X136281852Y-124011193D01*
X136333453Y-124039841D01*
X136386777Y-124045792D01*
X136491727Y-124052228D01*
X136543676Y-124061174D01*
X136641238Y-124079150D01*
X136774801Y-124097745D01*
X136919598Y-124114258D01*
X137050861Y-124125988D01*
X137143825Y-124130233D01*
X137166029Y-124129060D01*
X137235270Y-124141885D01*
X137260830Y-124196285D01*
X137247178Y-124276720D01*
X137198784Y-124367648D01*
X137120117Y-124453526D01*
X137060508Y-124496008D01*
X136940422Y-124553661D01*
X136798291Y-124604586D01*
X136757348Y-124615938D01*
X136630260Y-124653353D01*
X136518470Y-124695096D01*
X136488673Y-124709091D01*
X136389072Y-124746589D01*
X136314794Y-124758593D01*
X136228041Y-124783742D01*
X136188823Y-124814853D01*
X136165810Y-124860712D01*
X136180797Y-124870882D01*
X136228633Y-124885886D01*
X136328240Y-124926495D01*
X136463985Y-124986104D01*
X136586915Y-125042480D01*
X136764831Y-125125499D01*
X136942614Y-125208416D01*
X137094117Y-125279037D01*
X137160000Y-125309725D01*
X137290513Y-125374327D01*
X137408128Y-125438963D01*
X137464589Y-125474304D01*
X137549064Y-125523333D01*
X137613679Y-125544908D01*
X137614001Y-125544920D01*
X137681498Y-125560883D01*
X137774393Y-125597035D01*
X137776323Y-125597915D01*
X137826928Y-125623200D01*
X137836659Y-125638500D01*
X137796336Y-125646373D01*
X137696780Y-125649376D01*
X137589558Y-125649943D01*
X137400613Y-125643694D01*
X137257958Y-125620804D01*
X137134151Y-125576654D01*
X137122647Y-125571315D01*
X137029731Y-125527160D01*
X136886030Y-125458518D01*
X136708073Y-125373298D01*
X136512390Y-125279412D01*
X136418530Y-125234317D01*
X136198718Y-125130304D01*
X136028251Y-125057155D01*
X135889681Y-125012268D01*
X135765561Y-124993044D01*
X135638443Y-124996883D01*
X135490880Y-125021184D01*
X135305425Y-125063346D01*
X135292353Y-125066473D01*
X135086964Y-125096937D01*
X134881824Y-125094970D01*
X134699732Y-125062708D01*
X134563493Y-125002284D01*
X134557036Y-124997633D01*
X134479856Y-124917814D01*
X134445296Y-124810757D01*
X134440425Y-124764427D01*
X134442781Y-124654354D01*
X134472936Y-124613354D01*
X134533308Y-124640421D01*
X134595308Y-124699833D01*
X134660558Y-124754207D01*
X134744786Y-124784209D01*
X134873333Y-124798006D01*
X134904498Y-124799454D01*
X135030173Y-124801206D01*
X135125867Y-124796355D01*
X135164429Y-124788335D01*
X135216985Y-124774381D01*
X135321141Y-124757522D01*
X135450710Y-124741813D01*
X135580737Y-124723842D01*
X135678906Y-124701999D01*
X135723723Y-124681186D01*
X135774983Y-124651723D01*
X135813209Y-124646764D01*
X135888912Y-124635451D01*
X136008678Y-124606458D01*
X136146208Y-124567206D01*
X136275201Y-124525116D01*
X136356911Y-124493355D01*
X136441417Y-124459571D01*
X136553623Y-124419012D01*
X136574861Y-124411756D01*
X136718105Y-124363370D01*
X136332067Y-124277859D01*
X136162388Y-124238862D01*
X136012553Y-124201864D01*
X135902410Y-124171902D01*
X135860227Y-124158086D01*
X135761564Y-124130543D01*
X135701477Y-124123823D01*
X135641722Y-124109036D01*
X135628529Y-124089287D01*
X135596277Y-124070070D01*
X135517397Y-124068706D01*
X135505098Y-124070060D01*
X135393964Y-124064779D01*
X135251992Y-124032711D01*
X135178260Y-124007857D01*
X135038047Y-123954605D01*
X134865069Y-123889156D01*
X134696502Y-123825575D01*
X134694706Y-123824899D01*
X134432196Y-123725702D01*
X134232003Y-123648456D01*
X134086389Y-123589157D01*
X133987619Y-123543802D01*
X133927954Y-123508387D01*
X133899660Y-123478910D01*
X133894999Y-123451367D01*
X133906235Y-123421754D01*
X133908249Y-123417938D01*
X133975119Y-123364173D01*
X134109483Y-123330882D01*
X134132261Y-123327952D01*
X134217203Y-123321005D01*
X134297848Y-123324409D01*
X134387825Y-123341977D01*
X134500767Y-123377521D01*
X134650303Y-123434852D01*
X134850065Y-123517783D01*
X134925496Y-123549785D01*
X135137610Y-123640032D01*
X135429760Y-123560048D01*
X135583973Y-123517873D01*
X135724112Y-123479627D01*
X135823393Y-123452616D01*
X135833970Y-123449752D01*
X135938099Y-123419756D01*
X136070875Y-123379223D01*
X136127798Y-123361229D01*
X136239151Y-123332198D01*
X136322940Y-123322293D01*
X136348349Y-123326986D01*
X136369193Y-123326982D01*
X136360478Y-123307830D01*
X136368565Y-123275476D01*
X136447171Y-123264706D01*
X136448089Y-123264706D01*
X136527720Y-123254280D01*
X136562308Y-123229093D01*
X136562353Y-123228064D01*
X136594306Y-123193933D01*
X136665073Y-123166884D01*
X136756319Y-123137267D01*
X136810204Y-123109123D01*
X136856582Y-123082309D01*
X136958148Y-123029094D01*
X136972294Y-123021911D01*
X137085294Y-123021911D01*
X137103970Y-123040588D01*
X137122647Y-123021911D01*
X137103970Y-123003235D01*
X137085294Y-123021911D01*
X136972294Y-123021911D01*
X137102843Y-122955621D01*
X137278609Y-122868030D01*
X137421470Y-122797794D01*
X137613234Y-122703070D01*
X137783504Y-122617134D01*
X137920005Y-122546325D01*
X138010458Y-122496985D01*
X138040366Y-122478159D01*
X138144113Y-122407203D01*
X138252507Y-122356024D01*
X138343128Y-122333247D01*
X138390366Y-122343542D01*
X138424049Y-122360458D01*
X138430000Y-122334088D01*
X138456243Y-122283254D01*
X138523436Y-122206565D01*
X138577902Y-122155355D01*
X138666444Y-122069623D01*
X138729307Y-121993787D01*
X138745934Y-121963517D01*
X138793431Y-121899375D01*
X138850164Y-121860170D01*
X139152286Y-121697246D01*
X139408390Y-121523567D01*
X139573873Y-121387071D01*
X139686765Y-121292686D01*
X139780525Y-121224621D01*
X139840472Y-121193111D01*
X139851928Y-121193173D01*
X139882383Y-121183970D01*
X139886764Y-121160389D01*
X139912587Y-121100237D01*
X139975591Y-121025862D01*
X139983933Y-121018111D01*
X140074215Y-120936008D01*
X140152939Y-120863861D01*
X140245370Y-120800330D01*
X140404766Y-120717170D01*
X140626624Y-120616508D01*
X140906439Y-120500472D01*
X141004892Y-120461457D01*
X141096045Y-120432811D01*
X141139671Y-120441069D01*
X141148062Y-120455804D01*
X141175829Y-120479646D01*
X141235286Y-120449825D01*
X141326365Y-120418012D01*
X141408572Y-120418463D01*
G37*
G36*
X130635346Y-113941705D02*
G01*
X131078905Y-114070314D01*
X131463676Y-114226937D01*
X131555578Y-114265565D01*
X131644650Y-114299653D01*
X131827580Y-114383782D01*
X132034031Y-114506676D01*
X132238188Y-114651005D01*
X132414234Y-114799437D01*
X132466667Y-114851495D01*
X132639131Y-115034696D01*
X132770282Y-115180457D01*
X132871482Y-115304313D01*
X132954094Y-115421798D01*
X133029479Y-115548447D01*
X133109001Y-115699796D01*
X133156105Y-115794117D01*
X133368676Y-116223676D01*
X133360326Y-116559853D01*
X133352644Y-116719404D01*
X133339298Y-116856974D01*
X133322678Y-116950580D01*
X133315674Y-116970735D01*
X133278975Y-117049666D01*
X133228485Y-117162172D01*
X133205875Y-117213529D01*
X133143471Y-117336374D01*
X133073999Y-117445337D01*
X133050473Y-117475000D01*
X132979482Y-117562675D01*
X132894216Y-117676929D01*
X132857291Y-117729131D01*
X132652802Y-117980353D01*
X132392170Y-118232599D01*
X132092703Y-118473272D01*
X131771711Y-118689775D01*
X131446503Y-118869511D01*
X131134390Y-118999884D01*
X131092223Y-119013637D01*
X130925488Y-119062360D01*
X130782355Y-119093337D01*
X130635501Y-119110270D01*
X130457603Y-119116860D01*
X130326255Y-119117393D01*
X130149037Y-119113926D01*
X129995558Y-119105377D01*
X129883478Y-119093080D01*
X129832971Y-119080135D01*
X129757695Y-119052752D01*
X129646251Y-119028950D01*
X129611710Y-119023988D01*
X129455884Y-118995897D01*
X129260396Y-118948537D01*
X129049769Y-118889100D01*
X128848526Y-118824778D01*
X128681189Y-118762762D01*
X128606176Y-118729106D01*
X128471418Y-118661157D01*
X128316807Y-118583040D01*
X128241673Y-118545018D01*
X128011943Y-118413546D01*
X127795765Y-118262079D01*
X127612991Y-118105762D01*
X127494926Y-117975394D01*
X127426892Y-117878390D01*
X127382841Y-117802659D01*
X127373529Y-117775394D01*
X127350997Y-117737809D01*
X127343094Y-117736470D01*
X127306019Y-117704033D01*
X127257042Y-117620159D01*
X127205602Y-117505003D01*
X127161136Y-117378721D01*
X127141939Y-117306911D01*
X127136039Y-117279768D01*
X127285255Y-117279768D01*
X127292107Y-117380089D01*
X127295789Y-117442945D01*
X127329248Y-117526553D01*
X127416416Y-117640304D01*
X127547217Y-117775446D01*
X127711577Y-117923230D01*
X127899421Y-118074904D01*
X128100674Y-118221719D01*
X128305261Y-118354923D01*
X128427180Y-118425638D01*
X128635993Y-118527868D01*
X128873013Y-118623435D01*
X129121211Y-118707375D01*
X129363559Y-118774723D01*
X129583029Y-118820515D01*
X129762590Y-118839785D01*
X129838823Y-118837205D01*
X129945929Y-118825537D01*
X130092598Y-118810507D01*
X130222210Y-118797779D01*
X130352337Y-118781042D01*
X130450440Y-118760483D01*
X130495223Y-118740593D01*
X130544933Y-118713951D01*
X130595984Y-118707647D01*
X130622655Y-118696450D01*
X130594230Y-118668025D01*
X130526022Y-118630119D01*
X130433340Y-118590478D01*
X130392253Y-118576911D01*
X130847353Y-118576911D01*
X130866029Y-118595588D01*
X130884706Y-118576911D01*
X130866029Y-118558235D01*
X130847353Y-118576911D01*
X130392253Y-118576911D01*
X130331498Y-118556850D01*
X130268787Y-118542099D01*
X130182456Y-118518114D01*
X130138911Y-118490768D01*
X130137647Y-118486193D01*
X130106465Y-118453099D01*
X130059183Y-118434370D01*
X130004899Y-118401418D01*
X130009281Y-118367637D01*
X130014145Y-118336432D01*
X129983136Y-118342415D01*
X129927659Y-118328138D01*
X129838397Y-118266772D01*
X129727172Y-118170398D01*
X129605806Y-118051095D01*
X129486121Y-117920944D01*
X129379941Y-117792024D01*
X129299085Y-117676416D01*
X129262185Y-117605735D01*
X129248079Y-117568382D01*
X129353235Y-117568382D01*
X129371911Y-117587058D01*
X129390588Y-117568382D01*
X129371911Y-117549706D01*
X129353235Y-117568382D01*
X129248079Y-117568382D01*
X129191656Y-117418970D01*
X129278529Y-117418970D01*
X129297206Y-117437647D01*
X129315882Y-117418970D01*
X129297206Y-117400294D01*
X129278529Y-117418970D01*
X129191656Y-117418970D01*
X129153998Y-117319251D01*
X129080768Y-117083746D01*
X129038973Y-116886169D01*
X129025279Y-116727935D01*
X129031153Y-116597916D01*
X129050465Y-116437463D01*
X129079365Y-116265921D01*
X129114005Y-116102633D01*
X129150537Y-115966945D01*
X129185112Y-115878201D01*
X129198010Y-115859695D01*
X129241359Y-115861568D01*
X129295693Y-115904505D01*
X129334591Y-115957379D01*
X129344639Y-116014992D01*
X129327796Y-116104756D01*
X129313725Y-116156673D01*
X129289686Y-116280741D01*
X129271430Y-116446978D01*
X129262352Y-116622886D01*
X129261959Y-116652388D01*
X129289880Y-116977939D01*
X129380965Y-117280108D01*
X129539432Y-117569933D01*
X129686927Y-117764521D01*
X129902580Y-117996313D01*
X130101957Y-118158261D01*
X130288299Y-118252632D01*
X130425129Y-118280687D01*
X130557672Y-118298046D01*
X130678130Y-118327292D01*
X130705351Y-118337187D01*
X130792220Y-118355758D01*
X130913559Y-118359365D01*
X131055239Y-118350524D01*
X131203134Y-118331753D01*
X131343115Y-118305569D01*
X131461056Y-118274489D01*
X131542827Y-118241030D01*
X131574302Y-118207710D01*
X131557970Y-118185269D01*
X131484631Y-118169515D01*
X131441464Y-118174807D01*
X131350868Y-118180110D01*
X131276688Y-118169311D01*
X131211488Y-118143688D01*
X131207616Y-118101007D01*
X131222714Y-118069224D01*
X131234755Y-117979271D01*
X131196917Y-117887897D01*
X131126010Y-117824124D01*
X131073277Y-117811176D01*
X130977578Y-117843799D01*
X130905929Y-117922954D01*
X130884706Y-118000609D01*
X130874942Y-118049702D01*
X130837246Y-118068124D01*
X130759010Y-118055908D01*
X130627625Y-118013090D01*
X130595382Y-118001413D01*
X130367240Y-117902750D01*
X130180471Y-117782076D01*
X130001743Y-117617336D01*
X129979579Y-117593906D01*
X129824958Y-117396762D01*
X129704830Y-117167161D01*
X129610416Y-116887249D01*
X129586771Y-116794851D01*
X129555265Y-116649336D01*
X129545152Y-116539767D01*
X129556106Y-116430611D01*
X129582295Y-116309263D01*
X129624404Y-116165320D01*
X129664729Y-116093291D01*
X129687425Y-116085234D01*
X129781150Y-116085160D01*
X129909286Y-116060743D01*
X130042512Y-116020402D01*
X130151505Y-115972553D01*
X130198122Y-115938616D01*
X130258696Y-115820354D01*
X130262377Y-115677030D01*
X130214688Y-115524634D01*
X130121148Y-115379158D01*
X129987282Y-115256593D01*
X129955435Y-115235795D01*
X129871446Y-115176490D01*
X129826702Y-115129091D01*
X129824625Y-115114518D01*
X129867762Y-115083275D01*
X129961273Y-115033160D01*
X130086205Y-114973137D01*
X130223604Y-114912166D01*
X130354517Y-114859211D01*
X130399117Y-114842878D01*
X130556973Y-114805468D01*
X130782306Y-114781069D01*
X131077902Y-114769404D01*
X131153683Y-114768512D01*
X131263143Y-114763939D01*
X131329868Y-114753709D01*
X131340447Y-114742907D01*
X131294940Y-114717467D01*
X131200273Y-114673445D01*
X131076576Y-114620183D01*
X131071470Y-114618060D01*
X130800152Y-114526152D01*
X130485645Y-114453922D01*
X130158332Y-114408063D01*
X130093561Y-114402612D01*
X129971523Y-114389408D01*
X129877925Y-114371781D01*
X129845629Y-114360235D01*
X129806527Y-114357301D01*
X129801470Y-114372501D01*
X129770265Y-114404820D01*
X129728070Y-114412058D01*
X129580671Y-114437253D01*
X129392685Y-114509050D01*
X129176885Y-114621764D01*
X128985857Y-114742282D01*
X128847492Y-114836011D01*
X128727849Y-114916661D01*
X128643407Y-114973145D01*
X128616173Y-114991029D01*
X128552834Y-115042820D01*
X128445530Y-115143789D01*
X128300492Y-115287783D01*
X128123949Y-115468650D01*
X127977519Y-115621738D01*
X127874627Y-115722138D01*
X127783974Y-115796505D01*
X127722643Y-115831099D01*
X127716049Y-115832042D01*
X127677716Y-115840303D01*
X127701477Y-115862947D01*
X127724905Y-115898484D01*
X127697577Y-115957573D01*
X127675456Y-115987129D01*
X127619593Y-116069527D01*
X127590302Y-116133516D01*
X127553212Y-116200897D01*
X127522941Y-116231691D01*
X127493434Y-116269262D01*
X127510297Y-116278518D01*
X127544937Y-116307824D01*
X127545103Y-116326397D01*
X127511813Y-116479164D01*
X127478827Y-116579227D01*
X127449694Y-116615869D01*
X127449218Y-116615882D01*
X127425028Y-116647613D01*
X127417685Y-116699926D01*
X127408822Y-116833704D01*
X127388607Y-116967935D01*
X127361644Y-117080764D01*
X127332538Y-117150337D01*
X127320427Y-117161545D01*
X127291495Y-117206535D01*
X127285255Y-117279768D01*
X127136039Y-117279768D01*
X127101169Y-117119354D01*
X127082189Y-117008088D01*
X127261470Y-117008088D01*
X127280147Y-117026764D01*
X127298823Y-117008088D01*
X127280147Y-116989411D01*
X127261470Y-117008088D01*
X127082189Y-117008088D01*
X127077242Y-116979090D01*
X127067850Y-116861204D01*
X127070685Y-116740779D01*
X127079506Y-116633162D01*
X127108145Y-116446846D01*
X127162638Y-116279005D01*
X127244640Y-116110220D01*
X127535651Y-115627816D01*
X127782517Y-115289853D01*
X128120588Y-115289853D01*
X128139264Y-115308529D01*
X128157941Y-115289853D01*
X128139264Y-115271176D01*
X128120588Y-115289853D01*
X127782517Y-115289853D01*
X127876504Y-115161183D01*
X128154269Y-114837404D01*
X128341393Y-114642328D01*
X128509430Y-114487258D01*
X128680242Y-114355383D01*
X128863461Y-114237745D01*
X129701862Y-114237745D01*
X129706990Y-114259951D01*
X129726764Y-114262647D01*
X129757510Y-114248980D01*
X129751666Y-114237745D01*
X129707337Y-114233274D01*
X129701862Y-114237745D01*
X128863461Y-114237745D01*
X128875693Y-114229891D01*
X129117648Y-114093970D01*
X129129117Y-114087802D01*
X129460630Y-113951909D01*
X129823786Y-113882358D01*
X130216166Y-113879005D01*
X130635346Y-113941705D01*
G37*
G36*
X125734079Y-104014462D02*
G01*
X125835677Y-104064700D01*
X125939458Y-104138403D01*
X125946849Y-104144710D01*
X126041876Y-104220777D01*
X126180505Y-104324028D01*
X126343853Y-104440702D01*
X126507143Y-104553067D01*
X126701292Y-104684465D01*
X126913630Y-104829028D01*
X127115068Y-104966911D01*
X127242794Y-105054903D01*
X127418081Y-105171554D01*
X127607676Y-105290352D01*
X127781778Y-105392889D01*
X127854519Y-105432737D01*
X127983678Y-105505042D01*
X128085169Y-105569754D01*
X128142012Y-105615774D01*
X128147918Y-105624523D01*
X128182286Y-105655556D01*
X128196913Y-105651793D01*
X128235549Y-105654456D01*
X128317722Y-105687324D01*
X128448902Y-105753063D01*
X128634557Y-105854337D01*
X128774264Y-105933206D01*
X128879282Y-105991871D01*
X129022807Y-106070577D01*
X129177388Y-106154293D01*
X129209842Y-106171723D01*
X129359456Y-106256296D01*
X129499348Y-106342856D01*
X129604020Y-106415453D01*
X129620724Y-106428741D01*
X129712166Y-106501963D01*
X129794575Y-106557034D01*
X129880718Y-106596781D01*
X129983362Y-106624033D01*
X130115275Y-106641617D01*
X130289222Y-106652362D01*
X130517970Y-106659096D01*
X130674461Y-106662163D01*
X131002210Y-106669959D01*
X131259505Y-106680362D01*
X131450564Y-106693751D01*
X131579607Y-106710507D01*
X131650851Y-106731007D01*
X131669117Y-106751519D01*
X131700956Y-106766396D01*
X131776753Y-106763322D01*
X131862117Y-106764565D01*
X131909692Y-106788468D01*
X131962524Y-106819466D01*
X132035513Y-106830584D01*
X132121264Y-106847640D01*
X132243769Y-106890857D01*
X132357745Y-106941931D01*
X132471987Y-106995712D01*
X132556966Y-107030114D01*
X132593869Y-107037699D01*
X132601938Y-106995389D01*
X132607228Y-106902138D01*
X132608412Y-106823631D01*
X132618677Y-106689415D01*
X132645181Y-106583173D01*
X132661709Y-106551552D01*
X132698579Y-106509007D01*
X132733905Y-106507437D01*
X132790085Y-106551594D01*
X132827086Y-106586643D01*
X132895688Y-106663135D01*
X132906401Y-106709418D01*
X132892518Y-106723857D01*
X132870406Y-106748395D01*
X132905221Y-106754134D01*
X132960822Y-106788032D01*
X133024071Y-106877663D01*
X133084340Y-107006324D01*
X133107563Y-107072206D01*
X133126868Y-107115419D01*
X133154524Y-107111360D01*
X133207301Y-107054636D01*
X133223702Y-107034853D01*
X133431090Y-106799348D01*
X133618423Y-106622528D01*
X133796074Y-106494851D01*
X133835492Y-106472076D01*
X133929124Y-106415416D01*
X133995505Y-106366604D01*
X134003581Y-106358735D01*
X134116647Y-106258826D01*
X134248992Y-106176595D01*
X134373593Y-106127283D01*
X134427422Y-106119706D01*
X134505232Y-106124572D01*
X134537492Y-106149211D01*
X134527612Y-106208680D01*
X134479001Y-106318037D01*
X134474467Y-106327469D01*
X134410648Y-106493009D01*
X134343120Y-106731899D01*
X134272221Y-107042894D01*
X134249938Y-107152104D01*
X134231095Y-107382514D01*
X134251592Y-107562986D01*
X134274011Y-107692884D01*
X134290254Y-107799836D01*
X134295665Y-107847279D01*
X134317545Y-107904809D01*
X134368782Y-107896608D01*
X134445121Y-107823661D01*
X134456146Y-107810126D01*
X134513568Y-107744052D01*
X134553105Y-107731316D01*
X134602286Y-107765941D01*
X134613432Y-107775968D01*
X134665664Y-107847558D01*
X134672169Y-107943411D01*
X134667899Y-107974189D01*
X134646825Y-108104048D01*
X134773486Y-108032671D01*
X134878408Y-107971768D01*
X135010173Y-107892959D01*
X135091043Y-107843588D01*
X135199989Y-107780524D01*
X135286549Y-107737806D01*
X135324498Y-107725882D01*
X135364906Y-107704952D01*
X135367058Y-107695402D01*
X135398892Y-107666568D01*
X135481790Y-107621902D01*
X135581838Y-107577775D01*
X135705594Y-107524263D01*
X135806254Y-107474876D01*
X135852647Y-107446821D01*
X135914302Y-107410701D01*
X136021942Y-107358215D01*
X136151470Y-107301068D01*
X136282335Y-107245106D01*
X136391504Y-107196609D01*
X136455034Y-107166234D01*
X136532246Y-107137177D01*
X136639402Y-107110232D01*
X136650810Y-107108018D01*
X136732674Y-107083941D01*
X136766745Y-107055923D01*
X136765262Y-107049433D01*
X136777674Y-107022156D01*
X136812834Y-107016176D01*
X136888071Y-106999105D01*
X136990673Y-106956661D01*
X137019126Y-106942123D01*
X137122161Y-106900247D01*
X137205692Y-106889040D01*
X137220803Y-106892441D01*
X137263811Y-106899412D01*
X137253738Y-106867341D01*
X137243477Y-106835430D01*
X137265756Y-106844193D01*
X137321813Y-106848578D01*
X137431356Y-106835341D01*
X137576223Y-106808017D01*
X137738254Y-106770144D01*
X137899288Y-106725257D01*
X137936639Y-106713554D01*
X138034615Y-106694634D01*
X138143633Y-106705384D01*
X138261853Y-106737647D01*
X138364788Y-106777953D01*
X138461281Y-106828450D01*
X138536878Y-106879136D01*
X138577124Y-106920008D01*
X138567565Y-106941061D01*
X138557186Y-106942042D01*
X138548902Y-106957961D01*
X138562702Y-106970057D01*
X138620014Y-107043080D01*
X138676949Y-107172348D01*
X138727830Y-107339589D01*
X138766978Y-107526531D01*
X138787185Y-107692444D01*
X138799638Y-107837284D01*
X138812315Y-107950774D01*
X138823054Y-108014542D01*
X138825964Y-108021724D01*
X138819163Y-108060443D01*
X138784859Y-108123320D01*
X138749336Y-108182915D01*
X138758517Y-108195867D01*
X138790732Y-108185369D01*
X138834486Y-108180950D01*
X138835083Y-108228820D01*
X138831707Y-108242523D01*
X138828305Y-108305334D01*
X138845693Y-108323529D01*
X138860872Y-108349710D01*
X138844803Y-108390909D01*
X138828869Y-108472567D01*
X138840732Y-108510051D01*
X138852666Y-108534942D01*
X138859850Y-108570979D01*
X138861943Y-108629108D01*
X138858601Y-108720274D01*
X138849481Y-108855424D01*
X138834241Y-109045504D01*
X138817906Y-109238676D01*
X138806358Y-109392028D01*
X138799756Y-109517808D01*
X138798977Y-109596918D01*
X138800761Y-109612206D01*
X138813355Y-109718113D01*
X138801301Y-109830556D01*
X138793725Y-109855000D01*
X138758315Y-109985626D01*
X138726503Y-110177758D01*
X138698967Y-110418254D01*
X138676386Y-110693969D01*
X138659437Y-110991762D01*
X138648798Y-111298490D01*
X138645149Y-111601009D01*
X138649168Y-111886176D01*
X138661531Y-112140850D01*
X138670351Y-112245588D01*
X138685334Y-112399787D01*
X138698484Y-112539315D01*
X138707051Y-112634995D01*
X138707284Y-112637794D01*
X138723220Y-112741071D01*
X138744248Y-112812303D01*
X138774141Y-112893992D01*
X138782088Y-112924362D01*
X138804717Y-113004500D01*
X138813850Y-113030000D01*
X138827282Y-113107097D01*
X138827981Y-113198088D01*
X138836508Y-113297901D01*
X138864309Y-113366176D01*
X138902686Y-113454761D01*
X138931116Y-113595999D01*
X138948750Y-113768391D01*
X138954739Y-113950440D01*
X138948236Y-114120649D01*
X138928392Y-114257520D01*
X138902292Y-114328646D01*
X138882714Y-114384609D01*
X138855539Y-114492897D01*
X138825996Y-114632238D01*
X138820020Y-114663242D01*
X138781820Y-114824599D01*
X138735548Y-114960693D01*
X138689526Y-115047050D01*
X138689519Y-115047058D01*
X138611118Y-115151949D01*
X138550012Y-115242925D01*
X138490481Y-115314312D01*
X138434786Y-115345589D01*
X138433112Y-115345646D01*
X138399497Y-115358727D01*
X138404774Y-115370460D01*
X138406407Y-115415638D01*
X138390509Y-115441840D01*
X138372400Y-115493462D01*
X138390833Y-115512849D01*
X138426660Y-115514119D01*
X138430000Y-115502098D01*
X138461794Y-115467628D01*
X138540992Y-115422380D01*
X138643317Y-115376618D01*
X138744493Y-115340608D01*
X138820243Y-115324614D01*
X138841994Y-115327893D01*
X138877534Y-115388507D01*
X138856258Y-115482811D01*
X138781412Y-115600074D01*
X138747714Y-115639550D01*
X138617192Y-115784022D01*
X138781185Y-115806499D01*
X138864577Y-115820481D01*
X138948184Y-115841810D01*
X139045439Y-115875645D01*
X139169773Y-115927150D01*
X139334615Y-116001484D01*
X139546792Y-116100692D01*
X139713758Y-116189056D01*
X139873675Y-116290608D01*
X140013225Y-116394955D01*
X140119088Y-116491703D01*
X140177944Y-116570459D01*
X140185588Y-116599144D01*
X140150983Y-116695751D01*
X140053987Y-116768211D01*
X139904832Y-116809908D01*
X139851190Y-116815447D01*
X139736830Y-116828711D01*
X139658185Y-116848150D01*
X139636686Y-116862680D01*
X139657831Y-116902247D01*
X139723828Y-116961513D01*
X139755286Y-116984190D01*
X139919779Y-117104530D01*
X140022536Y-117198930D01*
X140061141Y-117264991D01*
X140057377Y-117284150D01*
X140062110Y-117320638D01*
X140083490Y-117325588D01*
X140146833Y-117353302D01*
X140221218Y-117418377D01*
X140279924Y-117493717D01*
X140297647Y-117542775D01*
X140317025Y-117584479D01*
X140326810Y-117587058D01*
X140360981Y-117612107D01*
X140439883Y-117682113D01*
X140555264Y-117789369D01*
X140698872Y-117926170D01*
X140862454Y-118084806D01*
X140916747Y-118138014D01*
X141092546Y-118309369D01*
X141258174Y-118468286D01*
X141403473Y-118605211D01*
X141518283Y-118710594D01*
X141592445Y-118774882D01*
X141602018Y-118782353D01*
X141700592Y-118859447D01*
X141784559Y-118930215D01*
X141796493Y-118941103D01*
X141861343Y-118990862D01*
X141899249Y-119006470D01*
X141947361Y-119032100D01*
X141981758Y-119066391D01*
X142056918Y-119128024D01*
X142117067Y-119158849D01*
X142168807Y-119189103D01*
X142194381Y-119243257D01*
X142202384Y-119343603D01*
X142202647Y-119380844D01*
X142202647Y-119570303D01*
X141472670Y-119556818D01*
X141198045Y-119553255D01*
X140996928Y-119554178D01*
X140868249Y-119559728D01*
X140810938Y-119570050D01*
X140823924Y-119585284D01*
X140906136Y-119605574D01*
X140991806Y-119620822D01*
X141133949Y-119659746D01*
X141266517Y-119722114D01*
X141366258Y-119795075D01*
X141405773Y-119849636D01*
X141409014Y-119922913D01*
X141356968Y-119956738D01*
X141261483Y-119944429D01*
X141246891Y-119939241D01*
X141174003Y-119913175D01*
X141164256Y-119920026D01*
X141210943Y-119966221D01*
X141214876Y-119969902D01*
X141310664Y-120031314D01*
X141401641Y-120062805D01*
X141511658Y-120089736D01*
X141646037Y-120130779D01*
X141784467Y-120178625D01*
X141906639Y-120225964D01*
X141992242Y-120265490D01*
X142020058Y-120285340D01*
X142059695Y-120316626D01*
X142066749Y-120317013D01*
X142090588Y-120332500D01*
X142090588Y-120381925D01*
X142090588Y-120411445D01*
X142071169Y-120453051D01*
X142002125Y-120458347D01*
X141980796Y-120455600D01*
X141904945Y-120454959D01*
X141878031Y-120476904D01*
X141878076Y-120477157D01*
X141853362Y-120514791D01*
X141814802Y-120530082D01*
X141766018Y-120529449D01*
X141760828Y-120483848D01*
X141767824Y-120452233D01*
X141772660Y-120379597D01*
X141725375Y-120343677D01*
X141696568Y-120335382D01*
X141632465Y-120309254D01*
X141618582Y-120284713D01*
X141599507Y-120264212D01*
X141536065Y-120254759D01*
X141421102Y-120234987D01*
X141245870Y-120181915D01*
X141046181Y-120108382D01*
X141418235Y-120108382D01*
X141436911Y-120127058D01*
X141455588Y-120108382D01*
X141436911Y-120089706D01*
X141418235Y-120108382D01*
X141046181Y-120108382D01*
X141016073Y-120097295D01*
X140988676Y-120086519D01*
X140915230Y-120061226D01*
X140792904Y-120024634D01*
X140614603Y-119974723D01*
X140373231Y-119909471D01*
X140278970Y-119884345D01*
X140067064Y-119833428D01*
X139802608Y-119778105D01*
X139507298Y-119722240D01*
X139202830Y-119669695D01*
X138910901Y-119624333D01*
X138653207Y-119590018D01*
X138580042Y-119581846D01*
X138471654Y-119564587D01*
X138395676Y-119541777D01*
X138380825Y-119532531D01*
X138381865Y-119504509D01*
X138442451Y-119504509D01*
X138447578Y-119526716D01*
X138467353Y-119529411D01*
X138498098Y-119515745D01*
X138492255Y-119504509D01*
X138447925Y-119500039D01*
X138442451Y-119504509D01*
X138381865Y-119504509D01*
X138382409Y-119489851D01*
X138427462Y-119429746D01*
X138495172Y-119372855D01*
X138564724Y-119339816D01*
X138577116Y-119337880D01*
X138663828Y-119326754D01*
X138710147Y-119318763D01*
X138846070Y-119299129D01*
X139005601Y-119285685D01*
X139169273Y-119278838D01*
X139317621Y-119278994D01*
X139431180Y-119286559D01*
X139490484Y-119301938D01*
X139491156Y-119302470D01*
X139541052Y-119324766D01*
X139556588Y-119305969D01*
X139558117Y-119305294D01*
X141082058Y-119305294D01*
X141095725Y-119336039D01*
X141106960Y-119330196D01*
X141111431Y-119285866D01*
X141106960Y-119280392D01*
X141084754Y-119285519D01*
X141082058Y-119305294D01*
X139558117Y-119305294D01*
X139598659Y-119287392D01*
X139705386Y-119270837D01*
X139866723Y-119257516D01*
X140017794Y-119250365D01*
X140272876Y-119241869D01*
X140463650Y-119237085D01*
X140600436Y-119236292D01*
X140693555Y-119239771D01*
X140753325Y-119247799D01*
X140790066Y-119260657D01*
X140806481Y-119271734D01*
X140858296Y-119286827D01*
X140875496Y-119269755D01*
X140931857Y-119238474D01*
X141022313Y-119232686D01*
X141111010Y-119251649D01*
X141149294Y-119275411D01*
X141186726Y-119296127D01*
X141194117Y-119282912D01*
X141226583Y-119262048D01*
X141306934Y-119259105D01*
X141324853Y-119260851D01*
X141411268Y-119279062D01*
X141454460Y-119304074D01*
X141455588Y-119308447D01*
X141486971Y-119325085D01*
X141561528Y-119319591D01*
X141670794Y-119315356D01*
X141794269Y-119333543D01*
X141804322Y-119336190D01*
X141903516Y-119353366D01*
X141937544Y-119335873D01*
X141904487Y-119288804D01*
X141840258Y-119240892D01*
X141737660Y-119166696D01*
X141657026Y-119099957D01*
X141571279Y-119027213D01*
X141466962Y-118945162D01*
X141449783Y-118932272D01*
X141374550Y-118868763D01*
X141257784Y-118760901D01*
X141109347Y-118618549D01*
X140939103Y-118451569D01*
X140756916Y-118269823D01*
X140572649Y-118083174D01*
X140396167Y-117901483D01*
X140237332Y-117734612D01*
X140106010Y-117592425D01*
X140074251Y-117556957D01*
X139941250Y-117417718D01*
X139796623Y-117283190D01*
X139665207Y-117176004D01*
X139626016Y-117148536D01*
X139516893Y-117074139D01*
X139433983Y-117012678D01*
X139397000Y-116979344D01*
X139349161Y-116948889D01*
X139340970Y-116948683D01*
X139284650Y-116940388D01*
X139195800Y-116916224D01*
X139195735Y-116916204D01*
X139105916Y-116897746D01*
X138967635Y-116880451D01*
X138807110Y-116867432D01*
X138766176Y-116865191D01*
X138531727Y-116839437D01*
X138333768Y-116789413D01*
X138322048Y-116783970D01*
X139587941Y-116783970D01*
X139606617Y-116802647D01*
X139625294Y-116783970D01*
X139606617Y-116765294D01*
X139587941Y-116783970D01*
X138322048Y-116783970D01*
X138183054Y-116719419D01*
X138090341Y-116633758D01*
X138069094Y-116586388D01*
X138065006Y-116492966D01*
X138110663Y-116454078D01*
X138202601Y-116471821D01*
X138234411Y-116486343D01*
X138341774Y-116533305D01*
X138436712Y-116564781D01*
X138437408Y-116564946D01*
X138559276Y-116585802D01*
X138722222Y-116603383D01*
X138903980Y-116616479D01*
X139082283Y-116623883D01*
X139234868Y-116624385D01*
X139339468Y-116616777D01*
X139351042Y-116614552D01*
X139453962Y-116599484D01*
X139530256Y-116602228D01*
X139536725Y-116604221D01*
X139606471Y-116611047D01*
X139708472Y-116601444D01*
X139721699Y-116599103D01*
X139806119Y-116578574D01*
X139828817Y-116553352D01*
X139805462Y-116514473D01*
X139742267Y-116465754D01*
X139626149Y-116399590D01*
X139474442Y-116323923D01*
X139304482Y-116246697D01*
X139158853Y-116186323D01*
X139513235Y-116186323D01*
X139531911Y-116205000D01*
X139550588Y-116186323D01*
X139531911Y-116167647D01*
X139513235Y-116186323D01*
X139158853Y-116186323D01*
X139133605Y-116175856D01*
X138979146Y-116119343D01*
X138878235Y-116089589D01*
X138738733Y-116065245D01*
X138560198Y-116047059D01*
X138378255Y-116038524D01*
X138355294Y-116038301D01*
X138201230Y-116036306D01*
X138107565Y-116029642D01*
X138060002Y-116014811D01*
X138044244Y-115988313D01*
X138044367Y-115962206D01*
X138043146Y-115932033D01*
X138027608Y-115929338D01*
X137990939Y-115960809D01*
X137926327Y-116033132D01*
X137826961Y-116152996D01*
X137736896Y-116264041D01*
X137647739Y-116356836D01*
X137579834Y-116385412D01*
X137560822Y-116381563D01*
X137527441Y-116361179D01*
X137522446Y-116323358D01*
X137547407Y-116248932D01*
X137577441Y-116178676D01*
X137637831Y-116059951D01*
X137725321Y-115910583D01*
X137812564Y-115775441D01*
X138205882Y-115775441D01*
X138224558Y-115794117D01*
X138243235Y-115775441D01*
X138224558Y-115756764D01*
X138205882Y-115775441D01*
X137812564Y-115775441D01*
X137822551Y-115759971D01*
X137837597Y-115738088D01*
X137941125Y-115587603D01*
X138065437Y-115404805D01*
X138190156Y-115219725D01*
X138243152Y-115140441D01*
X138338843Y-114997881D01*
X138422159Y-114875735D01*
X138482646Y-114789214D01*
X138506841Y-114756734D01*
X138560881Y-114667882D01*
X138612356Y-114546780D01*
X138647135Y-114429966D01*
X138654117Y-114375905D01*
X138673364Y-114314358D01*
X138700808Y-114299428D01*
X138727150Y-114290882D01*
X138699224Y-114268229D01*
X138667238Y-114213028D01*
X138654126Y-114119693D01*
X138654237Y-114110051D01*
X138653476Y-113892943D01*
X138641025Y-113694131D01*
X138618736Y-113529029D01*
X138588464Y-113413053D01*
X138565422Y-113371355D01*
X138516792Y-113285912D01*
X138504706Y-113225593D01*
X138491304Y-113130368D01*
X138466922Y-113047543D01*
X138436040Y-112939514D01*
X138413572Y-112815651D01*
X138413091Y-112811655D01*
X138400845Y-112709188D01*
X138382907Y-112561126D01*
X138362738Y-112396015D01*
X138358530Y-112361739D01*
X138342656Y-112215961D01*
X138333822Y-112099831D01*
X138333321Y-112032223D01*
X138335362Y-112023501D01*
X138337743Y-111974219D01*
X138324358Y-111883297D01*
X138318998Y-111858070D01*
X138305866Y-111733379D01*
X138316240Y-111617343D01*
X138318683Y-111607999D01*
X138331826Y-111532067D01*
X138320527Y-111498607D01*
X138319389Y-111498529D01*
X138281577Y-111534448D01*
X138234407Y-111638216D01*
X138179919Y-111803851D01*
X138120156Y-112025372D01*
X138075755Y-112212785D01*
X138034543Y-112384044D01*
X137994500Y-112530759D01*
X137960539Y-112636028D01*
X137939685Y-112680841D01*
X137919047Y-112724070D01*
X137937230Y-112731176D01*
X137958116Y-112759713D01*
X137941561Y-112848316D01*
X137940301Y-112852573D01*
X137907330Y-112973605D01*
X137874774Y-113108567D01*
X137871501Y-113123382D01*
X137845712Y-113238536D01*
X137810573Y-113391423D01*
X137777146Y-113534264D01*
X137744555Y-113675479D01*
X137718139Y-113795975D01*
X137703537Y-113870021D01*
X137703424Y-113870729D01*
X137677295Y-113971861D01*
X137634923Y-114079698D01*
X137587451Y-114170724D01*
X137546019Y-114221421D01*
X137535435Y-114225294D01*
X137500146Y-114255317D01*
X137496176Y-114278612D01*
X137469478Y-114339448D01*
X137412132Y-114401016D01*
X137335065Y-114477533D01*
X137251708Y-114578574D01*
X137236219Y-114599830D01*
X137121134Y-114750150D01*
X136986504Y-114907012D01*
X136844434Y-115058302D01*
X136707030Y-115191910D01*
X136586397Y-115295725D01*
X136494640Y-115357636D01*
X136468369Y-115368047D01*
X136361674Y-115365361D01*
X136287016Y-115308189D01*
X136263529Y-115225710D01*
X136273876Y-115153476D01*
X136300954Y-115035947D01*
X136337500Y-114903445D01*
X136382397Y-114714383D01*
X136412781Y-114508988D01*
X136426957Y-114309814D01*
X136423234Y-114139417D01*
X136403139Y-114029191D01*
X136371835Y-113955716D01*
X136347251Y-113926470D01*
X136309111Y-113952712D01*
X136246759Y-114016052D01*
X136180257Y-114093414D01*
X136129663Y-114161721D01*
X136114117Y-114194668D01*
X136082400Y-114218806D01*
X136030073Y-114225866D01*
X135976772Y-114232779D01*
X135992416Y-114255715D01*
X135997767Y-114259204D01*
X136025272Y-114290912D01*
X135988090Y-114324637D01*
X135975835Y-114331396D01*
X135904897Y-114397572D01*
X135832607Y-114512049D01*
X135764030Y-114658854D01*
X135704227Y-114822016D01*
X135658261Y-114985560D01*
X135631193Y-115133514D01*
X135628086Y-115249905D01*
X135654003Y-115318762D01*
X135661159Y-115324286D01*
X135694431Y-115378597D01*
X135703235Y-115436895D01*
X135726115Y-115525592D01*
X135759264Y-115570000D01*
X135816103Y-115640384D01*
X135803920Y-115691632D01*
X135727616Y-115715395D01*
X135674179Y-115714935D01*
X135569721Y-115715300D01*
X135494738Y-115729345D01*
X135487151Y-115733123D01*
X135437541Y-115730264D01*
X135417458Y-115699532D01*
X135354030Y-115595671D01*
X135251525Y-115487371D01*
X135131274Y-115392021D01*
X135014610Y-115327010D01*
X134937804Y-115308529D01*
X134876369Y-115334708D01*
X134843536Y-115365259D01*
X134827665Y-115433894D01*
X134875960Y-115511241D01*
X134980139Y-115587786D01*
X135077573Y-115634083D01*
X135175184Y-115685915D01*
X135214580Y-115746609D01*
X135217647Y-115777292D01*
X135203260Y-115854771D01*
X135180294Y-115887500D01*
X135154079Y-115937577D01*
X135142397Y-116026615D01*
X135142369Y-116029778D01*
X135131157Y-116156295D01*
X135090471Y-116221285D01*
X135007423Y-116234178D01*
X134894283Y-116211322D01*
X134752828Y-116167427D01*
X134673561Y-116122848D01*
X134644670Y-116066636D01*
X134654127Y-115988671D01*
X134700629Y-115905388D01*
X134782390Y-115875567D01*
X134883816Y-115863635D01*
X134772724Y-115759859D01*
X134674895Y-115639062D01*
X134630419Y-115500100D01*
X134635197Y-115325366D01*
X134650937Y-115236919D01*
X134695076Y-115076682D01*
X134752450Y-114979664D01*
X134831657Y-114943757D01*
X134941298Y-114966852D01*
X135089971Y-115046841D01*
X135180833Y-115106961D01*
X135286157Y-115177284D01*
X135342808Y-115206999D01*
X135362319Y-115199731D01*
X135357083Y-115162357D01*
X135358603Y-115085679D01*
X135382904Y-114961327D01*
X135423666Y-114810432D01*
X135474569Y-114654126D01*
X135529294Y-114513539D01*
X135581521Y-114409803D01*
X135582712Y-114407909D01*
X135636756Y-114336409D01*
X135728177Y-114229243D01*
X135841806Y-114103849D01*
X135910186Y-114031437D01*
X136032664Y-113900564D01*
X136144532Y-113775321D01*
X136229272Y-113674454D01*
X136257751Y-113636985D01*
X136334991Y-113551183D01*
X136421044Y-113518145D01*
X136467176Y-113515588D01*
X136535308Y-113510197D01*
X136585264Y-113484077D01*
X136632255Y-113422307D01*
X136691492Y-113309964D01*
X136705161Y-113282132D01*
X136783981Y-113113534D01*
X136866480Y-112925794D01*
X136914908Y-112808858D01*
X136972752Y-112676141D01*
X137030265Y-112564198D01*
X137072375Y-112500696D01*
X137105019Y-112450217D01*
X137094427Y-112432353D01*
X137036500Y-112451942D01*
X136928503Y-112506037D01*
X136782474Y-112587632D01*
X136610453Y-112689719D01*
X136424479Y-112805291D01*
X136236591Y-112927340D01*
X136187497Y-112960223D01*
X136050523Y-113051001D01*
X135938717Y-113122033D01*
X135864888Y-113165380D01*
X135841587Y-113174578D01*
X135819595Y-113135068D01*
X135787279Y-113077198D01*
X135749765Y-112977104D01*
X135739757Y-112909109D01*
X135738927Y-112824558D01*
X135667606Y-112917383D01*
X135610160Y-112972836D01*
X135567541Y-112981420D01*
X135565716Y-112979865D01*
X135551751Y-112933970D01*
X135533159Y-112827099D01*
X135511868Y-112672693D01*
X135489806Y-112484194D01*
X135477373Y-112364099D01*
X135419599Y-111778676D01*
X135346638Y-111899837D01*
X135287880Y-111978704D01*
X135235397Y-112019635D01*
X135226985Y-112021234D01*
X135183531Y-112040548D01*
X135180294Y-112051537D01*
X135155809Y-112089264D01*
X135089675Y-112167456D01*
X134992875Y-112273558D01*
X134909485Y-112361085D01*
X134701975Y-112576960D01*
X134540884Y-112749969D01*
X134419339Y-112889603D01*
X134330469Y-113005353D01*
X134267403Y-113106711D01*
X134223268Y-113203166D01*
X134191194Y-113304211D01*
X134173333Y-113377854D01*
X134156605Y-113481403D01*
X134160232Y-113579475D01*
X134187310Y-113699564D01*
X134222302Y-113812759D01*
X134260059Y-113942802D01*
X134280574Y-114043342D01*
X134280193Y-114095569D01*
X134277776Y-114098296D01*
X134253613Y-114146597D01*
X134246470Y-114208822D01*
X134232729Y-114277947D01*
X134207174Y-114300000D01*
X134168608Y-114331434D01*
X134130526Y-114407155D01*
X134130103Y-114408361D01*
X134091930Y-114481966D01*
X134027824Y-114517785D01*
X133943131Y-114530950D01*
X133806984Y-114529851D01*
X133679599Y-114505487D01*
X133584192Y-114464247D01*
X133545872Y-114421626D01*
X133565435Y-114377082D01*
X133632548Y-114336440D01*
X133734404Y-114297714D01*
X133661655Y-114214813D01*
X133596870Y-114126490D01*
X133528968Y-114013271D01*
X133516144Y-113988860D01*
X133447217Y-113888387D01*
X133340806Y-113797522D01*
X133200588Y-113712221D01*
X132946846Y-113560414D01*
X132761389Y-113420381D01*
X132639622Y-113287485D01*
X132576951Y-113157087D01*
X132565727Y-113071488D01*
X132570666Y-113019383D01*
X132598306Y-112996257D01*
X132667564Y-112995307D01*
X132752353Y-113004360D01*
X132878756Y-113011720D01*
X132935654Y-112995139D01*
X132924493Y-112954058D01*
X132913454Y-112942082D01*
X132886602Y-112885916D01*
X132879450Y-112851812D01*
X132839352Y-112655571D01*
X132791396Y-112507058D01*
X132753840Y-112369308D01*
X132725337Y-112183708D01*
X132707053Y-111973057D01*
X132700154Y-111760157D01*
X132705806Y-111567808D01*
X132725175Y-111418810D01*
X132734029Y-111385357D01*
X132762235Y-111340978D01*
X132819090Y-111328174D01*
X132920606Y-111345798D01*
X132996169Y-111366550D01*
X133032025Y-111403530D01*
X133086884Y-111488548D01*
X133139931Y-111586035D01*
X133220018Y-111736286D01*
X133276734Y-111818534D01*
X133315006Y-111833918D01*
X133339760Y-111783574D01*
X133355924Y-111668640D01*
X133358678Y-111636529D01*
X133392876Y-111430872D01*
X133463622Y-111264837D01*
X133475875Y-111244757D01*
X133533280Y-111146307D01*
X133568664Y-111071145D01*
X133574117Y-111049523D01*
X133600215Y-110985783D01*
X133673605Y-110879205D01*
X133786931Y-110737890D01*
X133932836Y-110569937D01*
X134103964Y-110383446D01*
X134292958Y-110186516D01*
X134492463Y-109987248D01*
X134695122Y-109793740D01*
X134811683Y-109686911D01*
X134937680Y-109565832D01*
X135061011Y-109435010D01*
X135146320Y-109333582D01*
X135278712Y-109164126D01*
X135378569Y-109047461D01*
X135455801Y-108974900D01*
X135520315Y-108937756D01*
X135582022Y-108927343D01*
X135608151Y-108928717D01*
X135666134Y-108937040D01*
X135701370Y-108958815D01*
X135721365Y-109010356D01*
X135733624Y-109107978D01*
X135742168Y-109220000D01*
X135748002Y-109376363D01*
X135744032Y-109520213D01*
X135731133Y-109621146D01*
X135730593Y-109623286D01*
X135711095Y-109750566D01*
X135710336Y-109866080D01*
X135717199Y-109914795D01*
X135730980Y-109933834D01*
X135759249Y-109916389D01*
X135809579Y-109855650D01*
X135889540Y-109744810D01*
X135964706Y-109637343D01*
X136068743Y-109488869D01*
X136162872Y-109355997D01*
X136235488Y-109255026D01*
X136270592Y-109207784D01*
X136333684Y-109126617D01*
X136419701Y-109211396D01*
X136505718Y-109296175D01*
X136396179Y-109491039D01*
X136318638Y-109624279D01*
X136239518Y-109752989D01*
X136199970Y-109813620D01*
X136149879Y-109896397D01*
X136128555Y-109950275D01*
X136130027Y-109958066D01*
X136163330Y-109943038D01*
X136240324Y-109891866D01*
X136346672Y-109815457D01*
X136468034Y-109724715D01*
X136590073Y-109630548D01*
X136698451Y-109543859D01*
X136778829Y-109475555D01*
X136816870Y-109436542D01*
X136817627Y-109435077D01*
X136854157Y-109399807D01*
X136937706Y-109336002D01*
X137051955Y-109254748D01*
X137180590Y-109167128D01*
X137307292Y-109084227D01*
X137415746Y-109017131D01*
X137489634Y-108976922D01*
X137496176Y-108974116D01*
X137628144Y-108923116D01*
X137713179Y-108899923D01*
X137772853Y-108902550D01*
X137828741Y-108929010D01*
X137848552Y-108941664D01*
X137917588Y-109008990D01*
X137928913Y-109066171D01*
X137882777Y-109232709D01*
X137845096Y-109380628D01*
X137820992Y-109489236D01*
X137815346Y-109525045D01*
X137787083Y-109605615D01*
X137759854Y-109646899D01*
X137719510Y-109726890D01*
X137697022Y-109821301D01*
X137671701Y-109923006D01*
X137622717Y-110050140D01*
X137594059Y-110110330D01*
X137521420Y-110257027D01*
X137447371Y-110414651D01*
X137426100Y-110461985D01*
X137363572Y-110579608D01*
X137314299Y-110629702D01*
X137282239Y-110618862D01*
X137271348Y-110553685D01*
X137285585Y-110440766D01*
X137326017Y-110295202D01*
X137364790Y-110168310D01*
X137394535Y-110050510D01*
X137399549Y-110025258D01*
X137423450Y-109920618D01*
X137459899Y-109790042D01*
X137473868Y-109745111D01*
X137529428Y-109563513D01*
X137571113Y-109409646D01*
X137595674Y-109296881D01*
X137599865Y-109238589D01*
X137597859Y-109234526D01*
X137562000Y-109246574D01*
X137480298Y-109292296D01*
X137368291Y-109362781D01*
X137330169Y-109388049D01*
X136777767Y-109800738D01*
X136253442Y-110277818D01*
X135828171Y-110737651D01*
X135733565Y-110837753D01*
X135648285Y-110909643D01*
X135590346Y-110938205D01*
X135589156Y-110938235D01*
X135523421Y-110969394D01*
X135498889Y-111009490D01*
X135451085Y-111087818D01*
X135390410Y-111099568D01*
X135335094Y-111043471D01*
X135325325Y-111021566D01*
X135305791Y-110919158D01*
X135311981Y-110769935D01*
X135327074Y-110658088D01*
X135362708Y-110419521D01*
X135388202Y-110214333D01*
X135407035Y-110009131D01*
X135422687Y-109770519D01*
X135426301Y-109705588D01*
X135445584Y-109350735D01*
X135359630Y-109466724D01*
X135309204Y-109525481D01*
X135214133Y-109627702D01*
X135083029Y-109764459D01*
X134924506Y-109926827D01*
X134747176Y-110105878D01*
X134631468Y-110221447D01*
X134363265Y-110492872D01*
X134146772Y-110723410D01*
X133976540Y-110920274D01*
X133847123Y-111090679D01*
X133753071Y-111241840D01*
X133688935Y-111380971D01*
X133649269Y-111515288D01*
X133647257Y-111524750D01*
X133632591Y-111642173D01*
X133625701Y-111803333D01*
X133625749Y-111993711D01*
X133631899Y-112198789D01*
X133643314Y-112404049D01*
X133659158Y-112594972D01*
X133678593Y-112757039D01*
X133700784Y-112875733D01*
X133724892Y-112936534D01*
X133728813Y-112939883D01*
X133758900Y-112990583D01*
X133754426Y-113056878D01*
X133720843Y-113101259D01*
X133704853Y-113104706D01*
X133655144Y-113124875D01*
X133648823Y-113142058D01*
X133617001Y-113170645D01*
X133559972Y-113179411D01*
X133484110Y-113146641D01*
X133421730Y-113066477D01*
X133390029Y-112966139D01*
X133391730Y-112913098D01*
X133386623Y-112825628D01*
X133353736Y-112689519D01*
X133299291Y-112522648D01*
X133229509Y-112342894D01*
X133150612Y-112168139D01*
X133095959Y-112063127D01*
X133053439Y-112015863D01*
X133021983Y-112035228D01*
X133006691Y-112113385D01*
X133008260Y-112197858D01*
X133060392Y-112482673D01*
X133171581Y-112784450D01*
X133308955Y-113042645D01*
X133381919Y-113169076D01*
X133435997Y-113276544D01*
X133461314Y-113345084D01*
X133462058Y-113352154D01*
X133484895Y-113393855D01*
X133519704Y-113389401D01*
X133584234Y-113394647D01*
X133679186Y-113433812D01*
X133720648Y-113457740D01*
X133863945Y-113548199D01*
X133888086Y-113366222D01*
X133949652Y-113138102D01*
X134076534Y-112900095D01*
X134271442Y-112647513D01*
X134358529Y-112552380D01*
X134478196Y-112425401D01*
X134589513Y-112305366D01*
X134674407Y-112211835D01*
X134696932Y-112186208D01*
X134787044Y-112090609D01*
X134877569Y-112007154D01*
X134884176Y-112001761D01*
X135022067Y-111864752D01*
X135165200Y-111677228D01*
X135298258Y-111460498D01*
X135360072Y-111339779D01*
X135424959Y-111209401D01*
X135473970Y-111133526D01*
X135520169Y-111097786D01*
X135576625Y-111087814D01*
X135589355Y-111087647D01*
X135675841Y-111099706D01*
X135722882Y-111126571D01*
X135730928Y-111175587D01*
X135737527Y-111285673D01*
X135742212Y-111443198D01*
X135744520Y-111634533D01*
X135744563Y-111761571D01*
X135744517Y-111963080D01*
X135745922Y-112135470D01*
X135748560Y-112266224D01*
X135752210Y-112342824D01*
X135754984Y-112357647D01*
X135781663Y-112329806D01*
X135835485Y-112258812D01*
X135872302Y-112206823D01*
X135947379Y-112113533D01*
X135998860Y-112086256D01*
X136015588Y-112094764D01*
X136084414Y-112128713D01*
X136121588Y-112133529D01*
X136169394Y-112165703D01*
X136189620Y-112251176D01*
X136181119Y-112373376D01*
X136147151Y-112503391D01*
X136120779Y-112602180D01*
X136134474Y-112638657D01*
X136190967Y-112614514D01*
X136251084Y-112567827D01*
X136332321Y-112510313D01*
X136454687Y-112436213D01*
X136600936Y-112354547D01*
X136753821Y-112274338D01*
X136896096Y-112204605D01*
X137010514Y-112154368D01*
X137079830Y-112132649D01*
X137083590Y-112132393D01*
X137117677Y-112125301D01*
X137086400Y-112099364D01*
X137075955Y-112093184D01*
X137020171Y-112034983D01*
X137024949Y-111956463D01*
X137092144Y-111852438D01*
X137203309Y-111736689D01*
X137354815Y-111592387D01*
X137457791Y-111490689D01*
X137518863Y-111423809D01*
X137544655Y-111383965D01*
X137541791Y-111363371D01*
X137526941Y-111356413D01*
X137433377Y-111329102D01*
X137400197Y-111306685D01*
X137415300Y-111275967D01*
X137434703Y-111255842D01*
X137507191Y-111209313D01*
X137549537Y-111199706D01*
X137600988Y-111184180D01*
X137608235Y-111169856D01*
X137640462Y-111137764D01*
X137719518Y-111100812D01*
X137818963Y-111068731D01*
X137912359Y-111051249D01*
X137933151Y-111050294D01*
X138019437Y-111076388D01*
X138056933Y-111106880D01*
X138066982Y-111134243D01*
X138053986Y-111174285D01*
X138011803Y-111234515D01*
X137934289Y-111322445D01*
X137815302Y-111445582D01*
X137648699Y-111611437D01*
X137625613Y-111634175D01*
X137455980Y-111801435D01*
X137334594Y-111923057D01*
X137256451Y-112005798D01*
X137216547Y-112056413D01*
X137209877Y-112081659D01*
X137231437Y-112088292D01*
X137276221Y-112083068D01*
X137295479Y-112079854D01*
X137401652Y-112070385D01*
X137470350Y-112093649D01*
X137516592Y-112136987D01*
X137561407Y-112200656D01*
X137549250Y-112232648D01*
X137541308Y-112236001D01*
X137512946Y-112264836D01*
X137534470Y-112302751D01*
X137549490Y-112349034D01*
X137504920Y-112398328D01*
X137481191Y-112414692D01*
X137358691Y-112531092D01*
X137234871Y-112719593D01*
X137111255Y-112977643D01*
X137046224Y-113142054D01*
X136936698Y-113396846D01*
X136821430Y-113591553D01*
X136774512Y-113650792D01*
X136631818Y-113813152D01*
X136625100Y-114224672D01*
X136624384Y-114389893D01*
X136627578Y-114523462D01*
X136634069Y-114610322D01*
X136641797Y-114636184D01*
X136668266Y-114604871D01*
X136711410Y-114524341D01*
X136744699Y-114451402D01*
X136805769Y-114334210D01*
X136873391Y-114240193D01*
X136907022Y-114208608D01*
X136951266Y-114167358D01*
X136939620Y-114150588D01*
X136908591Y-114139816D01*
X136934378Y-114096377D01*
X136935882Y-114094558D01*
X137005105Y-114053733D01*
X137093917Y-114038529D01*
X137170595Y-114045225D01*
X137191151Y-114079928D01*
X137179845Y-114141250D01*
X137143911Y-114251526D01*
X137088038Y-114390089D01*
X137027584Y-114519383D01*
X137016788Y-114539913D01*
X137028141Y-114547280D01*
X137079818Y-114517216D01*
X137166319Y-114433346D01*
X137260732Y-114307429D01*
X137344750Y-114167370D01*
X137400066Y-114041074D01*
X137406091Y-114019853D01*
X137444818Y-113924223D01*
X137493025Y-113862291D01*
X137530361Y-113826494D01*
X137505495Y-113815853D01*
X137498044Y-113815599D01*
X137464352Y-113804030D01*
X137488705Y-113769588D01*
X137525246Y-113697673D01*
X137533529Y-113641057D01*
X137546529Y-113566311D01*
X137566213Y-113537150D01*
X137590943Y-113488359D01*
X137598897Y-113420661D01*
X137613462Y-113321900D01*
X137649239Y-113204504D01*
X137656428Y-113186524D01*
X137716518Y-113038852D01*
X137753572Y-112936001D01*
X137775416Y-112854758D01*
X137784501Y-112806582D01*
X137805471Y-112728591D01*
X137825449Y-112694523D01*
X137850746Y-112643551D01*
X137851029Y-112637794D01*
X137858323Y-112584523D01*
X137877450Y-112480710D01*
X137904275Y-112348792D01*
X137904377Y-112348308D01*
X137941390Y-112201437D01*
X137977775Y-112120186D01*
X138016436Y-112095604D01*
X138050681Y-112085831D01*
X138031293Y-112067139D01*
X138012540Y-112013556D01*
X138024690Y-111895515D01*
X138067946Y-111711938D01*
X138142507Y-111461744D01*
X138145664Y-111451838D01*
X138174670Y-111350757D01*
X138186833Y-111286503D01*
X138184105Y-111274411D01*
X138185695Y-111246705D01*
X138198725Y-111218382D01*
X138280588Y-111218382D01*
X138299264Y-111237058D01*
X138317941Y-111218382D01*
X138299264Y-111199706D01*
X138280588Y-111218382D01*
X138198725Y-111218382D01*
X138211613Y-111190367D01*
X138250729Y-111103387D01*
X138266178Y-111050294D01*
X138287803Y-110935702D01*
X138320442Y-110787345D01*
X138358300Y-110629033D01*
X138395579Y-110484574D01*
X138426484Y-110377777D01*
X138437577Y-110346324D01*
X138470271Y-110253188D01*
X138485318Y-110191176D01*
X138498752Y-110115063D01*
X138518235Y-110023088D01*
X138542481Y-109907026D01*
X138558622Y-109817647D01*
X138572018Y-109733600D01*
X138592645Y-109604277D01*
X138615222Y-109462794D01*
X138634070Y-109323553D01*
X138651842Y-109154638D01*
X138667690Y-108970207D01*
X138680762Y-108784420D01*
X138690210Y-108611436D01*
X138695184Y-108465416D01*
X138694834Y-108360517D01*
X138688309Y-108310901D01*
X138684454Y-108309189D01*
X138669213Y-108287730D01*
X138664772Y-108214210D01*
X138665582Y-108193697D01*
X138677674Y-108106865D01*
X138698108Y-108063270D01*
X138702123Y-108062071D01*
X138711684Y-108035310D01*
X138697085Y-107996691D01*
X138673136Y-107923736D01*
X138648991Y-107807579D01*
X138636758Y-107725882D01*
X138578812Y-107418246D01*
X138490009Y-107174706D01*
X138368531Y-106990525D01*
X138344816Y-106965099D01*
X138283353Y-106904232D01*
X138229548Y-106863760D01*
X138170281Y-106843903D01*
X138092436Y-106844882D01*
X137982894Y-106866920D01*
X137828537Y-106910237D01*
X137616249Y-106975055D01*
X137608235Y-106977522D01*
X137440144Y-107026373D01*
X137284128Y-107066614D01*
X137163567Y-107092433D01*
X137122647Y-107098231D01*
X137015806Y-107121142D01*
X136879456Y-107167982D01*
X136786470Y-107208345D01*
X136658226Y-107269919D01*
X136491244Y-107350061D01*
X136314145Y-107435036D01*
X136244853Y-107468277D01*
X136100778Y-107538865D01*
X135983557Y-107599072D01*
X135908632Y-107640813D01*
X135890000Y-107654111D01*
X135847575Y-107684312D01*
X135762773Y-107731399D01*
X135721911Y-107752025D01*
X135584809Y-107821472D01*
X135439707Y-107898421D01*
X135303032Y-107973723D01*
X135191213Y-108038228D01*
X135120681Y-108082786D01*
X135105588Y-108095274D01*
X135067346Y-108124059D01*
X134979884Y-108181284D01*
X134858233Y-108257275D01*
X134778750Y-108305644D01*
X134646630Y-108388035D01*
X134542837Y-108457958D01*
X134481355Y-108505705D01*
X134470588Y-108519548D01*
X134441801Y-108546774D01*
X134432361Y-108547647D01*
X134386620Y-108567953D01*
X134296303Y-108622319D01*
X134177290Y-108700919D01*
X134115511Y-108743750D01*
X133974125Y-108843169D01*
X133840830Y-108936739D01*
X133738321Y-109008535D01*
X133714841Y-109024926D01*
X133462700Y-109217786D01*
X133217771Y-109433501D01*
X133117248Y-109521996D01*
X133020848Y-109597826D01*
X132995784Y-109615223D01*
X132928475Y-109674205D01*
X132901764Y-109725849D01*
X132874710Y-109781260D01*
X132809327Y-109847560D01*
X132806457Y-109849841D01*
X132742722Y-109904253D01*
X132716086Y-109935613D01*
X132716210Y-109936596D01*
X132705730Y-109978950D01*
X132668202Y-110082166D01*
X132606612Y-110238707D01*
X132523950Y-110441034D01*
X132423201Y-110681607D01*
X132389171Y-110761816D01*
X132316553Y-110935367D01*
X132271466Y-111053535D01*
X132250764Y-111129054D01*
X132251302Y-111174659D01*
X132269933Y-111203082D01*
X132278433Y-111210052D01*
X132325701Y-111278126D01*
X132320527Y-111349441D01*
X132269835Y-111396212D01*
X132230658Y-111401759D01*
X132176749Y-111406982D01*
X132160142Y-111442581D01*
X132171566Y-111529277D01*
X132172171Y-111532495D01*
X132188029Y-111641907D01*
X132203610Y-111790389D01*
X132213656Y-111918750D01*
X132220985Y-112052146D01*
X132218045Y-112127553D01*
X132199758Y-112161505D01*
X132161047Y-112170540D01*
X132136239Y-112170882D01*
X132065394Y-112161271D01*
X132041404Y-112142867D01*
X132018799Y-112096983D01*
X131966339Y-112026227D01*
X131892517Y-111937602D01*
X131819066Y-112030980D01*
X131753870Y-112095746D01*
X131646325Y-112184381D01*
X131516879Y-112280289D01*
X131482503Y-112304134D01*
X131364694Y-112388002D01*
X131276681Y-112457138D01*
X131232130Y-112500528D01*
X131229475Y-112508065D01*
X131260757Y-112542744D01*
X131333814Y-112611651D01*
X131433535Y-112700586D01*
X131445000Y-112710562D01*
X131688473Y-112922512D01*
X131886560Y-113097098D01*
X132050657Y-113245502D01*
X132192164Y-113378902D01*
X132322479Y-113508476D01*
X132453001Y-113645405D01*
X132595129Y-113800868D01*
X132760260Y-113986043D01*
X132856154Y-114094558D01*
X132918464Y-114169975D01*
X132998923Y-114273268D01*
X133033093Y-114318676D01*
X133107277Y-114412130D01*
X133170061Y-114480420D01*
X133191029Y-114497959D01*
X133222924Y-114550885D01*
X133237971Y-114640265D01*
X133236734Y-114739374D01*
X133219776Y-114821489D01*
X133187661Y-114859886D01*
X133183384Y-114860294D01*
X133115803Y-114833743D01*
X133080663Y-114801915D01*
X133001936Y-114713555D01*
X132887241Y-114593153D01*
X132754983Y-114459159D01*
X132623567Y-114330021D01*
X132511397Y-114224185D01*
X132453529Y-114173302D01*
X132183848Y-113967508D01*
X131882978Y-113766827D01*
X131569953Y-113582210D01*
X131263809Y-113424606D01*
X130983578Y-113304968D01*
X130884706Y-113270735D01*
X130766140Y-113230605D01*
X130675699Y-113195627D01*
X130641911Y-113178840D01*
X130591585Y-113163666D01*
X130490444Y-113144670D01*
X130362027Y-113125269D01*
X130229873Y-113108882D01*
X130117523Y-113098927D01*
X130081617Y-113097482D01*
X129974931Y-113101444D01*
X129826933Y-113113783D01*
X129662107Y-113131650D01*
X129504932Y-113152197D01*
X129379892Y-113172577D01*
X129322878Y-113185741D01*
X129226219Y-113205336D01*
X129158878Y-113184240D01*
X129126775Y-113158615D01*
X129065413Y-113087987D01*
X129069033Y-113029541D01*
X129132256Y-112964266D01*
X129217711Y-112892573D01*
X129309682Y-112814995D01*
X129397372Y-112750609D01*
X129473105Y-112710293D01*
X129475836Y-112709375D01*
X129595699Y-112636279D01*
X129715935Y-112498088D01*
X129815057Y-112330874D01*
X129868017Y-112222927D01*
X129903763Y-112144042D01*
X129913529Y-112116094D01*
X129887331Y-112094926D01*
X129829675Y-112106598D01*
X129771964Y-112143591D01*
X129764459Y-112151794D01*
X129713252Y-112189622D01*
X129688369Y-112188914D01*
X129649253Y-112193090D01*
X129645911Y-112198664D01*
X129604103Y-112227138D01*
X129512382Y-112265743D01*
X129393343Y-112307291D01*
X129269582Y-112344592D01*
X129163693Y-112370457D01*
X129098272Y-112377697D01*
X129090328Y-112375436D01*
X129064584Y-112325698D01*
X129054411Y-112242124D01*
X129070852Y-112155507D01*
X129132243Y-112088228D01*
X129185147Y-112053874D01*
X129267125Y-112000090D01*
X129312600Y-111959736D01*
X129315859Y-111952413D01*
X129281050Y-111942970D01*
X129186806Y-111936200D01*
X129048375Y-111932834D01*
X128914315Y-111933108D01*
X128689191Y-111929682D01*
X128435600Y-111916209D01*
X128196976Y-111895264D01*
X128120588Y-111886058D01*
X127926514Y-111861719D01*
X127731061Y-111839596D01*
X127564036Y-111822967D01*
X127497488Y-111817521D01*
X127266593Y-111801054D01*
X127240711Y-111920600D01*
X127201992Y-112033284D01*
X127142612Y-112139783D01*
X127077351Y-112217890D01*
X127024434Y-112245588D01*
X126958090Y-112214107D01*
X126885837Y-112136354D01*
X126824044Y-112037365D01*
X126789082Y-111942175D01*
X126790510Y-111887816D01*
X126790680Y-111848438D01*
X126743131Y-111836288D01*
X126637457Y-111849612D01*
X126603125Y-111856237D01*
X126495735Y-111877769D01*
X126490279Y-112369840D01*
X126472991Y-112762137D01*
X126429317Y-113094650D01*
X126357388Y-113378165D01*
X126282335Y-113568227D01*
X126088755Y-113971518D01*
X125899430Y-114342265D01*
X125719265Y-114671589D01*
X125553166Y-114950609D01*
X125406039Y-115170444D01*
X125371860Y-115216339D01*
X125164960Y-115477447D01*
X124986380Y-115680769D01*
X124827863Y-115833661D01*
X124681156Y-115943477D01*
X124538005Y-116017573D01*
X124433220Y-116052741D01*
X124331790Y-116086528D01*
X124264531Y-116120886D01*
X124253931Y-116131309D01*
X124205721Y-116153860D01*
X124112026Y-116166595D01*
X124073758Y-116167647D01*
X123988819Y-116162512D01*
X123919163Y-116139491D01*
X123845302Y-116087157D01*
X123747748Y-115994086D01*
X123707404Y-115952867D01*
X123483722Y-115676949D01*
X123329361Y-115383164D01*
X123245812Y-115076167D01*
X123235831Y-114796096D01*
X123534555Y-114796096D01*
X123539797Y-114918480D01*
X123543993Y-114970661D01*
X123559289Y-115116366D01*
X123577328Y-115241755D01*
X123594216Y-115319780D01*
X123594282Y-115319979D01*
X123614051Y-115423390D01*
X123616857Y-115500441D01*
X123643046Y-115603803D01*
X123686385Y-115649853D01*
X123762523Y-115708249D01*
X123856736Y-115788193D01*
X123876862Y-115806237D01*
X123968800Y-115875866D01*
X124058439Y-115899436D01*
X124149610Y-115895120D01*
X124275766Y-115864188D01*
X124416425Y-115804818D01*
X124476376Y-115770942D01*
X124586971Y-115690803D01*
X124627461Y-115633151D01*
X124598260Y-115595815D01*
X124564479Y-115588676D01*
X124721470Y-115588676D01*
X124740147Y-115607353D01*
X124758823Y-115588676D01*
X124740147Y-115570000D01*
X124721470Y-115588676D01*
X124564479Y-115588676D01*
X124513148Y-115577828D01*
X124381617Y-115553067D01*
X124273262Y-115511896D01*
X124208367Y-115463342D01*
X124198529Y-115437845D01*
X124174220Y-115384536D01*
X124160806Y-115376886D01*
X124128971Y-115331117D01*
X124102229Y-115227852D01*
X124081875Y-115084203D01*
X124069204Y-114917283D01*
X124065514Y-114744205D01*
X124072100Y-114582082D01*
X124090257Y-114448026D01*
X124090410Y-114447311D01*
X124109948Y-114356029D01*
X124161176Y-114356029D01*
X124179853Y-114374706D01*
X124198529Y-114356029D01*
X124179853Y-114337353D01*
X124161176Y-114356029D01*
X124109948Y-114356029D01*
X124115494Y-114330118D01*
X124134510Y-114240857D01*
X124140419Y-114212855D01*
X124197667Y-113990493D01*
X124276281Y-113757614D01*
X124368261Y-113532939D01*
X124465608Y-113335186D01*
X124560323Y-113183076D01*
X124602264Y-113132027D01*
X124699423Y-113028613D01*
X124746476Y-113113350D01*
X124784943Y-113199831D01*
X124786223Y-113275793D01*
X124746767Y-113367912D01*
X124702952Y-113440631D01*
X124606514Y-113621167D01*
X124520016Y-113831870D01*
X124473083Y-113982500D01*
X124441511Y-114082621D01*
X124422717Y-114131911D01*
X124369951Y-114305145D01*
X124334790Y-114514177D01*
X124318903Y-114733433D01*
X124323957Y-114937343D01*
X124351621Y-115100333D01*
X124358216Y-115120790D01*
X124438836Y-115249901D01*
X124570527Y-115324578D01*
X124724583Y-115345331D01*
X124838337Y-115337677D01*
X124879384Y-115313277D01*
X124847890Y-115271830D01*
X124785842Y-115234136D01*
X124629278Y-115111190D01*
X124567376Y-115009326D01*
X124702914Y-115009326D01*
X124704151Y-115104023D01*
X124759396Y-115171459D01*
X124848937Y-115188935D01*
X124907159Y-115160423D01*
X124926554Y-115084800D01*
X124926911Y-115065735D01*
X124915346Y-114983592D01*
X124867048Y-114949015D01*
X124827397Y-114942166D01*
X124744219Y-114950596D01*
X124702914Y-115009326D01*
X124567376Y-115009326D01*
X124524941Y-114939497D01*
X124472929Y-114723826D01*
X124473340Y-114468945D01*
X124526274Y-114179621D01*
X124631830Y-113860621D01*
X124751824Y-113592108D01*
X124826882Y-113448475D01*
X124886265Y-113359186D01*
X124942250Y-113309304D01*
X125004655Y-113284511D01*
X125142805Y-113218829D01*
X125231013Y-113101828D01*
X125272540Y-112936562D01*
X125278213Y-112818760D01*
X125255872Y-112739213D01*
X125202755Y-112670442D01*
X125113676Y-112575498D01*
X125225735Y-112484321D01*
X125310955Y-112415052D01*
X125375825Y-112362445D01*
X125382908Y-112356719D01*
X125456759Y-112323199D01*
X125481055Y-112320294D01*
X125547948Y-112293875D01*
X125580588Y-112264264D01*
X125653024Y-112219593D01*
X125715897Y-112208235D01*
X125788232Y-112184934D01*
X125801077Y-112127734D01*
X125764764Y-112071176D01*
X125725078Y-112001255D01*
X125714732Y-111960985D01*
X125674685Y-111895619D01*
X125587271Y-111876018D01*
X125463415Y-111901223D01*
X125314041Y-111970273D01*
X125264069Y-112000554D01*
X125152893Y-112068580D01*
X125065309Y-112116520D01*
X125022072Y-112133529D01*
X124974958Y-112160509D01*
X124890341Y-112234237D01*
X124778336Y-112343896D01*
X124649056Y-112478671D01*
X124512614Y-112627745D01*
X124379125Y-112780301D01*
X124258702Y-112925523D01*
X124161458Y-113052594D01*
X124157271Y-113058437D01*
X124065146Y-113188931D01*
X123991952Y-113295270D01*
X123946908Y-113363904D01*
X123937058Y-113382179D01*
X123923070Y-113421921D01*
X123887166Y-113507620D01*
X123856240Y-113577859D01*
X123811799Y-113684410D01*
X123785226Y-113762443D01*
X123781534Y-113786397D01*
X123761868Y-113814321D01*
X123759632Y-113814411D01*
X123737948Y-113846733D01*
X123727391Y-113917132D01*
X123714007Y-114034284D01*
X123697193Y-114113235D01*
X123671739Y-114207403D01*
X123657586Y-114262647D01*
X123641865Y-114312186D01*
X123637091Y-114318676D01*
X123629431Y-114351135D01*
X123620537Y-114429341D01*
X123620415Y-114430735D01*
X123610724Y-114516172D01*
X123601606Y-114561470D01*
X123597358Y-114609218D01*
X123599970Y-114668387D01*
X123592875Y-114730276D01*
X123564166Y-114729952D01*
X123542437Y-114736124D01*
X123534555Y-114796096D01*
X123235831Y-114796096D01*
X123234566Y-114760613D01*
X123263482Y-114567576D01*
X123335865Y-114248478D01*
X123336980Y-114243970D01*
X123451470Y-114243970D01*
X123470147Y-114262647D01*
X123488823Y-114243970D01*
X123470147Y-114225294D01*
X123451470Y-114243970D01*
X123336980Y-114243970D01*
X123400430Y-113987434D01*
X123461363Y-113768763D01*
X123522851Y-113576784D01*
X123544347Y-113515588D01*
X123597405Y-113365230D01*
X123644437Y-113227484D01*
X123676241Y-113129367D01*
X123678786Y-113120902D01*
X123722203Y-113024455D01*
X123804198Y-112885583D01*
X123914880Y-112718710D01*
X124044358Y-112538260D01*
X124182741Y-112358657D01*
X124291911Y-112226789D01*
X124442560Y-112067636D01*
X124622855Y-111901819D01*
X124763029Y-111786515D01*
X125922419Y-111786515D01*
X125933593Y-111829111D01*
X125940420Y-111829665D01*
X125987292Y-111806127D01*
X126080734Y-111757262D01*
X126201528Y-111693133D01*
X126215588Y-111685617D01*
X126315018Y-111633496D01*
X126395944Y-111597586D01*
X126475770Y-111574848D01*
X126571901Y-111562242D01*
X126701741Y-111556728D01*
X126882694Y-111555267D01*
X126962647Y-111555150D01*
X127351226Y-111560737D01*
X127767800Y-111577213D01*
X128179950Y-111602870D01*
X128555258Y-111636001D01*
X128610296Y-111641945D01*
X128769281Y-111651642D01*
X128964497Y-111652230D01*
X129158033Y-111643749D01*
X129189267Y-111641305D01*
X129381825Y-111626992D01*
X129585598Y-111614992D01*
X129760862Y-111607600D01*
X129782794Y-111607017D01*
X129924905Y-111598869D01*
X130044333Y-111583502D01*
X130114120Y-111564644D01*
X130204149Y-111549003D01*
X130362477Y-111559358D01*
X130468973Y-111574635D01*
X130670617Y-111599123D01*
X130832054Y-111597773D01*
X130940260Y-111580989D01*
X131048993Y-111561028D01*
X131123397Y-111553531D01*
X131141686Y-111556294D01*
X131136596Y-111593748D01*
X131092557Y-111643358D01*
X131035275Y-111679854D01*
X131010460Y-111685294D01*
X130946778Y-111699893D01*
X130846714Y-111736714D01*
X130800254Y-111756735D01*
X130669267Y-111811560D01*
X130539919Y-111859292D01*
X130511176Y-111868621D01*
X130415095Y-111915277D01*
X130338679Y-111999388D01*
X130287972Y-112086665D01*
X130232560Y-112189521D01*
X130189912Y-112262268D01*
X130175051Y-112282941D01*
X130136931Y-112331241D01*
X130087162Y-112408279D01*
X130043972Y-112484089D01*
X130025588Y-112528662D01*
X130058778Y-112538323D01*
X130145591Y-112533621D01*
X130266885Y-112517130D01*
X130403521Y-112491423D01*
X130529853Y-112460877D01*
X130632545Y-112427771D01*
X130704244Y-112395975D01*
X130714750Y-112388703D01*
X130783315Y-112359003D01*
X130799131Y-112357647D01*
X130851123Y-112338310D01*
X130944669Y-112287326D01*
X131063662Y-112215233D01*
X131191994Y-112132570D01*
X131313556Y-112049877D01*
X131412240Y-111977691D01*
X131471938Y-111926553D01*
X131482353Y-111910645D01*
X131512830Y-111872550D01*
X131547720Y-111856167D01*
X131615229Y-111805571D01*
X131691984Y-111705950D01*
X131764555Y-111579461D01*
X131819513Y-111448262D01*
X131838449Y-111376492D01*
X131895979Y-111233123D01*
X131966963Y-111152374D01*
X132023054Y-111090608D01*
X132078402Y-110992150D01*
X132138831Y-110844733D01*
X132206230Y-110648217D01*
X132270499Y-110457766D01*
X132337616Y-110271005D01*
X132398588Y-110112368D01*
X132435689Y-110024761D01*
X132492481Y-109898104D01*
X132540630Y-109786414D01*
X132562017Y-109733655D01*
X132631464Y-109651209D01*
X132634880Y-109649558D01*
X132827058Y-109649558D01*
X132845735Y-109668235D01*
X132864411Y-109649558D01*
X132845735Y-109630882D01*
X132827058Y-109649558D01*
X132634880Y-109649558D01*
X132747458Y-109595144D01*
X132836391Y-109559594D01*
X132882280Y-109528832D01*
X132883872Y-109520093D01*
X132897100Y-109479954D01*
X132946556Y-109402469D01*
X133018147Y-109305504D01*
X133097778Y-109206925D01*
X133171353Y-109124598D01*
X133224778Y-109076390D01*
X133238487Y-109070588D01*
X133273949Y-109041910D01*
X133275294Y-109031443D01*
X133304141Y-108977196D01*
X133378223Y-108901039D01*
X133478844Y-108819720D01*
X133587311Y-108749984D01*
X133592794Y-108747000D01*
X133674955Y-108697249D01*
X133723492Y-108657752D01*
X133725061Y-108655582D01*
X133764237Y-108621828D01*
X133849879Y-108560315D01*
X133965177Y-108483002D01*
X133993425Y-108464691D01*
X134241580Y-108304853D01*
X134113836Y-108043382D01*
X134051014Y-107907877D01*
X134012980Y-107798549D01*
X133993652Y-107686870D01*
X133986949Y-107544312D01*
X133986437Y-107445735D01*
X133990732Y-107273616D01*
X134001855Y-107111212D01*
X134017677Y-106986650D01*
X134023195Y-106960147D01*
X134053082Y-106828369D01*
X134078281Y-106702584D01*
X134080689Y-106689012D01*
X134101770Y-106567288D01*
X133939974Y-106676483D01*
X133790113Y-106794266D01*
X133640675Y-106939772D01*
X133510265Y-107092527D01*
X133417488Y-107232059D01*
X133397659Y-107273240D01*
X133365867Y-107397887D01*
X133354876Y-107548022D01*
X133356345Y-107587558D01*
X133350289Y-107735626D01*
X133308172Y-107818309D01*
X133230031Y-107835572D01*
X133131669Y-107796719D01*
X133057922Y-107759431D01*
X133020216Y-107765298D01*
X132992311Y-107815395D01*
X132942341Y-107883499D01*
X132886076Y-107878408D01*
X132825544Y-107801168D01*
X132782681Y-107707206D01*
X132721237Y-107577661D01*
X132648378Y-107461541D01*
X132614889Y-107420743D01*
X132487034Y-107316190D01*
X132312288Y-107212375D01*
X132117357Y-107122857D01*
X131928948Y-107061197D01*
X131889535Y-107052420D01*
X131756483Y-107021836D01*
X131639931Y-106988098D01*
X131594411Y-106971124D01*
X131525587Y-106956361D01*
X131399580Y-106943603D01*
X131230405Y-106933070D01*
X131032076Y-106924985D01*
X130818607Y-106919569D01*
X130604012Y-106917043D01*
X130402304Y-106917630D01*
X130227499Y-106921552D01*
X130093609Y-106929028D01*
X130014650Y-106940282D01*
X130001529Y-106945938D01*
X129939183Y-106958453D01*
X129856704Y-106918838D01*
X129748041Y-106866889D01*
X129650374Y-106842124D01*
X129448197Y-106819304D01*
X129299616Y-106800546D01*
X129183849Y-106782922D01*
X129080114Y-106763505D01*
X129054411Y-106758193D01*
X128999424Y-106745775D01*
X130900906Y-106745775D01*
X130937622Y-106751757D01*
X130986069Y-106744889D01*
X130986471Y-106736029D01*
X131295588Y-106736029D01*
X131314264Y-106754706D01*
X131332941Y-106736029D01*
X131314264Y-106717353D01*
X131295588Y-106736029D01*
X130986471Y-106736029D01*
X130986648Y-106732138D01*
X130936655Y-106723221D01*
X130915055Y-106729189D01*
X130900906Y-106745775D01*
X128999424Y-106745775D01*
X128803434Y-106701514D01*
X128615300Y-106650169D01*
X128495324Y-106605631D01*
X128484220Y-106599997D01*
X128433446Y-106578903D01*
X128422797Y-106604358D01*
X128435932Y-106666033D01*
X128485574Y-106811298D01*
X128567726Y-106996770D01*
X128671326Y-107201973D01*
X128785314Y-107406431D01*
X128898628Y-107589667D01*
X129000208Y-107731203D01*
X129030347Y-107766450D01*
X129183177Y-107899072D01*
X129376922Y-108018922D01*
X129579775Y-108108307D01*
X129706450Y-108142613D01*
X129769754Y-108186633D01*
X129807218Y-108269545D01*
X129806962Y-108356853D01*
X129791177Y-108388641D01*
X129724521Y-108417405D01*
X129604999Y-108410990D01*
X129444433Y-108371577D01*
X129254651Y-108301348D01*
X129207995Y-108281014D01*
X129096628Y-108234227D01*
X129000033Y-108198797D01*
X128929787Y-108177710D01*
X128897463Y-108173953D01*
X128914637Y-108190512D01*
X128970367Y-108219706D01*
X129040685Y-108270000D01*
X129047324Y-108315604D01*
X129007720Y-108339742D01*
X128953866Y-108350604D01*
X128842800Y-108369650D01*
X128691208Y-108394107D01*
X128531470Y-108418828D01*
X128291711Y-108461431D01*
X128091163Y-108514457D01*
X127910421Y-108586818D01*
X127730084Y-108687422D01*
X127530748Y-108825179D01*
X127357539Y-108957898D01*
X127135145Y-109150871D01*
X126908393Y-109379641D01*
X126689867Y-109628836D01*
X126492148Y-109883082D01*
X126327822Y-110127009D01*
X126209470Y-110345242D01*
X126195139Y-110377941D01*
X126137601Y-110520582D01*
X126093426Y-110648556D01*
X126058542Y-110779708D01*
X126028876Y-110931885D01*
X126000355Y-111122934D01*
X125969262Y-111367794D01*
X125951162Y-111513745D01*
X125932845Y-111657050D01*
X125927303Y-111699198D01*
X125922419Y-111786515D01*
X124763029Y-111786515D01*
X124814399Y-111744259D01*
X124998797Y-111609879D01*
X125157653Y-111513603D01*
X125191363Y-111497171D01*
X125287022Y-111451139D01*
X125346619Y-111417737D01*
X125356470Y-111408775D01*
X125335588Y-111331350D01*
X125285252Y-111236913D01*
X125223928Y-111154788D01*
X125171186Y-111114564D01*
X125129079Y-111094219D01*
X125105759Y-111048960D01*
X125095743Y-110960616D01*
X125093676Y-110857688D01*
X125085007Y-110716478D01*
X125063894Y-110593228D01*
X125041441Y-110528787D01*
X125011411Y-110479783D01*
X124989763Y-110474263D01*
X124966808Y-110521566D01*
X124932861Y-110631031D01*
X124931848Y-110634441D01*
X124897561Y-110755152D01*
X124871262Y-110864733D01*
X124847001Y-110991100D01*
X124818829Y-111162172D01*
X124817219Y-111172347D01*
X124826590Y-111274947D01*
X124894484Y-111369323D01*
X124961025Y-111463351D01*
X124969042Y-111543934D01*
X124918838Y-111596536D01*
X124889521Y-111605283D01*
X124808093Y-111646584D01*
X124767540Y-111688177D01*
X124701129Y-111736520D01*
X124655090Y-111730407D01*
X124558751Y-111683521D01*
X124449072Y-111619751D01*
X124345647Y-111551972D01*
X124268073Y-111493060D01*
X124235945Y-111455891D01*
X124235882Y-111454959D01*
X124268512Y-111385955D01*
X124347832Y-111331716D01*
X124438655Y-111311764D01*
X124496734Y-111305614D01*
X124525075Y-111274097D01*
X124534336Y-111197616D01*
X124535149Y-111134338D01*
X124565296Y-110867057D01*
X124651983Y-110570182D01*
X124732210Y-110378163D01*
X124786089Y-110249261D01*
X124799366Y-110165027D01*
X124764143Y-110117129D01*
X124672525Y-110097235D01*
X124516615Y-110097013D01*
X124467657Y-110099010D01*
X124208242Y-110113399D01*
X123971775Y-110131731D01*
X123771370Y-110152649D01*
X123620141Y-110174794D01*
X123534211Y-110195641D01*
X123449978Y-110212568D01*
X123313987Y-110224963D01*
X123149075Y-110232380D01*
X122978079Y-110234371D01*
X122823836Y-110230491D01*
X122709182Y-110220291D01*
X122673257Y-110212494D01*
X122631275Y-110202618D01*
X122619873Y-110217110D01*
X122642319Y-110267357D01*
X122701881Y-110364745D01*
X122729286Y-110407681D01*
X122843992Y-110584539D01*
X122933357Y-110715129D01*
X123010884Y-110816999D01*
X123090076Y-110907694D01*
X123184435Y-111004762D01*
X123202858Y-111023062D01*
X123298273Y-111121992D01*
X123345473Y-111186336D01*
X123352592Y-111230556D01*
X123336045Y-111259792D01*
X123314272Y-111304607D01*
X123335734Y-111354633D01*
X123405833Y-111427198D01*
X123479501Y-111517309D01*
X123500792Y-111592552D01*
X123468644Y-111639276D01*
X123422985Y-111647941D01*
X123358974Y-111626465D01*
X123268151Y-111572666D01*
X123235196Y-111548828D01*
X123159001Y-111497684D01*
X123080772Y-111467019D01*
X122977197Y-111451177D01*
X122824965Y-111444506D01*
X122803263Y-111444071D01*
X122600387Y-111444837D01*
X122402481Y-111456560D01*
X122190088Y-111481504D01*
X121943751Y-111521928D01*
X121658529Y-111577146D01*
X121418174Y-111619706D01*
X121214217Y-111639717D01*
X121012780Y-111639971D01*
X120941302Y-111636208D01*
X120616281Y-111615674D01*
X120678552Y-111753205D01*
X120729556Y-111852983D01*
X120805928Y-111987749D01*
X120892045Y-112130033D01*
X120900853Y-112144032D01*
X120975473Y-112264269D01*
X121031529Y-112358642D01*
X121059423Y-112410865D01*
X121060882Y-112415642D01*
X121080646Y-112459380D01*
X121129325Y-112539236D01*
X121190999Y-112631570D01*
X121249748Y-112712742D01*
X121289653Y-112759113D01*
X121294338Y-112762304D01*
X121321234Y-112805280D01*
X121322353Y-112817797D01*
X121338249Y-112872477D01*
X121379365Y-112969372D01*
X121421882Y-113057556D01*
X121472481Y-113164356D01*
X121502373Y-113241062D01*
X121505926Y-113267617D01*
X121454449Y-113291932D01*
X121383689Y-113307159D01*
X121322919Y-113309645D01*
X121301412Y-113295738D01*
X121302751Y-113292967D01*
X121291016Y-113263624D01*
X121231175Y-113254117D01*
X121159929Y-113241600D01*
X121135588Y-113216764D01*
X121105334Y-113183626D01*
X121079558Y-113179411D01*
X121036018Y-113184766D01*
X121032445Y-113209154D01*
X121073339Y-113265059D01*
X121135550Y-113334801D01*
X121222364Y-113462759D01*
X121239947Y-113557503D01*
X121250532Y-113653759D01*
X121278291Y-113712946D01*
X121303965Y-113761948D01*
X121268186Y-113789851D01*
X121204686Y-113781087D01*
X121115066Y-113732828D01*
X121020825Y-113661945D01*
X120943461Y-113585306D01*
X120904472Y-113519780D01*
X120903632Y-113503795D01*
X120892768Y-113459410D01*
X120864196Y-113461367D01*
X120808630Y-113448857D01*
X120734971Y-113393471D01*
X120718718Y-113376727D01*
X120624869Y-113280292D01*
X120511965Y-113173039D01*
X120398489Y-113071140D01*
X120922052Y-113071140D01*
X120929889Y-113108568D01*
X120932548Y-113115655D01*
X120962139Y-113161395D01*
X120978962Y-113161723D01*
X120974772Y-113122209D01*
X120953458Y-113094745D01*
X120941862Y-113086029D01*
X121322353Y-113086029D01*
X121341029Y-113104706D01*
X121359706Y-113086029D01*
X121341029Y-113067353D01*
X121322353Y-113086029D01*
X120941862Y-113086029D01*
X120922052Y-113071140D01*
X120398489Y-113071140D01*
X120393717Y-113066855D01*
X120283839Y-112973624D01*
X120196042Y-112905233D01*
X120144038Y-112873568D01*
X120137555Y-112872972D01*
X120120143Y-112905306D01*
X120122058Y-112986924D01*
X120144104Y-113125241D01*
X120186672Y-113325850D01*
X120220072Y-113499002D01*
X120247566Y-113686389D01*
X120258597Y-113792762D01*
X120291009Y-114169778D01*
X120327526Y-114509531D01*
X120350499Y-114692206D01*
X120368051Y-114848170D01*
X120386083Y-115046099D01*
X120401744Y-115253327D01*
X120407546Y-115345882D01*
X120421453Y-115575157D01*
X120434509Y-115749909D01*
X120449166Y-115890247D01*
X120467878Y-116016279D01*
X120493100Y-116148116D01*
X120521476Y-116279706D01*
X120570227Y-116502688D01*
X120603624Y-116663417D01*
X120623465Y-116772348D01*
X120631548Y-116839938D01*
X120629668Y-116876643D01*
X120625752Y-116886367D01*
X120635035Y-116913633D01*
X120644141Y-116914706D01*
X120675951Y-116942468D01*
X120710218Y-117006703D01*
X120735756Y-117078831D01*
X120741377Y-117130275D01*
X120732101Y-117139395D01*
X120730550Y-117156076D01*
X120743732Y-117167410D01*
X120784840Y-117213001D01*
X120847415Y-117298453D01*
X120884335Y-117353603D01*
X120945310Y-117444025D01*
X120988621Y-117501518D01*
X121000419Y-117512353D01*
X121027274Y-117484453D01*
X121080003Y-117413887D01*
X121108912Y-117372279D01*
X121199403Y-117247643D01*
X121288686Y-117138554D01*
X121363557Y-117060005D01*
X121410813Y-117026990D01*
X121413154Y-117026764D01*
X121451614Y-117000789D01*
X121514930Y-116936197D01*
X121534142Y-116913973D01*
X121627161Y-116824120D01*
X121746627Y-116734021D01*
X121788575Y-116707694D01*
X121882341Y-116642698D01*
X121954470Y-116562386D01*
X122021971Y-116444932D01*
X122064785Y-116353244D01*
X122121645Y-116215001D01*
X122163174Y-116092909D01*
X122181260Y-116011148D01*
X122181470Y-116005455D01*
X122191272Y-115927010D01*
X122206642Y-115893455D01*
X122219476Y-115876816D01*
X122229940Y-115847028D01*
X122240550Y-115789710D01*
X122253822Y-115690483D01*
X122272273Y-115534966D01*
X122277949Y-115485956D01*
X122295149Y-115370737D01*
X122314211Y-115292783D01*
X122327470Y-115271176D01*
X122341245Y-115237202D01*
X122352340Y-115148799D01*
X122357699Y-115043948D01*
X122370984Y-114878432D01*
X122398796Y-114706470D01*
X122418723Y-114623728D01*
X122463808Y-114460631D01*
X122510386Y-114281674D01*
X122554375Y-114103878D01*
X122591693Y-113944264D01*
X122618256Y-113819853D01*
X122629984Y-113747667D01*
X122630210Y-113741897D01*
X122646565Y-113678784D01*
X122690634Y-113570665D01*
X122753938Y-113434096D01*
X122827999Y-113285634D01*
X122904337Y-113141837D01*
X122974475Y-113019262D01*
X123029932Y-112934466D01*
X123059023Y-112904526D01*
X123108746Y-112861336D01*
X123115294Y-112837721D01*
X123140298Y-112786182D01*
X123203304Y-112709298D01*
X123236691Y-112675318D01*
X123314987Y-112596361D01*
X123425431Y-112480685D01*
X123550190Y-112347095D01*
X123619558Y-112271580D01*
X123732793Y-112152284D01*
X123831369Y-112057205D01*
X123902537Y-111998154D01*
X123929418Y-111984575D01*
X123987307Y-111959708D01*
X124061850Y-111900011D01*
X124066489Y-111895436D01*
X124194472Y-111802527D01*
X124340857Y-111748652D01*
X124476094Y-111744284D01*
X124486393Y-111746598D01*
X124578637Y-111769749D01*
X124435274Y-111898294D01*
X124320348Y-111993187D01*
X124180423Y-112097737D01*
X124095351Y-112156330D01*
X123863642Y-112332600D01*
X123638456Y-112554603D01*
X123407792Y-112834423D01*
X123364752Y-112891880D01*
X123228576Y-113081610D01*
X123134701Y-113227963D01*
X123076428Y-113343952D01*
X123047057Y-113442589D01*
X123039809Y-113523071D01*
X123030622Y-113622257D01*
X123007164Y-113768089D01*
X122974322Y-113935005D01*
X122936980Y-114097444D01*
X122912774Y-114187941D01*
X122864540Y-114385609D01*
X122817495Y-114634064D01*
X122775630Y-114909437D01*
X122742936Y-115187862D01*
X122739443Y-115224384D01*
X122715019Y-115440686D01*
X122687500Y-115602270D01*
X122658431Y-115700948D01*
X122645525Y-115722353D01*
X122601282Y-115798676D01*
X122592353Y-115842295D01*
X122567168Y-115913945D01*
X122523753Y-115970089D01*
X122473239Y-116040240D01*
X122415754Y-116148270D01*
X122364926Y-116264701D01*
X122334385Y-116360059D01*
X122330882Y-116387261D01*
X122361929Y-116391848D01*
X122438847Y-116377682D01*
X122537301Y-116351549D01*
X122632955Y-116320229D01*
X122701474Y-116290508D01*
X122716736Y-116279706D01*
X122731324Y-116234494D01*
X122747341Y-116141299D01*
X122754078Y-116086877D01*
X122794642Y-115899617D01*
X122868492Y-115778731D01*
X122976208Y-115723423D01*
X123022347Y-115719411D01*
X123093341Y-115728423D01*
X123162161Y-115762942D01*
X123245028Y-115834196D01*
X123354228Y-115949086D01*
X123450805Y-116060342D01*
X123523805Y-116154486D01*
X123561108Y-116215529D01*
X123563529Y-116225237D01*
X123532932Y-116274959D01*
X123465914Y-116314717D01*
X123404779Y-116322989D01*
X123360549Y-116342164D01*
X123304751Y-116389072D01*
X123220805Y-116439461D01*
X123097252Y-116476904D01*
X123052619Y-116484309D01*
X122763546Y-116536782D01*
X122500149Y-116613903D01*
X122276169Y-116710238D01*
X122105348Y-116820353D01*
X122038622Y-116885310D01*
X121954062Y-116957209D01*
X121871607Y-116983541D01*
X121870533Y-116983488D01*
X121771222Y-116999962D01*
X121672243Y-117048297D01*
X121603763Y-117111586D01*
X121590994Y-117140151D01*
X121558050Y-117197618D01*
X121488742Y-117277648D01*
X121455322Y-117310313D01*
X121397856Y-117365364D01*
X121356252Y-117415368D01*
X121324996Y-117475171D01*
X121298572Y-117559614D01*
X121271466Y-117683542D01*
X121238163Y-117861799D01*
X121226470Y-117926262D01*
X121197107Y-118096140D01*
X121182460Y-118214179D01*
X121182376Y-118301750D01*
X121196703Y-118380226D01*
X121222631Y-118463206D01*
X121253991Y-118572050D01*
X121266631Y-118652050D01*
X121263441Y-118674958D01*
X121268446Y-118705999D01*
X121278439Y-118707647D01*
X121317967Y-118738150D01*
X121334619Y-118773014D01*
X121374175Y-118862548D01*
X121443666Y-118990682D01*
X121529781Y-119135097D01*
X121619213Y-119273475D01*
X121698652Y-119383498D01*
X121698704Y-119383563D01*
X121758873Y-119453619D01*
X121816874Y-119496451D01*
X121895116Y-119521369D01*
X122016010Y-119537680D01*
X122085579Y-119544266D01*
X122285250Y-119568737D01*
X122443298Y-119600918D01*
X122549077Y-119637935D01*
X122591936Y-119676913D01*
X122592353Y-119681037D01*
X122624783Y-119709880D01*
X122705899Y-119742994D01*
X122740083Y-119753076D01*
X122848771Y-119791948D01*
X122931343Y-119837958D01*
X122942856Y-119847898D01*
X123001155Y-119893104D01*
X123028582Y-119903119D01*
X123071474Y-119926579D01*
X123147650Y-119986399D01*
X123201417Y-120033855D01*
X123291957Y-120108667D01*
X123366590Y-120155901D01*
X123393569Y-120164411D01*
X123449881Y-120188282D01*
X123531642Y-120248198D01*
X123563529Y-120276470D01*
X123643421Y-120344890D01*
X123702592Y-120384545D01*
X123715232Y-120388529D01*
X123756867Y-120408029D01*
X123840968Y-120458446D01*
X123948940Y-120527652D01*
X124062191Y-120603522D01*
X124162125Y-120673930D01*
X124217206Y-120715899D01*
X124303051Y-120771672D01*
X124429940Y-120838208D01*
X124576425Y-120906083D01*
X124721061Y-120965874D01*
X124842401Y-121008156D01*
X124917326Y-121023529D01*
X125013077Y-121016333D01*
X125166140Y-120996422D01*
X125360690Y-120966314D01*
X125580902Y-120928525D01*
X125810952Y-120885573D01*
X125916764Y-120864563D01*
X126039759Y-120843083D01*
X126137074Y-120832237D01*
X126174258Y-120832709D01*
X126235659Y-120821989D01*
X126248963Y-120809818D01*
X126294466Y-120783663D01*
X126390695Y-120747822D01*
X126503160Y-120713942D01*
X126671062Y-120661889D01*
X126849211Y-120597314D01*
X126942608Y-120558804D01*
X127067467Y-120496751D01*
X127145282Y-120433845D01*
X127200429Y-120347321D01*
X127223576Y-120296409D01*
X127256361Y-120194409D01*
X127284008Y-120062840D01*
X127304626Y-119920323D01*
X127316326Y-119785478D01*
X127317219Y-119676924D01*
X127305413Y-119613282D01*
X127293838Y-119604117D01*
X127266613Y-119573136D01*
X127261470Y-119536882D01*
X127244583Y-119459901D01*
X127228648Y-119434161D01*
X127200546Y-119375815D01*
X127174861Y-119279557D01*
X127172108Y-119264906D01*
X127167111Y-119150717D01*
X127207593Y-119063804D01*
X127221606Y-119046719D01*
X127294429Y-118993975D01*
X127393315Y-118983521D01*
X127530552Y-119016042D01*
X127672353Y-119071780D01*
X127773090Y-119111819D01*
X127850919Y-119136473D01*
X127859117Y-119138154D01*
X127922729Y-119156867D01*
X128028804Y-119195258D01*
X128120588Y-119231400D01*
X128248045Y-119282881D01*
X128358862Y-119326909D01*
X128410073Y-119346735D01*
X128475814Y-119397731D01*
X128494117Y-119489500D01*
X128480928Y-119596622D01*
X128448089Y-119698988D01*
X128405697Y-119771395D01*
X128373395Y-119790882D01*
X128321841Y-119814656D01*
X128283340Y-119846911D01*
X128205008Y-119893703D01*
X128157477Y-119902941D01*
X128087086Y-119920718D01*
X128064558Y-119940294D01*
X128013026Y-119969298D01*
X127951054Y-119977647D01*
X127881057Y-119997225D01*
X127818322Y-120065741D01*
X127777520Y-120136397D01*
X127728292Y-120233041D01*
X127697118Y-120299235D01*
X127691797Y-120313823D01*
X127671619Y-120352391D01*
X127621398Y-120435026D01*
X127555805Y-120537941D01*
X127473434Y-120652782D01*
X127387320Y-120738363D01*
X127274000Y-120814383D01*
X127144206Y-120883456D01*
X127008019Y-120948461D01*
X126891957Y-120997432D01*
X126816069Y-121022101D01*
X126804464Y-121023529D01*
X126739439Y-121040810D01*
X126722885Y-121055976D01*
X126676290Y-121081884D01*
X126584760Y-121106643D01*
X126552592Y-121112446D01*
X126458879Y-121135546D01*
X126406405Y-121164228D01*
X126402353Y-121173382D01*
X126370114Y-121200146D01*
X126299385Y-121210294D01*
X126190824Y-121221903D01*
X126070195Y-121249971D01*
X126065929Y-121251294D01*
X125990492Y-121263118D01*
X125856570Y-121272809D01*
X125680358Y-121280154D01*
X125478052Y-121284936D01*
X125265848Y-121286942D01*
X125059942Y-121285957D01*
X124876529Y-121281765D01*
X124731806Y-121274154D01*
X124684117Y-121269614D01*
X124543960Y-121246750D01*
X124423036Y-121215775D01*
X124343470Y-121182964D01*
X124326283Y-121168116D01*
X124276380Y-121140859D01*
X124233678Y-121135588D01*
X124174187Y-121119521D01*
X124161176Y-121098235D01*
X124131647Y-121063588D01*
X124114103Y-121060882D01*
X124057381Y-121037237D01*
X123979263Y-120979158D01*
X123966322Y-120967500D01*
X123895472Y-120906357D01*
X123849707Y-120875150D01*
X123845630Y-120874117D01*
X123806226Y-120852888D01*
X123724488Y-120797111D01*
X123616622Y-120718651D01*
X123498833Y-120629375D01*
X123387326Y-120541148D01*
X123358088Y-120517129D01*
X123141100Y-120339824D01*
X122969179Y-120206955D01*
X122832550Y-120112225D01*
X122721440Y-120049340D01*
X122626078Y-120012004D01*
X122548197Y-119995388D01*
X122444114Y-119976527D01*
X122379123Y-119956004D01*
X122368224Y-119946127D01*
X122335349Y-119929907D01*
X122254557Y-119921822D01*
X122237723Y-119921617D01*
X122151305Y-119928674D01*
X122108116Y-119946020D01*
X122106999Y-119949632D01*
X122106776Y-120010101D01*
X122106764Y-120026949D01*
X122129940Y-120084229D01*
X122187714Y-120166558D01*
X122209485Y-120192270D01*
X122290849Y-120288969D01*
X122359226Y-120378026D01*
X122368235Y-120390958D01*
X122625265Y-120723010D01*
X122914113Y-121012745D01*
X123202746Y-121233499D01*
X123410009Y-121348129D01*
X123674529Y-121462794D01*
X123979101Y-121571535D01*
X124306516Y-121668394D01*
X124639567Y-121747415D01*
X124748588Y-121768711D01*
X124920421Y-121800522D01*
X125070675Y-121828683D01*
X125180578Y-121849655D01*
X125225735Y-121858644D01*
X125332995Y-121873229D01*
X125504801Y-121886478D01*
X125730999Y-121898263D01*
X126001440Y-121908457D01*
X126305972Y-121916933D01*
X126634443Y-121923565D01*
X126976703Y-121928224D01*
X127322599Y-121930783D01*
X127661981Y-121931116D01*
X127984697Y-121929094D01*
X128280597Y-121924592D01*
X128539528Y-121917481D01*
X128751339Y-121907634D01*
X128811617Y-121903581D01*
X128988497Y-121891758D01*
X129160601Y-121882526D01*
X129297377Y-121877465D01*
X129325232Y-121877011D01*
X129432847Y-121870904D01*
X129504789Y-121857144D01*
X129519358Y-121848474D01*
X129565922Y-121830194D01*
X129672754Y-121813890D01*
X129825416Y-121800969D01*
X130009472Y-121792836D01*
X130109632Y-121790996D01*
X130213106Y-121785355D01*
X130277044Y-121772952D01*
X130287058Y-121764755D01*
X130320424Y-121745958D01*
X130405420Y-121725422D01*
X130466044Y-121715628D01*
X130603352Y-121696521D01*
X130714725Y-121680074D01*
X130732259Y-121677206D01*
X131034117Y-121677206D01*
X131052794Y-121695882D01*
X131071470Y-121677206D01*
X131052794Y-121658529D01*
X131034117Y-121677206D01*
X130732259Y-121677206D01*
X130819604Y-121662919D01*
X130937433Y-121641689D01*
X130947052Y-121639853D01*
X132229411Y-121639853D01*
X132248088Y-121658529D01*
X132266764Y-121639853D01*
X132248088Y-121621176D01*
X132229411Y-121639853D01*
X130947052Y-121639853D01*
X131087653Y-121613016D01*
X131289707Y-121573533D01*
X131314264Y-121568712D01*
X131672454Y-121497466D01*
X131963657Y-121437367D01*
X132194511Y-121386892D01*
X132371653Y-121344515D01*
X132501719Y-121308712D01*
X132591346Y-121277958D01*
X132605584Y-121272027D01*
X132728072Y-121219852D01*
X132862897Y-121163640D01*
X132883088Y-121155348D01*
X133007104Y-121098659D01*
X133159739Y-121020293D01*
X133324280Y-120929883D01*
X133484014Y-120837065D01*
X133622227Y-120751471D01*
X133722206Y-120682735D01*
X133760882Y-120649376D01*
X133798602Y-120621746D01*
X133885236Y-120564110D01*
X134006305Y-120485985D01*
X134097058Y-120428440D01*
X134252357Y-120324465D01*
X134400172Y-120214899D01*
X134438369Y-120183088D01*
X134769411Y-120183088D01*
X134788088Y-120201764D01*
X134806764Y-120183088D01*
X134788088Y-120164411D01*
X134769411Y-120183088D01*
X134438369Y-120183088D01*
X134517343Y-120117317D01*
X134554710Y-120081151D01*
X134629336Y-119994315D01*
X134735036Y-119860289D01*
X134861065Y-119693788D01*
X134996679Y-119509526D01*
X135131135Y-119322220D01*
X135253690Y-119146583D01*
X135353598Y-118997332D01*
X135400711Y-118922426D01*
X135456087Y-118837407D01*
X135496381Y-118787686D01*
X135504997Y-118782353D01*
X135515849Y-118814135D01*
X135503881Y-118897600D01*
X135473653Y-119014923D01*
X135429728Y-119148280D01*
X135379032Y-119274564D01*
X135333033Y-119391694D01*
X135308153Y-119483574D01*
X135308492Y-119525307D01*
X135304269Y-119577092D01*
X135266402Y-119664579D01*
X135237669Y-119714044D01*
X135181625Y-119809024D01*
X135147638Y-119878583D01*
X135142941Y-119895887D01*
X135113587Y-119934810D01*
X135050833Y-119976964D01*
X134990564Y-120022203D01*
X134978332Y-120057982D01*
X134972594Y-120088279D01*
X134963195Y-120089706D01*
X134922450Y-120117936D01*
X134862089Y-120188668D01*
X134839594Y-120220186D01*
X134774148Y-120301376D01*
X134717539Y-120347185D01*
X134704044Y-120350921D01*
X134659293Y-120380687D01*
X134655225Y-120397867D01*
X134625618Y-120444855D01*
X134550556Y-120519420D01*
X134446776Y-120607744D01*
X134331011Y-120696009D01*
X134219997Y-120770397D01*
X134168923Y-120799411D01*
X134086918Y-120856623D01*
X134040496Y-120916186D01*
X134040290Y-120916791D01*
X133993823Y-120971881D01*
X133908227Y-121023380D01*
X133899713Y-121026971D01*
X133802488Y-121079630D01*
X133733312Y-121139514D01*
X133731845Y-121141483D01*
X133665792Y-121186987D01*
X133622997Y-121183705D01*
X133581964Y-121179422D01*
X133583803Y-121195747D01*
X133563861Y-121227650D01*
X133490621Y-121277699D01*
X133379731Y-121335270D01*
X133375152Y-121337387D01*
X133239947Y-121400485D01*
X133118190Y-121458783D01*
X133045413Y-121494997D01*
X132944828Y-121533317D01*
X132866131Y-121546470D01*
X132773718Y-121563563D01*
X132685130Y-121598477D01*
X132603688Y-121628312D01*
X132468230Y-121665467D01*
X132298503Y-121705434D01*
X132114254Y-121743705D01*
X131935230Y-121775771D01*
X131855882Y-121787785D01*
X131752015Y-121803283D01*
X131632630Y-121822330D01*
X131631764Y-121822473D01*
X131523014Y-121836945D01*
X131376129Y-121852126D01*
X131258235Y-121862001D01*
X131118083Y-121873785D01*
X130934343Y-121891292D01*
X130724312Y-121912647D01*
X130505290Y-121935975D01*
X130294574Y-121959402D01*
X130109464Y-121981052D01*
X129967258Y-121999051D01*
X129894853Y-122009761D01*
X129704001Y-122036004D01*
X129449067Y-122060408D01*
X129140667Y-122082348D01*
X128789415Y-122101199D01*
X128405925Y-122116334D01*
X128000812Y-122127128D01*
X127859117Y-122129714D01*
X127573525Y-122134434D01*
X127293713Y-122139296D01*
X127034166Y-122144030D01*
X126809368Y-122148367D01*
X126633804Y-122152037D01*
X126542409Y-122154210D01*
X126396678Y-122155455D01*
X126284418Y-122151499D01*
X126222510Y-122143162D01*
X126215571Y-122138333D01*
X126182772Y-122127688D01*
X126100419Y-122130115D01*
X126061524Y-122134537D01*
X125961421Y-122138759D01*
X125809568Y-122134205D01*
X125628271Y-122121919D01*
X125475906Y-122107102D01*
X125291308Y-122087003D01*
X125166383Y-122076289D01*
X125086565Y-122076009D01*
X125037286Y-122087209D01*
X125003982Y-122110939D01*
X124976294Y-122143050D01*
X124925762Y-122227847D01*
X124908235Y-122294570D01*
X124889241Y-122380591D01*
X124837535Y-122511463D01*
X124761034Y-122669348D01*
X124668403Y-122835147D01*
X124584012Y-122977118D01*
X124516792Y-123093104D01*
X124453230Y-123207287D01*
X124379813Y-123343850D01*
X124303132Y-123488823D01*
X124210473Y-123658320D01*
X124110743Y-123830824D01*
X124021493Y-123976230D01*
X123998251Y-124011764D01*
X123918603Y-124135991D01*
X123850786Y-124250891D01*
X123815328Y-124319364D01*
X123762307Y-124388168D01*
X123681340Y-124447503D01*
X123597712Y-124483350D01*
X123536708Y-124481693D01*
X123530810Y-124477084D01*
X123542975Y-124442065D01*
X123597378Y-124376932D01*
X123634451Y-124340360D01*
X123711974Y-124258934D01*
X123743707Y-124187149D01*
X123743322Y-124089422D01*
X123740635Y-124063995D01*
X123736761Y-123972598D01*
X123752641Y-123886426D01*
X123795255Y-123783400D01*
X123871584Y-123641445D01*
X123877553Y-123630918D01*
X123964517Y-123473233D01*
X124067331Y-123279943D01*
X124169283Y-123082682D01*
X124213056Y-122995780D01*
X124301839Y-122827679D01*
X124394741Y-122668371D01*
X124478231Y-122540352D01*
X124519509Y-122486352D01*
X124632131Y-122333981D01*
X124694649Y-122201969D01*
X124702092Y-122101259D01*
X124698947Y-122091532D01*
X124650676Y-122054324D01*
X124548431Y-122022805D01*
X124485215Y-122011821D01*
X124369372Y-121989496D01*
X124219543Y-121951910D01*
X124056638Y-121905386D01*
X123901566Y-121856250D01*
X123775236Y-121810825D01*
X123698557Y-121775437D01*
X123694264Y-121772579D01*
X123639423Y-121744967D01*
X123541387Y-121704167D01*
X123478811Y-121680291D01*
X123263110Y-121578583D01*
X123041038Y-121428055D01*
X122802295Y-121221219D01*
X122675414Y-121096344D01*
X122548605Y-120970903D01*
X122461136Y-120894765D01*
X122403248Y-120860924D01*
X122365180Y-120862378D01*
X122357071Y-120867882D01*
X122301994Y-120892686D01*
X122280754Y-120886244D01*
X122257618Y-120889009D01*
X122256176Y-120900713D01*
X122224933Y-120939153D01*
X122148360Y-120982167D01*
X122134779Y-120987785D01*
X122044860Y-121034766D01*
X121949186Y-121110680D01*
X121837844Y-121225206D01*
X121700916Y-121388024D01*
X121619857Y-121490441D01*
X121500891Y-121644942D01*
X121425713Y-121752908D01*
X121391434Y-121826134D01*
X121395165Y-121876413D01*
X121434016Y-121915537D01*
X121505098Y-121955302D01*
X121505870Y-121955696D01*
X121600748Y-122009100D01*
X121664241Y-122054059D01*
X121674878Y-122065646D01*
X121725550Y-122105706D01*
X121828376Y-122160652D01*
X121964643Y-122221733D01*
X122115637Y-122280201D01*
X122182857Y-122303150D01*
X122337182Y-122334614D01*
X122534802Y-122348886D01*
X122749197Y-122346639D01*
X122953848Y-122328547D01*
X123122232Y-122295285D01*
X123173252Y-122277980D01*
X123294086Y-122207294D01*
X123383812Y-122115722D01*
X123390144Y-122105673D01*
X123444916Y-122030844D01*
X123491800Y-121995193D01*
X123495853Y-121994706D01*
X123519754Y-122025858D01*
X123520695Y-122104447D01*
X123502498Y-122208167D01*
X123468984Y-122314712D01*
X123426819Y-122397673D01*
X123371361Y-122493105D01*
X123337880Y-122573676D01*
X123288191Y-122639121D01*
X123237872Y-122659963D01*
X123151489Y-122693661D01*
X123113433Y-122725330D01*
X123045500Y-122764737D01*
X122959104Y-122779117D01*
X122888789Y-122788968D01*
X122870259Y-122812770D01*
X122870838Y-122813781D01*
X122875626Y-122835371D01*
X122853857Y-122854578D01*
X122795345Y-122874276D01*
X122689901Y-122897338D01*
X122527341Y-122926638D01*
X122386911Y-122950273D01*
X122229445Y-122977181D01*
X122102329Y-123000356D01*
X122021730Y-123016766D01*
X122001716Y-123022535D01*
X122019744Y-123044850D01*
X122086818Y-123081130D01*
X122181117Y-123121693D01*
X122280821Y-123156856D01*
X122339844Y-123172586D01*
X122435905Y-123199711D01*
X122499866Y-123229295D01*
X122501036Y-123230204D01*
X122556668Y-123247463D01*
X122663045Y-123261401D01*
X122785142Y-123268513D01*
X122931217Y-123278726D01*
X123062122Y-123298408D01*
X123135745Y-123318537D01*
X123241659Y-123361829D01*
X123113109Y-123440142D01*
X123020071Y-123494009D01*
X122885288Y-123568635D01*
X122733373Y-123650458D01*
X122685735Y-123675645D01*
X122443399Y-123808211D01*
X122256765Y-123925738D01*
X122112375Y-124041437D01*
X121996771Y-124168513D01*
X121896496Y-124320177D01*
X121798090Y-124509634D01*
X121765590Y-124578688D01*
X121701959Y-124716054D01*
X122131237Y-124697390D01*
X122314811Y-124690058D01*
X122435259Y-124688075D01*
X122504059Y-124692896D01*
X122532687Y-124705978D01*
X122532622Y-124728777D01*
X122523863Y-124747207D01*
X122479243Y-124820940D01*
X122427486Y-124876965D01*
X122357118Y-124919076D01*
X122256668Y-124951069D01*
X122114661Y-124976739D01*
X121919624Y-124999881D01*
X121695882Y-125021091D01*
X121504923Y-125039973D01*
X121323581Y-125060948D01*
X121175264Y-125081147D01*
X121098235Y-125094377D01*
X120972871Y-125118695D01*
X120810423Y-125148139D01*
X120657918Y-125174333D01*
X120516543Y-125203002D01*
X120393813Y-125243077D01*
X120266259Y-125304694D01*
X120110409Y-125397993D01*
X120048810Y-125437435D01*
X119711930Y-125655294D01*
X119303171Y-125655294D01*
X119138527Y-125652649D01*
X119005597Y-125645479D01*
X118919494Y-125634933D01*
X118894411Y-125624253D01*
X118924109Y-125587151D01*
X118995685Y-125540958D01*
X118997132Y-125540209D01*
X119084491Y-125483152D01*
X119191979Y-125397188D01*
X119247451Y-125347132D01*
X119342252Y-125268295D01*
X119425871Y-125217488D01*
X119462230Y-125207058D01*
X119518717Y-125189863D01*
X119529411Y-125169706D01*
X119562422Y-125145375D01*
X119644270Y-125131878D01*
X119669485Y-125131029D01*
X119790906Y-125115550D01*
X119896728Y-125079717D01*
X119902941Y-125076323D01*
X120013771Y-125034895D01*
X120105099Y-125021617D01*
X120208664Y-125008761D01*
X120353312Y-124977019D01*
X120510257Y-124933956D01*
X120650716Y-124887134D01*
X120710361Y-124862590D01*
X120800474Y-124834741D01*
X120917720Y-124814108D01*
X120934478Y-124812317D01*
X121144919Y-124790958D01*
X121296182Y-124768217D01*
X121403435Y-124735409D01*
X121481850Y-124683849D01*
X121546595Y-124604852D01*
X121612840Y-124489736D01*
X121661465Y-124396131D01*
X121744695Y-124251356D01*
X121846507Y-124098972D01*
X121956180Y-123952289D01*
X122062990Y-123824619D01*
X122156215Y-123729273D01*
X122225133Y-123679563D01*
X122242019Y-123675402D01*
X122290029Y-123653734D01*
X122367410Y-123600337D01*
X122386911Y-123585022D01*
X122498970Y-123494828D01*
X122393818Y-123454473D01*
X122300352Y-123425045D01*
X122235791Y-123414117D01*
X122180005Y-123399032D01*
X122075432Y-123358671D01*
X121940490Y-123300377D01*
X121874031Y-123269907D01*
X121728710Y-123202911D01*
X121603239Y-123146606D01*
X121517263Y-123109746D01*
X121497412Y-123102083D01*
X121452958Y-123065324D01*
X121455398Y-123036850D01*
X121452858Y-123010697D01*
X121406942Y-123018774D01*
X121314355Y-123012422D01*
X121248325Y-122973942D01*
X121191627Y-122922104D01*
X121190624Y-122883972D01*
X121233781Y-122835672D01*
X121282381Y-122779067D01*
X121294296Y-122750790D01*
X121325761Y-122744477D01*
X121418532Y-122737689D01*
X121559219Y-122731153D01*
X121734432Y-122725594D01*
X121779884Y-122724491D01*
X122001179Y-122719377D01*
X122158642Y-122715100D01*
X122263123Y-122710647D01*
X122325472Y-122705004D01*
X122356541Y-122697159D01*
X122367180Y-122686099D01*
X122368239Y-122670812D01*
X122368235Y-122669576D01*
X122341965Y-122633939D01*
X122257131Y-122602434D01*
X122144117Y-122578294D01*
X122036381Y-122548642D01*
X121893696Y-122496742D01*
X121742975Y-122433797D01*
X121611129Y-122371015D01*
X121527794Y-122321671D01*
X121481128Y-122287196D01*
X121392116Y-122221703D01*
X121278652Y-122138356D01*
X121259877Y-122124576D01*
X121143769Y-122037490D01*
X121077663Y-121978034D01*
X121050814Y-121930356D01*
X121052477Y-121878599D01*
X121063774Y-121835210D01*
X121087133Y-121751208D01*
X121098114Y-121706690D01*
X121098235Y-121705467D01*
X121129644Y-121697631D01*
X121171982Y-121695882D01*
X121244344Y-121662439D01*
X121303676Y-121583823D01*
X121350303Y-121507980D01*
X121386888Y-121472185D01*
X121389523Y-121471764D01*
X121422904Y-121441963D01*
X121472855Y-121367354D01*
X121491112Y-121334931D01*
X121574812Y-121210962D01*
X121692652Y-121076680D01*
X121829811Y-120944871D01*
X121971469Y-120828320D01*
X122102805Y-120739811D01*
X122209001Y-120692131D01*
X122241769Y-120687353D01*
X122282176Y-120677374D01*
X122285190Y-120641438D01*
X122247133Y-120570543D01*
X122164327Y-120455688D01*
X122127580Y-120407925D01*
X121996481Y-120213835D01*
X121930978Y-120053332D01*
X121927549Y-119937209D01*
X121905422Y-119892085D01*
X121857688Y-119873615D01*
X121790974Y-119840405D01*
X121698625Y-119766457D01*
X121614894Y-119682886D01*
X121526721Y-119576587D01*
X121426580Y-119441529D01*
X121322977Y-119291121D01*
X121224413Y-119138774D01*
X121139392Y-118997897D01*
X121076417Y-118881902D01*
X121043992Y-118804199D01*
X121043030Y-118781018D01*
X121038777Y-118747568D01*
X121025733Y-118745000D01*
X120993944Y-118715989D01*
X120988157Y-118653047D01*
X121008455Y-118592307D01*
X121025343Y-118575790D01*
X121040238Y-118532301D01*
X121016005Y-118493116D01*
X120991388Y-118430467D01*
X120976819Y-118309961D01*
X120971654Y-118124799D01*
X120972095Y-118029529D01*
X120971002Y-117860648D01*
X120964282Y-117727894D01*
X120952973Y-117645202D01*
X120941876Y-117624411D01*
X120925494Y-117600570D01*
X120933714Y-117581287D01*
X120938147Y-117555752D01*
X120916875Y-117565041D01*
X120869428Y-117555753D01*
X120802571Y-117502383D01*
X120734700Y-117425285D01*
X120730738Y-117418970D01*
X120799411Y-117418970D01*
X120818088Y-117437647D01*
X120836764Y-117418970D01*
X120818088Y-117400294D01*
X120799411Y-117418970D01*
X120730738Y-117418970D01*
X120684208Y-117344812D01*
X120668676Y-117290421D01*
X120643124Y-117219075D01*
X120608518Y-117176176D01*
X120559984Y-117100347D01*
X120507516Y-116970735D01*
X120575294Y-116970735D01*
X120593970Y-116989411D01*
X120612647Y-116970735D01*
X120593970Y-116952058D01*
X120575294Y-116970735D01*
X120507516Y-116970735D01*
X120504869Y-116964195D01*
X120446531Y-116781441D01*
X120388329Y-116565802D01*
X120333624Y-116330999D01*
X120285773Y-116090751D01*
X120248138Y-115858776D01*
X120224076Y-115648795D01*
X120219802Y-115588676D01*
X120200485Y-115262575D01*
X120184106Y-115003294D01*
X120169965Y-114803035D01*
X120157363Y-114654002D01*
X120145600Y-114548396D01*
X120133976Y-114478420D01*
X120121792Y-114436277D01*
X120115216Y-114423117D01*
X120099719Y-114366604D01*
X120084083Y-114258955D01*
X120071884Y-114125873D01*
X120055578Y-113942673D01*
X120031179Y-113737029D01*
X120001134Y-113523569D01*
X119967890Y-113316924D01*
X119933894Y-113131724D01*
X119901594Y-112982597D01*
X119873438Y-112884175D01*
X119859329Y-112855269D01*
X119833649Y-112792621D01*
X119812466Y-112688808D01*
X119807690Y-112649183D01*
X119804049Y-112539302D01*
X119826034Y-112475540D01*
X119869165Y-112438787D01*
X119942181Y-112416173D01*
X120025872Y-112441355D01*
X120131945Y-112519762D01*
X120216316Y-112599712D01*
X120288809Y-112662616D01*
X120342936Y-112693248D01*
X120347622Y-112693823D01*
X120395156Y-112722445D01*
X120418857Y-112754649D01*
X120456893Y-112790728D01*
X120478088Y-112774715D01*
X120474292Y-112722078D01*
X120454380Y-112675147D01*
X120575294Y-112675147D01*
X120593970Y-112693823D01*
X120612647Y-112675147D01*
X120593970Y-112656470D01*
X120575294Y-112675147D01*
X120454380Y-112675147D01*
X120436597Y-112633232D01*
X120404163Y-112576945D01*
X120311692Y-112408897D01*
X120268317Y-112277881D01*
X120275956Y-112190527D01*
X120287632Y-112174661D01*
X120337839Y-112139055D01*
X120382997Y-112153672D01*
X120439351Y-112226230D01*
X120457840Y-112255535D01*
X120519040Y-112337975D01*
X120616633Y-112451693D01*
X120732940Y-112576422D01*
X120775116Y-112619247D01*
X120879562Y-112727405D01*
X120958029Y-112815962D01*
X120999450Y-112872047D01*
X121002753Y-112883985D01*
X121021532Y-112914025D01*
X121080730Y-112949031D01*
X121148832Y-112964940D01*
X121175925Y-112946054D01*
X121146454Y-112906487D01*
X121135588Y-112899264D01*
X121101485Y-112845333D01*
X121098235Y-112820792D01*
X121074341Y-112754835D01*
X121022613Y-112684235D01*
X121016528Y-112675147D01*
X121060882Y-112675147D01*
X121079558Y-112693823D01*
X121098235Y-112675147D01*
X121079558Y-112656470D01*
X121060882Y-112675147D01*
X121016528Y-112675147D01*
X120973961Y-112611568D01*
X120965239Y-112555509D01*
X120959612Y-112518103D01*
X120943145Y-112516845D01*
X120899384Y-112493821D01*
X120845219Y-112425746D01*
X120837970Y-112413676D01*
X120791541Y-112333389D01*
X120719353Y-112208516D01*
X120633026Y-112059156D01*
X120578867Y-111965441D01*
X120494515Y-111813196D01*
X120423997Y-111674264D01*
X120376732Y-111567833D01*
X120363062Y-111525766D01*
X120348418Y-111479853D01*
X120687353Y-111479853D01*
X120706029Y-111498529D01*
X120724706Y-111479853D01*
X120706029Y-111461176D01*
X120687353Y-111479853D01*
X120348418Y-111479853D01*
X120336772Y-111443337D01*
X120308999Y-111402165D01*
X120281426Y-111348823D01*
X120279548Y-111266382D01*
X120301755Y-111195279D01*
X120317908Y-111178504D01*
X120367577Y-111186221D01*
X120433336Y-111239250D01*
X120440121Y-111246897D01*
X120568469Y-111341831D01*
X120758025Y-111398630D01*
X121009440Y-111417305D01*
X121323370Y-111397871D01*
X121700467Y-111340339D01*
X121999653Y-111278024D01*
X122126495Y-111255735D01*
X123227353Y-111255735D01*
X123246029Y-111274411D01*
X123264706Y-111255735D01*
X123246029Y-111237058D01*
X123227353Y-111255735D01*
X122126495Y-111255735D01*
X122160987Y-111249674D01*
X122366312Y-111225339D01*
X122584922Y-111208092D01*
X122767181Y-111201178D01*
X122863679Y-111177926D01*
X122865546Y-111174804D01*
X123277156Y-111174804D01*
X123282284Y-111197010D01*
X123302058Y-111199706D01*
X123332804Y-111186039D01*
X123326960Y-111174804D01*
X123282631Y-111170333D01*
X123277156Y-111174804D01*
X122865546Y-111174804D01*
X122900444Y-111116437D01*
X122876646Y-111024420D01*
X122797794Y-110916409D01*
X122718801Y-110814915D01*
X122631319Y-110679755D01*
X122573676Y-110576782D01*
X122512456Y-110462290D01*
X122462443Y-110376554D01*
X122435957Y-110339838D01*
X122401036Y-110290051D01*
X122357722Y-110199187D01*
X122315763Y-110092594D01*
X122284907Y-109995624D01*
X122274903Y-109933624D01*
X122276938Y-109926331D01*
X122268265Y-109895314D01*
X122249042Y-109891522D01*
X122239808Y-109872436D01*
X122283008Y-109827083D01*
X122289422Y-109822048D01*
X122355605Y-109777117D01*
X122399614Y-109780138D01*
X122451446Y-109826152D01*
X122535982Y-109890116D01*
X122645499Y-109949420D01*
X122657535Y-109954614D01*
X122787960Y-109991394D01*
X122953315Y-110013940D01*
X123127666Y-110021318D01*
X123285079Y-110012593D01*
X123399619Y-109986832D01*
X123410872Y-109981755D01*
X123501084Y-109952953D01*
X123633937Y-109928712D01*
X123751651Y-109916572D01*
X123944174Y-109898713D01*
X124089001Y-109874115D01*
X124176427Y-109844876D01*
X124198529Y-109820108D01*
X124173867Y-109778847D01*
X124113642Y-109713679D01*
X124105147Y-109705588D01*
X124040873Y-109626368D01*
X124011897Y-109553439D01*
X124011764Y-109549665D01*
X124026977Y-109504513D01*
X124084828Y-109484717D01*
X124161176Y-109481470D01*
X124254621Y-109479398D01*
X124306309Y-109474222D01*
X124309968Y-109472132D01*
X124297853Y-109435135D01*
X124266620Y-109346826D01*
X124222924Y-109226011D01*
X124221107Y-109221032D01*
X124161414Y-109076559D01*
X124101168Y-108983551D01*
X124024354Y-108920385D01*
X123980483Y-108896121D01*
X123957836Y-108852240D01*
X123939788Y-108766008D01*
X123930522Y-108669777D01*
X123931961Y-108641029D01*
X124198529Y-108641029D01*
X124217206Y-108659706D01*
X124235882Y-108641029D01*
X124217206Y-108622353D01*
X124198529Y-108641029D01*
X123931961Y-108641029D01*
X123934219Y-108595900D01*
X123939711Y-108580708D01*
X123947488Y-108513326D01*
X123934999Y-108489136D01*
X123914257Y-108424627D01*
X123913601Y-108328774D01*
X123913649Y-108328364D01*
X123916702Y-108242443D01*
X123905232Y-108196337D01*
X123904234Y-108195601D01*
X123892787Y-108151368D01*
X123887963Y-108046040D01*
X123889008Y-107892865D01*
X123892686Y-107780743D01*
X124196261Y-107780743D01*
X124203402Y-107973478D01*
X124210047Y-108043382D01*
X124221040Y-108138443D01*
X124236002Y-108276699D01*
X124250535Y-108416911D01*
X124283058Y-108661110D01*
X124328803Y-108899768D01*
X124383027Y-109112717D01*
X124440989Y-109279783D01*
X124465649Y-109332058D01*
X124517115Y-109426913D01*
X124561916Y-109502043D01*
X124611530Y-109572534D01*
X124677439Y-109653468D01*
X124771122Y-109759931D01*
X124898833Y-109901245D01*
X124977007Y-109964537D01*
X125063713Y-110013084D01*
X125137751Y-110052681D01*
X125169677Y-110083285D01*
X125169706Y-110083852D01*
X125200524Y-110111456D01*
X125280695Y-110159318D01*
X125375147Y-110208216D01*
X125494736Y-110272983D01*
X125558161Y-110327011D01*
X125579942Y-110383744D01*
X125580588Y-110398431D01*
X125571746Y-110459451D01*
X125530184Y-110474931D01*
X125468529Y-110465720D01*
X125389536Y-110457543D01*
X125359695Y-110484076D01*
X125356470Y-110518963D01*
X125371980Y-110573043D01*
X125431999Y-110588379D01*
X125465086Y-110587097D01*
X125573702Y-110579577D01*
X125553582Y-110845613D01*
X125549967Y-111009747D01*
X125563058Y-111138363D01*
X125587984Y-111224886D01*
X125619873Y-111262742D01*
X125653857Y-111245355D01*
X125685065Y-111166148D01*
X125705187Y-111050294D01*
X125735719Y-110857406D01*
X125777689Y-110678105D01*
X125825109Y-110535237D01*
X125856916Y-110471323D01*
X125902699Y-110377048D01*
X125931023Y-110290793D01*
X125967733Y-110192305D01*
X126027831Y-110074606D01*
X126049459Y-110038661D01*
X126141819Y-109892353D01*
X126010615Y-109892353D01*
X125918088Y-109875206D01*
X125875139Y-109833424D01*
X125891892Y-109781490D01*
X125918482Y-109760556D01*
X125909032Y-109731553D01*
X125847126Y-109678268D01*
X125745996Y-109611998D01*
X125741055Y-109609080D01*
X125621461Y-109538589D01*
X125522254Y-109479842D01*
X125468529Y-109447733D01*
X125424977Y-109398534D01*
X125421838Y-109372887D01*
X125400375Y-109337631D01*
X125371796Y-109332058D01*
X125294416Y-109297660D01*
X125203366Y-109200079D01*
X125106272Y-109047741D01*
X125094152Y-109025385D01*
X125041391Y-108919595D01*
X125025824Y-108852582D01*
X125047509Y-108798302D01*
X125094769Y-108743264D01*
X125148631Y-108693669D01*
X125199841Y-108683691D01*
X125280132Y-108709765D01*
X125304247Y-108719733D01*
X125394051Y-108751583D01*
X125450480Y-108761048D01*
X125456688Y-108758703D01*
X125448183Y-108720449D01*
X125407048Y-108642490D01*
X125374408Y-108590583D01*
X125310436Y-108471840D01*
X125305645Y-108396766D01*
X125360207Y-108363214D01*
X125392973Y-108360882D01*
X125487078Y-108372829D01*
X125550182Y-108401959D01*
X125560651Y-108437628D01*
X125573950Y-108476418D01*
X125622345Y-108512651D01*
X125671720Y-108535121D01*
X125691099Y-108521470D01*
X125687217Y-108457063D01*
X125677354Y-108393128D01*
X125639396Y-108146594D01*
X125615317Y-107953131D01*
X125609846Y-107868783D01*
X125866082Y-107868783D01*
X125872944Y-108099291D01*
X125887079Y-108264480D01*
X125908239Y-108360837D01*
X125923857Y-108383942D01*
X125952122Y-108433646D01*
X125954117Y-108452715D01*
X125977483Y-108520364D01*
X126039962Y-108625870D01*
X126130124Y-108754970D01*
X126236542Y-108893399D01*
X126347788Y-109026896D01*
X126452432Y-109141196D01*
X126539046Y-109222037D01*
X126596201Y-109255153D01*
X126597141Y-109255245D01*
X126633862Y-109228294D01*
X126661836Y-109186360D01*
X126716599Y-109120294D01*
X126823034Y-109022772D01*
X126970203Y-108903091D01*
X127147170Y-108770552D01*
X127171478Y-108753088D01*
X127269974Y-108673044D01*
X127350155Y-108594338D01*
X127412595Y-108534341D01*
X127455772Y-108510294D01*
X127503865Y-108491488D01*
X127587916Y-108444153D01*
X127626462Y-108419880D01*
X127758225Y-108348585D01*
X127902159Y-108290176D01*
X127924485Y-108283232D01*
X128023354Y-108246123D01*
X128078102Y-108209550D01*
X128079674Y-108182621D01*
X128032944Y-108174117D01*
X127946652Y-108153358D01*
X127846208Y-108103183D01*
X127763050Y-108041747D01*
X127731179Y-107999848D01*
X127730235Y-107908101D01*
X127786441Y-107826942D01*
X127882363Y-107771302D01*
X128000573Y-107756114D01*
X128014036Y-107757535D01*
X128038026Y-107740912D01*
X128018992Y-107689404D01*
X127967917Y-107619737D01*
X127895787Y-107548638D01*
X127857674Y-107519441D01*
X127778732Y-107452167D01*
X127701409Y-107356121D01*
X127616097Y-107217501D01*
X127517087Y-107030229D01*
X127431169Y-106867519D01*
X127348484Y-106723506D01*
X127279189Y-106615169D01*
X127237864Y-106563309D01*
X127155768Y-106486185D01*
X127188652Y-106629783D01*
X127216696Y-106732883D01*
X127261889Y-106878826D01*
X127315684Y-107040305D01*
X127330278Y-107082187D01*
X127375363Y-107222321D01*
X127403393Y-107334272D01*
X127410431Y-107400919D01*
X127406011Y-107411393D01*
X127367248Y-107400625D01*
X127350165Y-107372283D01*
X127301334Y-107330262D01*
X127259789Y-107334210D01*
X127182952Y-107334309D01*
X127078440Y-107307412D01*
X127054803Y-107298218D01*
X126960155Y-107266218D01*
X126894720Y-107257649D01*
X126885614Y-107260408D01*
X126853620Y-107256972D01*
X126810552Y-107208165D01*
X126752678Y-107107599D01*
X126676264Y-106948885D01*
X126598423Y-106773382D01*
X126962647Y-106773382D01*
X126981323Y-106792058D01*
X127000000Y-106773382D01*
X126981323Y-106754706D01*
X126962647Y-106773382D01*
X126598423Y-106773382D01*
X126590140Y-106754706D01*
X126508200Y-106566550D01*
X126445428Y-106425873D01*
X126391797Y-106311385D01*
X126337278Y-106201800D01*
X126271844Y-106075830D01*
X126257562Y-106048688D01*
X126239596Y-106020098D01*
X126452156Y-106020098D01*
X126457284Y-106042304D01*
X126477058Y-106045000D01*
X126507804Y-106031333D01*
X126501960Y-106020098D01*
X126457631Y-106015627D01*
X126452156Y-106020098D01*
X126239596Y-106020098D01*
X126197475Y-105953071D01*
X126153223Y-105926621D01*
X126123694Y-105970571D01*
X126107775Y-106086157D01*
X126104101Y-106219058D01*
X126081444Y-106445985D01*
X126013300Y-106719057D01*
X125988139Y-106798028D01*
X125934199Y-106971729D01*
X125899372Y-107118800D01*
X125879260Y-107267452D01*
X125869464Y-107445893D01*
X125866742Y-107576470D01*
X125866082Y-107868783D01*
X125609846Y-107868783D01*
X125604894Y-107792448D01*
X125607900Y-107644255D01*
X125624113Y-107488260D01*
X125653306Y-107304173D01*
X125664587Y-107240294D01*
X125688439Y-107106845D01*
X125703969Y-107022989D01*
X125716363Y-106964847D01*
X125730807Y-106908539D01*
X125752488Y-106830182D01*
X125757880Y-106810735D01*
X125802358Y-106625055D01*
X125832946Y-106430799D01*
X125853103Y-106202371D01*
X125861340Y-106045000D01*
X125871909Y-105803074D01*
X125880818Y-105624743D01*
X125889807Y-105498975D01*
X125900620Y-105414737D01*
X125914999Y-105360995D01*
X125934686Y-105326716D01*
X125961423Y-105300868D01*
X125981362Y-105284985D01*
X126051707Y-105240642D01*
X126103374Y-105247493D01*
X126127487Y-105264971D01*
X126169627Y-105320847D01*
X126232056Y-105429050D01*
X126306216Y-105572993D01*
X126383548Y-105736092D01*
X126452946Y-105895588D01*
X126461727Y-105893687D01*
X126460940Y-105831717D01*
X126453170Y-105746176D01*
X126431542Y-105568378D01*
X126414376Y-105462051D01*
X126402435Y-105428676D01*
X126392156Y-105397362D01*
X126381422Y-105346514D01*
X126386232Y-105266379D01*
X126426250Y-105236840D01*
X126482715Y-105268920D01*
X126492554Y-105281230D01*
X126549113Y-105323228D01*
X126585296Y-105318979D01*
X126600947Y-105281754D01*
X126555523Y-105219163D01*
X126544271Y-105208000D01*
X126480984Y-105144650D01*
X126382719Y-105044024D01*
X126381620Y-105042885D01*
X126737380Y-105042885D01*
X126748278Y-105076309D01*
X126811394Y-105157659D01*
X126927468Y-105288672D01*
X126959156Y-105323215D01*
X127066329Y-105442886D01*
X127149005Y-105541698D01*
X127197405Y-105607540D01*
X127205307Y-105628026D01*
X127217552Y-105659850D01*
X127261708Y-105698253D01*
X127319712Y-105757912D01*
X127336176Y-105801211D01*
X127354271Y-105855887D01*
X127365375Y-105864460D01*
X127402145Y-105907772D01*
X127455027Y-106003343D01*
X127515732Y-106132823D01*
X127575971Y-106277862D01*
X127627456Y-106420111D01*
X127650431Y-106495520D01*
X127704213Y-106655315D01*
X127775660Y-106824889D01*
X127811419Y-106896825D01*
X127880676Y-107007194D01*
X127976775Y-107135030D01*
X128090687Y-107271169D01*
X128213379Y-107406449D01*
X128335820Y-107531710D01*
X128448980Y-107637788D01*
X128543827Y-107715522D01*
X128611330Y-107755751D01*
X128642458Y-107749311D01*
X128643529Y-107740986D01*
X128624071Y-107698030D01*
X128576907Y-107624285D01*
X128573614Y-107619589D01*
X128480781Y-107467903D01*
X128380836Y-107272717D01*
X128286785Y-107062480D01*
X128211634Y-106865638D01*
X128178155Y-106754706D01*
X128154892Y-106685293D01*
X128115181Y-106584210D01*
X128104941Y-106559802D01*
X128053551Y-106395653D01*
X128058481Y-106270989D01*
X128103817Y-106192306D01*
X128141685Y-106158419D01*
X128184933Y-106151799D01*
X128254846Y-106174875D01*
X128353495Y-106220789D01*
X128508237Y-106279742D01*
X128680511Y-106323092D01*
X128753134Y-106333773D01*
X128900687Y-106358877D01*
X129042290Y-106399702D01*
X129099614Y-106423746D01*
X129198355Y-106467726D01*
X129273512Y-106491638D01*
X129286379Y-106493095D01*
X129300099Y-106485564D01*
X129275191Y-106461212D01*
X129206624Y-106417133D01*
X129089362Y-106350418D01*
X128918375Y-106258160D01*
X128688628Y-106137450D01*
X128513114Y-106046346D01*
X128305090Y-105936040D01*
X128105170Y-105825197D01*
X127929281Y-105722999D01*
X127793351Y-105638626D01*
X127731269Y-105595666D01*
X127596931Y-105504949D01*
X127429229Y-105406450D01*
X127263785Y-105321055D01*
X127259154Y-105318879D01*
X127111824Y-105246988D01*
X126976760Y-105176077D01*
X126879795Y-105119794D01*
X126869264Y-105112870D01*
X126777956Y-105055651D01*
X126737380Y-105042885D01*
X126381620Y-105042885D01*
X126265933Y-104923030D01*
X126203911Y-104858267D01*
X126087318Y-104741343D01*
X125982397Y-104645369D01*
X125904162Y-104583642D01*
X125877073Y-104568816D01*
X125818002Y-104536894D01*
X125804706Y-104514783D01*
X125772230Y-104474452D01*
X125688738Y-104423496D01*
X125575134Y-104371504D01*
X125452319Y-104328064D01*
X125343089Y-104303022D01*
X125212930Y-104299766D01*
X125094964Y-104337744D01*
X125038348Y-104368294D01*
X124949022Y-104424785D01*
X124874869Y-104485956D01*
X124811273Y-104561356D01*
X124753618Y-104660529D01*
X124697288Y-104793024D01*
X124637668Y-104968385D01*
X124570141Y-105196160D01*
X124490093Y-105485896D01*
X124480029Y-105523051D01*
X124387255Y-105888241D01*
X124319282Y-106210941D01*
X124271025Y-106517131D01*
X124249935Y-106698676D01*
X124225210Y-106981163D01*
X124207680Y-107267236D01*
X124197858Y-107539546D01*
X124196261Y-107780743D01*
X123892686Y-107780743D01*
X123895168Y-107705089D01*
X123905690Y-107495958D01*
X123919819Y-107278719D01*
X123936803Y-107066619D01*
X123955886Y-106872903D01*
X123976316Y-106710819D01*
X123994719Y-106605294D01*
X124012850Y-106513965D01*
X124036361Y-106386174D01*
X124048823Y-106315268D01*
X124072644Y-106196306D01*
X124096678Y-106106038D01*
X124108564Y-106076824D01*
X124128372Y-106013005D01*
X124141682Y-105914217D01*
X124142258Y-105905559D01*
X124160063Y-105810118D01*
X124193007Y-105750031D01*
X124196988Y-105747129D01*
X124221101Y-105710787D01*
X124205447Y-105694422D01*
X124200071Y-105651821D01*
X124218730Y-105562784D01*
X124254079Y-105448669D01*
X124298773Y-105330835D01*
X124345466Y-105230642D01*
X124385544Y-105170691D01*
X124420440Y-105101250D01*
X124422647Y-105081336D01*
X124436927Y-105015007D01*
X124472276Y-104916736D01*
X124482485Y-104892704D01*
X124529126Y-104783878D01*
X124566409Y-104692703D01*
X124570689Y-104681617D01*
X124646451Y-104498303D01*
X124712818Y-104376622D01*
X124776629Y-104305285D01*
X124811403Y-104284187D01*
X124885868Y-104231519D01*
X124918253Y-104182138D01*
X124966819Y-104126689D01*
X125063357Y-104082020D01*
X125181208Y-104055520D01*
X125293717Y-104054577D01*
X125338625Y-104065610D01*
X125455244Y-104097896D01*
X125545837Y-104101224D01*
X125593752Y-104076827D01*
X125594130Y-104046708D01*
X125598130Y-104001250D01*
X125649838Y-103991907D01*
X125734079Y-104014462D01*
G37*
%TD*%
M02*
