M48
; DRILL file {KiCad 7.0.10+dfsg-1} date Thu Feb  8 12:56:09 2024
; FORMAT={-:-/ absolute / inch / decimal}
; #@! TF.CreationDate,2024-02-08T12:56:09+01:00
; #@! TF.GenerationSoftware,Kicad,Pcbnew,7.0.10+dfsg-1
; #@! TF.FileFunction,Plated,1,2,PTH
FMAT,2
INCH
; #@! TA.AperFunction,Plated,PTH,ComponentDrill
T1C0.0315
; #@! TA.AperFunction,Plated,PTH,ComponentDrill
T2C0.0320
; #@! TA.AperFunction,Plated,PTH,ComponentDrill
T3C0.0354
; #@! TA.AperFunction,Plated,PTH,ComponentDrill
T4C0.0394
; #@! TA.AperFunction,Plated,PTH,ComponentDrill
T5C0.0402
; #@! TA.AperFunction,Plated,PTH,ViaDrill
T6C0.0709
%
G90
G05
T1
X4.125Y-1.7
X4.125Y-2.1
X4.375Y-1.75
X4.775Y-1.75
T2
X4.125Y-2.225
X4.175Y-2.3
X4.225Y-2.225
X4.9Y-1.75
X4.95Y-1.825
X5.0Y-1.75
X5.475Y-2.0
X5.475Y-2.1
X5.55Y-2.05
T3
X4.1242Y-1.5909
X4.2242Y-1.5909
X4.3742Y-1.5909
X4.4742Y-1.5909
T4
X4.1213Y-4.025
X4.1213Y-4.125
X4.1213Y-4.225
X4.1213Y-4.325
X4.1213Y-4.425
X4.1213Y-4.525
X4.1213Y-4.625
X4.1213Y-4.725
X4.65Y-2.35
X4.75Y-2.35
X4.85Y-2.35
X4.95Y-2.35
X5.2004Y-1.65
X5.4996Y-1.65
T5
X4.4654Y-1.9467
X4.4654Y-2.0467
X4.4654Y-2.1467
X4.4654Y-2.2467
X4.4654Y-2.3467
X4.4654Y-2.4467
X4.4654Y-2.5467
X4.4654Y-2.6467
X4.4654Y-2.7467
X4.4654Y-2.8467
X4.4654Y-2.9467
X4.4654Y-3.0467
X4.4654Y-3.1467
X4.4654Y-3.2467
X4.4654Y-3.3467
X4.4654Y-3.4467
X4.4654Y-3.5467
X4.4654Y-3.6467
X4.4654Y-3.7467
X4.4654Y-3.8467
X4.625Y-4.075
X4.625Y-4.175
X4.625Y-4.275
X4.625Y-4.375
X4.625Y-4.475
X4.625Y-4.575
X4.625Y-4.675
X4.625Y-4.775
X4.625Y-4.875
X4.7154Y-3.8376
X4.8154Y-3.8376
X4.9154Y-3.8376
X5.1654Y-1.9467
X5.1654Y-2.0467
X5.1654Y-2.1467
X5.1654Y-2.2467
X5.1654Y-2.3467
X5.1654Y-2.4467
X5.1654Y-2.5467
X5.1654Y-2.6467
X5.1654Y-2.7467
X5.1654Y-2.8467
X5.1654Y-2.9467
X5.1654Y-3.0467
X5.1654Y-3.1467
X5.1654Y-3.2467
X5.1654Y-3.3467
X5.1654Y-3.4467
X5.1654Y-3.5467
X5.1654Y-3.6467
X5.1654Y-3.7467
X5.1654Y-3.8467
T6
X4.0Y-1.425
X4.0Y-4.975
X5.575Y-1.425
X5.575Y-4.975
M30
