%TF.GenerationSoftware,KiCad,Pcbnew,7.0.10+dfsg-1*%
%TF.CreationDate,2024-01-14T16:43:57+01:00*%
%TF.ProjectId,picoswitch,7069636f-7377-4697-9463-682e6b696361,rev?*%
%TF.SameCoordinates,Original*%
%TF.FileFunction,Copper,L1,Top*%
%TF.FilePolarity,Positive*%
%FSLAX46Y46*%
G04 Gerber Fmt 4.6, Leading zero omitted, Abs format (unit mm)*
G04 Created by KiCad (PCBNEW 7.0.10+dfsg-1) date 2024-01-14 16:43:57*
%MOMM*%
%LPD*%
G01*
G04 APERTURE LIST*
%TA.AperFunction,ComponentPad*%
%ADD10R,1.700000X1.700000*%
%TD*%
%TA.AperFunction,ComponentPad*%
%ADD11O,1.700000X1.700000*%
%TD*%
%TA.AperFunction,ComponentPad*%
%ADD12R,3.200000X3.200000*%
%TD*%
%TA.AperFunction,ComponentPad*%
%ADD13O,3.200000X3.200000*%
%TD*%
%TA.AperFunction,SMDPad,CuDef*%
%ADD14R,3.500000X1.700000*%
%TD*%
%TA.AperFunction,SMDPad,CuDef*%
%ADD15R,1.700000X3.500000*%
%TD*%
%TA.AperFunction,ComponentPad*%
%ADD16R,1.050000X1.500000*%
%TD*%
%TA.AperFunction,ComponentPad*%
%ADD17O,1.050000X1.500000*%
%TD*%
%TA.AperFunction,ViaPad*%
%ADD18C,0.800000*%
%TD*%
%TA.AperFunction,Conductor*%
%ADD19C,0.250000*%
%TD*%
G04 APERTURE END LIST*
D10*
%TO.P,J1,1,RESET_BTN*%
%TO.N,Net-(U1-GPIO15)*%
X137420000Y-113960000D03*
D11*
%TO.P,J1,2,RESET_BTN*%
%TO.N,GND*%
X137420000Y-116500000D03*
%TO.P,J1,3,POWER_BTN*%
%TO.N,Net-(U1-GPIO14)*%
X139960000Y-113960000D03*
%TO.P,J1,4,POWER_BTN*%
%TO.N,GND*%
X139960000Y-116500000D03*
%TO.P,J1,5,LED_OUT_+*%
%TO.N,Net-(J1-LED_OUT_+)*%
X142500000Y-113960000D03*
%TO.P,J1,6,LED_OUT_-*%
%TO.N,GND*%
X142500000Y-116500000D03*
%TO.P,J1,7,LED_IN_-*%
X145040000Y-113960000D03*
%TO.P,J1,8,LED_IN_+*%
%TO.N,Net-(J1-LED_IN_+)*%
X145040000Y-116500000D03*
%TO.P,J1,9,RESERVED*%
%TO.N,unconnected-(J1-RESERVED-Pad9)*%
X147580000Y-113960000D03*
%TO.P,J1,10,RESERVED*%
%TO.N,unconnected-(J1-RESERVED-Pad10)*%
X147580000Y-116500000D03*
%TO.P,J1,11,POWER_SW_-*%
%TO.N,GND*%
X150120000Y-113960000D03*
%TO.P,J1,12,POWER_SW_+*%
%TO.N,Net-(D1-A)*%
X150120000Y-116500000D03*
%TD*%
D12*
%TO.P,D1,1,K*%
%TO.N,Net-(D1-K)*%
X162000000Y-105190000D03*
D13*
%TO.P,D1,2,A*%
%TO.N,Net-(D1-A)*%
X162000000Y-109000000D03*
%TD*%
D11*
%TO.P,U1,1,GPIO0*%
%TO.N,unconnected-(U1-GPIO0-Pad1)*%
X134720000Y-60740000D03*
D14*
X133820000Y-60740000D03*
D11*
%TO.P,U1,2,GPIO1*%
%TO.N,unconnected-(U1-GPIO1-Pad2)*%
X134720000Y-63280000D03*
D14*
X133820000Y-63280000D03*
%TO.P,U1,3,GND*%
%TO.N,GND*%
X133820000Y-65820000D03*
D10*
X134720000Y-65820000D03*
D11*
%TO.P,U1,4,GPIO2*%
%TO.N,unconnected-(U1-GPIO2-Pad4)*%
X134720000Y-68360000D03*
D14*
X133820000Y-68360000D03*
D11*
%TO.P,U1,5,GPIO3*%
%TO.N,unconnected-(U1-GPIO3-Pad5)*%
X134720000Y-70900000D03*
D14*
X133820000Y-70900000D03*
D11*
%TO.P,U1,6,GPIO4*%
%TO.N,Net-(J2-TX)*%
X134720000Y-73440000D03*
D14*
X133820000Y-73440000D03*
%TO.P,U1,7,GPIO5*%
%TO.N,Net-(J2-RX)*%
X133820000Y-75980000D03*
D11*
X134720000Y-75980000D03*
D10*
%TO.P,U1,8,GND*%
%TO.N,Net-(J2-GND)*%
X134720000Y-78520000D03*
D14*
X133820000Y-78520000D03*
%TO.P,U1,9,GPIO6*%
%TO.N,unconnected-(U1-GPIO6-Pad9)*%
X133820000Y-81060000D03*
D11*
X134720000Y-81060000D03*
%TO.P,U1,10,GPIO7*%
%TO.N,unconnected-(U1-GPIO7-Pad10)*%
X134720000Y-83600000D03*
D14*
X133820000Y-83600000D03*
%TO.P,U1,11,GPIO8*%
%TO.N,unconnected-(U1-GPIO8-Pad11)*%
X133820000Y-86140000D03*
D11*
X134720000Y-86140000D03*
%TO.P,U1,12,GPIO9*%
%TO.N,unconnected-(U1-GPIO9-Pad12)*%
X134720000Y-88680000D03*
D14*
X133820000Y-88680000D03*
D10*
%TO.P,U1,13,GND*%
%TO.N,unconnected-(U1-GND-Pad13)*%
X134720000Y-91220000D03*
D14*
X133820000Y-91220000D03*
%TO.P,U1,14,GPIO10*%
%TO.N,unconnected-(U1-GPIO10-Pad14)*%
X133820000Y-93760000D03*
D11*
X134720000Y-93760000D03*
%TO.P,U1,15,GPIO11*%
%TO.N,unconnected-(U1-GPIO11-Pad15)*%
X134720000Y-96300000D03*
D14*
X133820000Y-96300000D03*
%TO.P,U1,16,GPIO12*%
%TO.N,unconnected-(U1-GPIO12-Pad16)*%
X133820000Y-98840000D03*
D11*
X134720000Y-98840000D03*
D14*
%TO.P,U1,17,GPIO13*%
%TO.N,unconnected-(U1-GPIO13-Pad17)*%
X133820000Y-101380000D03*
D11*
X134720000Y-101380000D03*
D14*
%TO.P,U1,18,GND*%
%TO.N,GND*%
X133820000Y-103920000D03*
D10*
X134720000Y-103920000D03*
D11*
%TO.P,U1,19,GPIO14*%
%TO.N,Net-(U1-GPIO14)*%
X134720000Y-106460000D03*
D14*
X133820000Y-106460000D03*
%TO.P,U1,20,GPIO15*%
%TO.N,Net-(U1-GPIO15)*%
X133820000Y-109000000D03*
D11*
X134720000Y-109000000D03*
D14*
%TO.P,U1,21,GPIO16*%
%TO.N,Net-(D1-K)*%
X153400000Y-109000000D03*
D11*
X152500000Y-109000000D03*
D14*
%TO.P,U1,22,GPIO17*%
%TO.N,unconnected-(U1-GPIO17-Pad22)*%
X153400000Y-106460000D03*
D11*
X152500000Y-106460000D03*
D14*
%TO.P,U1,23,GND*%
%TO.N,GND*%
X153400000Y-103920000D03*
D10*
X152500000Y-103920000D03*
D11*
%TO.P,U1,24,GPIO18*%
%TO.N,unconnected-(U1-GPIO18-Pad24)*%
X152500000Y-101380000D03*
D14*
X153400000Y-101380000D03*
%TO.P,U1,25,GPIO19*%
%TO.N,Net-(Q1-C)*%
X153400000Y-98840000D03*
D11*
X152500000Y-98840000D03*
D14*
%TO.P,U1,26,GPIO20*%
%TO.N,Net-(Q2-B)*%
X153400000Y-96300000D03*
D11*
X152500000Y-96300000D03*
%TO.P,U1,27,GPIO21*%
%TO.N,unconnected-(U1-GPIO21-Pad27)*%
X152500000Y-93760000D03*
D14*
X153400000Y-93760000D03*
D10*
%TO.P,U1,28,GND*%
%TO.N,unconnected-(U1-GND-Pad28)*%
X152500000Y-91220000D03*
D14*
X153400000Y-91220000D03*
D11*
%TO.P,U1,29,GPIO22*%
%TO.N,unconnected-(U1-GPIO22-Pad29)*%
X152500000Y-88680000D03*
D14*
X153400000Y-88680000D03*
%TO.P,U1,30,RUN*%
%TO.N,unconnected-(U1-RUN-Pad30)*%
X153400000Y-86140000D03*
D11*
X152500000Y-86140000D03*
%TO.P,U1,31,GPIO26_ADC0*%
%TO.N,unconnected-(U1-GPIO26_ADC0-Pad31)*%
X152500000Y-83600000D03*
D14*
X153400000Y-83600000D03*
D11*
%TO.P,U1,32,GPIO27_ADC1*%
%TO.N,unconnected-(U1-GPIO27_ADC1-Pad32)*%
X152500000Y-81060000D03*
D14*
X153400000Y-81060000D03*
%TO.P,U1,33,AGND*%
%TO.N,unconnected-(U1-AGND-Pad33)*%
X153400000Y-78520000D03*
D10*
X152500000Y-78520000D03*
D14*
%TO.P,U1,34,GPIO28_ADC2*%
%TO.N,unconnected-(U1-GPIO28_ADC2-Pad34)*%
X153400000Y-75980000D03*
D11*
X152500000Y-75980000D03*
D14*
%TO.P,U1,35,ADC_VREF*%
%TO.N,unconnected-(U1-ADC_VREF-Pad35)*%
X153400000Y-73440000D03*
D11*
X152500000Y-73440000D03*
%TO.P,U1,36,3V3*%
%TO.N,+3V3*%
X152500000Y-70900000D03*
D14*
X153400000Y-70900000D03*
%TO.P,U1,37,3V3_EN*%
%TO.N,unconnected-(U1-3V3_EN-Pad37)*%
X153400000Y-68360000D03*
D11*
X152500000Y-68360000D03*
D14*
%TO.P,U1,38,GND*%
%TO.N,GND*%
X153400000Y-65820000D03*
D10*
X152500000Y-65820000D03*
D14*
%TO.P,U1,39,VSYS*%
%TO.N,unconnected-(U1-VSYS-Pad39)*%
X153400000Y-63280000D03*
D11*
X152500000Y-63280000D03*
%TO.P,U1,40,VBUS*%
%TO.N,+5V*%
X152500000Y-60740000D03*
D14*
X153400000Y-60740000D03*
D15*
%TO.P,U1,41,SWCLK*%
%TO.N,unconnected-(U1-SWCLK-Pad41)*%
X141070000Y-109670000D03*
D11*
X141070000Y-108770000D03*
D10*
%TO.P,U1,42,GND*%
%TO.N,unconnected-(U1-GND-Pad42)*%
X143610000Y-108770000D03*
D15*
X143610000Y-109670000D03*
D11*
%TO.P,U1,43,SWDIO*%
%TO.N,unconnected-(U1-SWDIO-Pad43)*%
X146150000Y-108770000D03*
D15*
X146150000Y-109670000D03*
%TD*%
D16*
%TO.P,Q2,1,C*%
%TO.N,Net-(J1-LED_OUT_+)*%
X155230000Y-115500000D03*
D17*
%TO.P,Q2,2,B*%
%TO.N,Net-(Q2-B)*%
X156500000Y-115500000D03*
%TO.P,Q2,3,E*%
%TO.N,+5V*%
X157770000Y-115500000D03*
%TD*%
%TO.P,Q1,3,E*%
%TO.N,+3V3*%
X132500000Y-115500000D03*
%TO.P,Q1,2,B*%
%TO.N,Net-(J1-LED_IN_+)*%
X131230000Y-115500000D03*
D16*
%TO.P,Q1,1,C*%
%TO.N,Net-(Q1-C)*%
X129960000Y-115500000D03*
%TD*%
D10*
%TO.P,J2,1,TX*%
%TO.N,Net-(J2-TX)*%
X127500000Y-73420000D03*
D11*
%TO.P,J2,2,RX*%
%TO.N,Net-(J2-RX)*%
X127500000Y-75960000D03*
%TO.P,J2,3,GND*%
%TO.N,Net-(J2-GND)*%
X127500000Y-78500000D03*
%TD*%
D18*
%TO.N,Net-(Q1-C)*%
X143000000Y-103000000D03*
%TD*%
D19*
%TO.N,GND*%
X142500000Y-116500000D02*
X145040000Y-113960000D01*
%TO.N,Net-(Q1-C)*%
X143000000Y-103000000D02*
X148340000Y-103000000D01*
X148340000Y-103000000D02*
X152500000Y-98840000D01*
%TO.N,Net-(D1-K)*%
X162000000Y-105190000D02*
X158190000Y-109000000D01*
X158190000Y-109000000D02*
X152500000Y-109000000D01*
%TO.N,Net-(D1-A)*%
X150120000Y-116500000D02*
X150970000Y-117350000D01*
X150970000Y-117350000D02*
X157650000Y-117350000D01*
X157650000Y-117350000D02*
X162000000Y-113000000D01*
X162000000Y-113000000D02*
X162000000Y-109000000D01*
%TO.N,Net-(U1-GPIO14)*%
X139960000Y-113960000D02*
X139960000Y-111700000D01*
X139960000Y-111700000D02*
X134720000Y-106460000D01*
%TO.N,Net-(U1-GPIO15)*%
X137420000Y-113960000D02*
X137420000Y-111700000D01*
X137420000Y-111700000D02*
X134720000Y-109000000D01*
%TO.N,Net-(J1-LED_OUT_+)*%
X155230000Y-115500000D02*
X152515000Y-112785000D01*
X152515000Y-112785000D02*
X143675000Y-112785000D01*
X143675000Y-112785000D02*
X142500000Y-113960000D01*
%TO.N,Net-(J1-LED_IN_+)*%
X131230000Y-115500000D02*
X131230000Y-115725000D01*
X131230000Y-115725000D02*
X133180000Y-117675000D01*
X133180000Y-117675000D02*
X143865000Y-117675000D01*
X143865000Y-117675000D02*
X145040000Y-116500000D01*
%TO.N,Net-(J2-GND)*%
X127500000Y-78500000D02*
X134700000Y-78500000D01*
X134700000Y-78500000D02*
X134720000Y-78520000D01*
%TO.N,Net-(J2-RX)*%
X127500000Y-75960000D02*
X134700000Y-75960000D01*
X134700000Y-75960000D02*
X134720000Y-75980000D01*
%TO.N,Net-(J2-TX)*%
X127500000Y-73420000D02*
X134700000Y-73420000D01*
X134700000Y-73420000D02*
X134720000Y-73440000D01*
%TD*%
%TA.AperFunction,Conductor*%
%TO.N,GND*%
G36*
X139500507Y-116290156D02*
G01*
X139460000Y-116428111D01*
X139460000Y-116571889D01*
X139500507Y-116709844D01*
X139526314Y-116750000D01*
X137853686Y-116750000D01*
X137879493Y-116709844D01*
X137920000Y-116571889D01*
X137920000Y-116428111D01*
X137879493Y-116290156D01*
X137853686Y-116250000D01*
X139526314Y-116250000D01*
X139500507Y-116290156D01*
G37*
%TD.AperFunction*%
%TA.AperFunction,Conductor*%
G36*
X142040507Y-116290156D02*
G01*
X142000000Y-116428111D01*
X142000000Y-116571889D01*
X142040507Y-116709844D01*
X142066314Y-116750000D01*
X140393686Y-116750000D01*
X140419493Y-116709844D01*
X140460000Y-116571889D01*
X140460000Y-116428111D01*
X140419493Y-116290156D01*
X140393686Y-116250000D01*
X142066314Y-116250000D01*
X142040507Y-116290156D01*
G37*
%TD.AperFunction*%
%TA.AperFunction,Conductor*%
G36*
X152271587Y-113430185D02*
G01*
X152292229Y-113446819D01*
X154168181Y-115322772D01*
X154201666Y-115384095D01*
X154204500Y-115410453D01*
X154204500Y-116297870D01*
X154204501Y-116297876D01*
X154210908Y-116357483D01*
X154261202Y-116492328D01*
X154261204Y-116492331D01*
X154286550Y-116526189D01*
X154310967Y-116591654D01*
X154296115Y-116659926D01*
X154246710Y-116709332D01*
X154187283Y-116724500D01*
X151591340Y-116724500D01*
X151524301Y-116704815D01*
X151478546Y-116652011D01*
X151467812Y-116589693D01*
X151475659Y-116500001D01*
X151475659Y-116499999D01*
X151457975Y-116297876D01*
X151455063Y-116264592D01*
X151393903Y-116036337D01*
X151294035Y-115822171D01*
X151288731Y-115814595D01*
X151158494Y-115628597D01*
X150991402Y-115461506D01*
X150991401Y-115461505D01*
X150823844Y-115344180D01*
X150805405Y-115331269D01*
X150761781Y-115276692D01*
X150754588Y-115207193D01*
X150786110Y-115144839D01*
X150805405Y-115128119D01*
X150991082Y-114998105D01*
X151158105Y-114831082D01*
X151293600Y-114637578D01*
X151393429Y-114423492D01*
X151393432Y-114423486D01*
X151450636Y-114210000D01*
X150553686Y-114210000D01*
X150579493Y-114169844D01*
X150620000Y-114031889D01*
X150620000Y-113888111D01*
X150579493Y-113750156D01*
X150553686Y-113710000D01*
X151450636Y-113710000D01*
X151450635Y-113709999D01*
X151412210Y-113566594D01*
X151413873Y-113496744D01*
X151453035Y-113438881D01*
X151517264Y-113411377D01*
X151531985Y-113410500D01*
X152204548Y-113410500D01*
X152271587Y-113430185D01*
G37*
%TD.AperFunction*%
%TA.AperFunction,Conductor*%
G36*
X143855160Y-114626110D02*
G01*
X143871879Y-114645405D01*
X144001890Y-114831078D01*
X144168917Y-114998105D01*
X144354595Y-115128119D01*
X144398219Y-115182696D01*
X144405412Y-115252195D01*
X144373890Y-115314549D01*
X144354595Y-115331269D01*
X144168594Y-115461508D01*
X144001508Y-115628594D01*
X143871269Y-115814595D01*
X143816692Y-115858219D01*
X143747193Y-115865412D01*
X143684839Y-115833890D01*
X143668119Y-115814594D01*
X143538113Y-115628926D01*
X143538108Y-115628920D01*
X143371078Y-115461890D01*
X143185405Y-115331879D01*
X143141780Y-115277302D01*
X143134588Y-115207804D01*
X143166110Y-115145449D01*
X143185406Y-115128730D01*
X143186786Y-115127764D01*
X143371401Y-114998495D01*
X143538495Y-114831401D01*
X143668730Y-114645405D01*
X143723307Y-114601781D01*
X143792805Y-114594587D01*
X143855160Y-114626110D01*
G37*
%TD.AperFunction*%
%TA.AperFunction,Conductor*%
G36*
X165443039Y-59019685D02*
G01*
X165488794Y-59072489D01*
X165500000Y-59124000D01*
X165500000Y-123876000D01*
X165480315Y-123943039D01*
X165427511Y-123988794D01*
X165376000Y-124000000D01*
X125124000Y-124000000D01*
X125056961Y-123980315D01*
X125011206Y-123927511D01*
X125000000Y-123876000D01*
X125000000Y-78500000D01*
X126144341Y-78500000D01*
X126164936Y-78735403D01*
X126164938Y-78735413D01*
X126226094Y-78963655D01*
X126226096Y-78963659D01*
X126226097Y-78963663D01*
X126301563Y-79125500D01*
X126325965Y-79177830D01*
X126325967Y-79177834D01*
X126434281Y-79332521D01*
X126461505Y-79371401D01*
X126628599Y-79538495D01*
X126725384Y-79606265D01*
X126822165Y-79674032D01*
X126822167Y-79674033D01*
X126822170Y-79674035D01*
X127036337Y-79773903D01*
X127036343Y-79773904D01*
X127036344Y-79773905D01*
X127091285Y-79788626D01*
X127264592Y-79835063D01*
X127452918Y-79851539D01*
X127499999Y-79855659D01*
X127500000Y-79855659D01*
X127500001Y-79855659D01*
X127539234Y-79852226D01*
X127735408Y-79835063D01*
X127963663Y-79773903D01*
X128177830Y-79674035D01*
X128371401Y-79538495D01*
X128538495Y-79371401D01*
X128673652Y-79178377D01*
X128728229Y-79134752D01*
X128775227Y-79125500D01*
X131445501Y-79125500D01*
X131512540Y-79145185D01*
X131558295Y-79197989D01*
X131569501Y-79249500D01*
X131569501Y-79417876D01*
X131575908Y-79477483D01*
X131626202Y-79612328D01*
X131626203Y-79612330D01*
X131703578Y-79715689D01*
X131727995Y-79781153D01*
X131713144Y-79849426D01*
X131703578Y-79864311D01*
X131626203Y-79967669D01*
X131626202Y-79967671D01*
X131575908Y-80102517D01*
X131569501Y-80162116D01*
X131569501Y-80162123D01*
X131569500Y-80162135D01*
X131569500Y-81957870D01*
X131569501Y-81957876D01*
X131575908Y-82017483D01*
X131626202Y-82152328D01*
X131626203Y-82152330D01*
X131703578Y-82255689D01*
X131727995Y-82321153D01*
X131713144Y-82389426D01*
X131703578Y-82404311D01*
X131626203Y-82507669D01*
X131626202Y-82507671D01*
X131575908Y-82642517D01*
X131569501Y-82702116D01*
X131569501Y-82702123D01*
X131569500Y-82702135D01*
X131569500Y-84497870D01*
X131569501Y-84497876D01*
X131575908Y-84557483D01*
X131626202Y-84692328D01*
X131626203Y-84692330D01*
X131703578Y-84795689D01*
X131727995Y-84861153D01*
X131713144Y-84929426D01*
X131703578Y-84944311D01*
X131626203Y-85047669D01*
X131626202Y-85047671D01*
X131575908Y-85182517D01*
X131569501Y-85242116D01*
X131569501Y-85242123D01*
X131569500Y-85242135D01*
X131569500Y-87037870D01*
X131569501Y-87037876D01*
X131575908Y-87097483D01*
X131626202Y-87232328D01*
X131626203Y-87232330D01*
X131703578Y-87335689D01*
X131727995Y-87401153D01*
X131713144Y-87469426D01*
X131703578Y-87484311D01*
X131626203Y-87587669D01*
X131626202Y-87587671D01*
X131575908Y-87722517D01*
X131569501Y-87782116D01*
X131569501Y-87782123D01*
X131569500Y-87782135D01*
X131569500Y-89577870D01*
X131569501Y-89577876D01*
X131575908Y-89637483D01*
X131626202Y-89772328D01*
X131626203Y-89772330D01*
X131703578Y-89875689D01*
X131727995Y-89941153D01*
X131713144Y-90009426D01*
X131703578Y-90024311D01*
X131626203Y-90127669D01*
X131626202Y-90127671D01*
X131575908Y-90262517D01*
X131569501Y-90322116D01*
X131569501Y-90322123D01*
X131569500Y-90322135D01*
X131569500Y-92117870D01*
X131569501Y-92117876D01*
X131575908Y-92177483D01*
X131626202Y-92312328D01*
X131626203Y-92312330D01*
X131703578Y-92415689D01*
X131727995Y-92481153D01*
X131713144Y-92549426D01*
X131703578Y-92564311D01*
X131626203Y-92667669D01*
X131626202Y-92667671D01*
X131575908Y-92802517D01*
X131569501Y-92862116D01*
X131569501Y-92862123D01*
X131569500Y-92862135D01*
X131569500Y-94657870D01*
X131569501Y-94657876D01*
X131575908Y-94717483D01*
X131626202Y-94852328D01*
X131626203Y-94852330D01*
X131703578Y-94955689D01*
X131727995Y-95021153D01*
X131713144Y-95089426D01*
X131703578Y-95104311D01*
X131626203Y-95207669D01*
X131626202Y-95207671D01*
X131575908Y-95342517D01*
X131569501Y-95402116D01*
X131569501Y-95402123D01*
X131569500Y-95402135D01*
X131569500Y-97197870D01*
X131569501Y-97197876D01*
X131575908Y-97257483D01*
X131626202Y-97392328D01*
X131626203Y-97392330D01*
X131703578Y-97495689D01*
X131727995Y-97561153D01*
X131713144Y-97629426D01*
X131703578Y-97644311D01*
X131626203Y-97747669D01*
X131626202Y-97747671D01*
X131575908Y-97882517D01*
X131569501Y-97942116D01*
X131569501Y-97942123D01*
X131569500Y-97942135D01*
X131569500Y-99737870D01*
X131569501Y-99737876D01*
X131575908Y-99797483D01*
X131626202Y-99932328D01*
X131626203Y-99932330D01*
X131703578Y-100035689D01*
X131727995Y-100101153D01*
X131713144Y-100169426D01*
X131703578Y-100184311D01*
X131626203Y-100287669D01*
X131626202Y-100287671D01*
X131575908Y-100422517D01*
X131569501Y-100482116D01*
X131569501Y-100482123D01*
X131569500Y-100482135D01*
X131569500Y-102277870D01*
X131569501Y-102277876D01*
X131575908Y-102337483D01*
X131626202Y-102472328D01*
X131626206Y-102472335D01*
X131703889Y-102576105D01*
X131728307Y-102641569D01*
X131713456Y-102709842D01*
X131703890Y-102724727D01*
X131626647Y-102827910D01*
X131626645Y-102827913D01*
X131576403Y-102962620D01*
X131576401Y-102962627D01*
X131570000Y-103022155D01*
X131570000Y-103670000D01*
X134274428Y-103670000D01*
X134251318Y-103705960D01*
X134210000Y-103846673D01*
X134210000Y-103993327D01*
X134251318Y-104134040D01*
X134274428Y-104170000D01*
X131570000Y-104170000D01*
X131570000Y-104817844D01*
X131576401Y-104877372D01*
X131576403Y-104877379D01*
X131626645Y-105012086D01*
X131626646Y-105012088D01*
X131703890Y-105115272D01*
X131728307Y-105180736D01*
X131713456Y-105249009D01*
X131703890Y-105263894D01*
X131626204Y-105367669D01*
X131626202Y-105367671D01*
X131575908Y-105502517D01*
X131569501Y-105562116D01*
X131569501Y-105562123D01*
X131569500Y-105562135D01*
X131569500Y-107357870D01*
X131569501Y-107357876D01*
X131575908Y-107417483D01*
X131626202Y-107552328D01*
X131626203Y-107552330D01*
X131703578Y-107655689D01*
X131727995Y-107721153D01*
X131713144Y-107789426D01*
X131703578Y-107804311D01*
X131626203Y-107907669D01*
X131626202Y-107907671D01*
X131575908Y-108042517D01*
X131569501Y-108102116D01*
X131569501Y-108102123D01*
X131569500Y-108102135D01*
X131569500Y-109897870D01*
X131569501Y-109897876D01*
X131575908Y-109957483D01*
X131626202Y-110092328D01*
X131626206Y-110092335D01*
X131712452Y-110207544D01*
X131712455Y-110207547D01*
X131827664Y-110293793D01*
X131827671Y-110293797D01*
X131962517Y-110344091D01*
X131962516Y-110344091D01*
X131969444Y-110344835D01*
X132022127Y-110350500D01*
X134655611Y-110350499D01*
X134666419Y-110350971D01*
X134719999Y-110355659D01*
X134720000Y-110355659D01*
X134720001Y-110355659D01*
X134773580Y-110350971D01*
X134784388Y-110350499D01*
X135134547Y-110350499D01*
X135201586Y-110370184D01*
X135222228Y-110386818D01*
X136758181Y-111922771D01*
X136791666Y-111984094D01*
X136794500Y-112010452D01*
X136794500Y-112485500D01*
X136774815Y-112552539D01*
X136722011Y-112598294D01*
X136670501Y-112609500D01*
X136522130Y-112609500D01*
X136522123Y-112609501D01*
X136462516Y-112615908D01*
X136327671Y-112666202D01*
X136327664Y-112666206D01*
X136212455Y-112752452D01*
X136212452Y-112752455D01*
X136126206Y-112867664D01*
X136126202Y-112867671D01*
X136075908Y-113002517D01*
X136069501Y-113062116D01*
X136069500Y-113062135D01*
X136069500Y-114857870D01*
X136069501Y-114857876D01*
X136075908Y-114917483D01*
X136126202Y-115052328D01*
X136126206Y-115052335D01*
X136212452Y-115167544D01*
X136212455Y-115167547D01*
X136327664Y-115253793D01*
X136327671Y-115253797D01*
X136327674Y-115253798D01*
X136459598Y-115303002D01*
X136515531Y-115344873D01*
X136539949Y-115410337D01*
X136525098Y-115478610D01*
X136503947Y-115506865D01*
X136381886Y-115628926D01*
X136246400Y-115822420D01*
X136246399Y-115822422D01*
X136146570Y-116036507D01*
X136146567Y-116036513D01*
X136089364Y-116249999D01*
X136089364Y-116250000D01*
X136986314Y-116250000D01*
X136960507Y-116290156D01*
X136920000Y-116428111D01*
X136920000Y-116571889D01*
X136960507Y-116709844D01*
X136986314Y-116750000D01*
X136089364Y-116750000D01*
X136127790Y-116893406D01*
X136126127Y-116963256D01*
X136086965Y-117021119D01*
X136022736Y-117048623D01*
X136008015Y-117049500D01*
X133490453Y-117049500D01*
X133423414Y-117029815D01*
X133402772Y-117013181D01*
X133113703Y-116724112D01*
X133080218Y-116662789D01*
X133085202Y-116593097D01*
X133122717Y-116540581D01*
X133228647Y-116453647D01*
X133356798Y-116297494D01*
X133452023Y-116119341D01*
X133510662Y-115926033D01*
X133525500Y-115775380D01*
X133525500Y-115224620D01*
X133510662Y-115073967D01*
X133452023Y-114880659D01*
X133452021Y-114880656D01*
X133452021Y-114880654D01*
X133356801Y-114702511D01*
X133356799Y-114702509D01*
X133356798Y-114702506D01*
X133309937Y-114645405D01*
X133228647Y-114546352D01*
X133078940Y-114423492D01*
X133072494Y-114418202D01*
X133072492Y-114418201D01*
X133072488Y-114418198D01*
X132894345Y-114322978D01*
X132701031Y-114264337D01*
X132500000Y-114244538D01*
X132298968Y-114264337D01*
X132105654Y-114322978D01*
X131923453Y-114420367D01*
X131855050Y-114434609D01*
X131806547Y-114420367D01*
X131624345Y-114322978D01*
X131431031Y-114264337D01*
X131230000Y-114244538D01*
X131028968Y-114264337D01*
X130890959Y-114306202D01*
X130835659Y-114322977D01*
X130835658Y-114322977D01*
X130834575Y-114323306D01*
X130764708Y-114323929D01*
X130735618Y-114309529D01*
X130735114Y-114310454D01*
X130727328Y-114306202D01*
X130592482Y-114255908D01*
X130592483Y-114255908D01*
X130532883Y-114249501D01*
X130532881Y-114249500D01*
X130532873Y-114249500D01*
X130532864Y-114249500D01*
X129387129Y-114249500D01*
X129387123Y-114249501D01*
X129327516Y-114255908D01*
X129192671Y-114306202D01*
X129192664Y-114306206D01*
X129077455Y-114392452D01*
X129077452Y-114392455D01*
X128991206Y-114507664D01*
X128991202Y-114507671D01*
X128940908Y-114642517D01*
X128934501Y-114702116D01*
X128934500Y-114702135D01*
X128934500Y-116297870D01*
X128934501Y-116297876D01*
X128940908Y-116357483D01*
X128991202Y-116492328D01*
X128991206Y-116492335D01*
X129077452Y-116607544D01*
X129077455Y-116607547D01*
X129192664Y-116693793D01*
X129192671Y-116693797D01*
X129327517Y-116744091D01*
X129327516Y-116744091D01*
X129334444Y-116744835D01*
X129387127Y-116750500D01*
X130532872Y-116750499D01*
X130592483Y-116744091D01*
X130727331Y-116693796D01*
X130727335Y-116693792D01*
X130735118Y-116689544D01*
X130736252Y-116691621D01*
X130789715Y-116671671D01*
X130834576Y-116676694D01*
X130835656Y-116677021D01*
X130835659Y-116677023D01*
X131028967Y-116735662D01*
X131230000Y-116755462D01*
X131304428Y-116748131D01*
X131373072Y-116761149D01*
X131404262Y-116783853D01*
X132679197Y-118058788D01*
X132689022Y-118071051D01*
X132689243Y-118070869D01*
X132694211Y-118076874D01*
X132743222Y-118122899D01*
X132746021Y-118125612D01*
X132765522Y-118145114D01*
X132765526Y-118145117D01*
X132765529Y-118145120D01*
X132768702Y-118147581D01*
X132777574Y-118155159D01*
X132809418Y-118185062D01*
X132826976Y-118194714D01*
X132843235Y-118205395D01*
X132859064Y-118217673D01*
X132899155Y-118235021D01*
X132909626Y-118240151D01*
X132932180Y-118252550D01*
X132947902Y-118261194D01*
X132947904Y-118261195D01*
X132947908Y-118261197D01*
X132967316Y-118266180D01*
X132985719Y-118272481D01*
X133004101Y-118280436D01*
X133004102Y-118280436D01*
X133004104Y-118280437D01*
X133047250Y-118287270D01*
X133058672Y-118289636D01*
X133100981Y-118300500D01*
X133121016Y-118300500D01*
X133140414Y-118302026D01*
X133160194Y-118305159D01*
X133160195Y-118305160D01*
X133160195Y-118305159D01*
X133160196Y-118305160D01*
X133203675Y-118301050D01*
X133215344Y-118300500D01*
X143782257Y-118300500D01*
X143797877Y-118302224D01*
X143797904Y-118301939D01*
X143805660Y-118302671D01*
X143805667Y-118302673D01*
X143872873Y-118300561D01*
X143876768Y-118300500D01*
X143904346Y-118300500D01*
X143904350Y-118300500D01*
X143908324Y-118299997D01*
X143919963Y-118299080D01*
X143963627Y-118297709D01*
X143982869Y-118292117D01*
X144001912Y-118288174D01*
X144021792Y-118285664D01*
X144062401Y-118269585D01*
X144073444Y-118265803D01*
X144115390Y-118253618D01*
X144132629Y-118243422D01*
X144150103Y-118234862D01*
X144168727Y-118227488D01*
X144168727Y-118227487D01*
X144168732Y-118227486D01*
X144204083Y-118201800D01*
X144213814Y-118195408D01*
X144251420Y-118173170D01*
X144265589Y-118158999D01*
X144280379Y-118146368D01*
X144296587Y-118134594D01*
X144324438Y-118100926D01*
X144332279Y-118092309D01*
X144584353Y-117840235D01*
X144645674Y-117806752D01*
X144704125Y-117808143D01*
X144738780Y-117817428D01*
X144804592Y-117835063D01*
X144992918Y-117851539D01*
X145039999Y-117855659D01*
X145040000Y-117855659D01*
X145040001Y-117855659D01*
X145079234Y-117852226D01*
X145275408Y-117835063D01*
X145503663Y-117773903D01*
X145717830Y-117674035D01*
X145911401Y-117538495D01*
X146078495Y-117371401D01*
X146208425Y-117185842D01*
X146263002Y-117142217D01*
X146332500Y-117135023D01*
X146394855Y-117166546D01*
X146411575Y-117185842D01*
X146541505Y-117371401D01*
X146708599Y-117538495D01*
X146805384Y-117606265D01*
X146902165Y-117674032D01*
X146902167Y-117674033D01*
X146902170Y-117674035D01*
X147116337Y-117773903D01*
X147116343Y-117773904D01*
X147116344Y-117773905D01*
X147171285Y-117788626D01*
X147344592Y-117835063D01*
X147532918Y-117851539D01*
X147579999Y-117855659D01*
X147580000Y-117855659D01*
X147580001Y-117855659D01*
X147619234Y-117852226D01*
X147815408Y-117835063D01*
X148043663Y-117773903D01*
X148257830Y-117674035D01*
X148451401Y-117538495D01*
X148618495Y-117371401D01*
X148748425Y-117185842D01*
X148803002Y-117142217D01*
X148872500Y-117135023D01*
X148934855Y-117166546D01*
X148951575Y-117185842D01*
X149081505Y-117371401D01*
X149248599Y-117538495D01*
X149345384Y-117606265D01*
X149442165Y-117674032D01*
X149442167Y-117674033D01*
X149442170Y-117674035D01*
X149656337Y-117773903D01*
X149656343Y-117773904D01*
X149656344Y-117773905D01*
X149711285Y-117788626D01*
X149884592Y-117835063D01*
X150072918Y-117851539D01*
X150119999Y-117855659D01*
X150120000Y-117855659D01*
X150120001Y-117855659D01*
X150159234Y-117852226D01*
X150355408Y-117835063D01*
X150457875Y-117807607D01*
X150527721Y-117809270D01*
X150574847Y-117836988D01*
X150599418Y-117860062D01*
X150599422Y-117860064D01*
X150616973Y-117869713D01*
X150633231Y-117880392D01*
X150649064Y-117892674D01*
X150684410Y-117907968D01*
X150689155Y-117910022D01*
X150699635Y-117915155D01*
X150737908Y-117936197D01*
X150757312Y-117941179D01*
X150775710Y-117947478D01*
X150794105Y-117955438D01*
X150837254Y-117962271D01*
X150848680Y-117964638D01*
X150890981Y-117975500D01*
X150911016Y-117975500D01*
X150930413Y-117977026D01*
X150950196Y-117980160D01*
X150993675Y-117976050D01*
X151005344Y-117975500D01*
X157567257Y-117975500D01*
X157582877Y-117977224D01*
X157582904Y-117976939D01*
X157590660Y-117977671D01*
X157590667Y-117977673D01*
X157657873Y-117975561D01*
X157661768Y-117975500D01*
X157689346Y-117975500D01*
X157689350Y-117975500D01*
X157693324Y-117974997D01*
X157704963Y-117974080D01*
X157748627Y-117972709D01*
X157767869Y-117967117D01*
X157786912Y-117963174D01*
X157806792Y-117960664D01*
X157847401Y-117944585D01*
X157858444Y-117940803D01*
X157900390Y-117928618D01*
X157917629Y-117918422D01*
X157935103Y-117909862D01*
X157953727Y-117902488D01*
X157953727Y-117902487D01*
X157953732Y-117902486D01*
X157989083Y-117876800D01*
X157998814Y-117870408D01*
X158036420Y-117848170D01*
X158050589Y-117833999D01*
X158065379Y-117821368D01*
X158081587Y-117809594D01*
X158109438Y-117775926D01*
X158117279Y-117767309D01*
X162383788Y-113500801D01*
X162396042Y-113490986D01*
X162395859Y-113490764D01*
X162401868Y-113485791D01*
X162401877Y-113485786D01*
X162447949Y-113436722D01*
X162450566Y-113434023D01*
X162470120Y-113414471D01*
X162472576Y-113411303D01*
X162480156Y-113402427D01*
X162510062Y-113370582D01*
X162519715Y-113353020D01*
X162530389Y-113336770D01*
X162542673Y-113320936D01*
X162560019Y-113280850D01*
X162565157Y-113270362D01*
X162586196Y-113232093D01*
X162586197Y-113232092D01*
X162591177Y-113212691D01*
X162597478Y-113194288D01*
X162605438Y-113175896D01*
X162612272Y-113132741D01*
X162614635Y-113121331D01*
X162625500Y-113079019D01*
X162625500Y-113058983D01*
X162627027Y-113039582D01*
X162630160Y-113019804D01*
X162626050Y-112976324D01*
X162625500Y-112964655D01*
X162625500Y-111099647D01*
X162645185Y-111032608D01*
X162697989Y-110986853D01*
X162701184Y-110985559D01*
X162701173Y-110985532D01*
X162968617Y-110869365D01*
X162968620Y-110869363D01*
X162968625Y-110869361D01*
X163214147Y-110720055D01*
X163437053Y-110538708D01*
X163633189Y-110328698D01*
X163798901Y-110093936D01*
X163931104Y-109838797D01*
X164027334Y-109568032D01*
X164085798Y-109286686D01*
X164105408Y-109000000D01*
X164085798Y-108713314D01*
X164027334Y-108431968D01*
X163931105Y-108161206D01*
X163931106Y-108161206D01*
X163798901Y-107906064D01*
X163633187Y-107671299D01*
X163472397Y-107499136D01*
X163441025Y-107436705D01*
X163448385Y-107367224D01*
X163492142Y-107312753D01*
X163558402Y-107290585D01*
X163563020Y-107290499D01*
X163647871Y-107290499D01*
X163647872Y-107290499D01*
X163707483Y-107284091D01*
X163842331Y-107233796D01*
X163957546Y-107147546D01*
X164043796Y-107032331D01*
X164094091Y-106897483D01*
X164100500Y-106837873D01*
X164100499Y-103542128D01*
X164094091Y-103482517D01*
X164092072Y-103477105D01*
X164043797Y-103347671D01*
X164043793Y-103347664D01*
X163957547Y-103232455D01*
X163957544Y-103232452D01*
X163842335Y-103146206D01*
X163842328Y-103146202D01*
X163707482Y-103095908D01*
X163707483Y-103095908D01*
X163647883Y-103089501D01*
X163647881Y-103089500D01*
X163647873Y-103089500D01*
X163647864Y-103089500D01*
X160352129Y-103089500D01*
X160352123Y-103089501D01*
X160292516Y-103095908D01*
X160157671Y-103146202D01*
X160157664Y-103146206D01*
X160042455Y-103232452D01*
X160042452Y-103232455D01*
X159956206Y-103347664D01*
X159956202Y-103347671D01*
X159905908Y-103482517D01*
X159899501Y-103542116D01*
X159899501Y-103542123D01*
X159899500Y-103542135D01*
X159899500Y-106354546D01*
X159879815Y-106421585D01*
X159863181Y-106442227D01*
X157967228Y-108338181D01*
X157905905Y-108371666D01*
X157879547Y-108374500D01*
X155774499Y-108374500D01*
X155707460Y-108354815D01*
X155661705Y-108302011D01*
X155650499Y-108250500D01*
X155650499Y-108102129D01*
X155650498Y-108102123D01*
X155650497Y-108102116D01*
X155644091Y-108042517D01*
X155593796Y-107907669D01*
X155516421Y-107804309D01*
X155492004Y-107738848D01*
X155506855Y-107670575D01*
X155516416Y-107655696D01*
X155593796Y-107552331D01*
X155644091Y-107417483D01*
X155650500Y-107357873D01*
X155650499Y-105562128D01*
X155644091Y-105502517D01*
X155593796Y-105367669D01*
X155516109Y-105263893D01*
X155491692Y-105198430D01*
X155506543Y-105130157D01*
X155516110Y-105115271D01*
X155593352Y-105012089D01*
X155593354Y-105012086D01*
X155643596Y-104877379D01*
X155643598Y-104877372D01*
X155649999Y-104817844D01*
X155650000Y-104817827D01*
X155650000Y-104170000D01*
X152945572Y-104170000D01*
X152968682Y-104134040D01*
X153010000Y-103993327D01*
X153010000Y-103846673D01*
X152968682Y-103705960D01*
X152945572Y-103670000D01*
X155650000Y-103670000D01*
X155650000Y-103022172D01*
X155649999Y-103022155D01*
X155643598Y-102962627D01*
X155643596Y-102962620D01*
X155593354Y-102827913D01*
X155593352Y-102827910D01*
X155516110Y-102724729D01*
X155491692Y-102659265D01*
X155506543Y-102590992D01*
X155516105Y-102576111D01*
X155593796Y-102472331D01*
X155644091Y-102337483D01*
X155650500Y-102277873D01*
X155650499Y-100482128D01*
X155644091Y-100422517D01*
X155593796Y-100287669D01*
X155516421Y-100184309D01*
X155492004Y-100118848D01*
X155506855Y-100050575D01*
X155516416Y-100035696D01*
X155593796Y-99932331D01*
X155644091Y-99797483D01*
X155650500Y-99737873D01*
X155650499Y-97942128D01*
X155644091Y-97882517D01*
X155593796Y-97747669D01*
X155516421Y-97644309D01*
X155492004Y-97578848D01*
X155506855Y-97510575D01*
X155516416Y-97495696D01*
X155593796Y-97392331D01*
X155644091Y-97257483D01*
X155650500Y-97197873D01*
X155650499Y-95402128D01*
X155644091Y-95342517D01*
X155593796Y-95207669D01*
X155516421Y-95104309D01*
X155492004Y-95038848D01*
X155506855Y-94970575D01*
X155516416Y-94955696D01*
X155593796Y-94852331D01*
X155644091Y-94717483D01*
X155650500Y-94657873D01*
X155650499Y-92862128D01*
X155644091Y-92802517D01*
X155593796Y-92667669D01*
X155516421Y-92564309D01*
X155492004Y-92498848D01*
X155506855Y-92430575D01*
X155516416Y-92415696D01*
X155593796Y-92312331D01*
X155644091Y-92177483D01*
X155650500Y-92117873D01*
X155650499Y-90322128D01*
X155644091Y-90262517D01*
X155593796Y-90127669D01*
X155516421Y-90024309D01*
X155492004Y-89958848D01*
X155506855Y-89890575D01*
X155516416Y-89875696D01*
X155593796Y-89772331D01*
X155644091Y-89637483D01*
X155650500Y-89577873D01*
X155650499Y-87782128D01*
X155644091Y-87722517D01*
X155593796Y-87587669D01*
X155516421Y-87484309D01*
X155492004Y-87418848D01*
X155506855Y-87350575D01*
X155516416Y-87335696D01*
X155593796Y-87232331D01*
X155644091Y-87097483D01*
X155650500Y-87037873D01*
X155650499Y-85242128D01*
X155644091Y-85182517D01*
X155593796Y-85047669D01*
X155516421Y-84944309D01*
X155492004Y-84878848D01*
X155506855Y-84810575D01*
X155516416Y-84795696D01*
X155593796Y-84692331D01*
X155644091Y-84557483D01*
X155650500Y-84497873D01*
X155650499Y-82702128D01*
X155644091Y-82642517D01*
X155593796Y-82507669D01*
X155516421Y-82404309D01*
X155492004Y-82338848D01*
X155506855Y-82270575D01*
X155516416Y-82255696D01*
X155593796Y-82152331D01*
X155644091Y-82017483D01*
X155650500Y-81957873D01*
X155650499Y-80162128D01*
X155644091Y-80102517D01*
X155593796Y-79967669D01*
X155516421Y-79864309D01*
X155492004Y-79798848D01*
X155506855Y-79730575D01*
X155516416Y-79715696D01*
X155593796Y-79612331D01*
X155644091Y-79477483D01*
X155650500Y-79417873D01*
X155650499Y-77622128D01*
X155644091Y-77562517D01*
X155606416Y-77461506D01*
X155593797Y-77427671D01*
X155593795Y-77427668D01*
X155516421Y-77324309D01*
X155492004Y-77258848D01*
X155506855Y-77190575D01*
X155516416Y-77175696D01*
X155593796Y-77072331D01*
X155644091Y-76937483D01*
X155650500Y-76877873D01*
X155650499Y-75082128D01*
X155644091Y-75022517D01*
X155593796Y-74887669D01*
X155516421Y-74784309D01*
X155492004Y-74718848D01*
X155506855Y-74650575D01*
X155516416Y-74635696D01*
X155593796Y-74532331D01*
X155644091Y-74397483D01*
X155650500Y-74337873D01*
X155650499Y-72542128D01*
X155644091Y-72482517D01*
X155636631Y-72462517D01*
X155593797Y-72347671D01*
X155593795Y-72347668D01*
X155578820Y-72327664D01*
X155516421Y-72244309D01*
X155492004Y-72178848D01*
X155506855Y-72110575D01*
X155516416Y-72095696D01*
X155593796Y-71992331D01*
X155644091Y-71857483D01*
X155650500Y-71797873D01*
X155650499Y-70002128D01*
X155644091Y-69942517D01*
X155593796Y-69807669D01*
X155516421Y-69704309D01*
X155492004Y-69638848D01*
X155506855Y-69570575D01*
X155516416Y-69555696D01*
X155593796Y-69452331D01*
X155644091Y-69317483D01*
X155650500Y-69257873D01*
X155650499Y-67462128D01*
X155644091Y-67402517D01*
X155593796Y-67267669D01*
X155516109Y-67163893D01*
X155491692Y-67098430D01*
X155506543Y-67030157D01*
X155516110Y-67015271D01*
X155593352Y-66912089D01*
X155593354Y-66912086D01*
X155643596Y-66777379D01*
X155643598Y-66777372D01*
X155649999Y-66717844D01*
X155650000Y-66717827D01*
X155650000Y-66070000D01*
X152945572Y-66070000D01*
X152968682Y-66034040D01*
X153010000Y-65893327D01*
X153010000Y-65746673D01*
X152968682Y-65605960D01*
X152945572Y-65570000D01*
X155650000Y-65570000D01*
X155650000Y-64922172D01*
X155649999Y-64922155D01*
X155643598Y-64862627D01*
X155643596Y-64862620D01*
X155593354Y-64727913D01*
X155593352Y-64727910D01*
X155516110Y-64624729D01*
X155491692Y-64559265D01*
X155506543Y-64490992D01*
X155516105Y-64476111D01*
X155593796Y-64372331D01*
X155644091Y-64237483D01*
X155650500Y-64177873D01*
X155650499Y-62382128D01*
X155644091Y-62322517D01*
X155621331Y-62261495D01*
X155593797Y-62187671D01*
X155593795Y-62187668D01*
X155516421Y-62084309D01*
X155492004Y-62018848D01*
X155506855Y-61950575D01*
X155516416Y-61935696D01*
X155593796Y-61832331D01*
X155644091Y-61697483D01*
X155650500Y-61637873D01*
X155650499Y-59842128D01*
X155644091Y-59782517D01*
X155641817Y-59776421D01*
X155593797Y-59647671D01*
X155593793Y-59647664D01*
X155507547Y-59532455D01*
X155507544Y-59532452D01*
X155392335Y-59446206D01*
X155392328Y-59446202D01*
X155257482Y-59395908D01*
X155257483Y-59395908D01*
X155197883Y-59389501D01*
X155197881Y-59389500D01*
X155197873Y-59389500D01*
X155197865Y-59389500D01*
X152564385Y-59389500D01*
X152553578Y-59389028D01*
X152500001Y-59384341D01*
X152499997Y-59384341D01*
X152446419Y-59389028D01*
X152435613Y-59389500D01*
X151602129Y-59389500D01*
X151602123Y-59389501D01*
X151542516Y-59395908D01*
X151407671Y-59446202D01*
X151407664Y-59446206D01*
X151292455Y-59532452D01*
X151292452Y-59532455D01*
X151206206Y-59647664D01*
X151206202Y-59647671D01*
X151155908Y-59782517D01*
X151149877Y-59838621D01*
X151149501Y-59842123D01*
X151149500Y-59842135D01*
X151149500Y-60675616D01*
X151149028Y-60686423D01*
X151144341Y-60739997D01*
X151144341Y-60740002D01*
X151149028Y-60793576D01*
X151149500Y-60804383D01*
X151149500Y-61637870D01*
X151149501Y-61637876D01*
X151155908Y-61697483D01*
X151206202Y-61832328D01*
X151206203Y-61832330D01*
X151283578Y-61935689D01*
X151307995Y-62001153D01*
X151293144Y-62069426D01*
X151283578Y-62084309D01*
X151273168Y-62098216D01*
X151206203Y-62187669D01*
X151206202Y-62187671D01*
X151155908Y-62322517D01*
X151149501Y-62382116D01*
X151149501Y-62382123D01*
X151149500Y-62382135D01*
X151149500Y-63215616D01*
X151149028Y-63226423D01*
X151144341Y-63279997D01*
X151144341Y-63280002D01*
X151149028Y-63333576D01*
X151149500Y-63344383D01*
X151149500Y-64177870D01*
X151149501Y-64177876D01*
X151155908Y-64237483D01*
X151206202Y-64372328D01*
X151206206Y-64372335D01*
X151283889Y-64476105D01*
X151308307Y-64541569D01*
X151293456Y-64609842D01*
X151283890Y-64624727D01*
X151206647Y-64727910D01*
X151206645Y-64727913D01*
X151156403Y-64862620D01*
X151156401Y-64862627D01*
X151150000Y-64922155D01*
X151150000Y-65570000D01*
X152054428Y-65570000D01*
X152031318Y-65605960D01*
X151990000Y-65746673D01*
X151990000Y-65893327D01*
X152031318Y-66034040D01*
X152054428Y-66070000D01*
X151150000Y-66070000D01*
X151150000Y-66717844D01*
X151156401Y-66777372D01*
X151156403Y-66777379D01*
X151206645Y-66912086D01*
X151206646Y-66912088D01*
X151283890Y-67015272D01*
X151308307Y-67080736D01*
X151293456Y-67149009D01*
X151283890Y-67163894D01*
X151206204Y-67267669D01*
X151206202Y-67267671D01*
X151155908Y-67402517D01*
X151149501Y-67462116D01*
X151149501Y-67462123D01*
X151149500Y-67462135D01*
X151149500Y-68295616D01*
X151149028Y-68306423D01*
X151144341Y-68359997D01*
X151144341Y-68360002D01*
X151149028Y-68413576D01*
X151149500Y-68424383D01*
X151149500Y-69257870D01*
X151149501Y-69257876D01*
X151155908Y-69317483D01*
X151206202Y-69452328D01*
X151206203Y-69452330D01*
X151283578Y-69555689D01*
X151307995Y-69621153D01*
X151293144Y-69689426D01*
X151283578Y-69704311D01*
X151206203Y-69807669D01*
X151206202Y-69807671D01*
X151155908Y-69942517D01*
X151149501Y-70002116D01*
X151149501Y-70002123D01*
X151149500Y-70002135D01*
X151149500Y-70835616D01*
X151149028Y-70846423D01*
X151144341Y-70899997D01*
X151144341Y-70900002D01*
X151149028Y-70953576D01*
X151149500Y-70964383D01*
X151149500Y-71797870D01*
X151149501Y-71797876D01*
X151155908Y-71857483D01*
X151206202Y-71992328D01*
X151206203Y-71992330D01*
X151206204Y-71992331D01*
X151263973Y-72069501D01*
X151283578Y-72095689D01*
X151307995Y-72161153D01*
X151293144Y-72229426D01*
X151283578Y-72244311D01*
X151206203Y-72347669D01*
X151206202Y-72347671D01*
X151155908Y-72482517D01*
X151151650Y-72522127D01*
X151149501Y-72542123D01*
X151149500Y-72542135D01*
X151149500Y-73375616D01*
X151149028Y-73386423D01*
X151144341Y-73439997D01*
X151144341Y-73440002D01*
X151149028Y-73493576D01*
X151149500Y-73504383D01*
X151149500Y-74337870D01*
X151149501Y-74337876D01*
X151155908Y-74397483D01*
X151206202Y-74532328D01*
X151206203Y-74532330D01*
X151206204Y-74532331D01*
X151277480Y-74627544D01*
X151283578Y-74635689D01*
X151307995Y-74701153D01*
X151293144Y-74769426D01*
X151283578Y-74784311D01*
X151206203Y-74887669D01*
X151206202Y-74887671D01*
X151155908Y-75022517D01*
X151149501Y-75082116D01*
X151149501Y-75082123D01*
X151149500Y-75082135D01*
X151149500Y-75915616D01*
X151149028Y-75926423D01*
X151144341Y-75979997D01*
X151144341Y-75980002D01*
X151149028Y-76033576D01*
X151149500Y-76044383D01*
X151149500Y-76877870D01*
X151149501Y-76877876D01*
X151155908Y-76937483D01*
X151206202Y-77072328D01*
X151206203Y-77072330D01*
X151283578Y-77175689D01*
X151307995Y-77241153D01*
X151293144Y-77309426D01*
X151283578Y-77324311D01*
X151206203Y-77427669D01*
X151206202Y-77427671D01*
X151155908Y-77562517D01*
X151149501Y-77622116D01*
X151149501Y-77622123D01*
X151149500Y-77622135D01*
X151149500Y-79417870D01*
X151149501Y-79417876D01*
X151155908Y-79477483D01*
X151206202Y-79612328D01*
X151206203Y-79612330D01*
X151283578Y-79715689D01*
X151307995Y-79781153D01*
X151293144Y-79849426D01*
X151283578Y-79864311D01*
X151206203Y-79967669D01*
X151206202Y-79967671D01*
X151155908Y-80102517D01*
X151149501Y-80162116D01*
X151149501Y-80162123D01*
X151149500Y-80162135D01*
X151149500Y-80995616D01*
X151149028Y-81006423D01*
X151144341Y-81059997D01*
X151144341Y-81060002D01*
X151149028Y-81113576D01*
X151149500Y-81124383D01*
X151149500Y-81957870D01*
X151149501Y-81957876D01*
X151155908Y-82017483D01*
X151206202Y-82152328D01*
X151206203Y-82152330D01*
X151283578Y-82255689D01*
X151307995Y-82321153D01*
X151293144Y-82389426D01*
X151283578Y-82404311D01*
X151206203Y-82507669D01*
X151206202Y-82507671D01*
X151155908Y-82642517D01*
X151149501Y-82702116D01*
X151149501Y-82702123D01*
X151149500Y-82702135D01*
X151149500Y-83535616D01*
X151149028Y-83546423D01*
X151144341Y-83599997D01*
X151144341Y-83600002D01*
X151149028Y-83653576D01*
X151149500Y-83664383D01*
X151149500Y-84497870D01*
X151149501Y-84497876D01*
X151155908Y-84557483D01*
X151206202Y-84692328D01*
X151206203Y-84692330D01*
X151283578Y-84795689D01*
X151307995Y-84861153D01*
X151293144Y-84929426D01*
X151283578Y-84944311D01*
X151206203Y-85047669D01*
X151206202Y-85047671D01*
X151155908Y-85182517D01*
X151149501Y-85242116D01*
X151149501Y-85242123D01*
X151149500Y-85242135D01*
X151149500Y-86075616D01*
X151149028Y-86086423D01*
X151144341Y-86139997D01*
X151144341Y-86140002D01*
X151149028Y-86193576D01*
X151149500Y-86204383D01*
X151149500Y-87037870D01*
X151149501Y-87037876D01*
X151155908Y-87097483D01*
X151206202Y-87232328D01*
X151206203Y-87232330D01*
X151283578Y-87335689D01*
X151307995Y-87401153D01*
X151293144Y-87469426D01*
X151283578Y-87484311D01*
X151206203Y-87587669D01*
X151206202Y-87587671D01*
X151155908Y-87722517D01*
X151149501Y-87782116D01*
X151149501Y-87782123D01*
X151149500Y-87782135D01*
X151149500Y-88615616D01*
X151149028Y-88626423D01*
X151144341Y-88679997D01*
X151144341Y-88680002D01*
X151149028Y-88733576D01*
X151149500Y-88744383D01*
X151149500Y-89577870D01*
X151149501Y-89577876D01*
X151155908Y-89637483D01*
X151206202Y-89772328D01*
X151206203Y-89772330D01*
X151283578Y-89875689D01*
X151307995Y-89941153D01*
X151293144Y-90009426D01*
X151283578Y-90024311D01*
X151206203Y-90127669D01*
X151206202Y-90127671D01*
X151155908Y-90262517D01*
X151149501Y-90322116D01*
X151149501Y-90322123D01*
X151149500Y-90322135D01*
X151149500Y-92117870D01*
X151149501Y-92117876D01*
X151155908Y-92177483D01*
X151206202Y-92312328D01*
X151206203Y-92312330D01*
X151283578Y-92415689D01*
X151307995Y-92481153D01*
X151293144Y-92549426D01*
X151283578Y-92564311D01*
X151206203Y-92667669D01*
X151206202Y-92667671D01*
X151155908Y-92802517D01*
X151149501Y-92862116D01*
X151149501Y-92862123D01*
X151149500Y-92862135D01*
X151149500Y-93695616D01*
X151149028Y-93706423D01*
X151144341Y-93759997D01*
X151144341Y-93760002D01*
X151149028Y-93813576D01*
X151149500Y-93824383D01*
X151149500Y-94657870D01*
X151149501Y-94657876D01*
X151155908Y-94717483D01*
X151206202Y-94852328D01*
X151206203Y-94852330D01*
X151283578Y-94955689D01*
X151307995Y-95021153D01*
X151293144Y-95089426D01*
X151283578Y-95104311D01*
X151206203Y-95207669D01*
X151206202Y-95207671D01*
X151155908Y-95342517D01*
X151149501Y-95402116D01*
X151149501Y-95402123D01*
X151149500Y-95402135D01*
X151149500Y-96235616D01*
X151149028Y-96246423D01*
X151144341Y-96299997D01*
X151144341Y-96300002D01*
X151149028Y-96353576D01*
X151149500Y-96364383D01*
X151149500Y-97197870D01*
X151149501Y-97197876D01*
X151155908Y-97257483D01*
X151206202Y-97392328D01*
X151206203Y-97392330D01*
X151283578Y-97495689D01*
X151307995Y-97561153D01*
X151293144Y-97629426D01*
X151283578Y-97644311D01*
X151206203Y-97747669D01*
X151206202Y-97747671D01*
X151155908Y-97882517D01*
X151149501Y-97942116D01*
X151149501Y-97942123D01*
X151149500Y-97942135D01*
X151149500Y-98775616D01*
X151149028Y-98786423D01*
X151144341Y-98839997D01*
X151144341Y-98840002D01*
X151149028Y-98893576D01*
X151149500Y-98904383D01*
X151149500Y-99254546D01*
X151129815Y-99321585D01*
X151113181Y-99342227D01*
X148117228Y-102338181D01*
X148055905Y-102371666D01*
X148029547Y-102374500D01*
X143703748Y-102374500D01*
X143636709Y-102354815D01*
X143611600Y-102333474D01*
X143605873Y-102327114D01*
X143605869Y-102327110D01*
X143452734Y-102215851D01*
X143452729Y-102215848D01*
X143279807Y-102138857D01*
X143279802Y-102138855D01*
X143134001Y-102107865D01*
X143094646Y-102099500D01*
X142905354Y-102099500D01*
X142872897Y-102106398D01*
X142720197Y-102138855D01*
X142720192Y-102138857D01*
X142547270Y-102215848D01*
X142547265Y-102215851D01*
X142394129Y-102327111D01*
X142267466Y-102467785D01*
X142172821Y-102631715D01*
X142172818Y-102631722D01*
X142114327Y-102811740D01*
X142114326Y-102811744D01*
X142094540Y-103000000D01*
X142114326Y-103188256D01*
X142114327Y-103188259D01*
X142172818Y-103368277D01*
X142172821Y-103368284D01*
X142267467Y-103532216D01*
X142388401Y-103666526D01*
X142394129Y-103672888D01*
X142547265Y-103784148D01*
X142547270Y-103784151D01*
X142720192Y-103861142D01*
X142720197Y-103861144D01*
X142905354Y-103900500D01*
X142905355Y-103900500D01*
X143094644Y-103900500D01*
X143094646Y-103900500D01*
X143279803Y-103861144D01*
X143452730Y-103784151D01*
X143605871Y-103672888D01*
X143608788Y-103669647D01*
X143611600Y-103666526D01*
X143671087Y-103629879D01*
X143703748Y-103625500D01*
X148257257Y-103625500D01*
X148272877Y-103627224D01*
X148272904Y-103626939D01*
X148280660Y-103627671D01*
X148280667Y-103627673D01*
X148347873Y-103625561D01*
X148351768Y-103625500D01*
X148379346Y-103625500D01*
X148379350Y-103625500D01*
X148383324Y-103624997D01*
X148394963Y-103624080D01*
X148438627Y-103622709D01*
X148457869Y-103617117D01*
X148476912Y-103613174D01*
X148496792Y-103610664D01*
X148537401Y-103594585D01*
X148548444Y-103590803D01*
X148590390Y-103578618D01*
X148607629Y-103568422D01*
X148625103Y-103559862D01*
X148643727Y-103552488D01*
X148643727Y-103552487D01*
X148643732Y-103552486D01*
X148679083Y-103526800D01*
X148688814Y-103520408D01*
X148726420Y-103498170D01*
X148740589Y-103483999D01*
X148755379Y-103471368D01*
X148771587Y-103459594D01*
X148799438Y-103425926D01*
X148807279Y-103417309D01*
X150932661Y-101291927D01*
X150993983Y-101258444D01*
X151063675Y-101263428D01*
X151119608Y-101305300D01*
X151144025Y-101370764D01*
X151144341Y-101379610D01*
X151144341Y-101380002D01*
X151149028Y-101433576D01*
X151149500Y-101444383D01*
X151149500Y-102277870D01*
X151149501Y-102277876D01*
X151155908Y-102337483D01*
X151206202Y-102472328D01*
X151206206Y-102472335D01*
X151283889Y-102576105D01*
X151308307Y-102641569D01*
X151293456Y-102709842D01*
X151283890Y-102724727D01*
X151206647Y-102827910D01*
X151206645Y-102827913D01*
X151156403Y-102962620D01*
X151156401Y-102962627D01*
X151150000Y-103022155D01*
X151150000Y-103670000D01*
X152054428Y-103670000D01*
X152031318Y-103705960D01*
X151990000Y-103846673D01*
X151990000Y-103993327D01*
X152031318Y-104134040D01*
X152054428Y-104170000D01*
X151150000Y-104170000D01*
X151150000Y-104817844D01*
X151156401Y-104877372D01*
X151156403Y-104877379D01*
X151206645Y-105012086D01*
X151206646Y-105012088D01*
X151283890Y-105115272D01*
X151308307Y-105180736D01*
X151293456Y-105249009D01*
X151283890Y-105263894D01*
X151206204Y-105367669D01*
X151206202Y-105367671D01*
X151155908Y-105502517D01*
X151149501Y-105562116D01*
X151149501Y-105562123D01*
X151149500Y-105562135D01*
X151149500Y-106395616D01*
X151149028Y-106406423D01*
X151144341Y-106459997D01*
X151144341Y-106460002D01*
X151149028Y-106513576D01*
X151149500Y-106524383D01*
X151149500Y-107357870D01*
X151149501Y-107357876D01*
X151155908Y-107417483D01*
X151206202Y-107552328D01*
X151206203Y-107552330D01*
X151283578Y-107655689D01*
X151307995Y-107721153D01*
X151293144Y-107789426D01*
X151283578Y-107804311D01*
X151206203Y-107907669D01*
X151206202Y-107907671D01*
X151155908Y-108042517D01*
X151149501Y-108102116D01*
X151149501Y-108102123D01*
X151149500Y-108102135D01*
X151149500Y-108935616D01*
X151149028Y-108946423D01*
X151144341Y-108999997D01*
X151144341Y-109000002D01*
X151149028Y-109053576D01*
X151149500Y-109064383D01*
X151149500Y-109897870D01*
X151149501Y-109897876D01*
X151155908Y-109957483D01*
X151206202Y-110092328D01*
X151206206Y-110092335D01*
X151292452Y-110207544D01*
X151292455Y-110207547D01*
X151407664Y-110293793D01*
X151407671Y-110293797D01*
X151542517Y-110344091D01*
X151542516Y-110344091D01*
X151549444Y-110344835D01*
X151602127Y-110350500D01*
X152435616Y-110350499D01*
X152446425Y-110350971D01*
X152500000Y-110355659D01*
X152553575Y-110350971D01*
X152564384Y-110350499D01*
X155197871Y-110350499D01*
X155197872Y-110350499D01*
X155257483Y-110344091D01*
X155392331Y-110293796D01*
X155507546Y-110207546D01*
X155593796Y-110092331D01*
X155644091Y-109957483D01*
X155650500Y-109897873D01*
X155650500Y-109749500D01*
X155670185Y-109682461D01*
X155722989Y-109636706D01*
X155774500Y-109625500D01*
X158107257Y-109625500D01*
X158122877Y-109627224D01*
X158122904Y-109626939D01*
X158130660Y-109627671D01*
X158130667Y-109627673D01*
X158197873Y-109625561D01*
X158201768Y-109625500D01*
X158229346Y-109625500D01*
X158229350Y-109625500D01*
X158233324Y-109624997D01*
X158244963Y-109624080D01*
X158288627Y-109622709D01*
X158307869Y-109617117D01*
X158326912Y-109613174D01*
X158346792Y-109610664D01*
X158387401Y-109594585D01*
X158398444Y-109590803D01*
X158440390Y-109578618D01*
X158457629Y-109568422D01*
X158475103Y-109559862D01*
X158493727Y-109552488D01*
X158493727Y-109552487D01*
X158493732Y-109552486D01*
X158529083Y-109526800D01*
X158538814Y-109520408D01*
X158576420Y-109498170D01*
X158590589Y-109483999D01*
X158605379Y-109471368D01*
X158621587Y-109459594D01*
X158649438Y-109425926D01*
X158657279Y-109417309D01*
X159766295Y-108308293D01*
X159827616Y-108274810D01*
X159897308Y-108279794D01*
X159953241Y-108321666D01*
X159977658Y-108387130D01*
X159973379Y-108429419D01*
X159972668Y-108431954D01*
X159914201Y-108713319D01*
X159894592Y-109000000D01*
X159914201Y-109286680D01*
X159972666Y-109568034D01*
X159972667Y-109568037D01*
X160068894Y-109838793D01*
X160068893Y-109838793D01*
X160201098Y-110093935D01*
X160366812Y-110328700D01*
X160431801Y-110398285D01*
X160562947Y-110538708D01*
X160785853Y-110720055D01*
X161031382Y-110869365D01*
X161298827Y-110985532D01*
X161298092Y-110987223D01*
X161348558Y-111023748D01*
X161374026Y-111088811D01*
X161374500Y-111099647D01*
X161374500Y-112689547D01*
X161354815Y-112756586D01*
X161338181Y-112777228D01*
X158987644Y-115127764D01*
X158926321Y-115161249D01*
X158856629Y-115156265D01*
X158800696Y-115114393D01*
X158781302Y-115076078D01*
X158774100Y-115052335D01*
X158722023Y-114880659D01*
X158722021Y-114880656D01*
X158722021Y-114880654D01*
X158626801Y-114702511D01*
X158626799Y-114702509D01*
X158626798Y-114702506D01*
X158579937Y-114645405D01*
X158498647Y-114546352D01*
X158348940Y-114423492D01*
X158342494Y-114418202D01*
X158342492Y-114418201D01*
X158342488Y-114418198D01*
X158164345Y-114322978D01*
X157971031Y-114264337D01*
X157770000Y-114244538D01*
X157568968Y-114264337D01*
X157375654Y-114322978D01*
X157193453Y-114420367D01*
X157125050Y-114434609D01*
X157076547Y-114420367D01*
X156894345Y-114322978D01*
X156701031Y-114264337D01*
X156500000Y-114244538D01*
X156298968Y-114264337D01*
X156160959Y-114306202D01*
X156105659Y-114322977D01*
X156105658Y-114322977D01*
X156104575Y-114323306D01*
X156034708Y-114323929D01*
X156005618Y-114309529D01*
X156005114Y-114310454D01*
X155997328Y-114306202D01*
X155862482Y-114255908D01*
X155862483Y-114255908D01*
X155802883Y-114249501D01*
X155802881Y-114249500D01*
X155802873Y-114249500D01*
X155802865Y-114249500D01*
X154915453Y-114249500D01*
X154848414Y-114229815D01*
X154827772Y-114213181D01*
X153015803Y-112401212D01*
X153005980Y-112388950D01*
X153005759Y-112389134D01*
X153000786Y-112383122D01*
X152951776Y-112337099D01*
X152948977Y-112334386D01*
X152929477Y-112314885D01*
X152929471Y-112314880D01*
X152926286Y-112312409D01*
X152917434Y-112304848D01*
X152885582Y-112274938D01*
X152885580Y-112274936D01*
X152885577Y-112274935D01*
X152868029Y-112265288D01*
X152851763Y-112254604D01*
X152835932Y-112242324D01*
X152795849Y-112224978D01*
X152785363Y-112219841D01*
X152747094Y-112198803D01*
X152747092Y-112198802D01*
X152727693Y-112193822D01*
X152709281Y-112187518D01*
X152690898Y-112179562D01*
X152690892Y-112179560D01*
X152647760Y-112172729D01*
X152636322Y-112170361D01*
X152594020Y-112159500D01*
X152594019Y-112159500D01*
X152573984Y-112159500D01*
X152554586Y-112157973D01*
X152547162Y-112156797D01*
X152534805Y-112154840D01*
X152534804Y-112154840D01*
X152491325Y-112158950D01*
X152479656Y-112159500D01*
X147132901Y-112159500D01*
X147065862Y-112139815D01*
X147020107Y-112087011D01*
X147010163Y-112017853D01*
X147039188Y-111954297D01*
X147097966Y-111916523D01*
X147104384Y-111914824D01*
X147107479Y-111914092D01*
X147107481Y-111914091D01*
X147107483Y-111914091D01*
X147242331Y-111863796D01*
X147357546Y-111777546D01*
X147443796Y-111662331D01*
X147494091Y-111527483D01*
X147500500Y-111467873D01*
X147500499Y-108834381D01*
X147500971Y-108823578D01*
X147505659Y-108770000D01*
X147505659Y-108769999D01*
X147500971Y-108716418D01*
X147500499Y-108705610D01*
X147500499Y-107872129D01*
X147500498Y-107872123D01*
X147500497Y-107872116D01*
X147494091Y-107812517D01*
X147491030Y-107804311D01*
X147443797Y-107677671D01*
X147443793Y-107677664D01*
X147357547Y-107562455D01*
X147357544Y-107562452D01*
X147242335Y-107476206D01*
X147242328Y-107476202D01*
X147107482Y-107425908D01*
X147107483Y-107425908D01*
X147047883Y-107419501D01*
X147047881Y-107419500D01*
X147047873Y-107419500D01*
X147047865Y-107419500D01*
X146214383Y-107419500D01*
X146203576Y-107419028D01*
X146150002Y-107414341D01*
X146149999Y-107414341D01*
X146114865Y-107417414D01*
X146096421Y-107419028D01*
X146085616Y-107419500D01*
X145252129Y-107419500D01*
X145252123Y-107419501D01*
X145192516Y-107425908D01*
X145057671Y-107476202D01*
X145057669Y-107476203D01*
X144954311Y-107553578D01*
X144888847Y-107577995D01*
X144820574Y-107563144D01*
X144805689Y-107553578D01*
X144702330Y-107476203D01*
X144702328Y-107476202D01*
X144567482Y-107425908D01*
X144567483Y-107425908D01*
X144507883Y-107419501D01*
X144507881Y-107419500D01*
X144507873Y-107419500D01*
X144507864Y-107419500D01*
X142712129Y-107419500D01*
X142712123Y-107419501D01*
X142652516Y-107425908D01*
X142517671Y-107476202D01*
X142517669Y-107476203D01*
X142414311Y-107553578D01*
X142348847Y-107577995D01*
X142280574Y-107563144D01*
X142265689Y-107553578D01*
X142162330Y-107476203D01*
X142162328Y-107476202D01*
X142027482Y-107425908D01*
X142027483Y-107425908D01*
X141967883Y-107419501D01*
X141967881Y-107419500D01*
X141967873Y-107419500D01*
X141967865Y-107419500D01*
X141134383Y-107419500D01*
X141123576Y-107419028D01*
X141070002Y-107414341D01*
X141069999Y-107414341D01*
X141034865Y-107417414D01*
X141016421Y-107419028D01*
X141005616Y-107419500D01*
X140172129Y-107419500D01*
X140172123Y-107419501D01*
X140112516Y-107425908D01*
X139977671Y-107476202D01*
X139977664Y-107476206D01*
X139862455Y-107562452D01*
X139862452Y-107562455D01*
X139776206Y-107677664D01*
X139776202Y-107677671D01*
X139725908Y-107812517D01*
X139719501Y-107872116D01*
X139719501Y-107872123D01*
X139719500Y-107872135D01*
X139719500Y-108705618D01*
X139719028Y-108716425D01*
X139714341Y-108769997D01*
X139714341Y-108770001D01*
X139719028Y-108823574D01*
X139719500Y-108834381D01*
X139719500Y-110275547D01*
X139699815Y-110342586D01*
X139647011Y-110388341D01*
X139577853Y-110398285D01*
X139514297Y-110369260D01*
X139507819Y-110363228D01*
X136106818Y-106962227D01*
X136073333Y-106900904D01*
X136070499Y-106874546D01*
X136070499Y-106524385D01*
X136070971Y-106513576D01*
X136075659Y-106460000D01*
X136075659Y-106459999D01*
X136070971Y-106406421D01*
X136070499Y-106395613D01*
X136070499Y-105562129D01*
X136070498Y-105562123D01*
X136070497Y-105562116D01*
X136064091Y-105502517D01*
X136013796Y-105367669D01*
X135936109Y-105263893D01*
X135911692Y-105198430D01*
X135926543Y-105130157D01*
X135936110Y-105115271D01*
X136013352Y-105012089D01*
X136013354Y-105012086D01*
X136063596Y-104877379D01*
X136063598Y-104877372D01*
X136069999Y-104817844D01*
X136070000Y-104817827D01*
X136070000Y-104170000D01*
X135165572Y-104170000D01*
X135188682Y-104134040D01*
X135230000Y-103993327D01*
X135230000Y-103846673D01*
X135188682Y-103705960D01*
X135165572Y-103670000D01*
X136070000Y-103670000D01*
X136070000Y-103022172D01*
X136069999Y-103022155D01*
X136063598Y-102962627D01*
X136063596Y-102962620D01*
X136013354Y-102827913D01*
X136013352Y-102827910D01*
X135936110Y-102724729D01*
X135911692Y-102659265D01*
X135926543Y-102590992D01*
X135936105Y-102576111D01*
X136013796Y-102472331D01*
X136064091Y-102337483D01*
X136070500Y-102277873D01*
X136070499Y-101444383D01*
X136070971Y-101433576D01*
X136075659Y-101380000D01*
X136075659Y-101379999D01*
X136070971Y-101326421D01*
X136070499Y-101315613D01*
X136070499Y-100482129D01*
X136070498Y-100482123D01*
X136070497Y-100482116D01*
X136064091Y-100422517D01*
X136013796Y-100287669D01*
X135936421Y-100184309D01*
X135912004Y-100118848D01*
X135926855Y-100050575D01*
X135936416Y-100035696D01*
X136013796Y-99932331D01*
X136064091Y-99797483D01*
X136070500Y-99737873D01*
X136070499Y-98904383D01*
X136070971Y-98893576D01*
X136075659Y-98840000D01*
X136075659Y-98839999D01*
X136070971Y-98786421D01*
X136070499Y-98775613D01*
X136070499Y-97942129D01*
X136070498Y-97942123D01*
X136070497Y-97942116D01*
X136064091Y-97882517D01*
X136013796Y-97747669D01*
X135936421Y-97644309D01*
X135912004Y-97578848D01*
X135926855Y-97510575D01*
X135936416Y-97495696D01*
X136013796Y-97392331D01*
X136064091Y-97257483D01*
X136070500Y-97197873D01*
X136070499Y-96364383D01*
X136070971Y-96353576D01*
X136075659Y-96300000D01*
X136075659Y-96299999D01*
X136070971Y-96246421D01*
X136070499Y-96235613D01*
X136070499Y-95402129D01*
X136070498Y-95402123D01*
X136070497Y-95402116D01*
X136064091Y-95342517D01*
X136013796Y-95207669D01*
X135936421Y-95104309D01*
X135912004Y-95038848D01*
X135926855Y-94970575D01*
X135936416Y-94955696D01*
X136013796Y-94852331D01*
X136064091Y-94717483D01*
X136070500Y-94657873D01*
X136070499Y-93824383D01*
X136070971Y-93813576D01*
X136075659Y-93760000D01*
X136075659Y-93759999D01*
X136070971Y-93706421D01*
X136070499Y-93695613D01*
X136070499Y-92862129D01*
X136070498Y-92862123D01*
X136070497Y-92862116D01*
X136064091Y-92802517D01*
X136013796Y-92667669D01*
X135936421Y-92564309D01*
X135912004Y-92498848D01*
X135926855Y-92430575D01*
X135936416Y-92415696D01*
X136013796Y-92312331D01*
X136064091Y-92177483D01*
X136070500Y-92117873D01*
X136070499Y-90322128D01*
X136064091Y-90262517D01*
X136013796Y-90127669D01*
X135936421Y-90024309D01*
X135912004Y-89958848D01*
X135926855Y-89890575D01*
X135936416Y-89875696D01*
X136013796Y-89772331D01*
X136064091Y-89637483D01*
X136070500Y-89577873D01*
X136070499Y-88744383D01*
X136070971Y-88733576D01*
X136075659Y-88680000D01*
X136075659Y-88679999D01*
X136070971Y-88626421D01*
X136070499Y-88615613D01*
X136070499Y-87782129D01*
X136070498Y-87782123D01*
X136070497Y-87782116D01*
X136064091Y-87722517D01*
X136013796Y-87587669D01*
X135936421Y-87484309D01*
X135912004Y-87418848D01*
X135926855Y-87350575D01*
X135936416Y-87335696D01*
X136013796Y-87232331D01*
X136064091Y-87097483D01*
X136070500Y-87037873D01*
X136070499Y-86204383D01*
X136070971Y-86193576D01*
X136075659Y-86140000D01*
X136075659Y-86139999D01*
X136070971Y-86086421D01*
X136070499Y-86075613D01*
X136070499Y-85242129D01*
X136070498Y-85242123D01*
X136070497Y-85242116D01*
X136064091Y-85182517D01*
X136013796Y-85047669D01*
X135936421Y-84944309D01*
X135912004Y-84878848D01*
X135926855Y-84810575D01*
X135936416Y-84795696D01*
X136013796Y-84692331D01*
X136064091Y-84557483D01*
X136070500Y-84497873D01*
X136070499Y-83664383D01*
X136070971Y-83653576D01*
X136075659Y-83600000D01*
X136075659Y-83599999D01*
X136070971Y-83546421D01*
X136070499Y-83535613D01*
X136070499Y-82702129D01*
X136070498Y-82702123D01*
X136070497Y-82702116D01*
X136064091Y-82642517D01*
X136013796Y-82507669D01*
X135936421Y-82404309D01*
X135912004Y-82338848D01*
X135926855Y-82270575D01*
X135936416Y-82255696D01*
X136013796Y-82152331D01*
X136064091Y-82017483D01*
X136070500Y-81957873D01*
X136070499Y-81124383D01*
X136070971Y-81113576D01*
X136075659Y-81060000D01*
X136075659Y-81059999D01*
X136070971Y-81006421D01*
X136070499Y-80995613D01*
X136070499Y-80162129D01*
X136070498Y-80162123D01*
X136070497Y-80162116D01*
X136064091Y-80102517D01*
X136013796Y-79967669D01*
X135936421Y-79864309D01*
X135912004Y-79798848D01*
X135926855Y-79730575D01*
X135936416Y-79715696D01*
X136013796Y-79612331D01*
X136064091Y-79477483D01*
X136070500Y-79417873D01*
X136070499Y-77622128D01*
X136064091Y-77562517D01*
X136026416Y-77461506D01*
X136013797Y-77427671D01*
X136013795Y-77427668D01*
X135936421Y-77324309D01*
X135912004Y-77258848D01*
X135926855Y-77190575D01*
X135936416Y-77175696D01*
X136013796Y-77072331D01*
X136064091Y-76937483D01*
X136070500Y-76877873D01*
X136070499Y-76044383D01*
X136070971Y-76033576D01*
X136075659Y-75980000D01*
X136075659Y-75979999D01*
X136070971Y-75926421D01*
X136070499Y-75915613D01*
X136070499Y-75082129D01*
X136070498Y-75082123D01*
X136070497Y-75082116D01*
X136064091Y-75022517D01*
X136013796Y-74887669D01*
X135936421Y-74784309D01*
X135912004Y-74718848D01*
X135926855Y-74650575D01*
X135936416Y-74635696D01*
X136013796Y-74532331D01*
X136064091Y-74397483D01*
X136070500Y-74337873D01*
X136070499Y-73504383D01*
X136070971Y-73493576D01*
X136075659Y-73440000D01*
X136075659Y-73439999D01*
X136070971Y-73386421D01*
X136070499Y-73375613D01*
X136070499Y-72542129D01*
X136070498Y-72542123D01*
X136070497Y-72542116D01*
X136064091Y-72482517D01*
X136056631Y-72462517D01*
X136013797Y-72347671D01*
X136013795Y-72347668D01*
X135998820Y-72327664D01*
X135936421Y-72244309D01*
X135912004Y-72178848D01*
X135926855Y-72110575D01*
X135936416Y-72095696D01*
X136013796Y-71992331D01*
X136064091Y-71857483D01*
X136070500Y-71797873D01*
X136070499Y-70964383D01*
X136070971Y-70953576D01*
X136075659Y-70900000D01*
X136075659Y-70899999D01*
X136070971Y-70846421D01*
X136070499Y-70835613D01*
X136070499Y-70002129D01*
X136070498Y-70002123D01*
X136070497Y-70002116D01*
X136064091Y-69942517D01*
X136013796Y-69807669D01*
X135936421Y-69704309D01*
X135912004Y-69638848D01*
X135926855Y-69570575D01*
X135936416Y-69555696D01*
X136013796Y-69452331D01*
X136064091Y-69317483D01*
X136070500Y-69257873D01*
X136070499Y-68424383D01*
X136070971Y-68413576D01*
X136075659Y-68360000D01*
X136075659Y-68359999D01*
X136070971Y-68306421D01*
X136070499Y-68295613D01*
X136070499Y-67462129D01*
X136070498Y-67462123D01*
X136070497Y-67462116D01*
X136064091Y-67402517D01*
X136013796Y-67267669D01*
X135936109Y-67163893D01*
X135911692Y-67098430D01*
X135926543Y-67030157D01*
X135936110Y-67015271D01*
X136013352Y-66912089D01*
X136013354Y-66912086D01*
X136063596Y-66777379D01*
X136063598Y-66777372D01*
X136069999Y-66717844D01*
X136070000Y-66717827D01*
X136070000Y-66070000D01*
X135165572Y-66070000D01*
X135188682Y-66034040D01*
X135230000Y-65893327D01*
X135230000Y-65746673D01*
X135188682Y-65605960D01*
X135165572Y-65570000D01*
X136070000Y-65570000D01*
X136070000Y-64922172D01*
X136069999Y-64922155D01*
X136063598Y-64862627D01*
X136063596Y-64862620D01*
X136013354Y-64727913D01*
X136013352Y-64727910D01*
X135936110Y-64624729D01*
X135911692Y-64559265D01*
X135926543Y-64490992D01*
X135936105Y-64476111D01*
X136013796Y-64372331D01*
X136064091Y-64237483D01*
X136070500Y-64177873D01*
X136070500Y-63900003D01*
X139929723Y-63900003D01*
X139931331Y-63918389D01*
X139931678Y-63934752D01*
X139930709Y-63956324D01*
X139930710Y-63956328D01*
X139941444Y-64035576D01*
X139942094Y-64041412D01*
X139948792Y-64117972D01*
X139948795Y-64117989D01*
X139954461Y-64139134D01*
X139957563Y-64154576D01*
X139960923Y-64179380D01*
X139960926Y-64179392D01*
X139984573Y-64252169D01*
X139986417Y-64258393D01*
X140005423Y-64329324D01*
X140005428Y-64329337D01*
X140016135Y-64352300D01*
X140021682Y-64366380D01*
X140030483Y-64393464D01*
X140065128Y-64457845D01*
X140068316Y-64464200D01*
X140097897Y-64527638D01*
X140097898Y-64527639D01*
X140114410Y-64551221D01*
X140122025Y-64563578D01*
X140137146Y-64591678D01*
X140137152Y-64591687D01*
X140180587Y-64646153D01*
X140185214Y-64652340D01*
X140210510Y-64688465D01*
X140223402Y-64706877D01*
X140223405Y-64706880D01*
X140246186Y-64729661D01*
X140255452Y-64740029D01*
X140277492Y-64767666D01*
X140327387Y-64811259D01*
X140333484Y-64816959D01*
X140378116Y-64861592D01*
X140378121Y-64861596D01*
X140378123Y-64861598D01*
X140379583Y-64862620D01*
X140407332Y-64882050D01*
X140417793Y-64890244D01*
X140447004Y-64915765D01*
X140447013Y-64915771D01*
X140500924Y-64947981D01*
X140508449Y-64952854D01*
X140557359Y-64987101D01*
X140557365Y-64987104D01*
X140592798Y-65003627D01*
X140603992Y-65009561D01*
X140640234Y-65031214D01*
X140640236Y-65031215D01*
X140685728Y-65048288D01*
X140695838Y-65052082D01*
X140704669Y-65055792D01*
X140748300Y-65076138D01*
X140755670Y-65079575D01*
X140755675Y-65079577D01*
X140796756Y-65090584D01*
X140808227Y-65094262D01*
X140850976Y-65110307D01*
X140906047Y-65120301D01*
X140915965Y-65122526D01*
X140967023Y-65136207D01*
X141012829Y-65140214D01*
X141024121Y-65141728D01*
X141072453Y-65150500D01*
X141124985Y-65150500D01*
X141135792Y-65150972D01*
X141184998Y-65155277D01*
X141185000Y-65155277D01*
X141235369Y-65150870D01*
X141240600Y-65150524D01*
X141241122Y-65150500D01*
X141241155Y-65150500D01*
X141294217Y-65145724D01*
X141295173Y-65145638D01*
X141295180Y-65145724D01*
X141295477Y-65145611D01*
X141402977Y-65136207D01*
X141402982Y-65136205D01*
X141405000Y-65136029D01*
X141407205Y-65135736D01*
X141409182Y-65135377D01*
X141409188Y-65135377D01*
X141512684Y-65106812D01*
X141513350Y-65106631D01*
X141614330Y-65079575D01*
X141614337Y-65079571D01*
X141618913Y-65077906D01*
X141624449Y-65076138D01*
X141626159Y-65075495D01*
X141626170Y-65075493D01*
X141719890Y-65030359D01*
X141721016Y-65029825D01*
X141812639Y-64987102D01*
X141812640Y-64987101D01*
X141817327Y-64984395D01*
X141817400Y-64984522D01*
X141828164Y-64978218D01*
X141828973Y-64977829D01*
X141910325Y-64918721D01*
X141911993Y-64917531D01*
X141991877Y-64861598D01*
X141992747Y-64860727D01*
X142007550Y-64848084D01*
X142011078Y-64845522D01*
X142078237Y-64775277D01*
X142080098Y-64773376D01*
X142146592Y-64706883D01*
X142146592Y-64706882D01*
X142146598Y-64706877D01*
X142149285Y-64703039D01*
X142161239Y-64688465D01*
X142166629Y-64682828D01*
X142166628Y-64682828D01*
X142166632Y-64682825D01*
X142218266Y-64604600D01*
X142220083Y-64601928D01*
X142272102Y-64527639D01*
X142275543Y-64520259D01*
X142284432Y-64504364D01*
X142290635Y-64494968D01*
X142326114Y-64411958D01*
X142327713Y-64408377D01*
X142364575Y-64329330D01*
X142367570Y-64318148D01*
X142373325Y-64301505D01*
X142379103Y-64287988D01*
X142398417Y-64203366D01*
X142399533Y-64198863D01*
X142421207Y-64117977D01*
X142422515Y-64103015D01*
X142425150Y-64086237D01*
X142429191Y-64068537D01*
X142432934Y-63985183D01*
X142433274Y-63980036D01*
X142440277Y-63900003D01*
X144779723Y-63900003D01*
X144781331Y-63918389D01*
X144781678Y-63934752D01*
X144780709Y-63956324D01*
X144780710Y-63956328D01*
X144791444Y-64035576D01*
X144792094Y-64041412D01*
X144798792Y-64117972D01*
X144798795Y-64117989D01*
X144804461Y-64139134D01*
X144807563Y-64154576D01*
X144810923Y-64179380D01*
X144810926Y-64179392D01*
X144834573Y-64252169D01*
X144836417Y-64258393D01*
X144855423Y-64329324D01*
X144855428Y-64329337D01*
X144866135Y-64352300D01*
X144871682Y-64366380D01*
X144880483Y-64393464D01*
X144915128Y-64457845D01*
X144918316Y-64464200D01*
X144947897Y-64527638D01*
X144947898Y-64527639D01*
X144964410Y-64551221D01*
X144972025Y-64563578D01*
X144987146Y-64591678D01*
X144987152Y-64591687D01*
X145030587Y-64646153D01*
X145035214Y-64652340D01*
X145060510Y-64688465D01*
X145073402Y-64706877D01*
X145073405Y-64706880D01*
X145096186Y-64729661D01*
X145105452Y-64740029D01*
X145127492Y-64767666D01*
X145177387Y-64811259D01*
X145183484Y-64816959D01*
X145228116Y-64861592D01*
X145228121Y-64861596D01*
X145228123Y-64861598D01*
X145229583Y-64862620D01*
X145257332Y-64882050D01*
X145267793Y-64890244D01*
X145297004Y-64915765D01*
X145297013Y-64915771D01*
X145350924Y-64947981D01*
X145358449Y-64952854D01*
X145407359Y-64987101D01*
X145407365Y-64987104D01*
X145442798Y-65003627D01*
X145453992Y-65009561D01*
X145490234Y-65031214D01*
X145490236Y-65031215D01*
X145535728Y-65048288D01*
X145545838Y-65052082D01*
X145554669Y-65055792D01*
X145598300Y-65076138D01*
X145605670Y-65079575D01*
X145605675Y-65079577D01*
X145646756Y-65090584D01*
X145658227Y-65094262D01*
X145700976Y-65110307D01*
X145756047Y-65120301D01*
X145765965Y-65122526D01*
X145817023Y-65136207D01*
X145862829Y-65140214D01*
X145874121Y-65141728D01*
X145922453Y-65150500D01*
X145974985Y-65150500D01*
X145985792Y-65150972D01*
X146034998Y-65155277D01*
X146035000Y-65155277D01*
X146085369Y-65150870D01*
X146090600Y-65150524D01*
X146091122Y-65150500D01*
X146091155Y-65150500D01*
X146144217Y-65145724D01*
X146145173Y-65145638D01*
X146145180Y-65145724D01*
X146145477Y-65145611D01*
X146252977Y-65136207D01*
X146252982Y-65136205D01*
X146255000Y-65136029D01*
X146257205Y-65135736D01*
X146259182Y-65135377D01*
X146259188Y-65135377D01*
X146362684Y-65106812D01*
X146363350Y-65106631D01*
X146464330Y-65079575D01*
X146464337Y-65079571D01*
X146468913Y-65077906D01*
X146474449Y-65076138D01*
X146476159Y-65075495D01*
X146476170Y-65075493D01*
X146569890Y-65030359D01*
X146571016Y-65029825D01*
X146662639Y-64987102D01*
X146662640Y-64987101D01*
X146667327Y-64984395D01*
X146667400Y-64984522D01*
X146678164Y-64978218D01*
X146678973Y-64977829D01*
X146760325Y-64918721D01*
X146761993Y-64917531D01*
X146841877Y-64861598D01*
X146842747Y-64860727D01*
X146857550Y-64848084D01*
X146861078Y-64845522D01*
X146928237Y-64775277D01*
X146930098Y-64773376D01*
X146996592Y-64706883D01*
X146996592Y-64706882D01*
X146996598Y-64706877D01*
X146999285Y-64703039D01*
X147011239Y-64688465D01*
X147016629Y-64682828D01*
X147016628Y-64682828D01*
X147016632Y-64682825D01*
X147068266Y-64604600D01*
X147070083Y-64601928D01*
X147122102Y-64527639D01*
X147125543Y-64520259D01*
X147134432Y-64504364D01*
X147140635Y-64494968D01*
X147176114Y-64411958D01*
X147177713Y-64408377D01*
X147214575Y-64329330D01*
X147217570Y-64318148D01*
X147223325Y-64301505D01*
X147229103Y-64287988D01*
X147248417Y-64203366D01*
X147249533Y-64198863D01*
X147271207Y-64117977D01*
X147272515Y-64103015D01*
X147275150Y-64086237D01*
X147279191Y-64068537D01*
X147282934Y-63985183D01*
X147283274Y-63980036D01*
X147290277Y-63900000D01*
X147288667Y-63881608D01*
X147288321Y-63865239D01*
X147289290Y-63843670D01*
X147278549Y-63764385D01*
X147277905Y-63758600D01*
X147271207Y-63682023D01*
X147265539Y-63660870D01*
X147262434Y-63645412D01*
X147259076Y-63620619D01*
X147259075Y-63620618D01*
X147259075Y-63620613D01*
X147235414Y-63547795D01*
X147233578Y-63541593D01*
X147214576Y-63470674D01*
X147214575Y-63470671D01*
X147214575Y-63470670D01*
X147203863Y-63447699D01*
X147198317Y-63433618D01*
X147189519Y-63406541D01*
X147189517Y-63406537D01*
X147189517Y-63406536D01*
X147154869Y-63342149D01*
X147151681Y-63335794D01*
X147129398Y-63288009D01*
X147122102Y-63272362D01*
X147105592Y-63248785D01*
X147097976Y-63236425D01*
X147092594Y-63226423D01*
X147082852Y-63208319D01*
X147039398Y-63153830D01*
X147034785Y-63147661D01*
X146996598Y-63093123D01*
X146973804Y-63070329D01*
X146964545Y-63059968D01*
X146942506Y-63032332D01*
X146892611Y-62988739D01*
X146886514Y-62983039D01*
X146841878Y-62938402D01*
X146812663Y-62917946D01*
X146802210Y-62909759D01*
X146772996Y-62884235D01*
X146770156Y-62882538D01*
X146719073Y-62852017D01*
X146711550Y-62847145D01*
X146662641Y-62812899D01*
X146627205Y-62796374D01*
X146616015Y-62790442D01*
X146579769Y-62768787D01*
X146579767Y-62768786D01*
X146571951Y-62765852D01*
X146524154Y-62747914D01*
X146515349Y-62744216D01*
X146464330Y-62720425D01*
X146423232Y-62709412D01*
X146411759Y-62705731D01*
X146369024Y-62689692D01*
X146313965Y-62679700D01*
X146304016Y-62677468D01*
X146252977Y-62663793D01*
X146207176Y-62659785D01*
X146195846Y-62658264D01*
X146147552Y-62649500D01*
X146147547Y-62649500D01*
X146095015Y-62649500D01*
X146084208Y-62649028D01*
X146035002Y-62644723D01*
X146034996Y-62644723D01*
X145984651Y-62649127D01*
X145979442Y-62649473D01*
X145978848Y-62649499D01*
X145924915Y-62654352D01*
X145924613Y-62654379D01*
X145827239Y-62662899D01*
X145817023Y-62663793D01*
X145817022Y-62663793D01*
X145815081Y-62663963D01*
X145812708Y-62664278D01*
X145810809Y-62664623D01*
X145707522Y-62693129D01*
X145706628Y-62693372D01*
X145605668Y-62720425D01*
X145601051Y-62722105D01*
X145595520Y-62723872D01*
X145593836Y-62724504D01*
X145500246Y-62769573D01*
X145498853Y-62770233D01*
X145407359Y-62812899D01*
X145402670Y-62815606D01*
X145402598Y-62815481D01*
X145391871Y-62821764D01*
X145391031Y-62822168D01*
X145309662Y-62881284D01*
X145307904Y-62882538D01*
X145228121Y-62938403D01*
X145227241Y-62939284D01*
X145212461Y-62951906D01*
X145208928Y-62954472D01*
X145208921Y-62954478D01*
X145141847Y-63024632D01*
X145139903Y-63026619D01*
X145073404Y-63093119D01*
X145073402Y-63093121D01*
X145070711Y-63096965D01*
X145058773Y-63111521D01*
X145053368Y-63117174D01*
X145033253Y-63147647D01*
X145001750Y-63195369D01*
X144999865Y-63198142D01*
X144947901Y-63272356D01*
X144947891Y-63272374D01*
X144944457Y-63279738D01*
X144935572Y-63295628D01*
X144929363Y-63305034D01*
X144893893Y-63388020D01*
X144892254Y-63391688D01*
X144855426Y-63470664D01*
X144855424Y-63470671D01*
X144852425Y-63481860D01*
X144846681Y-63498475D01*
X144840899Y-63512005D01*
X144840896Y-63512014D01*
X144821576Y-63596659D01*
X144820460Y-63601158D01*
X144798793Y-63682022D01*
X144797483Y-63696992D01*
X144794847Y-63713769D01*
X144790809Y-63731459D01*
X144790809Y-63731464D01*
X144787066Y-63814777D01*
X144786719Y-63820016D01*
X144779723Y-63899995D01*
X144779723Y-63900003D01*
X142440277Y-63900003D01*
X142440277Y-63900000D01*
X142438667Y-63881608D01*
X142438321Y-63865239D01*
X142439290Y-63843670D01*
X142428549Y-63764385D01*
X142427905Y-63758600D01*
X142421207Y-63682023D01*
X142415539Y-63660870D01*
X142412434Y-63645412D01*
X142409076Y-63620619D01*
X142409075Y-63620618D01*
X142409075Y-63620613D01*
X142385414Y-63547795D01*
X142383578Y-63541593D01*
X142364576Y-63470674D01*
X142364575Y-63470671D01*
X142364575Y-63470670D01*
X142353863Y-63447699D01*
X142348317Y-63433618D01*
X142339519Y-63406541D01*
X142339517Y-63406537D01*
X142339517Y-63406536D01*
X142304869Y-63342149D01*
X142301681Y-63335794D01*
X142279398Y-63288009D01*
X142272102Y-63272362D01*
X142255592Y-63248785D01*
X142247976Y-63236425D01*
X142242594Y-63226423D01*
X142232852Y-63208319D01*
X142189398Y-63153830D01*
X142184785Y-63147661D01*
X142146598Y-63093123D01*
X142123804Y-63070329D01*
X142114545Y-63059968D01*
X142092506Y-63032332D01*
X142042611Y-62988739D01*
X142036514Y-62983039D01*
X141991878Y-62938402D01*
X141962663Y-62917946D01*
X141952210Y-62909759D01*
X141922996Y-62884235D01*
X141920156Y-62882538D01*
X141869073Y-62852017D01*
X141861550Y-62847145D01*
X141812641Y-62812899D01*
X141777205Y-62796374D01*
X141766015Y-62790442D01*
X141729769Y-62768787D01*
X141729767Y-62768786D01*
X141721951Y-62765852D01*
X141674154Y-62747914D01*
X141665349Y-62744216D01*
X141614330Y-62720425D01*
X141573232Y-62709412D01*
X141561759Y-62705731D01*
X141519024Y-62689692D01*
X141463965Y-62679700D01*
X141454016Y-62677468D01*
X141402977Y-62663793D01*
X141357176Y-62659785D01*
X141345846Y-62658264D01*
X141297552Y-62649500D01*
X141297547Y-62649500D01*
X141245015Y-62649500D01*
X141234208Y-62649028D01*
X141185002Y-62644723D01*
X141184996Y-62644723D01*
X141134651Y-62649127D01*
X141129442Y-62649473D01*
X141128848Y-62649499D01*
X141074915Y-62654352D01*
X141074613Y-62654379D01*
X140977239Y-62662899D01*
X140967023Y-62663793D01*
X140967022Y-62663793D01*
X140965081Y-62663963D01*
X140962708Y-62664278D01*
X140960809Y-62664623D01*
X140857522Y-62693129D01*
X140856628Y-62693372D01*
X140755668Y-62720425D01*
X140751051Y-62722105D01*
X140745520Y-62723872D01*
X140743836Y-62724504D01*
X140650246Y-62769573D01*
X140648853Y-62770233D01*
X140557359Y-62812899D01*
X140552670Y-62815606D01*
X140552598Y-62815481D01*
X140541871Y-62821764D01*
X140541031Y-62822168D01*
X140459662Y-62881284D01*
X140457904Y-62882538D01*
X140378121Y-62938403D01*
X140377241Y-62939284D01*
X140362461Y-62951906D01*
X140358928Y-62954472D01*
X140358921Y-62954478D01*
X140291847Y-63024632D01*
X140289903Y-63026619D01*
X140223404Y-63093119D01*
X140223402Y-63093121D01*
X140220711Y-63096965D01*
X140208773Y-63111521D01*
X140203368Y-63117174D01*
X140183253Y-63147647D01*
X140151750Y-63195369D01*
X140149865Y-63198142D01*
X140097901Y-63272356D01*
X140097891Y-63272374D01*
X140094457Y-63279738D01*
X140085572Y-63295628D01*
X140079363Y-63305034D01*
X140043893Y-63388020D01*
X140042254Y-63391688D01*
X140005426Y-63470664D01*
X140005424Y-63470671D01*
X140002425Y-63481860D01*
X139996681Y-63498475D01*
X139990899Y-63512005D01*
X139990896Y-63512014D01*
X139971576Y-63596659D01*
X139970460Y-63601158D01*
X139948793Y-63682022D01*
X139947483Y-63696992D01*
X139944847Y-63713769D01*
X139940809Y-63731459D01*
X139940809Y-63731464D01*
X139937066Y-63814777D01*
X139936719Y-63820016D01*
X139929723Y-63899995D01*
X139929723Y-63900003D01*
X136070500Y-63900003D01*
X136070499Y-63344383D01*
X136070971Y-63333576D01*
X136073469Y-63305034D01*
X136075659Y-63280000D01*
X136072406Y-63242827D01*
X136070971Y-63226421D01*
X136070499Y-63215613D01*
X136070499Y-62382129D01*
X136070498Y-62382123D01*
X136070497Y-62382116D01*
X136064091Y-62322517D01*
X136041331Y-62261495D01*
X136013797Y-62187671D01*
X136013795Y-62187668D01*
X135936421Y-62084309D01*
X135912004Y-62018848D01*
X135926855Y-61950575D01*
X135936416Y-61935696D01*
X136013796Y-61832331D01*
X136064091Y-61697483D01*
X136070500Y-61637873D01*
X136070499Y-60869998D01*
X139479700Y-60869998D01*
X139486750Y-60955098D01*
X139487061Y-60960071D01*
X139490819Y-61048523D01*
X139490820Y-61048534D01*
X139495092Y-61068355D01*
X139497451Y-61084238D01*
X139498865Y-61101301D01*
X139498865Y-61101306D01*
X139520660Y-61187372D01*
X139521670Y-61191685D01*
X139541044Y-61281575D01*
X139541046Y-61281582D01*
X139547333Y-61297228D01*
X139552477Y-61313010D01*
X139555843Y-61326300D01*
X139585571Y-61394075D01*
X139592875Y-61410725D01*
X139594377Y-61414300D01*
X139629934Y-61502787D01*
X139629935Y-61502788D01*
X139636981Y-61514232D01*
X139644943Y-61529428D01*
X139649076Y-61538850D01*
X139701366Y-61618886D01*
X139703147Y-61621693D01*
X139754930Y-61705794D01*
X139761543Y-61713308D01*
X139772263Y-61727402D01*
X139776019Y-61733151D01*
X139776021Y-61733153D01*
X139843117Y-61806040D01*
X139844930Y-61808054D01*
X139912436Y-61884755D01*
X139917564Y-61888895D01*
X139930882Y-61901377D01*
X139933216Y-61903913D01*
X140009875Y-61963578D01*
X140014062Y-61966837D01*
X140015795Y-61968211D01*
X140097920Y-62034523D01*
X140097922Y-62034524D01*
X140100678Y-62036064D01*
X140116360Y-62046460D01*
X140116367Y-62046465D01*
X140116371Y-62046467D01*
X140116374Y-62046470D01*
X140209507Y-62096870D01*
X140210785Y-62097573D01*
X140264637Y-62127657D01*
X140306051Y-62150793D01*
X140308849Y-62152058D01*
X140315695Y-62155097D01*
X140315794Y-62154873D01*
X140320491Y-62156933D01*
X140320497Y-62156936D01*
X140423950Y-62192451D01*
X140424557Y-62192662D01*
X140530829Y-62230211D01*
X140530843Y-62230213D01*
X140532392Y-62230617D01*
X140538492Y-62231910D01*
X140539999Y-62232291D01*
X140540019Y-62232298D01*
X140651192Y-62250849D01*
X140651608Y-62250919D01*
X140677416Y-62255345D01*
X140765792Y-62270499D01*
X140765800Y-62270500D01*
X141001044Y-62270500D01*
X141001049Y-62270500D01*
X141055013Y-62261494D01*
X141064883Y-62260252D01*
X141122541Y-62255346D01*
X141171925Y-62242487D01*
X141182760Y-62240177D01*
X141229981Y-62232298D01*
X141284963Y-62213421D01*
X141293941Y-62210716D01*
X141353249Y-62195275D01*
X141396642Y-62175659D01*
X141407436Y-62171377D01*
X141449503Y-62156936D01*
X141503611Y-62127653D01*
X141511541Y-62123721D01*
X141570486Y-62097077D01*
X141607120Y-62072316D01*
X141617503Y-62066018D01*
X141653626Y-62046470D01*
X141704878Y-62006578D01*
X141711584Y-62001710D01*
X141768003Y-61963579D01*
X141797460Y-61935345D01*
X141807075Y-61927035D01*
X141836784Y-61903913D01*
X141883070Y-61853632D01*
X141888490Y-61848100D01*
X141940118Y-61798621D01*
X141962351Y-61768557D01*
X141970799Y-61758331D01*
X141993979Y-61733153D01*
X142033223Y-61673084D01*
X142037317Y-61667196D01*
X142081879Y-61606947D01*
X142097176Y-61576604D01*
X142104074Y-61564637D01*
X142120924Y-61538849D01*
X142151130Y-61469984D01*
X142153927Y-61464045D01*
X142189207Y-61394074D01*
X142198155Y-61364854D01*
X142203153Y-61351383D01*
X142214157Y-61326300D01*
X142233450Y-61250110D01*
X142235088Y-61244255D01*
X142259015Y-61166126D01*
X142259016Y-61166121D01*
X142262460Y-61139227D01*
X142265251Y-61124535D01*
X142271132Y-61101311D01*
X142271134Y-61101305D01*
X142277903Y-61019600D01*
X142278484Y-61014095D01*
X142289298Y-60929654D01*
X142288291Y-60905961D01*
X142288602Y-60890481D01*
X142290300Y-60870000D01*
X142290300Y-60869998D01*
X144929700Y-60869998D01*
X144936750Y-60955098D01*
X144937061Y-60960071D01*
X144940819Y-61048523D01*
X144940820Y-61048534D01*
X144945092Y-61068355D01*
X144947451Y-61084238D01*
X144948865Y-61101301D01*
X144948865Y-61101306D01*
X144970660Y-61187372D01*
X144971670Y-61191685D01*
X144991044Y-61281575D01*
X144991046Y-61281582D01*
X144997333Y-61297228D01*
X145002477Y-61313010D01*
X145005843Y-61326300D01*
X145035571Y-61394075D01*
X145042875Y-61410725D01*
X145044377Y-61414300D01*
X145079934Y-61502787D01*
X145079935Y-61502788D01*
X145086981Y-61514232D01*
X145094943Y-61529428D01*
X145099076Y-61538850D01*
X145151366Y-61618886D01*
X145153147Y-61621693D01*
X145204930Y-61705794D01*
X145211543Y-61713308D01*
X145222263Y-61727402D01*
X145226019Y-61733151D01*
X145226021Y-61733153D01*
X145293117Y-61806040D01*
X145294930Y-61808054D01*
X145362436Y-61884755D01*
X145367564Y-61888895D01*
X145380882Y-61901377D01*
X145383216Y-61903913D01*
X145459875Y-61963578D01*
X145464062Y-61966837D01*
X145465795Y-61968211D01*
X145547920Y-62034523D01*
X145547922Y-62034524D01*
X145550678Y-62036064D01*
X145566360Y-62046460D01*
X145566367Y-62046465D01*
X145566371Y-62046467D01*
X145566374Y-62046470D01*
X145659507Y-62096870D01*
X145660785Y-62097573D01*
X145714637Y-62127657D01*
X145756051Y-62150793D01*
X145758849Y-62152058D01*
X145765695Y-62155097D01*
X145765794Y-62154873D01*
X145770491Y-62156933D01*
X145770497Y-62156936D01*
X145873950Y-62192451D01*
X145874557Y-62192662D01*
X145980829Y-62230211D01*
X145980843Y-62230213D01*
X145982392Y-62230617D01*
X145988492Y-62231910D01*
X145989999Y-62232291D01*
X145990019Y-62232298D01*
X146101192Y-62250849D01*
X146101608Y-62250919D01*
X146127416Y-62255345D01*
X146215792Y-62270499D01*
X146215800Y-62270500D01*
X146451044Y-62270500D01*
X146451049Y-62270500D01*
X146505013Y-62261494D01*
X146514883Y-62260252D01*
X146572541Y-62255346D01*
X146621925Y-62242487D01*
X146632760Y-62240177D01*
X146679981Y-62232298D01*
X146734963Y-62213421D01*
X146743941Y-62210716D01*
X146803249Y-62195275D01*
X146846642Y-62175659D01*
X146857436Y-62171377D01*
X146899503Y-62156936D01*
X146953611Y-62127653D01*
X146961541Y-62123721D01*
X147020486Y-62097077D01*
X147057120Y-62072316D01*
X147067503Y-62066018D01*
X147103626Y-62046470D01*
X147154878Y-62006578D01*
X147161584Y-62001710D01*
X147218003Y-61963579D01*
X147247460Y-61935345D01*
X147257075Y-61927035D01*
X147286784Y-61903913D01*
X147333070Y-61853632D01*
X147338490Y-61848100D01*
X147390118Y-61798621D01*
X147412351Y-61768557D01*
X147420799Y-61758331D01*
X147443979Y-61733153D01*
X147483223Y-61673084D01*
X147487317Y-61667196D01*
X147531879Y-61606947D01*
X147547176Y-61576604D01*
X147554074Y-61564637D01*
X147570924Y-61538849D01*
X147601130Y-61469984D01*
X147603927Y-61464045D01*
X147639207Y-61394074D01*
X147648155Y-61364854D01*
X147653153Y-61351383D01*
X147664157Y-61326300D01*
X147683450Y-61250110D01*
X147685088Y-61244255D01*
X147709015Y-61166126D01*
X147709016Y-61166121D01*
X147712460Y-61139227D01*
X147715251Y-61124535D01*
X147721132Y-61101311D01*
X147721134Y-61101305D01*
X147727903Y-61019600D01*
X147728484Y-61014095D01*
X147739298Y-60929654D01*
X147738291Y-60905961D01*
X147738602Y-60890481D01*
X147740300Y-60870000D01*
X147733248Y-60784902D01*
X147732938Y-60779943D01*
X147731241Y-60740002D01*
X147729180Y-60691468D01*
X147724906Y-60671640D01*
X147722548Y-60655764D01*
X147721134Y-60638695D01*
X147699325Y-60552577D01*
X147698336Y-60548354D01*
X147678954Y-60458419D01*
X147672665Y-60442770D01*
X147667519Y-60426980D01*
X147664157Y-60413700D01*
X147627092Y-60329202D01*
X147625621Y-60325697D01*
X147590064Y-60237210D01*
X147583021Y-60225771D01*
X147575053Y-60210565D01*
X147570924Y-60201151D01*
X147518639Y-60121122D01*
X147516859Y-60118315D01*
X147465074Y-60034212D01*
X147465071Y-60034209D01*
X147465069Y-60034205D01*
X147458451Y-60026686D01*
X147447727Y-60012584D01*
X147443980Y-60006848D01*
X147420800Y-59981668D01*
X147376876Y-59933953D01*
X147375068Y-59931944D01*
X147307565Y-59855246D01*
X147302439Y-59851107D01*
X147289117Y-59838621D01*
X147286785Y-59836088D01*
X147286783Y-59836086D01*
X147205936Y-59773161D01*
X147204198Y-59771783D01*
X147122080Y-59705477D01*
X147122073Y-59705472D01*
X147119311Y-59703929D01*
X147103643Y-59693542D01*
X147103634Y-59693535D01*
X147103628Y-59693532D01*
X147103626Y-59693530D01*
X147010485Y-59643125D01*
X147009094Y-59642359D01*
X146913961Y-59589213D01*
X146911381Y-59588047D01*
X146904284Y-59584898D01*
X146904188Y-59585119D01*
X146899499Y-59583062D01*
X146796278Y-59547626D01*
X146795233Y-59547262D01*
X146689172Y-59509789D01*
X146687635Y-59509389D01*
X146681549Y-59508098D01*
X146679995Y-59507704D01*
X146568772Y-59489144D01*
X146568227Y-59489051D01*
X146454210Y-59469500D01*
X146454200Y-59469500D01*
X146451049Y-59469500D01*
X146218951Y-59469500D01*
X146164993Y-59478503D01*
X146155101Y-59479747D01*
X146097470Y-59484652D01*
X146097461Y-59484653D01*
X146048077Y-59497511D01*
X146037250Y-59499819D01*
X145990012Y-59507703D01*
X145935068Y-59526566D01*
X145926051Y-59529284D01*
X145866749Y-59544725D01*
X145866743Y-59544727D01*
X145823361Y-59564337D01*
X145812553Y-59568624D01*
X145770504Y-59583060D01*
X145770498Y-59583063D01*
X145716396Y-59612341D01*
X145708460Y-59616275D01*
X145649514Y-59642922D01*
X145612883Y-59667679D01*
X145602470Y-59673994D01*
X145566379Y-59693526D01*
X145566367Y-59693533D01*
X145515126Y-59733416D01*
X145508402Y-59738297D01*
X145452001Y-59776417D01*
X145451994Y-59776423D01*
X145422546Y-59804644D01*
X145412918Y-59812967D01*
X145383217Y-59836085D01*
X145383209Y-59836093D01*
X145336925Y-59886369D01*
X145331500Y-59891905D01*
X145279882Y-59941378D01*
X145279880Y-59941380D01*
X145257657Y-59971427D01*
X145249198Y-59981668D01*
X145226021Y-60006846D01*
X145186781Y-60066906D01*
X145182671Y-60072814D01*
X145138124Y-60133047D01*
X145138119Y-60133055D01*
X145122826Y-60163384D01*
X145115918Y-60175370D01*
X145099076Y-60201149D01*
X145068887Y-60269974D01*
X145066060Y-60275975D01*
X145039189Y-60329274D01*
X145030791Y-60345930D01*
X145021847Y-60375131D01*
X145016842Y-60388620D01*
X145005845Y-60413691D01*
X145005845Y-60413692D01*
X144986552Y-60489872D01*
X144984913Y-60495735D01*
X144960984Y-60573877D01*
X144960983Y-60573879D01*
X144957538Y-60600777D01*
X144954750Y-60615454D01*
X144948867Y-60638687D01*
X144948864Y-60638706D01*
X144942097Y-60720377D01*
X144941517Y-60725887D01*
X144930702Y-60810344D01*
X144930701Y-60810345D01*
X144931707Y-60834025D01*
X144931396Y-60849520D01*
X144929700Y-60869998D01*
X142290300Y-60869998D01*
X142283248Y-60784902D01*
X142282938Y-60779943D01*
X142281241Y-60740002D01*
X142279180Y-60691468D01*
X142274906Y-60671640D01*
X142272548Y-60655764D01*
X142271134Y-60638695D01*
X142249325Y-60552577D01*
X142248336Y-60548354D01*
X142228954Y-60458419D01*
X142222665Y-60442770D01*
X142217519Y-60426980D01*
X142214157Y-60413700D01*
X142177092Y-60329202D01*
X142175621Y-60325697D01*
X142140064Y-60237210D01*
X142133021Y-60225771D01*
X142125053Y-60210565D01*
X142120924Y-60201151D01*
X142068639Y-60121122D01*
X142066859Y-60118315D01*
X142015074Y-60034212D01*
X142015071Y-60034209D01*
X142015069Y-60034205D01*
X142008451Y-60026686D01*
X141997727Y-60012584D01*
X141993980Y-60006848D01*
X141970800Y-59981668D01*
X141926876Y-59933953D01*
X141925068Y-59931944D01*
X141857565Y-59855246D01*
X141852439Y-59851107D01*
X141839117Y-59838621D01*
X141836785Y-59836088D01*
X141836783Y-59836086D01*
X141755936Y-59773161D01*
X141754198Y-59771783D01*
X141672080Y-59705477D01*
X141672073Y-59705472D01*
X141669311Y-59703929D01*
X141653643Y-59693542D01*
X141653634Y-59693535D01*
X141653628Y-59693532D01*
X141653626Y-59693530D01*
X141560485Y-59643125D01*
X141559094Y-59642359D01*
X141463961Y-59589213D01*
X141461381Y-59588047D01*
X141454284Y-59584898D01*
X141454188Y-59585119D01*
X141449499Y-59583062D01*
X141346278Y-59547626D01*
X141345233Y-59547262D01*
X141239172Y-59509789D01*
X141237635Y-59509389D01*
X141231549Y-59508098D01*
X141229995Y-59507704D01*
X141118772Y-59489144D01*
X141118227Y-59489051D01*
X141004210Y-59469500D01*
X141004200Y-59469500D01*
X141001049Y-59469500D01*
X140768951Y-59469500D01*
X140714993Y-59478503D01*
X140705101Y-59479747D01*
X140647470Y-59484652D01*
X140647461Y-59484653D01*
X140598077Y-59497511D01*
X140587250Y-59499819D01*
X140540012Y-59507703D01*
X140485068Y-59526566D01*
X140476051Y-59529284D01*
X140416749Y-59544725D01*
X140416743Y-59544727D01*
X140373361Y-59564337D01*
X140362553Y-59568624D01*
X140320504Y-59583060D01*
X140320498Y-59583063D01*
X140266396Y-59612341D01*
X140258460Y-59616275D01*
X140199514Y-59642922D01*
X140162883Y-59667679D01*
X140152470Y-59673994D01*
X140116379Y-59693526D01*
X140116367Y-59693533D01*
X140065126Y-59733416D01*
X140058402Y-59738297D01*
X140002001Y-59776417D01*
X140001994Y-59776423D01*
X139972546Y-59804644D01*
X139962918Y-59812967D01*
X139933217Y-59836085D01*
X139933209Y-59836093D01*
X139886925Y-59886369D01*
X139881500Y-59891905D01*
X139829882Y-59941378D01*
X139829880Y-59941380D01*
X139807657Y-59971427D01*
X139799198Y-59981668D01*
X139776021Y-60006846D01*
X139736781Y-60066906D01*
X139732671Y-60072814D01*
X139688124Y-60133047D01*
X139688119Y-60133055D01*
X139672826Y-60163384D01*
X139665918Y-60175370D01*
X139649076Y-60201149D01*
X139618887Y-60269974D01*
X139616060Y-60275975D01*
X139589189Y-60329274D01*
X139580791Y-60345930D01*
X139571847Y-60375131D01*
X139566842Y-60388620D01*
X139555845Y-60413691D01*
X139555845Y-60413692D01*
X139536552Y-60489872D01*
X139534913Y-60495735D01*
X139510984Y-60573877D01*
X139510983Y-60573879D01*
X139507538Y-60600777D01*
X139504750Y-60615454D01*
X139498867Y-60638687D01*
X139498864Y-60638706D01*
X139492097Y-60720377D01*
X139491517Y-60725887D01*
X139480702Y-60810344D01*
X139480701Y-60810345D01*
X139481707Y-60834025D01*
X139481396Y-60849520D01*
X139479700Y-60869998D01*
X136070499Y-60869998D01*
X136070499Y-60804383D01*
X136070971Y-60793576D01*
X136075659Y-60740000D01*
X136075659Y-60739999D01*
X136070971Y-60686421D01*
X136070499Y-60675613D01*
X136070499Y-59842129D01*
X136070498Y-59842123D01*
X136070497Y-59842116D01*
X136064091Y-59782517D01*
X136061817Y-59776421D01*
X136013797Y-59647671D01*
X136013793Y-59647664D01*
X135927547Y-59532455D01*
X135927544Y-59532452D01*
X135812335Y-59446206D01*
X135812328Y-59446202D01*
X135677482Y-59395908D01*
X135677483Y-59395908D01*
X135617883Y-59389501D01*
X135617881Y-59389500D01*
X135617873Y-59389500D01*
X135617865Y-59389500D01*
X134784380Y-59389500D01*
X134773573Y-59389028D01*
X134747024Y-59386705D01*
X134720001Y-59384341D01*
X134719998Y-59384341D01*
X134666424Y-59389028D01*
X134655617Y-59389500D01*
X132022129Y-59389500D01*
X132022123Y-59389501D01*
X131962516Y-59395908D01*
X131827671Y-59446202D01*
X131827664Y-59446206D01*
X131712455Y-59532452D01*
X131712452Y-59532455D01*
X131626206Y-59647664D01*
X131626202Y-59647671D01*
X131575908Y-59782517D01*
X131569877Y-59838621D01*
X131569501Y-59842123D01*
X131569500Y-59842135D01*
X131569500Y-61637870D01*
X131569501Y-61637876D01*
X131575908Y-61697483D01*
X131626202Y-61832328D01*
X131626203Y-61832330D01*
X131703578Y-61935689D01*
X131727995Y-62001153D01*
X131713144Y-62069426D01*
X131703578Y-62084309D01*
X131693168Y-62098216D01*
X131626203Y-62187669D01*
X131626202Y-62187671D01*
X131575908Y-62322517D01*
X131569501Y-62382116D01*
X131569501Y-62382123D01*
X131569500Y-62382135D01*
X131569500Y-64177870D01*
X131569501Y-64177876D01*
X131575908Y-64237483D01*
X131626202Y-64372328D01*
X131626206Y-64372335D01*
X131703889Y-64476105D01*
X131728307Y-64541569D01*
X131713456Y-64609842D01*
X131703890Y-64624727D01*
X131626647Y-64727910D01*
X131626645Y-64727913D01*
X131576403Y-64862620D01*
X131576401Y-64862627D01*
X131570000Y-64922155D01*
X131570000Y-65570000D01*
X134274428Y-65570000D01*
X134251318Y-65605960D01*
X134210000Y-65746673D01*
X134210000Y-65893327D01*
X134251318Y-66034040D01*
X134274428Y-66070000D01*
X131570000Y-66070000D01*
X131570000Y-66717844D01*
X131576401Y-66777372D01*
X131576403Y-66777379D01*
X131626645Y-66912086D01*
X131626646Y-66912088D01*
X131703890Y-67015272D01*
X131728307Y-67080736D01*
X131713456Y-67149009D01*
X131703890Y-67163894D01*
X131626204Y-67267669D01*
X131626202Y-67267671D01*
X131575908Y-67402517D01*
X131569501Y-67462116D01*
X131569501Y-67462123D01*
X131569500Y-67462135D01*
X131569500Y-69257870D01*
X131569501Y-69257876D01*
X131575908Y-69317483D01*
X131626202Y-69452328D01*
X131626203Y-69452330D01*
X131703578Y-69555689D01*
X131727995Y-69621153D01*
X131713144Y-69689426D01*
X131703578Y-69704311D01*
X131626203Y-69807669D01*
X131626202Y-69807671D01*
X131575908Y-69942517D01*
X131569501Y-70002116D01*
X131569501Y-70002123D01*
X131569500Y-70002135D01*
X131569500Y-71797870D01*
X131569501Y-71797876D01*
X131575908Y-71857483D01*
X131626202Y-71992328D01*
X131626203Y-71992330D01*
X131626204Y-71992331D01*
X131683973Y-72069501D01*
X131703578Y-72095689D01*
X131727995Y-72161153D01*
X131713144Y-72229426D01*
X131703578Y-72244311D01*
X131626203Y-72347669D01*
X131626202Y-72347671D01*
X131575908Y-72482517D01*
X131571650Y-72522127D01*
X131569501Y-72542123D01*
X131569500Y-72542135D01*
X131569500Y-72670500D01*
X131549815Y-72737539D01*
X131497011Y-72783294D01*
X131445500Y-72794500D01*
X128974499Y-72794500D01*
X128907460Y-72774815D01*
X128861705Y-72722011D01*
X128850499Y-72670500D01*
X128850499Y-72522129D01*
X128850498Y-72522123D01*
X128850497Y-72522116D01*
X128844091Y-72462517D01*
X128801256Y-72347671D01*
X128793797Y-72327671D01*
X128793793Y-72327664D01*
X128707547Y-72212455D01*
X128707544Y-72212452D01*
X128592335Y-72126206D01*
X128592328Y-72126202D01*
X128457482Y-72075908D01*
X128457483Y-72075908D01*
X128397883Y-72069501D01*
X128397881Y-72069500D01*
X128397873Y-72069500D01*
X128397864Y-72069500D01*
X126602129Y-72069500D01*
X126602123Y-72069501D01*
X126542516Y-72075908D01*
X126407671Y-72126202D01*
X126407664Y-72126206D01*
X126292455Y-72212452D01*
X126292452Y-72212455D01*
X126206206Y-72327664D01*
X126206202Y-72327671D01*
X126155908Y-72462517D01*
X126149501Y-72522116D01*
X126149501Y-72522123D01*
X126149500Y-72522135D01*
X126149500Y-74317870D01*
X126149501Y-74317876D01*
X126155908Y-74377483D01*
X126206202Y-74512328D01*
X126206206Y-74512335D01*
X126292452Y-74627544D01*
X126292455Y-74627547D01*
X126407664Y-74713793D01*
X126407671Y-74713797D01*
X126539081Y-74762810D01*
X126595015Y-74804681D01*
X126619432Y-74870145D01*
X126604580Y-74938418D01*
X126583430Y-74966673D01*
X126461503Y-75088600D01*
X126325965Y-75282169D01*
X126325964Y-75282171D01*
X126226098Y-75496335D01*
X126226094Y-75496344D01*
X126164938Y-75724586D01*
X126164936Y-75724596D01*
X126144341Y-75959999D01*
X126144341Y-75960000D01*
X126164936Y-76195403D01*
X126164938Y-76195413D01*
X126226094Y-76423655D01*
X126226096Y-76423659D01*
X126226097Y-76423663D01*
X126301563Y-76585500D01*
X126325965Y-76637830D01*
X126325967Y-76637834D01*
X126434281Y-76792521D01*
X126461501Y-76831396D01*
X126461506Y-76831402D01*
X126628597Y-76998493D01*
X126628603Y-76998498D01*
X126814158Y-77128425D01*
X126857783Y-77183002D01*
X126864977Y-77252500D01*
X126833454Y-77314855D01*
X126814158Y-77331575D01*
X126628597Y-77461505D01*
X126461505Y-77628597D01*
X126325965Y-77822169D01*
X126325964Y-77822171D01*
X126226098Y-78036335D01*
X126226094Y-78036344D01*
X126164938Y-78264586D01*
X126164936Y-78264596D01*
X126144341Y-78499999D01*
X126144341Y-78500000D01*
X125000000Y-78500000D01*
X125000000Y-59124000D01*
X125019685Y-59056961D01*
X125072489Y-59011206D01*
X125124000Y-59000000D01*
X165376000Y-59000000D01*
X165443039Y-59019685D01*
G37*
%TD.AperFunction*%
%TD*%
M02*
