%TF.GenerationSoftware,KiCad,Pcbnew,7.0.10+dfsg-1*%
%TF.CreationDate,2024-01-14T16:43:58+01:00*%
%TF.ProjectId,picoswitch,7069636f-7377-4697-9463-682e6b696361,rev?*%
%TF.SameCoordinates,Original*%
%TF.FileFunction,Soldermask,Bot*%
%TF.FilePolarity,Negative*%
%FSLAX46Y46*%
G04 Gerber Fmt 4.6, Leading zero omitted, Abs format (unit mm)*
G04 Created by KiCad (PCBNEW 7.0.10+dfsg-1) date 2024-01-14 16:43:58*
%MOMM*%
%LPD*%
G01*
G04 APERTURE LIST*
%ADD10R,1.700000X1.700000*%
%ADD11O,1.700000X1.700000*%
%ADD12R,3.200000X3.200000*%
%ADD13O,3.200000X3.200000*%
%ADD14O,1.800000X1.800000*%
%ADD15O,1.500000X1.500000*%
%ADD16R,1.050000X1.500000*%
%ADD17O,1.050000X1.500000*%
G04 APERTURE END LIST*
D10*
%TO.C,J1*%
X137420000Y-113960000D03*
D11*
X137420000Y-116500000D03*
X139960000Y-113960000D03*
X139960000Y-116500000D03*
X142500000Y-113960000D03*
X142500000Y-116500000D03*
X145040000Y-113960000D03*
X145040000Y-116500000D03*
X147580000Y-113960000D03*
X147580000Y-116500000D03*
X150120000Y-113960000D03*
X150120000Y-116500000D03*
%TD*%
D12*
%TO.C,D1*%
X162000000Y-105190000D03*
D13*
X162000000Y-109000000D03*
%TD*%
D14*
%TO.C,U1*%
X146335000Y-60870000D03*
X140885000Y-60870000D03*
D15*
X141185000Y-63900000D03*
X146035000Y-63900000D03*
D11*
X134720000Y-60740000D03*
X134720000Y-63280000D03*
D10*
X134720000Y-65820000D03*
D11*
X134720000Y-68360000D03*
X134720000Y-70900000D03*
X134720000Y-73440000D03*
X134720000Y-75980000D03*
D10*
X134720000Y-78520000D03*
D11*
X134720000Y-81060000D03*
X134720000Y-83600000D03*
X134720000Y-86140000D03*
X134720000Y-88680000D03*
D10*
X134720000Y-91220000D03*
D11*
X134720000Y-93760000D03*
X134720000Y-96300000D03*
X134720000Y-98840000D03*
X134720000Y-101380000D03*
D10*
X134720000Y-103920000D03*
D11*
X134720000Y-106460000D03*
X134720000Y-109000000D03*
X152500000Y-109000000D03*
X152500000Y-106460000D03*
D10*
X152500000Y-103920000D03*
D11*
X152500000Y-101380000D03*
X152500000Y-98840000D03*
X152500000Y-96300000D03*
X152500000Y-93760000D03*
D10*
X152500000Y-91220000D03*
D11*
X152500000Y-88680000D03*
X152500000Y-86140000D03*
X152500000Y-83600000D03*
X152500000Y-81060000D03*
D10*
X152500000Y-78520000D03*
D11*
X152500000Y-75980000D03*
X152500000Y-73440000D03*
X152500000Y-70900000D03*
X152500000Y-68360000D03*
D10*
X152500000Y-65820000D03*
D11*
X152500000Y-63280000D03*
X152500000Y-60740000D03*
X141070000Y-108770000D03*
D10*
X143610000Y-108770000D03*
D11*
X146150000Y-108770000D03*
%TD*%
D16*
%TO.C,Q2*%
X155230000Y-115500000D03*
D17*
X156500000Y-115500000D03*
X157770000Y-115500000D03*
%TD*%
%TO.C,Q1*%
X132500000Y-115500000D03*
X131230000Y-115500000D03*
D16*
X129960000Y-115500000D03*
%TD*%
D10*
%TO.C,J2*%
X127500000Y-73420000D03*
D11*
X127500000Y-75960000D03*
X127500000Y-78500000D03*
%TD*%
M02*
