%TF.GenerationSoftware,KiCad,Pcbnew,7.0.10+dfsg-1*%
%TF.CreationDate,2024-01-21T16:37:02+01:00*%
%TF.ProjectId,picoswitch,7069636f-7377-4697-9463-682e6b696361,rev?*%
%TF.SameCoordinates,Original*%
%TF.FileFunction,Legend,Top*%
%TF.FilePolarity,Positive*%
%FSLAX46Y46*%
G04 Gerber Fmt 4.6, Leading zero omitted, Abs format (unit mm)*
G04 Created by KiCad (PCBNEW 7.0.10+dfsg-1) date 2024-01-21 16:37:02*
%MOMM*%
%LPD*%
G01*
G04 APERTURE LIST*
%ADD10C,0.150000*%
%ADD11C,0.120000*%
G04 APERTURE END LIST*
D10*
X134454819Y-115603333D02*
X135169104Y-115603333D01*
X135169104Y-115603333D02*
X135311961Y-115650952D01*
X135311961Y-115650952D02*
X135407200Y-115746190D01*
X135407200Y-115746190D02*
X135454819Y-115889047D01*
X135454819Y-115889047D02*
X135454819Y-115984285D01*
X134454819Y-115222380D02*
X134454819Y-114603333D01*
X134454819Y-114603333D02*
X134835771Y-114936666D01*
X134835771Y-114936666D02*
X134835771Y-114793809D01*
X134835771Y-114793809D02*
X134883390Y-114698571D01*
X134883390Y-114698571D02*
X134931009Y-114650952D01*
X134931009Y-114650952D02*
X135026247Y-114603333D01*
X135026247Y-114603333D02*
X135264342Y-114603333D01*
X135264342Y-114603333D02*
X135359580Y-114650952D01*
X135359580Y-114650952D02*
X135407200Y-114698571D01*
X135407200Y-114698571D02*
X135454819Y-114793809D01*
X135454819Y-114793809D02*
X135454819Y-115079523D01*
X135454819Y-115079523D02*
X135407200Y-115174761D01*
X135407200Y-115174761D02*
X135359580Y-115222380D01*
X127141666Y-80749819D02*
X127141666Y-81464104D01*
X127141666Y-81464104D02*
X127094047Y-81606961D01*
X127094047Y-81606961D02*
X126998809Y-81702200D01*
X126998809Y-81702200D02*
X126855952Y-81749819D01*
X126855952Y-81749819D02*
X126760714Y-81749819D01*
X127570238Y-80845057D02*
X127617857Y-80797438D01*
X127617857Y-80797438D02*
X127713095Y-80749819D01*
X127713095Y-80749819D02*
X127951190Y-80749819D01*
X127951190Y-80749819D02*
X128046428Y-80797438D01*
X128046428Y-80797438D02*
X128094047Y-80845057D01*
X128094047Y-80845057D02*
X128141666Y-80940295D01*
X128141666Y-80940295D02*
X128141666Y-81035533D01*
X128141666Y-81035533D02*
X128094047Y-81178390D01*
X128094047Y-81178390D02*
X127522619Y-81749819D01*
X127522619Y-81749819D02*
X128141666Y-81749819D01*
X142848095Y-84324819D02*
X142848095Y-85134342D01*
X142848095Y-85134342D02*
X142895714Y-85229580D01*
X142895714Y-85229580D02*
X142943333Y-85277200D01*
X142943333Y-85277200D02*
X143038571Y-85324819D01*
X143038571Y-85324819D02*
X143229047Y-85324819D01*
X143229047Y-85324819D02*
X143324285Y-85277200D01*
X143324285Y-85277200D02*
X143371904Y-85229580D01*
X143371904Y-85229580D02*
X143419523Y-85134342D01*
X143419523Y-85134342D02*
X143419523Y-84324819D01*
X144419523Y-85324819D02*
X143848095Y-85324819D01*
X144133809Y-85324819D02*
X144133809Y-84324819D01*
X144133809Y-84324819D02*
X144038571Y-84467676D01*
X144038571Y-84467676D02*
X143943333Y-84562914D01*
X143943333Y-84562914D02*
X143848095Y-84610533D01*
X129453998Y-96690868D02*
X129373185Y-96717805D01*
X129373185Y-96717805D02*
X129292373Y-96798618D01*
X129292373Y-96798618D02*
X129238498Y-96906367D01*
X129238498Y-96906367D02*
X129238498Y-97014117D01*
X129238498Y-97014117D02*
X129265436Y-97094929D01*
X129265436Y-97094929D02*
X129346248Y-97229616D01*
X129346248Y-97229616D02*
X129427060Y-97310428D01*
X129427060Y-97310428D02*
X129561747Y-97391241D01*
X129561747Y-97391241D02*
X129642560Y-97418178D01*
X129642560Y-97418178D02*
X129750309Y-97418178D01*
X129750309Y-97418178D02*
X129858059Y-97364303D01*
X129858059Y-97364303D02*
X129911934Y-97310428D01*
X129911934Y-97310428D02*
X129965808Y-97202679D01*
X129965808Y-97202679D02*
X129965808Y-97148804D01*
X129965808Y-97148804D02*
X129777247Y-96960242D01*
X129777247Y-96960242D02*
X129669497Y-97067992D01*
X130262120Y-96960242D02*
X129696434Y-96394557D01*
X129696434Y-96394557D02*
X129911934Y-96179057D01*
X129911934Y-96179057D02*
X129992746Y-96152120D01*
X129992746Y-96152120D02*
X130046621Y-96152120D01*
X130046621Y-96152120D02*
X130127433Y-96179057D01*
X130127433Y-96179057D02*
X130208245Y-96259870D01*
X130208245Y-96259870D02*
X130235182Y-96340682D01*
X130235182Y-96340682D02*
X130235182Y-96394557D01*
X130235182Y-96394557D02*
X130208245Y-96475369D01*
X130208245Y-96475369D02*
X129992746Y-96690868D01*
X131124117Y-96098245D02*
X130800868Y-96421494D01*
X130962492Y-96259870D02*
X130396807Y-95694184D01*
X130396807Y-95694184D02*
X130423744Y-95828871D01*
X130423744Y-95828871D02*
X130423744Y-95936621D01*
X130423744Y-95936621D02*
X130396807Y-96017433D01*
X131662865Y-95559497D02*
X131339616Y-95882746D01*
X131501240Y-95721121D02*
X130935555Y-95155436D01*
X130935555Y-95155436D02*
X130962492Y-95290123D01*
X130962492Y-95290123D02*
X130962492Y-95397873D01*
X130962492Y-95397873D02*
X130935555Y-95478685D01*
X130096435Y-104068431D02*
X130015623Y-104095368D01*
X130015623Y-104095368D02*
X129934811Y-104176180D01*
X129934811Y-104176180D02*
X129880936Y-104283930D01*
X129880936Y-104283930D02*
X129880936Y-104391680D01*
X129880936Y-104391680D02*
X129907873Y-104472492D01*
X129907873Y-104472492D02*
X129988685Y-104607179D01*
X129988685Y-104607179D02*
X130069498Y-104687991D01*
X130069498Y-104687991D02*
X130204185Y-104768803D01*
X130204185Y-104768803D02*
X130284997Y-104795741D01*
X130284997Y-104795741D02*
X130392746Y-104795741D01*
X130392746Y-104795741D02*
X130500496Y-104741866D01*
X130500496Y-104741866D02*
X130554371Y-104687991D01*
X130554371Y-104687991D02*
X130608246Y-104580241D01*
X130608246Y-104580241D02*
X130608246Y-104526367D01*
X130608246Y-104526367D02*
X130419684Y-104337805D01*
X130419684Y-104337805D02*
X130311934Y-104445554D01*
X130904557Y-104337805D02*
X130338872Y-103772119D01*
X130338872Y-103772119D02*
X131227806Y-104014556D01*
X131227806Y-104014556D02*
X130662120Y-103448871D01*
X131497180Y-103745182D02*
X130931494Y-103179497D01*
X130931494Y-103179497D02*
X131066181Y-103044810D01*
X131066181Y-103044810D02*
X131173931Y-102990935D01*
X131173931Y-102990935D02*
X131281680Y-102990935D01*
X131281680Y-102990935D02*
X131362493Y-103017872D01*
X131362493Y-103017872D02*
X131497180Y-103098685D01*
X131497180Y-103098685D02*
X131577992Y-103179497D01*
X131577992Y-103179497D02*
X131658804Y-103314184D01*
X131658804Y-103314184D02*
X131685741Y-103394996D01*
X131685741Y-103394996D02*
X131685741Y-103502746D01*
X131685741Y-103502746D02*
X131631867Y-103610495D01*
X131631867Y-103610495D02*
X131497180Y-103745182D01*
X129453998Y-99230868D02*
X129373185Y-99257805D01*
X129373185Y-99257805D02*
X129292373Y-99338618D01*
X129292373Y-99338618D02*
X129238498Y-99446367D01*
X129238498Y-99446367D02*
X129238498Y-99554117D01*
X129238498Y-99554117D02*
X129265436Y-99634929D01*
X129265436Y-99634929D02*
X129346248Y-99769616D01*
X129346248Y-99769616D02*
X129427060Y-99850428D01*
X129427060Y-99850428D02*
X129561747Y-99931241D01*
X129561747Y-99931241D02*
X129642560Y-99958178D01*
X129642560Y-99958178D02*
X129750309Y-99958178D01*
X129750309Y-99958178D02*
X129858059Y-99904303D01*
X129858059Y-99904303D02*
X129911934Y-99850428D01*
X129911934Y-99850428D02*
X129965808Y-99742679D01*
X129965808Y-99742679D02*
X129965808Y-99688804D01*
X129965808Y-99688804D02*
X129777247Y-99500242D01*
X129777247Y-99500242D02*
X129669497Y-99607992D01*
X130262120Y-99500242D02*
X129696434Y-98934557D01*
X129696434Y-98934557D02*
X129911934Y-98719057D01*
X129911934Y-98719057D02*
X129992746Y-98692120D01*
X129992746Y-98692120D02*
X130046621Y-98692120D01*
X130046621Y-98692120D02*
X130127433Y-98719057D01*
X130127433Y-98719057D02*
X130208245Y-98799870D01*
X130208245Y-98799870D02*
X130235182Y-98880682D01*
X130235182Y-98880682D02*
X130235182Y-98934557D01*
X130235182Y-98934557D02*
X130208245Y-99015369D01*
X130208245Y-99015369D02*
X129992746Y-99230868D01*
X131124117Y-98638245D02*
X130800868Y-98961494D01*
X130962492Y-98799870D02*
X130396807Y-98234184D01*
X130396807Y-98234184D02*
X130423744Y-98368871D01*
X130423744Y-98368871D02*
X130423744Y-98476621D01*
X130423744Y-98476621D02*
X130396807Y-98557433D01*
X130827805Y-97910935D02*
X130827805Y-97857060D01*
X130827805Y-97857060D02*
X130854743Y-97776248D01*
X130854743Y-97776248D02*
X130989430Y-97641561D01*
X130989430Y-97641561D02*
X131070242Y-97614624D01*
X131070242Y-97614624D02*
X131124117Y-97614624D01*
X131124117Y-97614624D02*
X131204929Y-97641561D01*
X131204929Y-97641561D02*
X131258804Y-97695436D01*
X131258804Y-97695436D02*
X131312679Y-97803186D01*
X131312679Y-97803186D02*
X131312679Y-98449683D01*
X131312679Y-98449683D02*
X131662865Y-98099497D01*
X155707998Y-101770868D02*
X155627185Y-101797805D01*
X155627185Y-101797805D02*
X155546373Y-101878618D01*
X155546373Y-101878618D02*
X155492498Y-101986367D01*
X155492498Y-101986367D02*
X155492498Y-102094117D01*
X155492498Y-102094117D02*
X155519436Y-102174929D01*
X155519436Y-102174929D02*
X155600248Y-102309616D01*
X155600248Y-102309616D02*
X155681060Y-102390428D01*
X155681060Y-102390428D02*
X155815747Y-102471241D01*
X155815747Y-102471241D02*
X155896560Y-102498178D01*
X155896560Y-102498178D02*
X156004309Y-102498178D01*
X156004309Y-102498178D02*
X156112059Y-102444303D01*
X156112059Y-102444303D02*
X156165934Y-102390428D01*
X156165934Y-102390428D02*
X156219808Y-102282679D01*
X156219808Y-102282679D02*
X156219808Y-102228804D01*
X156219808Y-102228804D02*
X156031247Y-102040242D01*
X156031247Y-102040242D02*
X155923497Y-102147992D01*
X156516120Y-102040242D02*
X155950434Y-101474557D01*
X155950434Y-101474557D02*
X156165934Y-101259057D01*
X156165934Y-101259057D02*
X156246746Y-101232120D01*
X156246746Y-101232120D02*
X156300621Y-101232120D01*
X156300621Y-101232120D02*
X156381433Y-101259057D01*
X156381433Y-101259057D02*
X156462245Y-101339870D01*
X156462245Y-101339870D02*
X156489182Y-101420682D01*
X156489182Y-101420682D02*
X156489182Y-101474557D01*
X156489182Y-101474557D02*
X156462245Y-101555369D01*
X156462245Y-101555369D02*
X156246746Y-101770868D01*
X157378117Y-101178245D02*
X157054868Y-101501494D01*
X157216492Y-101339870D02*
X156650807Y-100774184D01*
X156650807Y-100774184D02*
X156677744Y-100908871D01*
X156677744Y-100908871D02*
X156677744Y-101016621D01*
X156677744Y-101016621D02*
X156650807Y-101097433D01*
X157378117Y-100531747D02*
X157297305Y-100558685D01*
X157297305Y-100558685D02*
X157243430Y-100558685D01*
X157243430Y-100558685D02*
X157162618Y-100531747D01*
X157162618Y-100531747D02*
X157135680Y-100504810D01*
X157135680Y-100504810D02*
X157108743Y-100423998D01*
X157108743Y-100423998D02*
X157108743Y-100370123D01*
X157108743Y-100370123D02*
X157135680Y-100289311D01*
X157135680Y-100289311D02*
X157243430Y-100181561D01*
X157243430Y-100181561D02*
X157324242Y-100154624D01*
X157324242Y-100154624D02*
X157378117Y-100154624D01*
X157378117Y-100154624D02*
X157458929Y-100181561D01*
X157458929Y-100181561D02*
X157485866Y-100208499D01*
X157485866Y-100208499D02*
X157512804Y-100289311D01*
X157512804Y-100289311D02*
X157512804Y-100343186D01*
X157512804Y-100343186D02*
X157485866Y-100423998D01*
X157485866Y-100423998D02*
X157378117Y-100531747D01*
X157378117Y-100531747D02*
X157351179Y-100612560D01*
X157351179Y-100612560D02*
X157351179Y-100666434D01*
X157351179Y-100666434D02*
X157378117Y-100747247D01*
X157378117Y-100747247D02*
X157485866Y-100854996D01*
X157485866Y-100854996D02*
X157566679Y-100881934D01*
X157566679Y-100881934D02*
X157620553Y-100881934D01*
X157620553Y-100881934D02*
X157701366Y-100854996D01*
X157701366Y-100854996D02*
X157809115Y-100747247D01*
X157809115Y-100747247D02*
X157836053Y-100666434D01*
X157836053Y-100666434D02*
X157836053Y-100612560D01*
X157836053Y-100612560D02*
X157809115Y-100531747D01*
X157809115Y-100531747D02*
X157701366Y-100423998D01*
X157701366Y-100423998D02*
X157620553Y-100397060D01*
X157620553Y-100397060D02*
X157566679Y-100397060D01*
X157566679Y-100397060D02*
X157485866Y-100423998D01*
X129599998Y-109390868D02*
X129519185Y-109417805D01*
X129519185Y-109417805D02*
X129438373Y-109498618D01*
X129438373Y-109498618D02*
X129384498Y-109606367D01*
X129384498Y-109606367D02*
X129384498Y-109714117D01*
X129384498Y-109714117D02*
X129411436Y-109794929D01*
X129411436Y-109794929D02*
X129492248Y-109929616D01*
X129492248Y-109929616D02*
X129573060Y-110010428D01*
X129573060Y-110010428D02*
X129707747Y-110091241D01*
X129707747Y-110091241D02*
X129788560Y-110118178D01*
X129788560Y-110118178D02*
X129896309Y-110118178D01*
X129896309Y-110118178D02*
X130004059Y-110064303D01*
X130004059Y-110064303D02*
X130057934Y-110010428D01*
X130057934Y-110010428D02*
X130111808Y-109902679D01*
X130111808Y-109902679D02*
X130111808Y-109848804D01*
X130111808Y-109848804D02*
X129923247Y-109660242D01*
X129923247Y-109660242D02*
X129815497Y-109767992D01*
X130408120Y-109660242D02*
X129842434Y-109094557D01*
X129842434Y-109094557D02*
X130057934Y-108879057D01*
X130057934Y-108879057D02*
X130138746Y-108852120D01*
X130138746Y-108852120D02*
X130192621Y-108852120D01*
X130192621Y-108852120D02*
X130273433Y-108879057D01*
X130273433Y-108879057D02*
X130354245Y-108959870D01*
X130354245Y-108959870D02*
X130381182Y-109040682D01*
X130381182Y-109040682D02*
X130381182Y-109094557D01*
X130381182Y-109094557D02*
X130354245Y-109175369D01*
X130354245Y-109175369D02*
X130138746Y-109390868D01*
X131270117Y-108798245D02*
X130946868Y-109121494D01*
X131108492Y-108959870D02*
X130542807Y-108394184D01*
X130542807Y-108394184D02*
X130569744Y-108528871D01*
X130569744Y-108528871D02*
X130569744Y-108636621D01*
X130569744Y-108636621D02*
X130542807Y-108717433D01*
X131216242Y-107720749D02*
X130946868Y-107990123D01*
X130946868Y-107990123D02*
X131189305Y-108286434D01*
X131189305Y-108286434D02*
X131189305Y-108232560D01*
X131189305Y-108232560D02*
X131216242Y-108151747D01*
X131216242Y-108151747D02*
X131350929Y-108017060D01*
X131350929Y-108017060D02*
X131431741Y-107990123D01*
X131431741Y-107990123D02*
X131485616Y-107990123D01*
X131485616Y-107990123D02*
X131566428Y-108017060D01*
X131566428Y-108017060D02*
X131701115Y-108151747D01*
X131701115Y-108151747D02*
X131728053Y-108232560D01*
X131728053Y-108232560D02*
X131728053Y-108286434D01*
X131728053Y-108286434D02*
X131701115Y-108367247D01*
X131701115Y-108367247D02*
X131566428Y-108501934D01*
X131566428Y-108501934D02*
X131485616Y-108528871D01*
X131485616Y-108528871D02*
X131431741Y-108528871D01*
X155707998Y-96690868D02*
X155627185Y-96717805D01*
X155627185Y-96717805D02*
X155546373Y-96798618D01*
X155546373Y-96798618D02*
X155492498Y-96906367D01*
X155492498Y-96906367D02*
X155492498Y-97014117D01*
X155492498Y-97014117D02*
X155519436Y-97094929D01*
X155519436Y-97094929D02*
X155600248Y-97229616D01*
X155600248Y-97229616D02*
X155681060Y-97310428D01*
X155681060Y-97310428D02*
X155815747Y-97391241D01*
X155815747Y-97391241D02*
X155896560Y-97418178D01*
X155896560Y-97418178D02*
X156004309Y-97418178D01*
X156004309Y-97418178D02*
X156112059Y-97364303D01*
X156112059Y-97364303D02*
X156165934Y-97310428D01*
X156165934Y-97310428D02*
X156219808Y-97202679D01*
X156219808Y-97202679D02*
X156219808Y-97148804D01*
X156219808Y-97148804D02*
X156031247Y-96960242D01*
X156031247Y-96960242D02*
X155923497Y-97067992D01*
X156516120Y-96960242D02*
X155950434Y-96394557D01*
X155950434Y-96394557D02*
X156165934Y-96179057D01*
X156165934Y-96179057D02*
X156246746Y-96152120D01*
X156246746Y-96152120D02*
X156300621Y-96152120D01*
X156300621Y-96152120D02*
X156381433Y-96179057D01*
X156381433Y-96179057D02*
X156462245Y-96259870D01*
X156462245Y-96259870D02*
X156489182Y-96340682D01*
X156489182Y-96340682D02*
X156489182Y-96394557D01*
X156489182Y-96394557D02*
X156462245Y-96475369D01*
X156462245Y-96475369D02*
X156246746Y-96690868D01*
X156543057Y-95909683D02*
X156543057Y-95855809D01*
X156543057Y-95855809D02*
X156569995Y-95774996D01*
X156569995Y-95774996D02*
X156704682Y-95640309D01*
X156704682Y-95640309D02*
X156785494Y-95613372D01*
X156785494Y-95613372D02*
X156839369Y-95613372D01*
X156839369Y-95613372D02*
X156920181Y-95640309D01*
X156920181Y-95640309D02*
X156974056Y-95694184D01*
X156974056Y-95694184D02*
X157027930Y-95801934D01*
X157027930Y-95801934D02*
X157027930Y-96448431D01*
X157027930Y-96448431D02*
X157378117Y-96098245D01*
X157162618Y-95182373D02*
X157216492Y-95128499D01*
X157216492Y-95128499D02*
X157297305Y-95101561D01*
X157297305Y-95101561D02*
X157351179Y-95101561D01*
X157351179Y-95101561D02*
X157431992Y-95128499D01*
X157431992Y-95128499D02*
X157566679Y-95209311D01*
X157566679Y-95209311D02*
X157701366Y-95343998D01*
X157701366Y-95343998D02*
X157782178Y-95478685D01*
X157782178Y-95478685D02*
X157809115Y-95559497D01*
X157809115Y-95559497D02*
X157809115Y-95613372D01*
X157809115Y-95613372D02*
X157782178Y-95694184D01*
X157782178Y-95694184D02*
X157728303Y-95748059D01*
X157728303Y-95748059D02*
X157647491Y-95774996D01*
X157647491Y-95774996D02*
X157593616Y-95774996D01*
X157593616Y-95774996D02*
X157512804Y-95748059D01*
X157512804Y-95748059D02*
X157378117Y-95667247D01*
X157378117Y-95667247D02*
X157243430Y-95532560D01*
X157243430Y-95532560D02*
X157162618Y-95397873D01*
X157162618Y-95397873D02*
X157135680Y-95317060D01*
X157135680Y-95317060D02*
X157135680Y-95263186D01*
X157135680Y-95263186D02*
X157162618Y-95182373D01*
X155765064Y-74404049D02*
X156034438Y-74134675D01*
X155872813Y-74619549D02*
X155495690Y-73865301D01*
X155495690Y-73865301D02*
X156249937Y-74242425D01*
X156438499Y-74053863D02*
X155872813Y-73488178D01*
X155872813Y-73488178D02*
X156007500Y-73353491D01*
X156007500Y-73353491D02*
X156115250Y-73299616D01*
X156115250Y-73299616D02*
X156222999Y-73299616D01*
X156222999Y-73299616D02*
X156303812Y-73326553D01*
X156303812Y-73326553D02*
X156438499Y-73407366D01*
X156438499Y-73407366D02*
X156519311Y-73488178D01*
X156519311Y-73488178D02*
X156600123Y-73622865D01*
X156600123Y-73622865D02*
X156627060Y-73703677D01*
X156627060Y-73703677D02*
X156627060Y-73811427D01*
X156627060Y-73811427D02*
X156573186Y-73919176D01*
X156573186Y-73919176D02*
X156438499Y-74053863D01*
X157273558Y-73111054D02*
X157273558Y-73164929D01*
X157273558Y-73164929D02*
X157219683Y-73272679D01*
X157219683Y-73272679D02*
X157165808Y-73326553D01*
X157165808Y-73326553D02*
X157058059Y-73380428D01*
X157058059Y-73380428D02*
X156950309Y-73380428D01*
X156950309Y-73380428D02*
X156869497Y-73353491D01*
X156869497Y-73353491D02*
X156734810Y-73272679D01*
X156734810Y-73272679D02*
X156653998Y-73191866D01*
X156653998Y-73191866D02*
X156573186Y-73057179D01*
X156573186Y-73057179D02*
X156546248Y-72976367D01*
X156546248Y-72976367D02*
X156546248Y-72868618D01*
X156546248Y-72868618D02*
X156600123Y-72760868D01*
X156600123Y-72760868D02*
X156653998Y-72706993D01*
X156653998Y-72706993D02*
X156761747Y-72653118D01*
X156761747Y-72653118D02*
X156815622Y-72653118D01*
X157489057Y-73111054D02*
X157920056Y-72680056D01*
X157354370Y-72006621D02*
X158108618Y-72383744D01*
X158108618Y-72383744D02*
X157731494Y-71629497D01*
X158808990Y-71683372D02*
X158351054Y-71602560D01*
X158485741Y-72006621D02*
X157920056Y-71440935D01*
X157920056Y-71440935D02*
X158135555Y-71225436D01*
X158135555Y-71225436D02*
X158216367Y-71198499D01*
X158216367Y-71198499D02*
X158270242Y-71198499D01*
X158270242Y-71198499D02*
X158351054Y-71225436D01*
X158351054Y-71225436D02*
X158431866Y-71306248D01*
X158431866Y-71306248D02*
X158458804Y-71387061D01*
X158458804Y-71387061D02*
X158458804Y-71440935D01*
X158458804Y-71440935D02*
X158431866Y-71521748D01*
X158431866Y-71521748D02*
X158216367Y-71737247D01*
X158755115Y-71144624D02*
X158943677Y-70956062D01*
X159320800Y-71171561D02*
X159051426Y-71440935D01*
X159051426Y-71440935D02*
X158485741Y-70875250D01*
X158485741Y-70875250D02*
X158755115Y-70605876D01*
X159455488Y-70444251D02*
X159266926Y-70632813D01*
X159563237Y-70929125D02*
X158997552Y-70363439D01*
X158997552Y-70363439D02*
X159266926Y-70094065D01*
X155563406Y-61397585D02*
X156317653Y-61774709D01*
X156317653Y-61774709D02*
X155940529Y-61020462D01*
X156587027Y-60912712D02*
X156694776Y-60858838D01*
X156694776Y-60858838D02*
X156748651Y-60858838D01*
X156748651Y-60858838D02*
X156829463Y-60885775D01*
X156829463Y-60885775D02*
X156910276Y-60966587D01*
X156910276Y-60966587D02*
X156937213Y-61047399D01*
X156937213Y-61047399D02*
X156937213Y-61101274D01*
X156937213Y-61101274D02*
X156910276Y-61182086D01*
X156910276Y-61182086D02*
X156694776Y-61397586D01*
X156694776Y-61397586D02*
X156129091Y-60831900D01*
X156129091Y-60831900D02*
X156317653Y-60643338D01*
X156317653Y-60643338D02*
X156398465Y-60616401D01*
X156398465Y-60616401D02*
X156452340Y-60616401D01*
X156452340Y-60616401D02*
X156533152Y-60643338D01*
X156533152Y-60643338D02*
X156587027Y-60697213D01*
X156587027Y-60697213D02*
X156613964Y-60778025D01*
X156613964Y-60778025D02*
X156613964Y-60831900D01*
X156613964Y-60831900D02*
X156587027Y-60912712D01*
X156587027Y-60912712D02*
X156398465Y-61101274D01*
X156694776Y-60266215D02*
X157152712Y-60724151D01*
X157152712Y-60724151D02*
X157233524Y-60751088D01*
X157233524Y-60751088D02*
X157287399Y-60751088D01*
X157287399Y-60751088D02*
X157368211Y-60724151D01*
X157368211Y-60724151D02*
X157475961Y-60616401D01*
X157475961Y-60616401D02*
X157502898Y-60535589D01*
X157502898Y-60535589D02*
X157502898Y-60481714D01*
X157502898Y-60481714D02*
X157475961Y-60400902D01*
X157475961Y-60400902D02*
X157018025Y-59942966D01*
X157799210Y-60239277D02*
X157906959Y-60185403D01*
X157906959Y-60185403D02*
X158041646Y-60050716D01*
X158041646Y-60050716D02*
X158068584Y-59969903D01*
X158068584Y-59969903D02*
X158068584Y-59916029D01*
X158068584Y-59916029D02*
X158041646Y-59835216D01*
X158041646Y-59835216D02*
X157987771Y-59781342D01*
X157987771Y-59781342D02*
X157906959Y-59754404D01*
X157906959Y-59754404D02*
X157853084Y-59754404D01*
X157853084Y-59754404D02*
X157772272Y-59781342D01*
X157772272Y-59781342D02*
X157637585Y-59862154D01*
X157637585Y-59862154D02*
X157556773Y-59889091D01*
X157556773Y-59889091D02*
X157502898Y-59889091D01*
X157502898Y-59889091D02*
X157422086Y-59862154D01*
X157422086Y-59862154D02*
X157368211Y-59808279D01*
X157368211Y-59808279D02*
X157341274Y-59727467D01*
X157341274Y-59727467D02*
X157341274Y-59673592D01*
X157341274Y-59673592D02*
X157368211Y-59592780D01*
X157368211Y-59592780D02*
X157502898Y-59458093D01*
X157502898Y-59458093D02*
X157610648Y-59404218D01*
X130123372Y-81181494D02*
X130042560Y-81208431D01*
X130042560Y-81208431D02*
X129961748Y-81289243D01*
X129961748Y-81289243D02*
X129907873Y-81396993D01*
X129907873Y-81396993D02*
X129907873Y-81504742D01*
X129907873Y-81504742D02*
X129934810Y-81585555D01*
X129934810Y-81585555D02*
X130015623Y-81720242D01*
X130015623Y-81720242D02*
X130096435Y-81801054D01*
X130096435Y-81801054D02*
X130231122Y-81881866D01*
X130231122Y-81881866D02*
X130311934Y-81908803D01*
X130311934Y-81908803D02*
X130419684Y-81908803D01*
X130419684Y-81908803D02*
X130527433Y-81854929D01*
X130527433Y-81854929D02*
X130581308Y-81801054D01*
X130581308Y-81801054D02*
X130635183Y-81693304D01*
X130635183Y-81693304D02*
X130635183Y-81639429D01*
X130635183Y-81639429D02*
X130446621Y-81450868D01*
X130446621Y-81450868D02*
X130338871Y-81558617D01*
X130931494Y-81450868D02*
X130365809Y-80885182D01*
X130365809Y-80885182D02*
X130581308Y-80669683D01*
X130581308Y-80669683D02*
X130662120Y-80642746D01*
X130662120Y-80642746D02*
X130715995Y-80642746D01*
X130715995Y-80642746D02*
X130796807Y-80669683D01*
X130796807Y-80669683D02*
X130877619Y-80750495D01*
X130877619Y-80750495D02*
X130904557Y-80831307D01*
X130904557Y-80831307D02*
X130904557Y-80885182D01*
X130904557Y-80885182D02*
X130877619Y-80965994D01*
X130877619Y-80965994D02*
X130662120Y-81181494D01*
X131173931Y-80077060D02*
X131066181Y-80184810D01*
X131066181Y-80184810D02*
X131039244Y-80265622D01*
X131039244Y-80265622D02*
X131039244Y-80319497D01*
X131039244Y-80319497D02*
X131066181Y-80454184D01*
X131066181Y-80454184D02*
X131146993Y-80588871D01*
X131146993Y-80588871D02*
X131362493Y-80804370D01*
X131362493Y-80804370D02*
X131443305Y-80831307D01*
X131443305Y-80831307D02*
X131497180Y-80831307D01*
X131497180Y-80831307D02*
X131577992Y-80804370D01*
X131577992Y-80804370D02*
X131685741Y-80696620D01*
X131685741Y-80696620D02*
X131712679Y-80615808D01*
X131712679Y-80615808D02*
X131712679Y-80561933D01*
X131712679Y-80561933D02*
X131685741Y-80481121D01*
X131685741Y-80481121D02*
X131551054Y-80346434D01*
X131551054Y-80346434D02*
X131470242Y-80319497D01*
X131470242Y-80319497D02*
X131416367Y-80319497D01*
X131416367Y-80319497D02*
X131335555Y-80346434D01*
X131335555Y-80346434D02*
X131227806Y-80454184D01*
X131227806Y-80454184D02*
X131200868Y-80534996D01*
X131200868Y-80534996D02*
X131200868Y-80588871D01*
X131200868Y-80588871D02*
X131227806Y-80669683D01*
X155532407Y-68828584D02*
X155882593Y-68478398D01*
X155882593Y-68478398D02*
X155909531Y-68882459D01*
X155909531Y-68882459D02*
X155990343Y-68801646D01*
X155990343Y-68801646D02*
X156071155Y-68774709D01*
X156071155Y-68774709D02*
X156125030Y-68774709D01*
X156125030Y-68774709D02*
X156205842Y-68801646D01*
X156205842Y-68801646D02*
X156340529Y-68936333D01*
X156340529Y-68936333D02*
X156367467Y-69017146D01*
X156367467Y-69017146D02*
X156367467Y-69071020D01*
X156367467Y-69071020D02*
X156340529Y-69151833D01*
X156340529Y-69151833D02*
X156178905Y-69313457D01*
X156178905Y-69313457D02*
X156098093Y-69340394D01*
X156098093Y-69340394D02*
X156044218Y-69340394D01*
X156044218Y-68316773D02*
X156798465Y-68693897D01*
X156798465Y-68693897D02*
X156421342Y-67939649D01*
X156556028Y-67804963D02*
X156906215Y-67454776D01*
X156906215Y-67454776D02*
X156933152Y-67858837D01*
X156933152Y-67858837D02*
X157013964Y-67778025D01*
X157013964Y-67778025D02*
X157094776Y-67751088D01*
X157094776Y-67751088D02*
X157148651Y-67751088D01*
X157148651Y-67751088D02*
X157229464Y-67778025D01*
X157229464Y-67778025D02*
X157364151Y-67912712D01*
X157364151Y-67912712D02*
X157391088Y-67993524D01*
X157391088Y-67993524D02*
X157391088Y-68047399D01*
X157391088Y-68047399D02*
X157364151Y-68128211D01*
X157364151Y-68128211D02*
X157202526Y-68289836D01*
X157202526Y-68289836D02*
X157121714Y-68316773D01*
X157121714Y-68316773D02*
X157067839Y-68316773D01*
X157633525Y-67966587D02*
X158064523Y-67535588D01*
X157849024Y-67050715D02*
X158037586Y-66862153D01*
X158414709Y-67077652D02*
X158145335Y-67347026D01*
X158145335Y-67347026D02*
X157579650Y-66781341D01*
X157579650Y-66781341D02*
X157849024Y-66511967D01*
X158657146Y-66835215D02*
X158091461Y-66269530D01*
X158091461Y-66269530D02*
X158980395Y-66511967D01*
X158980395Y-66511967D02*
X158414710Y-65946281D01*
X129599998Y-94150868D02*
X129519185Y-94177805D01*
X129519185Y-94177805D02*
X129438373Y-94258618D01*
X129438373Y-94258618D02*
X129384498Y-94366367D01*
X129384498Y-94366367D02*
X129384498Y-94474117D01*
X129384498Y-94474117D02*
X129411436Y-94554929D01*
X129411436Y-94554929D02*
X129492248Y-94689616D01*
X129492248Y-94689616D02*
X129573060Y-94770428D01*
X129573060Y-94770428D02*
X129707747Y-94851241D01*
X129707747Y-94851241D02*
X129788560Y-94878178D01*
X129788560Y-94878178D02*
X129896309Y-94878178D01*
X129896309Y-94878178D02*
X130004059Y-94824303D01*
X130004059Y-94824303D02*
X130057934Y-94770428D01*
X130057934Y-94770428D02*
X130111808Y-94662679D01*
X130111808Y-94662679D02*
X130111808Y-94608804D01*
X130111808Y-94608804D02*
X129923247Y-94420242D01*
X129923247Y-94420242D02*
X129815497Y-94527992D01*
X130408120Y-94420242D02*
X129842434Y-93854557D01*
X129842434Y-93854557D02*
X130057934Y-93639057D01*
X130057934Y-93639057D02*
X130138746Y-93612120D01*
X130138746Y-93612120D02*
X130192621Y-93612120D01*
X130192621Y-93612120D02*
X130273433Y-93639057D01*
X130273433Y-93639057D02*
X130354245Y-93719870D01*
X130354245Y-93719870D02*
X130381182Y-93800682D01*
X130381182Y-93800682D02*
X130381182Y-93854557D01*
X130381182Y-93854557D02*
X130354245Y-93935369D01*
X130354245Y-93935369D02*
X130138746Y-94150868D01*
X131270117Y-93558245D02*
X130946868Y-93881494D01*
X131108492Y-93719870D02*
X130542807Y-93154184D01*
X130542807Y-93154184D02*
X130569744Y-93288871D01*
X130569744Y-93288871D02*
X130569744Y-93396621D01*
X130569744Y-93396621D02*
X130542807Y-93477433D01*
X131054618Y-92642373D02*
X131108492Y-92588499D01*
X131108492Y-92588499D02*
X131189305Y-92561561D01*
X131189305Y-92561561D02*
X131243179Y-92561561D01*
X131243179Y-92561561D02*
X131323992Y-92588499D01*
X131323992Y-92588499D02*
X131458679Y-92669311D01*
X131458679Y-92669311D02*
X131593366Y-92803998D01*
X131593366Y-92803998D02*
X131674178Y-92938685D01*
X131674178Y-92938685D02*
X131701115Y-93019497D01*
X131701115Y-93019497D02*
X131701115Y-93073372D01*
X131701115Y-93073372D02*
X131674178Y-93154184D01*
X131674178Y-93154184D02*
X131620303Y-93208059D01*
X131620303Y-93208059D02*
X131539491Y-93234996D01*
X131539491Y-93234996D02*
X131485616Y-93234996D01*
X131485616Y-93234996D02*
X131404804Y-93208059D01*
X131404804Y-93208059D02*
X131270117Y-93127247D01*
X131270117Y-93127247D02*
X131135430Y-92992560D01*
X131135430Y-92992560D02*
X131054618Y-92857873D01*
X131054618Y-92857873D02*
X131027680Y-92777060D01*
X131027680Y-92777060D02*
X131027680Y-92723186D01*
X131027680Y-92723186D02*
X131054618Y-92642373D01*
X130123372Y-86261494D02*
X130042560Y-86288431D01*
X130042560Y-86288431D02*
X129961748Y-86369243D01*
X129961748Y-86369243D02*
X129907873Y-86476993D01*
X129907873Y-86476993D02*
X129907873Y-86584742D01*
X129907873Y-86584742D02*
X129934810Y-86665555D01*
X129934810Y-86665555D02*
X130015623Y-86800242D01*
X130015623Y-86800242D02*
X130096435Y-86881054D01*
X130096435Y-86881054D02*
X130231122Y-86961866D01*
X130231122Y-86961866D02*
X130311934Y-86988803D01*
X130311934Y-86988803D02*
X130419684Y-86988803D01*
X130419684Y-86988803D02*
X130527433Y-86934929D01*
X130527433Y-86934929D02*
X130581308Y-86881054D01*
X130581308Y-86881054D02*
X130635183Y-86773304D01*
X130635183Y-86773304D02*
X130635183Y-86719429D01*
X130635183Y-86719429D02*
X130446621Y-86530868D01*
X130446621Y-86530868D02*
X130338871Y-86638617D01*
X130931494Y-86530868D02*
X130365809Y-85965182D01*
X130365809Y-85965182D02*
X130581308Y-85749683D01*
X130581308Y-85749683D02*
X130662120Y-85722746D01*
X130662120Y-85722746D02*
X130715995Y-85722746D01*
X130715995Y-85722746D02*
X130796807Y-85749683D01*
X130796807Y-85749683D02*
X130877619Y-85830495D01*
X130877619Y-85830495D02*
X130904557Y-85911307D01*
X130904557Y-85911307D02*
X130904557Y-85965182D01*
X130904557Y-85965182D02*
X130877619Y-86045994D01*
X130877619Y-86045994D02*
X130662120Y-86261494D01*
X131254743Y-85561121D02*
X131173931Y-85588059D01*
X131173931Y-85588059D02*
X131120056Y-85588059D01*
X131120056Y-85588059D02*
X131039244Y-85561121D01*
X131039244Y-85561121D02*
X131012306Y-85534184D01*
X131012306Y-85534184D02*
X130985369Y-85453372D01*
X130985369Y-85453372D02*
X130985369Y-85399497D01*
X130985369Y-85399497D02*
X131012306Y-85318685D01*
X131012306Y-85318685D02*
X131120056Y-85210935D01*
X131120056Y-85210935D02*
X131200868Y-85183998D01*
X131200868Y-85183998D02*
X131254743Y-85183998D01*
X131254743Y-85183998D02*
X131335555Y-85210935D01*
X131335555Y-85210935D02*
X131362493Y-85237872D01*
X131362493Y-85237872D02*
X131389430Y-85318685D01*
X131389430Y-85318685D02*
X131389430Y-85372559D01*
X131389430Y-85372559D02*
X131362493Y-85453372D01*
X131362493Y-85453372D02*
X131254743Y-85561121D01*
X131254743Y-85561121D02*
X131227806Y-85641933D01*
X131227806Y-85641933D02*
X131227806Y-85695808D01*
X131227806Y-85695808D02*
X131254743Y-85776620D01*
X131254743Y-85776620D02*
X131362493Y-85884370D01*
X131362493Y-85884370D02*
X131443305Y-85911307D01*
X131443305Y-85911307D02*
X131497180Y-85911307D01*
X131497180Y-85911307D02*
X131577992Y-85884370D01*
X131577992Y-85884370D02*
X131685741Y-85776620D01*
X131685741Y-85776620D02*
X131712679Y-85695808D01*
X131712679Y-85695808D02*
X131712679Y-85641933D01*
X131712679Y-85641933D02*
X131685741Y-85561121D01*
X131685741Y-85561121D02*
X131577992Y-85453372D01*
X131577992Y-85453372D02*
X131497180Y-85426434D01*
X131497180Y-85426434D02*
X131443305Y-85426434D01*
X131443305Y-85426434D02*
X131362493Y-85453372D01*
X130096435Y-91368431D02*
X130015623Y-91395368D01*
X130015623Y-91395368D02*
X129934811Y-91476180D01*
X129934811Y-91476180D02*
X129880936Y-91583930D01*
X129880936Y-91583930D02*
X129880936Y-91691680D01*
X129880936Y-91691680D02*
X129907873Y-91772492D01*
X129907873Y-91772492D02*
X129988685Y-91907179D01*
X129988685Y-91907179D02*
X130069498Y-91987991D01*
X130069498Y-91987991D02*
X130204185Y-92068803D01*
X130204185Y-92068803D02*
X130284997Y-92095741D01*
X130284997Y-92095741D02*
X130392746Y-92095741D01*
X130392746Y-92095741D02*
X130500496Y-92041866D01*
X130500496Y-92041866D02*
X130554371Y-91987991D01*
X130554371Y-91987991D02*
X130608246Y-91880241D01*
X130608246Y-91880241D02*
X130608246Y-91826367D01*
X130608246Y-91826367D02*
X130419684Y-91637805D01*
X130419684Y-91637805D02*
X130311934Y-91745554D01*
X130904557Y-91637805D02*
X130338872Y-91072119D01*
X130338872Y-91072119D02*
X131227806Y-91314556D01*
X131227806Y-91314556D02*
X130662120Y-90748871D01*
X131497180Y-91045182D02*
X130931494Y-90479497D01*
X130931494Y-90479497D02*
X131066181Y-90344810D01*
X131066181Y-90344810D02*
X131173931Y-90290935D01*
X131173931Y-90290935D02*
X131281680Y-90290935D01*
X131281680Y-90290935D02*
X131362493Y-90317872D01*
X131362493Y-90317872D02*
X131497180Y-90398685D01*
X131497180Y-90398685D02*
X131577992Y-90479497D01*
X131577992Y-90479497D02*
X131658804Y-90614184D01*
X131658804Y-90614184D02*
X131685741Y-90694996D01*
X131685741Y-90694996D02*
X131685741Y-90802746D01*
X131685741Y-90802746D02*
X131631867Y-90910495D01*
X131631867Y-90910495D02*
X131497180Y-91045182D01*
X129553998Y-106850868D02*
X129473185Y-106877805D01*
X129473185Y-106877805D02*
X129392373Y-106958618D01*
X129392373Y-106958618D02*
X129338498Y-107066367D01*
X129338498Y-107066367D02*
X129338498Y-107174117D01*
X129338498Y-107174117D02*
X129365436Y-107254929D01*
X129365436Y-107254929D02*
X129446248Y-107389616D01*
X129446248Y-107389616D02*
X129527060Y-107470428D01*
X129527060Y-107470428D02*
X129661747Y-107551241D01*
X129661747Y-107551241D02*
X129742560Y-107578178D01*
X129742560Y-107578178D02*
X129850309Y-107578178D01*
X129850309Y-107578178D02*
X129958059Y-107524303D01*
X129958059Y-107524303D02*
X130011934Y-107470428D01*
X130011934Y-107470428D02*
X130065808Y-107362679D01*
X130065808Y-107362679D02*
X130065808Y-107308804D01*
X130065808Y-107308804D02*
X129877247Y-107120242D01*
X129877247Y-107120242D02*
X129769497Y-107227992D01*
X130362120Y-107120242D02*
X129796434Y-106554557D01*
X129796434Y-106554557D02*
X130011934Y-106339057D01*
X130011934Y-106339057D02*
X130092746Y-106312120D01*
X130092746Y-106312120D02*
X130146621Y-106312120D01*
X130146621Y-106312120D02*
X130227433Y-106339057D01*
X130227433Y-106339057D02*
X130308245Y-106419870D01*
X130308245Y-106419870D02*
X130335182Y-106500682D01*
X130335182Y-106500682D02*
X130335182Y-106554557D01*
X130335182Y-106554557D02*
X130308245Y-106635369D01*
X130308245Y-106635369D02*
X130092746Y-106850868D01*
X131224117Y-106258245D02*
X130900868Y-106581494D01*
X131062492Y-106419870D02*
X130496807Y-105854184D01*
X130496807Y-105854184D02*
X130523744Y-105988871D01*
X130523744Y-105988871D02*
X130523744Y-106096621D01*
X130523744Y-106096621D02*
X130496807Y-106177433D01*
X131331866Y-105396248D02*
X131708990Y-105773372D01*
X130981680Y-105315436D02*
X131251054Y-105854184D01*
X131251054Y-105854184D02*
X131601240Y-105503998D01*
X156448651Y-86813710D02*
X155990716Y-86732898D01*
X156125403Y-87136959D02*
X155559717Y-86571274D01*
X155559717Y-86571274D02*
X155775216Y-86355775D01*
X155775216Y-86355775D02*
X155856029Y-86328837D01*
X155856029Y-86328837D02*
X155909903Y-86328837D01*
X155909903Y-86328837D02*
X155990716Y-86355775D01*
X155990716Y-86355775D02*
X156071528Y-86436587D01*
X156071528Y-86436587D02*
X156098465Y-86517399D01*
X156098465Y-86517399D02*
X156098465Y-86571274D01*
X156098465Y-86571274D02*
X156071528Y-86652086D01*
X156071528Y-86652086D02*
X155856029Y-86867585D01*
X156125403Y-86005588D02*
X156583338Y-86463524D01*
X156583338Y-86463524D02*
X156664151Y-86490462D01*
X156664151Y-86490462D02*
X156718025Y-86490462D01*
X156718025Y-86490462D02*
X156798838Y-86463524D01*
X156798838Y-86463524D02*
X156906587Y-86355775D01*
X156906587Y-86355775D02*
X156933525Y-86274962D01*
X156933525Y-86274962D02*
X156933525Y-86221088D01*
X156933525Y-86221088D02*
X156906587Y-86140275D01*
X156906587Y-86140275D02*
X156448651Y-85682340D01*
X157283711Y-85978651D02*
X156718025Y-85412966D01*
X156718025Y-85412966D02*
X157606959Y-85655402D01*
X157606959Y-85655402D02*
X157041274Y-85089717D01*
X130023372Y-63391494D02*
X129942560Y-63418431D01*
X129942560Y-63418431D02*
X129861748Y-63499243D01*
X129861748Y-63499243D02*
X129807873Y-63606993D01*
X129807873Y-63606993D02*
X129807873Y-63714742D01*
X129807873Y-63714742D02*
X129834810Y-63795555D01*
X129834810Y-63795555D02*
X129915623Y-63930242D01*
X129915623Y-63930242D02*
X129996435Y-64011054D01*
X129996435Y-64011054D02*
X130131122Y-64091866D01*
X130131122Y-64091866D02*
X130211934Y-64118803D01*
X130211934Y-64118803D02*
X130319684Y-64118803D01*
X130319684Y-64118803D02*
X130427433Y-64064929D01*
X130427433Y-64064929D02*
X130481308Y-64011054D01*
X130481308Y-64011054D02*
X130535183Y-63903304D01*
X130535183Y-63903304D02*
X130535183Y-63849429D01*
X130535183Y-63849429D02*
X130346621Y-63660868D01*
X130346621Y-63660868D02*
X130238871Y-63768617D01*
X130831494Y-63660868D02*
X130265809Y-63095182D01*
X130265809Y-63095182D02*
X130481308Y-62879683D01*
X130481308Y-62879683D02*
X130562120Y-62852746D01*
X130562120Y-62852746D02*
X130615995Y-62852746D01*
X130615995Y-62852746D02*
X130696807Y-62879683D01*
X130696807Y-62879683D02*
X130777619Y-62960495D01*
X130777619Y-62960495D02*
X130804557Y-63041307D01*
X130804557Y-63041307D02*
X130804557Y-63095182D01*
X130804557Y-63095182D02*
X130777619Y-63175994D01*
X130777619Y-63175994D02*
X130562120Y-63391494D01*
X131693491Y-62798871D02*
X131370242Y-63122120D01*
X131531867Y-62960495D02*
X130966181Y-62394810D01*
X130966181Y-62394810D02*
X130993119Y-62529497D01*
X130993119Y-62529497D02*
X130993119Y-62637246D01*
X130993119Y-62637246D02*
X130966181Y-62718059D01*
X155696435Y-65968431D02*
X155615623Y-65995368D01*
X155615623Y-65995368D02*
X155534811Y-66076180D01*
X155534811Y-66076180D02*
X155480936Y-66183930D01*
X155480936Y-66183930D02*
X155480936Y-66291680D01*
X155480936Y-66291680D02*
X155507873Y-66372492D01*
X155507873Y-66372492D02*
X155588685Y-66507179D01*
X155588685Y-66507179D02*
X155669498Y-66587991D01*
X155669498Y-66587991D02*
X155804185Y-66668803D01*
X155804185Y-66668803D02*
X155884997Y-66695741D01*
X155884997Y-66695741D02*
X155992746Y-66695741D01*
X155992746Y-66695741D02*
X156100496Y-66641866D01*
X156100496Y-66641866D02*
X156154371Y-66587991D01*
X156154371Y-66587991D02*
X156208246Y-66480241D01*
X156208246Y-66480241D02*
X156208246Y-66426367D01*
X156208246Y-66426367D02*
X156019684Y-66237805D01*
X156019684Y-66237805D02*
X155911934Y-66345554D01*
X156504557Y-66237805D02*
X155938872Y-65672119D01*
X155938872Y-65672119D02*
X156827806Y-65914556D01*
X156827806Y-65914556D02*
X156262120Y-65348871D01*
X157097180Y-65645182D02*
X156531494Y-65079497D01*
X156531494Y-65079497D02*
X156666181Y-64944810D01*
X156666181Y-64944810D02*
X156773931Y-64890935D01*
X156773931Y-64890935D02*
X156881680Y-64890935D01*
X156881680Y-64890935D02*
X156962493Y-64917872D01*
X156962493Y-64917872D02*
X157097180Y-64998685D01*
X157097180Y-64998685D02*
X157177992Y-65079497D01*
X157177992Y-65079497D02*
X157258804Y-65214184D01*
X157258804Y-65214184D02*
X157285741Y-65294996D01*
X157285741Y-65294996D02*
X157285741Y-65402746D01*
X157285741Y-65402746D02*
X157231867Y-65510495D01*
X157231867Y-65510495D02*
X157097180Y-65645182D01*
X155761873Y-79611240D02*
X156031247Y-79341866D01*
X155869623Y-79826739D02*
X155492499Y-79072492D01*
X155492499Y-79072492D02*
X156246746Y-79449615D01*
X156192871Y-78425994D02*
X156112059Y-78452932D01*
X156112059Y-78452932D02*
X156031247Y-78533744D01*
X156031247Y-78533744D02*
X155977372Y-78641494D01*
X155977372Y-78641494D02*
X155977372Y-78749243D01*
X155977372Y-78749243D02*
X156004310Y-78830055D01*
X156004310Y-78830055D02*
X156085122Y-78964742D01*
X156085122Y-78964742D02*
X156165934Y-79045555D01*
X156165934Y-79045555D02*
X156300621Y-79126367D01*
X156300621Y-79126367D02*
X156381433Y-79153304D01*
X156381433Y-79153304D02*
X156489183Y-79153304D01*
X156489183Y-79153304D02*
X156596932Y-79099429D01*
X156596932Y-79099429D02*
X156650807Y-79045555D01*
X156650807Y-79045555D02*
X156704682Y-78937805D01*
X156704682Y-78937805D02*
X156704682Y-78883930D01*
X156704682Y-78883930D02*
X156516120Y-78695368D01*
X156516120Y-78695368D02*
X156408371Y-78803118D01*
X157000993Y-78695368D02*
X156435308Y-78129683D01*
X156435308Y-78129683D02*
X157324242Y-78372120D01*
X157324242Y-78372120D02*
X156758557Y-77806434D01*
X157593616Y-78102746D02*
X157027931Y-77537060D01*
X157027931Y-77537060D02*
X157162618Y-77402373D01*
X157162618Y-77402373D02*
X157270367Y-77348498D01*
X157270367Y-77348498D02*
X157378117Y-77348498D01*
X157378117Y-77348498D02*
X157458929Y-77375436D01*
X157458929Y-77375436D02*
X157593616Y-77456248D01*
X157593616Y-77456248D02*
X157674428Y-77537060D01*
X157674428Y-77537060D02*
X157755241Y-77671747D01*
X157755241Y-77671747D02*
X157782178Y-77752560D01*
X157782178Y-77752560D02*
X157782178Y-77860309D01*
X157782178Y-77860309D02*
X157728303Y-77968059D01*
X157728303Y-77968059D02*
X157593616Y-78102746D01*
X155707998Y-89070868D02*
X155627185Y-89097805D01*
X155627185Y-89097805D02*
X155546373Y-89178618D01*
X155546373Y-89178618D02*
X155492498Y-89286367D01*
X155492498Y-89286367D02*
X155492498Y-89394117D01*
X155492498Y-89394117D02*
X155519436Y-89474929D01*
X155519436Y-89474929D02*
X155600248Y-89609616D01*
X155600248Y-89609616D02*
X155681060Y-89690428D01*
X155681060Y-89690428D02*
X155815747Y-89771241D01*
X155815747Y-89771241D02*
X155896560Y-89798178D01*
X155896560Y-89798178D02*
X156004309Y-89798178D01*
X156004309Y-89798178D02*
X156112059Y-89744303D01*
X156112059Y-89744303D02*
X156165934Y-89690428D01*
X156165934Y-89690428D02*
X156219808Y-89582679D01*
X156219808Y-89582679D02*
X156219808Y-89528804D01*
X156219808Y-89528804D02*
X156031247Y-89340242D01*
X156031247Y-89340242D02*
X155923497Y-89447992D01*
X156516120Y-89340242D02*
X155950434Y-88774557D01*
X155950434Y-88774557D02*
X156165934Y-88559057D01*
X156165934Y-88559057D02*
X156246746Y-88532120D01*
X156246746Y-88532120D02*
X156300621Y-88532120D01*
X156300621Y-88532120D02*
X156381433Y-88559057D01*
X156381433Y-88559057D02*
X156462245Y-88639870D01*
X156462245Y-88639870D02*
X156489182Y-88720682D01*
X156489182Y-88720682D02*
X156489182Y-88774557D01*
X156489182Y-88774557D02*
X156462245Y-88855369D01*
X156462245Y-88855369D02*
X156246746Y-89070868D01*
X156543057Y-88289683D02*
X156543057Y-88235809D01*
X156543057Y-88235809D02*
X156569995Y-88154996D01*
X156569995Y-88154996D02*
X156704682Y-88020309D01*
X156704682Y-88020309D02*
X156785494Y-87993372D01*
X156785494Y-87993372D02*
X156839369Y-87993372D01*
X156839369Y-87993372D02*
X156920181Y-88020309D01*
X156920181Y-88020309D02*
X156974056Y-88074184D01*
X156974056Y-88074184D02*
X157027930Y-88181934D01*
X157027930Y-88181934D02*
X157027930Y-88828431D01*
X157027930Y-88828431D02*
X157378117Y-88478245D01*
X157081805Y-87750935D02*
X157081805Y-87697060D01*
X157081805Y-87697060D02*
X157108743Y-87616248D01*
X157108743Y-87616248D02*
X157243430Y-87481561D01*
X157243430Y-87481561D02*
X157324242Y-87454624D01*
X157324242Y-87454624D02*
X157378117Y-87454624D01*
X157378117Y-87454624D02*
X157458929Y-87481561D01*
X157458929Y-87481561D02*
X157512804Y-87535436D01*
X157512804Y-87535436D02*
X157566679Y-87643186D01*
X157566679Y-87643186D02*
X157566679Y-88289683D01*
X157566679Y-88289683D02*
X157916865Y-87939497D01*
X155696435Y-104068431D02*
X155615623Y-104095368D01*
X155615623Y-104095368D02*
X155534811Y-104176180D01*
X155534811Y-104176180D02*
X155480936Y-104283930D01*
X155480936Y-104283930D02*
X155480936Y-104391680D01*
X155480936Y-104391680D02*
X155507873Y-104472492D01*
X155507873Y-104472492D02*
X155588685Y-104607179D01*
X155588685Y-104607179D02*
X155669498Y-104687991D01*
X155669498Y-104687991D02*
X155804185Y-104768803D01*
X155804185Y-104768803D02*
X155884997Y-104795741D01*
X155884997Y-104795741D02*
X155992746Y-104795741D01*
X155992746Y-104795741D02*
X156100496Y-104741866D01*
X156100496Y-104741866D02*
X156154371Y-104687991D01*
X156154371Y-104687991D02*
X156208246Y-104580241D01*
X156208246Y-104580241D02*
X156208246Y-104526367D01*
X156208246Y-104526367D02*
X156019684Y-104337805D01*
X156019684Y-104337805D02*
X155911934Y-104445554D01*
X156504557Y-104337805D02*
X155938872Y-103772119D01*
X155938872Y-103772119D02*
X156827806Y-104014556D01*
X156827806Y-104014556D02*
X156262120Y-103448871D01*
X157097180Y-103745182D02*
X156531494Y-103179497D01*
X156531494Y-103179497D02*
X156666181Y-103044810D01*
X156666181Y-103044810D02*
X156773931Y-102990935D01*
X156773931Y-102990935D02*
X156881680Y-102990935D01*
X156881680Y-102990935D02*
X156962493Y-103017872D01*
X156962493Y-103017872D02*
X157097180Y-103098685D01*
X157097180Y-103098685D02*
X157177992Y-103179497D01*
X157177992Y-103179497D02*
X157258804Y-103314184D01*
X157258804Y-103314184D02*
X157285741Y-103394996D01*
X157285741Y-103394996D02*
X157285741Y-103502746D01*
X157285741Y-103502746D02*
X157231867Y-103610495D01*
X157231867Y-103610495D02*
X157097180Y-103745182D01*
X155707998Y-109390868D02*
X155627185Y-109417805D01*
X155627185Y-109417805D02*
X155546373Y-109498618D01*
X155546373Y-109498618D02*
X155492498Y-109606367D01*
X155492498Y-109606367D02*
X155492498Y-109714117D01*
X155492498Y-109714117D02*
X155519436Y-109794929D01*
X155519436Y-109794929D02*
X155600248Y-109929616D01*
X155600248Y-109929616D02*
X155681060Y-110010428D01*
X155681060Y-110010428D02*
X155815747Y-110091241D01*
X155815747Y-110091241D02*
X155896560Y-110118178D01*
X155896560Y-110118178D02*
X156004309Y-110118178D01*
X156004309Y-110118178D02*
X156112059Y-110064303D01*
X156112059Y-110064303D02*
X156165934Y-110010428D01*
X156165934Y-110010428D02*
X156219808Y-109902679D01*
X156219808Y-109902679D02*
X156219808Y-109848804D01*
X156219808Y-109848804D02*
X156031247Y-109660242D01*
X156031247Y-109660242D02*
X155923497Y-109767992D01*
X156516120Y-109660242D02*
X155950434Y-109094557D01*
X155950434Y-109094557D02*
X156165934Y-108879057D01*
X156165934Y-108879057D02*
X156246746Y-108852120D01*
X156246746Y-108852120D02*
X156300621Y-108852120D01*
X156300621Y-108852120D02*
X156381433Y-108879057D01*
X156381433Y-108879057D02*
X156462245Y-108959870D01*
X156462245Y-108959870D02*
X156489182Y-109040682D01*
X156489182Y-109040682D02*
X156489182Y-109094557D01*
X156489182Y-109094557D02*
X156462245Y-109175369D01*
X156462245Y-109175369D02*
X156246746Y-109390868D01*
X157378117Y-108798245D02*
X157054868Y-109121494D01*
X157216492Y-108959870D02*
X156650807Y-108394184D01*
X156650807Y-108394184D02*
X156677744Y-108528871D01*
X156677744Y-108528871D02*
X156677744Y-108636621D01*
X156677744Y-108636621D02*
X156650807Y-108717433D01*
X157297305Y-107747686D02*
X157189555Y-107855436D01*
X157189555Y-107855436D02*
X157162618Y-107936248D01*
X157162618Y-107936248D02*
X157162618Y-107990123D01*
X157162618Y-107990123D02*
X157189555Y-108124810D01*
X157189555Y-108124810D02*
X157270367Y-108259497D01*
X157270367Y-108259497D02*
X157485866Y-108474996D01*
X157485866Y-108474996D02*
X157566679Y-108501934D01*
X157566679Y-108501934D02*
X157620553Y-108501934D01*
X157620553Y-108501934D02*
X157701366Y-108474996D01*
X157701366Y-108474996D02*
X157809115Y-108367247D01*
X157809115Y-108367247D02*
X157836053Y-108286434D01*
X157836053Y-108286434D02*
X157836053Y-108232560D01*
X157836053Y-108232560D02*
X157809115Y-108151747D01*
X157809115Y-108151747D02*
X157674428Y-108017060D01*
X157674428Y-108017060D02*
X157593616Y-107990123D01*
X157593616Y-107990123D02*
X157539741Y-107990123D01*
X157539741Y-107990123D02*
X157458929Y-108017060D01*
X157458929Y-108017060D02*
X157351179Y-108124810D01*
X157351179Y-108124810D02*
X157324242Y-108205622D01*
X157324242Y-108205622D02*
X157324242Y-108259497D01*
X157324242Y-108259497D02*
X157351179Y-108340309D01*
X147514761Y-111394200D02*
X147629047Y-111432295D01*
X147629047Y-111432295D02*
X147819523Y-111432295D01*
X147819523Y-111432295D02*
X147895714Y-111394200D01*
X147895714Y-111394200D02*
X147933809Y-111356104D01*
X147933809Y-111356104D02*
X147971904Y-111279914D01*
X147971904Y-111279914D02*
X147971904Y-111203723D01*
X147971904Y-111203723D02*
X147933809Y-111127533D01*
X147933809Y-111127533D02*
X147895714Y-111089438D01*
X147895714Y-111089438D02*
X147819523Y-111051342D01*
X147819523Y-111051342D02*
X147667142Y-111013247D01*
X147667142Y-111013247D02*
X147590952Y-110975152D01*
X147590952Y-110975152D02*
X147552857Y-110937057D01*
X147552857Y-110937057D02*
X147514761Y-110860866D01*
X147514761Y-110860866D02*
X147514761Y-110784676D01*
X147514761Y-110784676D02*
X147552857Y-110708485D01*
X147552857Y-110708485D02*
X147590952Y-110670390D01*
X147590952Y-110670390D02*
X147667142Y-110632295D01*
X147667142Y-110632295D02*
X147857619Y-110632295D01*
X147857619Y-110632295D02*
X147971904Y-110670390D01*
X148238571Y-110632295D02*
X148429047Y-111432295D01*
X148429047Y-111432295D02*
X148581428Y-110860866D01*
X148581428Y-110860866D02*
X148733809Y-111432295D01*
X148733809Y-111432295D02*
X148924286Y-110632295D01*
X149229048Y-111432295D02*
X149229048Y-110632295D01*
X149229048Y-110632295D02*
X149419524Y-110632295D01*
X149419524Y-110632295D02*
X149533810Y-110670390D01*
X149533810Y-110670390D02*
X149610000Y-110746580D01*
X149610000Y-110746580D02*
X149648095Y-110822771D01*
X149648095Y-110822771D02*
X149686191Y-110975152D01*
X149686191Y-110975152D02*
X149686191Y-111089438D01*
X149686191Y-111089438D02*
X149648095Y-111241819D01*
X149648095Y-111241819D02*
X149610000Y-111318009D01*
X149610000Y-111318009D02*
X149533810Y-111394200D01*
X149533810Y-111394200D02*
X149419524Y-111432295D01*
X149419524Y-111432295D02*
X149229048Y-111432295D01*
X150029048Y-111432295D02*
X150029048Y-110632295D01*
X150562381Y-110632295D02*
X150714762Y-110632295D01*
X150714762Y-110632295D02*
X150790952Y-110670390D01*
X150790952Y-110670390D02*
X150867143Y-110746580D01*
X150867143Y-110746580D02*
X150905238Y-110898961D01*
X150905238Y-110898961D02*
X150905238Y-111165628D01*
X150905238Y-111165628D02*
X150867143Y-111318009D01*
X150867143Y-111318009D02*
X150790952Y-111394200D01*
X150790952Y-111394200D02*
X150714762Y-111432295D01*
X150714762Y-111432295D02*
X150562381Y-111432295D01*
X150562381Y-111432295D02*
X150486190Y-111394200D01*
X150486190Y-111394200D02*
X150410000Y-111318009D01*
X150410000Y-111318009D02*
X150371904Y-111165628D01*
X150371904Y-111165628D02*
X150371904Y-110898961D01*
X150371904Y-110898961D02*
X150410000Y-110746580D01*
X150410000Y-110746580D02*
X150486190Y-110670390D01*
X150486190Y-110670390D02*
X150562381Y-110632295D01*
X130123372Y-88801494D02*
X130042560Y-88828431D01*
X130042560Y-88828431D02*
X129961748Y-88909243D01*
X129961748Y-88909243D02*
X129907873Y-89016993D01*
X129907873Y-89016993D02*
X129907873Y-89124742D01*
X129907873Y-89124742D02*
X129934810Y-89205555D01*
X129934810Y-89205555D02*
X130015623Y-89340242D01*
X130015623Y-89340242D02*
X130096435Y-89421054D01*
X130096435Y-89421054D02*
X130231122Y-89501866D01*
X130231122Y-89501866D02*
X130311934Y-89528803D01*
X130311934Y-89528803D02*
X130419684Y-89528803D01*
X130419684Y-89528803D02*
X130527433Y-89474929D01*
X130527433Y-89474929D02*
X130581308Y-89421054D01*
X130581308Y-89421054D02*
X130635183Y-89313304D01*
X130635183Y-89313304D02*
X130635183Y-89259429D01*
X130635183Y-89259429D02*
X130446621Y-89070868D01*
X130446621Y-89070868D02*
X130338871Y-89178617D01*
X130931494Y-89070868D02*
X130365809Y-88505182D01*
X130365809Y-88505182D02*
X130581308Y-88289683D01*
X130581308Y-88289683D02*
X130662120Y-88262746D01*
X130662120Y-88262746D02*
X130715995Y-88262746D01*
X130715995Y-88262746D02*
X130796807Y-88289683D01*
X130796807Y-88289683D02*
X130877619Y-88370495D01*
X130877619Y-88370495D02*
X130904557Y-88451307D01*
X130904557Y-88451307D02*
X130904557Y-88505182D01*
X130904557Y-88505182D02*
X130877619Y-88585994D01*
X130877619Y-88585994D02*
X130662120Y-88801494D01*
X131524117Y-88478245D02*
X131631867Y-88370495D01*
X131631867Y-88370495D02*
X131658804Y-88289683D01*
X131658804Y-88289683D02*
X131658804Y-88235808D01*
X131658804Y-88235808D02*
X131631867Y-88101121D01*
X131631867Y-88101121D02*
X131551054Y-87966434D01*
X131551054Y-87966434D02*
X131335555Y-87750935D01*
X131335555Y-87750935D02*
X131254743Y-87723998D01*
X131254743Y-87723998D02*
X131200868Y-87723998D01*
X131200868Y-87723998D02*
X131120056Y-87750935D01*
X131120056Y-87750935D02*
X131012306Y-87858685D01*
X131012306Y-87858685D02*
X130985369Y-87939497D01*
X130985369Y-87939497D02*
X130985369Y-87993372D01*
X130985369Y-87993372D02*
X131012306Y-88074184D01*
X131012306Y-88074184D02*
X131146993Y-88208871D01*
X131146993Y-88208871D02*
X131227806Y-88235808D01*
X131227806Y-88235808D02*
X131281680Y-88235808D01*
X131281680Y-88235808D02*
X131362493Y-88208871D01*
X131362493Y-88208871D02*
X131470242Y-88101121D01*
X131470242Y-88101121D02*
X131497180Y-88020309D01*
X131497180Y-88020309D02*
X131497180Y-87966434D01*
X131497180Y-87966434D02*
X131470242Y-87885622D01*
X130223372Y-83691494D02*
X130142560Y-83718431D01*
X130142560Y-83718431D02*
X130061748Y-83799243D01*
X130061748Y-83799243D02*
X130007873Y-83906993D01*
X130007873Y-83906993D02*
X130007873Y-84014742D01*
X130007873Y-84014742D02*
X130034810Y-84095555D01*
X130034810Y-84095555D02*
X130115623Y-84230242D01*
X130115623Y-84230242D02*
X130196435Y-84311054D01*
X130196435Y-84311054D02*
X130331122Y-84391866D01*
X130331122Y-84391866D02*
X130411934Y-84418803D01*
X130411934Y-84418803D02*
X130519684Y-84418803D01*
X130519684Y-84418803D02*
X130627433Y-84364929D01*
X130627433Y-84364929D02*
X130681308Y-84311054D01*
X130681308Y-84311054D02*
X130735183Y-84203304D01*
X130735183Y-84203304D02*
X130735183Y-84149429D01*
X130735183Y-84149429D02*
X130546621Y-83960868D01*
X130546621Y-83960868D02*
X130438871Y-84068617D01*
X131031494Y-83960868D02*
X130465809Y-83395182D01*
X130465809Y-83395182D02*
X130681308Y-83179683D01*
X130681308Y-83179683D02*
X130762120Y-83152746D01*
X130762120Y-83152746D02*
X130815995Y-83152746D01*
X130815995Y-83152746D02*
X130896807Y-83179683D01*
X130896807Y-83179683D02*
X130977619Y-83260495D01*
X130977619Y-83260495D02*
X131004557Y-83341307D01*
X131004557Y-83341307D02*
X131004557Y-83395182D01*
X131004557Y-83395182D02*
X130977619Y-83475994D01*
X130977619Y-83475994D02*
X130762120Y-83691494D01*
X130977619Y-82883372D02*
X131354743Y-82506248D01*
X131354743Y-82506248D02*
X131677992Y-83314370D01*
X155500123Y-71360868D02*
X155850309Y-71010682D01*
X155850309Y-71010682D02*
X155877247Y-71414743D01*
X155877247Y-71414743D02*
X155958059Y-71333931D01*
X155958059Y-71333931D02*
X156038871Y-71306993D01*
X156038871Y-71306993D02*
X156092746Y-71306993D01*
X156092746Y-71306993D02*
X156173558Y-71333931D01*
X156173558Y-71333931D02*
X156308245Y-71468618D01*
X156308245Y-71468618D02*
X156335182Y-71549430D01*
X156335182Y-71549430D02*
X156335182Y-71603305D01*
X156335182Y-71603305D02*
X156308245Y-71684117D01*
X156308245Y-71684117D02*
X156146621Y-71845741D01*
X156146621Y-71845741D02*
X156065808Y-71872679D01*
X156065808Y-71872679D02*
X156011934Y-71872679D01*
X156011934Y-70849057D02*
X156766181Y-71226181D01*
X156766181Y-71226181D02*
X156389057Y-70471934D01*
X156523744Y-70337247D02*
X156873930Y-69987061D01*
X156873930Y-69987061D02*
X156900868Y-70391122D01*
X156900868Y-70391122D02*
X156981680Y-70310309D01*
X156981680Y-70310309D02*
X157062492Y-70283372D01*
X157062492Y-70283372D02*
X157116367Y-70283372D01*
X157116367Y-70283372D02*
X157197179Y-70310309D01*
X157197179Y-70310309D02*
X157331866Y-70444996D01*
X157331866Y-70444996D02*
X157358804Y-70525809D01*
X157358804Y-70525809D02*
X157358804Y-70579683D01*
X157358804Y-70579683D02*
X157331866Y-70660496D01*
X157331866Y-70660496D02*
X157170242Y-70822120D01*
X157170242Y-70822120D02*
X157089430Y-70849057D01*
X157089430Y-70849057D02*
X157035555Y-70849057D01*
X130123372Y-71021494D02*
X130042560Y-71048431D01*
X130042560Y-71048431D02*
X129961748Y-71129243D01*
X129961748Y-71129243D02*
X129907873Y-71236993D01*
X129907873Y-71236993D02*
X129907873Y-71344742D01*
X129907873Y-71344742D02*
X129934810Y-71425555D01*
X129934810Y-71425555D02*
X130015623Y-71560242D01*
X130015623Y-71560242D02*
X130096435Y-71641054D01*
X130096435Y-71641054D02*
X130231122Y-71721866D01*
X130231122Y-71721866D02*
X130311934Y-71748803D01*
X130311934Y-71748803D02*
X130419684Y-71748803D01*
X130419684Y-71748803D02*
X130527433Y-71694929D01*
X130527433Y-71694929D02*
X130581308Y-71641054D01*
X130581308Y-71641054D02*
X130635183Y-71533304D01*
X130635183Y-71533304D02*
X130635183Y-71479429D01*
X130635183Y-71479429D02*
X130446621Y-71290868D01*
X130446621Y-71290868D02*
X130338871Y-71398617D01*
X130931494Y-71290868D02*
X130365809Y-70725182D01*
X130365809Y-70725182D02*
X130581308Y-70509683D01*
X130581308Y-70509683D02*
X130662120Y-70482746D01*
X130662120Y-70482746D02*
X130715995Y-70482746D01*
X130715995Y-70482746D02*
X130796807Y-70509683D01*
X130796807Y-70509683D02*
X130877619Y-70590495D01*
X130877619Y-70590495D02*
X130904557Y-70671307D01*
X130904557Y-70671307D02*
X130904557Y-70725182D01*
X130904557Y-70725182D02*
X130877619Y-70805994D01*
X130877619Y-70805994D02*
X130662120Y-71021494D01*
X130877619Y-70213372D02*
X131227806Y-69863185D01*
X131227806Y-69863185D02*
X131254743Y-70267246D01*
X131254743Y-70267246D02*
X131335555Y-70186434D01*
X131335555Y-70186434D02*
X131416367Y-70159497D01*
X131416367Y-70159497D02*
X131470242Y-70159497D01*
X131470242Y-70159497D02*
X131551054Y-70186434D01*
X131551054Y-70186434D02*
X131685741Y-70321121D01*
X131685741Y-70321121D02*
X131712679Y-70401933D01*
X131712679Y-70401933D02*
X131712679Y-70455808D01*
X131712679Y-70455808D02*
X131685741Y-70536620D01*
X131685741Y-70536620D02*
X131524117Y-70698245D01*
X131524117Y-70698245D02*
X131443305Y-70725182D01*
X131443305Y-70725182D02*
X131389430Y-70725182D01*
X155707998Y-83990868D02*
X155627185Y-84017805D01*
X155627185Y-84017805D02*
X155546373Y-84098618D01*
X155546373Y-84098618D02*
X155492498Y-84206367D01*
X155492498Y-84206367D02*
X155492498Y-84314117D01*
X155492498Y-84314117D02*
X155519436Y-84394929D01*
X155519436Y-84394929D02*
X155600248Y-84529616D01*
X155600248Y-84529616D02*
X155681060Y-84610428D01*
X155681060Y-84610428D02*
X155815747Y-84691241D01*
X155815747Y-84691241D02*
X155896560Y-84718178D01*
X155896560Y-84718178D02*
X156004309Y-84718178D01*
X156004309Y-84718178D02*
X156112059Y-84664303D01*
X156112059Y-84664303D02*
X156165934Y-84610428D01*
X156165934Y-84610428D02*
X156219808Y-84502679D01*
X156219808Y-84502679D02*
X156219808Y-84448804D01*
X156219808Y-84448804D02*
X156031247Y-84260242D01*
X156031247Y-84260242D02*
X155923497Y-84367992D01*
X156516120Y-84260242D02*
X155950434Y-83694557D01*
X155950434Y-83694557D02*
X156165934Y-83479057D01*
X156165934Y-83479057D02*
X156246746Y-83452120D01*
X156246746Y-83452120D02*
X156300621Y-83452120D01*
X156300621Y-83452120D02*
X156381433Y-83479057D01*
X156381433Y-83479057D02*
X156462245Y-83559870D01*
X156462245Y-83559870D02*
X156489182Y-83640682D01*
X156489182Y-83640682D02*
X156489182Y-83694557D01*
X156489182Y-83694557D02*
X156462245Y-83775369D01*
X156462245Y-83775369D02*
X156246746Y-83990868D01*
X156543057Y-83209683D02*
X156543057Y-83155809D01*
X156543057Y-83155809D02*
X156569995Y-83074996D01*
X156569995Y-83074996D02*
X156704682Y-82940309D01*
X156704682Y-82940309D02*
X156785494Y-82913372D01*
X156785494Y-82913372D02*
X156839369Y-82913372D01*
X156839369Y-82913372D02*
X156920181Y-82940309D01*
X156920181Y-82940309D02*
X156974056Y-82994184D01*
X156974056Y-82994184D02*
X157027930Y-83101934D01*
X157027930Y-83101934D02*
X157027930Y-83748431D01*
X157027930Y-83748431D02*
X157378117Y-83398245D01*
X157297305Y-82347686D02*
X157189555Y-82455436D01*
X157189555Y-82455436D02*
X157162618Y-82536248D01*
X157162618Y-82536248D02*
X157162618Y-82590123D01*
X157162618Y-82590123D02*
X157189555Y-82724810D01*
X157189555Y-82724810D02*
X157270367Y-82859497D01*
X157270367Y-82859497D02*
X157485866Y-83074996D01*
X157485866Y-83074996D02*
X157566679Y-83101934D01*
X157566679Y-83101934D02*
X157620553Y-83101934D01*
X157620553Y-83101934D02*
X157701366Y-83074996D01*
X157701366Y-83074996D02*
X157809115Y-82967247D01*
X157809115Y-82967247D02*
X157836053Y-82886434D01*
X157836053Y-82886434D02*
X157836053Y-82832560D01*
X157836053Y-82832560D02*
X157809115Y-82751747D01*
X157809115Y-82751747D02*
X157674428Y-82617060D01*
X157674428Y-82617060D02*
X157593616Y-82590123D01*
X157593616Y-82590123D02*
X157539741Y-82590123D01*
X157539741Y-82590123D02*
X157458929Y-82617060D01*
X157458929Y-82617060D02*
X157351179Y-82724810D01*
X157351179Y-82724810D02*
X157324242Y-82805622D01*
X157324242Y-82805622D02*
X157324242Y-82859497D01*
X157324242Y-82859497D02*
X157351179Y-82940309D01*
X155707998Y-99230868D02*
X155627185Y-99257805D01*
X155627185Y-99257805D02*
X155546373Y-99338618D01*
X155546373Y-99338618D02*
X155492498Y-99446367D01*
X155492498Y-99446367D02*
X155492498Y-99554117D01*
X155492498Y-99554117D02*
X155519436Y-99634929D01*
X155519436Y-99634929D02*
X155600248Y-99769616D01*
X155600248Y-99769616D02*
X155681060Y-99850428D01*
X155681060Y-99850428D02*
X155815747Y-99931241D01*
X155815747Y-99931241D02*
X155896560Y-99958178D01*
X155896560Y-99958178D02*
X156004309Y-99958178D01*
X156004309Y-99958178D02*
X156112059Y-99904303D01*
X156112059Y-99904303D02*
X156165934Y-99850428D01*
X156165934Y-99850428D02*
X156219808Y-99742679D01*
X156219808Y-99742679D02*
X156219808Y-99688804D01*
X156219808Y-99688804D02*
X156031247Y-99500242D01*
X156031247Y-99500242D02*
X155923497Y-99607992D01*
X156516120Y-99500242D02*
X155950434Y-98934557D01*
X155950434Y-98934557D02*
X156165934Y-98719057D01*
X156165934Y-98719057D02*
X156246746Y-98692120D01*
X156246746Y-98692120D02*
X156300621Y-98692120D01*
X156300621Y-98692120D02*
X156381433Y-98719057D01*
X156381433Y-98719057D02*
X156462245Y-98799870D01*
X156462245Y-98799870D02*
X156489182Y-98880682D01*
X156489182Y-98880682D02*
X156489182Y-98934557D01*
X156489182Y-98934557D02*
X156462245Y-99015369D01*
X156462245Y-99015369D02*
X156246746Y-99230868D01*
X157378117Y-98638245D02*
X157054868Y-98961494D01*
X157216492Y-98799870D02*
X156650807Y-98234184D01*
X156650807Y-98234184D02*
X156677744Y-98368871D01*
X156677744Y-98368871D02*
X156677744Y-98476621D01*
X156677744Y-98476621D02*
X156650807Y-98557433D01*
X157647491Y-98368871D02*
X157755240Y-98261121D01*
X157755240Y-98261121D02*
X157782178Y-98180309D01*
X157782178Y-98180309D02*
X157782178Y-98126434D01*
X157782178Y-98126434D02*
X157755240Y-97991747D01*
X157755240Y-97991747D02*
X157674428Y-97857060D01*
X157674428Y-97857060D02*
X157458929Y-97641561D01*
X157458929Y-97641561D02*
X157378117Y-97614624D01*
X157378117Y-97614624D02*
X157324242Y-97614624D01*
X157324242Y-97614624D02*
X157243430Y-97641561D01*
X157243430Y-97641561D02*
X157135680Y-97749311D01*
X157135680Y-97749311D02*
X157108743Y-97830123D01*
X157108743Y-97830123D02*
X157108743Y-97883998D01*
X157108743Y-97883998D02*
X157135680Y-97964810D01*
X157135680Y-97964810D02*
X157270367Y-98099497D01*
X157270367Y-98099497D02*
X157351179Y-98126434D01*
X157351179Y-98126434D02*
X157405054Y-98126434D01*
X157405054Y-98126434D02*
X157485866Y-98099497D01*
X157485866Y-98099497D02*
X157593616Y-97991747D01*
X157593616Y-97991747D02*
X157620553Y-97910935D01*
X157620553Y-97910935D02*
X157620553Y-97857060D01*
X157620553Y-97857060D02*
X157593616Y-97776248D01*
X155707998Y-81460868D02*
X155627185Y-81487805D01*
X155627185Y-81487805D02*
X155546373Y-81568618D01*
X155546373Y-81568618D02*
X155492498Y-81676367D01*
X155492498Y-81676367D02*
X155492498Y-81784117D01*
X155492498Y-81784117D02*
X155519436Y-81864929D01*
X155519436Y-81864929D02*
X155600248Y-81999616D01*
X155600248Y-81999616D02*
X155681060Y-82080428D01*
X155681060Y-82080428D02*
X155815747Y-82161241D01*
X155815747Y-82161241D02*
X155896560Y-82188178D01*
X155896560Y-82188178D02*
X156004309Y-82188178D01*
X156004309Y-82188178D02*
X156112059Y-82134303D01*
X156112059Y-82134303D02*
X156165934Y-82080428D01*
X156165934Y-82080428D02*
X156219808Y-81972679D01*
X156219808Y-81972679D02*
X156219808Y-81918804D01*
X156219808Y-81918804D02*
X156031247Y-81730242D01*
X156031247Y-81730242D02*
X155923497Y-81837992D01*
X156516120Y-81730242D02*
X155950434Y-81164557D01*
X155950434Y-81164557D02*
X156165934Y-80949057D01*
X156165934Y-80949057D02*
X156246746Y-80922120D01*
X156246746Y-80922120D02*
X156300621Y-80922120D01*
X156300621Y-80922120D02*
X156381433Y-80949057D01*
X156381433Y-80949057D02*
X156462245Y-81029870D01*
X156462245Y-81029870D02*
X156489182Y-81110682D01*
X156489182Y-81110682D02*
X156489182Y-81164557D01*
X156489182Y-81164557D02*
X156462245Y-81245369D01*
X156462245Y-81245369D02*
X156246746Y-81460868D01*
X156543057Y-80679683D02*
X156543057Y-80625809D01*
X156543057Y-80625809D02*
X156569995Y-80544996D01*
X156569995Y-80544996D02*
X156704682Y-80410309D01*
X156704682Y-80410309D02*
X156785494Y-80383372D01*
X156785494Y-80383372D02*
X156839369Y-80383372D01*
X156839369Y-80383372D02*
X156920181Y-80410309D01*
X156920181Y-80410309D02*
X156974056Y-80464184D01*
X156974056Y-80464184D02*
X157027930Y-80571934D01*
X157027930Y-80571934D02*
X157027930Y-81218431D01*
X157027930Y-81218431D02*
X157378117Y-80868245D01*
X157000993Y-80113998D02*
X157378117Y-79736874D01*
X157378117Y-79736874D02*
X157701366Y-80544996D01*
X155696435Y-91368431D02*
X155615623Y-91395368D01*
X155615623Y-91395368D02*
X155534811Y-91476180D01*
X155534811Y-91476180D02*
X155480936Y-91583930D01*
X155480936Y-91583930D02*
X155480936Y-91691680D01*
X155480936Y-91691680D02*
X155507873Y-91772492D01*
X155507873Y-91772492D02*
X155588685Y-91907179D01*
X155588685Y-91907179D02*
X155669498Y-91987991D01*
X155669498Y-91987991D02*
X155804185Y-92068803D01*
X155804185Y-92068803D02*
X155884997Y-92095741D01*
X155884997Y-92095741D02*
X155992746Y-92095741D01*
X155992746Y-92095741D02*
X156100496Y-92041866D01*
X156100496Y-92041866D02*
X156154371Y-91987991D01*
X156154371Y-91987991D02*
X156208246Y-91880241D01*
X156208246Y-91880241D02*
X156208246Y-91826367D01*
X156208246Y-91826367D02*
X156019684Y-91637805D01*
X156019684Y-91637805D02*
X155911934Y-91745554D01*
X156504557Y-91637805D02*
X155938872Y-91072119D01*
X155938872Y-91072119D02*
X156827806Y-91314556D01*
X156827806Y-91314556D02*
X156262120Y-90748871D01*
X157097180Y-91045182D02*
X156531494Y-90479497D01*
X156531494Y-90479497D02*
X156666181Y-90344810D01*
X156666181Y-90344810D02*
X156773931Y-90290935D01*
X156773931Y-90290935D02*
X156881680Y-90290935D01*
X156881680Y-90290935D02*
X156962493Y-90317872D01*
X156962493Y-90317872D02*
X157097180Y-90398685D01*
X157097180Y-90398685D02*
X157177992Y-90479497D01*
X157177992Y-90479497D02*
X157258804Y-90614184D01*
X157258804Y-90614184D02*
X157285741Y-90694996D01*
X157285741Y-90694996D02*
X157285741Y-90802746D01*
X157285741Y-90802746D02*
X157231867Y-90910495D01*
X157231867Y-90910495D02*
X157097180Y-91045182D01*
X155707998Y-94160868D02*
X155627185Y-94187805D01*
X155627185Y-94187805D02*
X155546373Y-94268618D01*
X155546373Y-94268618D02*
X155492498Y-94376367D01*
X155492498Y-94376367D02*
X155492498Y-94484117D01*
X155492498Y-94484117D02*
X155519436Y-94564929D01*
X155519436Y-94564929D02*
X155600248Y-94699616D01*
X155600248Y-94699616D02*
X155681060Y-94780428D01*
X155681060Y-94780428D02*
X155815747Y-94861241D01*
X155815747Y-94861241D02*
X155896560Y-94888178D01*
X155896560Y-94888178D02*
X156004309Y-94888178D01*
X156004309Y-94888178D02*
X156112059Y-94834303D01*
X156112059Y-94834303D02*
X156165934Y-94780428D01*
X156165934Y-94780428D02*
X156219808Y-94672679D01*
X156219808Y-94672679D02*
X156219808Y-94618804D01*
X156219808Y-94618804D02*
X156031247Y-94430242D01*
X156031247Y-94430242D02*
X155923497Y-94537992D01*
X156516120Y-94430242D02*
X155950434Y-93864557D01*
X155950434Y-93864557D02*
X156165934Y-93649057D01*
X156165934Y-93649057D02*
X156246746Y-93622120D01*
X156246746Y-93622120D02*
X156300621Y-93622120D01*
X156300621Y-93622120D02*
X156381433Y-93649057D01*
X156381433Y-93649057D02*
X156462245Y-93729870D01*
X156462245Y-93729870D02*
X156489182Y-93810682D01*
X156489182Y-93810682D02*
X156489182Y-93864557D01*
X156489182Y-93864557D02*
X156462245Y-93945369D01*
X156462245Y-93945369D02*
X156246746Y-94160868D01*
X156543057Y-93379683D02*
X156543057Y-93325809D01*
X156543057Y-93325809D02*
X156569995Y-93244996D01*
X156569995Y-93244996D02*
X156704682Y-93110309D01*
X156704682Y-93110309D02*
X156785494Y-93083372D01*
X156785494Y-93083372D02*
X156839369Y-93083372D01*
X156839369Y-93083372D02*
X156920181Y-93110309D01*
X156920181Y-93110309D02*
X156974056Y-93164184D01*
X156974056Y-93164184D02*
X157027930Y-93271934D01*
X157027930Y-93271934D02*
X157027930Y-93918431D01*
X157027930Y-93918431D02*
X157378117Y-93568245D01*
X157916865Y-93029497D02*
X157593616Y-93352746D01*
X157755240Y-93191121D02*
X157189555Y-92625436D01*
X157189555Y-92625436D02*
X157216492Y-92760123D01*
X157216492Y-92760123D02*
X157216492Y-92867873D01*
X157216492Y-92867873D02*
X157189555Y-92948685D01*
X136100475Y-111394200D02*
X136214761Y-111432295D01*
X136214761Y-111432295D02*
X136405237Y-111432295D01*
X136405237Y-111432295D02*
X136481428Y-111394200D01*
X136481428Y-111394200D02*
X136519523Y-111356104D01*
X136519523Y-111356104D02*
X136557618Y-111279914D01*
X136557618Y-111279914D02*
X136557618Y-111203723D01*
X136557618Y-111203723D02*
X136519523Y-111127533D01*
X136519523Y-111127533D02*
X136481428Y-111089438D01*
X136481428Y-111089438D02*
X136405237Y-111051342D01*
X136405237Y-111051342D02*
X136252856Y-111013247D01*
X136252856Y-111013247D02*
X136176666Y-110975152D01*
X136176666Y-110975152D02*
X136138571Y-110937057D01*
X136138571Y-110937057D02*
X136100475Y-110860866D01*
X136100475Y-110860866D02*
X136100475Y-110784676D01*
X136100475Y-110784676D02*
X136138571Y-110708485D01*
X136138571Y-110708485D02*
X136176666Y-110670390D01*
X136176666Y-110670390D02*
X136252856Y-110632295D01*
X136252856Y-110632295D02*
X136443333Y-110632295D01*
X136443333Y-110632295D02*
X136557618Y-110670390D01*
X136824285Y-110632295D02*
X137014761Y-111432295D01*
X137014761Y-111432295D02*
X137167142Y-110860866D01*
X137167142Y-110860866D02*
X137319523Y-111432295D01*
X137319523Y-111432295D02*
X137510000Y-110632295D01*
X138271905Y-111356104D02*
X138233809Y-111394200D01*
X138233809Y-111394200D02*
X138119524Y-111432295D01*
X138119524Y-111432295D02*
X138043333Y-111432295D01*
X138043333Y-111432295D02*
X137929047Y-111394200D01*
X137929047Y-111394200D02*
X137852857Y-111318009D01*
X137852857Y-111318009D02*
X137814762Y-111241819D01*
X137814762Y-111241819D02*
X137776666Y-111089438D01*
X137776666Y-111089438D02*
X137776666Y-110975152D01*
X137776666Y-110975152D02*
X137814762Y-110822771D01*
X137814762Y-110822771D02*
X137852857Y-110746580D01*
X137852857Y-110746580D02*
X137929047Y-110670390D01*
X137929047Y-110670390D02*
X138043333Y-110632295D01*
X138043333Y-110632295D02*
X138119524Y-110632295D01*
X138119524Y-110632295D02*
X138233809Y-110670390D01*
X138233809Y-110670390D02*
X138271905Y-110708485D01*
X138995714Y-111432295D02*
X138614762Y-111432295D01*
X138614762Y-111432295D02*
X138614762Y-110632295D01*
X139262381Y-111432295D02*
X139262381Y-110632295D01*
X139719524Y-111432295D02*
X139376666Y-110975152D01*
X139719524Y-110632295D02*
X139262381Y-111089438D01*
X130096435Y-65968431D02*
X130015623Y-65995368D01*
X130015623Y-65995368D02*
X129934811Y-66076180D01*
X129934811Y-66076180D02*
X129880936Y-66183930D01*
X129880936Y-66183930D02*
X129880936Y-66291680D01*
X129880936Y-66291680D02*
X129907873Y-66372492D01*
X129907873Y-66372492D02*
X129988685Y-66507179D01*
X129988685Y-66507179D02*
X130069498Y-66587991D01*
X130069498Y-66587991D02*
X130204185Y-66668803D01*
X130204185Y-66668803D02*
X130284997Y-66695741D01*
X130284997Y-66695741D02*
X130392746Y-66695741D01*
X130392746Y-66695741D02*
X130500496Y-66641866D01*
X130500496Y-66641866D02*
X130554371Y-66587991D01*
X130554371Y-66587991D02*
X130608246Y-66480241D01*
X130608246Y-66480241D02*
X130608246Y-66426367D01*
X130608246Y-66426367D02*
X130419684Y-66237805D01*
X130419684Y-66237805D02*
X130311934Y-66345554D01*
X130904557Y-66237805D02*
X130338872Y-65672119D01*
X130338872Y-65672119D02*
X131227806Y-65914556D01*
X131227806Y-65914556D02*
X130662120Y-65348871D01*
X131497180Y-65645182D02*
X130931494Y-65079497D01*
X130931494Y-65079497D02*
X131066181Y-64944810D01*
X131066181Y-64944810D02*
X131173931Y-64890935D01*
X131173931Y-64890935D02*
X131281680Y-64890935D01*
X131281680Y-64890935D02*
X131362493Y-64917872D01*
X131362493Y-64917872D02*
X131497180Y-64998685D01*
X131497180Y-64998685D02*
X131577992Y-65079497D01*
X131577992Y-65079497D02*
X131658804Y-65214184D01*
X131658804Y-65214184D02*
X131685741Y-65294996D01*
X131685741Y-65294996D02*
X131685741Y-65402746D01*
X131685741Y-65402746D02*
X131631867Y-65510495D01*
X131631867Y-65510495D02*
X131497180Y-65645182D01*
X155707998Y-106850868D02*
X155627185Y-106877805D01*
X155627185Y-106877805D02*
X155546373Y-106958618D01*
X155546373Y-106958618D02*
X155492498Y-107066367D01*
X155492498Y-107066367D02*
X155492498Y-107174117D01*
X155492498Y-107174117D02*
X155519436Y-107254929D01*
X155519436Y-107254929D02*
X155600248Y-107389616D01*
X155600248Y-107389616D02*
X155681060Y-107470428D01*
X155681060Y-107470428D02*
X155815747Y-107551241D01*
X155815747Y-107551241D02*
X155896560Y-107578178D01*
X155896560Y-107578178D02*
X156004309Y-107578178D01*
X156004309Y-107578178D02*
X156112059Y-107524303D01*
X156112059Y-107524303D02*
X156165934Y-107470428D01*
X156165934Y-107470428D02*
X156219808Y-107362679D01*
X156219808Y-107362679D02*
X156219808Y-107308804D01*
X156219808Y-107308804D02*
X156031247Y-107120242D01*
X156031247Y-107120242D02*
X155923497Y-107227992D01*
X156516120Y-107120242D02*
X155950434Y-106554557D01*
X155950434Y-106554557D02*
X156165934Y-106339057D01*
X156165934Y-106339057D02*
X156246746Y-106312120D01*
X156246746Y-106312120D02*
X156300621Y-106312120D01*
X156300621Y-106312120D02*
X156381433Y-106339057D01*
X156381433Y-106339057D02*
X156462245Y-106419870D01*
X156462245Y-106419870D02*
X156489182Y-106500682D01*
X156489182Y-106500682D02*
X156489182Y-106554557D01*
X156489182Y-106554557D02*
X156462245Y-106635369D01*
X156462245Y-106635369D02*
X156246746Y-106850868D01*
X157378117Y-106258245D02*
X157054868Y-106581494D01*
X157216492Y-106419870D02*
X156650807Y-105854184D01*
X156650807Y-105854184D02*
X156677744Y-105988871D01*
X156677744Y-105988871D02*
X156677744Y-106096621D01*
X156677744Y-106096621D02*
X156650807Y-106177433D01*
X157000993Y-105503998D02*
X157378117Y-105126874D01*
X157378117Y-105126874D02*
X157701366Y-105934996D01*
X130123372Y-60861494D02*
X130042560Y-60888431D01*
X130042560Y-60888431D02*
X129961748Y-60969243D01*
X129961748Y-60969243D02*
X129907873Y-61076993D01*
X129907873Y-61076993D02*
X129907873Y-61184742D01*
X129907873Y-61184742D02*
X129934810Y-61265555D01*
X129934810Y-61265555D02*
X130015623Y-61400242D01*
X130015623Y-61400242D02*
X130096435Y-61481054D01*
X130096435Y-61481054D02*
X130231122Y-61561866D01*
X130231122Y-61561866D02*
X130311934Y-61588803D01*
X130311934Y-61588803D02*
X130419684Y-61588803D01*
X130419684Y-61588803D02*
X130527433Y-61534929D01*
X130527433Y-61534929D02*
X130581308Y-61481054D01*
X130581308Y-61481054D02*
X130635183Y-61373304D01*
X130635183Y-61373304D02*
X130635183Y-61319429D01*
X130635183Y-61319429D02*
X130446621Y-61130868D01*
X130446621Y-61130868D02*
X130338871Y-61238617D01*
X130931494Y-61130868D02*
X130365809Y-60565182D01*
X130365809Y-60565182D02*
X130581308Y-60349683D01*
X130581308Y-60349683D02*
X130662120Y-60322746D01*
X130662120Y-60322746D02*
X130715995Y-60322746D01*
X130715995Y-60322746D02*
X130796807Y-60349683D01*
X130796807Y-60349683D02*
X130877619Y-60430495D01*
X130877619Y-60430495D02*
X130904557Y-60511307D01*
X130904557Y-60511307D02*
X130904557Y-60565182D01*
X130904557Y-60565182D02*
X130877619Y-60645994D01*
X130877619Y-60645994D02*
X130662120Y-60861494D01*
X131039244Y-59891747D02*
X131093119Y-59837872D01*
X131093119Y-59837872D02*
X131173931Y-59810935D01*
X131173931Y-59810935D02*
X131227806Y-59810935D01*
X131227806Y-59810935D02*
X131308618Y-59837872D01*
X131308618Y-59837872D02*
X131443305Y-59918685D01*
X131443305Y-59918685D02*
X131577992Y-60053372D01*
X131577992Y-60053372D02*
X131658804Y-60188059D01*
X131658804Y-60188059D02*
X131685741Y-60268871D01*
X131685741Y-60268871D02*
X131685741Y-60322746D01*
X131685741Y-60322746D02*
X131658804Y-60403558D01*
X131658804Y-60403558D02*
X131604929Y-60457433D01*
X131604929Y-60457433D02*
X131524117Y-60484370D01*
X131524117Y-60484370D02*
X131470242Y-60484370D01*
X131470242Y-60484370D02*
X131389430Y-60457433D01*
X131389430Y-60457433D02*
X131254743Y-60376620D01*
X131254743Y-60376620D02*
X131120056Y-60241933D01*
X131120056Y-60241933D02*
X131039244Y-60107246D01*
X131039244Y-60107246D02*
X131012306Y-60026434D01*
X131012306Y-60026434D02*
X131012306Y-59972559D01*
X131012306Y-59972559D02*
X131039244Y-59891747D01*
X129599998Y-101770868D02*
X129519185Y-101797805D01*
X129519185Y-101797805D02*
X129438373Y-101878618D01*
X129438373Y-101878618D02*
X129384498Y-101986367D01*
X129384498Y-101986367D02*
X129384498Y-102094117D01*
X129384498Y-102094117D02*
X129411436Y-102174929D01*
X129411436Y-102174929D02*
X129492248Y-102309616D01*
X129492248Y-102309616D02*
X129573060Y-102390428D01*
X129573060Y-102390428D02*
X129707747Y-102471241D01*
X129707747Y-102471241D02*
X129788560Y-102498178D01*
X129788560Y-102498178D02*
X129896309Y-102498178D01*
X129896309Y-102498178D02*
X130004059Y-102444303D01*
X130004059Y-102444303D02*
X130057934Y-102390428D01*
X130057934Y-102390428D02*
X130111808Y-102282679D01*
X130111808Y-102282679D02*
X130111808Y-102228804D01*
X130111808Y-102228804D02*
X129923247Y-102040242D01*
X129923247Y-102040242D02*
X129815497Y-102147992D01*
X130408120Y-102040242D02*
X129842434Y-101474557D01*
X129842434Y-101474557D02*
X130057934Y-101259057D01*
X130057934Y-101259057D02*
X130138746Y-101232120D01*
X130138746Y-101232120D02*
X130192621Y-101232120D01*
X130192621Y-101232120D02*
X130273433Y-101259057D01*
X130273433Y-101259057D02*
X130354245Y-101339870D01*
X130354245Y-101339870D02*
X130381182Y-101420682D01*
X130381182Y-101420682D02*
X130381182Y-101474557D01*
X130381182Y-101474557D02*
X130354245Y-101555369D01*
X130354245Y-101555369D02*
X130138746Y-101770868D01*
X131270117Y-101178245D02*
X130946868Y-101501494D01*
X131108492Y-101339870D02*
X130542807Y-100774184D01*
X130542807Y-100774184D02*
X130569744Y-100908871D01*
X130569744Y-100908871D02*
X130569744Y-101016621D01*
X130569744Y-101016621D02*
X130542807Y-101097433D01*
X130892993Y-100423998D02*
X131243179Y-100073812D01*
X131243179Y-100073812D02*
X131270117Y-100477873D01*
X131270117Y-100477873D02*
X131350929Y-100397060D01*
X131350929Y-100397060D02*
X131431741Y-100370123D01*
X131431741Y-100370123D02*
X131485616Y-100370123D01*
X131485616Y-100370123D02*
X131566428Y-100397060D01*
X131566428Y-100397060D02*
X131701115Y-100531747D01*
X131701115Y-100531747D02*
X131728053Y-100612560D01*
X131728053Y-100612560D02*
X131728053Y-100666434D01*
X131728053Y-100666434D02*
X131701115Y-100747247D01*
X131701115Y-100747247D02*
X131539491Y-100908871D01*
X131539491Y-100908871D02*
X131458679Y-100935808D01*
X131458679Y-100935808D02*
X131404804Y-100935808D01*
X155707998Y-76116868D02*
X155627185Y-76143805D01*
X155627185Y-76143805D02*
X155546373Y-76224618D01*
X155546373Y-76224618D02*
X155492498Y-76332367D01*
X155492498Y-76332367D02*
X155492498Y-76440117D01*
X155492498Y-76440117D02*
X155519436Y-76520929D01*
X155519436Y-76520929D02*
X155600248Y-76655616D01*
X155600248Y-76655616D02*
X155681060Y-76736428D01*
X155681060Y-76736428D02*
X155815747Y-76817241D01*
X155815747Y-76817241D02*
X155896560Y-76844178D01*
X155896560Y-76844178D02*
X156004309Y-76844178D01*
X156004309Y-76844178D02*
X156112059Y-76790303D01*
X156112059Y-76790303D02*
X156165934Y-76736428D01*
X156165934Y-76736428D02*
X156219808Y-76628679D01*
X156219808Y-76628679D02*
X156219808Y-76574804D01*
X156219808Y-76574804D02*
X156031247Y-76386242D01*
X156031247Y-76386242D02*
X155923497Y-76493992D01*
X156516120Y-76386242D02*
X155950434Y-75820557D01*
X155950434Y-75820557D02*
X156165934Y-75605057D01*
X156165934Y-75605057D02*
X156246746Y-75578120D01*
X156246746Y-75578120D02*
X156300621Y-75578120D01*
X156300621Y-75578120D02*
X156381433Y-75605057D01*
X156381433Y-75605057D02*
X156462245Y-75685870D01*
X156462245Y-75685870D02*
X156489182Y-75766682D01*
X156489182Y-75766682D02*
X156489182Y-75820557D01*
X156489182Y-75820557D02*
X156462245Y-75901369D01*
X156462245Y-75901369D02*
X156246746Y-76116868D01*
X156543057Y-75335683D02*
X156543057Y-75281809D01*
X156543057Y-75281809D02*
X156569995Y-75200996D01*
X156569995Y-75200996D02*
X156704682Y-75066309D01*
X156704682Y-75066309D02*
X156785494Y-75039372D01*
X156785494Y-75039372D02*
X156839369Y-75039372D01*
X156839369Y-75039372D02*
X156920181Y-75066309D01*
X156920181Y-75066309D02*
X156974056Y-75120184D01*
X156974056Y-75120184D02*
X157027930Y-75227934D01*
X157027930Y-75227934D02*
X157027930Y-75874431D01*
X157027930Y-75874431D02*
X157378117Y-75524245D01*
X157378117Y-74877747D02*
X157297305Y-74904685D01*
X157297305Y-74904685D02*
X157243430Y-74904685D01*
X157243430Y-74904685D02*
X157162618Y-74877747D01*
X157162618Y-74877747D02*
X157135680Y-74850810D01*
X157135680Y-74850810D02*
X157108743Y-74769998D01*
X157108743Y-74769998D02*
X157108743Y-74716123D01*
X157108743Y-74716123D02*
X157135680Y-74635311D01*
X157135680Y-74635311D02*
X157243430Y-74527561D01*
X157243430Y-74527561D02*
X157324242Y-74500624D01*
X157324242Y-74500624D02*
X157378117Y-74500624D01*
X157378117Y-74500624D02*
X157458929Y-74527561D01*
X157458929Y-74527561D02*
X157485866Y-74554499D01*
X157485866Y-74554499D02*
X157512804Y-74635311D01*
X157512804Y-74635311D02*
X157512804Y-74689186D01*
X157512804Y-74689186D02*
X157485866Y-74769998D01*
X157485866Y-74769998D02*
X157378117Y-74877747D01*
X157378117Y-74877747D02*
X157351179Y-74958560D01*
X157351179Y-74958560D02*
X157351179Y-75012434D01*
X157351179Y-75012434D02*
X157378117Y-75093247D01*
X157378117Y-75093247D02*
X157485866Y-75200996D01*
X157485866Y-75200996D02*
X157566679Y-75227934D01*
X157566679Y-75227934D02*
X157620553Y-75227934D01*
X157620553Y-75227934D02*
X157701366Y-75200996D01*
X157701366Y-75200996D02*
X157809115Y-75093247D01*
X157809115Y-75093247D02*
X157836053Y-75012434D01*
X157836053Y-75012434D02*
X157836053Y-74958560D01*
X157836053Y-74958560D02*
X157809115Y-74877747D01*
X157809115Y-74877747D02*
X157701366Y-74769998D01*
X157701366Y-74769998D02*
X157620553Y-74743060D01*
X157620553Y-74743060D02*
X157566679Y-74743060D01*
X157566679Y-74743060D02*
X157485866Y-74769998D01*
X130123372Y-73561494D02*
X130042560Y-73588431D01*
X130042560Y-73588431D02*
X129961748Y-73669243D01*
X129961748Y-73669243D02*
X129907873Y-73776993D01*
X129907873Y-73776993D02*
X129907873Y-73884742D01*
X129907873Y-73884742D02*
X129934810Y-73965555D01*
X129934810Y-73965555D02*
X130015623Y-74100242D01*
X130015623Y-74100242D02*
X130096435Y-74181054D01*
X130096435Y-74181054D02*
X130231122Y-74261866D01*
X130231122Y-74261866D02*
X130311934Y-74288803D01*
X130311934Y-74288803D02*
X130419684Y-74288803D01*
X130419684Y-74288803D02*
X130527433Y-74234929D01*
X130527433Y-74234929D02*
X130581308Y-74181054D01*
X130581308Y-74181054D02*
X130635183Y-74073304D01*
X130635183Y-74073304D02*
X130635183Y-74019429D01*
X130635183Y-74019429D02*
X130446621Y-73830868D01*
X130446621Y-73830868D02*
X130338871Y-73938617D01*
X130931494Y-73830868D02*
X130365809Y-73265182D01*
X130365809Y-73265182D02*
X130581308Y-73049683D01*
X130581308Y-73049683D02*
X130662120Y-73022746D01*
X130662120Y-73022746D02*
X130715995Y-73022746D01*
X130715995Y-73022746D02*
X130796807Y-73049683D01*
X130796807Y-73049683D02*
X130877619Y-73130495D01*
X130877619Y-73130495D02*
X130904557Y-73211307D01*
X130904557Y-73211307D02*
X130904557Y-73265182D01*
X130904557Y-73265182D02*
X130877619Y-73345994D01*
X130877619Y-73345994D02*
X130662120Y-73561494D01*
X131362493Y-72645622D02*
X131739616Y-73022746D01*
X131012306Y-72564810D02*
X131281680Y-73103558D01*
X131281680Y-73103558D02*
X131631867Y-72753372D01*
X155530749Y-63940242D02*
X156284996Y-64317366D01*
X156284996Y-64317366D02*
X155907873Y-63563118D01*
X156608245Y-63940242D02*
X156715995Y-63886367D01*
X156715995Y-63886367D02*
X156850682Y-63751680D01*
X156850682Y-63751680D02*
X156877619Y-63670868D01*
X156877619Y-63670868D02*
X156877619Y-63616993D01*
X156877619Y-63616993D02*
X156850682Y-63536181D01*
X156850682Y-63536181D02*
X156796807Y-63482306D01*
X156796807Y-63482306D02*
X156715995Y-63455369D01*
X156715995Y-63455369D02*
X156662120Y-63455369D01*
X156662120Y-63455369D02*
X156581308Y-63482306D01*
X156581308Y-63482306D02*
X156446621Y-63563118D01*
X156446621Y-63563118D02*
X156365808Y-63590056D01*
X156365808Y-63590056D02*
X156311934Y-63590056D01*
X156311934Y-63590056D02*
X156231121Y-63563118D01*
X156231121Y-63563118D02*
X156177247Y-63509244D01*
X156177247Y-63509244D02*
X156150309Y-63428431D01*
X156150309Y-63428431D02*
X156150309Y-63374557D01*
X156150309Y-63374557D02*
X156177247Y-63293744D01*
X156177247Y-63293744D02*
X156311934Y-63159057D01*
X156311934Y-63159057D02*
X156419683Y-63105183D01*
X157039244Y-63024370D02*
X157308618Y-63293744D01*
X156554370Y-62916621D02*
X157039244Y-63024370D01*
X157039244Y-63024370D02*
X156931494Y-62539497D01*
X157631866Y-62916621D02*
X157739616Y-62862746D01*
X157739616Y-62862746D02*
X157874303Y-62728059D01*
X157874303Y-62728059D02*
X157901240Y-62647247D01*
X157901240Y-62647247D02*
X157901240Y-62593372D01*
X157901240Y-62593372D02*
X157874303Y-62512560D01*
X157874303Y-62512560D02*
X157820428Y-62458685D01*
X157820428Y-62458685D02*
X157739616Y-62431748D01*
X157739616Y-62431748D02*
X157685741Y-62431748D01*
X157685741Y-62431748D02*
X157604929Y-62458685D01*
X157604929Y-62458685D02*
X157470242Y-62539497D01*
X157470242Y-62539497D02*
X157389430Y-62566435D01*
X157389430Y-62566435D02*
X157335555Y-62566435D01*
X157335555Y-62566435D02*
X157254743Y-62539497D01*
X157254743Y-62539497D02*
X157200868Y-62485622D01*
X157200868Y-62485622D02*
X157173930Y-62404810D01*
X157173930Y-62404810D02*
X157173930Y-62350935D01*
X157173930Y-62350935D02*
X157200868Y-62270123D01*
X157200868Y-62270123D02*
X157335555Y-62135436D01*
X157335555Y-62135436D02*
X157443304Y-62081561D01*
X130096435Y-78668431D02*
X130015623Y-78695368D01*
X130015623Y-78695368D02*
X129934811Y-78776180D01*
X129934811Y-78776180D02*
X129880936Y-78883930D01*
X129880936Y-78883930D02*
X129880936Y-78991680D01*
X129880936Y-78991680D02*
X129907873Y-79072492D01*
X129907873Y-79072492D02*
X129988685Y-79207179D01*
X129988685Y-79207179D02*
X130069498Y-79287991D01*
X130069498Y-79287991D02*
X130204185Y-79368803D01*
X130204185Y-79368803D02*
X130284997Y-79395741D01*
X130284997Y-79395741D02*
X130392746Y-79395741D01*
X130392746Y-79395741D02*
X130500496Y-79341866D01*
X130500496Y-79341866D02*
X130554371Y-79287991D01*
X130554371Y-79287991D02*
X130608246Y-79180241D01*
X130608246Y-79180241D02*
X130608246Y-79126367D01*
X130608246Y-79126367D02*
X130419684Y-78937805D01*
X130419684Y-78937805D02*
X130311934Y-79045554D01*
X130904557Y-78937805D02*
X130338872Y-78372119D01*
X130338872Y-78372119D02*
X131227806Y-78614556D01*
X131227806Y-78614556D02*
X130662120Y-78048871D01*
X131497180Y-78345182D02*
X130931494Y-77779497D01*
X130931494Y-77779497D02*
X131066181Y-77644810D01*
X131066181Y-77644810D02*
X131173931Y-77590935D01*
X131173931Y-77590935D02*
X131281680Y-77590935D01*
X131281680Y-77590935D02*
X131362493Y-77617872D01*
X131362493Y-77617872D02*
X131497180Y-77698685D01*
X131497180Y-77698685D02*
X131577992Y-77779497D01*
X131577992Y-77779497D02*
X131658804Y-77914184D01*
X131658804Y-77914184D02*
X131685741Y-77994996D01*
X131685741Y-77994996D02*
X131685741Y-78102746D01*
X131685741Y-78102746D02*
X131631867Y-78210495D01*
X131631867Y-78210495D02*
X131497180Y-78345182D01*
X130123372Y-76101494D02*
X130042560Y-76128431D01*
X130042560Y-76128431D02*
X129961748Y-76209243D01*
X129961748Y-76209243D02*
X129907873Y-76316993D01*
X129907873Y-76316993D02*
X129907873Y-76424742D01*
X129907873Y-76424742D02*
X129934810Y-76505555D01*
X129934810Y-76505555D02*
X130015623Y-76640242D01*
X130015623Y-76640242D02*
X130096435Y-76721054D01*
X130096435Y-76721054D02*
X130231122Y-76801866D01*
X130231122Y-76801866D02*
X130311934Y-76828803D01*
X130311934Y-76828803D02*
X130419684Y-76828803D01*
X130419684Y-76828803D02*
X130527433Y-76774929D01*
X130527433Y-76774929D02*
X130581308Y-76721054D01*
X130581308Y-76721054D02*
X130635183Y-76613304D01*
X130635183Y-76613304D02*
X130635183Y-76559429D01*
X130635183Y-76559429D02*
X130446621Y-76370868D01*
X130446621Y-76370868D02*
X130338871Y-76478617D01*
X130931494Y-76370868D02*
X130365809Y-75805182D01*
X130365809Y-75805182D02*
X130581308Y-75589683D01*
X130581308Y-75589683D02*
X130662120Y-75562746D01*
X130662120Y-75562746D02*
X130715995Y-75562746D01*
X130715995Y-75562746D02*
X130796807Y-75589683D01*
X130796807Y-75589683D02*
X130877619Y-75670495D01*
X130877619Y-75670495D02*
X130904557Y-75751307D01*
X130904557Y-75751307D02*
X130904557Y-75805182D01*
X130904557Y-75805182D02*
X130877619Y-75885994D01*
X130877619Y-75885994D02*
X130662120Y-76101494D01*
X131200868Y-74970123D02*
X130931494Y-75239497D01*
X130931494Y-75239497D02*
X131173931Y-75535808D01*
X131173931Y-75535808D02*
X131173931Y-75481933D01*
X131173931Y-75481933D02*
X131200868Y-75401121D01*
X131200868Y-75401121D02*
X131335555Y-75266434D01*
X131335555Y-75266434D02*
X131416367Y-75239497D01*
X131416367Y-75239497D02*
X131470242Y-75239497D01*
X131470242Y-75239497D02*
X131551054Y-75266434D01*
X131551054Y-75266434D02*
X131685741Y-75401121D01*
X131685741Y-75401121D02*
X131712679Y-75481933D01*
X131712679Y-75481933D02*
X131712679Y-75535808D01*
X131712679Y-75535808D02*
X131685741Y-75616620D01*
X131685741Y-75616620D02*
X131551054Y-75751307D01*
X131551054Y-75751307D02*
X131470242Y-75778245D01*
X131470242Y-75778245D02*
X131416367Y-75778245D01*
X130023372Y-68481494D02*
X129942560Y-68508431D01*
X129942560Y-68508431D02*
X129861748Y-68589243D01*
X129861748Y-68589243D02*
X129807873Y-68696993D01*
X129807873Y-68696993D02*
X129807873Y-68804742D01*
X129807873Y-68804742D02*
X129834810Y-68885555D01*
X129834810Y-68885555D02*
X129915623Y-69020242D01*
X129915623Y-69020242D02*
X129996435Y-69101054D01*
X129996435Y-69101054D02*
X130131122Y-69181866D01*
X130131122Y-69181866D02*
X130211934Y-69208803D01*
X130211934Y-69208803D02*
X130319684Y-69208803D01*
X130319684Y-69208803D02*
X130427433Y-69154929D01*
X130427433Y-69154929D02*
X130481308Y-69101054D01*
X130481308Y-69101054D02*
X130535183Y-68993304D01*
X130535183Y-68993304D02*
X130535183Y-68939429D01*
X130535183Y-68939429D02*
X130346621Y-68750868D01*
X130346621Y-68750868D02*
X130238871Y-68858617D01*
X130831494Y-68750868D02*
X130265809Y-68185182D01*
X130265809Y-68185182D02*
X130481308Y-67969683D01*
X130481308Y-67969683D02*
X130562120Y-67942746D01*
X130562120Y-67942746D02*
X130615995Y-67942746D01*
X130615995Y-67942746D02*
X130696807Y-67969683D01*
X130696807Y-67969683D02*
X130777619Y-68050495D01*
X130777619Y-68050495D02*
X130804557Y-68131307D01*
X130804557Y-68131307D02*
X130804557Y-68185182D01*
X130804557Y-68185182D02*
X130777619Y-68265994D01*
X130777619Y-68265994D02*
X130562120Y-68481494D01*
X130858432Y-67700309D02*
X130858432Y-67646434D01*
X130858432Y-67646434D02*
X130885369Y-67565622D01*
X130885369Y-67565622D02*
X131020056Y-67430935D01*
X131020056Y-67430935D02*
X131100868Y-67403998D01*
X131100868Y-67403998D02*
X131154743Y-67403998D01*
X131154743Y-67403998D02*
X131235555Y-67430935D01*
X131235555Y-67430935D02*
X131289430Y-67484810D01*
X131289430Y-67484810D02*
X131343305Y-67592559D01*
X131343305Y-67592559D02*
X131343305Y-68239057D01*
X131343305Y-68239057D02*
X131693491Y-67888871D01*
X156404761Y-112490057D02*
X156309523Y-112442438D01*
X156309523Y-112442438D02*
X156214285Y-112347200D01*
X156214285Y-112347200D02*
X156071428Y-112204342D01*
X156071428Y-112204342D02*
X155976190Y-112156723D01*
X155976190Y-112156723D02*
X155880952Y-112156723D01*
X155928571Y-112394819D02*
X155833333Y-112347200D01*
X155833333Y-112347200D02*
X155738095Y-112251961D01*
X155738095Y-112251961D02*
X155690476Y-112061485D01*
X155690476Y-112061485D02*
X155690476Y-111728152D01*
X155690476Y-111728152D02*
X155738095Y-111537676D01*
X155738095Y-111537676D02*
X155833333Y-111442438D01*
X155833333Y-111442438D02*
X155928571Y-111394819D01*
X155928571Y-111394819D02*
X156119047Y-111394819D01*
X156119047Y-111394819D02*
X156214285Y-111442438D01*
X156214285Y-111442438D02*
X156309523Y-111537676D01*
X156309523Y-111537676D02*
X156357142Y-111728152D01*
X156357142Y-111728152D02*
X156357142Y-112061485D01*
X156357142Y-112061485D02*
X156309523Y-112251961D01*
X156309523Y-112251961D02*
X156214285Y-112347200D01*
X156214285Y-112347200D02*
X156119047Y-112394819D01*
X156119047Y-112394819D02*
X155928571Y-112394819D01*
X156738095Y-111490057D02*
X156785714Y-111442438D01*
X156785714Y-111442438D02*
X156880952Y-111394819D01*
X156880952Y-111394819D02*
X157119047Y-111394819D01*
X157119047Y-111394819D02*
X157214285Y-111442438D01*
X157214285Y-111442438D02*
X157261904Y-111490057D01*
X157261904Y-111490057D02*
X157309523Y-111585295D01*
X157309523Y-111585295D02*
X157309523Y-111680533D01*
X157309523Y-111680533D02*
X157261904Y-111823390D01*
X157261904Y-111823390D02*
X156690476Y-112394819D01*
X156690476Y-112394819D02*
X157309523Y-112394819D01*
X131134761Y-112490057D02*
X131039523Y-112442438D01*
X131039523Y-112442438D02*
X130944285Y-112347200D01*
X130944285Y-112347200D02*
X130801428Y-112204342D01*
X130801428Y-112204342D02*
X130706190Y-112156723D01*
X130706190Y-112156723D02*
X130610952Y-112156723D01*
X130658571Y-112394819D02*
X130563333Y-112347200D01*
X130563333Y-112347200D02*
X130468095Y-112251961D01*
X130468095Y-112251961D02*
X130420476Y-112061485D01*
X130420476Y-112061485D02*
X130420476Y-111728152D01*
X130420476Y-111728152D02*
X130468095Y-111537676D01*
X130468095Y-111537676D02*
X130563333Y-111442438D01*
X130563333Y-111442438D02*
X130658571Y-111394819D01*
X130658571Y-111394819D02*
X130849047Y-111394819D01*
X130849047Y-111394819D02*
X130944285Y-111442438D01*
X130944285Y-111442438D02*
X131039523Y-111537676D01*
X131039523Y-111537676D02*
X131087142Y-111728152D01*
X131087142Y-111728152D02*
X131087142Y-112061485D01*
X131087142Y-112061485D02*
X131039523Y-112251961D01*
X131039523Y-112251961D02*
X130944285Y-112347200D01*
X130944285Y-112347200D02*
X130849047Y-112394819D01*
X130849047Y-112394819D02*
X130658571Y-112394819D01*
X132039523Y-112394819D02*
X131468095Y-112394819D01*
X131753809Y-112394819D02*
X131753809Y-111394819D01*
X131753809Y-111394819D02*
X131658571Y-111537676D01*
X131658571Y-111537676D02*
X131563333Y-111632914D01*
X131563333Y-111632914D02*
X131468095Y-111680533D01*
X162954819Y-101238094D02*
X161954819Y-101238094D01*
X161954819Y-101238094D02*
X161954819Y-100999999D01*
X161954819Y-100999999D02*
X162002438Y-100857142D01*
X162002438Y-100857142D02*
X162097676Y-100761904D01*
X162097676Y-100761904D02*
X162192914Y-100714285D01*
X162192914Y-100714285D02*
X162383390Y-100666666D01*
X162383390Y-100666666D02*
X162526247Y-100666666D01*
X162526247Y-100666666D02*
X162716723Y-100714285D01*
X162716723Y-100714285D02*
X162811961Y-100761904D01*
X162811961Y-100761904D02*
X162907200Y-100857142D01*
X162907200Y-100857142D02*
X162954819Y-100999999D01*
X162954819Y-100999999D02*
X162954819Y-101238094D01*
X162954819Y-99714285D02*
X162954819Y-100285713D01*
X162954819Y-99999999D02*
X161954819Y-99999999D01*
X161954819Y-99999999D02*
X162097676Y-100095237D01*
X162097676Y-100095237D02*
X162192914Y-100190475D01*
X162192914Y-100190475D02*
X162240533Y-100285713D01*
X159569104Y-109238094D02*
X159569104Y-108761904D01*
X159854819Y-109333332D02*
X158854819Y-108999999D01*
X158854819Y-108999999D02*
X159854819Y-108666666D01*
%TO.C,G\u002A\u002A\u002A*%
G36*
X150510723Y-118319157D02*
G01*
X150534142Y-118337881D01*
X150556193Y-118361985D01*
X150561507Y-118369370D01*
X150582467Y-118401042D01*
X150583740Y-120940832D01*
X150583839Y-121185573D01*
X150583888Y-121419694D01*
X150583888Y-121642917D01*
X150583837Y-121854964D01*
X150583739Y-122055559D01*
X150583592Y-122244425D01*
X150583397Y-122421283D01*
X150583157Y-122585858D01*
X150582870Y-122737871D01*
X150582538Y-122877046D01*
X150582161Y-123003105D01*
X150581740Y-123115772D01*
X150581276Y-123214768D01*
X150580769Y-123299817D01*
X150580221Y-123370642D01*
X150579631Y-123426964D01*
X150579000Y-123468508D01*
X150578329Y-123494996D01*
X150577619Y-123506151D01*
X150577578Y-123506315D01*
X150563473Y-123534029D01*
X150539444Y-123562089D01*
X150510365Y-123585821D01*
X150481110Y-123600555D01*
X150478458Y-123601328D01*
X150470577Y-123601843D01*
X150450767Y-123602337D01*
X150418911Y-123602810D01*
X150374892Y-123603262D01*
X150318596Y-123603692D01*
X150249905Y-123604102D01*
X150168705Y-123604490D01*
X150074877Y-123604858D01*
X149968307Y-123605205D01*
X149848878Y-123605531D01*
X149716474Y-123605837D01*
X149570979Y-123606122D01*
X149412276Y-123606387D01*
X149240250Y-123606632D01*
X149054785Y-123606856D01*
X148855764Y-123607061D01*
X148643070Y-123607246D01*
X148416589Y-123607411D01*
X148176204Y-123607556D01*
X148008090Y-123607639D01*
X147921798Y-123607682D01*
X147653255Y-123607788D01*
X147370460Y-123607874D01*
X147073296Y-123607942D01*
X146761647Y-123607990D01*
X146435397Y-123608019D01*
X146094429Y-123608029D01*
X145738628Y-123608020D01*
X145718886Y-123608019D01*
X145367878Y-123607993D01*
X144982062Y-123607947D01*
X144581063Y-123607882D01*
X144164767Y-123607798D01*
X143733056Y-123607697D01*
X143421870Y-123607614D01*
X143366281Y-123607599D01*
X141132667Y-123606978D01*
X138835650Y-123606339D01*
X136546447Y-123605702D01*
X136284712Y-123605629D01*
X136254888Y-123587088D01*
X136231469Y-123568363D01*
X136209418Y-123544259D01*
X136204103Y-123536874D01*
X136183144Y-123505201D01*
X136183144Y-120953122D01*
X136183144Y-118663919D01*
X136546447Y-118663919D01*
X136546447Y-120953122D01*
X136546447Y-123242325D01*
X137648077Y-123242325D01*
X138749708Y-123242325D01*
X138749708Y-120953122D01*
X138749708Y-118663919D01*
X138835650Y-118663919D01*
X138835650Y-120949216D01*
X138835650Y-123234512D01*
X139941187Y-123234512D01*
X141046724Y-123234512D01*
X141046724Y-120949216D01*
X141046724Y-118663919D01*
X141132667Y-118663919D01*
X141132667Y-120949216D01*
X141132667Y-123234512D01*
X142234297Y-123234512D01*
X143335927Y-123234512D01*
X143335927Y-120949216D01*
X143335927Y-118663919D01*
X143421870Y-118663919D01*
X143421870Y-120949216D01*
X143421870Y-123234512D01*
X144523500Y-123234512D01*
X145625131Y-123234512D01*
X145625131Y-120949216D01*
X145625131Y-118663919D01*
X144523500Y-118663919D01*
X143421870Y-118663919D01*
X143335927Y-118663919D01*
X142234297Y-118663919D01*
X141132667Y-118663919D01*
X141046724Y-118663919D01*
X139941187Y-118663919D01*
X138835650Y-118663919D01*
X138749708Y-118663919D01*
X137648077Y-118663919D01*
X136546447Y-118663919D01*
X136183144Y-118663919D01*
X136183144Y-118656106D01*
X145718886Y-118656106D01*
X145718886Y-120945309D01*
X145718886Y-123234512D01*
X146820517Y-123234512D01*
X147922147Y-123234512D01*
X147922147Y-120945309D01*
X147922147Y-118656106D01*
X148008090Y-118656106D01*
X148008090Y-120945309D01*
X148008090Y-123234512D01*
X149109720Y-123234512D01*
X150211350Y-123234512D01*
X150211350Y-120945309D01*
X150211350Y-118656106D01*
X149109720Y-118656106D01*
X148008090Y-118656106D01*
X147922147Y-118656106D01*
X146820517Y-118656106D01*
X145718886Y-118656106D01*
X136183144Y-118656106D01*
X136183144Y-118401043D01*
X136204103Y-118369370D01*
X136223934Y-118345331D01*
X136247848Y-118323986D01*
X136254888Y-118319157D01*
X136284712Y-118300615D01*
X143382805Y-118300615D01*
X150480898Y-118300615D01*
X150510723Y-118319157D01*
G37*
G36*
X149773823Y-122093817D02*
G01*
X149773823Y-122171947D01*
X149855860Y-122171947D01*
X149937896Y-122171947D01*
X149937896Y-122199292D01*
X149937896Y-122226638D01*
X149855860Y-122226638D01*
X149773823Y-122226638D01*
X149773823Y-122300861D01*
X149773823Y-122375085D01*
X149746478Y-122375085D01*
X149719132Y-122375085D01*
X149719132Y-122300861D01*
X149719132Y-122226638D01*
X149637096Y-122226638D01*
X149555060Y-122226638D01*
X149555060Y-122199566D01*
X149555060Y-122172494D01*
X149635143Y-122170267D01*
X149715226Y-122168041D01*
X149717462Y-122091864D01*
X149719698Y-122015687D01*
X149746761Y-122015687D01*
X149773823Y-122015687D01*
X149773823Y-122093817D01*
G37*
G36*
X149851953Y-119699139D02*
G01*
X149851953Y-119820240D01*
X149816795Y-119820240D01*
X149781636Y-119820240D01*
X149781636Y-119699139D01*
X149781636Y-119578037D01*
X149816795Y-119578037D01*
X149851953Y-119578037D01*
X149851953Y-119699139D01*
G37*
G36*
X148666218Y-121994094D02*
G01*
X148725834Y-122002811D01*
X148761970Y-122012052D01*
X148808197Y-122033014D01*
X148847954Y-122063370D01*
X148878334Y-122100237D01*
X148896433Y-122140733D01*
X148897908Y-122146939D01*
X148904050Y-122182102D01*
X148905209Y-122209594D01*
X148901482Y-122236525D01*
X148899277Y-122246170D01*
X148881605Y-122292694D01*
X148852786Y-122330540D01*
X148811722Y-122360721D01*
X148757318Y-122384249D01*
X148745556Y-122387998D01*
X148707108Y-122396033D01*
X148658381Y-122400913D01*
X148604398Y-122402636D01*
X148601876Y-122402569D01*
X148550185Y-122401203D01*
X148500766Y-122396613D01*
X148461164Y-122388867D01*
X148458196Y-122387998D01*
X148400654Y-122365502D01*
X148357027Y-122336749D01*
X148326537Y-122300801D01*
X148308406Y-122256718D01*
X148301855Y-122203563D01*
X148301810Y-122199292D01*
X148302088Y-122196499D01*
X148363580Y-122196499D01*
X148364018Y-122225671D01*
X148366548Y-122244376D01*
X148373002Y-122257771D01*
X148385207Y-122271013D01*
X148392362Y-122277654D01*
X148423565Y-122300213D01*
X148461894Y-122316241D01*
X148509604Y-122326317D01*
X148568949Y-122331021D01*
X148601876Y-122331542D01*
X148658879Y-122330064D01*
X148703435Y-122325436D01*
X148736131Y-122318087D01*
X148774850Y-122302356D01*
X148807460Y-122281506D01*
X148830168Y-122258230D01*
X148836509Y-122246808D01*
X148843045Y-122216195D01*
X148842312Y-122180687D01*
X148834848Y-122148032D01*
X148828796Y-122135260D01*
X148805477Y-122107727D01*
X148772686Y-122087156D01*
X148729237Y-122073211D01*
X148673945Y-122065557D01*
X148605625Y-122063860D01*
X148578748Y-122064598D01*
X148519390Y-122068325D01*
X148472990Y-122074831D01*
X148437021Y-122084819D01*
X148408952Y-122098992D01*
X148386257Y-122118052D01*
X148386192Y-122118120D01*
X148374100Y-122132258D01*
X148367291Y-122146312D01*
X148364280Y-122165432D01*
X148363581Y-122194767D01*
X148363580Y-122196499D01*
X148302088Y-122196499D01*
X148307376Y-122143330D01*
X148324971Y-122096898D01*
X148355223Y-122059106D01*
X148398757Y-122029065D01*
X148432246Y-122014112D01*
X148480589Y-122000933D01*
X148538857Y-121993185D01*
X148602313Y-121990895D01*
X148666218Y-121994094D01*
G37*
G36*
X148785806Y-119514611D02*
G01*
X148826161Y-119533311D01*
X148859986Y-119561340D01*
X148883693Y-119596132D01*
X148890120Y-119613372D01*
X148898229Y-119655358D01*
X148902373Y-119705048D01*
X148902182Y-119754936D01*
X148898798Y-119789083D01*
X148891985Y-119826987D01*
X148884782Y-119851919D01*
X148875562Y-119866483D01*
X148862693Y-119873286D01*
X148845091Y-119874931D01*
X148814465Y-119874931D01*
X148829686Y-119826100D01*
X148839574Y-119784053D01*
X148844838Y-119739060D01*
X148845389Y-119695702D01*
X148841139Y-119658561D01*
X148833392Y-119634725D01*
X148810043Y-119604962D01*
X148778659Y-119586634D01*
X148742889Y-119581095D01*
X148709043Y-119588547D01*
X148697113Y-119594788D01*
X148686320Y-119604228D01*
X148674939Y-119619322D01*
X148661245Y-119642531D01*
X148643514Y-119676310D01*
X148633356Y-119696418D01*
X148604838Y-119750615D01*
X148579558Y-119791710D01*
X148555638Y-119821365D01*
X148531198Y-119841242D01*
X148504361Y-119853004D01*
X148473247Y-119858313D01*
X148449523Y-119859090D01*
X148403400Y-119852178D01*
X148365106Y-119832686D01*
X148335203Y-119801868D01*
X148314254Y-119760977D01*
X148302821Y-119711269D01*
X148301466Y-119653995D01*
X148310751Y-119590411D01*
X148317324Y-119564365D01*
X148324765Y-119541728D01*
X148331722Y-119526831D01*
X148335287Y-119523347D01*
X148345450Y-119525573D01*
X148363382Y-119530811D01*
X148382182Y-119536900D01*
X148394949Y-119541677D01*
X148396600Y-119542551D01*
X148395046Y-119549868D01*
X148389185Y-119567440D01*
X148382927Y-119584447D01*
X148370359Y-119630298D01*
X148366955Y-119674774D01*
X148372198Y-119715017D01*
X148385575Y-119748170D01*
X148406569Y-119771372D01*
X148417739Y-119777550D01*
X148447507Y-119787539D01*
X148472560Y-119789350D01*
X148494636Y-119781739D01*
X148515477Y-119763465D01*
X148536820Y-119733285D01*
X148560406Y-119689958D01*
X148571201Y-119667954D01*
X148590315Y-119630042D01*
X148609470Y-119595292D01*
X148626623Y-119567209D01*
X148639731Y-119549300D01*
X148641336Y-119547592D01*
X148673896Y-119524690D01*
X148714087Y-119510789D01*
X148742510Y-119507808D01*
X148785806Y-119514611D01*
G37*
G36*
X148535147Y-122505503D02*
G01*
X148579421Y-122521203D01*
X148615600Y-122548279D01*
X148619041Y-122551845D01*
X148639743Y-122578934D01*
X148654395Y-122611025D01*
X148663993Y-122651328D01*
X148669535Y-122703050D01*
X148670341Y-122716902D01*
X148674437Y-122796986D01*
X148786603Y-122796986D01*
X148898770Y-122796986D01*
X148898770Y-122832144D01*
X148898770Y-122867302D01*
X148601876Y-122867302D01*
X148522283Y-122867302D01*
X148304983Y-122867302D01*
X148304983Y-122774981D01*
X148306020Y-122739294D01*
X148360877Y-122739294D01*
X148361139Y-122759083D01*
X148363580Y-122793079D01*
X148480432Y-122795250D01*
X148522283Y-122795737D01*
X148559062Y-122795619D01*
X148587709Y-122794949D01*
X148605162Y-122793777D01*
X148608531Y-122793106D01*
X148613909Y-122783437D01*
X148616274Y-122762382D01*
X148615933Y-122733822D01*
X148613191Y-122701642D01*
X148608355Y-122669724D01*
X148601730Y-122641950D01*
X148595294Y-122625217D01*
X148574495Y-122597234D01*
X148545187Y-122579840D01*
X148505643Y-122572276D01*
X148474804Y-122572210D01*
X148444915Y-122574510D01*
X148425247Y-122578984D01*
X148410398Y-122587487D01*
X148398347Y-122598447D01*
X148383667Y-122616483D01*
X148374137Y-122638258D01*
X148367381Y-122669413D01*
X148366718Y-122673571D01*
X148362789Y-122706670D01*
X148360877Y-122739294D01*
X148306020Y-122739294D01*
X148307169Y-122699751D01*
X148314208Y-122638467D01*
X148326817Y-122590007D01*
X148345716Y-122553249D01*
X148371624Y-122527069D01*
X148405259Y-122510345D01*
X148447340Y-122501954D01*
X148480775Y-122500435D01*
X148535147Y-122505503D01*
G37*
G36*
X148330375Y-121473381D02*
G01*
X148341996Y-121474735D01*
X148366636Y-121477396D01*
X148402145Y-121481144D01*
X148446371Y-121485760D01*
X148497166Y-121491023D01*
X148552379Y-121496714D01*
X148609860Y-121502611D01*
X148667458Y-121508497D01*
X148723024Y-121514149D01*
X148774408Y-121519348D01*
X148819458Y-121523875D01*
X148856026Y-121527509D01*
X148881961Y-121530030D01*
X148895112Y-121531219D01*
X148896216Y-121531283D01*
X148897694Y-121538302D01*
X148898616Y-121556190D01*
X148898770Y-121569061D01*
X148898770Y-121606840D01*
X148779622Y-121635654D01*
X148732154Y-121646978D01*
X148683975Y-121658206D01*
X148639869Y-121668238D01*
X148604623Y-121675977D01*
X148596017Y-121677786D01*
X148564026Y-121685303D01*
X148541945Y-121692306D01*
X148531150Y-121698087D01*
X148533020Y-121701938D01*
X148546595Y-121703168D01*
X148557489Y-121704833D01*
X148580810Y-121709416D01*
X148613765Y-121716296D01*
X148653561Y-121724853D01*
X148697404Y-121734469D01*
X148742501Y-121744523D01*
X148786060Y-121754395D01*
X148825286Y-121763466D01*
X148857387Y-121771116D01*
X148879570Y-121776725D01*
X148885097Y-121778275D01*
X148893909Y-121784910D01*
X148898018Y-121800429D01*
X148898770Y-121819462D01*
X148898770Y-121856574D01*
X148631175Y-121885880D01*
X148566867Y-121892956D01*
X148506394Y-121899674D01*
X148451795Y-121905801D01*
X148405110Y-121911107D01*
X148368379Y-121915359D01*
X148343641Y-121918328D01*
X148334282Y-121919558D01*
X148304983Y-121923929D01*
X148304983Y-121892032D01*
X148306020Y-121871481D01*
X148311510Y-121861464D01*
X148325024Y-121856911D01*
X148330375Y-121855984D01*
X148350744Y-121853318D01*
X148383596Y-121849785D01*
X148425985Y-121845638D01*
X148474960Y-121841126D01*
X148527574Y-121836500D01*
X148580878Y-121832011D01*
X148631923Y-121827912D01*
X148677761Y-121824451D01*
X148715442Y-121821881D01*
X148742019Y-121820452D01*
X148750324Y-121820243D01*
X148782430Y-121818914D01*
X148799868Y-121815497D01*
X148802399Y-121810522D01*
X148789788Y-121804518D01*
X148761798Y-121798015D01*
X148760391Y-121797759D01*
X148733964Y-121792577D01*
X148696479Y-121784685D01*
X148652085Y-121774984D01*
X148604928Y-121764371D01*
X148582344Y-121759174D01*
X148457336Y-121730177D01*
X148457336Y-121696039D01*
X148457336Y-121661901D01*
X148597970Y-121628109D01*
X148645221Y-121616914D01*
X148689540Y-121606703D01*
X148727762Y-121598184D01*
X148756723Y-121592064D01*
X148771905Y-121589244D01*
X148796984Y-121584419D01*
X148806519Y-121579984D01*
X148800589Y-121575970D01*
X148779271Y-121572410D01*
X148742643Y-121569337D01*
X148720756Y-121568100D01*
X148683249Y-121565922D01*
X148634545Y-121562665D01*
X148579010Y-121558645D01*
X148521013Y-121554176D01*
X148467102Y-121549761D01*
X148304983Y-121536028D01*
X148304983Y-121502895D01*
X148305582Y-121482200D01*
X148309614Y-121473233D01*
X148320432Y-121472097D01*
X148330375Y-121473381D01*
G37*
G36*
X148375300Y-121160166D02*
G01*
X148375300Y-121296893D01*
X148465149Y-121296893D01*
X148554998Y-121296893D01*
X148554998Y-121167979D01*
X148554998Y-121039065D01*
X148590157Y-121039065D01*
X148625315Y-121039065D01*
X148625315Y-121167979D01*
X148625315Y-121296893D01*
X148726884Y-121296893D01*
X148828453Y-121296893D01*
X148828453Y-121160166D01*
X148828453Y-121023439D01*
X148863611Y-121023439D01*
X148898770Y-121023439D01*
X148898770Y-121195324D01*
X148898770Y-121367210D01*
X148601876Y-121367210D01*
X148304983Y-121367210D01*
X148304983Y-121195324D01*
X148304983Y-121023439D01*
X148340141Y-121023439D01*
X148375300Y-121023439D01*
X148375300Y-121160166D01*
G37*
G36*
X148896219Y-120484045D02*
G01*
X148898344Y-120500450D01*
X148898770Y-120514836D01*
X148898770Y-120554063D01*
X148803060Y-120609924D01*
X148753512Y-120638784D01*
X148715765Y-120660974D01*
X148688252Y-120677915D01*
X148669407Y-120691027D01*
X148657663Y-120701732D01*
X148651452Y-120711449D01*
X148649208Y-120721600D01*
X148649365Y-120733604D01*
X148650328Y-120748393D01*
X148652661Y-120792956D01*
X148775715Y-120795108D01*
X148898770Y-120797259D01*
X148898770Y-120832219D01*
X148898770Y-120867179D01*
X148600783Y-120867179D01*
X148594063Y-120867179D01*
X148302797Y-120867179D01*
X148305467Y-120792956D01*
X148363580Y-120792956D01*
X148478822Y-120795118D01*
X148594063Y-120797280D01*
X148594063Y-120737702D01*
X148591143Y-120688688D01*
X148582420Y-120653786D01*
X148580953Y-120650495D01*
X148560651Y-120624625D01*
X148530383Y-120606331D01*
X148494326Y-120596549D01*
X148456659Y-120596216D01*
X148421559Y-120606266D01*
X148410734Y-120612359D01*
X148389537Y-120632078D01*
X148375504Y-120660022D01*
X148367689Y-120698693D01*
X148365451Y-120732178D01*
X148363580Y-120792956D01*
X148305467Y-120792956D01*
X148306689Y-120758966D01*
X148308653Y-120713330D01*
X148311118Y-120679704D01*
X148314647Y-120654473D01*
X148319803Y-120634021D01*
X148327149Y-120614733D01*
X148330211Y-120607874D01*
X148350350Y-120572554D01*
X148374702Y-120548593D01*
X148406257Y-120534303D01*
X148448001Y-120527999D01*
X148472962Y-120527315D01*
X148521187Y-120530665D01*
X148558250Y-120541784D01*
X148587344Y-120562274D01*
X148611666Y-120593737D01*
X148614353Y-120598218D01*
X148627122Y-120618279D01*
X148636455Y-120626811D01*
X148645768Y-120626328D01*
X148649891Y-120624368D01*
X148657034Y-120620370D01*
X148669332Y-120613209D01*
X148688025Y-120602144D01*
X148714358Y-120586433D01*
X148749572Y-120565332D01*
X148794910Y-120538099D01*
X148851614Y-120503991D01*
X148892910Y-120479136D01*
X148896219Y-120484045D01*
G37*
G36*
X148330375Y-118973227D02*
G01*
X148341996Y-118974581D01*
X148366636Y-118977242D01*
X148402145Y-118980990D01*
X148446371Y-118985606D01*
X148497166Y-118990869D01*
X148552379Y-118996560D01*
X148609860Y-119002458D01*
X148667458Y-119008343D01*
X148723024Y-119013995D01*
X148774408Y-119019195D01*
X148819458Y-119023721D01*
X148856026Y-119027355D01*
X148881961Y-119029877D01*
X148895112Y-119031065D01*
X148896216Y-119031129D01*
X148897694Y-119038148D01*
X148898616Y-119056036D01*
X148898770Y-119068908D01*
X148898770Y-119106686D01*
X148779622Y-119135500D01*
X148732154Y-119146824D01*
X148683975Y-119158052D01*
X148639869Y-119168084D01*
X148604623Y-119175823D01*
X148596017Y-119177632D01*
X148564026Y-119185149D01*
X148541945Y-119192153D01*
X148531150Y-119197934D01*
X148533020Y-119201784D01*
X148546595Y-119203014D01*
X148557489Y-119204680D01*
X148580810Y-119209262D01*
X148613765Y-119216142D01*
X148653561Y-119224700D01*
X148697404Y-119234315D01*
X148742501Y-119244369D01*
X148786060Y-119254241D01*
X148825286Y-119263312D01*
X148857387Y-119270962D01*
X148879570Y-119276571D01*
X148885097Y-119278121D01*
X148893909Y-119284756D01*
X148898018Y-119300275D01*
X148898770Y-119319308D01*
X148898770Y-119356420D01*
X148631175Y-119385726D01*
X148566867Y-119392803D01*
X148506394Y-119399520D01*
X148451795Y-119405647D01*
X148405110Y-119410953D01*
X148368379Y-119415206D01*
X148343641Y-119418174D01*
X148334282Y-119419404D01*
X148304983Y-119423775D01*
X148304983Y-119391879D01*
X148306020Y-119371328D01*
X148311510Y-119361310D01*
X148325024Y-119356757D01*
X148330375Y-119355830D01*
X148350744Y-119353164D01*
X148383596Y-119349632D01*
X148425985Y-119345484D01*
X148474960Y-119340972D01*
X148527574Y-119336346D01*
X148580878Y-119331858D01*
X148631923Y-119327758D01*
X148677761Y-119324297D01*
X148715442Y-119321727D01*
X148742019Y-119320298D01*
X148750324Y-119320089D01*
X148782430Y-119318760D01*
X148799868Y-119315343D01*
X148802399Y-119310368D01*
X148789788Y-119304365D01*
X148761798Y-119297861D01*
X148760391Y-119297605D01*
X148733964Y-119292423D01*
X148696479Y-119284531D01*
X148652085Y-119274830D01*
X148604928Y-119264217D01*
X148582344Y-119259020D01*
X148457336Y-119230023D01*
X148457336Y-119195885D01*
X148457336Y-119161747D01*
X148597970Y-119127955D01*
X148645221Y-119116760D01*
X148689540Y-119106549D01*
X148727762Y-119098030D01*
X148756723Y-119091910D01*
X148771905Y-119089090D01*
X148796984Y-119084265D01*
X148806519Y-119079830D01*
X148800589Y-119075816D01*
X148779271Y-119072257D01*
X148742643Y-119069183D01*
X148720756Y-119067946D01*
X148683249Y-119065768D01*
X148634545Y-119062511D01*
X148579010Y-119058491D01*
X148521013Y-119054022D01*
X148467102Y-119049607D01*
X148304983Y-119035874D01*
X148304983Y-119002741D01*
X148305582Y-118982046D01*
X148309614Y-118973079D01*
X148320432Y-118971943D01*
X148330375Y-118973227D01*
G37*
G36*
X146480976Y-121772563D02*
G01*
X146521331Y-121791262D01*
X146555157Y-121819291D01*
X146578863Y-121854084D01*
X146585291Y-121871323D01*
X146593400Y-121913310D01*
X146597544Y-121962999D01*
X146597353Y-122012888D01*
X146593968Y-122047035D01*
X146587155Y-122084938D01*
X146579953Y-122109870D01*
X146570732Y-122124435D01*
X146557863Y-122131237D01*
X146540262Y-122132882D01*
X146509636Y-122132882D01*
X146524856Y-122084051D01*
X146534744Y-122042004D01*
X146540009Y-121997011D01*
X146540560Y-121953653D01*
X146536310Y-121916512D01*
X146528563Y-121892677D01*
X146505214Y-121862913D01*
X146473830Y-121844585D01*
X146438060Y-121839047D01*
X146404213Y-121846498D01*
X146392284Y-121852740D01*
X146381491Y-121862179D01*
X146370110Y-121877274D01*
X146356416Y-121900482D01*
X146338685Y-121934262D01*
X146328526Y-121954370D01*
X146300009Y-122008567D01*
X146274729Y-122049662D01*
X146250808Y-122079316D01*
X146226369Y-122099194D01*
X146199532Y-122110956D01*
X146168418Y-122116264D01*
X146144694Y-122117041D01*
X146098571Y-122110129D01*
X146060277Y-122090637D01*
X146030374Y-122059819D01*
X146009425Y-122018929D01*
X145997991Y-121969220D01*
X145996636Y-121911947D01*
X146005922Y-121848362D01*
X146012495Y-121822316D01*
X146019935Y-121799679D01*
X146026893Y-121784782D01*
X146030458Y-121781298D01*
X146040621Y-121783524D01*
X146058553Y-121788763D01*
X146077353Y-121794851D01*
X146090120Y-121799628D01*
X146091771Y-121800503D01*
X146090216Y-121807820D01*
X146084355Y-121825392D01*
X146078098Y-121842398D01*
X146065530Y-121888249D01*
X146062125Y-121932726D01*
X146067369Y-121972969D01*
X146080745Y-122006121D01*
X146101739Y-122029324D01*
X146112910Y-122035501D01*
X146142678Y-122045491D01*
X146167730Y-122047301D01*
X146189807Y-122039691D01*
X146210648Y-122021416D01*
X146231991Y-121991237D01*
X146255577Y-121947909D01*
X146266371Y-121925905D01*
X146285486Y-121887994D01*
X146304640Y-121853244D01*
X146321793Y-121825161D01*
X146334902Y-121807251D01*
X146336507Y-121805544D01*
X146369066Y-121782641D01*
X146409258Y-121768741D01*
X146437681Y-121765759D01*
X146480976Y-121772563D01*
G37*
G36*
X146591390Y-122741996D02*
G01*
X146593514Y-122758402D01*
X146593940Y-122772787D01*
X146593940Y-122812015D01*
X146498231Y-122867876D01*
X146448682Y-122896735D01*
X146410935Y-122918925D01*
X146383423Y-122935866D01*
X146364578Y-122948979D01*
X146352833Y-122959683D01*
X146346623Y-122969400D01*
X146344379Y-122979551D01*
X146344535Y-122991556D01*
X146345499Y-123006344D01*
X146347831Y-123050907D01*
X146470886Y-123053059D01*
X146593940Y-123055211D01*
X146593940Y-123090171D01*
X146593940Y-123125131D01*
X146295954Y-123125131D01*
X146289234Y-123125131D01*
X145997968Y-123125131D01*
X146000638Y-123050907D01*
X146058751Y-123050907D01*
X146173993Y-123053069D01*
X146289234Y-123055232D01*
X146289234Y-122995653D01*
X146286314Y-122946640D01*
X146277590Y-122911737D01*
X146276124Y-122908447D01*
X146255822Y-122882577D01*
X146225554Y-122864283D01*
X146189497Y-122854501D01*
X146151829Y-122854167D01*
X146116730Y-122864218D01*
X146105904Y-122870310D01*
X146084707Y-122890030D01*
X146070675Y-122917973D01*
X146062860Y-122956644D01*
X146060621Y-122990129D01*
X146058751Y-123050907D01*
X146000638Y-123050907D01*
X146001860Y-123016917D01*
X146003823Y-122971281D01*
X146006288Y-122937655D01*
X146009817Y-122912424D01*
X146014974Y-122891972D01*
X146022320Y-122872685D01*
X146025382Y-122865825D01*
X146045520Y-122830506D01*
X146069873Y-122806544D01*
X146101428Y-122792254D01*
X146143172Y-122785950D01*
X146168133Y-122785266D01*
X146216358Y-122788616D01*
X146253420Y-122799735D01*
X146282515Y-122820225D01*
X146306837Y-122851688D01*
X146309523Y-122856170D01*
X146322293Y-122876231D01*
X146331626Y-122884763D01*
X146340939Y-122884279D01*
X146345062Y-122882320D01*
X146352205Y-122878321D01*
X146364502Y-122871160D01*
X146383196Y-122860096D01*
X146409529Y-122844384D01*
X146444743Y-122823283D01*
X146490081Y-122796050D01*
X146546785Y-122761943D01*
X146588080Y-122737087D01*
X146591390Y-122741996D01*
G37*
G36*
X146070471Y-122418056D02*
G01*
X146070471Y-122554783D01*
X146160320Y-122554783D01*
X146250169Y-122554783D01*
X146250169Y-122425869D01*
X146250169Y-122296955D01*
X146285327Y-122296955D01*
X146320486Y-122296955D01*
X146320486Y-122425869D01*
X146320486Y-122554783D01*
X146422055Y-122554783D01*
X146523623Y-122554783D01*
X146523623Y-122418056D01*
X146523623Y-122281329D01*
X146558782Y-122281329D01*
X146593940Y-122281329D01*
X146593940Y-122453214D01*
X146593940Y-122625100D01*
X146297047Y-122625100D01*
X146000154Y-122625100D01*
X146000154Y-122453214D01*
X146000154Y-122281329D01*
X146035312Y-122281329D01*
X146070471Y-122281329D01*
X146070471Y-122418056D01*
G37*
G36*
X146070471Y-121417994D02*
G01*
X146070471Y-121554722D01*
X146160320Y-121554722D01*
X146250169Y-121554722D01*
X146250169Y-121425807D01*
X146250169Y-121296893D01*
X146285327Y-121296893D01*
X146320486Y-121296893D01*
X146320486Y-121425807D01*
X146320486Y-121554722D01*
X146422055Y-121554722D01*
X146523623Y-121554722D01*
X146523623Y-121417994D01*
X146523623Y-121281267D01*
X146558782Y-121281267D01*
X146593940Y-121281267D01*
X146593940Y-121453153D01*
X146593940Y-121625038D01*
X146297047Y-121625038D01*
X146000154Y-121625038D01*
X146000154Y-121453153D01*
X146000154Y-121281267D01*
X146035312Y-121281267D01*
X146070471Y-121281267D01*
X146070471Y-121417994D01*
G37*
G36*
X146070471Y-120832021D02*
G01*
X146070471Y-120921870D01*
X146332205Y-120921870D01*
X146593940Y-120921870D01*
X146593940Y-120957029D01*
X146593940Y-120992187D01*
X146332205Y-120992187D01*
X146070471Y-120992187D01*
X146070471Y-121078130D01*
X146070471Y-121164073D01*
X146035312Y-121164073D01*
X146000154Y-121164073D01*
X146000154Y-120953122D01*
X146000154Y-120742172D01*
X146035312Y-120742172D01*
X146070471Y-120742172D01*
X146070471Y-120832021D01*
G37*
G36*
X146470442Y-119761055D02*
G01*
X146492718Y-119768155D01*
X146502925Y-119772798D01*
X146532373Y-119790919D01*
X146555232Y-119814584D01*
X146572148Y-119845613D01*
X146583770Y-119885825D01*
X146590745Y-119937040D01*
X146593722Y-120001075D01*
X146593940Y-120028350D01*
X146593940Y-120124946D01*
X146302564Y-120124946D01*
X146297047Y-120124946D01*
X146052488Y-120124946D01*
X146000154Y-120124946D01*
X146000279Y-120054629D01*
X146052488Y-120054629D01*
X146152040Y-120054629D01*
X146251591Y-120054629D01*
X146302564Y-120054629D01*
X146422087Y-120054629D01*
X146541610Y-120054629D01*
X146536867Y-119976776D01*
X146533426Y-119938116D01*
X146528442Y-119904947D01*
X146522616Y-119881550D01*
X146520405Y-119876261D01*
X146500047Y-119852702D01*
X146469625Y-119836573D01*
X146433293Y-119828824D01*
X146395204Y-119830403D01*
X146363289Y-119840376D01*
X146341848Y-119855233D01*
X146326222Y-119877876D01*
X146315534Y-119910496D01*
X146308908Y-119955280D01*
X146306955Y-119981032D01*
X146302564Y-120054629D01*
X146251591Y-120054629D01*
X146248927Y-119971937D01*
X146247586Y-119935101D01*
X146245771Y-119910339D01*
X146242536Y-119894108D01*
X146236933Y-119882865D01*
X146228015Y-119873064D01*
X146220747Y-119866462D01*
X146192085Y-119849534D01*
X146158978Y-119843069D01*
X146125638Y-119846484D01*
X146096280Y-119859200D01*
X146075119Y-119880633D01*
X146071719Y-119887031D01*
X146066934Y-119904132D01*
X146062282Y-119931995D01*
X146058503Y-119965769D01*
X146057300Y-119981372D01*
X146052488Y-120054629D01*
X146000279Y-120054629D01*
X146000317Y-120033144D01*
X146002607Y-119959343D01*
X146009586Y-119899558D01*
X146021849Y-119852722D01*
X146039992Y-119817772D01*
X146064609Y-119793642D01*
X146096297Y-119779267D01*
X146135650Y-119773582D01*
X146145492Y-119773391D01*
X146190407Y-119778537D01*
X146225188Y-119794780D01*
X146251724Y-119823234D01*
X146262525Y-119842463D01*
X146278788Y-119876267D01*
X146291963Y-119841769D01*
X146305680Y-119814783D01*
X146323630Y-119790028D01*
X146328812Y-119784590D01*
X146343163Y-119772507D01*
X146358180Y-119765254D01*
X146378835Y-119761272D01*
X146410101Y-119758999D01*
X146410416Y-119758983D01*
X146445061Y-119758304D01*
X146470442Y-119761055D01*
G37*
G36*
X146070471Y-119331929D02*
G01*
X146070471Y-119421778D01*
X146332205Y-119421778D01*
X146593940Y-119421778D01*
X146593940Y-119456936D01*
X146593940Y-119492095D01*
X146332205Y-119492095D01*
X146070471Y-119492095D01*
X146070471Y-119578037D01*
X146070471Y-119663980D01*
X146035312Y-119663980D01*
X146000154Y-119663980D01*
X146000154Y-119453030D01*
X146000154Y-119242079D01*
X146035312Y-119242079D01*
X146070471Y-119242079D01*
X146070471Y-119331929D01*
G37*
G36*
X146592377Y-118809665D02*
G01*
X146590034Y-118853843D01*
X146343925Y-118961540D01*
X146285612Y-118987108D01*
X146231632Y-119010874D01*
X146183713Y-119032068D01*
X146143584Y-119049923D01*
X146112973Y-119063670D01*
X146093611Y-119072539D01*
X146087432Y-119075575D01*
X146092404Y-119077009D01*
X146111279Y-119078176D01*
X146142333Y-119079051D01*
X146183845Y-119079608D01*
X146234092Y-119079822D01*
X146291352Y-119079665D01*
X146335494Y-119079313D01*
X146593940Y-119076713D01*
X146593940Y-119108612D01*
X146593940Y-119140511D01*
X146297047Y-119140511D01*
X146000154Y-119140511D01*
X146000154Y-119094693D01*
X146000154Y-119048875D01*
X146240403Y-118944903D01*
X146297808Y-118919993D01*
X146350638Y-118896941D01*
X146397180Y-118876503D01*
X146435719Y-118859439D01*
X146464543Y-118846505D01*
X146481936Y-118838459D01*
X146486400Y-118836135D01*
X146480340Y-118835061D01*
X146460462Y-118834267D01*
X146428573Y-118833765D01*
X146386479Y-118833568D01*
X146335985Y-118833688D01*
X146278899Y-118834136D01*
X146246151Y-118834517D01*
X146000154Y-118837694D01*
X146000154Y-118801591D01*
X146000154Y-118765488D01*
X146297437Y-118765488D01*
X146594720Y-118765488D01*
X146592377Y-118809665D01*
G37*
G36*
X145187604Y-122093817D02*
G01*
X145187604Y-122171947D01*
X145269640Y-122171947D01*
X145351676Y-122171947D01*
X145351676Y-122199292D01*
X145351676Y-122226638D01*
X145269640Y-122226638D01*
X145187604Y-122226638D01*
X145187604Y-122300861D01*
X145187604Y-122375085D01*
X145160258Y-122375085D01*
X145132913Y-122375085D01*
X145132913Y-122300861D01*
X145132913Y-122226638D01*
X145050877Y-122226638D01*
X144968840Y-122226638D01*
X144968840Y-122199566D01*
X144968840Y-122172494D01*
X145048923Y-122170267D01*
X145129006Y-122168041D01*
X145131243Y-122091864D01*
X145133479Y-122015687D01*
X145160541Y-122015687D01*
X145187604Y-122015687D01*
X145187604Y-122093817D01*
G37*
G36*
X145265734Y-119699139D02*
G01*
X145265734Y-119820240D01*
X145230575Y-119820240D01*
X145195417Y-119820240D01*
X145195417Y-119699139D01*
X145195417Y-119578037D01*
X145230575Y-119578037D01*
X145265734Y-119578037D01*
X145265734Y-119699139D01*
G37*
G36*
X144312550Y-122187573D02*
G01*
X144312550Y-122351646D01*
X144015657Y-122351646D01*
X143718763Y-122351646D01*
X143718763Y-122316487D01*
X143718763Y-122281329D01*
X143980498Y-122281329D01*
X144242233Y-122281329D01*
X144242233Y-122152415D01*
X144242233Y-122023500D01*
X144277391Y-122023500D01*
X144312550Y-122023500D01*
X144312550Y-122187573D01*
G37*
G36*
X143789080Y-121660197D02*
G01*
X143789080Y-121796924D01*
X143878929Y-121796924D01*
X143968779Y-121796924D01*
X143968779Y-121668010D01*
X143968779Y-121539096D01*
X144003937Y-121539096D01*
X144039096Y-121539096D01*
X144039096Y-121668010D01*
X144039096Y-121796924D01*
X144140664Y-121796924D01*
X144242233Y-121796924D01*
X144242233Y-121660197D01*
X144242233Y-121523470D01*
X144277391Y-121523470D01*
X144312550Y-121523470D01*
X144312550Y-121695355D01*
X144312550Y-121867241D01*
X144015657Y-121867241D01*
X143718763Y-121867241D01*
X143718763Y-121695355D01*
X143718763Y-121523470D01*
X143753922Y-121523470D01*
X143789080Y-121523470D01*
X143789080Y-121660197D01*
G37*
G36*
X144065446Y-120993043D02*
G01*
X144132067Y-121004728D01*
X144187601Y-121026306D01*
X144232434Y-121058275D01*
X144266949Y-121101134D01*
X144291532Y-121155384D01*
X144306566Y-121221523D01*
X144312435Y-121300050D01*
X144312550Y-121313954D01*
X144312550Y-121382836D01*
X144014637Y-121382836D01*
X143771299Y-121382836D01*
X143716725Y-121382836D01*
X143719167Y-121312519D01*
X143771299Y-121312519D01*
X144015372Y-121312519D01*
X144259445Y-121312519D01*
X144254090Y-121255875D01*
X144249063Y-121221848D01*
X144241222Y-121188873D01*
X144233063Y-121166016D01*
X144206031Y-121125383D01*
X144167922Y-121094964D01*
X144118392Y-121074597D01*
X144057098Y-121064117D01*
X144016177Y-121062504D01*
X143949438Y-121066668D01*
X143895139Y-121079310D01*
X143852450Y-121100658D01*
X143839294Y-121110931D01*
X143810796Y-121142115D01*
X143791593Y-121178941D01*
X143780087Y-121225032D01*
X143776714Y-121252767D01*
X143771299Y-121312519D01*
X143719167Y-121312519D01*
X143720320Y-121279314D01*
X143723626Y-121221694D01*
X143729757Y-121176322D01*
X143739789Y-121139915D01*
X143754797Y-121109193D01*
X143775859Y-121080876D01*
X143790635Y-121064911D01*
X143836000Y-121029689D01*
X143892116Y-121005538D01*
X143958608Y-120992557D01*
X144035105Y-120990843D01*
X144065446Y-120993043D01*
G37*
G36*
X143744156Y-120040462D02*
G01*
X143761467Y-120043886D01*
X143769060Y-120053056D01*
X143771529Y-120070255D01*
X143773933Y-120096665D01*
X143777278Y-120126203D01*
X143777868Y-120130806D01*
X143782225Y-120164011D01*
X144015299Y-120164011D01*
X144083358Y-120164081D01*
X144137400Y-120164014D01*
X144179032Y-120163397D01*
X144209860Y-120161816D01*
X144231492Y-120158856D01*
X144245533Y-120154103D01*
X144253590Y-120147144D01*
X144257270Y-120137565D01*
X144258180Y-120124951D01*
X144257926Y-120108889D01*
X144257859Y-120101507D01*
X144259124Y-120069843D01*
X144263905Y-120050792D01*
X144273682Y-120041472D01*
X144289931Y-120039003D01*
X144289947Y-120039003D01*
X144312550Y-120039003D01*
X144312550Y-120195263D01*
X144312550Y-120351523D01*
X144289947Y-120351523D01*
X144273213Y-120348809D01*
X144263349Y-120338745D01*
X144258774Y-120318442D01*
X144257859Y-120292925D01*
X144258097Y-120276475D01*
X144257736Y-120263416D01*
X144255168Y-120253361D01*
X144248783Y-120245919D01*
X144236970Y-120240700D01*
X144218120Y-120237315D01*
X144190622Y-120235373D01*
X144152868Y-120234486D01*
X144103247Y-120234264D01*
X144040150Y-120234317D01*
X144015797Y-120234328D01*
X143783220Y-120234328D01*
X143778337Y-120258743D01*
X143775173Y-120282768D01*
X143773522Y-120311308D01*
X143773454Y-120317341D01*
X143772819Y-120338553D01*
X143768612Y-120348452D01*
X143757384Y-120351350D01*
X143746109Y-120351523D01*
X143718763Y-120351523D01*
X143718763Y-120194768D01*
X143718763Y-120038013D01*
X143744156Y-120040462D01*
G37*
G36*
X144310987Y-119551899D02*
G01*
X144308643Y-119596076D01*
X144062535Y-119703773D01*
X144004222Y-119729341D01*
X143950242Y-119753107D01*
X143902323Y-119774302D01*
X143862193Y-119792156D01*
X143831583Y-119805903D01*
X143812221Y-119814772D01*
X143806041Y-119817808D01*
X143811014Y-119819242D01*
X143829888Y-119820409D01*
X143860943Y-119821284D01*
X143902454Y-119821842D01*
X143952701Y-119822055D01*
X144009962Y-119821898D01*
X144054103Y-119821546D01*
X144312550Y-119818946D01*
X144312550Y-119850845D01*
X144312550Y-119882744D01*
X144015657Y-119882744D01*
X143718763Y-119882744D01*
X143718763Y-119836926D01*
X143718763Y-119791108D01*
X143959013Y-119687136D01*
X144016418Y-119662226D01*
X144069248Y-119639174D01*
X144115790Y-119618736D01*
X144154329Y-119601672D01*
X144183152Y-119588738D01*
X144200545Y-119580692D01*
X144205010Y-119578369D01*
X144198950Y-119577294D01*
X144179072Y-119576500D01*
X144147183Y-119575998D01*
X144105089Y-119575801D01*
X144054595Y-119575921D01*
X143997508Y-119576369D01*
X143964761Y-119576750D01*
X143718763Y-119579927D01*
X143718763Y-119543824D01*
X143718763Y-119507721D01*
X144016047Y-119507721D01*
X144313330Y-119507721D01*
X144310987Y-119551899D01*
G37*
G36*
X142898400Y-119593663D02*
G01*
X142898400Y-119671793D01*
X142980437Y-119671793D01*
X143062473Y-119671793D01*
X143062473Y-119699139D01*
X143062473Y-119726484D01*
X142980437Y-119726484D01*
X142898400Y-119726484D01*
X142898400Y-119800707D01*
X142898400Y-119874931D01*
X142871055Y-119874931D01*
X142843710Y-119874931D01*
X142843710Y-119800707D01*
X142843710Y-119726484D01*
X142761673Y-119726484D01*
X142679637Y-119726484D01*
X142679637Y-119699412D01*
X142679637Y-119672340D01*
X142759720Y-119670113D01*
X142839803Y-119667887D01*
X142842039Y-119591710D01*
X142844275Y-119515534D01*
X142871338Y-119515534D01*
X142898400Y-119515534D01*
X142898400Y-119593663D01*
G37*
G36*
X142976530Y-122199292D02*
G01*
X142976530Y-122320394D01*
X142941372Y-122320394D01*
X142906213Y-122320394D01*
X142906213Y-122199292D01*
X142906213Y-122078191D01*
X142941372Y-122078191D01*
X142976530Y-122078191D01*
X142976530Y-122199292D01*
G37*
G36*
X141790795Y-120243986D02*
G01*
X141850411Y-120252703D01*
X141886547Y-120261944D01*
X141932774Y-120282906D01*
X141972531Y-120313262D01*
X142002911Y-120350130D01*
X142021010Y-120390625D01*
X142022485Y-120396832D01*
X142028627Y-120431994D01*
X142029786Y-120459487D01*
X142026059Y-120486417D01*
X142023854Y-120496063D01*
X142005782Y-120543724D01*
X141976682Y-120582352D01*
X141936052Y-120612210D01*
X141883394Y-120633559D01*
X141818207Y-120646662D01*
X141739991Y-120651780D01*
X141726453Y-120651875D01*
X141673535Y-120650934D01*
X141632428Y-120647867D01*
X141599419Y-120642315D01*
X141582774Y-120637890D01*
X141525231Y-120615394D01*
X141481604Y-120586641D01*
X141451114Y-120550693D01*
X141432983Y-120506611D01*
X141426432Y-120453455D01*
X141426387Y-120449185D01*
X141426665Y-120446392D01*
X141488157Y-120446392D01*
X141488595Y-120475563D01*
X141491126Y-120494268D01*
X141497579Y-120507663D01*
X141509784Y-120520906D01*
X141516939Y-120527546D01*
X141548142Y-120550105D01*
X141586471Y-120566133D01*
X141634182Y-120576209D01*
X141693526Y-120580914D01*
X141726453Y-120581434D01*
X141783456Y-120579956D01*
X141828012Y-120575329D01*
X141860708Y-120567980D01*
X141899427Y-120552248D01*
X141932037Y-120531398D01*
X141954745Y-120508122D01*
X141961086Y-120496700D01*
X141967622Y-120466088D01*
X141966889Y-120430579D01*
X141959425Y-120397925D01*
X141953374Y-120385152D01*
X141930054Y-120357619D01*
X141897263Y-120337048D01*
X141853814Y-120323103D01*
X141798522Y-120315450D01*
X141730202Y-120313752D01*
X141703325Y-120314491D01*
X141643967Y-120318218D01*
X141597567Y-120324724D01*
X141561598Y-120334712D01*
X141533529Y-120348884D01*
X141510834Y-120367945D01*
X141510769Y-120368012D01*
X141498677Y-120382150D01*
X141491868Y-120396204D01*
X141488857Y-120415325D01*
X141488158Y-120444660D01*
X141488157Y-120446392D01*
X141426665Y-120446392D01*
X141431953Y-120393223D01*
X141449549Y-120346790D01*
X141479800Y-120308998D01*
X141523334Y-120278957D01*
X141556823Y-120264004D01*
X141605166Y-120250826D01*
X141663435Y-120243077D01*
X141726890Y-120240787D01*
X141790795Y-120243986D01*
G37*
G36*
X141714204Y-119758069D02*
G01*
X141775793Y-119759232D01*
X141825503Y-119761477D01*
X141865203Y-119765053D01*
X141896762Y-119770208D01*
X141922047Y-119777193D01*
X141942928Y-119786257D01*
X141961272Y-119797650D01*
X141966470Y-119801490D01*
X141995201Y-119832586D01*
X142015668Y-119873716D01*
X142026868Y-119921078D01*
X142027799Y-119970872D01*
X142020958Y-120008230D01*
X142002334Y-120053594D01*
X141974524Y-120087513D01*
X141939302Y-120110603D01*
X141928269Y-120115787D01*
X141917303Y-120119907D01*
X141904496Y-120123108D01*
X141887940Y-120125533D01*
X141865725Y-120127327D01*
X141835944Y-120128632D01*
X141796687Y-120129595D01*
X141746046Y-120130357D01*
X141682112Y-120131064D01*
X141665903Y-120131228D01*
X141429560Y-120133604D01*
X141429560Y-120098451D01*
X141429560Y-120063298D01*
X141661996Y-120060917D01*
X141728478Y-120060197D01*
X141781198Y-120059458D01*
X141822020Y-120058556D01*
X141852808Y-120057348D01*
X141875427Y-120055692D01*
X141891739Y-120053443D01*
X141903608Y-120050459D01*
X141912900Y-120046598D01*
X141921476Y-120041714D01*
X141922812Y-120040888D01*
X141949014Y-120018276D01*
X141963690Y-119988937D01*
X141967889Y-119950323D01*
X141967034Y-119933610D01*
X141960236Y-119897223D01*
X141944939Y-119870745D01*
X141918107Y-119849446D01*
X141910077Y-119844832D01*
X141901178Y-119841011D01*
X141888723Y-119837944D01*
X141870925Y-119835522D01*
X141845998Y-119833636D01*
X141812156Y-119832177D01*
X141767611Y-119831037D01*
X141710577Y-119830107D01*
X141658090Y-119829477D01*
X141429560Y-119826994D01*
X141429560Y-119792365D01*
X141429560Y-119757736D01*
X141638869Y-119757736D01*
X141714204Y-119758069D01*
G37*
G36*
X142023347Y-122437588D02*
G01*
X142023347Y-122601661D01*
X141726453Y-122601661D01*
X141429560Y-122601661D01*
X141429560Y-122566503D01*
X141429560Y-122531344D01*
X141691295Y-122531344D01*
X141953030Y-122531344D01*
X141953030Y-122402430D01*
X141953030Y-122273516D01*
X141988188Y-122273516D01*
X142023347Y-122273516D01*
X142023347Y-122437588D01*
G37*
G36*
X141499877Y-121910212D02*
G01*
X141499877Y-122046939D01*
X141589726Y-122046939D01*
X141679575Y-122046939D01*
X141679575Y-121918025D01*
X141679575Y-121789111D01*
X141714734Y-121789111D01*
X141749892Y-121789111D01*
X141749892Y-121918025D01*
X141749892Y-122046939D01*
X141851461Y-122046939D01*
X141953030Y-122046939D01*
X141953030Y-121910212D01*
X141953030Y-121773485D01*
X141988188Y-121773485D01*
X142023347Y-121773485D01*
X142023347Y-121945371D01*
X142023347Y-122117256D01*
X141726453Y-122117256D01*
X141429560Y-122117256D01*
X141429560Y-121945371D01*
X141429560Y-121773485D01*
X141464718Y-121773485D01*
X141499877Y-121773485D01*
X141499877Y-121910212D01*
G37*
G36*
X141776243Y-121243058D02*
G01*
X141842863Y-121254743D01*
X141898398Y-121276321D01*
X141943231Y-121308290D01*
X141977746Y-121351150D01*
X142002329Y-121405399D01*
X142017363Y-121471538D01*
X142023232Y-121550065D01*
X142023347Y-121563969D01*
X142023347Y-121632851D01*
X141725434Y-121632851D01*
X141482096Y-121632851D01*
X141427522Y-121632851D01*
X141429964Y-121562535D01*
X141482096Y-121562535D01*
X141726169Y-121562535D01*
X141970242Y-121562535D01*
X141964886Y-121505890D01*
X141959860Y-121471863D01*
X141952019Y-121438888D01*
X141943859Y-121416032D01*
X141916828Y-121375398D01*
X141878719Y-121344980D01*
X141829189Y-121324612D01*
X141767894Y-121314132D01*
X141726974Y-121312519D01*
X141660235Y-121316683D01*
X141605935Y-121329325D01*
X141563247Y-121350674D01*
X141550091Y-121360946D01*
X141521593Y-121392130D01*
X141502390Y-121428957D01*
X141490884Y-121475047D01*
X141487510Y-121502782D01*
X141482096Y-121562535D01*
X141429964Y-121562535D01*
X141431117Y-121529329D01*
X141434423Y-121471710D01*
X141440553Y-121426337D01*
X141450585Y-121389930D01*
X141465594Y-121359209D01*
X141486656Y-121330892D01*
X141501432Y-121314926D01*
X141546797Y-121279704D01*
X141602912Y-121255554D01*
X141669405Y-121242572D01*
X141745902Y-121240858D01*
X141776243Y-121243058D01*
G37*
G36*
X141499877Y-119324116D02*
G01*
X141499877Y-119413965D01*
X141761612Y-119413965D01*
X142023347Y-119413965D01*
X142023347Y-119449123D01*
X142023347Y-119484282D01*
X141761612Y-119484282D01*
X141499877Y-119484282D01*
X141499877Y-119570225D01*
X141499877Y-119656167D01*
X141464718Y-119656167D01*
X141429560Y-119656167D01*
X141429560Y-119445217D01*
X141429560Y-119234266D01*
X141464718Y-119234266D01*
X141499877Y-119234266D01*
X141499877Y-119324116D01*
G37*
G36*
X139493779Y-122244109D02*
G01*
X139553395Y-122252826D01*
X139589531Y-122262067D01*
X139635758Y-122283029D01*
X139675514Y-122313385D01*
X139705895Y-122350253D01*
X139723994Y-122390748D01*
X139725469Y-122396955D01*
X139731611Y-122432117D01*
X139732770Y-122459610D01*
X139729043Y-122486540D01*
X139726838Y-122496186D01*
X139709165Y-122542710D01*
X139680346Y-122580556D01*
X139639283Y-122610736D01*
X139584878Y-122634264D01*
X139573117Y-122638013D01*
X139534669Y-122646049D01*
X139485941Y-122650928D01*
X139431959Y-122652651D01*
X139429437Y-122652584D01*
X139377746Y-122651218D01*
X139328326Y-122646628D01*
X139288725Y-122638883D01*
X139285757Y-122638013D01*
X139228215Y-122615517D01*
X139184588Y-122586764D01*
X139154097Y-122550816D01*
X139135966Y-122506734D01*
X139129416Y-122453578D01*
X139129370Y-122449308D01*
X139129648Y-122446515D01*
X139191141Y-122446515D01*
X139191578Y-122475686D01*
X139194109Y-122494391D01*
X139200563Y-122507786D01*
X139212768Y-122521029D01*
X139219923Y-122527670D01*
X139251125Y-122550228D01*
X139289455Y-122566256D01*
X139337165Y-122576332D01*
X139396510Y-122581037D01*
X139429437Y-122581557D01*
X139486440Y-122580079D01*
X139530995Y-122575452D01*
X139563691Y-122568103D01*
X139602411Y-122552372D01*
X139635021Y-122531521D01*
X139657728Y-122508245D01*
X139664070Y-122496823D01*
X139670606Y-122466211D01*
X139669873Y-122430702D01*
X139662408Y-122398048D01*
X139656357Y-122385275D01*
X139633038Y-122357742D01*
X139600247Y-122337171D01*
X139556798Y-122323226D01*
X139501506Y-122315573D01*
X139433186Y-122313875D01*
X139406308Y-122314614D01*
X139346950Y-122318341D01*
X139300551Y-122324847D01*
X139264581Y-122334835D01*
X139236513Y-122349007D01*
X139213817Y-122368068D01*
X139213752Y-122368136D01*
X139201660Y-122382273D01*
X139194852Y-122396327D01*
X139191841Y-122415448D01*
X139191142Y-122444783D01*
X139191141Y-122446515D01*
X139129648Y-122446515D01*
X139134936Y-122393346D01*
X139152532Y-122346913D01*
X139182784Y-122309121D01*
X139226318Y-122279080D01*
X139259807Y-122264127D01*
X139308150Y-122250949D01*
X139366418Y-122243200D01*
X139429874Y-122240910D01*
X139493779Y-122244109D01*
G37*
G36*
X139362708Y-122755519D02*
G01*
X139406982Y-122771218D01*
X139443161Y-122798295D01*
X139446602Y-122801860D01*
X139467304Y-122828950D01*
X139481955Y-122861041D01*
X139491553Y-122901343D01*
X139497095Y-122953065D01*
X139497901Y-122966918D01*
X139501998Y-123047001D01*
X139614164Y-123047001D01*
X139726330Y-123047001D01*
X139726330Y-123082159D01*
X139726330Y-123117318D01*
X139429437Y-123117318D01*
X139349844Y-123117318D01*
X139132544Y-123117318D01*
X139132544Y-123024997D01*
X139133581Y-122989309D01*
X139188438Y-122989309D01*
X139188700Y-123009098D01*
X139191141Y-123043094D01*
X139307993Y-123045266D01*
X139349844Y-123045752D01*
X139386623Y-123045635D01*
X139415270Y-123044964D01*
X139432722Y-123043792D01*
X139436091Y-123043121D01*
X139441470Y-123033452D01*
X139443835Y-123012397D01*
X139443494Y-122983838D01*
X139440752Y-122951658D01*
X139435915Y-122919739D01*
X139429290Y-122891965D01*
X139422854Y-122875233D01*
X139402055Y-122847249D01*
X139372748Y-122829855D01*
X139333204Y-122822291D01*
X139302365Y-122822225D01*
X139272476Y-122824525D01*
X139252808Y-122829000D01*
X139237959Y-122837503D01*
X139225907Y-122848462D01*
X139211228Y-122866498D01*
X139201698Y-122888274D01*
X139194942Y-122919428D01*
X139194279Y-122923586D01*
X139190350Y-122956685D01*
X139188438Y-122989309D01*
X139133581Y-122989309D01*
X139134730Y-122949766D01*
X139141769Y-122888482D01*
X139154378Y-122840022D01*
X139173277Y-122803264D01*
X139199185Y-122777084D01*
X139232820Y-122760360D01*
X139274901Y-122751970D01*
X139308336Y-122750451D01*
X139362708Y-122755519D01*
G37*
G36*
X139157936Y-121723396D02*
G01*
X139169557Y-121724750D01*
X139194197Y-121727411D01*
X139229705Y-121731160D01*
X139273932Y-121735775D01*
X139324727Y-121741039D01*
X139379940Y-121746729D01*
X139437421Y-121752627D01*
X139495019Y-121758512D01*
X139550585Y-121764164D01*
X139601968Y-121769364D01*
X139647019Y-121773891D01*
X139683587Y-121777525D01*
X139709521Y-121780046D01*
X139722673Y-121781234D01*
X139723777Y-121781298D01*
X139725255Y-121788317D01*
X139726177Y-121806205D01*
X139726330Y-121819077D01*
X139726330Y-121856856D01*
X139607182Y-121885669D01*
X139559715Y-121896994D01*
X139511536Y-121908221D01*
X139467430Y-121918253D01*
X139432183Y-121925992D01*
X139423577Y-121927801D01*
X139391587Y-121935319D01*
X139369505Y-121942322D01*
X139358711Y-121948103D01*
X139360581Y-121951953D01*
X139374156Y-121953184D01*
X139385049Y-121954849D01*
X139408371Y-121959431D01*
X139441326Y-121966311D01*
X139481121Y-121974869D01*
X139524965Y-121984484D01*
X139570062Y-121994538D01*
X139613621Y-122004410D01*
X139652847Y-122013481D01*
X139684948Y-122021131D01*
X139707130Y-122026740D01*
X139712658Y-122028290D01*
X139721470Y-122034925D01*
X139725579Y-122050444D01*
X139726330Y-122069478D01*
X139726330Y-122106589D01*
X139458736Y-122135896D01*
X139394428Y-122142972D01*
X139333955Y-122149689D01*
X139279356Y-122155816D01*
X139232671Y-122161122D01*
X139195939Y-122165375D01*
X139171201Y-122168343D01*
X139161842Y-122169573D01*
X139132544Y-122173944D01*
X139132544Y-122142048D01*
X139133581Y-122121497D01*
X139139071Y-122111479D01*
X139152585Y-122106927D01*
X139157936Y-122105999D01*
X139178304Y-122103333D01*
X139211157Y-122099801D01*
X139253546Y-122095653D01*
X139302521Y-122091141D01*
X139355135Y-122086515D01*
X139408439Y-122082027D01*
X139459484Y-122077927D01*
X139505322Y-122074466D01*
X139543003Y-122071896D01*
X139569580Y-122070467D01*
X139577885Y-122070259D01*
X139609991Y-122068929D01*
X139627429Y-122065512D01*
X139629960Y-122060537D01*
X139617349Y-122054534D01*
X139589358Y-122048031D01*
X139587952Y-122047774D01*
X139561524Y-122042592D01*
X139524040Y-122034701D01*
X139479646Y-122024999D01*
X139432489Y-122014386D01*
X139409905Y-122009189D01*
X139284897Y-121980192D01*
X139284897Y-121946054D01*
X139284897Y-121911916D01*
X139425531Y-121878125D01*
X139472782Y-121866929D01*
X139517101Y-121856718D01*
X139555323Y-121848199D01*
X139584283Y-121842079D01*
X139599465Y-121839259D01*
X139624544Y-121834434D01*
X139634080Y-121829999D01*
X139628149Y-121825985D01*
X139606831Y-121822426D01*
X139570204Y-121819352D01*
X139548317Y-121818115D01*
X139510810Y-121815937D01*
X139462105Y-121812681D01*
X139406571Y-121808660D01*
X139348574Y-121804192D01*
X139294663Y-121799776D01*
X139132544Y-121786044D01*
X139132544Y-121752910D01*
X139133143Y-121732215D01*
X139137175Y-121723249D01*
X139147993Y-121722112D01*
X139157936Y-121723396D01*
G37*
G36*
X139202861Y-121410181D02*
G01*
X139202861Y-121546909D01*
X139292710Y-121546909D01*
X139382559Y-121546909D01*
X139382559Y-121417994D01*
X139382559Y-121289080D01*
X139417718Y-121289080D01*
X139452876Y-121289080D01*
X139452876Y-121417994D01*
X139452876Y-121546909D01*
X139554445Y-121546909D01*
X139656013Y-121546909D01*
X139656013Y-121410181D01*
X139656013Y-121273454D01*
X139691172Y-121273454D01*
X139726330Y-121273454D01*
X139726330Y-121445340D01*
X139726330Y-121617225D01*
X139429437Y-121617225D01*
X139132544Y-121617225D01*
X139132544Y-121445340D01*
X139132544Y-121273454D01*
X139167702Y-121273454D01*
X139202861Y-121273454D01*
X139202861Y-121410181D01*
G37*
G36*
X139723780Y-120734060D02*
G01*
X139725904Y-120750466D01*
X139726330Y-120764851D01*
X139726330Y-120804079D01*
X139630621Y-120859940D01*
X139581072Y-120888799D01*
X139543325Y-120910989D01*
X139515813Y-120927930D01*
X139496968Y-120941043D01*
X139485223Y-120951747D01*
X139479013Y-120961464D01*
X139476769Y-120971615D01*
X139476925Y-120983620D01*
X139477889Y-120998408D01*
X139480221Y-121042971D01*
X139603276Y-121045123D01*
X139726330Y-121047275D01*
X139726330Y-121082235D01*
X139726330Y-121117195D01*
X139428344Y-121117195D01*
X139421624Y-121117195D01*
X139130358Y-121117195D01*
X139133028Y-121042971D01*
X139191141Y-121042971D01*
X139306383Y-121045133D01*
X139421624Y-121047296D01*
X139421624Y-120987717D01*
X139418704Y-120938704D01*
X139409980Y-120903801D01*
X139408514Y-120900511D01*
X139388212Y-120874641D01*
X139357944Y-120856347D01*
X139321887Y-120846565D01*
X139284219Y-120846231D01*
X139249120Y-120856282D01*
X139238294Y-120862374D01*
X139217097Y-120882094D01*
X139203065Y-120910037D01*
X139195250Y-120948708D01*
X139193011Y-120982193D01*
X139191141Y-121042971D01*
X139133028Y-121042971D01*
X139134250Y-121008981D01*
X139136213Y-120963345D01*
X139138678Y-120929719D01*
X139142207Y-120904488D01*
X139147364Y-120884036D01*
X139154710Y-120864749D01*
X139157772Y-120857889D01*
X139177910Y-120822570D01*
X139202263Y-120798608D01*
X139233818Y-120784318D01*
X139275562Y-120778014D01*
X139300523Y-120777330D01*
X139348748Y-120780680D01*
X139385810Y-120791799D01*
X139414905Y-120812289D01*
X139439227Y-120843752D01*
X139441913Y-120848234D01*
X139454683Y-120868295D01*
X139464016Y-120876827D01*
X139473329Y-120876343D01*
X139477452Y-120874384D01*
X139484595Y-120870385D01*
X139496892Y-120863224D01*
X139515586Y-120852160D01*
X139541919Y-120836448D01*
X139577133Y-120815347D01*
X139622471Y-120788114D01*
X139679175Y-120754007D01*
X139720471Y-120729151D01*
X139723780Y-120734060D01*
G37*
G36*
X139602832Y-119753242D02*
G01*
X139625108Y-119760342D01*
X139635315Y-119764985D01*
X139664763Y-119783106D01*
X139687622Y-119806771D01*
X139704538Y-119837800D01*
X139716160Y-119878012D01*
X139723135Y-119929227D01*
X139726112Y-119993262D01*
X139726330Y-120020537D01*
X139726330Y-120117133D01*
X139434954Y-120117133D01*
X139429437Y-120117133D01*
X139184878Y-120117133D01*
X139132544Y-120117133D01*
X139132669Y-120046816D01*
X139184878Y-120046816D01*
X139284430Y-120046816D01*
X139383981Y-120046816D01*
X139434954Y-120046816D01*
X139554477Y-120046816D01*
X139674000Y-120046816D01*
X139669257Y-119968963D01*
X139665816Y-119930303D01*
X139660832Y-119897134D01*
X139655006Y-119873737D01*
X139652795Y-119868448D01*
X139632437Y-119844889D01*
X139602016Y-119828760D01*
X139565683Y-119821011D01*
X139527594Y-119822590D01*
X139495679Y-119832563D01*
X139474238Y-119847420D01*
X139458612Y-119870063D01*
X139447924Y-119902683D01*
X139441298Y-119947467D01*
X139439345Y-119973219D01*
X139434954Y-120046816D01*
X139383981Y-120046816D01*
X139381317Y-119964124D01*
X139379976Y-119927288D01*
X139378161Y-119902526D01*
X139374926Y-119886295D01*
X139369323Y-119875052D01*
X139360405Y-119865251D01*
X139353137Y-119858649D01*
X139324475Y-119841721D01*
X139291368Y-119835256D01*
X139258028Y-119838671D01*
X139228671Y-119851387D01*
X139207509Y-119872820D01*
X139204109Y-119879218D01*
X139199324Y-119896319D01*
X139194672Y-119924183D01*
X139190893Y-119957956D01*
X139189690Y-119973559D01*
X139184878Y-120046816D01*
X139132669Y-120046816D01*
X139132707Y-120025331D01*
X139134997Y-119951530D01*
X139141976Y-119891745D01*
X139154239Y-119844909D01*
X139172382Y-119809959D01*
X139196999Y-119785829D01*
X139228687Y-119771454D01*
X139268040Y-119765769D01*
X139277882Y-119765578D01*
X139322797Y-119770724D01*
X139357578Y-119786967D01*
X139384114Y-119815421D01*
X139394915Y-119834650D01*
X139411178Y-119868454D01*
X139424353Y-119833956D01*
X139438070Y-119806970D01*
X139456020Y-119782215D01*
X139461202Y-119776777D01*
X139475553Y-119764694D01*
X139490570Y-119757441D01*
X139511225Y-119753459D01*
X139542491Y-119751186D01*
X139542806Y-119751170D01*
X139577451Y-119750491D01*
X139602832Y-119753242D01*
G37*
G36*
X139202861Y-119324116D02*
G01*
X139202861Y-119413965D01*
X139464595Y-119413965D01*
X139726330Y-119413965D01*
X139726330Y-119449123D01*
X139726330Y-119484282D01*
X139464595Y-119484282D01*
X139202861Y-119484282D01*
X139202861Y-119570225D01*
X139202861Y-119656167D01*
X139167702Y-119656167D01*
X139132544Y-119656167D01*
X139132544Y-119445217D01*
X139132544Y-119234266D01*
X139167702Y-119234266D01*
X139202861Y-119234266D01*
X139202861Y-119324116D01*
G37*
G36*
X139724767Y-118801852D02*
G01*
X139722424Y-118846030D01*
X139476315Y-118953727D01*
X139418002Y-118979295D01*
X139364022Y-119003061D01*
X139316103Y-119024255D01*
X139275974Y-119042110D01*
X139245363Y-119055857D01*
X139226001Y-119064726D01*
X139219822Y-119067762D01*
X139224794Y-119069196D01*
X139243669Y-119070363D01*
X139274723Y-119071238D01*
X139316235Y-119071795D01*
X139366482Y-119072009D01*
X139423742Y-119071852D01*
X139467884Y-119071500D01*
X139726330Y-119068900D01*
X139726330Y-119100799D01*
X139726330Y-119132698D01*
X139429437Y-119132698D01*
X139132544Y-119132698D01*
X139132544Y-119086880D01*
X139132544Y-119041062D01*
X139372793Y-118937090D01*
X139430198Y-118912180D01*
X139483028Y-118889128D01*
X139529570Y-118868690D01*
X139568109Y-118851626D01*
X139596933Y-118838692D01*
X139614326Y-118830646D01*
X139618790Y-118828322D01*
X139612730Y-118827248D01*
X139592853Y-118826454D01*
X139560964Y-118825952D01*
X139518869Y-118825755D01*
X139468375Y-118825875D01*
X139411289Y-118826323D01*
X139378541Y-118826704D01*
X139132544Y-118829881D01*
X139132544Y-118793778D01*
X139132544Y-118757675D01*
X139429827Y-118757675D01*
X139727110Y-118757675D01*
X139724767Y-118801852D01*
G37*
D11*
%TO.C,J3*%
X135970000Y-117870000D02*
X151330000Y-117870000D01*
X135970000Y-115270000D02*
X138570000Y-115270000D01*
X135970000Y-112670000D02*
X137300000Y-112670000D01*
X138570000Y-115270000D02*
X138570000Y-112670000D01*
X135970000Y-114000000D02*
X135970000Y-112670000D01*
X135970000Y-117870000D02*
X135970000Y-115270000D01*
X138570000Y-112670000D02*
X151330000Y-112670000D01*
X151330000Y-117870000D02*
X151330000Y-112670000D01*
%TO.C,J2*%
X127475000Y-79855000D02*
X126145000Y-79855000D01*
X126145000Y-77255000D02*
X126145000Y-72115000D01*
X128805000Y-77255000D02*
X128805000Y-72115000D01*
X128805000Y-77255000D02*
X126145000Y-77255000D01*
X126145000Y-79855000D02*
X126145000Y-78525000D01*
X128805000Y-72115000D02*
X126145000Y-72115000D01*
%TO.C,U1*%
X154110000Y-110370000D02*
X147310000Y-110370000D01*
X154110000Y-107570000D02*
X154110000Y-107970000D01*
X154110000Y-104970000D02*
X154110000Y-105370000D01*
X154110000Y-102470000D02*
X154110000Y-102870000D01*
X154110000Y-99970000D02*
X154110000Y-100370000D01*
X154110000Y-97370000D02*
X154110000Y-97770000D01*
X154110000Y-94870000D02*
X154110000Y-95270000D01*
X154110000Y-92270000D02*
X154110000Y-92670000D01*
X154110000Y-89770000D02*
X154110000Y-90170000D01*
X154110000Y-87170000D02*
X154110000Y-87570000D01*
X154110000Y-84670000D02*
X154110000Y-85070000D01*
X154110000Y-82170000D02*
X154110000Y-82570000D01*
X154110000Y-79570000D02*
X154110000Y-79970000D01*
X154110000Y-77070000D02*
X154110000Y-77470000D01*
X154110000Y-74470000D02*
X154110000Y-74870000D01*
X154110000Y-71970000D02*
X154110000Y-72370000D01*
X154110000Y-69470000D02*
X154110000Y-69870000D01*
X154110000Y-66870000D02*
X154110000Y-67270000D01*
X154110000Y-64370000D02*
X154110000Y-64770000D01*
X154110000Y-61770000D02*
X154110000Y-62170000D01*
X154110000Y-59370000D02*
X154110000Y-59670000D01*
X144710000Y-110370000D02*
X145110000Y-110370000D01*
X142110000Y-110370000D02*
X142510000Y-110370000D01*
X139910000Y-110370000D02*
X133110000Y-110370000D01*
X136117000Y-62037000D02*
X136117000Y-59370000D01*
X133110000Y-107570000D02*
X133110000Y-107970000D01*
X133110000Y-104970000D02*
X133110000Y-105370000D01*
X133110000Y-102470000D02*
X133110000Y-102870000D01*
X133110000Y-99970000D02*
X133110000Y-100370000D01*
X133110000Y-97370000D02*
X133110000Y-97770000D01*
X133110000Y-94870000D02*
X133110000Y-95270000D01*
X133110000Y-92270000D02*
X133110000Y-92670000D01*
X133110000Y-89770000D02*
X133110000Y-90170000D01*
X133110000Y-87170000D02*
X133110000Y-87570000D01*
X133110000Y-84670000D02*
X133110000Y-85070000D01*
X133110000Y-82170000D02*
X133110000Y-82570000D01*
X133110000Y-79570000D02*
X133110000Y-79970000D01*
X133110000Y-77070000D02*
X133110000Y-77470000D01*
X133110000Y-74470000D02*
X133110000Y-74870000D01*
X133110000Y-71970000D02*
X133110000Y-72370000D01*
X133110000Y-69470000D02*
X133110000Y-69870000D01*
X133110000Y-66870000D02*
X133110000Y-67270000D01*
X133110000Y-64370000D02*
X133110000Y-64770000D01*
X133110000Y-62037000D02*
X136117000Y-62037000D01*
X133110000Y-61770000D02*
X133110000Y-62170000D01*
X133110000Y-59370000D02*
X154110000Y-59370000D01*
X133110000Y-59370000D02*
X133110000Y-59670000D01*
%TO.C,Q2*%
X154700000Y-117350000D02*
X158300000Y-117350000D01*
X156500000Y-112900000D02*
G75*
G03*
X154661522Y-117338478I0J-2600000D01*
G01*
X158338478Y-117338478D02*
G75*
G03*
X156500000Y-112900000I-1838478J1838478D01*
G01*
%TO.C,Q1*%
X129430000Y-117350000D02*
X133030000Y-117350000D01*
X131230000Y-112900000D02*
G75*
G03*
X129391522Y-117338478I0J-2600000D01*
G01*
X133068478Y-117338478D02*
G75*
G03*
X131230000Y-112900000I-1838478J1838478D01*
G01*
%TO.C,D1*%
X163600000Y-107344716D02*
G75*
G03*
X160324614Y-107286636I-1600000J2154716D01*
G01*
%TD*%
M02*
