%TF.GenerationSoftware,KiCad,Pcbnew,7.0.10+dfsg-1*%
%TF.CreationDate,2024-01-14T16:43:57+01:00*%
%TF.ProjectId,picoswitch,7069636f-7377-4697-9463-682e6b696361,rev?*%
%TF.SameCoordinates,Original*%
%TF.FileFunction,Copper,L2,Bot*%
%TF.FilePolarity,Positive*%
%FSLAX46Y46*%
G04 Gerber Fmt 4.6, Leading zero omitted, Abs format (unit mm)*
G04 Created by KiCad (PCBNEW 7.0.10+dfsg-1) date 2024-01-14 16:43:57*
%MOMM*%
%LPD*%
G01*
G04 APERTURE LIST*
%TA.AperFunction,ComponentPad*%
%ADD10R,1.700000X1.700000*%
%TD*%
%TA.AperFunction,ComponentPad*%
%ADD11O,1.700000X1.700000*%
%TD*%
%TA.AperFunction,ComponentPad*%
%ADD12R,3.200000X3.200000*%
%TD*%
%TA.AperFunction,ComponentPad*%
%ADD13O,3.200000X3.200000*%
%TD*%
%TA.AperFunction,ComponentPad*%
%ADD14R,1.050000X1.500000*%
%TD*%
%TA.AperFunction,ComponentPad*%
%ADD15O,1.050000X1.500000*%
%TD*%
%TA.AperFunction,ViaPad*%
%ADD16C,0.800000*%
%TD*%
%TA.AperFunction,Conductor*%
%ADD17C,0.250000*%
%TD*%
%TA.AperFunction,Conductor*%
%ADD18C,1.000000*%
%TD*%
G04 APERTURE END LIST*
D10*
%TO.P,J1,1,RESET_BTN*%
%TO.N,Net-(U1-GPIO15)*%
X137420000Y-113960000D03*
D11*
%TO.P,J1,2,RESET_BTN*%
%TO.N,GND*%
X137420000Y-116500000D03*
%TO.P,J1,3,POWER_BTN*%
%TO.N,Net-(U1-GPIO14)*%
X139960000Y-113960000D03*
%TO.P,J1,4,POWER_BTN*%
%TO.N,GND*%
X139960000Y-116500000D03*
%TO.P,J1,5,LED_OUT_+*%
%TO.N,Net-(J1-LED_OUT_+)*%
X142500000Y-113960000D03*
%TO.P,J1,6,LED_OUT_-*%
%TO.N,GND*%
X142500000Y-116500000D03*
%TO.P,J1,7,LED_IN_-*%
X145040000Y-113960000D03*
%TO.P,J1,8,LED_IN_+*%
%TO.N,Net-(J1-LED_IN_+)*%
X145040000Y-116500000D03*
%TO.P,J1,9,RESERVED*%
%TO.N,unconnected-(J1-RESERVED-Pad9)*%
X147580000Y-113960000D03*
%TO.P,J1,10,RESERVED*%
%TO.N,unconnected-(J1-RESERVED-Pad10)*%
X147580000Y-116500000D03*
%TO.P,J1,11,POWER_SW_-*%
%TO.N,GND*%
X150120000Y-113960000D03*
%TO.P,J1,12,POWER_SW_+*%
%TO.N,Net-(D1-A)*%
X150120000Y-116500000D03*
%TD*%
D12*
%TO.P,D1,1,K*%
%TO.N,Net-(D1-K)*%
X162000000Y-105190000D03*
D13*
%TO.P,D1,2,A*%
%TO.N,Net-(D1-A)*%
X162000000Y-109000000D03*
%TD*%
D11*
%TO.P,U1,1,GPIO0*%
%TO.N,unconnected-(U1-GPIO0-Pad1)*%
X134720000Y-60740000D03*
%TO.P,U1,2,GPIO1*%
%TO.N,unconnected-(U1-GPIO1-Pad2)*%
X134720000Y-63280000D03*
D10*
%TO.P,U1,3,GND*%
%TO.N,GND*%
X134720000Y-65820000D03*
D11*
%TO.P,U1,4,GPIO2*%
%TO.N,unconnected-(U1-GPIO2-Pad4)*%
X134720000Y-68360000D03*
%TO.P,U1,5,GPIO3*%
%TO.N,unconnected-(U1-GPIO3-Pad5)*%
X134720000Y-70900000D03*
%TO.P,U1,6,GPIO4*%
%TO.N,Net-(J2-TX)*%
X134720000Y-73440000D03*
%TO.P,U1,7,GPIO5*%
%TO.N,Net-(J2-RX)*%
X134720000Y-75980000D03*
D10*
%TO.P,U1,8,GND*%
%TO.N,Net-(J2-GND)*%
X134720000Y-78520000D03*
D11*
%TO.P,U1,9,GPIO6*%
%TO.N,unconnected-(U1-GPIO6-Pad9)*%
X134720000Y-81060000D03*
%TO.P,U1,10,GPIO7*%
%TO.N,unconnected-(U1-GPIO7-Pad10)*%
X134720000Y-83600000D03*
%TO.P,U1,11,GPIO8*%
%TO.N,unconnected-(U1-GPIO8-Pad11)*%
X134720000Y-86140000D03*
%TO.P,U1,12,GPIO9*%
%TO.N,unconnected-(U1-GPIO9-Pad12)*%
X134720000Y-88680000D03*
D10*
%TO.P,U1,13,GND*%
%TO.N,unconnected-(U1-GND-Pad13)*%
X134720000Y-91220000D03*
D11*
%TO.P,U1,14,GPIO10*%
%TO.N,unconnected-(U1-GPIO10-Pad14)*%
X134720000Y-93760000D03*
%TO.P,U1,15,GPIO11*%
%TO.N,unconnected-(U1-GPIO11-Pad15)*%
X134720000Y-96300000D03*
%TO.P,U1,16,GPIO12*%
%TO.N,unconnected-(U1-GPIO12-Pad16)*%
X134720000Y-98840000D03*
%TO.P,U1,17,GPIO13*%
%TO.N,unconnected-(U1-GPIO13-Pad17)*%
X134720000Y-101380000D03*
D10*
%TO.P,U1,18,GND*%
%TO.N,GND*%
X134720000Y-103920000D03*
D11*
%TO.P,U1,19,GPIO14*%
%TO.N,Net-(U1-GPIO14)*%
X134720000Y-106460000D03*
%TO.P,U1,20,GPIO15*%
%TO.N,Net-(U1-GPIO15)*%
X134720000Y-109000000D03*
%TO.P,U1,21,GPIO16*%
%TO.N,Net-(D1-K)*%
X152500000Y-109000000D03*
%TO.P,U1,22,GPIO17*%
%TO.N,unconnected-(U1-GPIO17-Pad22)*%
X152500000Y-106460000D03*
D10*
%TO.P,U1,23,GND*%
%TO.N,GND*%
X152500000Y-103920000D03*
D11*
%TO.P,U1,24,GPIO18*%
%TO.N,unconnected-(U1-GPIO18-Pad24)*%
X152500000Y-101380000D03*
%TO.P,U1,25,GPIO19*%
%TO.N,Net-(Q1-C)*%
X152500000Y-98840000D03*
%TO.P,U1,26,GPIO20*%
%TO.N,Net-(Q2-B)*%
X152500000Y-96300000D03*
%TO.P,U1,27,GPIO21*%
%TO.N,unconnected-(U1-GPIO21-Pad27)*%
X152500000Y-93760000D03*
D10*
%TO.P,U1,28,GND*%
%TO.N,unconnected-(U1-GND-Pad28)*%
X152500000Y-91220000D03*
D11*
%TO.P,U1,29,GPIO22*%
%TO.N,unconnected-(U1-GPIO22-Pad29)*%
X152500000Y-88680000D03*
%TO.P,U1,30,RUN*%
%TO.N,unconnected-(U1-RUN-Pad30)*%
X152500000Y-86140000D03*
%TO.P,U1,31,GPIO26_ADC0*%
%TO.N,unconnected-(U1-GPIO26_ADC0-Pad31)*%
X152500000Y-83600000D03*
%TO.P,U1,32,GPIO27_ADC1*%
%TO.N,unconnected-(U1-GPIO27_ADC1-Pad32)*%
X152500000Y-81060000D03*
D10*
%TO.P,U1,33,AGND*%
%TO.N,unconnected-(U1-AGND-Pad33)*%
X152500000Y-78520000D03*
D11*
%TO.P,U1,34,GPIO28_ADC2*%
%TO.N,unconnected-(U1-GPIO28_ADC2-Pad34)*%
X152500000Y-75980000D03*
%TO.P,U1,35,ADC_VREF*%
%TO.N,unconnected-(U1-ADC_VREF-Pad35)*%
X152500000Y-73440000D03*
%TO.P,U1,36,3V3*%
%TO.N,+3V3*%
X152500000Y-70900000D03*
%TO.P,U1,37,3V3_EN*%
%TO.N,unconnected-(U1-3V3_EN-Pad37)*%
X152500000Y-68360000D03*
D10*
%TO.P,U1,38,GND*%
%TO.N,GND*%
X152500000Y-65820000D03*
D11*
%TO.P,U1,39,VSYS*%
%TO.N,unconnected-(U1-VSYS-Pad39)*%
X152500000Y-63280000D03*
%TO.P,U1,40,VBUS*%
%TO.N,+5V*%
X152500000Y-60740000D03*
%TO.P,U1,41,SWCLK*%
%TO.N,unconnected-(U1-SWCLK-Pad41)*%
X141070000Y-108770000D03*
D10*
%TO.P,U1,42,GND*%
%TO.N,unconnected-(U1-GND-Pad42)*%
X143610000Y-108770000D03*
D11*
%TO.P,U1,43,SWDIO*%
%TO.N,unconnected-(U1-SWDIO-Pad43)*%
X146150000Y-108770000D03*
%TD*%
D14*
%TO.P,Q2,1,C*%
%TO.N,Net-(J1-LED_OUT_+)*%
X155230000Y-115500000D03*
D15*
%TO.P,Q2,2,B*%
%TO.N,Net-(Q2-B)*%
X156500000Y-115500000D03*
%TO.P,Q2,3,E*%
%TO.N,+5V*%
X157770000Y-115500000D03*
%TD*%
%TO.P,Q1,3,E*%
%TO.N,+3V3*%
X132500000Y-115500000D03*
%TO.P,Q1,2,B*%
%TO.N,Net-(J1-LED_IN_+)*%
X131230000Y-115500000D03*
D14*
%TO.P,Q1,1,C*%
%TO.N,Net-(Q1-C)*%
X129960000Y-115500000D03*
%TD*%
D10*
%TO.P,J2,1,TX*%
%TO.N,Net-(J2-TX)*%
X127500000Y-73420000D03*
D11*
%TO.P,J2,2,RX*%
%TO.N,Net-(J2-RX)*%
X127500000Y-75960000D03*
%TO.P,J2,3,GND*%
%TO.N,Net-(J2-GND)*%
X127500000Y-78500000D03*
%TD*%
D16*
%TO.N,Net-(Q1-C)*%
X143000000Y-103000000D03*
%TD*%
D17*
%TO.N,Net-(Q1-C)*%
X135825000Y-110175000D02*
X143000000Y-103000000D01*
X135127918Y-110175000D02*
X135825000Y-110175000D01*
X129960000Y-115342918D02*
X135127918Y-110175000D01*
X129960000Y-115500000D02*
X129960000Y-115342918D01*
%TO.N,+3V3*%
X132500000Y-115500000D02*
X144000000Y-104000000D01*
X144000000Y-104000000D02*
X144000000Y-79400000D01*
X144000000Y-79400000D02*
X152500000Y-70900000D01*
D18*
%TO.N,+5V*%
X157770000Y-115500000D02*
X157770000Y-66010000D01*
X157770000Y-66010000D02*
X152500000Y-60740000D01*
D17*
%TO.N,Net-(Q2-B)*%
X156500000Y-115500000D02*
X156500000Y-100300000D01*
X156500000Y-100300000D02*
X152500000Y-96300000D01*
%TD*%
%TA.AperFunction,Conductor*%
%TO.N,GND*%
G36*
X139500507Y-116290156D02*
G01*
X139460000Y-116428111D01*
X139460000Y-116571889D01*
X139500507Y-116709844D01*
X139526314Y-116750000D01*
X137853686Y-116750000D01*
X137879493Y-116709844D01*
X137920000Y-116571889D01*
X137920000Y-116428111D01*
X137879493Y-116290156D01*
X137853686Y-116250000D01*
X139526314Y-116250000D01*
X139500507Y-116290156D01*
G37*
%TD.AperFunction*%
%TA.AperFunction,Conductor*%
G36*
X142040507Y-116290156D02*
G01*
X142000000Y-116428111D01*
X142000000Y-116571889D01*
X142040507Y-116709844D01*
X142066314Y-116750000D01*
X140393686Y-116750000D01*
X140419493Y-116709844D01*
X140460000Y-116571889D01*
X140460000Y-116428111D01*
X140419493Y-116290156D01*
X140393686Y-116250000D01*
X142066314Y-116250000D01*
X142040507Y-116290156D01*
G37*
%TD.AperFunction*%
%TA.AperFunction,Conductor*%
G36*
X153953433Y-63620917D02*
G01*
X153992304Y-63647225D01*
X156733181Y-66388102D01*
X156766666Y-66449425D01*
X156769500Y-66475783D01*
X156769500Y-99385547D01*
X156749815Y-99452586D01*
X156697011Y-99498341D01*
X156627853Y-99508285D01*
X156564297Y-99479260D01*
X156557819Y-99473228D01*
X153840237Y-96755646D01*
X153806752Y-96694323D01*
X153808142Y-96635876D01*
X153835063Y-96535408D01*
X153855659Y-96300000D01*
X153835063Y-96064592D01*
X153773903Y-95836337D01*
X153674035Y-95622171D01*
X153538495Y-95428599D01*
X153538494Y-95428597D01*
X153371402Y-95261506D01*
X153371396Y-95261501D01*
X153185842Y-95131575D01*
X153142217Y-95076998D01*
X153135023Y-95007500D01*
X153166546Y-94945145D01*
X153185842Y-94928425D01*
X153208026Y-94912891D01*
X153371401Y-94798495D01*
X153538495Y-94631401D01*
X153674035Y-94437830D01*
X153773903Y-94223663D01*
X153835063Y-93995408D01*
X153855659Y-93760000D01*
X153835063Y-93524592D01*
X153773903Y-93296337D01*
X153674035Y-93082171D01*
X153538495Y-92888599D01*
X153416567Y-92766671D01*
X153383084Y-92705351D01*
X153388068Y-92635659D01*
X153429939Y-92579725D01*
X153460915Y-92562810D01*
X153592331Y-92513796D01*
X153707546Y-92427546D01*
X153793796Y-92312331D01*
X153844091Y-92177483D01*
X153850500Y-92117873D01*
X153850499Y-90322128D01*
X153844091Y-90262517D01*
X153793796Y-90127669D01*
X153793795Y-90127668D01*
X153793793Y-90127664D01*
X153707547Y-90012455D01*
X153707544Y-90012452D01*
X153592335Y-89926206D01*
X153592328Y-89926202D01*
X153460917Y-89877189D01*
X153404983Y-89835318D01*
X153380566Y-89769853D01*
X153395418Y-89701580D01*
X153416563Y-89673332D01*
X153538495Y-89551401D01*
X153674035Y-89357830D01*
X153773903Y-89143663D01*
X153835063Y-88915408D01*
X153855659Y-88680000D01*
X153835063Y-88444592D01*
X153773903Y-88216337D01*
X153674035Y-88002171D01*
X153538495Y-87808599D01*
X153538494Y-87808597D01*
X153371402Y-87641506D01*
X153371396Y-87641501D01*
X153185842Y-87511575D01*
X153142217Y-87456998D01*
X153135023Y-87387500D01*
X153166546Y-87325145D01*
X153185842Y-87308425D01*
X153208026Y-87292891D01*
X153371401Y-87178495D01*
X153538495Y-87011401D01*
X153674035Y-86817830D01*
X153773903Y-86603663D01*
X153835063Y-86375408D01*
X153855659Y-86140000D01*
X153835063Y-85904592D01*
X153773903Y-85676337D01*
X153674035Y-85462171D01*
X153538495Y-85268599D01*
X153538494Y-85268597D01*
X153371402Y-85101506D01*
X153371396Y-85101501D01*
X153185842Y-84971575D01*
X153142217Y-84916998D01*
X153135023Y-84847500D01*
X153166546Y-84785145D01*
X153185842Y-84768425D01*
X153208026Y-84752891D01*
X153371401Y-84638495D01*
X153538495Y-84471401D01*
X153674035Y-84277830D01*
X153773903Y-84063663D01*
X153835063Y-83835408D01*
X153855659Y-83600000D01*
X153835063Y-83364592D01*
X153773903Y-83136337D01*
X153674035Y-82922171D01*
X153538495Y-82728599D01*
X153538494Y-82728597D01*
X153371402Y-82561506D01*
X153371396Y-82561501D01*
X153185842Y-82431575D01*
X153142217Y-82376998D01*
X153135023Y-82307500D01*
X153166546Y-82245145D01*
X153185842Y-82228425D01*
X153208026Y-82212891D01*
X153371401Y-82098495D01*
X153538495Y-81931401D01*
X153674035Y-81737830D01*
X153773903Y-81523663D01*
X153835063Y-81295408D01*
X153855659Y-81060000D01*
X153835063Y-80824592D01*
X153773903Y-80596337D01*
X153674035Y-80382171D01*
X153538495Y-80188599D01*
X153416567Y-80066671D01*
X153383084Y-80005351D01*
X153388068Y-79935659D01*
X153429939Y-79879725D01*
X153460915Y-79862810D01*
X153592331Y-79813796D01*
X153707546Y-79727546D01*
X153793796Y-79612331D01*
X153844091Y-79477483D01*
X153850500Y-79417873D01*
X153850499Y-77622128D01*
X153844091Y-77562517D01*
X153806416Y-77461506D01*
X153793797Y-77427671D01*
X153793793Y-77427664D01*
X153707547Y-77312455D01*
X153707544Y-77312452D01*
X153592335Y-77226206D01*
X153592328Y-77226202D01*
X153460917Y-77177189D01*
X153404983Y-77135318D01*
X153380566Y-77069853D01*
X153395418Y-77001580D01*
X153416563Y-76973332D01*
X153538495Y-76851401D01*
X153674035Y-76657830D01*
X153773903Y-76443663D01*
X153835063Y-76215408D01*
X153855659Y-75980000D01*
X153835063Y-75744592D01*
X153773903Y-75516337D01*
X153674035Y-75302171D01*
X153538495Y-75108599D01*
X153538494Y-75108597D01*
X153371402Y-74941506D01*
X153371396Y-74941501D01*
X153185842Y-74811575D01*
X153142217Y-74756998D01*
X153135023Y-74687500D01*
X153166546Y-74625145D01*
X153185842Y-74608425D01*
X153208026Y-74592891D01*
X153371401Y-74478495D01*
X153538495Y-74311401D01*
X153674035Y-74117830D01*
X153773903Y-73903663D01*
X153835063Y-73675408D01*
X153855659Y-73440000D01*
X153835063Y-73204592D01*
X153773903Y-72976337D01*
X153674035Y-72762171D01*
X153538495Y-72568599D01*
X153538494Y-72568597D01*
X153371402Y-72401506D01*
X153371396Y-72401501D01*
X153185842Y-72271575D01*
X153142217Y-72216998D01*
X153135023Y-72147500D01*
X153166546Y-72085145D01*
X153185842Y-72068425D01*
X153208026Y-72052891D01*
X153371401Y-71938495D01*
X153538495Y-71771401D01*
X153674035Y-71577830D01*
X153773903Y-71363663D01*
X153835063Y-71135408D01*
X153855659Y-70900000D01*
X153835063Y-70664592D01*
X153773903Y-70436337D01*
X153674035Y-70222171D01*
X153538495Y-70028599D01*
X153538494Y-70028597D01*
X153371402Y-69861506D01*
X153371396Y-69861501D01*
X153185842Y-69731575D01*
X153142217Y-69676998D01*
X153135023Y-69607500D01*
X153166546Y-69545145D01*
X153185842Y-69528425D01*
X153208026Y-69512891D01*
X153371401Y-69398495D01*
X153538495Y-69231401D01*
X153674035Y-69037830D01*
X153773903Y-68823663D01*
X153835063Y-68595408D01*
X153855659Y-68360000D01*
X153835063Y-68124592D01*
X153773903Y-67896337D01*
X153674035Y-67682171D01*
X153538495Y-67488599D01*
X153416179Y-67366283D01*
X153382696Y-67304963D01*
X153387680Y-67235271D01*
X153429551Y-67179337D01*
X153460529Y-67162422D01*
X153592086Y-67113354D01*
X153592093Y-67113350D01*
X153707187Y-67027190D01*
X153707190Y-67027187D01*
X153793350Y-66912093D01*
X153793354Y-66912086D01*
X153843596Y-66777379D01*
X153843598Y-66777372D01*
X153849999Y-66717844D01*
X153850000Y-66717827D01*
X153850000Y-66070000D01*
X152945572Y-66070000D01*
X152968682Y-66034040D01*
X153010000Y-65893327D01*
X153010000Y-65746673D01*
X152968682Y-65605960D01*
X152945572Y-65570000D01*
X153850000Y-65570000D01*
X153850000Y-64922172D01*
X153849999Y-64922155D01*
X153843598Y-64862627D01*
X153843596Y-64862620D01*
X153793354Y-64727913D01*
X153793350Y-64727906D01*
X153707190Y-64612812D01*
X153707187Y-64612809D01*
X153592093Y-64526649D01*
X153592088Y-64526646D01*
X153460528Y-64477577D01*
X153404595Y-64435705D01*
X153380178Y-64370241D01*
X153395030Y-64301968D01*
X153416175Y-64273720D01*
X153538495Y-64151401D01*
X153674035Y-63957830D01*
X153773903Y-63743663D01*
X153784848Y-63702811D01*
X153821211Y-63643154D01*
X153884057Y-63612623D01*
X153953433Y-63620917D01*
G37*
%TD.AperFunction*%
%TA.AperFunction,Conductor*%
G36*
X165443039Y-59019685D02*
G01*
X165488794Y-59072489D01*
X165500000Y-59124000D01*
X165500000Y-123876000D01*
X165480315Y-123943039D01*
X165427511Y-123988794D01*
X165376000Y-124000000D01*
X125124000Y-124000000D01*
X125056961Y-123980315D01*
X125011206Y-123927511D01*
X125000000Y-123876000D01*
X125000000Y-116297870D01*
X128934500Y-116297870D01*
X128934501Y-116297876D01*
X128940908Y-116357483D01*
X128991202Y-116492328D01*
X128991206Y-116492335D01*
X129077452Y-116607544D01*
X129077455Y-116607547D01*
X129192664Y-116693793D01*
X129192671Y-116693797D01*
X129327517Y-116744091D01*
X129327516Y-116744091D01*
X129334444Y-116744835D01*
X129387127Y-116750500D01*
X130532872Y-116750499D01*
X130592483Y-116744091D01*
X130727331Y-116693796D01*
X130727335Y-116693792D01*
X130735118Y-116689544D01*
X130736252Y-116691621D01*
X130789715Y-116671671D01*
X130834576Y-116676694D01*
X130835656Y-116677021D01*
X130835659Y-116677023D01*
X131028967Y-116735662D01*
X131230000Y-116755462D01*
X131431033Y-116735662D01*
X131624341Y-116677023D01*
X131802494Y-116581798D01*
X131802498Y-116581794D01*
X131806546Y-116579631D01*
X131874949Y-116565389D01*
X131923454Y-116579631D01*
X131927502Y-116581794D01*
X131927506Y-116581798D01*
X132105659Y-116677023D01*
X132298967Y-116735662D01*
X132500000Y-116755462D01*
X132701033Y-116735662D01*
X132894341Y-116677023D01*
X133072494Y-116581798D01*
X133228647Y-116453647D01*
X133356798Y-116297494D01*
X133452023Y-116119341D01*
X133510662Y-115926033D01*
X133525500Y-115775380D01*
X133525500Y-115410452D01*
X133545185Y-115343413D01*
X133561819Y-115322771D01*
X134700238Y-114184352D01*
X135857821Y-113026768D01*
X135919142Y-112993285D01*
X135988834Y-112998269D01*
X136044767Y-113040141D01*
X136069184Y-113105605D01*
X136069500Y-113114451D01*
X136069500Y-114857870D01*
X136069501Y-114857876D01*
X136075908Y-114917483D01*
X136126202Y-115052328D01*
X136126206Y-115052335D01*
X136212452Y-115167544D01*
X136212455Y-115167547D01*
X136327664Y-115253793D01*
X136327671Y-115253797D01*
X136327674Y-115253798D01*
X136459598Y-115303002D01*
X136515531Y-115344873D01*
X136539949Y-115410337D01*
X136525098Y-115478610D01*
X136503947Y-115506865D01*
X136381886Y-115628926D01*
X136246400Y-115822420D01*
X136246399Y-115822422D01*
X136146570Y-116036507D01*
X136146567Y-116036513D01*
X136089364Y-116249999D01*
X136089364Y-116250000D01*
X136986314Y-116250000D01*
X136960507Y-116290156D01*
X136920000Y-116428111D01*
X136920000Y-116571889D01*
X136960507Y-116709844D01*
X136986314Y-116750000D01*
X136089364Y-116750000D01*
X136146567Y-116963486D01*
X136146570Y-116963492D01*
X136246399Y-117177578D01*
X136381894Y-117371082D01*
X136548917Y-117538105D01*
X136742421Y-117673600D01*
X136956507Y-117773429D01*
X136956516Y-117773433D01*
X137170000Y-117830634D01*
X137170000Y-116935501D01*
X137277685Y-116984680D01*
X137384237Y-117000000D01*
X137455763Y-117000000D01*
X137562315Y-116984680D01*
X137670000Y-116935501D01*
X137670000Y-117830633D01*
X137883483Y-117773433D01*
X137883492Y-117773429D01*
X138097578Y-117673600D01*
X138291082Y-117538105D01*
X138458105Y-117371082D01*
X138588425Y-117184968D01*
X138643002Y-117141344D01*
X138712501Y-117134151D01*
X138774855Y-117165673D01*
X138791575Y-117184968D01*
X138921894Y-117371082D01*
X139088917Y-117538105D01*
X139282421Y-117673600D01*
X139496507Y-117773429D01*
X139496516Y-117773433D01*
X139710000Y-117830634D01*
X139710000Y-116935501D01*
X139817685Y-116984680D01*
X139924237Y-117000000D01*
X139995763Y-117000000D01*
X140102315Y-116984680D01*
X140210000Y-116935501D01*
X140210000Y-117830633D01*
X140423483Y-117773433D01*
X140423492Y-117773429D01*
X140637578Y-117673600D01*
X140831082Y-117538105D01*
X140998105Y-117371082D01*
X141128425Y-117184968D01*
X141183002Y-117141344D01*
X141252501Y-117134151D01*
X141314855Y-117165673D01*
X141331575Y-117184968D01*
X141461894Y-117371082D01*
X141628917Y-117538105D01*
X141822421Y-117673600D01*
X142036507Y-117773429D01*
X142036516Y-117773433D01*
X142250000Y-117830634D01*
X142250000Y-116935501D01*
X142357685Y-116984680D01*
X142464237Y-117000000D01*
X142535763Y-117000000D01*
X142642315Y-116984680D01*
X142750000Y-116935501D01*
X142750000Y-117830633D01*
X142963483Y-117773433D01*
X142963492Y-117773429D01*
X143177578Y-117673600D01*
X143371082Y-117538105D01*
X143538105Y-117371082D01*
X143668119Y-117185405D01*
X143722696Y-117141781D01*
X143792195Y-117134588D01*
X143854549Y-117166110D01*
X143871269Y-117185405D01*
X144001505Y-117371401D01*
X144168599Y-117538495D01*
X144265384Y-117606265D01*
X144362165Y-117674032D01*
X144362167Y-117674033D01*
X144362170Y-117674035D01*
X144576337Y-117773903D01*
X144804592Y-117835063D01*
X144992918Y-117851539D01*
X145039999Y-117855659D01*
X145040000Y-117855659D01*
X145040001Y-117855659D01*
X145079234Y-117852226D01*
X145275408Y-117835063D01*
X145503663Y-117773903D01*
X145717830Y-117674035D01*
X145911401Y-117538495D01*
X146078495Y-117371401D01*
X146208425Y-117185842D01*
X146263002Y-117142217D01*
X146332500Y-117135023D01*
X146394855Y-117166546D01*
X146411575Y-117185842D01*
X146541500Y-117371395D01*
X146541505Y-117371401D01*
X146708599Y-117538495D01*
X146805384Y-117606265D01*
X146902165Y-117674032D01*
X146902167Y-117674033D01*
X146902170Y-117674035D01*
X147116337Y-117773903D01*
X147344592Y-117835063D01*
X147532918Y-117851539D01*
X147579999Y-117855659D01*
X147580000Y-117855659D01*
X147580001Y-117855659D01*
X147619234Y-117852226D01*
X147815408Y-117835063D01*
X148043663Y-117773903D01*
X148257830Y-117674035D01*
X148451401Y-117538495D01*
X148618495Y-117371401D01*
X148748425Y-117185842D01*
X148803002Y-117142217D01*
X148872500Y-117135023D01*
X148934855Y-117166546D01*
X148951575Y-117185842D01*
X149081500Y-117371395D01*
X149081505Y-117371401D01*
X149248599Y-117538495D01*
X149345384Y-117606265D01*
X149442165Y-117674032D01*
X149442167Y-117674033D01*
X149442170Y-117674035D01*
X149656337Y-117773903D01*
X149884592Y-117835063D01*
X150072918Y-117851539D01*
X150119999Y-117855659D01*
X150120000Y-117855659D01*
X150120001Y-117855659D01*
X150159234Y-117852226D01*
X150355408Y-117835063D01*
X150583663Y-117773903D01*
X150797830Y-117674035D01*
X150991401Y-117538495D01*
X151158495Y-117371401D01*
X151294035Y-117177830D01*
X151393903Y-116963663D01*
X151455063Y-116735408D01*
X151475659Y-116500000D01*
X151455063Y-116264592D01*
X151393903Y-116036337D01*
X151294035Y-115822171D01*
X151288731Y-115814595D01*
X151158494Y-115628597D01*
X150991402Y-115461506D01*
X150991401Y-115461505D01*
X150822748Y-115343413D01*
X150805405Y-115331269D01*
X150761781Y-115276692D01*
X150754588Y-115207193D01*
X150786110Y-115144839D01*
X150805405Y-115128119D01*
X150991082Y-114998105D01*
X151158105Y-114831082D01*
X151293600Y-114637578D01*
X151393429Y-114423492D01*
X151393432Y-114423486D01*
X151450636Y-114210000D01*
X150553686Y-114210000D01*
X150579493Y-114169844D01*
X150620000Y-114031889D01*
X150620000Y-113888111D01*
X150579493Y-113750156D01*
X150553686Y-113710000D01*
X151450636Y-113710000D01*
X151450635Y-113709999D01*
X151393432Y-113496513D01*
X151393429Y-113496507D01*
X151293600Y-113282422D01*
X151293599Y-113282420D01*
X151158113Y-113088926D01*
X151158108Y-113088920D01*
X150991082Y-112921894D01*
X150797578Y-112786399D01*
X150583492Y-112686570D01*
X150583486Y-112686567D01*
X150370000Y-112629364D01*
X150370000Y-113524498D01*
X150262315Y-113475320D01*
X150155763Y-113460000D01*
X150084237Y-113460000D01*
X149977685Y-113475320D01*
X149870000Y-113524498D01*
X149870000Y-112629364D01*
X149869999Y-112629364D01*
X149656513Y-112686567D01*
X149656507Y-112686570D01*
X149442422Y-112786399D01*
X149442420Y-112786400D01*
X149248926Y-112921886D01*
X149248920Y-112921891D01*
X149081891Y-113088920D01*
X149081890Y-113088922D01*
X148951880Y-113274595D01*
X148897303Y-113318219D01*
X148827804Y-113325412D01*
X148765450Y-113293890D01*
X148748730Y-113274594D01*
X148618494Y-113088597D01*
X148451402Y-112921506D01*
X148451395Y-112921501D01*
X148257834Y-112785967D01*
X148257830Y-112785965D01*
X148257828Y-112785964D01*
X148043663Y-112686097D01*
X148043659Y-112686096D01*
X148043655Y-112686094D01*
X147815413Y-112624938D01*
X147815403Y-112624936D01*
X147580001Y-112604341D01*
X147579999Y-112604341D01*
X147344596Y-112624936D01*
X147344586Y-112624938D01*
X147116344Y-112686094D01*
X147116335Y-112686098D01*
X146902171Y-112785964D01*
X146902169Y-112785965D01*
X146708597Y-112921505D01*
X146541508Y-113088594D01*
X146411269Y-113274595D01*
X146356692Y-113318219D01*
X146287193Y-113325412D01*
X146224839Y-113293890D01*
X146208119Y-113274594D01*
X146078113Y-113088926D01*
X146078108Y-113088920D01*
X145911082Y-112921894D01*
X145717578Y-112786399D01*
X145503492Y-112686570D01*
X145503486Y-112686567D01*
X145290000Y-112629364D01*
X145290000Y-113524498D01*
X145182315Y-113475320D01*
X145075763Y-113460000D01*
X145004237Y-113460000D01*
X144897685Y-113475320D01*
X144790000Y-113524498D01*
X144790000Y-112629364D01*
X144789999Y-112629364D01*
X144576513Y-112686567D01*
X144576507Y-112686570D01*
X144362422Y-112786399D01*
X144362420Y-112786400D01*
X144168926Y-112921886D01*
X144168920Y-112921891D01*
X144001891Y-113088920D01*
X144001890Y-113088922D01*
X143871880Y-113274595D01*
X143817303Y-113318219D01*
X143747804Y-113325412D01*
X143685450Y-113293890D01*
X143668730Y-113274594D01*
X143538494Y-113088597D01*
X143371402Y-112921506D01*
X143371395Y-112921501D01*
X143177834Y-112785967D01*
X143177830Y-112785965D01*
X143177828Y-112785964D01*
X142963663Y-112686097D01*
X142963659Y-112686096D01*
X142963655Y-112686094D01*
X142735413Y-112624938D01*
X142735403Y-112624936D01*
X142500001Y-112604341D01*
X142499999Y-112604341D01*
X142264596Y-112624936D01*
X142264586Y-112624938D01*
X142036344Y-112686094D01*
X142036335Y-112686098D01*
X141822171Y-112785964D01*
X141822169Y-112785965D01*
X141628597Y-112921505D01*
X141461505Y-113088597D01*
X141331575Y-113274158D01*
X141276998Y-113317783D01*
X141207500Y-113324977D01*
X141145145Y-113293454D01*
X141128425Y-113274158D01*
X140998494Y-113088597D01*
X140831402Y-112921506D01*
X140831395Y-112921501D01*
X140637834Y-112785967D01*
X140637830Y-112785965D01*
X140637828Y-112785964D01*
X140423663Y-112686097D01*
X140423659Y-112686096D01*
X140423655Y-112686094D01*
X140195413Y-112624938D01*
X140195403Y-112624936D01*
X139960001Y-112604341D01*
X139959999Y-112604341D01*
X139724596Y-112624936D01*
X139724586Y-112624938D01*
X139496344Y-112686094D01*
X139496335Y-112686098D01*
X139282171Y-112785964D01*
X139282169Y-112785965D01*
X139088600Y-112921503D01*
X138966673Y-113043430D01*
X138905350Y-113076914D01*
X138835658Y-113071930D01*
X138779725Y-113030058D01*
X138762810Y-112999081D01*
X138713797Y-112867671D01*
X138713793Y-112867664D01*
X138627547Y-112752455D01*
X138627544Y-112752452D01*
X138512335Y-112666206D01*
X138512328Y-112666202D01*
X138377482Y-112615908D01*
X138377483Y-112615908D01*
X138317883Y-112609501D01*
X138317881Y-112609500D01*
X138317873Y-112609500D01*
X138317865Y-112609500D01*
X136574451Y-112609500D01*
X136507412Y-112589815D01*
X136461657Y-112537011D01*
X136451713Y-112467853D01*
X136480738Y-112404297D01*
X136486756Y-112397833D01*
X139624711Y-109259878D01*
X139686032Y-109226395D01*
X139755724Y-109231379D01*
X139811657Y-109273251D01*
X139824772Y-109295156D01*
X139895965Y-109447830D01*
X139895967Y-109447834D01*
X139980131Y-109568032D01*
X140031505Y-109641401D01*
X140198599Y-109808495D01*
X140288429Y-109871395D01*
X140392165Y-109944032D01*
X140392167Y-109944033D01*
X140392170Y-109944035D01*
X140606337Y-110043903D01*
X140834592Y-110105063D01*
X141011034Y-110120500D01*
X141069999Y-110125659D01*
X141070000Y-110125659D01*
X141070001Y-110125659D01*
X141128966Y-110120500D01*
X141305408Y-110105063D01*
X141533663Y-110043903D01*
X141747830Y-109944035D01*
X141941401Y-109808495D01*
X142063329Y-109686566D01*
X142124648Y-109653084D01*
X142194340Y-109658068D01*
X142250274Y-109699939D01*
X142267189Y-109730917D01*
X142316202Y-109862328D01*
X142316206Y-109862335D01*
X142402452Y-109977544D01*
X142402455Y-109977547D01*
X142517664Y-110063793D01*
X142517671Y-110063797D01*
X142652517Y-110114091D01*
X142652516Y-110114091D01*
X142659444Y-110114835D01*
X142712127Y-110120500D01*
X144507872Y-110120499D01*
X144567483Y-110114091D01*
X144702331Y-110063796D01*
X144817546Y-109977546D01*
X144903796Y-109862331D01*
X144952810Y-109730916D01*
X144994681Y-109674984D01*
X145060145Y-109650566D01*
X145128418Y-109665417D01*
X145156673Y-109686569D01*
X145278599Y-109808495D01*
X145368429Y-109871395D01*
X145472165Y-109944032D01*
X145472167Y-109944033D01*
X145472170Y-109944035D01*
X145686337Y-110043903D01*
X145914592Y-110105063D01*
X146091034Y-110120500D01*
X146149999Y-110125659D01*
X146150000Y-110125659D01*
X146150001Y-110125659D01*
X146208966Y-110120500D01*
X146385408Y-110105063D01*
X146613663Y-110043903D01*
X146827830Y-109944035D01*
X147021401Y-109808495D01*
X147188495Y-109641401D01*
X147324035Y-109447830D01*
X147423903Y-109233663D01*
X147485063Y-109005408D01*
X147505659Y-108770000D01*
X147485063Y-108534592D01*
X147423903Y-108306337D01*
X147324035Y-108092171D01*
X147232540Y-107961501D01*
X147188494Y-107898597D01*
X147021402Y-107731506D01*
X147021395Y-107731501D01*
X147019251Y-107730000D01*
X146944518Y-107677671D01*
X146827834Y-107595967D01*
X146827830Y-107595965D01*
X146827828Y-107595964D01*
X146613663Y-107496097D01*
X146613659Y-107496096D01*
X146613655Y-107496094D01*
X146385413Y-107434938D01*
X146385403Y-107434936D01*
X146150001Y-107414341D01*
X146149999Y-107414341D01*
X145914596Y-107434936D01*
X145914586Y-107434938D01*
X145686344Y-107496094D01*
X145686335Y-107496098D01*
X145472171Y-107595964D01*
X145472169Y-107595965D01*
X145278600Y-107731503D01*
X145156673Y-107853430D01*
X145095350Y-107886914D01*
X145025658Y-107881930D01*
X144969725Y-107840058D01*
X144952810Y-107809081D01*
X144903797Y-107677671D01*
X144903793Y-107677664D01*
X144817547Y-107562455D01*
X144817544Y-107562452D01*
X144702335Y-107476206D01*
X144702328Y-107476202D01*
X144567482Y-107425908D01*
X144567483Y-107425908D01*
X144507883Y-107419501D01*
X144507881Y-107419500D01*
X144507873Y-107419500D01*
X144507864Y-107419500D01*
X142712129Y-107419500D01*
X142712123Y-107419501D01*
X142652516Y-107425908D01*
X142517671Y-107476202D01*
X142517664Y-107476206D01*
X142402455Y-107562452D01*
X142402452Y-107562455D01*
X142316206Y-107677664D01*
X142316203Y-107677669D01*
X142267189Y-107809083D01*
X142225317Y-107865016D01*
X142159853Y-107889433D01*
X142091580Y-107874581D01*
X142063326Y-107853430D01*
X141941402Y-107731506D01*
X141941395Y-107731501D01*
X141939251Y-107730000D01*
X141864518Y-107677671D01*
X141747834Y-107595967D01*
X141747830Y-107595965D01*
X141675968Y-107562455D01*
X141595155Y-107524771D01*
X141542717Y-107478600D01*
X141523565Y-107411406D01*
X141543781Y-107344525D01*
X141559875Y-107324714D01*
X144383788Y-104500801D01*
X144396042Y-104490986D01*
X144395859Y-104490764D01*
X144401868Y-104485791D01*
X144401877Y-104485786D01*
X144447949Y-104436722D01*
X144450566Y-104434023D01*
X144470120Y-104414471D01*
X144472576Y-104411303D01*
X144480156Y-104402427D01*
X144510062Y-104370582D01*
X144519715Y-104353020D01*
X144530389Y-104336770D01*
X144542673Y-104320936D01*
X144560019Y-104280850D01*
X144565157Y-104270362D01*
X144586196Y-104232093D01*
X144586197Y-104232092D01*
X144591177Y-104212691D01*
X144597478Y-104194288D01*
X144605438Y-104175896D01*
X144612272Y-104132741D01*
X144614635Y-104121331D01*
X144625500Y-104079019D01*
X144625500Y-104058983D01*
X144627027Y-104039582D01*
X144630160Y-104019804D01*
X144626050Y-103976324D01*
X144625500Y-103964655D01*
X144625500Y-79710452D01*
X144645185Y-79643413D01*
X144661819Y-79622771D01*
X150932660Y-73351930D01*
X150993983Y-73318445D01*
X151063675Y-73323429D01*
X151119608Y-73365301D01*
X151144025Y-73430765D01*
X151144341Y-73439611D01*
X151144341Y-73440000D01*
X151164936Y-73675403D01*
X151164938Y-73675413D01*
X151226094Y-73903655D01*
X151226096Y-73903659D01*
X151226097Y-73903663D01*
X151325965Y-74117830D01*
X151325967Y-74117834D01*
X151461501Y-74311395D01*
X151461506Y-74311402D01*
X151628597Y-74478493D01*
X151628603Y-74478498D01*
X151814158Y-74608425D01*
X151857783Y-74663002D01*
X151864977Y-74732500D01*
X151833454Y-74794855D01*
X151814158Y-74811575D01*
X151628597Y-74941505D01*
X151461505Y-75108597D01*
X151325965Y-75302169D01*
X151325964Y-75302171D01*
X151226098Y-75516335D01*
X151226094Y-75516344D01*
X151164938Y-75744586D01*
X151164936Y-75744596D01*
X151144341Y-75979999D01*
X151144341Y-75980000D01*
X151164936Y-76215403D01*
X151164938Y-76215413D01*
X151226094Y-76443655D01*
X151226096Y-76443659D01*
X151226097Y-76443663D01*
X151316639Y-76637830D01*
X151325965Y-76657830D01*
X151325967Y-76657834D01*
X151434281Y-76812521D01*
X151461501Y-76851396D01*
X151461506Y-76851402D01*
X151583430Y-76973326D01*
X151616915Y-77034649D01*
X151611931Y-77104341D01*
X151570059Y-77160274D01*
X151539083Y-77177189D01*
X151407669Y-77226203D01*
X151407664Y-77226206D01*
X151292455Y-77312452D01*
X151292452Y-77312455D01*
X151206206Y-77427664D01*
X151206202Y-77427671D01*
X151155908Y-77562517D01*
X151149501Y-77622116D01*
X151149501Y-77622123D01*
X151149500Y-77622135D01*
X151149500Y-79417870D01*
X151149501Y-79417876D01*
X151155908Y-79477483D01*
X151206202Y-79612328D01*
X151206206Y-79612335D01*
X151292452Y-79727544D01*
X151292455Y-79727547D01*
X151407664Y-79813793D01*
X151407671Y-79813797D01*
X151539081Y-79862810D01*
X151595015Y-79904681D01*
X151619432Y-79970145D01*
X151604580Y-80038418D01*
X151583430Y-80066673D01*
X151461503Y-80188600D01*
X151325965Y-80382169D01*
X151325964Y-80382171D01*
X151226098Y-80596335D01*
X151226094Y-80596344D01*
X151164938Y-80824586D01*
X151164936Y-80824596D01*
X151144341Y-81059999D01*
X151144341Y-81060000D01*
X151164936Y-81295403D01*
X151164938Y-81295413D01*
X151226094Y-81523655D01*
X151226096Y-81523659D01*
X151226097Y-81523663D01*
X151325965Y-81737830D01*
X151325967Y-81737834D01*
X151461501Y-81931395D01*
X151461506Y-81931402D01*
X151628597Y-82098493D01*
X151628603Y-82098498D01*
X151814158Y-82228425D01*
X151857783Y-82283002D01*
X151864977Y-82352500D01*
X151833454Y-82414855D01*
X151814158Y-82431575D01*
X151628597Y-82561505D01*
X151461505Y-82728597D01*
X151325965Y-82922169D01*
X151325964Y-82922171D01*
X151226098Y-83136335D01*
X151226094Y-83136344D01*
X151164938Y-83364586D01*
X151164936Y-83364596D01*
X151144341Y-83599999D01*
X151144341Y-83600000D01*
X151164936Y-83835403D01*
X151164938Y-83835413D01*
X151226094Y-84063655D01*
X151226096Y-84063659D01*
X151226097Y-84063663D01*
X151325965Y-84277830D01*
X151325967Y-84277834D01*
X151461501Y-84471395D01*
X151461506Y-84471402D01*
X151628597Y-84638493D01*
X151628603Y-84638498D01*
X151814158Y-84768425D01*
X151857783Y-84823002D01*
X151864977Y-84892500D01*
X151833454Y-84954855D01*
X151814158Y-84971575D01*
X151628597Y-85101505D01*
X151461505Y-85268597D01*
X151325965Y-85462169D01*
X151325964Y-85462171D01*
X151226098Y-85676335D01*
X151226094Y-85676344D01*
X151164938Y-85904586D01*
X151164936Y-85904596D01*
X151144341Y-86139999D01*
X151144341Y-86140000D01*
X151164936Y-86375403D01*
X151164938Y-86375413D01*
X151226094Y-86603655D01*
X151226096Y-86603659D01*
X151226097Y-86603663D01*
X151325965Y-86817830D01*
X151325967Y-86817834D01*
X151461501Y-87011395D01*
X151461506Y-87011402D01*
X151628597Y-87178493D01*
X151628603Y-87178498D01*
X151814158Y-87308425D01*
X151857783Y-87363002D01*
X151864977Y-87432500D01*
X151833454Y-87494855D01*
X151814158Y-87511575D01*
X151628597Y-87641505D01*
X151461505Y-87808597D01*
X151325965Y-88002169D01*
X151325964Y-88002171D01*
X151226098Y-88216335D01*
X151226094Y-88216344D01*
X151164938Y-88444586D01*
X151164936Y-88444596D01*
X151144341Y-88679999D01*
X151144341Y-88680000D01*
X151164936Y-88915403D01*
X151164938Y-88915413D01*
X151226094Y-89143655D01*
X151226096Y-89143659D01*
X151226097Y-89143663D01*
X151325965Y-89357830D01*
X151325967Y-89357834D01*
X151434281Y-89512521D01*
X151461501Y-89551396D01*
X151461506Y-89551402D01*
X151583430Y-89673326D01*
X151616915Y-89734649D01*
X151611931Y-89804341D01*
X151570059Y-89860274D01*
X151539083Y-89877189D01*
X151407669Y-89926203D01*
X151407664Y-89926206D01*
X151292455Y-90012452D01*
X151292452Y-90012455D01*
X151206206Y-90127664D01*
X151206202Y-90127671D01*
X151155908Y-90262517D01*
X151149501Y-90322116D01*
X151149501Y-90322123D01*
X151149500Y-90322135D01*
X151149500Y-92117870D01*
X151149501Y-92117876D01*
X151155908Y-92177483D01*
X151206202Y-92312328D01*
X151206206Y-92312335D01*
X151292452Y-92427544D01*
X151292455Y-92427547D01*
X151407664Y-92513793D01*
X151407671Y-92513797D01*
X151539081Y-92562810D01*
X151595015Y-92604681D01*
X151619432Y-92670145D01*
X151604580Y-92738418D01*
X151583430Y-92766673D01*
X151461503Y-92888600D01*
X151325965Y-93082169D01*
X151325964Y-93082171D01*
X151226098Y-93296335D01*
X151226094Y-93296344D01*
X151164938Y-93524586D01*
X151164936Y-93524596D01*
X151144341Y-93759999D01*
X151144341Y-93760000D01*
X151164936Y-93995403D01*
X151164938Y-93995413D01*
X151226094Y-94223655D01*
X151226096Y-94223659D01*
X151226097Y-94223663D01*
X151325965Y-94437830D01*
X151325967Y-94437834D01*
X151461501Y-94631395D01*
X151461506Y-94631402D01*
X151628597Y-94798493D01*
X151628603Y-94798498D01*
X151814158Y-94928425D01*
X151857783Y-94983002D01*
X151864977Y-95052500D01*
X151833454Y-95114855D01*
X151814158Y-95131575D01*
X151628597Y-95261505D01*
X151461505Y-95428597D01*
X151325965Y-95622169D01*
X151325964Y-95622171D01*
X151226098Y-95836335D01*
X151226094Y-95836344D01*
X151164938Y-96064586D01*
X151164936Y-96064596D01*
X151144341Y-96299999D01*
X151144341Y-96300000D01*
X151164936Y-96535403D01*
X151164938Y-96535413D01*
X151226094Y-96763655D01*
X151226096Y-96763659D01*
X151226097Y-96763663D01*
X151325965Y-96977830D01*
X151325967Y-96977834D01*
X151461501Y-97171395D01*
X151461506Y-97171402D01*
X151628597Y-97338493D01*
X151628603Y-97338498D01*
X151814158Y-97468425D01*
X151857783Y-97523002D01*
X151864977Y-97592500D01*
X151833454Y-97654855D01*
X151814158Y-97671575D01*
X151628597Y-97801505D01*
X151461505Y-97968597D01*
X151325965Y-98162169D01*
X151325964Y-98162171D01*
X151226098Y-98376335D01*
X151226094Y-98376344D01*
X151164938Y-98604586D01*
X151164936Y-98604596D01*
X151144341Y-98839999D01*
X151144341Y-98840000D01*
X151164936Y-99075403D01*
X151164938Y-99075413D01*
X151226094Y-99303655D01*
X151226096Y-99303659D01*
X151226097Y-99303663D01*
X151316877Y-99498341D01*
X151325965Y-99517830D01*
X151325967Y-99517834D01*
X151461501Y-99711395D01*
X151461506Y-99711402D01*
X151628597Y-99878493D01*
X151628603Y-99878498D01*
X151814158Y-100008425D01*
X151857783Y-100063002D01*
X151864977Y-100132500D01*
X151833454Y-100194855D01*
X151814158Y-100211575D01*
X151628597Y-100341505D01*
X151461505Y-100508597D01*
X151325965Y-100702169D01*
X151325964Y-100702171D01*
X151226098Y-100916335D01*
X151226094Y-100916344D01*
X151164938Y-101144586D01*
X151164936Y-101144596D01*
X151144341Y-101379999D01*
X151144341Y-101380000D01*
X151164936Y-101615403D01*
X151164938Y-101615413D01*
X151226094Y-101843655D01*
X151226096Y-101843659D01*
X151226097Y-101843663D01*
X151301730Y-102005857D01*
X151325965Y-102057830D01*
X151325967Y-102057834D01*
X151412222Y-102181018D01*
X151461501Y-102251396D01*
X151461506Y-102251402D01*
X151583818Y-102373714D01*
X151617303Y-102435037D01*
X151612319Y-102504729D01*
X151570447Y-102560662D01*
X151539471Y-102577577D01*
X151407912Y-102626646D01*
X151407906Y-102626649D01*
X151292812Y-102712809D01*
X151292809Y-102712812D01*
X151206649Y-102827906D01*
X151206645Y-102827913D01*
X151156403Y-102962620D01*
X151156401Y-102962627D01*
X151150000Y-103022155D01*
X151150000Y-103670000D01*
X152054428Y-103670000D01*
X152031318Y-103705960D01*
X151990000Y-103846673D01*
X151990000Y-103993327D01*
X152031318Y-104134040D01*
X152054428Y-104170000D01*
X151150000Y-104170000D01*
X151150000Y-104817844D01*
X151156401Y-104877372D01*
X151156403Y-104877379D01*
X151206645Y-105012086D01*
X151206649Y-105012093D01*
X151292809Y-105127187D01*
X151292812Y-105127190D01*
X151407906Y-105213350D01*
X151407913Y-105213354D01*
X151539470Y-105262421D01*
X151595403Y-105304292D01*
X151619821Y-105369756D01*
X151604970Y-105438029D01*
X151583819Y-105466284D01*
X151461503Y-105588600D01*
X151325965Y-105782169D01*
X151325964Y-105782171D01*
X151226098Y-105996335D01*
X151226094Y-105996344D01*
X151164938Y-106224586D01*
X151164936Y-106224596D01*
X151144341Y-106459999D01*
X151144341Y-106460000D01*
X151164936Y-106695403D01*
X151164938Y-106695413D01*
X151226094Y-106923655D01*
X151226096Y-106923659D01*
X151226097Y-106923663D01*
X151276770Y-107032331D01*
X151325965Y-107137830D01*
X151325967Y-107137834D01*
X151461501Y-107331395D01*
X151461506Y-107331402D01*
X151628597Y-107498493D01*
X151628603Y-107498498D01*
X151814158Y-107628425D01*
X151857783Y-107683002D01*
X151864977Y-107752500D01*
X151833454Y-107814855D01*
X151814158Y-107831575D01*
X151628597Y-107961505D01*
X151461505Y-108128597D01*
X151325965Y-108322169D01*
X151325964Y-108322171D01*
X151226098Y-108536335D01*
X151226094Y-108536344D01*
X151164938Y-108764586D01*
X151164936Y-108764596D01*
X151144341Y-108999999D01*
X151144341Y-109000000D01*
X151164936Y-109235403D01*
X151164938Y-109235413D01*
X151226094Y-109463655D01*
X151226096Y-109463659D01*
X151226097Y-109463663D01*
X151321322Y-109667873D01*
X151325965Y-109677830D01*
X151325967Y-109677834D01*
X151417456Y-109808493D01*
X151461505Y-109871401D01*
X151628599Y-110038495D01*
X151707777Y-110093936D01*
X151822165Y-110174032D01*
X151822167Y-110174033D01*
X151822170Y-110174035D01*
X152036337Y-110273903D01*
X152264592Y-110335063D01*
X152452918Y-110351539D01*
X152499999Y-110355659D01*
X152500000Y-110355659D01*
X152500001Y-110355659D01*
X152539234Y-110352226D01*
X152735408Y-110335063D01*
X152963663Y-110273903D01*
X153177830Y-110174035D01*
X153371401Y-110038495D01*
X153538495Y-109871401D01*
X153674035Y-109677830D01*
X153773903Y-109463663D01*
X153835063Y-109235408D01*
X153855659Y-109000000D01*
X153835063Y-108764592D01*
X153773903Y-108536337D01*
X153674035Y-108322171D01*
X153561325Y-108161203D01*
X153538494Y-108128597D01*
X153371402Y-107961506D01*
X153371396Y-107961501D01*
X153185842Y-107831575D01*
X153142217Y-107776998D01*
X153135023Y-107707500D01*
X153166546Y-107645145D01*
X153185842Y-107628425D01*
X153232197Y-107595967D01*
X153371401Y-107498495D01*
X153538495Y-107331401D01*
X153674035Y-107137830D01*
X153773903Y-106923663D01*
X153835063Y-106695408D01*
X153855659Y-106460000D01*
X153835063Y-106224592D01*
X153773903Y-105996337D01*
X153674035Y-105782171D01*
X153538495Y-105588599D01*
X153416179Y-105466283D01*
X153382696Y-105404963D01*
X153387680Y-105335271D01*
X153429551Y-105279337D01*
X153460529Y-105262422D01*
X153592086Y-105213354D01*
X153592093Y-105213350D01*
X153707187Y-105127190D01*
X153707190Y-105127187D01*
X153793350Y-105012093D01*
X153793354Y-105012086D01*
X153843596Y-104877379D01*
X153843598Y-104877372D01*
X153849999Y-104817844D01*
X153850000Y-104817827D01*
X153850000Y-104170000D01*
X152945572Y-104170000D01*
X152968682Y-104134040D01*
X153010000Y-103993327D01*
X153010000Y-103846673D01*
X152968682Y-103705960D01*
X152945572Y-103670000D01*
X153850000Y-103670000D01*
X153850000Y-103022172D01*
X153849999Y-103022155D01*
X153843598Y-102962627D01*
X153843596Y-102962620D01*
X153793354Y-102827913D01*
X153793350Y-102827906D01*
X153707190Y-102712812D01*
X153707187Y-102712809D01*
X153592093Y-102626649D01*
X153592088Y-102626646D01*
X153460528Y-102577577D01*
X153404595Y-102535705D01*
X153380178Y-102470241D01*
X153395030Y-102401968D01*
X153416175Y-102373720D01*
X153538495Y-102251401D01*
X153674035Y-102057830D01*
X153773903Y-101843663D01*
X153835063Y-101615408D01*
X153855659Y-101380000D01*
X153835063Y-101144592D01*
X153773903Y-100916337D01*
X153674035Y-100702171D01*
X153548419Y-100522771D01*
X153538494Y-100508597D01*
X153371402Y-100341506D01*
X153371396Y-100341501D01*
X153185842Y-100211575D01*
X153142217Y-100156998D01*
X153135023Y-100087500D01*
X153166546Y-100025145D01*
X153185842Y-100008425D01*
X153208026Y-99992891D01*
X153371401Y-99878495D01*
X153538495Y-99711401D01*
X153674035Y-99517830D01*
X153773903Y-99303663D01*
X153835063Y-99075408D01*
X153855659Y-98840000D01*
X153855659Y-98839999D01*
X153855659Y-98839611D01*
X153855707Y-98839445D01*
X153856131Y-98834606D01*
X153857103Y-98834691D01*
X153875344Y-98772572D01*
X153928148Y-98726817D01*
X153997306Y-98716873D01*
X154060862Y-98745898D01*
X154067327Y-98751918D01*
X155000319Y-99684909D01*
X155838181Y-100522771D01*
X155871666Y-100584094D01*
X155874500Y-100610452D01*
X155874500Y-114125500D01*
X155854815Y-114192539D01*
X155802011Y-114238294D01*
X155750500Y-114249500D01*
X154657129Y-114249500D01*
X154657123Y-114249501D01*
X154597516Y-114255908D01*
X154462671Y-114306202D01*
X154462664Y-114306206D01*
X154347455Y-114392452D01*
X154347452Y-114392455D01*
X154261206Y-114507664D01*
X154261202Y-114507671D01*
X154210908Y-114642517D01*
X154204501Y-114702116D01*
X154204500Y-114702135D01*
X154204500Y-116297870D01*
X154204501Y-116297876D01*
X154210908Y-116357483D01*
X154261202Y-116492328D01*
X154261206Y-116492335D01*
X154347452Y-116607544D01*
X154347455Y-116607547D01*
X154462664Y-116693793D01*
X154462671Y-116693797D01*
X154597517Y-116744091D01*
X154597516Y-116744091D01*
X154604444Y-116744835D01*
X154657127Y-116750500D01*
X155802872Y-116750499D01*
X155862483Y-116744091D01*
X155997331Y-116693796D01*
X155997335Y-116693792D01*
X156005118Y-116689544D01*
X156006252Y-116691621D01*
X156059715Y-116671671D01*
X156104576Y-116676694D01*
X156105656Y-116677021D01*
X156105659Y-116677023D01*
X156298967Y-116735662D01*
X156500000Y-116755462D01*
X156701033Y-116735662D01*
X156894341Y-116677023D01*
X157072494Y-116581798D01*
X157072498Y-116581794D01*
X157076546Y-116579631D01*
X157144949Y-116565389D01*
X157193454Y-116579631D01*
X157197502Y-116581794D01*
X157197506Y-116581798D01*
X157375659Y-116677023D01*
X157568967Y-116735662D01*
X157770000Y-116755462D01*
X157971033Y-116735662D01*
X158164341Y-116677023D01*
X158342494Y-116581798D01*
X158498647Y-116453647D01*
X158626798Y-116297494D01*
X158722023Y-116119341D01*
X158780662Y-115926033D01*
X158795500Y-115775380D01*
X158795500Y-115224620D01*
X158780662Y-115073967D01*
X158780153Y-115072290D01*
X158775839Y-115058065D01*
X158770500Y-115022072D01*
X158770500Y-109000000D01*
X159894592Y-109000000D01*
X159914201Y-109286680D01*
X159972666Y-109568034D01*
X159972667Y-109568037D01*
X160068894Y-109838793D01*
X160068893Y-109838793D01*
X160201098Y-110093935D01*
X160366812Y-110328700D01*
X160397698Y-110361770D01*
X160562947Y-110538708D01*
X160785853Y-110720055D01*
X161023447Y-110864540D01*
X161031382Y-110869365D01*
X161180919Y-110934317D01*
X161294942Y-110983844D01*
X161571642Y-111061371D01*
X161821920Y-111095771D01*
X161856321Y-111100500D01*
X161856322Y-111100500D01*
X162143679Y-111100500D01*
X162174370Y-111096281D01*
X162428358Y-111061371D01*
X162705058Y-110983844D01*
X162819081Y-110934317D01*
X162968617Y-110869365D01*
X162968620Y-110869363D01*
X162968625Y-110869361D01*
X163214147Y-110720055D01*
X163437053Y-110538708D01*
X163633189Y-110328698D01*
X163798901Y-110093936D01*
X163931104Y-109838797D01*
X164027334Y-109568032D01*
X164085798Y-109286686D01*
X164105408Y-109000000D01*
X164085798Y-108713314D01*
X164027334Y-108431968D01*
X163931105Y-108161206D01*
X163931106Y-108161206D01*
X163798901Y-107906064D01*
X163633187Y-107671299D01*
X163472397Y-107499136D01*
X163441025Y-107436705D01*
X163448385Y-107367224D01*
X163492142Y-107312753D01*
X163558402Y-107290585D01*
X163563020Y-107290499D01*
X163647871Y-107290499D01*
X163647872Y-107290499D01*
X163707483Y-107284091D01*
X163842331Y-107233796D01*
X163957546Y-107147546D01*
X164043796Y-107032331D01*
X164094091Y-106897483D01*
X164100500Y-106837873D01*
X164100499Y-103542128D01*
X164094091Y-103482517D01*
X164072872Y-103425627D01*
X164043797Y-103347671D01*
X164043793Y-103347664D01*
X163957547Y-103232455D01*
X163957544Y-103232452D01*
X163842335Y-103146206D01*
X163842328Y-103146202D01*
X163707482Y-103095908D01*
X163707483Y-103095908D01*
X163647883Y-103089501D01*
X163647881Y-103089500D01*
X163647873Y-103089500D01*
X163647864Y-103089500D01*
X160352129Y-103089500D01*
X160352123Y-103089501D01*
X160292516Y-103095908D01*
X160157671Y-103146202D01*
X160157664Y-103146206D01*
X160042455Y-103232452D01*
X160042452Y-103232455D01*
X159956206Y-103347664D01*
X159956202Y-103347671D01*
X159905908Y-103482517D01*
X159905475Y-103486549D01*
X159899501Y-103542123D01*
X159899500Y-103542135D01*
X159899500Y-106837870D01*
X159899501Y-106837876D01*
X159905908Y-106897483D01*
X159956202Y-107032328D01*
X159956206Y-107032335D01*
X160042452Y-107147544D01*
X160042455Y-107147547D01*
X160157664Y-107233793D01*
X160157671Y-107233797D01*
X160202618Y-107250561D01*
X160292517Y-107284091D01*
X160352127Y-107290500D01*
X160436980Y-107290499D01*
X160504017Y-107310183D01*
X160549773Y-107362986D01*
X160559717Y-107432145D01*
X160530693Y-107495701D01*
X160527603Y-107499136D01*
X160366809Y-107671304D01*
X160201098Y-107906064D01*
X160068894Y-108161206D01*
X159972667Y-108431962D01*
X159972666Y-108431965D01*
X159914201Y-108713319D01*
X159894592Y-109000000D01*
X158770500Y-109000000D01*
X158770500Y-66024237D01*
X158770540Y-66021095D01*
X158772756Y-65933642D01*
X158772755Y-65933641D01*
X158772756Y-65933636D01*
X158762345Y-65875554D01*
X158761042Y-65866260D01*
X158755074Y-65807562D01*
X158753396Y-65802214D01*
X158745967Y-65778536D01*
X158742224Y-65763287D01*
X158736858Y-65733348D01*
X158714976Y-65678567D01*
X158711822Y-65669709D01*
X158694159Y-65613412D01*
X158694158Y-65613411D01*
X158694157Y-65613406D01*
X158679396Y-65586814D01*
X158672659Y-65572629D01*
X158661378Y-65544385D01*
X158661375Y-65544380D01*
X158628918Y-65495131D01*
X158624036Y-65487074D01*
X158595409Y-65435498D01*
X158575588Y-65412410D01*
X158566144Y-65399885D01*
X158549402Y-65374481D01*
X158507692Y-65332771D01*
X158501300Y-65325875D01*
X158462866Y-65281105D01*
X158438804Y-65262479D01*
X158427026Y-65252105D01*
X153881890Y-60706969D01*
X153848405Y-60645646D01*
X153846043Y-60630095D01*
X153844762Y-60615454D01*
X153835063Y-60504592D01*
X153773903Y-60276337D01*
X153674035Y-60062171D01*
X153649196Y-60026696D01*
X153538494Y-59868597D01*
X153371402Y-59701506D01*
X153371395Y-59701501D01*
X153368297Y-59699332D01*
X153332111Y-59673994D01*
X153177834Y-59565967D01*
X153177830Y-59565965D01*
X153138502Y-59547626D01*
X152963663Y-59466097D01*
X152963659Y-59466096D01*
X152963655Y-59466094D01*
X152735413Y-59404938D01*
X152735403Y-59404936D01*
X152500001Y-59384341D01*
X152499999Y-59384341D01*
X152264596Y-59404936D01*
X152264586Y-59404938D01*
X152036344Y-59466094D01*
X152036335Y-59466098D01*
X151822171Y-59565964D01*
X151822169Y-59565965D01*
X151628597Y-59701505D01*
X151461505Y-59868597D01*
X151325965Y-60062169D01*
X151325964Y-60062171D01*
X151226098Y-60276335D01*
X151226094Y-60276344D01*
X151164938Y-60504586D01*
X151164936Y-60504596D01*
X151144341Y-60739999D01*
X151144341Y-60740000D01*
X151164936Y-60975403D01*
X151164938Y-60975413D01*
X151226094Y-61203655D01*
X151226096Y-61203659D01*
X151226097Y-61203663D01*
X151314887Y-61394074D01*
X151325965Y-61417830D01*
X151325967Y-61417834D01*
X151393466Y-61514232D01*
X151458388Y-61606950D01*
X151461501Y-61611395D01*
X151461506Y-61611402D01*
X151628597Y-61778493D01*
X151628603Y-61778498D01*
X151814158Y-61908425D01*
X151857783Y-61963002D01*
X151864977Y-62032500D01*
X151833454Y-62094855D01*
X151814158Y-62111575D01*
X151628597Y-62241505D01*
X151461505Y-62408597D01*
X151325965Y-62602169D01*
X151325964Y-62602171D01*
X151226098Y-62816335D01*
X151226094Y-62816344D01*
X151164938Y-63044586D01*
X151164936Y-63044596D01*
X151144341Y-63279999D01*
X151144341Y-63280000D01*
X151164936Y-63515403D01*
X151164938Y-63515413D01*
X151226094Y-63743655D01*
X151226096Y-63743659D01*
X151226097Y-63743663D01*
X151315204Y-63934752D01*
X151325965Y-63957830D01*
X151325967Y-63957834D01*
X151403483Y-64068537D01*
X151461501Y-64151396D01*
X151461506Y-64151402D01*
X151583818Y-64273714D01*
X151617303Y-64335037D01*
X151612319Y-64404729D01*
X151570447Y-64460662D01*
X151539471Y-64477577D01*
X151407912Y-64526646D01*
X151407906Y-64526649D01*
X151292812Y-64612809D01*
X151292809Y-64612812D01*
X151206649Y-64727906D01*
X151206645Y-64727913D01*
X151156403Y-64862620D01*
X151156401Y-64862627D01*
X151150000Y-64922155D01*
X151150000Y-65570000D01*
X152054428Y-65570000D01*
X152031318Y-65605960D01*
X151990000Y-65746673D01*
X151990000Y-65893327D01*
X152031318Y-66034040D01*
X152054428Y-66070000D01*
X151150000Y-66070000D01*
X151150000Y-66717844D01*
X151156401Y-66777372D01*
X151156403Y-66777379D01*
X151206645Y-66912086D01*
X151206649Y-66912093D01*
X151292809Y-67027187D01*
X151292812Y-67027190D01*
X151407906Y-67113350D01*
X151407913Y-67113354D01*
X151539470Y-67162421D01*
X151595403Y-67204292D01*
X151619821Y-67269756D01*
X151604970Y-67338029D01*
X151583819Y-67366284D01*
X151461503Y-67488600D01*
X151325965Y-67682169D01*
X151325964Y-67682171D01*
X151226098Y-67896335D01*
X151226094Y-67896344D01*
X151164938Y-68124586D01*
X151164936Y-68124596D01*
X151144341Y-68359999D01*
X151144341Y-68360000D01*
X151164936Y-68595403D01*
X151164938Y-68595413D01*
X151226094Y-68823655D01*
X151226096Y-68823659D01*
X151226097Y-68823663D01*
X151325965Y-69037830D01*
X151325967Y-69037834D01*
X151461501Y-69231395D01*
X151461506Y-69231402D01*
X151628597Y-69398493D01*
X151628603Y-69398498D01*
X151814158Y-69528425D01*
X151857783Y-69583002D01*
X151864977Y-69652500D01*
X151833454Y-69714855D01*
X151814158Y-69731575D01*
X151628597Y-69861505D01*
X151461505Y-70028597D01*
X151325965Y-70222169D01*
X151325964Y-70222171D01*
X151226098Y-70436335D01*
X151226094Y-70436344D01*
X151164938Y-70664586D01*
X151164936Y-70664596D01*
X151144341Y-70899999D01*
X151144341Y-70900000D01*
X151164937Y-71135408D01*
X151191855Y-71235873D01*
X151190192Y-71305723D01*
X151159761Y-71355646D01*
X143616208Y-78899199D01*
X143603951Y-78909020D01*
X143604134Y-78909241D01*
X143598122Y-78914214D01*
X143552098Y-78963223D01*
X143549391Y-78966016D01*
X143529889Y-78985517D01*
X143529875Y-78985534D01*
X143527407Y-78988715D01*
X143519843Y-78997570D01*
X143489937Y-79029418D01*
X143489936Y-79029420D01*
X143480284Y-79046976D01*
X143469610Y-79063226D01*
X143457329Y-79079061D01*
X143457324Y-79079068D01*
X143439975Y-79119158D01*
X143434838Y-79129644D01*
X143413803Y-79167906D01*
X143408822Y-79187307D01*
X143402521Y-79205710D01*
X143394562Y-79224102D01*
X143394561Y-79224105D01*
X143387728Y-79267243D01*
X143385360Y-79278674D01*
X143374501Y-79320971D01*
X143374500Y-79320982D01*
X143374500Y-79341016D01*
X143372973Y-79360415D01*
X143369840Y-79380194D01*
X143369840Y-79380195D01*
X143373950Y-79423674D01*
X143374500Y-79435343D01*
X143374500Y-102005857D01*
X143354815Y-102072896D01*
X143302011Y-102118651D01*
X143232853Y-102128595D01*
X143224720Y-102127147D01*
X143094647Y-102099500D01*
X143094646Y-102099500D01*
X142905354Y-102099500D01*
X142872897Y-102106398D01*
X142720197Y-102138855D01*
X142720192Y-102138857D01*
X142547270Y-102215848D01*
X142547265Y-102215851D01*
X142394129Y-102327111D01*
X142267466Y-102467785D01*
X142172821Y-102631715D01*
X142172818Y-102631722D01*
X142114327Y-102811740D01*
X142114326Y-102811744D01*
X142112627Y-102827913D01*
X142096679Y-102979649D01*
X142070094Y-103044263D01*
X142061039Y-103054368D01*
X136266889Y-108848518D01*
X136205566Y-108882003D01*
X136135874Y-108877019D01*
X136079941Y-108835147D01*
X136055680Y-108771645D01*
X136055063Y-108764596D01*
X136055063Y-108764592D01*
X135993903Y-108536337D01*
X135894035Y-108322171D01*
X135781325Y-108161203D01*
X135758494Y-108128597D01*
X135591402Y-107961506D01*
X135591396Y-107961501D01*
X135405842Y-107831575D01*
X135362217Y-107776998D01*
X135355023Y-107707500D01*
X135386546Y-107645145D01*
X135405842Y-107628425D01*
X135452197Y-107595967D01*
X135591401Y-107498495D01*
X135758495Y-107331401D01*
X135894035Y-107137830D01*
X135993903Y-106923663D01*
X136055063Y-106695408D01*
X136075659Y-106460000D01*
X136055063Y-106224592D01*
X135993903Y-105996337D01*
X135894035Y-105782171D01*
X135758495Y-105588599D01*
X135636179Y-105466283D01*
X135602696Y-105404963D01*
X135607680Y-105335271D01*
X135649551Y-105279337D01*
X135680529Y-105262422D01*
X135812086Y-105213354D01*
X135812093Y-105213350D01*
X135927187Y-105127190D01*
X135927190Y-105127187D01*
X136013350Y-105012093D01*
X136013354Y-105012086D01*
X136063596Y-104877379D01*
X136063598Y-104877372D01*
X136069999Y-104817844D01*
X136070000Y-104817827D01*
X136070000Y-104170000D01*
X135165572Y-104170000D01*
X135188682Y-104134040D01*
X135230000Y-103993327D01*
X135230000Y-103846673D01*
X135188682Y-103705960D01*
X135165572Y-103670000D01*
X136070000Y-103670000D01*
X136070000Y-103022172D01*
X136069999Y-103022155D01*
X136063598Y-102962627D01*
X136063596Y-102962620D01*
X136013354Y-102827913D01*
X136013350Y-102827906D01*
X135927190Y-102712812D01*
X135927187Y-102712809D01*
X135812093Y-102626649D01*
X135812088Y-102626646D01*
X135680528Y-102577577D01*
X135624595Y-102535705D01*
X135600178Y-102470241D01*
X135615030Y-102401968D01*
X135636175Y-102373720D01*
X135758495Y-102251401D01*
X135894035Y-102057830D01*
X135993903Y-101843663D01*
X136055063Y-101615408D01*
X136075659Y-101380000D01*
X136055063Y-101144592D01*
X135993903Y-100916337D01*
X135894035Y-100702171D01*
X135768419Y-100522771D01*
X135758494Y-100508597D01*
X135591402Y-100341506D01*
X135591396Y-100341501D01*
X135405842Y-100211575D01*
X135362217Y-100156998D01*
X135355023Y-100087500D01*
X135386546Y-100025145D01*
X135405842Y-100008425D01*
X135428026Y-99992891D01*
X135591401Y-99878495D01*
X135758495Y-99711401D01*
X135894035Y-99517830D01*
X135993903Y-99303663D01*
X136055063Y-99075408D01*
X136075659Y-98840000D01*
X136075610Y-98839445D01*
X136067426Y-98745898D01*
X136055063Y-98604592D01*
X135993903Y-98376337D01*
X135894035Y-98162171D01*
X135758495Y-97968599D01*
X135758494Y-97968597D01*
X135591402Y-97801506D01*
X135591396Y-97801501D01*
X135405842Y-97671575D01*
X135362217Y-97616998D01*
X135355023Y-97547500D01*
X135386546Y-97485145D01*
X135405842Y-97468425D01*
X135428026Y-97452891D01*
X135591401Y-97338495D01*
X135758495Y-97171401D01*
X135894035Y-96977830D01*
X135993903Y-96763663D01*
X136055063Y-96535408D01*
X136075659Y-96300000D01*
X136055063Y-96064592D01*
X135993903Y-95836337D01*
X135894035Y-95622171D01*
X135758495Y-95428599D01*
X135758494Y-95428597D01*
X135591402Y-95261506D01*
X135591396Y-95261501D01*
X135405842Y-95131575D01*
X135362217Y-95076998D01*
X135355023Y-95007500D01*
X135386546Y-94945145D01*
X135405842Y-94928425D01*
X135428026Y-94912891D01*
X135591401Y-94798495D01*
X135758495Y-94631401D01*
X135894035Y-94437830D01*
X135993903Y-94223663D01*
X136055063Y-93995408D01*
X136075659Y-93760000D01*
X136055063Y-93524592D01*
X135993903Y-93296337D01*
X135894035Y-93082171D01*
X135758495Y-92888599D01*
X135636567Y-92766671D01*
X135603084Y-92705351D01*
X135608068Y-92635659D01*
X135649939Y-92579725D01*
X135680915Y-92562810D01*
X135812331Y-92513796D01*
X135927546Y-92427546D01*
X136013796Y-92312331D01*
X136064091Y-92177483D01*
X136070500Y-92117873D01*
X136070499Y-90322128D01*
X136064091Y-90262517D01*
X136013796Y-90127669D01*
X136013795Y-90127668D01*
X136013793Y-90127664D01*
X135927547Y-90012455D01*
X135927544Y-90012452D01*
X135812335Y-89926206D01*
X135812328Y-89926202D01*
X135680917Y-89877189D01*
X135624983Y-89835318D01*
X135600566Y-89769853D01*
X135615418Y-89701580D01*
X135636563Y-89673332D01*
X135758495Y-89551401D01*
X135894035Y-89357830D01*
X135993903Y-89143663D01*
X136055063Y-88915408D01*
X136075659Y-88680000D01*
X136055063Y-88444592D01*
X135993903Y-88216337D01*
X135894035Y-88002171D01*
X135758495Y-87808599D01*
X135758494Y-87808597D01*
X135591402Y-87641506D01*
X135591396Y-87641501D01*
X135405842Y-87511575D01*
X135362217Y-87456998D01*
X135355023Y-87387500D01*
X135386546Y-87325145D01*
X135405842Y-87308425D01*
X135428026Y-87292891D01*
X135591401Y-87178495D01*
X135758495Y-87011401D01*
X135894035Y-86817830D01*
X135993903Y-86603663D01*
X136055063Y-86375408D01*
X136075659Y-86140000D01*
X136055063Y-85904592D01*
X135993903Y-85676337D01*
X135894035Y-85462171D01*
X135758495Y-85268599D01*
X135758494Y-85268597D01*
X135591402Y-85101506D01*
X135591396Y-85101501D01*
X135405842Y-84971575D01*
X135362217Y-84916998D01*
X135355023Y-84847500D01*
X135386546Y-84785145D01*
X135405842Y-84768425D01*
X135428026Y-84752891D01*
X135591401Y-84638495D01*
X135758495Y-84471401D01*
X135894035Y-84277830D01*
X135993903Y-84063663D01*
X136055063Y-83835408D01*
X136075659Y-83600000D01*
X136055063Y-83364592D01*
X135993903Y-83136337D01*
X135894035Y-82922171D01*
X135758495Y-82728599D01*
X135758494Y-82728597D01*
X135591402Y-82561506D01*
X135591396Y-82561501D01*
X135405842Y-82431575D01*
X135362217Y-82376998D01*
X135355023Y-82307500D01*
X135386546Y-82245145D01*
X135405842Y-82228425D01*
X135428026Y-82212891D01*
X135591401Y-82098495D01*
X135758495Y-81931401D01*
X135894035Y-81737830D01*
X135993903Y-81523663D01*
X136055063Y-81295408D01*
X136075659Y-81060000D01*
X136055063Y-80824592D01*
X135993903Y-80596337D01*
X135894035Y-80382171D01*
X135758495Y-80188599D01*
X135636567Y-80066671D01*
X135603084Y-80005351D01*
X135608068Y-79935659D01*
X135649939Y-79879725D01*
X135680915Y-79862810D01*
X135812331Y-79813796D01*
X135927546Y-79727546D01*
X136013796Y-79612331D01*
X136064091Y-79477483D01*
X136070500Y-79417873D01*
X136070499Y-77622128D01*
X136064091Y-77562517D01*
X136026416Y-77461506D01*
X136013797Y-77427671D01*
X136013793Y-77427664D01*
X135927547Y-77312455D01*
X135927544Y-77312452D01*
X135812335Y-77226206D01*
X135812328Y-77226202D01*
X135680917Y-77177189D01*
X135624983Y-77135318D01*
X135600566Y-77069853D01*
X135615418Y-77001580D01*
X135636563Y-76973332D01*
X135758495Y-76851401D01*
X135894035Y-76657830D01*
X135993903Y-76443663D01*
X136055063Y-76215408D01*
X136075659Y-75980000D01*
X136055063Y-75744592D01*
X135993903Y-75516337D01*
X135894035Y-75302171D01*
X135758495Y-75108599D01*
X135758494Y-75108597D01*
X135591402Y-74941506D01*
X135591396Y-74941501D01*
X135405842Y-74811575D01*
X135362217Y-74756998D01*
X135355023Y-74687500D01*
X135386546Y-74625145D01*
X135405842Y-74608425D01*
X135428026Y-74592891D01*
X135591401Y-74478495D01*
X135758495Y-74311401D01*
X135894035Y-74117830D01*
X135993903Y-73903663D01*
X136055063Y-73675408D01*
X136075659Y-73440000D01*
X136055063Y-73204592D01*
X135993903Y-72976337D01*
X135894035Y-72762171D01*
X135758495Y-72568599D01*
X135758494Y-72568597D01*
X135591402Y-72401506D01*
X135591396Y-72401501D01*
X135405842Y-72271575D01*
X135362217Y-72216998D01*
X135355023Y-72147500D01*
X135386546Y-72085145D01*
X135405842Y-72068425D01*
X135428026Y-72052891D01*
X135591401Y-71938495D01*
X135758495Y-71771401D01*
X135894035Y-71577830D01*
X135993903Y-71363663D01*
X136055063Y-71135408D01*
X136075659Y-70900000D01*
X136055063Y-70664592D01*
X135993903Y-70436337D01*
X135894035Y-70222171D01*
X135758495Y-70028599D01*
X135758494Y-70028597D01*
X135591402Y-69861506D01*
X135591396Y-69861501D01*
X135405842Y-69731575D01*
X135362217Y-69676998D01*
X135355023Y-69607500D01*
X135386546Y-69545145D01*
X135405842Y-69528425D01*
X135428026Y-69512891D01*
X135591401Y-69398495D01*
X135758495Y-69231401D01*
X135894035Y-69037830D01*
X135993903Y-68823663D01*
X136055063Y-68595408D01*
X136075659Y-68360000D01*
X136055063Y-68124592D01*
X135993903Y-67896337D01*
X135894035Y-67682171D01*
X135758495Y-67488599D01*
X135636179Y-67366283D01*
X135602696Y-67304963D01*
X135607680Y-67235271D01*
X135649551Y-67179337D01*
X135680529Y-67162422D01*
X135812086Y-67113354D01*
X135812093Y-67113350D01*
X135927187Y-67027190D01*
X135927190Y-67027187D01*
X136013350Y-66912093D01*
X136013354Y-66912086D01*
X136063596Y-66777379D01*
X136063598Y-66777372D01*
X136069999Y-66717844D01*
X136070000Y-66717827D01*
X136070000Y-66070000D01*
X135165572Y-66070000D01*
X135188682Y-66034040D01*
X135230000Y-65893327D01*
X135230000Y-65746673D01*
X135188682Y-65605960D01*
X135165572Y-65570000D01*
X136070000Y-65570000D01*
X136070000Y-64922172D01*
X136069999Y-64922155D01*
X136063598Y-64862627D01*
X136063596Y-64862620D01*
X136013354Y-64727913D01*
X136013350Y-64727906D01*
X135927190Y-64612812D01*
X135927187Y-64612809D01*
X135812093Y-64526649D01*
X135812088Y-64526646D01*
X135680528Y-64477577D01*
X135624595Y-64435705D01*
X135600178Y-64370241D01*
X135615030Y-64301968D01*
X135636175Y-64273720D01*
X135758495Y-64151401D01*
X135894035Y-63957830D01*
X135921000Y-63900003D01*
X139929723Y-63900003D01*
X139931331Y-63918389D01*
X139931678Y-63934752D01*
X139930709Y-63956324D01*
X139930710Y-63956328D01*
X139941444Y-64035576D01*
X139942094Y-64041412D01*
X139948792Y-64117972D01*
X139948795Y-64117989D01*
X139954461Y-64139134D01*
X139957563Y-64154576D01*
X139960923Y-64179380D01*
X139960926Y-64179392D01*
X139984573Y-64252169D01*
X139986417Y-64258393D01*
X140005423Y-64329324D01*
X140005428Y-64329337D01*
X140016135Y-64352300D01*
X140021682Y-64366380D01*
X140030483Y-64393464D01*
X140065128Y-64457845D01*
X140068316Y-64464200D01*
X140097897Y-64527638D01*
X140097898Y-64527639D01*
X140114410Y-64551221D01*
X140122025Y-64563578D01*
X140137146Y-64591678D01*
X140137152Y-64591687D01*
X140180587Y-64646153D01*
X140185214Y-64652340D01*
X140210510Y-64688465D01*
X140223402Y-64706877D01*
X140223405Y-64706880D01*
X140246186Y-64729661D01*
X140255452Y-64740029D01*
X140277492Y-64767666D01*
X140327387Y-64811259D01*
X140333484Y-64816959D01*
X140378116Y-64861592D01*
X140378121Y-64861596D01*
X140378123Y-64861598D01*
X140379583Y-64862620D01*
X140407332Y-64882050D01*
X140417793Y-64890244D01*
X140447004Y-64915765D01*
X140447013Y-64915771D01*
X140500924Y-64947981D01*
X140508449Y-64952854D01*
X140557359Y-64987101D01*
X140557365Y-64987104D01*
X140592798Y-65003627D01*
X140603992Y-65009561D01*
X140640234Y-65031214D01*
X140640236Y-65031215D01*
X140685728Y-65048288D01*
X140695838Y-65052082D01*
X140704669Y-65055792D01*
X140748300Y-65076138D01*
X140755670Y-65079575D01*
X140755675Y-65079577D01*
X140796756Y-65090584D01*
X140808227Y-65094262D01*
X140850976Y-65110307D01*
X140906047Y-65120301D01*
X140915965Y-65122526D01*
X140967023Y-65136207D01*
X141012829Y-65140214D01*
X141024121Y-65141728D01*
X141072453Y-65150500D01*
X141124985Y-65150500D01*
X141135792Y-65150972D01*
X141184998Y-65155277D01*
X141185000Y-65155277D01*
X141235369Y-65150870D01*
X141240600Y-65150524D01*
X141241122Y-65150500D01*
X141241155Y-65150500D01*
X141294217Y-65145724D01*
X141295173Y-65145638D01*
X141295180Y-65145724D01*
X141295477Y-65145611D01*
X141402977Y-65136207D01*
X141402982Y-65136205D01*
X141405000Y-65136029D01*
X141407205Y-65135736D01*
X141409182Y-65135377D01*
X141409188Y-65135377D01*
X141512684Y-65106812D01*
X141513350Y-65106631D01*
X141614330Y-65079575D01*
X141614337Y-65079571D01*
X141618913Y-65077906D01*
X141624449Y-65076138D01*
X141626159Y-65075495D01*
X141626170Y-65075493D01*
X141719890Y-65030359D01*
X141721016Y-65029825D01*
X141812639Y-64987102D01*
X141812640Y-64987101D01*
X141817327Y-64984395D01*
X141817400Y-64984522D01*
X141828164Y-64978218D01*
X141828973Y-64977829D01*
X141910325Y-64918721D01*
X141911993Y-64917531D01*
X141991877Y-64861598D01*
X141992747Y-64860727D01*
X142007550Y-64848084D01*
X142011078Y-64845522D01*
X142078237Y-64775277D01*
X142080098Y-64773376D01*
X142146592Y-64706883D01*
X142146592Y-64706882D01*
X142146598Y-64706877D01*
X142149285Y-64703039D01*
X142161239Y-64688465D01*
X142166629Y-64682828D01*
X142166628Y-64682828D01*
X142166632Y-64682825D01*
X142218266Y-64604600D01*
X142220083Y-64601928D01*
X142272102Y-64527639D01*
X142275543Y-64520259D01*
X142284432Y-64504364D01*
X142290635Y-64494968D01*
X142326114Y-64411958D01*
X142327713Y-64408377D01*
X142364575Y-64329330D01*
X142367570Y-64318148D01*
X142373325Y-64301505D01*
X142379103Y-64287988D01*
X142398417Y-64203366D01*
X142399533Y-64198863D01*
X142421207Y-64117977D01*
X142422515Y-64103015D01*
X142425150Y-64086237D01*
X142429191Y-64068537D01*
X142432934Y-63985183D01*
X142433274Y-63980036D01*
X142440277Y-63900003D01*
X144779723Y-63900003D01*
X144781331Y-63918389D01*
X144781678Y-63934752D01*
X144780709Y-63956324D01*
X144780710Y-63956328D01*
X144791444Y-64035576D01*
X144792094Y-64041412D01*
X144798792Y-64117972D01*
X144798795Y-64117989D01*
X144804461Y-64139134D01*
X144807563Y-64154576D01*
X144810923Y-64179380D01*
X144810926Y-64179392D01*
X144834573Y-64252169D01*
X144836417Y-64258393D01*
X144855423Y-64329324D01*
X144855428Y-64329337D01*
X144866135Y-64352300D01*
X144871682Y-64366380D01*
X144880483Y-64393464D01*
X144915128Y-64457845D01*
X144918316Y-64464200D01*
X144947897Y-64527638D01*
X144947898Y-64527639D01*
X144964410Y-64551221D01*
X144972025Y-64563578D01*
X144987146Y-64591678D01*
X144987152Y-64591687D01*
X145030587Y-64646153D01*
X145035214Y-64652340D01*
X145060510Y-64688465D01*
X145073402Y-64706877D01*
X145073405Y-64706880D01*
X145096186Y-64729661D01*
X145105452Y-64740029D01*
X145127492Y-64767666D01*
X145177387Y-64811259D01*
X145183484Y-64816959D01*
X145228116Y-64861592D01*
X145228121Y-64861596D01*
X145228123Y-64861598D01*
X145229583Y-64862620D01*
X145257332Y-64882050D01*
X145267793Y-64890244D01*
X145297004Y-64915765D01*
X145297013Y-64915771D01*
X145350924Y-64947981D01*
X145358449Y-64952854D01*
X145407359Y-64987101D01*
X145407365Y-64987104D01*
X145442798Y-65003627D01*
X145453992Y-65009561D01*
X145490234Y-65031214D01*
X145490236Y-65031215D01*
X145535728Y-65048288D01*
X145545838Y-65052082D01*
X145554669Y-65055792D01*
X145598300Y-65076138D01*
X145605670Y-65079575D01*
X145605675Y-65079577D01*
X145646756Y-65090584D01*
X145658227Y-65094262D01*
X145700976Y-65110307D01*
X145756047Y-65120301D01*
X145765965Y-65122526D01*
X145817023Y-65136207D01*
X145862829Y-65140214D01*
X145874121Y-65141728D01*
X145922453Y-65150500D01*
X145974985Y-65150500D01*
X145985792Y-65150972D01*
X146034998Y-65155277D01*
X146035000Y-65155277D01*
X146085369Y-65150870D01*
X146090600Y-65150524D01*
X146091122Y-65150500D01*
X146091155Y-65150500D01*
X146144217Y-65145724D01*
X146145173Y-65145638D01*
X146145180Y-65145724D01*
X146145477Y-65145611D01*
X146252977Y-65136207D01*
X146252982Y-65136205D01*
X146255000Y-65136029D01*
X146257205Y-65135736D01*
X146259182Y-65135377D01*
X146259188Y-65135377D01*
X146362684Y-65106812D01*
X146363350Y-65106631D01*
X146464330Y-65079575D01*
X146464337Y-65079571D01*
X146468913Y-65077906D01*
X146474449Y-65076138D01*
X146476159Y-65075495D01*
X146476170Y-65075493D01*
X146569890Y-65030359D01*
X146571016Y-65029825D01*
X146662639Y-64987102D01*
X146662640Y-64987101D01*
X146667327Y-64984395D01*
X146667400Y-64984522D01*
X146678164Y-64978218D01*
X146678973Y-64977829D01*
X146760325Y-64918721D01*
X146761993Y-64917531D01*
X146841877Y-64861598D01*
X146842747Y-64860727D01*
X146857550Y-64848084D01*
X146861078Y-64845522D01*
X146928237Y-64775277D01*
X146930098Y-64773376D01*
X146996592Y-64706883D01*
X146996592Y-64706882D01*
X146996598Y-64706877D01*
X146999285Y-64703039D01*
X147011239Y-64688465D01*
X147016629Y-64682828D01*
X147016628Y-64682828D01*
X147016632Y-64682825D01*
X147068266Y-64604600D01*
X147070083Y-64601928D01*
X147122102Y-64527639D01*
X147125543Y-64520259D01*
X147134432Y-64504364D01*
X147140635Y-64494968D01*
X147176114Y-64411958D01*
X147177713Y-64408377D01*
X147214575Y-64329330D01*
X147217570Y-64318148D01*
X147223325Y-64301505D01*
X147229103Y-64287988D01*
X147248417Y-64203366D01*
X147249533Y-64198863D01*
X147271207Y-64117977D01*
X147272515Y-64103015D01*
X147275150Y-64086237D01*
X147279191Y-64068537D01*
X147282934Y-63985183D01*
X147283274Y-63980036D01*
X147290277Y-63900000D01*
X147288667Y-63881608D01*
X147288321Y-63865239D01*
X147289290Y-63843670D01*
X147278549Y-63764385D01*
X147277905Y-63758600D01*
X147271207Y-63682023D01*
X147265539Y-63660870D01*
X147262434Y-63645412D01*
X147259076Y-63620619D01*
X147259075Y-63620618D01*
X147259075Y-63620613D01*
X147235414Y-63547795D01*
X147233578Y-63541593D01*
X147214576Y-63470674D01*
X147214575Y-63470671D01*
X147214575Y-63470670D01*
X147203863Y-63447699D01*
X147198317Y-63433618D01*
X147189519Y-63406541D01*
X147189517Y-63406537D01*
X147189517Y-63406536D01*
X147154869Y-63342149D01*
X147151681Y-63335794D01*
X147129398Y-63288009D01*
X147122102Y-63272362D01*
X147105592Y-63248785D01*
X147097976Y-63236425D01*
X147082852Y-63208319D01*
X147039398Y-63153830D01*
X147034785Y-63147661D01*
X146996598Y-63093123D01*
X146973804Y-63070329D01*
X146964545Y-63059968D01*
X146942508Y-63032334D01*
X146935967Y-63026619D01*
X146892611Y-62988739D01*
X146886514Y-62983039D01*
X146841878Y-62938402D01*
X146812663Y-62917946D01*
X146802210Y-62909759D01*
X146772996Y-62884235D01*
X146770156Y-62882538D01*
X146719073Y-62852017D01*
X146711550Y-62847145D01*
X146662641Y-62812899D01*
X146627205Y-62796374D01*
X146616015Y-62790442D01*
X146579769Y-62768787D01*
X146579767Y-62768786D01*
X146571951Y-62765852D01*
X146524154Y-62747914D01*
X146515349Y-62744216D01*
X146464330Y-62720425D01*
X146423232Y-62709412D01*
X146411759Y-62705731D01*
X146369024Y-62689692D01*
X146313965Y-62679700D01*
X146304016Y-62677468D01*
X146252977Y-62663793D01*
X146207176Y-62659785D01*
X146195846Y-62658264D01*
X146147552Y-62649500D01*
X146147547Y-62649500D01*
X146095015Y-62649500D01*
X146084208Y-62649028D01*
X146035002Y-62644723D01*
X146034996Y-62644723D01*
X145984651Y-62649127D01*
X145979442Y-62649473D01*
X145978848Y-62649499D01*
X145924915Y-62654352D01*
X145924613Y-62654379D01*
X145827239Y-62662899D01*
X145817023Y-62663793D01*
X145817022Y-62663793D01*
X145815081Y-62663963D01*
X145812708Y-62664278D01*
X145810809Y-62664623D01*
X145707522Y-62693129D01*
X145706628Y-62693372D01*
X145605668Y-62720425D01*
X145601051Y-62722105D01*
X145595520Y-62723872D01*
X145593836Y-62724504D01*
X145500246Y-62769573D01*
X145498853Y-62770233D01*
X145407359Y-62812899D01*
X145402670Y-62815606D01*
X145402598Y-62815481D01*
X145391871Y-62821764D01*
X145391031Y-62822168D01*
X145309662Y-62881284D01*
X145307904Y-62882538D01*
X145228121Y-62938403D01*
X145227241Y-62939284D01*
X145212461Y-62951906D01*
X145208928Y-62954472D01*
X145208921Y-62954478D01*
X145141847Y-63024632D01*
X145139903Y-63026619D01*
X145073404Y-63093119D01*
X145073402Y-63093121D01*
X145070711Y-63096965D01*
X145058773Y-63111521D01*
X145053368Y-63117174D01*
X145033253Y-63147647D01*
X145001750Y-63195369D01*
X144999865Y-63198142D01*
X144947901Y-63272356D01*
X144947891Y-63272374D01*
X144944457Y-63279738D01*
X144935572Y-63295628D01*
X144929363Y-63305034D01*
X144893893Y-63388020D01*
X144892254Y-63391688D01*
X144855426Y-63470664D01*
X144855424Y-63470671D01*
X144852425Y-63481860D01*
X144846681Y-63498475D01*
X144840899Y-63512005D01*
X144840896Y-63512014D01*
X144821576Y-63596659D01*
X144820460Y-63601158D01*
X144798793Y-63682022D01*
X144797483Y-63696992D01*
X144794847Y-63713769D01*
X144790809Y-63731459D01*
X144790809Y-63731464D01*
X144787066Y-63814777D01*
X144786719Y-63820016D01*
X144779723Y-63899995D01*
X144779723Y-63900003D01*
X142440277Y-63900003D01*
X142440277Y-63900000D01*
X142438667Y-63881608D01*
X142438321Y-63865239D01*
X142439290Y-63843670D01*
X142428549Y-63764385D01*
X142427905Y-63758600D01*
X142421207Y-63682023D01*
X142415539Y-63660870D01*
X142412434Y-63645412D01*
X142409076Y-63620619D01*
X142409075Y-63620618D01*
X142409075Y-63620613D01*
X142385414Y-63547795D01*
X142383578Y-63541593D01*
X142364576Y-63470674D01*
X142364575Y-63470671D01*
X142364575Y-63470670D01*
X142353863Y-63447699D01*
X142348317Y-63433618D01*
X142339519Y-63406541D01*
X142339517Y-63406537D01*
X142339517Y-63406536D01*
X142304869Y-63342149D01*
X142301681Y-63335794D01*
X142279398Y-63288009D01*
X142272102Y-63272362D01*
X142255592Y-63248785D01*
X142247976Y-63236425D01*
X142232852Y-63208319D01*
X142189398Y-63153830D01*
X142184785Y-63147661D01*
X142146598Y-63093123D01*
X142123804Y-63070329D01*
X142114545Y-63059968D01*
X142092508Y-63032334D01*
X142085967Y-63026619D01*
X142042611Y-62988739D01*
X142036514Y-62983039D01*
X141991878Y-62938402D01*
X141962663Y-62917946D01*
X141952210Y-62909759D01*
X141922996Y-62884235D01*
X141920156Y-62882538D01*
X141869073Y-62852017D01*
X141861550Y-62847145D01*
X141812641Y-62812899D01*
X141777205Y-62796374D01*
X141766015Y-62790442D01*
X141729769Y-62768787D01*
X141729767Y-62768786D01*
X141721951Y-62765852D01*
X141674154Y-62747914D01*
X141665349Y-62744216D01*
X141614330Y-62720425D01*
X141573232Y-62709412D01*
X141561759Y-62705731D01*
X141519024Y-62689692D01*
X141463965Y-62679700D01*
X141454016Y-62677468D01*
X141402977Y-62663793D01*
X141357176Y-62659785D01*
X141345846Y-62658264D01*
X141297552Y-62649500D01*
X141297547Y-62649500D01*
X141245015Y-62649500D01*
X141234208Y-62649028D01*
X141185002Y-62644723D01*
X141184996Y-62644723D01*
X141134651Y-62649127D01*
X141129442Y-62649473D01*
X141128848Y-62649499D01*
X141074915Y-62654352D01*
X141074613Y-62654379D01*
X140977239Y-62662899D01*
X140967023Y-62663793D01*
X140967022Y-62663793D01*
X140965081Y-62663963D01*
X140962708Y-62664278D01*
X140960809Y-62664623D01*
X140857522Y-62693129D01*
X140856628Y-62693372D01*
X140755668Y-62720425D01*
X140751051Y-62722105D01*
X140745520Y-62723872D01*
X140743836Y-62724504D01*
X140650246Y-62769573D01*
X140648853Y-62770233D01*
X140557359Y-62812899D01*
X140552670Y-62815606D01*
X140552598Y-62815481D01*
X140541871Y-62821764D01*
X140541031Y-62822168D01*
X140459662Y-62881284D01*
X140457904Y-62882538D01*
X140378121Y-62938403D01*
X140377241Y-62939284D01*
X140362461Y-62951906D01*
X140358928Y-62954472D01*
X140358921Y-62954478D01*
X140291847Y-63024632D01*
X140289903Y-63026619D01*
X140223404Y-63093119D01*
X140223402Y-63093121D01*
X140220711Y-63096965D01*
X140208773Y-63111521D01*
X140203368Y-63117174D01*
X140183253Y-63147647D01*
X140151750Y-63195369D01*
X140149865Y-63198142D01*
X140097901Y-63272356D01*
X140097891Y-63272374D01*
X140094457Y-63279738D01*
X140085572Y-63295628D01*
X140079363Y-63305034D01*
X140043893Y-63388020D01*
X140042254Y-63391688D01*
X140005426Y-63470664D01*
X140005424Y-63470671D01*
X140002425Y-63481860D01*
X139996681Y-63498475D01*
X139990899Y-63512005D01*
X139990896Y-63512014D01*
X139971576Y-63596659D01*
X139970460Y-63601158D01*
X139948793Y-63682022D01*
X139947483Y-63696992D01*
X139944847Y-63713769D01*
X139940809Y-63731459D01*
X139940809Y-63731464D01*
X139937066Y-63814777D01*
X139936719Y-63820016D01*
X139929723Y-63899995D01*
X139929723Y-63900003D01*
X135921000Y-63900003D01*
X135993903Y-63743663D01*
X136055063Y-63515408D01*
X136075659Y-63280000D01*
X136055063Y-63044592D01*
X136003463Y-62852017D01*
X135993905Y-62816344D01*
X135993904Y-62816343D01*
X135993903Y-62816337D01*
X135894035Y-62602171D01*
X135758495Y-62408599D01*
X135758494Y-62408597D01*
X135591402Y-62241506D01*
X135591396Y-62241501D01*
X135405842Y-62111575D01*
X135362217Y-62056998D01*
X135355023Y-61987500D01*
X135386546Y-61925145D01*
X135405842Y-61908425D01*
X135488170Y-61850778D01*
X135591401Y-61778495D01*
X135758495Y-61611401D01*
X135894035Y-61417830D01*
X135993903Y-61203663D01*
X136055063Y-60975408D01*
X136064285Y-60869998D01*
X139479700Y-60869998D01*
X139486750Y-60955098D01*
X139487061Y-60960071D01*
X139490819Y-61048523D01*
X139490820Y-61048534D01*
X139495092Y-61068355D01*
X139497451Y-61084238D01*
X139498865Y-61101301D01*
X139498865Y-61101306D01*
X139520660Y-61187372D01*
X139521670Y-61191685D01*
X139541044Y-61281575D01*
X139541046Y-61281582D01*
X139547333Y-61297228D01*
X139552477Y-61313010D01*
X139555843Y-61326300D01*
X139585571Y-61394075D01*
X139592875Y-61410725D01*
X139594377Y-61414300D01*
X139629934Y-61502787D01*
X139629935Y-61502788D01*
X139636981Y-61514232D01*
X139644943Y-61529428D01*
X139649076Y-61538850D01*
X139701366Y-61618886D01*
X139703147Y-61621693D01*
X139754930Y-61705794D01*
X139761543Y-61713308D01*
X139772263Y-61727402D01*
X139776019Y-61733151D01*
X139776021Y-61733153D01*
X139843117Y-61806040D01*
X139844930Y-61808054D01*
X139912436Y-61884755D01*
X139917564Y-61888895D01*
X139930882Y-61901377D01*
X139933216Y-61903913D01*
X139973620Y-61935360D01*
X140014062Y-61966837D01*
X140015795Y-61968211D01*
X140097920Y-62034523D01*
X140097922Y-62034524D01*
X140100678Y-62036064D01*
X140116360Y-62046460D01*
X140116367Y-62046465D01*
X140116371Y-62046467D01*
X140116374Y-62046470D01*
X140209507Y-62096870D01*
X140210785Y-62097573D01*
X140264637Y-62127657D01*
X140306051Y-62150793D01*
X140308849Y-62152058D01*
X140315695Y-62155097D01*
X140315794Y-62154873D01*
X140320491Y-62156933D01*
X140320497Y-62156936D01*
X140423950Y-62192451D01*
X140424557Y-62192662D01*
X140530829Y-62230211D01*
X140530843Y-62230213D01*
X140532392Y-62230617D01*
X140538492Y-62231910D01*
X140539999Y-62232291D01*
X140540019Y-62232298D01*
X140651192Y-62250849D01*
X140651608Y-62250919D01*
X140677416Y-62255345D01*
X140765792Y-62270499D01*
X140765800Y-62270500D01*
X141001044Y-62270500D01*
X141001049Y-62270500D01*
X141055013Y-62261494D01*
X141064883Y-62260252D01*
X141122541Y-62255346D01*
X141171925Y-62242487D01*
X141182760Y-62240177D01*
X141229981Y-62232298D01*
X141284963Y-62213421D01*
X141293941Y-62210716D01*
X141353249Y-62195275D01*
X141396642Y-62175659D01*
X141407436Y-62171377D01*
X141449503Y-62156936D01*
X141503611Y-62127653D01*
X141511541Y-62123721D01*
X141570486Y-62097077D01*
X141607120Y-62072316D01*
X141617503Y-62066018D01*
X141653626Y-62046470D01*
X141704878Y-62006578D01*
X141711584Y-62001710D01*
X141768003Y-61963579D01*
X141797460Y-61935345D01*
X141807075Y-61927035D01*
X141836784Y-61903913D01*
X141883070Y-61853632D01*
X141888490Y-61848100D01*
X141940118Y-61798621D01*
X141962351Y-61768557D01*
X141970799Y-61758331D01*
X141993979Y-61733153D01*
X142033223Y-61673084D01*
X142037317Y-61667196D01*
X142081879Y-61606947D01*
X142097176Y-61576604D01*
X142104074Y-61564637D01*
X142120924Y-61538849D01*
X142151130Y-61469984D01*
X142153927Y-61464045D01*
X142189207Y-61394074D01*
X142198155Y-61364854D01*
X142203153Y-61351383D01*
X142214157Y-61326300D01*
X142233450Y-61250110D01*
X142235088Y-61244255D01*
X142259015Y-61166126D01*
X142259016Y-61166121D01*
X142262460Y-61139227D01*
X142265251Y-61124535D01*
X142271132Y-61101311D01*
X142271134Y-61101305D01*
X142277903Y-61019600D01*
X142278484Y-61014095D01*
X142289298Y-60929654D01*
X142288291Y-60905961D01*
X142288602Y-60890481D01*
X142290300Y-60870000D01*
X142290300Y-60869998D01*
X144929700Y-60869998D01*
X144936750Y-60955098D01*
X144937061Y-60960071D01*
X144940819Y-61048523D01*
X144940820Y-61048534D01*
X144945092Y-61068355D01*
X144947451Y-61084238D01*
X144948865Y-61101301D01*
X144948865Y-61101306D01*
X144970660Y-61187372D01*
X144971670Y-61191685D01*
X144991044Y-61281575D01*
X144991046Y-61281582D01*
X144997333Y-61297228D01*
X145002477Y-61313010D01*
X145005843Y-61326300D01*
X145035571Y-61394075D01*
X145042875Y-61410725D01*
X145044377Y-61414300D01*
X145079934Y-61502787D01*
X145079935Y-61502788D01*
X145086981Y-61514232D01*
X145094943Y-61529428D01*
X145099076Y-61538850D01*
X145151366Y-61618886D01*
X145153147Y-61621693D01*
X145204930Y-61705794D01*
X145211543Y-61713308D01*
X145222263Y-61727402D01*
X145226019Y-61733151D01*
X145226021Y-61733153D01*
X145293117Y-61806040D01*
X145294930Y-61808054D01*
X145362436Y-61884755D01*
X145367564Y-61888895D01*
X145380882Y-61901377D01*
X145383216Y-61903913D01*
X145423620Y-61935360D01*
X145464062Y-61966837D01*
X145465795Y-61968211D01*
X145547920Y-62034523D01*
X145547922Y-62034524D01*
X145550678Y-62036064D01*
X145566360Y-62046460D01*
X145566367Y-62046465D01*
X145566371Y-62046467D01*
X145566374Y-62046470D01*
X145659507Y-62096870D01*
X145660785Y-62097573D01*
X145714637Y-62127657D01*
X145756051Y-62150793D01*
X145758849Y-62152058D01*
X145765695Y-62155097D01*
X145765794Y-62154873D01*
X145770491Y-62156933D01*
X145770497Y-62156936D01*
X145873950Y-62192451D01*
X145874557Y-62192662D01*
X145980829Y-62230211D01*
X145980843Y-62230213D01*
X145982392Y-62230617D01*
X145988492Y-62231910D01*
X145989999Y-62232291D01*
X145990019Y-62232298D01*
X146101192Y-62250849D01*
X146101608Y-62250919D01*
X146127416Y-62255345D01*
X146215792Y-62270499D01*
X146215800Y-62270500D01*
X146451044Y-62270500D01*
X146451049Y-62270500D01*
X146505013Y-62261494D01*
X146514883Y-62260252D01*
X146572541Y-62255346D01*
X146621925Y-62242487D01*
X146632760Y-62240177D01*
X146679981Y-62232298D01*
X146734963Y-62213421D01*
X146743941Y-62210716D01*
X146803249Y-62195275D01*
X146846642Y-62175659D01*
X146857436Y-62171377D01*
X146899503Y-62156936D01*
X146953611Y-62127653D01*
X146961541Y-62123721D01*
X147020486Y-62097077D01*
X147057120Y-62072316D01*
X147067503Y-62066018D01*
X147103626Y-62046470D01*
X147154878Y-62006578D01*
X147161584Y-62001710D01*
X147218003Y-61963579D01*
X147247460Y-61935345D01*
X147257075Y-61927035D01*
X147286784Y-61903913D01*
X147333070Y-61853632D01*
X147338490Y-61848100D01*
X147390118Y-61798621D01*
X147412351Y-61768557D01*
X147420799Y-61758331D01*
X147443979Y-61733153D01*
X147483223Y-61673084D01*
X147487317Y-61667196D01*
X147531879Y-61606947D01*
X147547176Y-61576604D01*
X147554074Y-61564637D01*
X147570924Y-61538849D01*
X147601130Y-61469984D01*
X147603927Y-61464045D01*
X147639207Y-61394074D01*
X147648155Y-61364854D01*
X147653153Y-61351383D01*
X147664157Y-61326300D01*
X147683450Y-61250110D01*
X147685088Y-61244255D01*
X147709015Y-61166126D01*
X147709016Y-61166121D01*
X147712460Y-61139227D01*
X147715251Y-61124535D01*
X147721132Y-61101311D01*
X147721134Y-61101305D01*
X147727903Y-61019600D01*
X147728484Y-61014095D01*
X147739298Y-60929654D01*
X147738291Y-60905961D01*
X147738602Y-60890481D01*
X147740300Y-60870000D01*
X147733248Y-60784902D01*
X147732938Y-60779943D01*
X147731241Y-60740000D01*
X147729180Y-60691468D01*
X147724906Y-60671640D01*
X147722548Y-60655764D01*
X147721134Y-60638695D01*
X147699325Y-60552577D01*
X147698336Y-60548354D01*
X147678954Y-60458419D01*
X147672665Y-60442770D01*
X147667519Y-60426980D01*
X147664157Y-60413700D01*
X147627092Y-60329202D01*
X147625621Y-60325697D01*
X147605789Y-60276344D01*
X147590064Y-60237210D01*
X147583021Y-60225771D01*
X147575053Y-60210565D01*
X147570924Y-60201151D01*
X147518639Y-60121122D01*
X147516859Y-60118315D01*
X147465074Y-60034212D01*
X147465071Y-60034209D01*
X147465069Y-60034205D01*
X147458451Y-60026686D01*
X147447727Y-60012584D01*
X147443980Y-60006848D01*
X147420800Y-59981668D01*
X147376876Y-59933953D01*
X147375068Y-59931944D01*
X147307565Y-59855246D01*
X147302439Y-59851107D01*
X147289117Y-59838621D01*
X147286785Y-59836088D01*
X147286783Y-59836086D01*
X147205936Y-59773161D01*
X147204198Y-59771783D01*
X147122080Y-59705477D01*
X147122073Y-59705472D01*
X147119311Y-59703929D01*
X147103643Y-59693542D01*
X147103634Y-59693535D01*
X147103628Y-59693532D01*
X147103626Y-59693530D01*
X147010485Y-59643125D01*
X147009094Y-59642359D01*
X146913961Y-59589213D01*
X146911381Y-59588047D01*
X146904284Y-59584898D01*
X146904188Y-59585119D01*
X146899499Y-59583062D01*
X146796278Y-59547626D01*
X146795233Y-59547262D01*
X146689172Y-59509789D01*
X146687635Y-59509389D01*
X146681549Y-59508098D01*
X146679995Y-59507704D01*
X146568772Y-59489144D01*
X146568227Y-59489051D01*
X146454210Y-59469500D01*
X146454200Y-59469500D01*
X146451049Y-59469500D01*
X146218951Y-59469500D01*
X146164993Y-59478503D01*
X146155101Y-59479747D01*
X146097470Y-59484652D01*
X146097461Y-59484653D01*
X146048077Y-59497511D01*
X146037250Y-59499819D01*
X145990012Y-59507703D01*
X145935068Y-59526566D01*
X145926051Y-59529284D01*
X145866749Y-59544725D01*
X145866743Y-59544727D01*
X145823361Y-59564337D01*
X145812553Y-59568624D01*
X145770504Y-59583060D01*
X145770498Y-59583063D01*
X145716396Y-59612341D01*
X145708460Y-59616275D01*
X145649514Y-59642922D01*
X145612883Y-59667679D01*
X145602470Y-59673994D01*
X145566379Y-59693526D01*
X145566367Y-59693533D01*
X145515126Y-59733416D01*
X145508402Y-59738297D01*
X145452001Y-59776417D01*
X145451994Y-59776423D01*
X145422546Y-59804644D01*
X145412918Y-59812967D01*
X145383217Y-59836085D01*
X145383209Y-59836093D01*
X145336925Y-59886369D01*
X145331500Y-59891905D01*
X145279882Y-59941378D01*
X145279880Y-59941380D01*
X145257657Y-59971427D01*
X145249198Y-59981668D01*
X145226021Y-60006846D01*
X145186781Y-60066906D01*
X145182671Y-60072814D01*
X145138124Y-60133047D01*
X145138119Y-60133055D01*
X145122826Y-60163384D01*
X145115918Y-60175370D01*
X145099076Y-60201149D01*
X145068887Y-60269974D01*
X145066060Y-60275975D01*
X145039189Y-60329274D01*
X145030791Y-60345930D01*
X145021847Y-60375131D01*
X145016842Y-60388620D01*
X145005845Y-60413691D01*
X145005845Y-60413692D01*
X144986552Y-60489872D01*
X144984913Y-60495735D01*
X144960984Y-60573877D01*
X144960983Y-60573879D01*
X144957538Y-60600777D01*
X144954750Y-60615454D01*
X144948867Y-60638687D01*
X144948864Y-60638706D01*
X144942097Y-60720377D01*
X144941517Y-60725887D01*
X144930702Y-60810344D01*
X144930701Y-60810345D01*
X144931707Y-60834025D01*
X144931396Y-60849520D01*
X144929700Y-60869998D01*
X142290300Y-60869998D01*
X142283248Y-60784902D01*
X142282938Y-60779943D01*
X142281241Y-60740000D01*
X142279180Y-60691468D01*
X142274906Y-60671640D01*
X142272548Y-60655764D01*
X142271134Y-60638695D01*
X142249325Y-60552577D01*
X142248336Y-60548354D01*
X142228954Y-60458419D01*
X142222665Y-60442770D01*
X142217519Y-60426980D01*
X142214157Y-60413700D01*
X142177092Y-60329202D01*
X142175621Y-60325697D01*
X142155789Y-60276344D01*
X142140064Y-60237210D01*
X142133021Y-60225771D01*
X142125053Y-60210565D01*
X142120924Y-60201151D01*
X142068639Y-60121122D01*
X142066859Y-60118315D01*
X142015074Y-60034212D01*
X142015071Y-60034209D01*
X142015069Y-60034205D01*
X142008451Y-60026686D01*
X141997727Y-60012584D01*
X141993980Y-60006848D01*
X141970800Y-59981668D01*
X141926876Y-59933953D01*
X141925068Y-59931944D01*
X141857565Y-59855246D01*
X141852439Y-59851107D01*
X141839117Y-59838621D01*
X141836785Y-59836088D01*
X141836783Y-59836086D01*
X141755936Y-59773161D01*
X141754198Y-59771783D01*
X141672080Y-59705477D01*
X141672073Y-59705472D01*
X141669311Y-59703929D01*
X141653643Y-59693542D01*
X141653634Y-59693535D01*
X141653628Y-59693532D01*
X141653626Y-59693530D01*
X141560485Y-59643125D01*
X141559094Y-59642359D01*
X141463961Y-59589213D01*
X141461381Y-59588047D01*
X141454284Y-59584898D01*
X141454188Y-59585119D01*
X141449499Y-59583062D01*
X141346278Y-59547626D01*
X141345233Y-59547262D01*
X141239172Y-59509789D01*
X141237635Y-59509389D01*
X141231549Y-59508098D01*
X141229995Y-59507704D01*
X141118772Y-59489144D01*
X141118227Y-59489051D01*
X141004210Y-59469500D01*
X141004200Y-59469500D01*
X141001049Y-59469500D01*
X140768951Y-59469500D01*
X140714993Y-59478503D01*
X140705101Y-59479747D01*
X140647470Y-59484652D01*
X140647461Y-59484653D01*
X140598077Y-59497511D01*
X140587250Y-59499819D01*
X140540012Y-59507703D01*
X140485068Y-59526566D01*
X140476051Y-59529284D01*
X140416749Y-59544725D01*
X140416743Y-59544727D01*
X140373361Y-59564337D01*
X140362553Y-59568624D01*
X140320504Y-59583060D01*
X140320498Y-59583063D01*
X140266396Y-59612341D01*
X140258460Y-59616275D01*
X140199514Y-59642922D01*
X140162883Y-59667679D01*
X140152470Y-59673994D01*
X140116379Y-59693526D01*
X140116367Y-59693533D01*
X140065126Y-59733416D01*
X140058402Y-59738297D01*
X140002001Y-59776417D01*
X140001994Y-59776423D01*
X139972546Y-59804644D01*
X139962918Y-59812967D01*
X139933217Y-59836085D01*
X139933209Y-59836093D01*
X139886925Y-59886369D01*
X139881500Y-59891905D01*
X139829882Y-59941378D01*
X139829880Y-59941380D01*
X139807657Y-59971427D01*
X139799198Y-59981668D01*
X139776021Y-60006846D01*
X139736781Y-60066906D01*
X139732671Y-60072814D01*
X139688124Y-60133047D01*
X139688119Y-60133055D01*
X139672826Y-60163384D01*
X139665918Y-60175370D01*
X139649076Y-60201149D01*
X139618887Y-60269974D01*
X139616060Y-60275975D01*
X139589189Y-60329274D01*
X139580791Y-60345930D01*
X139571847Y-60375131D01*
X139566842Y-60388620D01*
X139555845Y-60413691D01*
X139555845Y-60413692D01*
X139536552Y-60489872D01*
X139534913Y-60495735D01*
X139510984Y-60573877D01*
X139510983Y-60573879D01*
X139507538Y-60600777D01*
X139504750Y-60615454D01*
X139498867Y-60638687D01*
X139498864Y-60638706D01*
X139492097Y-60720377D01*
X139491517Y-60725887D01*
X139480702Y-60810344D01*
X139480701Y-60810345D01*
X139481707Y-60834025D01*
X139481396Y-60849520D01*
X139479700Y-60869998D01*
X136064285Y-60869998D01*
X136075659Y-60740000D01*
X136055063Y-60504592D01*
X135993903Y-60276337D01*
X135894035Y-60062171D01*
X135869196Y-60026696D01*
X135758494Y-59868597D01*
X135591402Y-59701506D01*
X135591395Y-59701501D01*
X135588297Y-59699332D01*
X135552111Y-59673994D01*
X135397834Y-59565967D01*
X135397830Y-59565965D01*
X135358502Y-59547626D01*
X135183663Y-59466097D01*
X135183659Y-59466096D01*
X135183655Y-59466094D01*
X134955413Y-59404938D01*
X134955403Y-59404936D01*
X134720001Y-59384341D01*
X134719999Y-59384341D01*
X134484596Y-59404936D01*
X134484586Y-59404938D01*
X134256344Y-59466094D01*
X134256335Y-59466098D01*
X134042171Y-59565964D01*
X134042169Y-59565965D01*
X133848597Y-59701505D01*
X133681505Y-59868597D01*
X133545965Y-60062169D01*
X133545964Y-60062171D01*
X133446098Y-60276335D01*
X133446094Y-60276344D01*
X133384938Y-60504586D01*
X133384936Y-60504596D01*
X133364341Y-60739999D01*
X133364341Y-60740000D01*
X133384936Y-60975403D01*
X133384938Y-60975413D01*
X133446094Y-61203655D01*
X133446096Y-61203659D01*
X133446097Y-61203663D01*
X133534887Y-61394074D01*
X133545965Y-61417830D01*
X133545967Y-61417834D01*
X133613466Y-61514232D01*
X133678388Y-61606950D01*
X133681501Y-61611395D01*
X133681506Y-61611402D01*
X133848597Y-61778493D01*
X133848603Y-61778498D01*
X134034158Y-61908425D01*
X134077783Y-61963002D01*
X134084977Y-62032500D01*
X134053454Y-62094855D01*
X134034158Y-62111575D01*
X133848597Y-62241505D01*
X133681505Y-62408597D01*
X133545965Y-62602169D01*
X133545964Y-62602171D01*
X133446098Y-62816335D01*
X133446094Y-62816344D01*
X133384938Y-63044586D01*
X133384936Y-63044596D01*
X133364341Y-63279999D01*
X133364341Y-63280000D01*
X133384936Y-63515403D01*
X133384938Y-63515413D01*
X133446094Y-63743655D01*
X133446096Y-63743659D01*
X133446097Y-63743663D01*
X133535204Y-63934752D01*
X133545965Y-63957830D01*
X133545967Y-63957834D01*
X133623483Y-64068537D01*
X133681501Y-64151396D01*
X133681506Y-64151402D01*
X133803818Y-64273714D01*
X133837303Y-64335037D01*
X133832319Y-64404729D01*
X133790447Y-64460662D01*
X133759471Y-64477577D01*
X133627912Y-64526646D01*
X133627906Y-64526649D01*
X133512812Y-64612809D01*
X133512809Y-64612812D01*
X133426649Y-64727906D01*
X133426645Y-64727913D01*
X133376403Y-64862620D01*
X133376401Y-64862627D01*
X133370000Y-64922155D01*
X133370000Y-65570000D01*
X134274428Y-65570000D01*
X134251318Y-65605960D01*
X134210000Y-65746673D01*
X134210000Y-65893327D01*
X134251318Y-66034040D01*
X134274428Y-66070000D01*
X133370000Y-66070000D01*
X133370000Y-66717844D01*
X133376401Y-66777372D01*
X133376403Y-66777379D01*
X133426645Y-66912086D01*
X133426649Y-66912093D01*
X133512809Y-67027187D01*
X133512812Y-67027190D01*
X133627906Y-67113350D01*
X133627913Y-67113354D01*
X133759470Y-67162421D01*
X133815403Y-67204292D01*
X133839821Y-67269756D01*
X133824970Y-67338029D01*
X133803819Y-67366284D01*
X133681503Y-67488600D01*
X133545965Y-67682169D01*
X133545964Y-67682171D01*
X133446098Y-67896335D01*
X133446094Y-67896344D01*
X133384938Y-68124586D01*
X133384936Y-68124596D01*
X133364341Y-68359999D01*
X133364341Y-68360000D01*
X133384936Y-68595403D01*
X133384938Y-68595413D01*
X133446094Y-68823655D01*
X133446096Y-68823659D01*
X133446097Y-68823663D01*
X133545965Y-69037830D01*
X133545967Y-69037834D01*
X133681501Y-69231395D01*
X133681506Y-69231402D01*
X133848597Y-69398493D01*
X133848603Y-69398498D01*
X134034158Y-69528425D01*
X134077783Y-69583002D01*
X134084977Y-69652500D01*
X134053454Y-69714855D01*
X134034158Y-69731575D01*
X133848597Y-69861505D01*
X133681505Y-70028597D01*
X133545965Y-70222169D01*
X133545964Y-70222171D01*
X133446098Y-70436335D01*
X133446094Y-70436344D01*
X133384938Y-70664586D01*
X133384936Y-70664596D01*
X133364341Y-70899999D01*
X133364341Y-70900000D01*
X133384936Y-71135403D01*
X133384938Y-71135413D01*
X133446094Y-71363655D01*
X133446096Y-71363659D01*
X133446097Y-71363663D01*
X133545965Y-71577830D01*
X133545967Y-71577834D01*
X133681501Y-71771395D01*
X133681506Y-71771402D01*
X133848597Y-71938493D01*
X133848603Y-71938498D01*
X134034158Y-72068425D01*
X134077783Y-72123002D01*
X134084977Y-72192500D01*
X134053454Y-72254855D01*
X134034158Y-72271575D01*
X133848597Y-72401505D01*
X133681505Y-72568597D01*
X133545965Y-72762169D01*
X133545964Y-72762171D01*
X133446098Y-72976335D01*
X133446094Y-72976344D01*
X133384938Y-73204586D01*
X133384936Y-73204596D01*
X133364341Y-73439999D01*
X133364341Y-73440000D01*
X133384936Y-73675403D01*
X133384938Y-73675413D01*
X133446094Y-73903655D01*
X133446096Y-73903659D01*
X133446097Y-73903663D01*
X133545965Y-74117830D01*
X133545967Y-74117834D01*
X133681501Y-74311395D01*
X133681506Y-74311402D01*
X133848597Y-74478493D01*
X133848603Y-74478498D01*
X134034158Y-74608425D01*
X134077783Y-74663002D01*
X134084977Y-74732500D01*
X134053454Y-74794855D01*
X134034158Y-74811575D01*
X133848597Y-74941505D01*
X133681505Y-75108597D01*
X133545965Y-75302169D01*
X133545964Y-75302171D01*
X133446098Y-75516335D01*
X133446094Y-75516344D01*
X133384938Y-75744586D01*
X133384936Y-75744596D01*
X133364341Y-75979999D01*
X133364341Y-75980000D01*
X133384936Y-76215403D01*
X133384938Y-76215413D01*
X133446094Y-76443655D01*
X133446096Y-76443659D01*
X133446097Y-76443663D01*
X133536639Y-76637830D01*
X133545965Y-76657830D01*
X133545967Y-76657834D01*
X133654281Y-76812521D01*
X133681501Y-76851396D01*
X133681506Y-76851402D01*
X133803430Y-76973326D01*
X133836915Y-77034649D01*
X133831931Y-77104341D01*
X133790059Y-77160274D01*
X133759083Y-77177189D01*
X133627669Y-77226203D01*
X133627664Y-77226206D01*
X133512455Y-77312452D01*
X133512452Y-77312455D01*
X133426206Y-77427664D01*
X133426202Y-77427671D01*
X133375908Y-77562517D01*
X133369501Y-77622116D01*
X133369501Y-77622123D01*
X133369500Y-77622135D01*
X133369500Y-79417870D01*
X133369501Y-79417876D01*
X133375908Y-79477483D01*
X133426202Y-79612328D01*
X133426206Y-79612335D01*
X133512452Y-79727544D01*
X133512455Y-79727547D01*
X133627664Y-79813793D01*
X133627671Y-79813797D01*
X133759081Y-79862810D01*
X133815015Y-79904681D01*
X133839432Y-79970145D01*
X133824580Y-80038418D01*
X133803430Y-80066673D01*
X133681503Y-80188600D01*
X133545965Y-80382169D01*
X133545964Y-80382171D01*
X133446098Y-80596335D01*
X133446094Y-80596344D01*
X133384938Y-80824586D01*
X133384936Y-80824596D01*
X133364341Y-81059999D01*
X133364341Y-81060000D01*
X133384936Y-81295403D01*
X133384938Y-81295413D01*
X133446094Y-81523655D01*
X133446096Y-81523659D01*
X133446097Y-81523663D01*
X133545965Y-81737830D01*
X133545967Y-81737834D01*
X133681501Y-81931395D01*
X133681506Y-81931402D01*
X133848597Y-82098493D01*
X133848603Y-82098498D01*
X134034158Y-82228425D01*
X134077783Y-82283002D01*
X134084977Y-82352500D01*
X134053454Y-82414855D01*
X134034158Y-82431575D01*
X133848597Y-82561505D01*
X133681505Y-82728597D01*
X133545965Y-82922169D01*
X133545964Y-82922171D01*
X133446098Y-83136335D01*
X133446094Y-83136344D01*
X133384938Y-83364586D01*
X133384936Y-83364596D01*
X133364341Y-83599999D01*
X133364341Y-83600000D01*
X133384936Y-83835403D01*
X133384938Y-83835413D01*
X133446094Y-84063655D01*
X133446096Y-84063659D01*
X133446097Y-84063663D01*
X133545965Y-84277830D01*
X133545967Y-84277834D01*
X133681501Y-84471395D01*
X133681506Y-84471402D01*
X133848597Y-84638493D01*
X133848603Y-84638498D01*
X134034158Y-84768425D01*
X134077783Y-84823002D01*
X134084977Y-84892500D01*
X134053454Y-84954855D01*
X134034158Y-84971575D01*
X133848597Y-85101505D01*
X133681505Y-85268597D01*
X133545965Y-85462169D01*
X133545964Y-85462171D01*
X133446098Y-85676335D01*
X133446094Y-85676344D01*
X133384938Y-85904586D01*
X133384936Y-85904596D01*
X133364341Y-86139999D01*
X133364341Y-86140000D01*
X133384936Y-86375403D01*
X133384938Y-86375413D01*
X133446094Y-86603655D01*
X133446096Y-86603659D01*
X133446097Y-86603663D01*
X133545965Y-86817830D01*
X133545967Y-86817834D01*
X133681501Y-87011395D01*
X133681506Y-87011402D01*
X133848597Y-87178493D01*
X133848603Y-87178498D01*
X134034158Y-87308425D01*
X134077783Y-87363002D01*
X134084977Y-87432500D01*
X134053454Y-87494855D01*
X134034158Y-87511575D01*
X133848597Y-87641505D01*
X133681505Y-87808597D01*
X133545965Y-88002169D01*
X133545964Y-88002171D01*
X133446098Y-88216335D01*
X133446094Y-88216344D01*
X133384938Y-88444586D01*
X133384936Y-88444596D01*
X133364341Y-88679999D01*
X133364341Y-88680000D01*
X133384936Y-88915403D01*
X133384938Y-88915413D01*
X133446094Y-89143655D01*
X133446096Y-89143659D01*
X133446097Y-89143663D01*
X133545965Y-89357830D01*
X133545967Y-89357834D01*
X133654281Y-89512521D01*
X133681501Y-89551396D01*
X133681506Y-89551402D01*
X133803430Y-89673326D01*
X133836915Y-89734649D01*
X133831931Y-89804341D01*
X133790059Y-89860274D01*
X133759083Y-89877189D01*
X133627669Y-89926203D01*
X133627664Y-89926206D01*
X133512455Y-90012452D01*
X133512452Y-90012455D01*
X133426206Y-90127664D01*
X133426202Y-90127671D01*
X133375908Y-90262517D01*
X133369501Y-90322116D01*
X133369501Y-90322123D01*
X133369500Y-90322135D01*
X133369500Y-92117870D01*
X133369501Y-92117876D01*
X133375908Y-92177483D01*
X133426202Y-92312328D01*
X133426206Y-92312335D01*
X133512452Y-92427544D01*
X133512455Y-92427547D01*
X133627664Y-92513793D01*
X133627671Y-92513797D01*
X133759081Y-92562810D01*
X133815015Y-92604681D01*
X133839432Y-92670145D01*
X133824580Y-92738418D01*
X133803430Y-92766673D01*
X133681503Y-92888600D01*
X133545965Y-93082169D01*
X133545964Y-93082171D01*
X133446098Y-93296335D01*
X133446094Y-93296344D01*
X133384938Y-93524586D01*
X133384936Y-93524596D01*
X133364341Y-93759999D01*
X133364341Y-93760000D01*
X133384936Y-93995403D01*
X133384938Y-93995413D01*
X133446094Y-94223655D01*
X133446096Y-94223659D01*
X133446097Y-94223663D01*
X133545965Y-94437830D01*
X133545967Y-94437834D01*
X133681501Y-94631395D01*
X133681506Y-94631402D01*
X133848597Y-94798493D01*
X133848603Y-94798498D01*
X134034158Y-94928425D01*
X134077783Y-94983002D01*
X134084977Y-95052500D01*
X134053454Y-95114855D01*
X134034158Y-95131575D01*
X133848597Y-95261505D01*
X133681505Y-95428597D01*
X133545965Y-95622169D01*
X133545964Y-95622171D01*
X133446098Y-95836335D01*
X133446094Y-95836344D01*
X133384938Y-96064586D01*
X133384936Y-96064596D01*
X133364341Y-96299999D01*
X133364341Y-96300000D01*
X133384936Y-96535403D01*
X133384938Y-96535413D01*
X133446094Y-96763655D01*
X133446096Y-96763659D01*
X133446097Y-96763663D01*
X133545965Y-96977830D01*
X133545967Y-96977834D01*
X133681501Y-97171395D01*
X133681506Y-97171402D01*
X133848597Y-97338493D01*
X133848603Y-97338498D01*
X134034158Y-97468425D01*
X134077783Y-97523002D01*
X134084977Y-97592500D01*
X134053454Y-97654855D01*
X134034158Y-97671575D01*
X133848597Y-97801505D01*
X133681505Y-97968597D01*
X133545965Y-98162169D01*
X133545964Y-98162171D01*
X133446098Y-98376335D01*
X133446094Y-98376344D01*
X133384938Y-98604586D01*
X133384936Y-98604596D01*
X133364341Y-98839999D01*
X133364341Y-98840000D01*
X133384936Y-99075403D01*
X133384938Y-99075413D01*
X133446094Y-99303655D01*
X133446096Y-99303659D01*
X133446097Y-99303663D01*
X133536877Y-99498341D01*
X133545965Y-99517830D01*
X133545967Y-99517834D01*
X133681501Y-99711395D01*
X133681506Y-99711402D01*
X133848597Y-99878493D01*
X133848603Y-99878498D01*
X134034158Y-100008425D01*
X134077783Y-100063002D01*
X134084977Y-100132500D01*
X134053454Y-100194855D01*
X134034158Y-100211575D01*
X133848597Y-100341505D01*
X133681505Y-100508597D01*
X133545965Y-100702169D01*
X133545964Y-100702171D01*
X133446098Y-100916335D01*
X133446094Y-100916344D01*
X133384938Y-101144586D01*
X133384936Y-101144596D01*
X133364341Y-101379999D01*
X133364341Y-101380000D01*
X133384936Y-101615403D01*
X133384938Y-101615413D01*
X133446094Y-101843655D01*
X133446096Y-101843659D01*
X133446097Y-101843663D01*
X133521730Y-102005857D01*
X133545965Y-102057830D01*
X133545967Y-102057834D01*
X133632222Y-102181018D01*
X133681501Y-102251396D01*
X133681506Y-102251402D01*
X133803818Y-102373714D01*
X133837303Y-102435037D01*
X133832319Y-102504729D01*
X133790447Y-102560662D01*
X133759471Y-102577577D01*
X133627912Y-102626646D01*
X133627906Y-102626649D01*
X133512812Y-102712809D01*
X133512809Y-102712812D01*
X133426649Y-102827906D01*
X133426645Y-102827913D01*
X133376403Y-102962620D01*
X133376401Y-102962627D01*
X133370000Y-103022155D01*
X133370000Y-103670000D01*
X134274428Y-103670000D01*
X134251318Y-103705960D01*
X134210000Y-103846673D01*
X134210000Y-103993327D01*
X134251318Y-104134040D01*
X134274428Y-104170000D01*
X133370000Y-104170000D01*
X133370000Y-104817844D01*
X133376401Y-104877372D01*
X133376403Y-104877379D01*
X133426645Y-105012086D01*
X133426649Y-105012093D01*
X133512809Y-105127187D01*
X133512812Y-105127190D01*
X133627906Y-105213350D01*
X133627913Y-105213354D01*
X133759470Y-105262421D01*
X133815403Y-105304292D01*
X133839821Y-105369756D01*
X133824970Y-105438029D01*
X133803819Y-105466284D01*
X133681503Y-105588600D01*
X133545965Y-105782169D01*
X133545964Y-105782171D01*
X133446098Y-105996335D01*
X133446094Y-105996344D01*
X133384938Y-106224586D01*
X133384936Y-106224596D01*
X133364341Y-106459999D01*
X133364341Y-106460000D01*
X133384936Y-106695403D01*
X133384938Y-106695413D01*
X133446094Y-106923655D01*
X133446096Y-106923659D01*
X133446097Y-106923663D01*
X133496770Y-107032331D01*
X133545965Y-107137830D01*
X133545967Y-107137834D01*
X133681501Y-107331395D01*
X133681506Y-107331402D01*
X133848597Y-107498493D01*
X133848603Y-107498498D01*
X134034158Y-107628425D01*
X134077783Y-107683002D01*
X134084977Y-107752500D01*
X134053454Y-107814855D01*
X134034158Y-107831575D01*
X133848597Y-107961505D01*
X133681505Y-108128597D01*
X133545965Y-108322169D01*
X133545964Y-108322171D01*
X133446098Y-108536335D01*
X133446094Y-108536344D01*
X133384938Y-108764586D01*
X133384936Y-108764596D01*
X133364341Y-108999999D01*
X133364341Y-109000000D01*
X133384936Y-109235403D01*
X133384938Y-109235413D01*
X133446094Y-109463655D01*
X133446096Y-109463659D01*
X133446097Y-109463663D01*
X133541322Y-109667873D01*
X133545965Y-109677830D01*
X133545967Y-109677834D01*
X133681501Y-109871395D01*
X133681506Y-109871402D01*
X133848597Y-110038493D01*
X133848603Y-110038498D01*
X134039998Y-110172514D01*
X134083623Y-110227091D01*
X134090817Y-110296589D01*
X134059294Y-110358944D01*
X134056556Y-110361770D01*
X130205144Y-114213181D01*
X130143821Y-114246666D01*
X130117463Y-114249500D01*
X129387129Y-114249500D01*
X129387123Y-114249501D01*
X129327516Y-114255908D01*
X129192671Y-114306202D01*
X129192664Y-114306206D01*
X129077455Y-114392452D01*
X129077452Y-114392455D01*
X128991206Y-114507664D01*
X128991202Y-114507671D01*
X128940908Y-114642517D01*
X128934501Y-114702116D01*
X128934500Y-114702135D01*
X128934500Y-116297870D01*
X125000000Y-116297870D01*
X125000000Y-78500000D01*
X126144341Y-78500000D01*
X126164936Y-78735403D01*
X126164938Y-78735413D01*
X126226094Y-78963655D01*
X126226096Y-78963659D01*
X126226097Y-78963663D01*
X126321337Y-79167906D01*
X126325965Y-79177830D01*
X126325967Y-79177834D01*
X126426201Y-79320982D01*
X126461505Y-79371401D01*
X126628599Y-79538495D01*
X126725384Y-79606265D01*
X126822165Y-79674032D01*
X126822167Y-79674033D01*
X126822170Y-79674035D01*
X127036337Y-79773903D01*
X127264592Y-79835063D01*
X127452918Y-79851539D01*
X127499999Y-79855659D01*
X127500000Y-79855659D01*
X127500001Y-79855659D01*
X127539234Y-79852226D01*
X127735408Y-79835063D01*
X127963663Y-79773903D01*
X128177830Y-79674035D01*
X128371401Y-79538495D01*
X128538495Y-79371401D01*
X128674035Y-79177830D01*
X128773903Y-78963663D01*
X128835063Y-78735408D01*
X128855659Y-78500000D01*
X128835063Y-78264592D01*
X128773903Y-78036337D01*
X128674035Y-77822171D01*
X128538495Y-77628599D01*
X128538494Y-77628597D01*
X128371402Y-77461506D01*
X128371396Y-77461501D01*
X128185842Y-77331575D01*
X128142217Y-77276998D01*
X128135023Y-77207500D01*
X128166546Y-77145145D01*
X128185842Y-77128425D01*
X128269491Y-77069853D01*
X128371401Y-76998495D01*
X128538495Y-76831401D01*
X128674035Y-76637830D01*
X128773903Y-76423663D01*
X128835063Y-76195408D01*
X128855659Y-75960000D01*
X128835063Y-75724592D01*
X128773903Y-75496337D01*
X128674035Y-75282171D01*
X128538495Y-75088599D01*
X128416567Y-74966671D01*
X128383084Y-74905351D01*
X128388068Y-74835659D01*
X128429939Y-74779725D01*
X128460915Y-74762810D01*
X128592331Y-74713796D01*
X128707546Y-74627546D01*
X128793796Y-74512331D01*
X128844091Y-74377483D01*
X128850500Y-74317873D01*
X128850499Y-72522128D01*
X128844091Y-72462517D01*
X128821335Y-72401506D01*
X128793797Y-72327671D01*
X128793793Y-72327664D01*
X128707547Y-72212455D01*
X128707544Y-72212452D01*
X128592335Y-72126206D01*
X128592328Y-72126202D01*
X128457482Y-72075908D01*
X128457483Y-72075908D01*
X128397883Y-72069501D01*
X128397881Y-72069500D01*
X128397873Y-72069500D01*
X128397864Y-72069500D01*
X126602129Y-72069500D01*
X126602123Y-72069501D01*
X126542516Y-72075908D01*
X126407671Y-72126202D01*
X126407664Y-72126206D01*
X126292455Y-72212452D01*
X126292452Y-72212455D01*
X126206206Y-72327664D01*
X126206202Y-72327671D01*
X126155908Y-72462517D01*
X126149501Y-72522116D01*
X126149501Y-72522123D01*
X126149500Y-72522135D01*
X126149500Y-74317870D01*
X126149501Y-74317876D01*
X126155908Y-74377483D01*
X126206202Y-74512328D01*
X126206206Y-74512335D01*
X126292452Y-74627544D01*
X126292455Y-74627547D01*
X126407664Y-74713793D01*
X126407671Y-74713797D01*
X126539081Y-74762810D01*
X126595015Y-74804681D01*
X126619432Y-74870145D01*
X126604580Y-74938418D01*
X126583430Y-74966673D01*
X126461503Y-75088600D01*
X126325965Y-75282169D01*
X126325964Y-75282171D01*
X126226098Y-75496335D01*
X126226094Y-75496344D01*
X126164938Y-75724586D01*
X126164936Y-75724596D01*
X126144341Y-75959999D01*
X126144341Y-75960000D01*
X126164936Y-76195403D01*
X126164938Y-76195413D01*
X126226094Y-76423655D01*
X126226096Y-76423659D01*
X126226097Y-76423663D01*
X126235424Y-76443664D01*
X126325965Y-76637830D01*
X126325967Y-76637834D01*
X126461501Y-76831395D01*
X126461506Y-76831402D01*
X126628597Y-76998493D01*
X126628603Y-76998498D01*
X126814158Y-77128425D01*
X126857783Y-77183002D01*
X126864977Y-77252500D01*
X126833454Y-77314855D01*
X126814158Y-77331575D01*
X126628597Y-77461505D01*
X126461505Y-77628597D01*
X126325965Y-77822169D01*
X126325964Y-77822171D01*
X126226098Y-78036335D01*
X126226094Y-78036344D01*
X126164938Y-78264586D01*
X126164936Y-78264596D01*
X126144341Y-78499999D01*
X126144341Y-78500000D01*
X125000000Y-78500000D01*
X125000000Y-59124000D01*
X125019685Y-59056961D01*
X125072489Y-59011206D01*
X125124000Y-59000000D01*
X165376000Y-59000000D01*
X165443039Y-59019685D01*
G37*
%TD.AperFunction*%
%TD*%
M02*
