M48
; DRILL file {KiCad 7.0.10+dfsg-1} date Sun 14 Jan 2024 04:52:26 PM CET
; FORMAT={-:-/ absolute / inch / decimal}
; #@! TF.CreationDate,2024-01-14T16:52:26+01:00
; #@! TF.GenerationSoftware,Kicad,Pcbnew,7.0.10+dfsg-1
; #@! TF.FileFunction,Plated,1,2,PTH
FMAT,2
INCH
; #@! TA.AperFunction,Plated,PTH,ViaDrill
T1C0.0157
; #@! TA.AperFunction,Plated,PTH,ComponentDrill
T2C0.0295
; #@! TA.AperFunction,Plated,PTH,ComponentDrill
T3C0.0394
; #@! TA.AperFunction,Plated,PTH,ComponentDrill
T4C0.0402
; #@! TA.AperFunction,Plated,PTH,ComponentDrill
T5C0.0630
%
G90
G05
T1
X5.6299Y-4.0551
T2
X5.1165Y-4.5472
X5.1665Y-4.5472
X5.2165Y-4.5472
X6.1114Y-4.5472
X6.1614Y-4.5472
X6.2114Y-4.5472
T3
X5.0197Y-2.8906
X5.0197Y-2.9906
X5.0197Y-3.0906
X5.4102Y-4.4866
X5.4102Y-4.5866
X5.5102Y-4.4866
X5.5102Y-4.5866
X5.6102Y-4.4866
X5.6102Y-4.5866
X5.7102Y-4.4866
X5.7102Y-4.5866
X5.8102Y-4.4866
X5.8102Y-4.5866
X5.9102Y-4.4866
X5.9102Y-4.5866
T4
X5.3039Y-2.3913
X5.3039Y-2.4913
X5.3039Y-2.5913
X5.3039Y-2.6913
X5.3039Y-2.7913
X5.3039Y-2.8913
X5.3039Y-2.9913
X5.3039Y-3.0913
X5.3039Y-3.1913
X5.3039Y-3.2913
X5.3039Y-3.3913
X5.3039Y-3.4913
X5.3039Y-3.5913
X5.3039Y-3.6913
X5.3039Y-3.7913
X5.3039Y-3.8913
X5.3039Y-3.9913
X5.3039Y-4.0913
X5.3039Y-4.1913
X5.3039Y-4.2913
X5.5539Y-4.2823
X5.6539Y-4.2823
X5.7539Y-4.2823
X6.0039Y-2.3913
X6.0039Y-2.4913
X6.0039Y-2.5913
X6.0039Y-2.6913
X6.0039Y-2.7913
X6.0039Y-2.8913
X6.0039Y-2.9913
X6.0039Y-3.0913
X6.0039Y-3.1913
X6.0039Y-3.2913
X6.0039Y-3.3913
X6.0039Y-3.4913
X6.0039Y-3.5913
X6.0039Y-3.6913
X6.0039Y-3.7913
X6.0039Y-3.8913
X6.0039Y-3.9913
X6.0039Y-4.0913
X6.0039Y-4.1913
X6.0039Y-4.2913
T5
X6.378Y-4.1413
X6.378Y-4.2913
M30
