%TF.GenerationSoftware,KiCad,Pcbnew,7.0.10+dfsg-1*%
%TF.CreationDate,2024-01-14T16:43:57+01:00*%
%TF.ProjectId,picoswitch,7069636f-7377-4697-9463-682e6b696361,rev?*%
%TF.SameCoordinates,Original*%
%TF.FileFunction,Legend,Top*%
%TF.FilePolarity,Positive*%
%FSLAX46Y46*%
G04 Gerber Fmt 4.6, Leading zero omitted, Abs format (unit mm)*
G04 Created by KiCad (PCBNEW 7.0.10+dfsg-1) date 2024-01-14 16:43:57*
%MOMM*%
%LPD*%
G01*
G04 APERTURE LIST*
%ADD10C,0.150000*%
%ADD11C,0.300000*%
%ADD12C,0.120000*%
G04 APERTURE END LIST*
D10*
X134104819Y-115563333D02*
X134819104Y-115563333D01*
X134819104Y-115563333D02*
X134961961Y-115610952D01*
X134961961Y-115610952D02*
X135057200Y-115706190D01*
X135057200Y-115706190D02*
X135104819Y-115849047D01*
X135104819Y-115849047D02*
X135104819Y-115944285D01*
X135104819Y-114563333D02*
X135104819Y-115134761D01*
X135104819Y-114849047D02*
X134104819Y-114849047D01*
X134104819Y-114849047D02*
X134247676Y-114944285D01*
X134247676Y-114944285D02*
X134342914Y-115039523D01*
X134342914Y-115039523D02*
X134390533Y-115134761D01*
D11*
X135629757Y-122821427D02*
X135558328Y-122964285D01*
X135558328Y-122964285D02*
X135558328Y-123178570D01*
X135558328Y-123178570D02*
X135629757Y-123392856D01*
X135629757Y-123392856D02*
X135772614Y-123535713D01*
X135772614Y-123535713D02*
X135915471Y-123607142D01*
X135915471Y-123607142D02*
X136201185Y-123678570D01*
X136201185Y-123678570D02*
X136415471Y-123678570D01*
X136415471Y-123678570D02*
X136701185Y-123607142D01*
X136701185Y-123607142D02*
X136844042Y-123535713D01*
X136844042Y-123535713D02*
X136986900Y-123392856D01*
X136986900Y-123392856D02*
X137058328Y-123178570D01*
X137058328Y-123178570D02*
X137058328Y-123035713D01*
X137058328Y-123035713D02*
X136986900Y-122821427D01*
X136986900Y-122821427D02*
X136915471Y-122749999D01*
X136915471Y-122749999D02*
X136415471Y-122749999D01*
X136415471Y-122749999D02*
X136415471Y-123035713D01*
X135558328Y-121892856D02*
X135915471Y-121892856D01*
X135772614Y-122249999D02*
X135915471Y-121892856D01*
X135915471Y-121892856D02*
X135772614Y-121535713D01*
X136201185Y-122107142D02*
X135915471Y-121892856D01*
X135915471Y-121892856D02*
X136201185Y-121678570D01*
X135558328Y-120749999D02*
X135915471Y-120749999D01*
X135772614Y-121107142D02*
X135915471Y-120749999D01*
X135915471Y-120749999D02*
X135772614Y-120392856D01*
X136201185Y-120964285D02*
X135915471Y-120749999D01*
X135915471Y-120749999D02*
X136201185Y-120535713D01*
X135558328Y-119607142D02*
X135915471Y-119607142D01*
X135772614Y-119964285D02*
X135915471Y-119607142D01*
X135915471Y-119607142D02*
X135772614Y-119249999D01*
X136201185Y-119821428D02*
X135915471Y-119607142D01*
X135915471Y-119607142D02*
X136201185Y-119392856D01*
D10*
X162954819Y-101238094D02*
X161954819Y-101238094D01*
X161954819Y-101238094D02*
X161954819Y-100999999D01*
X161954819Y-100999999D02*
X162002438Y-100857142D01*
X162002438Y-100857142D02*
X162097676Y-100761904D01*
X162097676Y-100761904D02*
X162192914Y-100714285D01*
X162192914Y-100714285D02*
X162383390Y-100666666D01*
X162383390Y-100666666D02*
X162526247Y-100666666D01*
X162526247Y-100666666D02*
X162716723Y-100714285D01*
X162716723Y-100714285D02*
X162811961Y-100761904D01*
X162811961Y-100761904D02*
X162907200Y-100857142D01*
X162907200Y-100857142D02*
X162954819Y-100999999D01*
X162954819Y-100999999D02*
X162954819Y-101238094D01*
X162954819Y-99714285D02*
X162954819Y-100285713D01*
X162954819Y-99999999D02*
X161954819Y-99999999D01*
X161954819Y-99999999D02*
X162097676Y-100095237D01*
X162097676Y-100095237D02*
X162192914Y-100190475D01*
X162192914Y-100190475D02*
X162240533Y-100285713D01*
X159569104Y-109238094D02*
X159569104Y-108761904D01*
X159854819Y-109333332D02*
X158854819Y-108999999D01*
X158854819Y-108999999D02*
X159854819Y-108666666D01*
X142848095Y-84324819D02*
X142848095Y-85134342D01*
X142848095Y-85134342D02*
X142895714Y-85229580D01*
X142895714Y-85229580D02*
X142943333Y-85277200D01*
X142943333Y-85277200D02*
X143038571Y-85324819D01*
X143038571Y-85324819D02*
X143229047Y-85324819D01*
X143229047Y-85324819D02*
X143324285Y-85277200D01*
X143324285Y-85277200D02*
X143371904Y-85229580D01*
X143371904Y-85229580D02*
X143419523Y-85134342D01*
X143419523Y-85134342D02*
X143419523Y-84324819D01*
X144419523Y-85324819D02*
X143848095Y-85324819D01*
X144133809Y-85324819D02*
X144133809Y-84324819D01*
X144133809Y-84324819D02*
X144038571Y-84467676D01*
X144038571Y-84467676D02*
X143943333Y-84562914D01*
X143943333Y-84562914D02*
X143848095Y-84610533D01*
X129453998Y-96690868D02*
X129373185Y-96717805D01*
X129373185Y-96717805D02*
X129292373Y-96798618D01*
X129292373Y-96798618D02*
X129238498Y-96906367D01*
X129238498Y-96906367D02*
X129238498Y-97014117D01*
X129238498Y-97014117D02*
X129265436Y-97094929D01*
X129265436Y-97094929D02*
X129346248Y-97229616D01*
X129346248Y-97229616D02*
X129427060Y-97310428D01*
X129427060Y-97310428D02*
X129561747Y-97391241D01*
X129561747Y-97391241D02*
X129642560Y-97418178D01*
X129642560Y-97418178D02*
X129750309Y-97418178D01*
X129750309Y-97418178D02*
X129858059Y-97364303D01*
X129858059Y-97364303D02*
X129911934Y-97310428D01*
X129911934Y-97310428D02*
X129965808Y-97202679D01*
X129965808Y-97202679D02*
X129965808Y-97148804D01*
X129965808Y-97148804D02*
X129777247Y-96960242D01*
X129777247Y-96960242D02*
X129669497Y-97067992D01*
X130262120Y-96960242D02*
X129696434Y-96394557D01*
X129696434Y-96394557D02*
X129911934Y-96179057D01*
X129911934Y-96179057D02*
X129992746Y-96152120D01*
X129992746Y-96152120D02*
X130046621Y-96152120D01*
X130046621Y-96152120D02*
X130127433Y-96179057D01*
X130127433Y-96179057D02*
X130208245Y-96259870D01*
X130208245Y-96259870D02*
X130235182Y-96340682D01*
X130235182Y-96340682D02*
X130235182Y-96394557D01*
X130235182Y-96394557D02*
X130208245Y-96475369D01*
X130208245Y-96475369D02*
X129992746Y-96690868D01*
X131124117Y-96098245D02*
X130800868Y-96421494D01*
X130962492Y-96259870D02*
X130396807Y-95694184D01*
X130396807Y-95694184D02*
X130423744Y-95828871D01*
X130423744Y-95828871D02*
X130423744Y-95936621D01*
X130423744Y-95936621D02*
X130396807Y-96017433D01*
X131662865Y-95559497D02*
X131339616Y-95882746D01*
X131501240Y-95721121D02*
X130935555Y-95155436D01*
X130935555Y-95155436D02*
X130962492Y-95290123D01*
X130962492Y-95290123D02*
X130962492Y-95397873D01*
X130962492Y-95397873D02*
X130935555Y-95478685D01*
X155761873Y-79611240D02*
X156031247Y-79341866D01*
X155869623Y-79826739D02*
X155492499Y-79072492D01*
X155492499Y-79072492D02*
X156246746Y-79449615D01*
X156192871Y-78425994D02*
X156112059Y-78452932D01*
X156112059Y-78452932D02*
X156031247Y-78533744D01*
X156031247Y-78533744D02*
X155977372Y-78641494D01*
X155977372Y-78641494D02*
X155977372Y-78749243D01*
X155977372Y-78749243D02*
X156004310Y-78830055D01*
X156004310Y-78830055D02*
X156085122Y-78964742D01*
X156085122Y-78964742D02*
X156165934Y-79045555D01*
X156165934Y-79045555D02*
X156300621Y-79126367D01*
X156300621Y-79126367D02*
X156381433Y-79153304D01*
X156381433Y-79153304D02*
X156489183Y-79153304D01*
X156489183Y-79153304D02*
X156596932Y-79099429D01*
X156596932Y-79099429D02*
X156650807Y-79045555D01*
X156650807Y-79045555D02*
X156704682Y-78937805D01*
X156704682Y-78937805D02*
X156704682Y-78883930D01*
X156704682Y-78883930D02*
X156516120Y-78695368D01*
X156516120Y-78695368D02*
X156408371Y-78803118D01*
X157000993Y-78695368D02*
X156435308Y-78129683D01*
X156435308Y-78129683D02*
X157324242Y-78372120D01*
X157324242Y-78372120D02*
X156758557Y-77806434D01*
X157593616Y-78102746D02*
X157027931Y-77537060D01*
X157027931Y-77537060D02*
X157162618Y-77402373D01*
X157162618Y-77402373D02*
X157270367Y-77348498D01*
X157270367Y-77348498D02*
X157378117Y-77348498D01*
X157378117Y-77348498D02*
X157458929Y-77375436D01*
X157458929Y-77375436D02*
X157593616Y-77456248D01*
X157593616Y-77456248D02*
X157674428Y-77537060D01*
X157674428Y-77537060D02*
X157755241Y-77671747D01*
X157755241Y-77671747D02*
X157782178Y-77752560D01*
X157782178Y-77752560D02*
X157782178Y-77860309D01*
X157782178Y-77860309D02*
X157728303Y-77968059D01*
X157728303Y-77968059D02*
X157593616Y-78102746D01*
X155696435Y-104068431D02*
X155615623Y-104095368D01*
X155615623Y-104095368D02*
X155534811Y-104176180D01*
X155534811Y-104176180D02*
X155480936Y-104283930D01*
X155480936Y-104283930D02*
X155480936Y-104391680D01*
X155480936Y-104391680D02*
X155507873Y-104472492D01*
X155507873Y-104472492D02*
X155588685Y-104607179D01*
X155588685Y-104607179D02*
X155669498Y-104687991D01*
X155669498Y-104687991D02*
X155804185Y-104768803D01*
X155804185Y-104768803D02*
X155884997Y-104795741D01*
X155884997Y-104795741D02*
X155992746Y-104795741D01*
X155992746Y-104795741D02*
X156100496Y-104741866D01*
X156100496Y-104741866D02*
X156154371Y-104687991D01*
X156154371Y-104687991D02*
X156208246Y-104580241D01*
X156208246Y-104580241D02*
X156208246Y-104526367D01*
X156208246Y-104526367D02*
X156019684Y-104337805D01*
X156019684Y-104337805D02*
X155911934Y-104445554D01*
X156504557Y-104337805D02*
X155938872Y-103772119D01*
X155938872Y-103772119D02*
X156827806Y-104014556D01*
X156827806Y-104014556D02*
X156262120Y-103448871D01*
X157097180Y-103745182D02*
X156531494Y-103179497D01*
X156531494Y-103179497D02*
X156666181Y-103044810D01*
X156666181Y-103044810D02*
X156773931Y-102990935D01*
X156773931Y-102990935D02*
X156881680Y-102990935D01*
X156881680Y-102990935D02*
X156962493Y-103017872D01*
X156962493Y-103017872D02*
X157097180Y-103098685D01*
X157097180Y-103098685D02*
X157177992Y-103179497D01*
X157177992Y-103179497D02*
X157258804Y-103314184D01*
X157258804Y-103314184D02*
X157285741Y-103394996D01*
X157285741Y-103394996D02*
X157285741Y-103502746D01*
X157285741Y-103502746D02*
X157231867Y-103610495D01*
X157231867Y-103610495D02*
X157097180Y-103745182D01*
X155563406Y-61397585D02*
X156317653Y-61774709D01*
X156317653Y-61774709D02*
X155940529Y-61020462D01*
X156587027Y-60912712D02*
X156694776Y-60858838D01*
X156694776Y-60858838D02*
X156748651Y-60858838D01*
X156748651Y-60858838D02*
X156829463Y-60885775D01*
X156829463Y-60885775D02*
X156910276Y-60966587D01*
X156910276Y-60966587D02*
X156937213Y-61047399D01*
X156937213Y-61047399D02*
X156937213Y-61101274D01*
X156937213Y-61101274D02*
X156910276Y-61182086D01*
X156910276Y-61182086D02*
X156694776Y-61397586D01*
X156694776Y-61397586D02*
X156129091Y-60831900D01*
X156129091Y-60831900D02*
X156317653Y-60643338D01*
X156317653Y-60643338D02*
X156398465Y-60616401D01*
X156398465Y-60616401D02*
X156452340Y-60616401D01*
X156452340Y-60616401D02*
X156533152Y-60643338D01*
X156533152Y-60643338D02*
X156587027Y-60697213D01*
X156587027Y-60697213D02*
X156613964Y-60778025D01*
X156613964Y-60778025D02*
X156613964Y-60831900D01*
X156613964Y-60831900D02*
X156587027Y-60912712D01*
X156587027Y-60912712D02*
X156398465Y-61101274D01*
X156694776Y-60266215D02*
X157152712Y-60724151D01*
X157152712Y-60724151D02*
X157233524Y-60751088D01*
X157233524Y-60751088D02*
X157287399Y-60751088D01*
X157287399Y-60751088D02*
X157368211Y-60724151D01*
X157368211Y-60724151D02*
X157475961Y-60616401D01*
X157475961Y-60616401D02*
X157502898Y-60535589D01*
X157502898Y-60535589D02*
X157502898Y-60481714D01*
X157502898Y-60481714D02*
X157475961Y-60400902D01*
X157475961Y-60400902D02*
X157018025Y-59942966D01*
X157799210Y-60239277D02*
X157906959Y-60185403D01*
X157906959Y-60185403D02*
X158041646Y-60050716D01*
X158041646Y-60050716D02*
X158068584Y-59969903D01*
X158068584Y-59969903D02*
X158068584Y-59916029D01*
X158068584Y-59916029D02*
X158041646Y-59835216D01*
X158041646Y-59835216D02*
X157987771Y-59781342D01*
X157987771Y-59781342D02*
X157906959Y-59754404D01*
X157906959Y-59754404D02*
X157853084Y-59754404D01*
X157853084Y-59754404D02*
X157772272Y-59781342D01*
X157772272Y-59781342D02*
X157637585Y-59862154D01*
X157637585Y-59862154D02*
X157556773Y-59889091D01*
X157556773Y-59889091D02*
X157502898Y-59889091D01*
X157502898Y-59889091D02*
X157422086Y-59862154D01*
X157422086Y-59862154D02*
X157368211Y-59808279D01*
X157368211Y-59808279D02*
X157341274Y-59727467D01*
X157341274Y-59727467D02*
X157341274Y-59673592D01*
X157341274Y-59673592D02*
X157368211Y-59592780D01*
X157368211Y-59592780D02*
X157502898Y-59458093D01*
X157502898Y-59458093D02*
X157610648Y-59404218D01*
X155696435Y-65968431D02*
X155615623Y-65995368D01*
X155615623Y-65995368D02*
X155534811Y-66076180D01*
X155534811Y-66076180D02*
X155480936Y-66183930D01*
X155480936Y-66183930D02*
X155480936Y-66291680D01*
X155480936Y-66291680D02*
X155507873Y-66372492D01*
X155507873Y-66372492D02*
X155588685Y-66507179D01*
X155588685Y-66507179D02*
X155669498Y-66587991D01*
X155669498Y-66587991D02*
X155804185Y-66668803D01*
X155804185Y-66668803D02*
X155884997Y-66695741D01*
X155884997Y-66695741D02*
X155992746Y-66695741D01*
X155992746Y-66695741D02*
X156100496Y-66641866D01*
X156100496Y-66641866D02*
X156154371Y-66587991D01*
X156154371Y-66587991D02*
X156208246Y-66480241D01*
X156208246Y-66480241D02*
X156208246Y-66426367D01*
X156208246Y-66426367D02*
X156019684Y-66237805D01*
X156019684Y-66237805D02*
X155911934Y-66345554D01*
X156504557Y-66237805D02*
X155938872Y-65672119D01*
X155938872Y-65672119D02*
X156827806Y-65914556D01*
X156827806Y-65914556D02*
X156262120Y-65348871D01*
X157097180Y-65645182D02*
X156531494Y-65079497D01*
X156531494Y-65079497D02*
X156666181Y-64944810D01*
X156666181Y-64944810D02*
X156773931Y-64890935D01*
X156773931Y-64890935D02*
X156881680Y-64890935D01*
X156881680Y-64890935D02*
X156962493Y-64917872D01*
X156962493Y-64917872D02*
X157097180Y-64998685D01*
X157097180Y-64998685D02*
X157177992Y-65079497D01*
X157177992Y-65079497D02*
X157258804Y-65214184D01*
X157258804Y-65214184D02*
X157285741Y-65294996D01*
X157285741Y-65294996D02*
X157285741Y-65402746D01*
X157285741Y-65402746D02*
X157231867Y-65510495D01*
X157231867Y-65510495D02*
X157097180Y-65645182D01*
X129599998Y-101770868D02*
X129519185Y-101797805D01*
X129519185Y-101797805D02*
X129438373Y-101878618D01*
X129438373Y-101878618D02*
X129384498Y-101986367D01*
X129384498Y-101986367D02*
X129384498Y-102094117D01*
X129384498Y-102094117D02*
X129411436Y-102174929D01*
X129411436Y-102174929D02*
X129492248Y-102309616D01*
X129492248Y-102309616D02*
X129573060Y-102390428D01*
X129573060Y-102390428D02*
X129707747Y-102471241D01*
X129707747Y-102471241D02*
X129788560Y-102498178D01*
X129788560Y-102498178D02*
X129896309Y-102498178D01*
X129896309Y-102498178D02*
X130004059Y-102444303D01*
X130004059Y-102444303D02*
X130057934Y-102390428D01*
X130057934Y-102390428D02*
X130111808Y-102282679D01*
X130111808Y-102282679D02*
X130111808Y-102228804D01*
X130111808Y-102228804D02*
X129923247Y-102040242D01*
X129923247Y-102040242D02*
X129815497Y-102147992D01*
X130408120Y-102040242D02*
X129842434Y-101474557D01*
X129842434Y-101474557D02*
X130057934Y-101259057D01*
X130057934Y-101259057D02*
X130138746Y-101232120D01*
X130138746Y-101232120D02*
X130192621Y-101232120D01*
X130192621Y-101232120D02*
X130273433Y-101259057D01*
X130273433Y-101259057D02*
X130354245Y-101339870D01*
X130354245Y-101339870D02*
X130381182Y-101420682D01*
X130381182Y-101420682D02*
X130381182Y-101474557D01*
X130381182Y-101474557D02*
X130354245Y-101555369D01*
X130354245Y-101555369D02*
X130138746Y-101770868D01*
X131270117Y-101178245D02*
X130946868Y-101501494D01*
X131108492Y-101339870D02*
X130542807Y-100774184D01*
X130542807Y-100774184D02*
X130569744Y-100908871D01*
X130569744Y-100908871D02*
X130569744Y-101016621D01*
X130569744Y-101016621D02*
X130542807Y-101097433D01*
X130892993Y-100423998D02*
X131243179Y-100073812D01*
X131243179Y-100073812D02*
X131270117Y-100477873D01*
X131270117Y-100477873D02*
X131350929Y-100397060D01*
X131350929Y-100397060D02*
X131431741Y-100370123D01*
X131431741Y-100370123D02*
X131485616Y-100370123D01*
X131485616Y-100370123D02*
X131566428Y-100397060D01*
X131566428Y-100397060D02*
X131701115Y-100531747D01*
X131701115Y-100531747D02*
X131728053Y-100612560D01*
X131728053Y-100612560D02*
X131728053Y-100666434D01*
X131728053Y-100666434D02*
X131701115Y-100747247D01*
X131701115Y-100747247D02*
X131539491Y-100908871D01*
X131539491Y-100908871D02*
X131458679Y-100935808D01*
X131458679Y-100935808D02*
X131404804Y-100935808D01*
X155765064Y-74404049D02*
X156034438Y-74134675D01*
X155872813Y-74619549D02*
X155495690Y-73865301D01*
X155495690Y-73865301D02*
X156249937Y-74242425D01*
X156438499Y-74053863D02*
X155872813Y-73488178D01*
X155872813Y-73488178D02*
X156007500Y-73353491D01*
X156007500Y-73353491D02*
X156115250Y-73299616D01*
X156115250Y-73299616D02*
X156222999Y-73299616D01*
X156222999Y-73299616D02*
X156303812Y-73326553D01*
X156303812Y-73326553D02*
X156438499Y-73407366D01*
X156438499Y-73407366D02*
X156519311Y-73488178D01*
X156519311Y-73488178D02*
X156600123Y-73622865D01*
X156600123Y-73622865D02*
X156627060Y-73703677D01*
X156627060Y-73703677D02*
X156627060Y-73811427D01*
X156627060Y-73811427D02*
X156573186Y-73919176D01*
X156573186Y-73919176D02*
X156438499Y-74053863D01*
X157273558Y-73111054D02*
X157273558Y-73164929D01*
X157273558Y-73164929D02*
X157219683Y-73272679D01*
X157219683Y-73272679D02*
X157165808Y-73326553D01*
X157165808Y-73326553D02*
X157058059Y-73380428D01*
X157058059Y-73380428D02*
X156950309Y-73380428D01*
X156950309Y-73380428D02*
X156869497Y-73353491D01*
X156869497Y-73353491D02*
X156734810Y-73272679D01*
X156734810Y-73272679D02*
X156653998Y-73191866D01*
X156653998Y-73191866D02*
X156573186Y-73057179D01*
X156573186Y-73057179D02*
X156546248Y-72976367D01*
X156546248Y-72976367D02*
X156546248Y-72868618D01*
X156546248Y-72868618D02*
X156600123Y-72760868D01*
X156600123Y-72760868D02*
X156653998Y-72706993D01*
X156653998Y-72706993D02*
X156761747Y-72653118D01*
X156761747Y-72653118D02*
X156815622Y-72653118D01*
X157489057Y-73111054D02*
X157920056Y-72680056D01*
X157354370Y-72006621D02*
X158108618Y-72383744D01*
X158108618Y-72383744D02*
X157731494Y-71629497D01*
X158808990Y-71683372D02*
X158351054Y-71602560D01*
X158485741Y-72006621D02*
X157920056Y-71440935D01*
X157920056Y-71440935D02*
X158135555Y-71225436D01*
X158135555Y-71225436D02*
X158216367Y-71198499D01*
X158216367Y-71198499D02*
X158270242Y-71198499D01*
X158270242Y-71198499D02*
X158351054Y-71225436D01*
X158351054Y-71225436D02*
X158431866Y-71306248D01*
X158431866Y-71306248D02*
X158458804Y-71387061D01*
X158458804Y-71387061D02*
X158458804Y-71440935D01*
X158458804Y-71440935D02*
X158431866Y-71521748D01*
X158431866Y-71521748D02*
X158216367Y-71737247D01*
X158755115Y-71144624D02*
X158943677Y-70956062D01*
X159320800Y-71171561D02*
X159051426Y-71440935D01*
X159051426Y-71440935D02*
X158485741Y-70875250D01*
X158485741Y-70875250D02*
X158755115Y-70605876D01*
X159455488Y-70444251D02*
X159266926Y-70632813D01*
X159563237Y-70929125D02*
X158997552Y-70363439D01*
X158997552Y-70363439D02*
X159266926Y-70094065D01*
X130123372Y-73561494D02*
X130042560Y-73588431D01*
X130042560Y-73588431D02*
X129961748Y-73669243D01*
X129961748Y-73669243D02*
X129907873Y-73776993D01*
X129907873Y-73776993D02*
X129907873Y-73884742D01*
X129907873Y-73884742D02*
X129934810Y-73965555D01*
X129934810Y-73965555D02*
X130015623Y-74100242D01*
X130015623Y-74100242D02*
X130096435Y-74181054D01*
X130096435Y-74181054D02*
X130231122Y-74261866D01*
X130231122Y-74261866D02*
X130311934Y-74288803D01*
X130311934Y-74288803D02*
X130419684Y-74288803D01*
X130419684Y-74288803D02*
X130527433Y-74234929D01*
X130527433Y-74234929D02*
X130581308Y-74181054D01*
X130581308Y-74181054D02*
X130635183Y-74073304D01*
X130635183Y-74073304D02*
X130635183Y-74019429D01*
X130635183Y-74019429D02*
X130446621Y-73830868D01*
X130446621Y-73830868D02*
X130338871Y-73938617D01*
X130931494Y-73830868D02*
X130365809Y-73265182D01*
X130365809Y-73265182D02*
X130581308Y-73049683D01*
X130581308Y-73049683D02*
X130662120Y-73022746D01*
X130662120Y-73022746D02*
X130715995Y-73022746D01*
X130715995Y-73022746D02*
X130796807Y-73049683D01*
X130796807Y-73049683D02*
X130877619Y-73130495D01*
X130877619Y-73130495D02*
X130904557Y-73211307D01*
X130904557Y-73211307D02*
X130904557Y-73265182D01*
X130904557Y-73265182D02*
X130877619Y-73345994D01*
X130877619Y-73345994D02*
X130662120Y-73561494D01*
X131362493Y-72645622D02*
X131739616Y-73022746D01*
X131012306Y-72564810D02*
X131281680Y-73103558D01*
X131281680Y-73103558D02*
X131631867Y-72753372D01*
X130223372Y-83691494D02*
X130142560Y-83718431D01*
X130142560Y-83718431D02*
X130061748Y-83799243D01*
X130061748Y-83799243D02*
X130007873Y-83906993D01*
X130007873Y-83906993D02*
X130007873Y-84014742D01*
X130007873Y-84014742D02*
X130034810Y-84095555D01*
X130034810Y-84095555D02*
X130115623Y-84230242D01*
X130115623Y-84230242D02*
X130196435Y-84311054D01*
X130196435Y-84311054D02*
X130331122Y-84391866D01*
X130331122Y-84391866D02*
X130411934Y-84418803D01*
X130411934Y-84418803D02*
X130519684Y-84418803D01*
X130519684Y-84418803D02*
X130627433Y-84364929D01*
X130627433Y-84364929D02*
X130681308Y-84311054D01*
X130681308Y-84311054D02*
X130735183Y-84203304D01*
X130735183Y-84203304D02*
X130735183Y-84149429D01*
X130735183Y-84149429D02*
X130546621Y-83960868D01*
X130546621Y-83960868D02*
X130438871Y-84068617D01*
X131031494Y-83960868D02*
X130465809Y-83395182D01*
X130465809Y-83395182D02*
X130681308Y-83179683D01*
X130681308Y-83179683D02*
X130762120Y-83152746D01*
X130762120Y-83152746D02*
X130815995Y-83152746D01*
X130815995Y-83152746D02*
X130896807Y-83179683D01*
X130896807Y-83179683D02*
X130977619Y-83260495D01*
X130977619Y-83260495D02*
X131004557Y-83341307D01*
X131004557Y-83341307D02*
X131004557Y-83395182D01*
X131004557Y-83395182D02*
X130977619Y-83475994D01*
X130977619Y-83475994D02*
X130762120Y-83691494D01*
X130977619Y-82883372D02*
X131354743Y-82506248D01*
X131354743Y-82506248D02*
X131677992Y-83314370D01*
X129599998Y-109390868D02*
X129519185Y-109417805D01*
X129519185Y-109417805D02*
X129438373Y-109498618D01*
X129438373Y-109498618D02*
X129384498Y-109606367D01*
X129384498Y-109606367D02*
X129384498Y-109714117D01*
X129384498Y-109714117D02*
X129411436Y-109794929D01*
X129411436Y-109794929D02*
X129492248Y-109929616D01*
X129492248Y-109929616D02*
X129573060Y-110010428D01*
X129573060Y-110010428D02*
X129707747Y-110091241D01*
X129707747Y-110091241D02*
X129788560Y-110118178D01*
X129788560Y-110118178D02*
X129896309Y-110118178D01*
X129896309Y-110118178D02*
X130004059Y-110064303D01*
X130004059Y-110064303D02*
X130057934Y-110010428D01*
X130057934Y-110010428D02*
X130111808Y-109902679D01*
X130111808Y-109902679D02*
X130111808Y-109848804D01*
X130111808Y-109848804D02*
X129923247Y-109660242D01*
X129923247Y-109660242D02*
X129815497Y-109767992D01*
X130408120Y-109660242D02*
X129842434Y-109094557D01*
X129842434Y-109094557D02*
X130057934Y-108879057D01*
X130057934Y-108879057D02*
X130138746Y-108852120D01*
X130138746Y-108852120D02*
X130192621Y-108852120D01*
X130192621Y-108852120D02*
X130273433Y-108879057D01*
X130273433Y-108879057D02*
X130354245Y-108959870D01*
X130354245Y-108959870D02*
X130381182Y-109040682D01*
X130381182Y-109040682D02*
X130381182Y-109094557D01*
X130381182Y-109094557D02*
X130354245Y-109175369D01*
X130354245Y-109175369D02*
X130138746Y-109390868D01*
X131270117Y-108798245D02*
X130946868Y-109121494D01*
X131108492Y-108959870D02*
X130542807Y-108394184D01*
X130542807Y-108394184D02*
X130569744Y-108528871D01*
X130569744Y-108528871D02*
X130569744Y-108636621D01*
X130569744Y-108636621D02*
X130542807Y-108717433D01*
X131216242Y-107720749D02*
X130946868Y-107990123D01*
X130946868Y-107990123D02*
X131189305Y-108286434D01*
X131189305Y-108286434D02*
X131189305Y-108232560D01*
X131189305Y-108232560D02*
X131216242Y-108151747D01*
X131216242Y-108151747D02*
X131350929Y-108017060D01*
X131350929Y-108017060D02*
X131431741Y-107990123D01*
X131431741Y-107990123D02*
X131485616Y-107990123D01*
X131485616Y-107990123D02*
X131566428Y-108017060D01*
X131566428Y-108017060D02*
X131701115Y-108151747D01*
X131701115Y-108151747D02*
X131728053Y-108232560D01*
X131728053Y-108232560D02*
X131728053Y-108286434D01*
X131728053Y-108286434D02*
X131701115Y-108367247D01*
X131701115Y-108367247D02*
X131566428Y-108501934D01*
X131566428Y-108501934D02*
X131485616Y-108528871D01*
X131485616Y-108528871D02*
X131431741Y-108528871D01*
X155707998Y-106850868D02*
X155627185Y-106877805D01*
X155627185Y-106877805D02*
X155546373Y-106958618D01*
X155546373Y-106958618D02*
X155492498Y-107066367D01*
X155492498Y-107066367D02*
X155492498Y-107174117D01*
X155492498Y-107174117D02*
X155519436Y-107254929D01*
X155519436Y-107254929D02*
X155600248Y-107389616D01*
X155600248Y-107389616D02*
X155681060Y-107470428D01*
X155681060Y-107470428D02*
X155815747Y-107551241D01*
X155815747Y-107551241D02*
X155896560Y-107578178D01*
X155896560Y-107578178D02*
X156004309Y-107578178D01*
X156004309Y-107578178D02*
X156112059Y-107524303D01*
X156112059Y-107524303D02*
X156165934Y-107470428D01*
X156165934Y-107470428D02*
X156219808Y-107362679D01*
X156219808Y-107362679D02*
X156219808Y-107308804D01*
X156219808Y-107308804D02*
X156031247Y-107120242D01*
X156031247Y-107120242D02*
X155923497Y-107227992D01*
X156516120Y-107120242D02*
X155950434Y-106554557D01*
X155950434Y-106554557D02*
X156165934Y-106339057D01*
X156165934Y-106339057D02*
X156246746Y-106312120D01*
X156246746Y-106312120D02*
X156300621Y-106312120D01*
X156300621Y-106312120D02*
X156381433Y-106339057D01*
X156381433Y-106339057D02*
X156462245Y-106419870D01*
X156462245Y-106419870D02*
X156489182Y-106500682D01*
X156489182Y-106500682D02*
X156489182Y-106554557D01*
X156489182Y-106554557D02*
X156462245Y-106635369D01*
X156462245Y-106635369D02*
X156246746Y-106850868D01*
X157378117Y-106258245D02*
X157054868Y-106581494D01*
X157216492Y-106419870D02*
X156650807Y-105854184D01*
X156650807Y-105854184D02*
X156677744Y-105988871D01*
X156677744Y-105988871D02*
X156677744Y-106096621D01*
X156677744Y-106096621D02*
X156650807Y-106177433D01*
X157000993Y-105503998D02*
X157378117Y-105126874D01*
X157378117Y-105126874D02*
X157701366Y-105934996D01*
X155707998Y-83990868D02*
X155627185Y-84017805D01*
X155627185Y-84017805D02*
X155546373Y-84098618D01*
X155546373Y-84098618D02*
X155492498Y-84206367D01*
X155492498Y-84206367D02*
X155492498Y-84314117D01*
X155492498Y-84314117D02*
X155519436Y-84394929D01*
X155519436Y-84394929D02*
X155600248Y-84529616D01*
X155600248Y-84529616D02*
X155681060Y-84610428D01*
X155681060Y-84610428D02*
X155815747Y-84691241D01*
X155815747Y-84691241D02*
X155896560Y-84718178D01*
X155896560Y-84718178D02*
X156004309Y-84718178D01*
X156004309Y-84718178D02*
X156112059Y-84664303D01*
X156112059Y-84664303D02*
X156165934Y-84610428D01*
X156165934Y-84610428D02*
X156219808Y-84502679D01*
X156219808Y-84502679D02*
X156219808Y-84448804D01*
X156219808Y-84448804D02*
X156031247Y-84260242D01*
X156031247Y-84260242D02*
X155923497Y-84367992D01*
X156516120Y-84260242D02*
X155950434Y-83694557D01*
X155950434Y-83694557D02*
X156165934Y-83479057D01*
X156165934Y-83479057D02*
X156246746Y-83452120D01*
X156246746Y-83452120D02*
X156300621Y-83452120D01*
X156300621Y-83452120D02*
X156381433Y-83479057D01*
X156381433Y-83479057D02*
X156462245Y-83559870D01*
X156462245Y-83559870D02*
X156489182Y-83640682D01*
X156489182Y-83640682D02*
X156489182Y-83694557D01*
X156489182Y-83694557D02*
X156462245Y-83775369D01*
X156462245Y-83775369D02*
X156246746Y-83990868D01*
X156543057Y-83209683D02*
X156543057Y-83155809D01*
X156543057Y-83155809D02*
X156569995Y-83074996D01*
X156569995Y-83074996D02*
X156704682Y-82940309D01*
X156704682Y-82940309D02*
X156785494Y-82913372D01*
X156785494Y-82913372D02*
X156839369Y-82913372D01*
X156839369Y-82913372D02*
X156920181Y-82940309D01*
X156920181Y-82940309D02*
X156974056Y-82994184D01*
X156974056Y-82994184D02*
X157027930Y-83101934D01*
X157027930Y-83101934D02*
X157027930Y-83748431D01*
X157027930Y-83748431D02*
X157378117Y-83398245D01*
X157297305Y-82347686D02*
X157189555Y-82455436D01*
X157189555Y-82455436D02*
X157162618Y-82536248D01*
X157162618Y-82536248D02*
X157162618Y-82590123D01*
X157162618Y-82590123D02*
X157189555Y-82724810D01*
X157189555Y-82724810D02*
X157270367Y-82859497D01*
X157270367Y-82859497D02*
X157485866Y-83074996D01*
X157485866Y-83074996D02*
X157566679Y-83101934D01*
X157566679Y-83101934D02*
X157620553Y-83101934D01*
X157620553Y-83101934D02*
X157701366Y-83074996D01*
X157701366Y-83074996D02*
X157809115Y-82967247D01*
X157809115Y-82967247D02*
X157836053Y-82886434D01*
X157836053Y-82886434D02*
X157836053Y-82832560D01*
X157836053Y-82832560D02*
X157809115Y-82751747D01*
X157809115Y-82751747D02*
X157674428Y-82617060D01*
X157674428Y-82617060D02*
X157593616Y-82590123D01*
X157593616Y-82590123D02*
X157539741Y-82590123D01*
X157539741Y-82590123D02*
X157458929Y-82617060D01*
X157458929Y-82617060D02*
X157351179Y-82724810D01*
X157351179Y-82724810D02*
X157324242Y-82805622D01*
X157324242Y-82805622D02*
X157324242Y-82859497D01*
X157324242Y-82859497D02*
X157351179Y-82940309D01*
X136100475Y-111394200D02*
X136214761Y-111432295D01*
X136214761Y-111432295D02*
X136405237Y-111432295D01*
X136405237Y-111432295D02*
X136481428Y-111394200D01*
X136481428Y-111394200D02*
X136519523Y-111356104D01*
X136519523Y-111356104D02*
X136557618Y-111279914D01*
X136557618Y-111279914D02*
X136557618Y-111203723D01*
X136557618Y-111203723D02*
X136519523Y-111127533D01*
X136519523Y-111127533D02*
X136481428Y-111089438D01*
X136481428Y-111089438D02*
X136405237Y-111051342D01*
X136405237Y-111051342D02*
X136252856Y-111013247D01*
X136252856Y-111013247D02*
X136176666Y-110975152D01*
X136176666Y-110975152D02*
X136138571Y-110937057D01*
X136138571Y-110937057D02*
X136100475Y-110860866D01*
X136100475Y-110860866D02*
X136100475Y-110784676D01*
X136100475Y-110784676D02*
X136138571Y-110708485D01*
X136138571Y-110708485D02*
X136176666Y-110670390D01*
X136176666Y-110670390D02*
X136252856Y-110632295D01*
X136252856Y-110632295D02*
X136443333Y-110632295D01*
X136443333Y-110632295D02*
X136557618Y-110670390D01*
X136824285Y-110632295D02*
X137014761Y-111432295D01*
X137014761Y-111432295D02*
X137167142Y-110860866D01*
X137167142Y-110860866D02*
X137319523Y-111432295D01*
X137319523Y-111432295D02*
X137510000Y-110632295D01*
X138271905Y-111356104D02*
X138233809Y-111394200D01*
X138233809Y-111394200D02*
X138119524Y-111432295D01*
X138119524Y-111432295D02*
X138043333Y-111432295D01*
X138043333Y-111432295D02*
X137929047Y-111394200D01*
X137929047Y-111394200D02*
X137852857Y-111318009D01*
X137852857Y-111318009D02*
X137814762Y-111241819D01*
X137814762Y-111241819D02*
X137776666Y-111089438D01*
X137776666Y-111089438D02*
X137776666Y-110975152D01*
X137776666Y-110975152D02*
X137814762Y-110822771D01*
X137814762Y-110822771D02*
X137852857Y-110746580D01*
X137852857Y-110746580D02*
X137929047Y-110670390D01*
X137929047Y-110670390D02*
X138043333Y-110632295D01*
X138043333Y-110632295D02*
X138119524Y-110632295D01*
X138119524Y-110632295D02*
X138233809Y-110670390D01*
X138233809Y-110670390D02*
X138271905Y-110708485D01*
X138995714Y-111432295D02*
X138614762Y-111432295D01*
X138614762Y-111432295D02*
X138614762Y-110632295D01*
X139262381Y-111432295D02*
X139262381Y-110632295D01*
X139719524Y-111432295D02*
X139376666Y-110975152D01*
X139719524Y-110632295D02*
X139262381Y-111089438D01*
X155532407Y-68828584D02*
X155882593Y-68478398D01*
X155882593Y-68478398D02*
X155909531Y-68882459D01*
X155909531Y-68882459D02*
X155990343Y-68801646D01*
X155990343Y-68801646D02*
X156071155Y-68774709D01*
X156071155Y-68774709D02*
X156125030Y-68774709D01*
X156125030Y-68774709D02*
X156205842Y-68801646D01*
X156205842Y-68801646D02*
X156340529Y-68936333D01*
X156340529Y-68936333D02*
X156367467Y-69017146D01*
X156367467Y-69017146D02*
X156367467Y-69071020D01*
X156367467Y-69071020D02*
X156340529Y-69151833D01*
X156340529Y-69151833D02*
X156178905Y-69313457D01*
X156178905Y-69313457D02*
X156098093Y-69340394D01*
X156098093Y-69340394D02*
X156044218Y-69340394D01*
X156044218Y-68316773D02*
X156798465Y-68693897D01*
X156798465Y-68693897D02*
X156421342Y-67939649D01*
X156556028Y-67804963D02*
X156906215Y-67454776D01*
X156906215Y-67454776D02*
X156933152Y-67858837D01*
X156933152Y-67858837D02*
X157013964Y-67778025D01*
X157013964Y-67778025D02*
X157094776Y-67751088D01*
X157094776Y-67751088D02*
X157148651Y-67751088D01*
X157148651Y-67751088D02*
X157229464Y-67778025D01*
X157229464Y-67778025D02*
X157364151Y-67912712D01*
X157364151Y-67912712D02*
X157391088Y-67993524D01*
X157391088Y-67993524D02*
X157391088Y-68047399D01*
X157391088Y-68047399D02*
X157364151Y-68128211D01*
X157364151Y-68128211D02*
X157202526Y-68289836D01*
X157202526Y-68289836D02*
X157121714Y-68316773D01*
X157121714Y-68316773D02*
X157067839Y-68316773D01*
X157633525Y-67966587D02*
X158064523Y-67535588D01*
X157849024Y-67050715D02*
X158037586Y-66862153D01*
X158414709Y-67077652D02*
X158145335Y-67347026D01*
X158145335Y-67347026D02*
X157579650Y-66781341D01*
X157579650Y-66781341D02*
X157849024Y-66511967D01*
X158657146Y-66835215D02*
X158091461Y-66269530D01*
X158091461Y-66269530D02*
X158980395Y-66511967D01*
X158980395Y-66511967D02*
X158414710Y-65946281D01*
X155500123Y-71360868D02*
X155850309Y-71010682D01*
X155850309Y-71010682D02*
X155877247Y-71414743D01*
X155877247Y-71414743D02*
X155958059Y-71333931D01*
X155958059Y-71333931D02*
X156038871Y-71306993D01*
X156038871Y-71306993D02*
X156092746Y-71306993D01*
X156092746Y-71306993D02*
X156173558Y-71333931D01*
X156173558Y-71333931D02*
X156308245Y-71468618D01*
X156308245Y-71468618D02*
X156335182Y-71549430D01*
X156335182Y-71549430D02*
X156335182Y-71603305D01*
X156335182Y-71603305D02*
X156308245Y-71684117D01*
X156308245Y-71684117D02*
X156146621Y-71845741D01*
X156146621Y-71845741D02*
X156065808Y-71872679D01*
X156065808Y-71872679D02*
X156011934Y-71872679D01*
X156011934Y-70849057D02*
X156766181Y-71226181D01*
X156766181Y-71226181D02*
X156389057Y-70471934D01*
X156523744Y-70337247D02*
X156873930Y-69987061D01*
X156873930Y-69987061D02*
X156900868Y-70391122D01*
X156900868Y-70391122D02*
X156981680Y-70310309D01*
X156981680Y-70310309D02*
X157062492Y-70283372D01*
X157062492Y-70283372D02*
X157116367Y-70283372D01*
X157116367Y-70283372D02*
X157197179Y-70310309D01*
X157197179Y-70310309D02*
X157331866Y-70444996D01*
X157331866Y-70444996D02*
X157358804Y-70525809D01*
X157358804Y-70525809D02*
X157358804Y-70579683D01*
X157358804Y-70579683D02*
X157331866Y-70660496D01*
X157331866Y-70660496D02*
X157170242Y-70822120D01*
X157170242Y-70822120D02*
X157089430Y-70849057D01*
X157089430Y-70849057D02*
X157035555Y-70849057D01*
X130123372Y-86261494D02*
X130042560Y-86288431D01*
X130042560Y-86288431D02*
X129961748Y-86369243D01*
X129961748Y-86369243D02*
X129907873Y-86476993D01*
X129907873Y-86476993D02*
X129907873Y-86584742D01*
X129907873Y-86584742D02*
X129934810Y-86665555D01*
X129934810Y-86665555D02*
X130015623Y-86800242D01*
X130015623Y-86800242D02*
X130096435Y-86881054D01*
X130096435Y-86881054D02*
X130231122Y-86961866D01*
X130231122Y-86961866D02*
X130311934Y-86988803D01*
X130311934Y-86988803D02*
X130419684Y-86988803D01*
X130419684Y-86988803D02*
X130527433Y-86934929D01*
X130527433Y-86934929D02*
X130581308Y-86881054D01*
X130581308Y-86881054D02*
X130635183Y-86773304D01*
X130635183Y-86773304D02*
X130635183Y-86719429D01*
X130635183Y-86719429D02*
X130446621Y-86530868D01*
X130446621Y-86530868D02*
X130338871Y-86638617D01*
X130931494Y-86530868D02*
X130365809Y-85965182D01*
X130365809Y-85965182D02*
X130581308Y-85749683D01*
X130581308Y-85749683D02*
X130662120Y-85722746D01*
X130662120Y-85722746D02*
X130715995Y-85722746D01*
X130715995Y-85722746D02*
X130796807Y-85749683D01*
X130796807Y-85749683D02*
X130877619Y-85830495D01*
X130877619Y-85830495D02*
X130904557Y-85911307D01*
X130904557Y-85911307D02*
X130904557Y-85965182D01*
X130904557Y-85965182D02*
X130877619Y-86045994D01*
X130877619Y-86045994D02*
X130662120Y-86261494D01*
X131254743Y-85561121D02*
X131173931Y-85588059D01*
X131173931Y-85588059D02*
X131120056Y-85588059D01*
X131120056Y-85588059D02*
X131039244Y-85561121D01*
X131039244Y-85561121D02*
X131012306Y-85534184D01*
X131012306Y-85534184D02*
X130985369Y-85453372D01*
X130985369Y-85453372D02*
X130985369Y-85399497D01*
X130985369Y-85399497D02*
X131012306Y-85318685D01*
X131012306Y-85318685D02*
X131120056Y-85210935D01*
X131120056Y-85210935D02*
X131200868Y-85183998D01*
X131200868Y-85183998D02*
X131254743Y-85183998D01*
X131254743Y-85183998D02*
X131335555Y-85210935D01*
X131335555Y-85210935D02*
X131362493Y-85237872D01*
X131362493Y-85237872D02*
X131389430Y-85318685D01*
X131389430Y-85318685D02*
X131389430Y-85372559D01*
X131389430Y-85372559D02*
X131362493Y-85453372D01*
X131362493Y-85453372D02*
X131254743Y-85561121D01*
X131254743Y-85561121D02*
X131227806Y-85641933D01*
X131227806Y-85641933D02*
X131227806Y-85695808D01*
X131227806Y-85695808D02*
X131254743Y-85776620D01*
X131254743Y-85776620D02*
X131362493Y-85884370D01*
X131362493Y-85884370D02*
X131443305Y-85911307D01*
X131443305Y-85911307D02*
X131497180Y-85911307D01*
X131497180Y-85911307D02*
X131577992Y-85884370D01*
X131577992Y-85884370D02*
X131685741Y-85776620D01*
X131685741Y-85776620D02*
X131712679Y-85695808D01*
X131712679Y-85695808D02*
X131712679Y-85641933D01*
X131712679Y-85641933D02*
X131685741Y-85561121D01*
X131685741Y-85561121D02*
X131577992Y-85453372D01*
X131577992Y-85453372D02*
X131497180Y-85426434D01*
X131497180Y-85426434D02*
X131443305Y-85426434D01*
X131443305Y-85426434D02*
X131362493Y-85453372D01*
X155707998Y-109390868D02*
X155627185Y-109417805D01*
X155627185Y-109417805D02*
X155546373Y-109498618D01*
X155546373Y-109498618D02*
X155492498Y-109606367D01*
X155492498Y-109606367D02*
X155492498Y-109714117D01*
X155492498Y-109714117D02*
X155519436Y-109794929D01*
X155519436Y-109794929D02*
X155600248Y-109929616D01*
X155600248Y-109929616D02*
X155681060Y-110010428D01*
X155681060Y-110010428D02*
X155815747Y-110091241D01*
X155815747Y-110091241D02*
X155896560Y-110118178D01*
X155896560Y-110118178D02*
X156004309Y-110118178D01*
X156004309Y-110118178D02*
X156112059Y-110064303D01*
X156112059Y-110064303D02*
X156165934Y-110010428D01*
X156165934Y-110010428D02*
X156219808Y-109902679D01*
X156219808Y-109902679D02*
X156219808Y-109848804D01*
X156219808Y-109848804D02*
X156031247Y-109660242D01*
X156031247Y-109660242D02*
X155923497Y-109767992D01*
X156516120Y-109660242D02*
X155950434Y-109094557D01*
X155950434Y-109094557D02*
X156165934Y-108879057D01*
X156165934Y-108879057D02*
X156246746Y-108852120D01*
X156246746Y-108852120D02*
X156300621Y-108852120D01*
X156300621Y-108852120D02*
X156381433Y-108879057D01*
X156381433Y-108879057D02*
X156462245Y-108959870D01*
X156462245Y-108959870D02*
X156489182Y-109040682D01*
X156489182Y-109040682D02*
X156489182Y-109094557D01*
X156489182Y-109094557D02*
X156462245Y-109175369D01*
X156462245Y-109175369D02*
X156246746Y-109390868D01*
X157378117Y-108798245D02*
X157054868Y-109121494D01*
X157216492Y-108959870D02*
X156650807Y-108394184D01*
X156650807Y-108394184D02*
X156677744Y-108528871D01*
X156677744Y-108528871D02*
X156677744Y-108636621D01*
X156677744Y-108636621D02*
X156650807Y-108717433D01*
X157297305Y-107747686D02*
X157189555Y-107855436D01*
X157189555Y-107855436D02*
X157162618Y-107936248D01*
X157162618Y-107936248D02*
X157162618Y-107990123D01*
X157162618Y-107990123D02*
X157189555Y-108124810D01*
X157189555Y-108124810D02*
X157270367Y-108259497D01*
X157270367Y-108259497D02*
X157485866Y-108474996D01*
X157485866Y-108474996D02*
X157566679Y-108501934D01*
X157566679Y-108501934D02*
X157620553Y-108501934D01*
X157620553Y-108501934D02*
X157701366Y-108474996D01*
X157701366Y-108474996D02*
X157809115Y-108367247D01*
X157809115Y-108367247D02*
X157836053Y-108286434D01*
X157836053Y-108286434D02*
X157836053Y-108232560D01*
X157836053Y-108232560D02*
X157809115Y-108151747D01*
X157809115Y-108151747D02*
X157674428Y-108017060D01*
X157674428Y-108017060D02*
X157593616Y-107990123D01*
X157593616Y-107990123D02*
X157539741Y-107990123D01*
X157539741Y-107990123D02*
X157458929Y-108017060D01*
X157458929Y-108017060D02*
X157351179Y-108124810D01*
X157351179Y-108124810D02*
X157324242Y-108205622D01*
X157324242Y-108205622D02*
X157324242Y-108259497D01*
X157324242Y-108259497D02*
X157351179Y-108340309D01*
X155696435Y-91368431D02*
X155615623Y-91395368D01*
X155615623Y-91395368D02*
X155534811Y-91476180D01*
X155534811Y-91476180D02*
X155480936Y-91583930D01*
X155480936Y-91583930D02*
X155480936Y-91691680D01*
X155480936Y-91691680D02*
X155507873Y-91772492D01*
X155507873Y-91772492D02*
X155588685Y-91907179D01*
X155588685Y-91907179D02*
X155669498Y-91987991D01*
X155669498Y-91987991D02*
X155804185Y-92068803D01*
X155804185Y-92068803D02*
X155884997Y-92095741D01*
X155884997Y-92095741D02*
X155992746Y-92095741D01*
X155992746Y-92095741D02*
X156100496Y-92041866D01*
X156100496Y-92041866D02*
X156154371Y-91987991D01*
X156154371Y-91987991D02*
X156208246Y-91880241D01*
X156208246Y-91880241D02*
X156208246Y-91826367D01*
X156208246Y-91826367D02*
X156019684Y-91637805D01*
X156019684Y-91637805D02*
X155911934Y-91745554D01*
X156504557Y-91637805D02*
X155938872Y-91072119D01*
X155938872Y-91072119D02*
X156827806Y-91314556D01*
X156827806Y-91314556D02*
X156262120Y-90748871D01*
X157097180Y-91045182D02*
X156531494Y-90479497D01*
X156531494Y-90479497D02*
X156666181Y-90344810D01*
X156666181Y-90344810D02*
X156773931Y-90290935D01*
X156773931Y-90290935D02*
X156881680Y-90290935D01*
X156881680Y-90290935D02*
X156962493Y-90317872D01*
X156962493Y-90317872D02*
X157097180Y-90398685D01*
X157097180Y-90398685D02*
X157177992Y-90479497D01*
X157177992Y-90479497D02*
X157258804Y-90614184D01*
X157258804Y-90614184D02*
X157285741Y-90694996D01*
X157285741Y-90694996D02*
X157285741Y-90802746D01*
X157285741Y-90802746D02*
X157231867Y-90910495D01*
X157231867Y-90910495D02*
X157097180Y-91045182D01*
X130096435Y-78668431D02*
X130015623Y-78695368D01*
X130015623Y-78695368D02*
X129934811Y-78776180D01*
X129934811Y-78776180D02*
X129880936Y-78883930D01*
X129880936Y-78883930D02*
X129880936Y-78991680D01*
X129880936Y-78991680D02*
X129907873Y-79072492D01*
X129907873Y-79072492D02*
X129988685Y-79207179D01*
X129988685Y-79207179D02*
X130069498Y-79287991D01*
X130069498Y-79287991D02*
X130204185Y-79368803D01*
X130204185Y-79368803D02*
X130284997Y-79395741D01*
X130284997Y-79395741D02*
X130392746Y-79395741D01*
X130392746Y-79395741D02*
X130500496Y-79341866D01*
X130500496Y-79341866D02*
X130554371Y-79287991D01*
X130554371Y-79287991D02*
X130608246Y-79180241D01*
X130608246Y-79180241D02*
X130608246Y-79126367D01*
X130608246Y-79126367D02*
X130419684Y-78937805D01*
X130419684Y-78937805D02*
X130311934Y-79045554D01*
X130904557Y-78937805D02*
X130338872Y-78372119D01*
X130338872Y-78372119D02*
X131227806Y-78614556D01*
X131227806Y-78614556D02*
X130662120Y-78048871D01*
X131497180Y-78345182D02*
X130931494Y-77779497D01*
X130931494Y-77779497D02*
X131066181Y-77644810D01*
X131066181Y-77644810D02*
X131173931Y-77590935D01*
X131173931Y-77590935D02*
X131281680Y-77590935D01*
X131281680Y-77590935D02*
X131362493Y-77617872D01*
X131362493Y-77617872D02*
X131497180Y-77698685D01*
X131497180Y-77698685D02*
X131577992Y-77779497D01*
X131577992Y-77779497D02*
X131658804Y-77914184D01*
X131658804Y-77914184D02*
X131685741Y-77994996D01*
X131685741Y-77994996D02*
X131685741Y-78102746D01*
X131685741Y-78102746D02*
X131631867Y-78210495D01*
X131631867Y-78210495D02*
X131497180Y-78345182D01*
X155707998Y-76116868D02*
X155627185Y-76143805D01*
X155627185Y-76143805D02*
X155546373Y-76224618D01*
X155546373Y-76224618D02*
X155492498Y-76332367D01*
X155492498Y-76332367D02*
X155492498Y-76440117D01*
X155492498Y-76440117D02*
X155519436Y-76520929D01*
X155519436Y-76520929D02*
X155600248Y-76655616D01*
X155600248Y-76655616D02*
X155681060Y-76736428D01*
X155681060Y-76736428D02*
X155815747Y-76817241D01*
X155815747Y-76817241D02*
X155896560Y-76844178D01*
X155896560Y-76844178D02*
X156004309Y-76844178D01*
X156004309Y-76844178D02*
X156112059Y-76790303D01*
X156112059Y-76790303D02*
X156165934Y-76736428D01*
X156165934Y-76736428D02*
X156219808Y-76628679D01*
X156219808Y-76628679D02*
X156219808Y-76574804D01*
X156219808Y-76574804D02*
X156031247Y-76386242D01*
X156031247Y-76386242D02*
X155923497Y-76493992D01*
X156516120Y-76386242D02*
X155950434Y-75820557D01*
X155950434Y-75820557D02*
X156165934Y-75605057D01*
X156165934Y-75605057D02*
X156246746Y-75578120D01*
X156246746Y-75578120D02*
X156300621Y-75578120D01*
X156300621Y-75578120D02*
X156381433Y-75605057D01*
X156381433Y-75605057D02*
X156462245Y-75685870D01*
X156462245Y-75685870D02*
X156489182Y-75766682D01*
X156489182Y-75766682D02*
X156489182Y-75820557D01*
X156489182Y-75820557D02*
X156462245Y-75901369D01*
X156462245Y-75901369D02*
X156246746Y-76116868D01*
X156543057Y-75335683D02*
X156543057Y-75281809D01*
X156543057Y-75281809D02*
X156569995Y-75200996D01*
X156569995Y-75200996D02*
X156704682Y-75066309D01*
X156704682Y-75066309D02*
X156785494Y-75039372D01*
X156785494Y-75039372D02*
X156839369Y-75039372D01*
X156839369Y-75039372D02*
X156920181Y-75066309D01*
X156920181Y-75066309D02*
X156974056Y-75120184D01*
X156974056Y-75120184D02*
X157027930Y-75227934D01*
X157027930Y-75227934D02*
X157027930Y-75874431D01*
X157027930Y-75874431D02*
X157378117Y-75524245D01*
X157378117Y-74877747D02*
X157297305Y-74904685D01*
X157297305Y-74904685D02*
X157243430Y-74904685D01*
X157243430Y-74904685D02*
X157162618Y-74877747D01*
X157162618Y-74877747D02*
X157135680Y-74850810D01*
X157135680Y-74850810D02*
X157108743Y-74769998D01*
X157108743Y-74769998D02*
X157108743Y-74716123D01*
X157108743Y-74716123D02*
X157135680Y-74635311D01*
X157135680Y-74635311D02*
X157243430Y-74527561D01*
X157243430Y-74527561D02*
X157324242Y-74500624D01*
X157324242Y-74500624D02*
X157378117Y-74500624D01*
X157378117Y-74500624D02*
X157458929Y-74527561D01*
X157458929Y-74527561D02*
X157485866Y-74554499D01*
X157485866Y-74554499D02*
X157512804Y-74635311D01*
X157512804Y-74635311D02*
X157512804Y-74689186D01*
X157512804Y-74689186D02*
X157485866Y-74769998D01*
X157485866Y-74769998D02*
X157378117Y-74877747D01*
X157378117Y-74877747D02*
X157351179Y-74958560D01*
X157351179Y-74958560D02*
X157351179Y-75012434D01*
X157351179Y-75012434D02*
X157378117Y-75093247D01*
X157378117Y-75093247D02*
X157485866Y-75200996D01*
X157485866Y-75200996D02*
X157566679Y-75227934D01*
X157566679Y-75227934D02*
X157620553Y-75227934D01*
X157620553Y-75227934D02*
X157701366Y-75200996D01*
X157701366Y-75200996D02*
X157809115Y-75093247D01*
X157809115Y-75093247D02*
X157836053Y-75012434D01*
X157836053Y-75012434D02*
X157836053Y-74958560D01*
X157836053Y-74958560D02*
X157809115Y-74877747D01*
X157809115Y-74877747D02*
X157701366Y-74769998D01*
X157701366Y-74769998D02*
X157620553Y-74743060D01*
X157620553Y-74743060D02*
X157566679Y-74743060D01*
X157566679Y-74743060D02*
X157485866Y-74769998D01*
X130123372Y-88801494D02*
X130042560Y-88828431D01*
X130042560Y-88828431D02*
X129961748Y-88909243D01*
X129961748Y-88909243D02*
X129907873Y-89016993D01*
X129907873Y-89016993D02*
X129907873Y-89124742D01*
X129907873Y-89124742D02*
X129934810Y-89205555D01*
X129934810Y-89205555D02*
X130015623Y-89340242D01*
X130015623Y-89340242D02*
X130096435Y-89421054D01*
X130096435Y-89421054D02*
X130231122Y-89501866D01*
X130231122Y-89501866D02*
X130311934Y-89528803D01*
X130311934Y-89528803D02*
X130419684Y-89528803D01*
X130419684Y-89528803D02*
X130527433Y-89474929D01*
X130527433Y-89474929D02*
X130581308Y-89421054D01*
X130581308Y-89421054D02*
X130635183Y-89313304D01*
X130635183Y-89313304D02*
X130635183Y-89259429D01*
X130635183Y-89259429D02*
X130446621Y-89070868D01*
X130446621Y-89070868D02*
X130338871Y-89178617D01*
X130931494Y-89070868D02*
X130365809Y-88505182D01*
X130365809Y-88505182D02*
X130581308Y-88289683D01*
X130581308Y-88289683D02*
X130662120Y-88262746D01*
X130662120Y-88262746D02*
X130715995Y-88262746D01*
X130715995Y-88262746D02*
X130796807Y-88289683D01*
X130796807Y-88289683D02*
X130877619Y-88370495D01*
X130877619Y-88370495D02*
X130904557Y-88451307D01*
X130904557Y-88451307D02*
X130904557Y-88505182D01*
X130904557Y-88505182D02*
X130877619Y-88585994D01*
X130877619Y-88585994D02*
X130662120Y-88801494D01*
X131524117Y-88478245D02*
X131631867Y-88370495D01*
X131631867Y-88370495D02*
X131658804Y-88289683D01*
X131658804Y-88289683D02*
X131658804Y-88235808D01*
X131658804Y-88235808D02*
X131631867Y-88101121D01*
X131631867Y-88101121D02*
X131551054Y-87966434D01*
X131551054Y-87966434D02*
X131335555Y-87750935D01*
X131335555Y-87750935D02*
X131254743Y-87723998D01*
X131254743Y-87723998D02*
X131200868Y-87723998D01*
X131200868Y-87723998D02*
X131120056Y-87750935D01*
X131120056Y-87750935D02*
X131012306Y-87858685D01*
X131012306Y-87858685D02*
X130985369Y-87939497D01*
X130985369Y-87939497D02*
X130985369Y-87993372D01*
X130985369Y-87993372D02*
X131012306Y-88074184D01*
X131012306Y-88074184D02*
X131146993Y-88208871D01*
X131146993Y-88208871D02*
X131227806Y-88235808D01*
X131227806Y-88235808D02*
X131281680Y-88235808D01*
X131281680Y-88235808D02*
X131362493Y-88208871D01*
X131362493Y-88208871D02*
X131470242Y-88101121D01*
X131470242Y-88101121D02*
X131497180Y-88020309D01*
X131497180Y-88020309D02*
X131497180Y-87966434D01*
X131497180Y-87966434D02*
X131470242Y-87885622D01*
X147514761Y-111394200D02*
X147629047Y-111432295D01*
X147629047Y-111432295D02*
X147819523Y-111432295D01*
X147819523Y-111432295D02*
X147895714Y-111394200D01*
X147895714Y-111394200D02*
X147933809Y-111356104D01*
X147933809Y-111356104D02*
X147971904Y-111279914D01*
X147971904Y-111279914D02*
X147971904Y-111203723D01*
X147971904Y-111203723D02*
X147933809Y-111127533D01*
X147933809Y-111127533D02*
X147895714Y-111089438D01*
X147895714Y-111089438D02*
X147819523Y-111051342D01*
X147819523Y-111051342D02*
X147667142Y-111013247D01*
X147667142Y-111013247D02*
X147590952Y-110975152D01*
X147590952Y-110975152D02*
X147552857Y-110937057D01*
X147552857Y-110937057D02*
X147514761Y-110860866D01*
X147514761Y-110860866D02*
X147514761Y-110784676D01*
X147514761Y-110784676D02*
X147552857Y-110708485D01*
X147552857Y-110708485D02*
X147590952Y-110670390D01*
X147590952Y-110670390D02*
X147667142Y-110632295D01*
X147667142Y-110632295D02*
X147857619Y-110632295D01*
X147857619Y-110632295D02*
X147971904Y-110670390D01*
X148238571Y-110632295D02*
X148429047Y-111432295D01*
X148429047Y-111432295D02*
X148581428Y-110860866D01*
X148581428Y-110860866D02*
X148733809Y-111432295D01*
X148733809Y-111432295D02*
X148924286Y-110632295D01*
X149229048Y-111432295D02*
X149229048Y-110632295D01*
X149229048Y-110632295D02*
X149419524Y-110632295D01*
X149419524Y-110632295D02*
X149533810Y-110670390D01*
X149533810Y-110670390D02*
X149610000Y-110746580D01*
X149610000Y-110746580D02*
X149648095Y-110822771D01*
X149648095Y-110822771D02*
X149686191Y-110975152D01*
X149686191Y-110975152D02*
X149686191Y-111089438D01*
X149686191Y-111089438D02*
X149648095Y-111241819D01*
X149648095Y-111241819D02*
X149610000Y-111318009D01*
X149610000Y-111318009D02*
X149533810Y-111394200D01*
X149533810Y-111394200D02*
X149419524Y-111432295D01*
X149419524Y-111432295D02*
X149229048Y-111432295D01*
X150029048Y-111432295D02*
X150029048Y-110632295D01*
X150562381Y-110632295D02*
X150714762Y-110632295D01*
X150714762Y-110632295D02*
X150790952Y-110670390D01*
X150790952Y-110670390D02*
X150867143Y-110746580D01*
X150867143Y-110746580D02*
X150905238Y-110898961D01*
X150905238Y-110898961D02*
X150905238Y-111165628D01*
X150905238Y-111165628D02*
X150867143Y-111318009D01*
X150867143Y-111318009D02*
X150790952Y-111394200D01*
X150790952Y-111394200D02*
X150714762Y-111432295D01*
X150714762Y-111432295D02*
X150562381Y-111432295D01*
X150562381Y-111432295D02*
X150486190Y-111394200D01*
X150486190Y-111394200D02*
X150410000Y-111318009D01*
X150410000Y-111318009D02*
X150371904Y-111165628D01*
X150371904Y-111165628D02*
X150371904Y-110898961D01*
X150371904Y-110898961D02*
X150410000Y-110746580D01*
X150410000Y-110746580D02*
X150486190Y-110670390D01*
X150486190Y-110670390D02*
X150562381Y-110632295D01*
X130123372Y-76101494D02*
X130042560Y-76128431D01*
X130042560Y-76128431D02*
X129961748Y-76209243D01*
X129961748Y-76209243D02*
X129907873Y-76316993D01*
X129907873Y-76316993D02*
X129907873Y-76424742D01*
X129907873Y-76424742D02*
X129934810Y-76505555D01*
X129934810Y-76505555D02*
X130015623Y-76640242D01*
X130015623Y-76640242D02*
X130096435Y-76721054D01*
X130096435Y-76721054D02*
X130231122Y-76801866D01*
X130231122Y-76801866D02*
X130311934Y-76828803D01*
X130311934Y-76828803D02*
X130419684Y-76828803D01*
X130419684Y-76828803D02*
X130527433Y-76774929D01*
X130527433Y-76774929D02*
X130581308Y-76721054D01*
X130581308Y-76721054D02*
X130635183Y-76613304D01*
X130635183Y-76613304D02*
X130635183Y-76559429D01*
X130635183Y-76559429D02*
X130446621Y-76370868D01*
X130446621Y-76370868D02*
X130338871Y-76478617D01*
X130931494Y-76370868D02*
X130365809Y-75805182D01*
X130365809Y-75805182D02*
X130581308Y-75589683D01*
X130581308Y-75589683D02*
X130662120Y-75562746D01*
X130662120Y-75562746D02*
X130715995Y-75562746D01*
X130715995Y-75562746D02*
X130796807Y-75589683D01*
X130796807Y-75589683D02*
X130877619Y-75670495D01*
X130877619Y-75670495D02*
X130904557Y-75751307D01*
X130904557Y-75751307D02*
X130904557Y-75805182D01*
X130904557Y-75805182D02*
X130877619Y-75885994D01*
X130877619Y-75885994D02*
X130662120Y-76101494D01*
X131200868Y-74970123D02*
X130931494Y-75239497D01*
X130931494Y-75239497D02*
X131173931Y-75535808D01*
X131173931Y-75535808D02*
X131173931Y-75481933D01*
X131173931Y-75481933D02*
X131200868Y-75401121D01*
X131200868Y-75401121D02*
X131335555Y-75266434D01*
X131335555Y-75266434D02*
X131416367Y-75239497D01*
X131416367Y-75239497D02*
X131470242Y-75239497D01*
X131470242Y-75239497D02*
X131551054Y-75266434D01*
X131551054Y-75266434D02*
X131685741Y-75401121D01*
X131685741Y-75401121D02*
X131712679Y-75481933D01*
X131712679Y-75481933D02*
X131712679Y-75535808D01*
X131712679Y-75535808D02*
X131685741Y-75616620D01*
X131685741Y-75616620D02*
X131551054Y-75751307D01*
X131551054Y-75751307D02*
X131470242Y-75778245D01*
X131470242Y-75778245D02*
X131416367Y-75778245D01*
X130123372Y-60861494D02*
X130042560Y-60888431D01*
X130042560Y-60888431D02*
X129961748Y-60969243D01*
X129961748Y-60969243D02*
X129907873Y-61076993D01*
X129907873Y-61076993D02*
X129907873Y-61184742D01*
X129907873Y-61184742D02*
X129934810Y-61265555D01*
X129934810Y-61265555D02*
X130015623Y-61400242D01*
X130015623Y-61400242D02*
X130096435Y-61481054D01*
X130096435Y-61481054D02*
X130231122Y-61561866D01*
X130231122Y-61561866D02*
X130311934Y-61588803D01*
X130311934Y-61588803D02*
X130419684Y-61588803D01*
X130419684Y-61588803D02*
X130527433Y-61534929D01*
X130527433Y-61534929D02*
X130581308Y-61481054D01*
X130581308Y-61481054D02*
X130635183Y-61373304D01*
X130635183Y-61373304D02*
X130635183Y-61319429D01*
X130635183Y-61319429D02*
X130446621Y-61130868D01*
X130446621Y-61130868D02*
X130338871Y-61238617D01*
X130931494Y-61130868D02*
X130365809Y-60565182D01*
X130365809Y-60565182D02*
X130581308Y-60349683D01*
X130581308Y-60349683D02*
X130662120Y-60322746D01*
X130662120Y-60322746D02*
X130715995Y-60322746D01*
X130715995Y-60322746D02*
X130796807Y-60349683D01*
X130796807Y-60349683D02*
X130877619Y-60430495D01*
X130877619Y-60430495D02*
X130904557Y-60511307D01*
X130904557Y-60511307D02*
X130904557Y-60565182D01*
X130904557Y-60565182D02*
X130877619Y-60645994D01*
X130877619Y-60645994D02*
X130662120Y-60861494D01*
X131039244Y-59891747D02*
X131093119Y-59837872D01*
X131093119Y-59837872D02*
X131173931Y-59810935D01*
X131173931Y-59810935D02*
X131227806Y-59810935D01*
X131227806Y-59810935D02*
X131308618Y-59837872D01*
X131308618Y-59837872D02*
X131443305Y-59918685D01*
X131443305Y-59918685D02*
X131577992Y-60053372D01*
X131577992Y-60053372D02*
X131658804Y-60188059D01*
X131658804Y-60188059D02*
X131685741Y-60268871D01*
X131685741Y-60268871D02*
X131685741Y-60322746D01*
X131685741Y-60322746D02*
X131658804Y-60403558D01*
X131658804Y-60403558D02*
X131604929Y-60457433D01*
X131604929Y-60457433D02*
X131524117Y-60484370D01*
X131524117Y-60484370D02*
X131470242Y-60484370D01*
X131470242Y-60484370D02*
X131389430Y-60457433D01*
X131389430Y-60457433D02*
X131254743Y-60376620D01*
X131254743Y-60376620D02*
X131120056Y-60241933D01*
X131120056Y-60241933D02*
X131039244Y-60107246D01*
X131039244Y-60107246D02*
X131012306Y-60026434D01*
X131012306Y-60026434D02*
X131012306Y-59972559D01*
X131012306Y-59972559D02*
X131039244Y-59891747D01*
X130123372Y-71021494D02*
X130042560Y-71048431D01*
X130042560Y-71048431D02*
X129961748Y-71129243D01*
X129961748Y-71129243D02*
X129907873Y-71236993D01*
X129907873Y-71236993D02*
X129907873Y-71344742D01*
X129907873Y-71344742D02*
X129934810Y-71425555D01*
X129934810Y-71425555D02*
X130015623Y-71560242D01*
X130015623Y-71560242D02*
X130096435Y-71641054D01*
X130096435Y-71641054D02*
X130231122Y-71721866D01*
X130231122Y-71721866D02*
X130311934Y-71748803D01*
X130311934Y-71748803D02*
X130419684Y-71748803D01*
X130419684Y-71748803D02*
X130527433Y-71694929D01*
X130527433Y-71694929D02*
X130581308Y-71641054D01*
X130581308Y-71641054D02*
X130635183Y-71533304D01*
X130635183Y-71533304D02*
X130635183Y-71479429D01*
X130635183Y-71479429D02*
X130446621Y-71290868D01*
X130446621Y-71290868D02*
X130338871Y-71398617D01*
X130931494Y-71290868D02*
X130365809Y-70725182D01*
X130365809Y-70725182D02*
X130581308Y-70509683D01*
X130581308Y-70509683D02*
X130662120Y-70482746D01*
X130662120Y-70482746D02*
X130715995Y-70482746D01*
X130715995Y-70482746D02*
X130796807Y-70509683D01*
X130796807Y-70509683D02*
X130877619Y-70590495D01*
X130877619Y-70590495D02*
X130904557Y-70671307D01*
X130904557Y-70671307D02*
X130904557Y-70725182D01*
X130904557Y-70725182D02*
X130877619Y-70805994D01*
X130877619Y-70805994D02*
X130662120Y-71021494D01*
X130877619Y-70213372D02*
X131227806Y-69863185D01*
X131227806Y-69863185D02*
X131254743Y-70267246D01*
X131254743Y-70267246D02*
X131335555Y-70186434D01*
X131335555Y-70186434D02*
X131416367Y-70159497D01*
X131416367Y-70159497D02*
X131470242Y-70159497D01*
X131470242Y-70159497D02*
X131551054Y-70186434D01*
X131551054Y-70186434D02*
X131685741Y-70321121D01*
X131685741Y-70321121D02*
X131712679Y-70401933D01*
X131712679Y-70401933D02*
X131712679Y-70455808D01*
X131712679Y-70455808D02*
X131685741Y-70536620D01*
X131685741Y-70536620D02*
X131524117Y-70698245D01*
X131524117Y-70698245D02*
X131443305Y-70725182D01*
X131443305Y-70725182D02*
X131389430Y-70725182D01*
X130096435Y-104068431D02*
X130015623Y-104095368D01*
X130015623Y-104095368D02*
X129934811Y-104176180D01*
X129934811Y-104176180D02*
X129880936Y-104283930D01*
X129880936Y-104283930D02*
X129880936Y-104391680D01*
X129880936Y-104391680D02*
X129907873Y-104472492D01*
X129907873Y-104472492D02*
X129988685Y-104607179D01*
X129988685Y-104607179D02*
X130069498Y-104687991D01*
X130069498Y-104687991D02*
X130204185Y-104768803D01*
X130204185Y-104768803D02*
X130284997Y-104795741D01*
X130284997Y-104795741D02*
X130392746Y-104795741D01*
X130392746Y-104795741D02*
X130500496Y-104741866D01*
X130500496Y-104741866D02*
X130554371Y-104687991D01*
X130554371Y-104687991D02*
X130608246Y-104580241D01*
X130608246Y-104580241D02*
X130608246Y-104526367D01*
X130608246Y-104526367D02*
X130419684Y-104337805D01*
X130419684Y-104337805D02*
X130311934Y-104445554D01*
X130904557Y-104337805D02*
X130338872Y-103772119D01*
X130338872Y-103772119D02*
X131227806Y-104014556D01*
X131227806Y-104014556D02*
X130662120Y-103448871D01*
X131497180Y-103745182D02*
X130931494Y-103179497D01*
X130931494Y-103179497D02*
X131066181Y-103044810D01*
X131066181Y-103044810D02*
X131173931Y-102990935D01*
X131173931Y-102990935D02*
X131281680Y-102990935D01*
X131281680Y-102990935D02*
X131362493Y-103017872D01*
X131362493Y-103017872D02*
X131497180Y-103098685D01*
X131497180Y-103098685D02*
X131577992Y-103179497D01*
X131577992Y-103179497D02*
X131658804Y-103314184D01*
X131658804Y-103314184D02*
X131685741Y-103394996D01*
X131685741Y-103394996D02*
X131685741Y-103502746D01*
X131685741Y-103502746D02*
X131631867Y-103610495D01*
X131631867Y-103610495D02*
X131497180Y-103745182D01*
X130096435Y-65968431D02*
X130015623Y-65995368D01*
X130015623Y-65995368D02*
X129934811Y-66076180D01*
X129934811Y-66076180D02*
X129880936Y-66183930D01*
X129880936Y-66183930D02*
X129880936Y-66291680D01*
X129880936Y-66291680D02*
X129907873Y-66372492D01*
X129907873Y-66372492D02*
X129988685Y-66507179D01*
X129988685Y-66507179D02*
X130069498Y-66587991D01*
X130069498Y-66587991D02*
X130204185Y-66668803D01*
X130204185Y-66668803D02*
X130284997Y-66695741D01*
X130284997Y-66695741D02*
X130392746Y-66695741D01*
X130392746Y-66695741D02*
X130500496Y-66641866D01*
X130500496Y-66641866D02*
X130554371Y-66587991D01*
X130554371Y-66587991D02*
X130608246Y-66480241D01*
X130608246Y-66480241D02*
X130608246Y-66426367D01*
X130608246Y-66426367D02*
X130419684Y-66237805D01*
X130419684Y-66237805D02*
X130311934Y-66345554D01*
X130904557Y-66237805D02*
X130338872Y-65672119D01*
X130338872Y-65672119D02*
X131227806Y-65914556D01*
X131227806Y-65914556D02*
X130662120Y-65348871D01*
X131497180Y-65645182D02*
X130931494Y-65079497D01*
X130931494Y-65079497D02*
X131066181Y-64944810D01*
X131066181Y-64944810D02*
X131173931Y-64890935D01*
X131173931Y-64890935D02*
X131281680Y-64890935D01*
X131281680Y-64890935D02*
X131362493Y-64917872D01*
X131362493Y-64917872D02*
X131497180Y-64998685D01*
X131497180Y-64998685D02*
X131577992Y-65079497D01*
X131577992Y-65079497D02*
X131658804Y-65214184D01*
X131658804Y-65214184D02*
X131685741Y-65294996D01*
X131685741Y-65294996D02*
X131685741Y-65402746D01*
X131685741Y-65402746D02*
X131631867Y-65510495D01*
X131631867Y-65510495D02*
X131497180Y-65645182D01*
X155707998Y-96690868D02*
X155627185Y-96717805D01*
X155627185Y-96717805D02*
X155546373Y-96798618D01*
X155546373Y-96798618D02*
X155492498Y-96906367D01*
X155492498Y-96906367D02*
X155492498Y-97014117D01*
X155492498Y-97014117D02*
X155519436Y-97094929D01*
X155519436Y-97094929D02*
X155600248Y-97229616D01*
X155600248Y-97229616D02*
X155681060Y-97310428D01*
X155681060Y-97310428D02*
X155815747Y-97391241D01*
X155815747Y-97391241D02*
X155896560Y-97418178D01*
X155896560Y-97418178D02*
X156004309Y-97418178D01*
X156004309Y-97418178D02*
X156112059Y-97364303D01*
X156112059Y-97364303D02*
X156165934Y-97310428D01*
X156165934Y-97310428D02*
X156219808Y-97202679D01*
X156219808Y-97202679D02*
X156219808Y-97148804D01*
X156219808Y-97148804D02*
X156031247Y-96960242D01*
X156031247Y-96960242D02*
X155923497Y-97067992D01*
X156516120Y-96960242D02*
X155950434Y-96394557D01*
X155950434Y-96394557D02*
X156165934Y-96179057D01*
X156165934Y-96179057D02*
X156246746Y-96152120D01*
X156246746Y-96152120D02*
X156300621Y-96152120D01*
X156300621Y-96152120D02*
X156381433Y-96179057D01*
X156381433Y-96179057D02*
X156462245Y-96259870D01*
X156462245Y-96259870D02*
X156489182Y-96340682D01*
X156489182Y-96340682D02*
X156489182Y-96394557D01*
X156489182Y-96394557D02*
X156462245Y-96475369D01*
X156462245Y-96475369D02*
X156246746Y-96690868D01*
X156543057Y-95909683D02*
X156543057Y-95855809D01*
X156543057Y-95855809D02*
X156569995Y-95774996D01*
X156569995Y-95774996D02*
X156704682Y-95640309D01*
X156704682Y-95640309D02*
X156785494Y-95613372D01*
X156785494Y-95613372D02*
X156839369Y-95613372D01*
X156839369Y-95613372D02*
X156920181Y-95640309D01*
X156920181Y-95640309D02*
X156974056Y-95694184D01*
X156974056Y-95694184D02*
X157027930Y-95801934D01*
X157027930Y-95801934D02*
X157027930Y-96448431D01*
X157027930Y-96448431D02*
X157378117Y-96098245D01*
X157162618Y-95182373D02*
X157216492Y-95128499D01*
X157216492Y-95128499D02*
X157297305Y-95101561D01*
X157297305Y-95101561D02*
X157351179Y-95101561D01*
X157351179Y-95101561D02*
X157431992Y-95128499D01*
X157431992Y-95128499D02*
X157566679Y-95209311D01*
X157566679Y-95209311D02*
X157701366Y-95343998D01*
X157701366Y-95343998D02*
X157782178Y-95478685D01*
X157782178Y-95478685D02*
X157809115Y-95559497D01*
X157809115Y-95559497D02*
X157809115Y-95613372D01*
X157809115Y-95613372D02*
X157782178Y-95694184D01*
X157782178Y-95694184D02*
X157728303Y-95748059D01*
X157728303Y-95748059D02*
X157647491Y-95774996D01*
X157647491Y-95774996D02*
X157593616Y-95774996D01*
X157593616Y-95774996D02*
X157512804Y-95748059D01*
X157512804Y-95748059D02*
X157378117Y-95667247D01*
X157378117Y-95667247D02*
X157243430Y-95532560D01*
X157243430Y-95532560D02*
X157162618Y-95397873D01*
X157162618Y-95397873D02*
X157135680Y-95317060D01*
X157135680Y-95317060D02*
X157135680Y-95263186D01*
X157135680Y-95263186D02*
X157162618Y-95182373D01*
X155707998Y-99230868D02*
X155627185Y-99257805D01*
X155627185Y-99257805D02*
X155546373Y-99338618D01*
X155546373Y-99338618D02*
X155492498Y-99446367D01*
X155492498Y-99446367D02*
X155492498Y-99554117D01*
X155492498Y-99554117D02*
X155519436Y-99634929D01*
X155519436Y-99634929D02*
X155600248Y-99769616D01*
X155600248Y-99769616D02*
X155681060Y-99850428D01*
X155681060Y-99850428D02*
X155815747Y-99931241D01*
X155815747Y-99931241D02*
X155896560Y-99958178D01*
X155896560Y-99958178D02*
X156004309Y-99958178D01*
X156004309Y-99958178D02*
X156112059Y-99904303D01*
X156112059Y-99904303D02*
X156165934Y-99850428D01*
X156165934Y-99850428D02*
X156219808Y-99742679D01*
X156219808Y-99742679D02*
X156219808Y-99688804D01*
X156219808Y-99688804D02*
X156031247Y-99500242D01*
X156031247Y-99500242D02*
X155923497Y-99607992D01*
X156516120Y-99500242D02*
X155950434Y-98934557D01*
X155950434Y-98934557D02*
X156165934Y-98719057D01*
X156165934Y-98719057D02*
X156246746Y-98692120D01*
X156246746Y-98692120D02*
X156300621Y-98692120D01*
X156300621Y-98692120D02*
X156381433Y-98719057D01*
X156381433Y-98719057D02*
X156462245Y-98799870D01*
X156462245Y-98799870D02*
X156489182Y-98880682D01*
X156489182Y-98880682D02*
X156489182Y-98934557D01*
X156489182Y-98934557D02*
X156462245Y-99015369D01*
X156462245Y-99015369D02*
X156246746Y-99230868D01*
X157378117Y-98638245D02*
X157054868Y-98961494D01*
X157216492Y-98799870D02*
X156650807Y-98234184D01*
X156650807Y-98234184D02*
X156677744Y-98368871D01*
X156677744Y-98368871D02*
X156677744Y-98476621D01*
X156677744Y-98476621D02*
X156650807Y-98557433D01*
X157647491Y-98368871D02*
X157755240Y-98261121D01*
X157755240Y-98261121D02*
X157782178Y-98180309D01*
X157782178Y-98180309D02*
X157782178Y-98126434D01*
X157782178Y-98126434D02*
X157755240Y-97991747D01*
X157755240Y-97991747D02*
X157674428Y-97857060D01*
X157674428Y-97857060D02*
X157458929Y-97641561D01*
X157458929Y-97641561D02*
X157378117Y-97614624D01*
X157378117Y-97614624D02*
X157324242Y-97614624D01*
X157324242Y-97614624D02*
X157243430Y-97641561D01*
X157243430Y-97641561D02*
X157135680Y-97749311D01*
X157135680Y-97749311D02*
X157108743Y-97830123D01*
X157108743Y-97830123D02*
X157108743Y-97883998D01*
X157108743Y-97883998D02*
X157135680Y-97964810D01*
X157135680Y-97964810D02*
X157270367Y-98099497D01*
X157270367Y-98099497D02*
X157351179Y-98126434D01*
X157351179Y-98126434D02*
X157405054Y-98126434D01*
X157405054Y-98126434D02*
X157485866Y-98099497D01*
X157485866Y-98099497D02*
X157593616Y-97991747D01*
X157593616Y-97991747D02*
X157620553Y-97910935D01*
X157620553Y-97910935D02*
X157620553Y-97857060D01*
X157620553Y-97857060D02*
X157593616Y-97776248D01*
X130023372Y-68481494D02*
X129942560Y-68508431D01*
X129942560Y-68508431D02*
X129861748Y-68589243D01*
X129861748Y-68589243D02*
X129807873Y-68696993D01*
X129807873Y-68696993D02*
X129807873Y-68804742D01*
X129807873Y-68804742D02*
X129834810Y-68885555D01*
X129834810Y-68885555D02*
X129915623Y-69020242D01*
X129915623Y-69020242D02*
X129996435Y-69101054D01*
X129996435Y-69101054D02*
X130131122Y-69181866D01*
X130131122Y-69181866D02*
X130211934Y-69208803D01*
X130211934Y-69208803D02*
X130319684Y-69208803D01*
X130319684Y-69208803D02*
X130427433Y-69154929D01*
X130427433Y-69154929D02*
X130481308Y-69101054D01*
X130481308Y-69101054D02*
X130535183Y-68993304D01*
X130535183Y-68993304D02*
X130535183Y-68939429D01*
X130535183Y-68939429D02*
X130346621Y-68750868D01*
X130346621Y-68750868D02*
X130238871Y-68858617D01*
X130831494Y-68750868D02*
X130265809Y-68185182D01*
X130265809Y-68185182D02*
X130481308Y-67969683D01*
X130481308Y-67969683D02*
X130562120Y-67942746D01*
X130562120Y-67942746D02*
X130615995Y-67942746D01*
X130615995Y-67942746D02*
X130696807Y-67969683D01*
X130696807Y-67969683D02*
X130777619Y-68050495D01*
X130777619Y-68050495D02*
X130804557Y-68131307D01*
X130804557Y-68131307D02*
X130804557Y-68185182D01*
X130804557Y-68185182D02*
X130777619Y-68265994D01*
X130777619Y-68265994D02*
X130562120Y-68481494D01*
X130858432Y-67700309D02*
X130858432Y-67646434D01*
X130858432Y-67646434D02*
X130885369Y-67565622D01*
X130885369Y-67565622D02*
X131020056Y-67430935D01*
X131020056Y-67430935D02*
X131100868Y-67403998D01*
X131100868Y-67403998D02*
X131154743Y-67403998D01*
X131154743Y-67403998D02*
X131235555Y-67430935D01*
X131235555Y-67430935D02*
X131289430Y-67484810D01*
X131289430Y-67484810D02*
X131343305Y-67592559D01*
X131343305Y-67592559D02*
X131343305Y-68239057D01*
X131343305Y-68239057D02*
X131693491Y-67888871D01*
X155707998Y-101770868D02*
X155627185Y-101797805D01*
X155627185Y-101797805D02*
X155546373Y-101878618D01*
X155546373Y-101878618D02*
X155492498Y-101986367D01*
X155492498Y-101986367D02*
X155492498Y-102094117D01*
X155492498Y-102094117D02*
X155519436Y-102174929D01*
X155519436Y-102174929D02*
X155600248Y-102309616D01*
X155600248Y-102309616D02*
X155681060Y-102390428D01*
X155681060Y-102390428D02*
X155815747Y-102471241D01*
X155815747Y-102471241D02*
X155896560Y-102498178D01*
X155896560Y-102498178D02*
X156004309Y-102498178D01*
X156004309Y-102498178D02*
X156112059Y-102444303D01*
X156112059Y-102444303D02*
X156165934Y-102390428D01*
X156165934Y-102390428D02*
X156219808Y-102282679D01*
X156219808Y-102282679D02*
X156219808Y-102228804D01*
X156219808Y-102228804D02*
X156031247Y-102040242D01*
X156031247Y-102040242D02*
X155923497Y-102147992D01*
X156516120Y-102040242D02*
X155950434Y-101474557D01*
X155950434Y-101474557D02*
X156165934Y-101259057D01*
X156165934Y-101259057D02*
X156246746Y-101232120D01*
X156246746Y-101232120D02*
X156300621Y-101232120D01*
X156300621Y-101232120D02*
X156381433Y-101259057D01*
X156381433Y-101259057D02*
X156462245Y-101339870D01*
X156462245Y-101339870D02*
X156489182Y-101420682D01*
X156489182Y-101420682D02*
X156489182Y-101474557D01*
X156489182Y-101474557D02*
X156462245Y-101555369D01*
X156462245Y-101555369D02*
X156246746Y-101770868D01*
X157378117Y-101178245D02*
X157054868Y-101501494D01*
X157216492Y-101339870D02*
X156650807Y-100774184D01*
X156650807Y-100774184D02*
X156677744Y-100908871D01*
X156677744Y-100908871D02*
X156677744Y-101016621D01*
X156677744Y-101016621D02*
X156650807Y-101097433D01*
X157378117Y-100531747D02*
X157297305Y-100558685D01*
X157297305Y-100558685D02*
X157243430Y-100558685D01*
X157243430Y-100558685D02*
X157162618Y-100531747D01*
X157162618Y-100531747D02*
X157135680Y-100504810D01*
X157135680Y-100504810D02*
X157108743Y-100423998D01*
X157108743Y-100423998D02*
X157108743Y-100370123D01*
X157108743Y-100370123D02*
X157135680Y-100289311D01*
X157135680Y-100289311D02*
X157243430Y-100181561D01*
X157243430Y-100181561D02*
X157324242Y-100154624D01*
X157324242Y-100154624D02*
X157378117Y-100154624D01*
X157378117Y-100154624D02*
X157458929Y-100181561D01*
X157458929Y-100181561D02*
X157485866Y-100208499D01*
X157485866Y-100208499D02*
X157512804Y-100289311D01*
X157512804Y-100289311D02*
X157512804Y-100343186D01*
X157512804Y-100343186D02*
X157485866Y-100423998D01*
X157485866Y-100423998D02*
X157378117Y-100531747D01*
X157378117Y-100531747D02*
X157351179Y-100612560D01*
X157351179Y-100612560D02*
X157351179Y-100666434D01*
X157351179Y-100666434D02*
X157378117Y-100747247D01*
X157378117Y-100747247D02*
X157485866Y-100854996D01*
X157485866Y-100854996D02*
X157566679Y-100881934D01*
X157566679Y-100881934D02*
X157620553Y-100881934D01*
X157620553Y-100881934D02*
X157701366Y-100854996D01*
X157701366Y-100854996D02*
X157809115Y-100747247D01*
X157809115Y-100747247D02*
X157836053Y-100666434D01*
X157836053Y-100666434D02*
X157836053Y-100612560D01*
X157836053Y-100612560D02*
X157809115Y-100531747D01*
X157809115Y-100531747D02*
X157701366Y-100423998D01*
X157701366Y-100423998D02*
X157620553Y-100397060D01*
X157620553Y-100397060D02*
X157566679Y-100397060D01*
X157566679Y-100397060D02*
X157485866Y-100423998D01*
X130123372Y-81181494D02*
X130042560Y-81208431D01*
X130042560Y-81208431D02*
X129961748Y-81289243D01*
X129961748Y-81289243D02*
X129907873Y-81396993D01*
X129907873Y-81396993D02*
X129907873Y-81504742D01*
X129907873Y-81504742D02*
X129934810Y-81585555D01*
X129934810Y-81585555D02*
X130015623Y-81720242D01*
X130015623Y-81720242D02*
X130096435Y-81801054D01*
X130096435Y-81801054D02*
X130231122Y-81881866D01*
X130231122Y-81881866D02*
X130311934Y-81908803D01*
X130311934Y-81908803D02*
X130419684Y-81908803D01*
X130419684Y-81908803D02*
X130527433Y-81854929D01*
X130527433Y-81854929D02*
X130581308Y-81801054D01*
X130581308Y-81801054D02*
X130635183Y-81693304D01*
X130635183Y-81693304D02*
X130635183Y-81639429D01*
X130635183Y-81639429D02*
X130446621Y-81450868D01*
X130446621Y-81450868D02*
X130338871Y-81558617D01*
X130931494Y-81450868D02*
X130365809Y-80885182D01*
X130365809Y-80885182D02*
X130581308Y-80669683D01*
X130581308Y-80669683D02*
X130662120Y-80642746D01*
X130662120Y-80642746D02*
X130715995Y-80642746D01*
X130715995Y-80642746D02*
X130796807Y-80669683D01*
X130796807Y-80669683D02*
X130877619Y-80750495D01*
X130877619Y-80750495D02*
X130904557Y-80831307D01*
X130904557Y-80831307D02*
X130904557Y-80885182D01*
X130904557Y-80885182D02*
X130877619Y-80965994D01*
X130877619Y-80965994D02*
X130662120Y-81181494D01*
X131173931Y-80077060D02*
X131066181Y-80184810D01*
X131066181Y-80184810D02*
X131039244Y-80265622D01*
X131039244Y-80265622D02*
X131039244Y-80319497D01*
X131039244Y-80319497D02*
X131066181Y-80454184D01*
X131066181Y-80454184D02*
X131146993Y-80588871D01*
X131146993Y-80588871D02*
X131362493Y-80804370D01*
X131362493Y-80804370D02*
X131443305Y-80831307D01*
X131443305Y-80831307D02*
X131497180Y-80831307D01*
X131497180Y-80831307D02*
X131577992Y-80804370D01*
X131577992Y-80804370D02*
X131685741Y-80696620D01*
X131685741Y-80696620D02*
X131712679Y-80615808D01*
X131712679Y-80615808D02*
X131712679Y-80561933D01*
X131712679Y-80561933D02*
X131685741Y-80481121D01*
X131685741Y-80481121D02*
X131551054Y-80346434D01*
X131551054Y-80346434D02*
X131470242Y-80319497D01*
X131470242Y-80319497D02*
X131416367Y-80319497D01*
X131416367Y-80319497D02*
X131335555Y-80346434D01*
X131335555Y-80346434D02*
X131227806Y-80454184D01*
X131227806Y-80454184D02*
X131200868Y-80534996D01*
X131200868Y-80534996D02*
X131200868Y-80588871D01*
X131200868Y-80588871D02*
X131227806Y-80669683D01*
X155707998Y-94160868D02*
X155627185Y-94187805D01*
X155627185Y-94187805D02*
X155546373Y-94268618D01*
X155546373Y-94268618D02*
X155492498Y-94376367D01*
X155492498Y-94376367D02*
X155492498Y-94484117D01*
X155492498Y-94484117D02*
X155519436Y-94564929D01*
X155519436Y-94564929D02*
X155600248Y-94699616D01*
X155600248Y-94699616D02*
X155681060Y-94780428D01*
X155681060Y-94780428D02*
X155815747Y-94861241D01*
X155815747Y-94861241D02*
X155896560Y-94888178D01*
X155896560Y-94888178D02*
X156004309Y-94888178D01*
X156004309Y-94888178D02*
X156112059Y-94834303D01*
X156112059Y-94834303D02*
X156165934Y-94780428D01*
X156165934Y-94780428D02*
X156219808Y-94672679D01*
X156219808Y-94672679D02*
X156219808Y-94618804D01*
X156219808Y-94618804D02*
X156031247Y-94430242D01*
X156031247Y-94430242D02*
X155923497Y-94537992D01*
X156516120Y-94430242D02*
X155950434Y-93864557D01*
X155950434Y-93864557D02*
X156165934Y-93649057D01*
X156165934Y-93649057D02*
X156246746Y-93622120D01*
X156246746Y-93622120D02*
X156300621Y-93622120D01*
X156300621Y-93622120D02*
X156381433Y-93649057D01*
X156381433Y-93649057D02*
X156462245Y-93729870D01*
X156462245Y-93729870D02*
X156489182Y-93810682D01*
X156489182Y-93810682D02*
X156489182Y-93864557D01*
X156489182Y-93864557D02*
X156462245Y-93945369D01*
X156462245Y-93945369D02*
X156246746Y-94160868D01*
X156543057Y-93379683D02*
X156543057Y-93325809D01*
X156543057Y-93325809D02*
X156569995Y-93244996D01*
X156569995Y-93244996D02*
X156704682Y-93110309D01*
X156704682Y-93110309D02*
X156785494Y-93083372D01*
X156785494Y-93083372D02*
X156839369Y-93083372D01*
X156839369Y-93083372D02*
X156920181Y-93110309D01*
X156920181Y-93110309D02*
X156974056Y-93164184D01*
X156974056Y-93164184D02*
X157027930Y-93271934D01*
X157027930Y-93271934D02*
X157027930Y-93918431D01*
X157027930Y-93918431D02*
X157378117Y-93568245D01*
X157916865Y-93029497D02*
X157593616Y-93352746D01*
X157755240Y-93191121D02*
X157189555Y-92625436D01*
X157189555Y-92625436D02*
X157216492Y-92760123D01*
X157216492Y-92760123D02*
X157216492Y-92867873D01*
X157216492Y-92867873D02*
X157189555Y-92948685D01*
X155707998Y-89070868D02*
X155627185Y-89097805D01*
X155627185Y-89097805D02*
X155546373Y-89178618D01*
X155546373Y-89178618D02*
X155492498Y-89286367D01*
X155492498Y-89286367D02*
X155492498Y-89394117D01*
X155492498Y-89394117D02*
X155519436Y-89474929D01*
X155519436Y-89474929D02*
X155600248Y-89609616D01*
X155600248Y-89609616D02*
X155681060Y-89690428D01*
X155681060Y-89690428D02*
X155815747Y-89771241D01*
X155815747Y-89771241D02*
X155896560Y-89798178D01*
X155896560Y-89798178D02*
X156004309Y-89798178D01*
X156004309Y-89798178D02*
X156112059Y-89744303D01*
X156112059Y-89744303D02*
X156165934Y-89690428D01*
X156165934Y-89690428D02*
X156219808Y-89582679D01*
X156219808Y-89582679D02*
X156219808Y-89528804D01*
X156219808Y-89528804D02*
X156031247Y-89340242D01*
X156031247Y-89340242D02*
X155923497Y-89447992D01*
X156516120Y-89340242D02*
X155950434Y-88774557D01*
X155950434Y-88774557D02*
X156165934Y-88559057D01*
X156165934Y-88559057D02*
X156246746Y-88532120D01*
X156246746Y-88532120D02*
X156300621Y-88532120D01*
X156300621Y-88532120D02*
X156381433Y-88559057D01*
X156381433Y-88559057D02*
X156462245Y-88639870D01*
X156462245Y-88639870D02*
X156489182Y-88720682D01*
X156489182Y-88720682D02*
X156489182Y-88774557D01*
X156489182Y-88774557D02*
X156462245Y-88855369D01*
X156462245Y-88855369D02*
X156246746Y-89070868D01*
X156543057Y-88289683D02*
X156543057Y-88235809D01*
X156543057Y-88235809D02*
X156569995Y-88154996D01*
X156569995Y-88154996D02*
X156704682Y-88020309D01*
X156704682Y-88020309D02*
X156785494Y-87993372D01*
X156785494Y-87993372D02*
X156839369Y-87993372D01*
X156839369Y-87993372D02*
X156920181Y-88020309D01*
X156920181Y-88020309D02*
X156974056Y-88074184D01*
X156974056Y-88074184D02*
X157027930Y-88181934D01*
X157027930Y-88181934D02*
X157027930Y-88828431D01*
X157027930Y-88828431D02*
X157378117Y-88478245D01*
X157081805Y-87750935D02*
X157081805Y-87697060D01*
X157081805Y-87697060D02*
X157108743Y-87616248D01*
X157108743Y-87616248D02*
X157243430Y-87481561D01*
X157243430Y-87481561D02*
X157324242Y-87454624D01*
X157324242Y-87454624D02*
X157378117Y-87454624D01*
X157378117Y-87454624D02*
X157458929Y-87481561D01*
X157458929Y-87481561D02*
X157512804Y-87535436D01*
X157512804Y-87535436D02*
X157566679Y-87643186D01*
X157566679Y-87643186D02*
X157566679Y-88289683D01*
X157566679Y-88289683D02*
X157916865Y-87939497D01*
X130096435Y-91368431D02*
X130015623Y-91395368D01*
X130015623Y-91395368D02*
X129934811Y-91476180D01*
X129934811Y-91476180D02*
X129880936Y-91583930D01*
X129880936Y-91583930D02*
X129880936Y-91691680D01*
X129880936Y-91691680D02*
X129907873Y-91772492D01*
X129907873Y-91772492D02*
X129988685Y-91907179D01*
X129988685Y-91907179D02*
X130069498Y-91987991D01*
X130069498Y-91987991D02*
X130204185Y-92068803D01*
X130204185Y-92068803D02*
X130284997Y-92095741D01*
X130284997Y-92095741D02*
X130392746Y-92095741D01*
X130392746Y-92095741D02*
X130500496Y-92041866D01*
X130500496Y-92041866D02*
X130554371Y-91987991D01*
X130554371Y-91987991D02*
X130608246Y-91880241D01*
X130608246Y-91880241D02*
X130608246Y-91826367D01*
X130608246Y-91826367D02*
X130419684Y-91637805D01*
X130419684Y-91637805D02*
X130311934Y-91745554D01*
X130904557Y-91637805D02*
X130338872Y-91072119D01*
X130338872Y-91072119D02*
X131227806Y-91314556D01*
X131227806Y-91314556D02*
X130662120Y-90748871D01*
X131497180Y-91045182D02*
X130931494Y-90479497D01*
X130931494Y-90479497D02*
X131066181Y-90344810D01*
X131066181Y-90344810D02*
X131173931Y-90290935D01*
X131173931Y-90290935D02*
X131281680Y-90290935D01*
X131281680Y-90290935D02*
X131362493Y-90317872D01*
X131362493Y-90317872D02*
X131497180Y-90398685D01*
X131497180Y-90398685D02*
X131577992Y-90479497D01*
X131577992Y-90479497D02*
X131658804Y-90614184D01*
X131658804Y-90614184D02*
X131685741Y-90694996D01*
X131685741Y-90694996D02*
X131685741Y-90802746D01*
X131685741Y-90802746D02*
X131631867Y-90910495D01*
X131631867Y-90910495D02*
X131497180Y-91045182D01*
X129553998Y-106850868D02*
X129473185Y-106877805D01*
X129473185Y-106877805D02*
X129392373Y-106958618D01*
X129392373Y-106958618D02*
X129338498Y-107066367D01*
X129338498Y-107066367D02*
X129338498Y-107174117D01*
X129338498Y-107174117D02*
X129365436Y-107254929D01*
X129365436Y-107254929D02*
X129446248Y-107389616D01*
X129446248Y-107389616D02*
X129527060Y-107470428D01*
X129527060Y-107470428D02*
X129661747Y-107551241D01*
X129661747Y-107551241D02*
X129742560Y-107578178D01*
X129742560Y-107578178D02*
X129850309Y-107578178D01*
X129850309Y-107578178D02*
X129958059Y-107524303D01*
X129958059Y-107524303D02*
X130011934Y-107470428D01*
X130011934Y-107470428D02*
X130065808Y-107362679D01*
X130065808Y-107362679D02*
X130065808Y-107308804D01*
X130065808Y-107308804D02*
X129877247Y-107120242D01*
X129877247Y-107120242D02*
X129769497Y-107227992D01*
X130362120Y-107120242D02*
X129796434Y-106554557D01*
X129796434Y-106554557D02*
X130011934Y-106339057D01*
X130011934Y-106339057D02*
X130092746Y-106312120D01*
X130092746Y-106312120D02*
X130146621Y-106312120D01*
X130146621Y-106312120D02*
X130227433Y-106339057D01*
X130227433Y-106339057D02*
X130308245Y-106419870D01*
X130308245Y-106419870D02*
X130335182Y-106500682D01*
X130335182Y-106500682D02*
X130335182Y-106554557D01*
X130335182Y-106554557D02*
X130308245Y-106635369D01*
X130308245Y-106635369D02*
X130092746Y-106850868D01*
X131224117Y-106258245D02*
X130900868Y-106581494D01*
X131062492Y-106419870D02*
X130496807Y-105854184D01*
X130496807Y-105854184D02*
X130523744Y-105988871D01*
X130523744Y-105988871D02*
X130523744Y-106096621D01*
X130523744Y-106096621D02*
X130496807Y-106177433D01*
X131331866Y-105396248D02*
X131708990Y-105773372D01*
X130981680Y-105315436D02*
X131251054Y-105854184D01*
X131251054Y-105854184D02*
X131601240Y-105503998D01*
X155530749Y-63940242D02*
X156284996Y-64317366D01*
X156284996Y-64317366D02*
X155907873Y-63563118D01*
X156608245Y-63940242D02*
X156715995Y-63886367D01*
X156715995Y-63886367D02*
X156850682Y-63751680D01*
X156850682Y-63751680D02*
X156877619Y-63670868D01*
X156877619Y-63670868D02*
X156877619Y-63616993D01*
X156877619Y-63616993D02*
X156850682Y-63536181D01*
X156850682Y-63536181D02*
X156796807Y-63482306D01*
X156796807Y-63482306D02*
X156715995Y-63455369D01*
X156715995Y-63455369D02*
X156662120Y-63455369D01*
X156662120Y-63455369D02*
X156581308Y-63482306D01*
X156581308Y-63482306D02*
X156446621Y-63563118D01*
X156446621Y-63563118D02*
X156365808Y-63590056D01*
X156365808Y-63590056D02*
X156311934Y-63590056D01*
X156311934Y-63590056D02*
X156231121Y-63563118D01*
X156231121Y-63563118D02*
X156177247Y-63509244D01*
X156177247Y-63509244D02*
X156150309Y-63428431D01*
X156150309Y-63428431D02*
X156150309Y-63374557D01*
X156150309Y-63374557D02*
X156177247Y-63293744D01*
X156177247Y-63293744D02*
X156311934Y-63159057D01*
X156311934Y-63159057D02*
X156419683Y-63105183D01*
X157039244Y-63024370D02*
X157308618Y-63293744D01*
X156554370Y-62916621D02*
X157039244Y-63024370D01*
X157039244Y-63024370D02*
X156931494Y-62539497D01*
X157631866Y-62916621D02*
X157739616Y-62862746D01*
X157739616Y-62862746D02*
X157874303Y-62728059D01*
X157874303Y-62728059D02*
X157901240Y-62647247D01*
X157901240Y-62647247D02*
X157901240Y-62593372D01*
X157901240Y-62593372D02*
X157874303Y-62512560D01*
X157874303Y-62512560D02*
X157820428Y-62458685D01*
X157820428Y-62458685D02*
X157739616Y-62431748D01*
X157739616Y-62431748D02*
X157685741Y-62431748D01*
X157685741Y-62431748D02*
X157604929Y-62458685D01*
X157604929Y-62458685D02*
X157470242Y-62539497D01*
X157470242Y-62539497D02*
X157389430Y-62566435D01*
X157389430Y-62566435D02*
X157335555Y-62566435D01*
X157335555Y-62566435D02*
X157254743Y-62539497D01*
X157254743Y-62539497D02*
X157200868Y-62485622D01*
X157200868Y-62485622D02*
X157173930Y-62404810D01*
X157173930Y-62404810D02*
X157173930Y-62350935D01*
X157173930Y-62350935D02*
X157200868Y-62270123D01*
X157200868Y-62270123D02*
X157335555Y-62135436D01*
X157335555Y-62135436D02*
X157443304Y-62081561D01*
X129453998Y-99230868D02*
X129373185Y-99257805D01*
X129373185Y-99257805D02*
X129292373Y-99338618D01*
X129292373Y-99338618D02*
X129238498Y-99446367D01*
X129238498Y-99446367D02*
X129238498Y-99554117D01*
X129238498Y-99554117D02*
X129265436Y-99634929D01*
X129265436Y-99634929D02*
X129346248Y-99769616D01*
X129346248Y-99769616D02*
X129427060Y-99850428D01*
X129427060Y-99850428D02*
X129561747Y-99931241D01*
X129561747Y-99931241D02*
X129642560Y-99958178D01*
X129642560Y-99958178D02*
X129750309Y-99958178D01*
X129750309Y-99958178D02*
X129858059Y-99904303D01*
X129858059Y-99904303D02*
X129911934Y-99850428D01*
X129911934Y-99850428D02*
X129965808Y-99742679D01*
X129965808Y-99742679D02*
X129965808Y-99688804D01*
X129965808Y-99688804D02*
X129777247Y-99500242D01*
X129777247Y-99500242D02*
X129669497Y-99607992D01*
X130262120Y-99500242D02*
X129696434Y-98934557D01*
X129696434Y-98934557D02*
X129911934Y-98719057D01*
X129911934Y-98719057D02*
X129992746Y-98692120D01*
X129992746Y-98692120D02*
X130046621Y-98692120D01*
X130046621Y-98692120D02*
X130127433Y-98719057D01*
X130127433Y-98719057D02*
X130208245Y-98799870D01*
X130208245Y-98799870D02*
X130235182Y-98880682D01*
X130235182Y-98880682D02*
X130235182Y-98934557D01*
X130235182Y-98934557D02*
X130208245Y-99015369D01*
X130208245Y-99015369D02*
X129992746Y-99230868D01*
X131124117Y-98638245D02*
X130800868Y-98961494D01*
X130962492Y-98799870D02*
X130396807Y-98234184D01*
X130396807Y-98234184D02*
X130423744Y-98368871D01*
X130423744Y-98368871D02*
X130423744Y-98476621D01*
X130423744Y-98476621D02*
X130396807Y-98557433D01*
X130827805Y-97910935D02*
X130827805Y-97857060D01*
X130827805Y-97857060D02*
X130854743Y-97776248D01*
X130854743Y-97776248D02*
X130989430Y-97641561D01*
X130989430Y-97641561D02*
X131070242Y-97614624D01*
X131070242Y-97614624D02*
X131124117Y-97614624D01*
X131124117Y-97614624D02*
X131204929Y-97641561D01*
X131204929Y-97641561D02*
X131258804Y-97695436D01*
X131258804Y-97695436D02*
X131312679Y-97803186D01*
X131312679Y-97803186D02*
X131312679Y-98449683D01*
X131312679Y-98449683D02*
X131662865Y-98099497D01*
X130023372Y-63391494D02*
X129942560Y-63418431D01*
X129942560Y-63418431D02*
X129861748Y-63499243D01*
X129861748Y-63499243D02*
X129807873Y-63606993D01*
X129807873Y-63606993D02*
X129807873Y-63714742D01*
X129807873Y-63714742D02*
X129834810Y-63795555D01*
X129834810Y-63795555D02*
X129915623Y-63930242D01*
X129915623Y-63930242D02*
X129996435Y-64011054D01*
X129996435Y-64011054D02*
X130131122Y-64091866D01*
X130131122Y-64091866D02*
X130211934Y-64118803D01*
X130211934Y-64118803D02*
X130319684Y-64118803D01*
X130319684Y-64118803D02*
X130427433Y-64064929D01*
X130427433Y-64064929D02*
X130481308Y-64011054D01*
X130481308Y-64011054D02*
X130535183Y-63903304D01*
X130535183Y-63903304D02*
X130535183Y-63849429D01*
X130535183Y-63849429D02*
X130346621Y-63660868D01*
X130346621Y-63660868D02*
X130238871Y-63768617D01*
X130831494Y-63660868D02*
X130265809Y-63095182D01*
X130265809Y-63095182D02*
X130481308Y-62879683D01*
X130481308Y-62879683D02*
X130562120Y-62852746D01*
X130562120Y-62852746D02*
X130615995Y-62852746D01*
X130615995Y-62852746D02*
X130696807Y-62879683D01*
X130696807Y-62879683D02*
X130777619Y-62960495D01*
X130777619Y-62960495D02*
X130804557Y-63041307D01*
X130804557Y-63041307D02*
X130804557Y-63095182D01*
X130804557Y-63095182D02*
X130777619Y-63175994D01*
X130777619Y-63175994D02*
X130562120Y-63391494D01*
X131693491Y-62798871D02*
X131370242Y-63122120D01*
X131531867Y-62960495D02*
X130966181Y-62394810D01*
X130966181Y-62394810D02*
X130993119Y-62529497D01*
X130993119Y-62529497D02*
X130993119Y-62637246D01*
X130993119Y-62637246D02*
X130966181Y-62718059D01*
X129599998Y-94150868D02*
X129519185Y-94177805D01*
X129519185Y-94177805D02*
X129438373Y-94258618D01*
X129438373Y-94258618D02*
X129384498Y-94366367D01*
X129384498Y-94366367D02*
X129384498Y-94474117D01*
X129384498Y-94474117D02*
X129411436Y-94554929D01*
X129411436Y-94554929D02*
X129492248Y-94689616D01*
X129492248Y-94689616D02*
X129573060Y-94770428D01*
X129573060Y-94770428D02*
X129707747Y-94851241D01*
X129707747Y-94851241D02*
X129788560Y-94878178D01*
X129788560Y-94878178D02*
X129896309Y-94878178D01*
X129896309Y-94878178D02*
X130004059Y-94824303D01*
X130004059Y-94824303D02*
X130057934Y-94770428D01*
X130057934Y-94770428D02*
X130111808Y-94662679D01*
X130111808Y-94662679D02*
X130111808Y-94608804D01*
X130111808Y-94608804D02*
X129923247Y-94420242D01*
X129923247Y-94420242D02*
X129815497Y-94527992D01*
X130408120Y-94420242D02*
X129842434Y-93854557D01*
X129842434Y-93854557D02*
X130057934Y-93639057D01*
X130057934Y-93639057D02*
X130138746Y-93612120D01*
X130138746Y-93612120D02*
X130192621Y-93612120D01*
X130192621Y-93612120D02*
X130273433Y-93639057D01*
X130273433Y-93639057D02*
X130354245Y-93719870D01*
X130354245Y-93719870D02*
X130381182Y-93800682D01*
X130381182Y-93800682D02*
X130381182Y-93854557D01*
X130381182Y-93854557D02*
X130354245Y-93935369D01*
X130354245Y-93935369D02*
X130138746Y-94150868D01*
X131270117Y-93558245D02*
X130946868Y-93881494D01*
X131108492Y-93719870D02*
X130542807Y-93154184D01*
X130542807Y-93154184D02*
X130569744Y-93288871D01*
X130569744Y-93288871D02*
X130569744Y-93396621D01*
X130569744Y-93396621D02*
X130542807Y-93477433D01*
X131054618Y-92642373D02*
X131108492Y-92588499D01*
X131108492Y-92588499D02*
X131189305Y-92561561D01*
X131189305Y-92561561D02*
X131243179Y-92561561D01*
X131243179Y-92561561D02*
X131323992Y-92588499D01*
X131323992Y-92588499D02*
X131458679Y-92669311D01*
X131458679Y-92669311D02*
X131593366Y-92803998D01*
X131593366Y-92803998D02*
X131674178Y-92938685D01*
X131674178Y-92938685D02*
X131701115Y-93019497D01*
X131701115Y-93019497D02*
X131701115Y-93073372D01*
X131701115Y-93073372D02*
X131674178Y-93154184D01*
X131674178Y-93154184D02*
X131620303Y-93208059D01*
X131620303Y-93208059D02*
X131539491Y-93234996D01*
X131539491Y-93234996D02*
X131485616Y-93234996D01*
X131485616Y-93234996D02*
X131404804Y-93208059D01*
X131404804Y-93208059D02*
X131270117Y-93127247D01*
X131270117Y-93127247D02*
X131135430Y-92992560D01*
X131135430Y-92992560D02*
X131054618Y-92857873D01*
X131054618Y-92857873D02*
X131027680Y-92777060D01*
X131027680Y-92777060D02*
X131027680Y-92723186D01*
X131027680Y-92723186D02*
X131054618Y-92642373D01*
X156448651Y-86813710D02*
X155990716Y-86732898D01*
X156125403Y-87136959D02*
X155559717Y-86571274D01*
X155559717Y-86571274D02*
X155775216Y-86355775D01*
X155775216Y-86355775D02*
X155856029Y-86328837D01*
X155856029Y-86328837D02*
X155909903Y-86328837D01*
X155909903Y-86328837D02*
X155990716Y-86355775D01*
X155990716Y-86355775D02*
X156071528Y-86436587D01*
X156071528Y-86436587D02*
X156098465Y-86517399D01*
X156098465Y-86517399D02*
X156098465Y-86571274D01*
X156098465Y-86571274D02*
X156071528Y-86652086D01*
X156071528Y-86652086D02*
X155856029Y-86867585D01*
X156125403Y-86005588D02*
X156583338Y-86463524D01*
X156583338Y-86463524D02*
X156664151Y-86490462D01*
X156664151Y-86490462D02*
X156718025Y-86490462D01*
X156718025Y-86490462D02*
X156798838Y-86463524D01*
X156798838Y-86463524D02*
X156906587Y-86355775D01*
X156906587Y-86355775D02*
X156933525Y-86274962D01*
X156933525Y-86274962D02*
X156933525Y-86221088D01*
X156933525Y-86221088D02*
X156906587Y-86140275D01*
X156906587Y-86140275D02*
X156448651Y-85682340D01*
X157283711Y-85978651D02*
X156718025Y-85412966D01*
X156718025Y-85412966D02*
X157606959Y-85655402D01*
X157606959Y-85655402D02*
X157041274Y-85089717D01*
X155707998Y-81460868D02*
X155627185Y-81487805D01*
X155627185Y-81487805D02*
X155546373Y-81568618D01*
X155546373Y-81568618D02*
X155492498Y-81676367D01*
X155492498Y-81676367D02*
X155492498Y-81784117D01*
X155492498Y-81784117D02*
X155519436Y-81864929D01*
X155519436Y-81864929D02*
X155600248Y-81999616D01*
X155600248Y-81999616D02*
X155681060Y-82080428D01*
X155681060Y-82080428D02*
X155815747Y-82161241D01*
X155815747Y-82161241D02*
X155896560Y-82188178D01*
X155896560Y-82188178D02*
X156004309Y-82188178D01*
X156004309Y-82188178D02*
X156112059Y-82134303D01*
X156112059Y-82134303D02*
X156165934Y-82080428D01*
X156165934Y-82080428D02*
X156219808Y-81972679D01*
X156219808Y-81972679D02*
X156219808Y-81918804D01*
X156219808Y-81918804D02*
X156031247Y-81730242D01*
X156031247Y-81730242D02*
X155923497Y-81837992D01*
X156516120Y-81730242D02*
X155950434Y-81164557D01*
X155950434Y-81164557D02*
X156165934Y-80949057D01*
X156165934Y-80949057D02*
X156246746Y-80922120D01*
X156246746Y-80922120D02*
X156300621Y-80922120D01*
X156300621Y-80922120D02*
X156381433Y-80949057D01*
X156381433Y-80949057D02*
X156462245Y-81029870D01*
X156462245Y-81029870D02*
X156489182Y-81110682D01*
X156489182Y-81110682D02*
X156489182Y-81164557D01*
X156489182Y-81164557D02*
X156462245Y-81245369D01*
X156462245Y-81245369D02*
X156246746Y-81460868D01*
X156543057Y-80679683D02*
X156543057Y-80625809D01*
X156543057Y-80625809D02*
X156569995Y-80544996D01*
X156569995Y-80544996D02*
X156704682Y-80410309D01*
X156704682Y-80410309D02*
X156785494Y-80383372D01*
X156785494Y-80383372D02*
X156839369Y-80383372D01*
X156839369Y-80383372D02*
X156920181Y-80410309D01*
X156920181Y-80410309D02*
X156974056Y-80464184D01*
X156974056Y-80464184D02*
X157027930Y-80571934D01*
X157027930Y-80571934D02*
X157027930Y-81218431D01*
X157027930Y-81218431D02*
X157378117Y-80868245D01*
X157000993Y-80113998D02*
X157378117Y-79736874D01*
X157378117Y-79736874D02*
X157701366Y-80544996D01*
X156404761Y-112490057D02*
X156309523Y-112442438D01*
X156309523Y-112442438D02*
X156214285Y-112347200D01*
X156214285Y-112347200D02*
X156071428Y-112204342D01*
X156071428Y-112204342D02*
X155976190Y-112156723D01*
X155976190Y-112156723D02*
X155880952Y-112156723D01*
X155928571Y-112394819D02*
X155833333Y-112347200D01*
X155833333Y-112347200D02*
X155738095Y-112251961D01*
X155738095Y-112251961D02*
X155690476Y-112061485D01*
X155690476Y-112061485D02*
X155690476Y-111728152D01*
X155690476Y-111728152D02*
X155738095Y-111537676D01*
X155738095Y-111537676D02*
X155833333Y-111442438D01*
X155833333Y-111442438D02*
X155928571Y-111394819D01*
X155928571Y-111394819D02*
X156119047Y-111394819D01*
X156119047Y-111394819D02*
X156214285Y-111442438D01*
X156214285Y-111442438D02*
X156309523Y-111537676D01*
X156309523Y-111537676D02*
X156357142Y-111728152D01*
X156357142Y-111728152D02*
X156357142Y-112061485D01*
X156357142Y-112061485D02*
X156309523Y-112251961D01*
X156309523Y-112251961D02*
X156214285Y-112347200D01*
X156214285Y-112347200D02*
X156119047Y-112394819D01*
X156119047Y-112394819D02*
X155928571Y-112394819D01*
X156738095Y-111490057D02*
X156785714Y-111442438D01*
X156785714Y-111442438D02*
X156880952Y-111394819D01*
X156880952Y-111394819D02*
X157119047Y-111394819D01*
X157119047Y-111394819D02*
X157214285Y-111442438D01*
X157214285Y-111442438D02*
X157261904Y-111490057D01*
X157261904Y-111490057D02*
X157309523Y-111585295D01*
X157309523Y-111585295D02*
X157309523Y-111680533D01*
X157309523Y-111680533D02*
X157261904Y-111823390D01*
X157261904Y-111823390D02*
X156690476Y-112394819D01*
X156690476Y-112394819D02*
X157309523Y-112394819D01*
X131134761Y-112490057D02*
X131039523Y-112442438D01*
X131039523Y-112442438D02*
X130944285Y-112347200D01*
X130944285Y-112347200D02*
X130801428Y-112204342D01*
X130801428Y-112204342D02*
X130706190Y-112156723D01*
X130706190Y-112156723D02*
X130610952Y-112156723D01*
X130658571Y-112394819D02*
X130563333Y-112347200D01*
X130563333Y-112347200D02*
X130468095Y-112251961D01*
X130468095Y-112251961D02*
X130420476Y-112061485D01*
X130420476Y-112061485D02*
X130420476Y-111728152D01*
X130420476Y-111728152D02*
X130468095Y-111537676D01*
X130468095Y-111537676D02*
X130563333Y-111442438D01*
X130563333Y-111442438D02*
X130658571Y-111394819D01*
X130658571Y-111394819D02*
X130849047Y-111394819D01*
X130849047Y-111394819D02*
X130944285Y-111442438D01*
X130944285Y-111442438D02*
X131039523Y-111537676D01*
X131039523Y-111537676D02*
X131087142Y-111728152D01*
X131087142Y-111728152D02*
X131087142Y-112061485D01*
X131087142Y-112061485D02*
X131039523Y-112251961D01*
X131039523Y-112251961D02*
X130944285Y-112347200D01*
X130944285Y-112347200D02*
X130849047Y-112394819D01*
X130849047Y-112394819D02*
X130658571Y-112394819D01*
X132039523Y-112394819D02*
X131468095Y-112394819D01*
X131753809Y-112394819D02*
X131753809Y-111394819D01*
X131753809Y-111394819D02*
X131658571Y-111537676D01*
X131658571Y-111537676D02*
X131563333Y-111632914D01*
X131563333Y-111632914D02*
X131468095Y-111680533D01*
X127166666Y-70104819D02*
X127166666Y-70819104D01*
X127166666Y-70819104D02*
X127119047Y-70961961D01*
X127119047Y-70961961D02*
X127023809Y-71057200D01*
X127023809Y-71057200D02*
X126880952Y-71104819D01*
X126880952Y-71104819D02*
X126785714Y-71104819D01*
X127595238Y-70200057D02*
X127642857Y-70152438D01*
X127642857Y-70152438D02*
X127738095Y-70104819D01*
X127738095Y-70104819D02*
X127976190Y-70104819D01*
X127976190Y-70104819D02*
X128071428Y-70152438D01*
X128071428Y-70152438D02*
X128119047Y-70200057D01*
X128119047Y-70200057D02*
X128166666Y-70295295D01*
X128166666Y-70295295D02*
X128166666Y-70390533D01*
X128166666Y-70390533D02*
X128119047Y-70533390D01*
X128119047Y-70533390D02*
X127547619Y-71104819D01*
X127547619Y-71104819D02*
X128166666Y-71104819D01*
D12*
%TO.C,J1*%
X136090000Y-117830000D02*
X151450000Y-117830000D01*
X136090000Y-115230000D02*
X138690000Y-115230000D01*
X136090000Y-112630000D02*
X137420000Y-112630000D01*
X138690000Y-115230000D02*
X138690000Y-112630000D01*
X136090000Y-113960000D02*
X136090000Y-112630000D01*
X136090000Y-117830000D02*
X136090000Y-115230000D01*
X138690000Y-112630000D02*
X151450000Y-112630000D01*
X151450000Y-117830000D02*
X151450000Y-112630000D01*
%TO.C,G\u002A\u002A\u002A*%
G36*
X150646795Y-118958320D02*
G01*
X150668998Y-118976072D01*
X150689904Y-118998925D01*
X150694943Y-119005927D01*
X150714814Y-119035955D01*
X150716021Y-121443904D01*
X150716116Y-121675941D01*
X150716162Y-121897908D01*
X150716161Y-122109543D01*
X150716114Y-122310583D01*
X150716020Y-122500765D01*
X150715881Y-122679827D01*
X150715697Y-122847505D01*
X150715468Y-123003536D01*
X150715197Y-123147658D01*
X150714882Y-123279609D01*
X150714524Y-123399124D01*
X150714125Y-123505942D01*
X150713685Y-123599800D01*
X150713205Y-123680434D01*
X150712685Y-123747582D01*
X150712125Y-123800981D01*
X150711527Y-123840368D01*
X150710891Y-123865481D01*
X150710218Y-123876056D01*
X150710180Y-123876212D01*
X150696807Y-123902488D01*
X150674025Y-123929091D01*
X150646455Y-123951591D01*
X150618719Y-123965560D01*
X150616205Y-123966293D01*
X150608733Y-123966782D01*
X150589951Y-123967250D01*
X150559748Y-123967698D01*
X150518015Y-123968127D01*
X150464641Y-123968535D01*
X150399516Y-123968923D01*
X150322531Y-123969291D01*
X150233574Y-123969640D01*
X150132536Y-123969969D01*
X150019306Y-123970278D01*
X149893775Y-123970568D01*
X149755833Y-123970838D01*
X149605369Y-123971090D01*
X149442273Y-123971322D01*
X149266435Y-123971535D01*
X149077745Y-123971729D01*
X148876092Y-123971904D01*
X148661368Y-123972060D01*
X148433461Y-123972198D01*
X148274074Y-123972277D01*
X148192261Y-123972317D01*
X147937659Y-123972417D01*
X147669544Y-123972500D01*
X147387805Y-123972564D01*
X147092334Y-123972609D01*
X146783020Y-123972637D01*
X146459752Y-123972646D01*
X146122421Y-123972638D01*
X146103703Y-123972637D01*
X145770916Y-123972612D01*
X145405127Y-123972568D01*
X145024945Y-123972507D01*
X144630258Y-123972428D01*
X144220958Y-123972331D01*
X143925926Y-123972253D01*
X143873222Y-123972239D01*
X141755555Y-123971650D01*
X139577777Y-123971044D01*
X137407407Y-123970440D01*
X137159259Y-123970371D01*
X137130982Y-123952792D01*
X137108779Y-123935040D01*
X137087873Y-123912187D01*
X137082834Y-123905185D01*
X137062963Y-123875156D01*
X137062963Y-121455556D01*
X137062963Y-119285186D01*
X137407407Y-119285186D01*
X137407407Y-121455556D01*
X137407407Y-123625926D01*
X138451851Y-123625926D01*
X139496296Y-123625926D01*
X139496296Y-121455556D01*
X139496296Y-119285186D01*
X139577777Y-119285186D01*
X139577777Y-121451852D01*
X139577777Y-123618519D01*
X140625926Y-123618519D01*
X141674074Y-123618519D01*
X141674074Y-121451852D01*
X141674074Y-119285186D01*
X141755555Y-119285186D01*
X141755555Y-121451852D01*
X141755555Y-123618519D01*
X142800000Y-123618519D01*
X143844444Y-123618519D01*
X143844444Y-121451852D01*
X143844444Y-119285186D01*
X143925926Y-119285186D01*
X143925926Y-121451852D01*
X143925926Y-123618519D01*
X144970370Y-123618519D01*
X146014814Y-123618519D01*
X146014814Y-121451852D01*
X146014814Y-119285186D01*
X144970370Y-119285186D01*
X143925926Y-119285186D01*
X143844444Y-119285186D01*
X142800000Y-119285186D01*
X141755555Y-119285186D01*
X141674074Y-119285186D01*
X140625926Y-119285186D01*
X139577777Y-119285186D01*
X139496296Y-119285186D01*
X138451851Y-119285186D01*
X137407407Y-119285186D01*
X137062963Y-119285186D01*
X137062963Y-119277778D01*
X146103703Y-119277778D01*
X146103703Y-121448149D01*
X146103703Y-123618519D01*
X147148148Y-123618519D01*
X148192592Y-123618519D01*
X148192592Y-121448149D01*
X148192592Y-119277778D01*
X148274074Y-119277778D01*
X148274074Y-121448149D01*
X148274074Y-123618519D01*
X149318518Y-123618519D01*
X150362963Y-123618519D01*
X150362963Y-121448149D01*
X150362963Y-119277778D01*
X149318518Y-119277778D01*
X148274074Y-119277778D01*
X148192592Y-119277778D01*
X147148148Y-119277778D01*
X146103703Y-119277778D01*
X137062963Y-119277778D01*
X137062963Y-119035956D01*
X137082834Y-119005927D01*
X137101635Y-118983136D01*
X137124308Y-118962899D01*
X137130982Y-118958320D01*
X137159259Y-118940741D01*
X143888889Y-118940741D01*
X150618518Y-118940741D01*
X150646795Y-118958320D01*
G37*
G36*
X149948148Y-122537038D02*
G01*
X149948148Y-122611112D01*
X150025926Y-122611112D01*
X150103703Y-122611112D01*
X150103703Y-122637038D01*
X150103703Y-122662963D01*
X150025926Y-122662963D01*
X149948148Y-122662963D01*
X149948148Y-122733334D01*
X149948148Y-122803704D01*
X149922222Y-122803704D01*
X149896296Y-122803704D01*
X149896296Y-122733334D01*
X149896296Y-122662963D01*
X149818518Y-122662963D01*
X149740740Y-122662963D01*
X149740740Y-122637297D01*
X149740740Y-122611630D01*
X149816666Y-122609519D01*
X149892592Y-122607408D01*
X149894712Y-122535186D01*
X149896832Y-122462963D01*
X149922490Y-122462963D01*
X149948148Y-122462963D01*
X149948148Y-122537038D01*
G37*
G36*
X150022222Y-120266667D02*
G01*
X150022222Y-120381482D01*
X149988889Y-120381482D01*
X149955555Y-120381482D01*
X149955555Y-120266667D01*
X149955555Y-120151852D01*
X149988889Y-120151852D01*
X150022222Y-120151852D01*
X150022222Y-120266667D01*
G37*
G36*
X148898038Y-122442491D02*
G01*
X148954560Y-122450755D01*
X148988820Y-122459517D01*
X149032647Y-122479390D01*
X149070340Y-122508171D01*
X149099144Y-122543124D01*
X149116303Y-122581518D01*
X149117701Y-122587402D01*
X149123525Y-122620739D01*
X149124623Y-122646805D01*
X149121090Y-122672337D01*
X149118999Y-122681482D01*
X149102244Y-122725591D01*
X149074921Y-122761472D01*
X149035990Y-122790086D01*
X148984409Y-122812393D01*
X148973258Y-122815947D01*
X148936806Y-122823566D01*
X148890608Y-122828192D01*
X148839428Y-122829825D01*
X148837037Y-122829762D01*
X148788029Y-122828466D01*
X148741175Y-122824115D01*
X148703629Y-122816771D01*
X148700815Y-122815947D01*
X148646260Y-122794619D01*
X148604897Y-122767358D01*
X148575990Y-122733277D01*
X148558800Y-122691483D01*
X148552590Y-122641086D01*
X148552546Y-122637038D01*
X148552810Y-122634389D01*
X148611111Y-122634389D01*
X148611525Y-122662047D01*
X148613925Y-122679780D01*
X148620043Y-122692480D01*
X148631615Y-122705035D01*
X148638398Y-122711331D01*
X148667981Y-122732719D01*
X148704321Y-122747915D01*
X148749555Y-122757468D01*
X148805819Y-122761928D01*
X148837037Y-122762422D01*
X148891080Y-122761021D01*
X148933323Y-122756633D01*
X148964322Y-122749666D01*
X149001031Y-122734751D01*
X149031949Y-122714983D01*
X149053477Y-122692915D01*
X149059490Y-122682086D01*
X149065686Y-122653063D01*
X149064992Y-122619398D01*
X149057914Y-122588438D01*
X149052177Y-122576329D01*
X149030069Y-122550225D01*
X148998980Y-122530722D01*
X148957786Y-122517501D01*
X148905365Y-122510244D01*
X148840591Y-122508635D01*
X148815109Y-122509336D01*
X148758832Y-122512869D01*
X148714841Y-122519037D01*
X148680739Y-122528507D01*
X148654128Y-122541944D01*
X148632610Y-122560014D01*
X148632548Y-122560079D01*
X148621084Y-122573482D01*
X148614629Y-122586807D01*
X148611774Y-122604935D01*
X148611112Y-122632747D01*
X148611111Y-122634389D01*
X148552810Y-122634389D01*
X148557824Y-122583981D01*
X148574506Y-122539958D01*
X148603187Y-122504128D01*
X148644461Y-122475646D01*
X148676212Y-122461470D01*
X148722045Y-122448975D01*
X148777289Y-122441629D01*
X148837451Y-122439458D01*
X148898038Y-122442491D01*
G37*
G36*
X149011418Y-120091719D02*
G01*
X149049678Y-120109448D01*
X149081748Y-120136022D01*
X149104224Y-120169008D01*
X149110318Y-120185353D01*
X149118006Y-120225159D01*
X149121935Y-120272269D01*
X149121754Y-120319568D01*
X149118545Y-120351943D01*
X149112085Y-120387879D01*
X149105257Y-120411516D01*
X149096515Y-120425325D01*
X149084314Y-120431774D01*
X149067626Y-120433334D01*
X149038590Y-120433334D01*
X149053020Y-120387038D01*
X149062395Y-120347173D01*
X149067386Y-120304516D01*
X149067909Y-120263409D01*
X149063879Y-120228196D01*
X149056534Y-120205597D01*
X149034398Y-120177379D01*
X149004643Y-120160002D01*
X148970730Y-120154752D01*
X148938640Y-120161816D01*
X148927330Y-120167734D01*
X148917097Y-120176683D01*
X148906307Y-120190994D01*
X148893324Y-120212998D01*
X148876513Y-120245024D01*
X148866882Y-120264088D01*
X148839845Y-120315472D01*
X148815877Y-120354433D01*
X148793198Y-120382549D01*
X148770027Y-120401394D01*
X148744583Y-120412545D01*
X148715085Y-120417579D01*
X148692592Y-120418315D01*
X148648864Y-120411762D01*
X148612557Y-120393282D01*
X148584207Y-120364063D01*
X148564345Y-120325296D01*
X148553505Y-120278167D01*
X148552220Y-120223867D01*
X148561024Y-120163583D01*
X148567256Y-120138889D01*
X148574310Y-120117428D01*
X148580906Y-120103304D01*
X148584286Y-120100000D01*
X148593922Y-120102111D01*
X148610923Y-120107078D01*
X148628747Y-120112850D01*
X148640851Y-120117379D01*
X148642416Y-120118208D01*
X148640943Y-120125146D01*
X148635386Y-120141805D01*
X148629453Y-120157929D01*
X148617538Y-120201400D01*
X148614310Y-120243568D01*
X148619281Y-120281722D01*
X148631963Y-120313153D01*
X148651867Y-120335151D01*
X148662458Y-120341008D01*
X148690681Y-120350479D01*
X148714433Y-120352195D01*
X148735364Y-120344980D01*
X148755122Y-120327654D01*
X148775358Y-120299041D01*
X148797719Y-120257963D01*
X148807954Y-120237101D01*
X148826075Y-120201158D01*
X148844236Y-120168211D01*
X148860499Y-120141586D01*
X148872926Y-120124606D01*
X148874448Y-120122988D01*
X148905317Y-120101274D01*
X148943423Y-120088095D01*
X148970370Y-120085268D01*
X149011418Y-120091719D01*
G37*
G36*
X148773771Y-122927353D02*
G01*
X148815747Y-122942238D01*
X148850048Y-122967908D01*
X148853310Y-122971289D01*
X148872938Y-122996972D01*
X148886829Y-123027397D01*
X148895929Y-123065607D01*
X148901183Y-123114645D01*
X148901947Y-123127778D01*
X148905831Y-123203704D01*
X149012175Y-123203704D01*
X149118518Y-123203704D01*
X149118518Y-123237038D01*
X149118518Y-123270371D01*
X148837037Y-123270371D01*
X148761575Y-123270371D01*
X148555555Y-123270371D01*
X148555555Y-123182842D01*
X148556538Y-123149007D01*
X148608548Y-123149007D01*
X148608796Y-123167769D01*
X148611111Y-123200000D01*
X148721896Y-123202059D01*
X148761575Y-123202521D01*
X148796445Y-123202409D01*
X148823605Y-123201773D01*
X148840151Y-123200662D01*
X148843346Y-123200026D01*
X148848445Y-123190859D01*
X148850687Y-123170897D01*
X148850364Y-123143820D01*
X148847764Y-123113310D01*
X148843179Y-123083049D01*
X148836898Y-123056716D01*
X148830796Y-123040853D01*
X148811076Y-123014322D01*
X148783291Y-122997831D01*
X148745799Y-122990659D01*
X148716561Y-122990596D01*
X148688223Y-122992777D01*
X148669576Y-122997020D01*
X148655498Y-123005081D01*
X148644072Y-123015472D01*
X148630155Y-123032571D01*
X148621119Y-123053217D01*
X148614714Y-123082754D01*
X148614086Y-123086696D01*
X148610360Y-123118077D01*
X148608548Y-123149007D01*
X148556538Y-123149007D01*
X148557628Y-123111517D01*
X148564301Y-123053414D01*
X148576256Y-123007470D01*
X148594174Y-122972620D01*
X148618737Y-122947799D01*
X148650626Y-122931943D01*
X148690523Y-122923988D01*
X148722222Y-122922548D01*
X148773771Y-122927353D01*
G37*
G36*
X148579629Y-121948808D02*
G01*
X148590647Y-121950092D01*
X148614008Y-121952615D01*
X148647673Y-121956168D01*
X148689604Y-121960545D01*
X148737762Y-121965535D01*
X148790109Y-121970930D01*
X148844606Y-121976521D01*
X148899214Y-121982101D01*
X148951896Y-121987460D01*
X149000612Y-121992390D01*
X149043324Y-121996681D01*
X149077993Y-122000127D01*
X149102582Y-122002517D01*
X149115050Y-122003644D01*
X149116097Y-122003704D01*
X149117499Y-122010359D01*
X149118373Y-122027318D01*
X149118518Y-122039522D01*
X149118518Y-122075340D01*
X149005555Y-122102657D01*
X148960552Y-122113394D01*
X148914874Y-122124039D01*
X148873058Y-122133550D01*
X148839640Y-122140888D01*
X148831481Y-122142602D01*
X148801152Y-122149730D01*
X148780216Y-122156369D01*
X148769982Y-122161850D01*
X148771755Y-122165501D01*
X148784625Y-122166667D01*
X148794953Y-122168246D01*
X148817064Y-122172590D01*
X148848308Y-122179113D01*
X148886038Y-122187227D01*
X148927605Y-122196343D01*
X148970362Y-122205875D01*
X149011659Y-122215235D01*
X149048850Y-122223835D01*
X149079284Y-122231087D01*
X149100315Y-122236405D01*
X149105555Y-122237875D01*
X149113910Y-122244165D01*
X149117806Y-122258879D01*
X149118518Y-122276924D01*
X149118518Y-122312109D01*
X148864814Y-122339895D01*
X148803845Y-122346603D01*
X148746511Y-122352972D01*
X148694746Y-122358781D01*
X148650484Y-122363811D01*
X148615660Y-122367843D01*
X148592206Y-122370658D01*
X148583333Y-122371824D01*
X148555555Y-122375968D01*
X148555555Y-122345727D01*
X148556538Y-122326243D01*
X148561744Y-122316745D01*
X148574556Y-122312429D01*
X148579629Y-122311550D01*
X148598940Y-122309022D01*
X148630088Y-122305674D01*
X148670276Y-122301741D01*
X148716709Y-122297463D01*
X148766592Y-122293077D01*
X148817129Y-122288822D01*
X148865524Y-122284935D01*
X148908982Y-122281654D01*
X148944707Y-122279217D01*
X148969904Y-122277862D01*
X148977779Y-122277665D01*
X149008218Y-122276404D01*
X149024750Y-122273165D01*
X149027151Y-122268448D01*
X149015194Y-122262756D01*
X148988656Y-122256591D01*
X148987323Y-122256348D01*
X148962267Y-122251434D01*
X148926728Y-122243953D01*
X148884639Y-122234755D01*
X148839930Y-122224693D01*
X148818518Y-122219765D01*
X148700000Y-122192274D01*
X148700000Y-122159908D01*
X148700000Y-122127542D01*
X148833333Y-122095504D01*
X148878131Y-122084890D01*
X148920150Y-122075209D01*
X148956388Y-122067132D01*
X148983845Y-122061330D01*
X148998239Y-122058657D01*
X149022016Y-122054082D01*
X149031056Y-122049877D01*
X149025434Y-122046072D01*
X149005222Y-122042697D01*
X148970497Y-122039783D01*
X148949746Y-122038610D01*
X148914185Y-122036545D01*
X148868009Y-122033458D01*
X148815358Y-122029646D01*
X148760371Y-122025409D01*
X148709259Y-122021223D01*
X148555555Y-122008204D01*
X148555555Y-121976790D01*
X148556123Y-121957169D01*
X148559946Y-121948668D01*
X148570203Y-121947591D01*
X148579629Y-121948808D01*
G37*
G36*
X148622222Y-121651852D02*
G01*
X148622222Y-121781482D01*
X148707407Y-121781482D01*
X148792592Y-121781482D01*
X148792592Y-121659260D01*
X148792592Y-121537038D01*
X148825926Y-121537038D01*
X148859259Y-121537038D01*
X148859259Y-121659260D01*
X148859259Y-121781482D01*
X148955555Y-121781482D01*
X149051851Y-121781482D01*
X149051851Y-121651852D01*
X149051851Y-121522223D01*
X149085185Y-121522223D01*
X149118518Y-121522223D01*
X149118518Y-121685186D01*
X149118518Y-121848149D01*
X148837037Y-121848149D01*
X148555555Y-121848149D01*
X148555555Y-121685186D01*
X148555555Y-121522223D01*
X148588889Y-121522223D01*
X148622222Y-121522223D01*
X148622222Y-121651852D01*
G37*
G36*
X149116100Y-121010828D02*
G01*
X149118114Y-121026383D01*
X149118518Y-121040021D01*
X149118518Y-121077213D01*
X149027777Y-121130174D01*
X148980801Y-121157535D01*
X148945013Y-121178573D01*
X148918929Y-121194635D01*
X148901062Y-121207067D01*
X148889927Y-121217215D01*
X148884039Y-121226428D01*
X148881912Y-121236052D01*
X148882060Y-121247433D01*
X148882974Y-121261455D01*
X148885185Y-121303704D01*
X149001851Y-121305744D01*
X149118518Y-121307784D01*
X149118518Y-121340929D01*
X149118518Y-121374075D01*
X148836001Y-121374075D01*
X148829629Y-121374075D01*
X148553483Y-121374075D01*
X148556014Y-121303704D01*
X148611111Y-121303704D01*
X148720370Y-121305754D01*
X148829629Y-121307804D01*
X148829629Y-121251318D01*
X148826861Y-121204849D01*
X148818590Y-121171759D01*
X148817200Y-121168639D01*
X148797952Y-121144112D01*
X148769255Y-121126767D01*
X148735069Y-121117493D01*
X148699357Y-121117177D01*
X148666080Y-121126705D01*
X148655816Y-121132482D01*
X148635720Y-121151178D01*
X148622415Y-121177671D01*
X148615006Y-121214334D01*
X148612884Y-121246081D01*
X148611111Y-121303704D01*
X148556014Y-121303704D01*
X148557173Y-121271479D01*
X148559034Y-121228211D01*
X148561371Y-121196331D01*
X148564717Y-121172410D01*
X148569606Y-121153020D01*
X148576571Y-121134733D01*
X148579474Y-121128230D01*
X148598567Y-121094744D01*
X148621655Y-121072026D01*
X148651572Y-121058478D01*
X148691149Y-121052501D01*
X148714814Y-121051852D01*
X148760536Y-121055029D01*
X148795675Y-121065571D01*
X148823259Y-121084997D01*
X148846318Y-121114827D01*
X148848865Y-121119075D01*
X148860972Y-121138095D01*
X148869820Y-121146184D01*
X148878650Y-121145726D01*
X148882559Y-121143868D01*
X148889332Y-121140077D01*
X148900990Y-121133288D01*
X148918714Y-121122798D01*
X148943679Y-121107901D01*
X148977065Y-121087896D01*
X149020050Y-121062077D01*
X149073811Y-121029740D01*
X149112963Y-121006174D01*
X149116100Y-121010828D01*
G37*
G36*
X148579629Y-119578438D02*
G01*
X148590647Y-119579721D01*
X148614008Y-119582244D01*
X148647673Y-119585798D01*
X148689604Y-119590174D01*
X148737762Y-119595164D01*
X148790109Y-119600559D01*
X148844606Y-119606151D01*
X148899214Y-119611731D01*
X148951896Y-119617089D01*
X149000612Y-119622019D01*
X149043324Y-119626311D01*
X149077993Y-119629756D01*
X149102582Y-119632147D01*
X149115050Y-119633273D01*
X149116097Y-119633334D01*
X149117499Y-119639989D01*
X149118373Y-119656948D01*
X149118518Y-119669152D01*
X149118518Y-119704969D01*
X149005555Y-119732287D01*
X148960552Y-119743024D01*
X148914874Y-119753668D01*
X148873058Y-119763180D01*
X148839640Y-119770517D01*
X148831481Y-119772232D01*
X148801152Y-119779359D01*
X148780216Y-119785999D01*
X148769982Y-119791480D01*
X148771755Y-119795131D01*
X148784625Y-119796297D01*
X148794953Y-119797876D01*
X148817064Y-119802220D01*
X148848308Y-119808743D01*
X148886038Y-119816856D01*
X148927605Y-119825973D01*
X148970362Y-119835505D01*
X149011659Y-119844864D01*
X149048850Y-119853464D01*
X149079284Y-119860717D01*
X149100315Y-119866035D01*
X149105555Y-119867505D01*
X149113910Y-119873795D01*
X149117806Y-119888509D01*
X149118518Y-119906554D01*
X149118518Y-119941739D01*
X148864814Y-119969524D01*
X148803845Y-119976233D01*
X148746511Y-119982602D01*
X148694746Y-119988411D01*
X148650484Y-119993441D01*
X148615660Y-119997473D01*
X148592206Y-120000288D01*
X148583333Y-120001454D01*
X148555555Y-120005598D01*
X148555555Y-119975357D01*
X148556538Y-119955873D01*
X148561744Y-119946375D01*
X148574556Y-119942059D01*
X148579629Y-119941180D01*
X148598940Y-119938652D01*
X148630088Y-119935303D01*
X148670276Y-119931371D01*
X148716709Y-119927093D01*
X148766592Y-119922707D01*
X148817129Y-119918452D01*
X148865524Y-119914565D01*
X148908982Y-119911284D01*
X148944707Y-119908847D01*
X148969904Y-119907492D01*
X148977779Y-119907294D01*
X149008218Y-119906034D01*
X149024750Y-119902794D01*
X149027151Y-119898078D01*
X149015194Y-119892386D01*
X148988656Y-119886220D01*
X148987323Y-119885977D01*
X148962267Y-119881064D01*
X148926728Y-119873582D01*
X148884639Y-119864384D01*
X148839930Y-119854322D01*
X148818518Y-119849395D01*
X148700000Y-119821903D01*
X148700000Y-119789538D01*
X148700000Y-119757172D01*
X148833333Y-119725134D01*
X148878131Y-119714520D01*
X148920150Y-119704839D01*
X148956388Y-119696762D01*
X148983845Y-119690960D01*
X148998239Y-119688286D01*
X149022016Y-119683712D01*
X149031056Y-119679507D01*
X149025434Y-119675701D01*
X149005222Y-119672327D01*
X148970497Y-119669413D01*
X148949746Y-119668240D01*
X148914185Y-119666175D01*
X148868009Y-119663087D01*
X148815358Y-119659275D01*
X148760371Y-119655039D01*
X148709259Y-119650853D01*
X148555555Y-119637833D01*
X148555555Y-119606420D01*
X148556123Y-119586799D01*
X148559946Y-119578298D01*
X148570203Y-119577220D01*
X148579629Y-119578438D01*
G37*
G36*
X145600000Y-122537038D02*
G01*
X145600000Y-122611112D01*
X145677777Y-122611112D01*
X145755555Y-122611112D01*
X145755555Y-122637038D01*
X145755555Y-122662963D01*
X145677777Y-122662963D01*
X145600000Y-122662963D01*
X145600000Y-122733334D01*
X145600000Y-122803704D01*
X145574074Y-122803704D01*
X145548148Y-122803704D01*
X145548148Y-122733334D01*
X145548148Y-122662963D01*
X145470370Y-122662963D01*
X145392592Y-122662963D01*
X145392592Y-122637297D01*
X145392592Y-122611630D01*
X145468518Y-122609519D01*
X145544444Y-122607408D01*
X145546564Y-122535186D01*
X145548684Y-122462963D01*
X145574342Y-122462963D01*
X145600000Y-122462963D01*
X145600000Y-122537038D01*
G37*
G36*
X145674074Y-120266667D02*
G01*
X145674074Y-120381482D01*
X145640740Y-120381482D01*
X145607407Y-120381482D01*
X145607407Y-120266667D01*
X145607407Y-120151852D01*
X145640740Y-120151852D01*
X145674074Y-120151852D01*
X145674074Y-120266667D01*
G37*
G36*
X144770370Y-122625926D02*
G01*
X144770370Y-122781482D01*
X144488889Y-122781482D01*
X144207407Y-122781482D01*
X144207407Y-122748149D01*
X144207407Y-122714815D01*
X144455555Y-122714815D01*
X144703703Y-122714815D01*
X144703703Y-122592593D01*
X144703703Y-122470371D01*
X144737037Y-122470371D01*
X144770370Y-122470371D01*
X144770370Y-122625926D01*
G37*
G36*
X144274074Y-122125926D02*
G01*
X144274074Y-122255556D01*
X144359259Y-122255556D01*
X144444444Y-122255556D01*
X144444444Y-122133334D01*
X144444444Y-122011112D01*
X144477777Y-122011112D01*
X144511111Y-122011112D01*
X144511111Y-122133334D01*
X144511111Y-122255556D01*
X144607407Y-122255556D01*
X144703703Y-122255556D01*
X144703703Y-122125926D01*
X144703703Y-121996297D01*
X144737037Y-121996297D01*
X144770370Y-121996297D01*
X144770370Y-122159260D01*
X144770370Y-122322223D01*
X144488889Y-122322223D01*
X144207407Y-122322223D01*
X144207407Y-122159260D01*
X144207407Y-121996297D01*
X144240740Y-121996297D01*
X144274074Y-121996297D01*
X144274074Y-122125926D01*
G37*
G36*
X144536093Y-121493405D02*
G01*
X144599256Y-121504483D01*
X144651907Y-121524941D01*
X144694413Y-121555250D01*
X144727137Y-121595885D01*
X144750443Y-121647319D01*
X144764697Y-121710024D01*
X144770262Y-121784475D01*
X144770370Y-121797657D01*
X144770370Y-121862963D01*
X144487922Y-121862963D01*
X144257215Y-121862963D01*
X144205474Y-121862963D01*
X144207790Y-121796297D01*
X144257215Y-121796297D01*
X144488619Y-121796297D01*
X144720022Y-121796297D01*
X144714944Y-121742593D01*
X144710179Y-121710332D01*
X144702745Y-121679069D01*
X144695009Y-121657399D01*
X144669380Y-121618875D01*
X144633250Y-121590035D01*
X144586291Y-121570725D01*
X144528178Y-121560789D01*
X144489382Y-121559260D01*
X144426107Y-121563207D01*
X144374627Y-121575194D01*
X144334154Y-121595434D01*
X144321681Y-121605173D01*
X144294662Y-121634738D01*
X144276456Y-121669653D01*
X144265547Y-121713351D01*
X144262349Y-121739646D01*
X144257215Y-121796297D01*
X144207790Y-121796297D01*
X144208883Y-121764815D01*
X144212017Y-121710187D01*
X144217830Y-121667169D01*
X144227341Y-121632652D01*
X144241571Y-121603526D01*
X144261539Y-121576678D01*
X144275548Y-121561542D01*
X144318558Y-121528148D01*
X144371760Y-121505251D01*
X144434802Y-121492944D01*
X144507328Y-121491319D01*
X144536093Y-121493405D01*
G37*
G36*
X144231481Y-120590272D02*
G01*
X144247894Y-120593518D01*
X144255093Y-120602213D01*
X144257434Y-120618519D01*
X144259713Y-120643558D01*
X144262884Y-120671562D01*
X144263443Y-120675926D01*
X144267574Y-120707408D01*
X144488550Y-120707408D01*
X144553076Y-120707474D01*
X144604312Y-120707411D01*
X144643783Y-120706826D01*
X144673011Y-120705326D01*
X144693519Y-120702520D01*
X144706832Y-120698014D01*
X144714471Y-120691417D01*
X144717960Y-120682335D01*
X144718823Y-120670376D01*
X144718582Y-120655147D01*
X144718518Y-120648149D01*
X144719718Y-120618129D01*
X144724251Y-120600066D01*
X144733519Y-120591230D01*
X144748926Y-120588889D01*
X144748940Y-120588889D01*
X144770370Y-120588889D01*
X144770370Y-120737038D01*
X144770370Y-120885186D01*
X144748940Y-120885186D01*
X144733075Y-120882613D01*
X144723723Y-120873072D01*
X144719385Y-120853822D01*
X144718518Y-120829630D01*
X144718743Y-120814033D01*
X144718402Y-120801653D01*
X144715967Y-120792120D01*
X144709913Y-120785064D01*
X144698713Y-120780116D01*
X144680842Y-120776906D01*
X144654772Y-120775066D01*
X144618977Y-120774225D01*
X144571932Y-120774014D01*
X144512110Y-120774064D01*
X144489022Y-120774075D01*
X144268518Y-120774075D01*
X144263889Y-120797223D01*
X144260888Y-120820000D01*
X144259324Y-120847059D01*
X144259259Y-120852778D01*
X144258656Y-120872889D01*
X144254668Y-120882274D01*
X144244022Y-120885022D01*
X144233333Y-120885186D01*
X144207407Y-120885186D01*
X144207407Y-120736568D01*
X144207407Y-120587951D01*
X144231481Y-120590272D01*
G37*
G36*
X144768888Y-120127070D02*
G01*
X144766666Y-120168955D01*
X144533333Y-120271061D01*
X144478048Y-120295302D01*
X144426869Y-120317834D01*
X144381438Y-120337928D01*
X144343392Y-120354856D01*
X144314370Y-120367889D01*
X144296013Y-120376298D01*
X144290154Y-120379177D01*
X144294869Y-120380536D01*
X144312763Y-120381642D01*
X144342206Y-120382472D01*
X144381563Y-120383001D01*
X144429201Y-120383203D01*
X144483489Y-120383054D01*
X144525340Y-120382721D01*
X144770370Y-120380255D01*
X144770370Y-120410498D01*
X144770370Y-120440741D01*
X144488889Y-120440741D01*
X144207407Y-120440741D01*
X144207407Y-120397302D01*
X144207407Y-120353862D01*
X144435185Y-120255287D01*
X144489610Y-120231671D01*
X144539698Y-120209815D01*
X144583824Y-120190439D01*
X144620362Y-120174260D01*
X144647689Y-120161997D01*
X144664180Y-120154369D01*
X144668412Y-120152166D01*
X144662667Y-120151148D01*
X144643821Y-120150395D01*
X144613587Y-120149919D01*
X144573678Y-120149732D01*
X144525806Y-120149846D01*
X144471682Y-120150271D01*
X144440634Y-120150632D01*
X144207407Y-120153644D01*
X144207407Y-120119415D01*
X144207407Y-120085186D01*
X144489258Y-120085186D01*
X144771109Y-120085186D01*
X144768888Y-120127070D01*
G37*
G36*
X143429629Y-120166667D02*
G01*
X143429629Y-120240741D01*
X143507407Y-120240741D01*
X143585185Y-120240741D01*
X143585185Y-120266667D01*
X143585185Y-120292593D01*
X143507407Y-120292593D01*
X143429629Y-120292593D01*
X143429629Y-120362963D01*
X143429629Y-120433334D01*
X143403703Y-120433334D01*
X143377777Y-120433334D01*
X143377777Y-120362963D01*
X143377777Y-120292593D01*
X143300000Y-120292593D01*
X143222222Y-120292593D01*
X143222222Y-120266926D01*
X143222222Y-120241260D01*
X143298148Y-120239149D01*
X143374074Y-120237038D01*
X143376194Y-120164815D01*
X143378314Y-120092593D01*
X143403972Y-120092593D01*
X143429629Y-120092593D01*
X143429629Y-120166667D01*
G37*
G36*
X143503703Y-122637038D02*
G01*
X143503703Y-122751852D01*
X143470370Y-122751852D01*
X143437037Y-122751852D01*
X143437037Y-122637038D01*
X143437037Y-122522223D01*
X143470370Y-122522223D01*
X143503703Y-122522223D01*
X143503703Y-122637038D01*
G37*
G36*
X142379520Y-120783231D02*
G01*
X142436041Y-120791496D01*
X142470302Y-120800257D01*
X142514129Y-120820131D01*
X142551822Y-120848912D01*
X142580625Y-120883865D01*
X142597784Y-120922259D01*
X142599183Y-120928143D01*
X142605006Y-120961480D01*
X142606105Y-120987545D01*
X142602571Y-121013078D01*
X142600481Y-121022223D01*
X142583347Y-121067410D01*
X142555757Y-121104033D01*
X142517237Y-121132341D01*
X142467312Y-121152582D01*
X142405509Y-121165004D01*
X142331353Y-121169857D01*
X142318518Y-121169947D01*
X142268347Y-121169054D01*
X142229374Y-121166147D01*
X142198078Y-121160883D01*
X142182297Y-121156688D01*
X142127741Y-121135359D01*
X142086379Y-121108099D01*
X142057471Y-121074017D01*
X142040282Y-121032223D01*
X142034071Y-120981827D01*
X142034028Y-120977778D01*
X142034291Y-120975130D01*
X142092592Y-120975130D01*
X142093007Y-121002787D01*
X142095406Y-121020521D01*
X142101525Y-121033221D01*
X142113097Y-121045776D01*
X142119880Y-121052072D01*
X142149463Y-121073460D01*
X142185803Y-121088656D01*
X142231036Y-121098209D01*
X142287300Y-121102669D01*
X142318518Y-121103162D01*
X142372562Y-121101761D01*
X142414805Y-121097374D01*
X142445803Y-121090407D01*
X142482513Y-121075492D01*
X142513430Y-121055724D01*
X142534959Y-121033656D01*
X142540971Y-121022827D01*
X142547168Y-120993804D01*
X142546473Y-120960139D01*
X142539396Y-120929179D01*
X142533659Y-120917070D01*
X142511550Y-120890966D01*
X142480461Y-120871463D01*
X142439268Y-120858241D01*
X142386846Y-120850985D01*
X142322072Y-120849376D01*
X142296590Y-120850076D01*
X142240313Y-120853610D01*
X142196322Y-120859778D01*
X142162220Y-120869247D01*
X142135609Y-120882684D01*
X142114091Y-120900755D01*
X142114030Y-120900820D01*
X142102565Y-120914223D01*
X142096110Y-120927548D01*
X142093255Y-120945676D01*
X142092593Y-120973488D01*
X142092592Y-120975130D01*
X142034291Y-120975130D01*
X142039305Y-120924721D01*
X142055988Y-120880699D01*
X142084669Y-120844868D01*
X142125943Y-120816387D01*
X142157693Y-120802210D01*
X142203527Y-120789716D01*
X142258771Y-120782369D01*
X142318932Y-120780199D01*
X142379520Y-120783231D01*
G37*
G36*
X142306905Y-120322538D02*
G01*
X142365296Y-120323641D01*
X142412426Y-120325770D01*
X142450065Y-120329160D01*
X142479986Y-120334047D01*
X142503959Y-120340670D01*
X142523755Y-120349263D01*
X142541147Y-120360064D01*
X142546075Y-120363706D01*
X142573315Y-120393187D01*
X142592719Y-120432182D01*
X142603338Y-120477086D01*
X142604221Y-120524295D01*
X142597735Y-120559713D01*
X142580077Y-120602723D01*
X142553712Y-120634881D01*
X142520318Y-120656772D01*
X142509858Y-120661687D01*
X142499461Y-120665593D01*
X142487319Y-120668628D01*
X142471622Y-120670927D01*
X142450560Y-120672628D01*
X142422325Y-120673866D01*
X142385106Y-120674778D01*
X142337094Y-120675501D01*
X142276479Y-120676171D01*
X142261111Y-120676327D01*
X142037037Y-120678579D01*
X142037037Y-120645251D01*
X142037037Y-120611923D01*
X142257407Y-120609666D01*
X142320438Y-120608983D01*
X142370421Y-120608282D01*
X142409124Y-120607427D01*
X142438314Y-120606282D01*
X142459758Y-120604711D01*
X142475224Y-120602580D01*
X142486477Y-120599751D01*
X142495286Y-120596089D01*
X142503417Y-120591460D01*
X142504684Y-120590676D01*
X142529526Y-120569238D01*
X142543440Y-120541422D01*
X142547421Y-120504812D01*
X142546610Y-120488967D01*
X142540166Y-120454469D01*
X142525662Y-120429365D01*
X142500223Y-120409172D01*
X142492610Y-120404798D01*
X142484173Y-120401175D01*
X142472364Y-120398267D01*
X142455491Y-120395970D01*
X142431858Y-120394183D01*
X142399772Y-120392800D01*
X142357539Y-120391719D01*
X142303466Y-120390837D01*
X142253703Y-120390239D01*
X142037037Y-120387886D01*
X142037037Y-120355054D01*
X142037037Y-120322223D01*
X142235480Y-120322223D01*
X142306905Y-120322538D01*
G37*
G36*
X142600000Y-122862963D02*
G01*
X142600000Y-123018519D01*
X142318518Y-123018519D01*
X142037037Y-123018519D01*
X142037037Y-122985186D01*
X142037037Y-122951852D01*
X142285185Y-122951852D01*
X142533333Y-122951852D01*
X142533333Y-122829630D01*
X142533333Y-122707408D01*
X142566666Y-122707408D01*
X142600000Y-122707408D01*
X142600000Y-122862963D01*
G37*
G36*
X142103703Y-122362963D02*
G01*
X142103703Y-122492593D01*
X142188889Y-122492593D01*
X142274074Y-122492593D01*
X142274074Y-122370371D01*
X142274074Y-122248149D01*
X142307407Y-122248149D01*
X142340740Y-122248149D01*
X142340740Y-122370371D01*
X142340740Y-122492593D01*
X142437037Y-122492593D01*
X142533333Y-122492593D01*
X142533333Y-122362963D01*
X142533333Y-122233334D01*
X142566666Y-122233334D01*
X142600000Y-122233334D01*
X142600000Y-122396297D01*
X142600000Y-122559260D01*
X142318518Y-122559260D01*
X142037037Y-122559260D01*
X142037037Y-122396297D01*
X142037037Y-122233334D01*
X142070370Y-122233334D01*
X142103703Y-122233334D01*
X142103703Y-122362963D01*
G37*
G36*
X142365723Y-121730442D02*
G01*
X142428885Y-121741520D01*
X142481537Y-121761978D01*
X142524042Y-121792287D01*
X142556766Y-121832922D01*
X142580073Y-121884356D01*
X142594326Y-121947061D01*
X142599891Y-122021512D01*
X142600000Y-122034694D01*
X142600000Y-122100000D01*
X142317552Y-122100000D01*
X142086845Y-122100000D01*
X142035104Y-122100000D01*
X142037420Y-122033334D01*
X142086845Y-122033334D01*
X142318248Y-122033334D01*
X142549651Y-122033334D01*
X142544574Y-121979630D01*
X142539808Y-121947369D01*
X142532375Y-121916106D01*
X142524639Y-121894436D01*
X142499010Y-121855912D01*
X142462879Y-121827072D01*
X142415921Y-121807762D01*
X142357808Y-121797826D01*
X142319012Y-121796297D01*
X142255737Y-121800244D01*
X142204256Y-121812231D01*
X142163784Y-121832471D01*
X142151311Y-121842210D01*
X142124292Y-121871775D01*
X142106086Y-121906690D01*
X142095177Y-121950388D01*
X142091979Y-121976683D01*
X142086845Y-122033334D01*
X142037420Y-122033334D01*
X142038513Y-122001852D01*
X142041647Y-121947224D01*
X142047459Y-121904206D01*
X142056970Y-121869689D01*
X142071200Y-121840563D01*
X142091169Y-121813715D01*
X142105178Y-121798579D01*
X142148188Y-121765185D01*
X142201390Y-121742288D01*
X142264431Y-121729981D01*
X142336957Y-121728356D01*
X142365723Y-121730442D01*
G37*
G36*
X142103703Y-119911112D02*
G01*
X142103703Y-119996297D01*
X142351851Y-119996297D01*
X142600000Y-119996297D01*
X142600000Y-120029630D01*
X142600000Y-120062963D01*
X142351851Y-120062963D01*
X142103703Y-120062963D01*
X142103703Y-120144445D01*
X142103703Y-120225926D01*
X142070370Y-120225926D01*
X142037037Y-120225926D01*
X142037037Y-120025926D01*
X142037037Y-119825926D01*
X142070370Y-119825926D01*
X142103703Y-119825926D01*
X142103703Y-119911112D01*
G37*
G36*
X140201742Y-122679528D02*
G01*
X140258264Y-122687792D01*
X140292524Y-122696554D01*
X140336351Y-122716427D01*
X140374044Y-122745208D01*
X140402847Y-122780162D01*
X140420006Y-122818555D01*
X140421405Y-122824439D01*
X140427229Y-122857776D01*
X140428327Y-122883842D01*
X140424793Y-122909374D01*
X140422703Y-122918519D01*
X140405948Y-122962628D01*
X140378625Y-122998509D01*
X140339693Y-123027123D01*
X140288113Y-123049430D01*
X140276962Y-123052984D01*
X140240510Y-123060603D01*
X140194311Y-123065229D01*
X140143131Y-123066862D01*
X140140740Y-123066799D01*
X140091732Y-123065503D01*
X140044878Y-123061152D01*
X140007333Y-123053808D01*
X140004519Y-123052984D01*
X139949964Y-123031656D01*
X139908601Y-123004396D01*
X139879694Y-122970314D01*
X139862504Y-122928520D01*
X139856293Y-122878123D01*
X139856250Y-122874075D01*
X139856513Y-122871426D01*
X139914814Y-122871426D01*
X139915229Y-122899084D01*
X139917628Y-122916817D01*
X139923747Y-122929517D01*
X139935319Y-122942072D01*
X139942102Y-122948368D01*
X139971685Y-122969756D01*
X140008025Y-122984952D01*
X140053258Y-122994505D01*
X140109522Y-122998965D01*
X140140740Y-122999459D01*
X140194784Y-122998058D01*
X140237027Y-122993670D01*
X140268026Y-122986703D01*
X140304735Y-122971788D01*
X140335652Y-122952020D01*
X140357181Y-122929952D01*
X140363193Y-122919123D01*
X140369390Y-122890100D01*
X140368695Y-122856435D01*
X140361618Y-122825475D01*
X140355881Y-122813366D01*
X140333772Y-122787262D01*
X140302683Y-122767759D01*
X140261490Y-122754538D01*
X140209068Y-122747282D01*
X140144295Y-122745673D01*
X140118812Y-122746373D01*
X140062536Y-122749906D01*
X140018545Y-122756074D01*
X139984442Y-122765544D01*
X139957831Y-122778981D01*
X139936314Y-122797052D01*
X139936252Y-122797116D01*
X139924788Y-122810519D01*
X139918332Y-122823844D01*
X139915478Y-122841972D01*
X139914815Y-122869784D01*
X139914814Y-122871426D01*
X139856513Y-122871426D01*
X139861527Y-122821018D01*
X139878210Y-122776995D01*
X139906891Y-122741165D01*
X139948165Y-122712683D01*
X139979916Y-122698507D01*
X140025749Y-122686012D01*
X140080993Y-122678666D01*
X140141155Y-122676495D01*
X140201742Y-122679528D01*
G37*
G36*
X140077475Y-123164390D02*
G01*
X140119451Y-123179275D01*
X140153752Y-123204945D01*
X140157014Y-123208326D01*
X140176642Y-123234009D01*
X140190533Y-123264434D01*
X140199632Y-123302644D01*
X140204887Y-123351682D01*
X140205651Y-123364815D01*
X140209535Y-123440741D01*
X140315878Y-123440741D01*
X140422222Y-123440741D01*
X140422222Y-123474075D01*
X140422222Y-123507408D01*
X140140740Y-123507408D01*
X140065279Y-123507408D01*
X139859259Y-123507408D01*
X139859259Y-123419879D01*
X139860242Y-123386044D01*
X139912251Y-123386044D01*
X139912500Y-123404806D01*
X139914814Y-123437038D01*
X140025600Y-123439096D01*
X140065279Y-123439558D01*
X140100149Y-123439446D01*
X140127308Y-123438810D01*
X140143855Y-123437699D01*
X140147049Y-123437063D01*
X140152149Y-123427896D01*
X140154391Y-123407934D01*
X140154068Y-123380857D01*
X140151468Y-123350347D01*
X140146882Y-123320086D01*
X140140601Y-123293753D01*
X140134499Y-123277890D01*
X140114780Y-123251359D01*
X140086994Y-123234868D01*
X140049502Y-123227696D01*
X140020264Y-123227633D01*
X139991927Y-123229814D01*
X139973280Y-123234057D01*
X139959202Y-123242118D01*
X139947776Y-123252509D01*
X139933859Y-123269608D01*
X139924823Y-123290254D01*
X139918418Y-123319791D01*
X139917790Y-123323733D01*
X139914064Y-123355114D01*
X139912251Y-123386044D01*
X139860242Y-123386044D01*
X139861332Y-123348554D01*
X139868005Y-123290451D01*
X139879960Y-123244507D01*
X139897878Y-123209657D01*
X139922440Y-123184836D01*
X139954329Y-123168980D01*
X139994226Y-123161025D01*
X140025926Y-123159585D01*
X140077475Y-123164390D01*
G37*
G36*
X139883333Y-122185845D02*
G01*
X139894351Y-122187129D01*
X139917712Y-122189652D01*
X139951377Y-122193206D01*
X139993308Y-122197582D01*
X140041466Y-122202572D01*
X140093813Y-122207967D01*
X140148310Y-122213558D01*
X140202918Y-122219138D01*
X140255600Y-122224497D01*
X140304316Y-122229427D01*
X140347028Y-122233718D01*
X140381697Y-122237164D01*
X140406285Y-122239554D01*
X140418754Y-122240681D01*
X140419801Y-122240741D01*
X140421202Y-122247396D01*
X140422076Y-122264355D01*
X140422222Y-122276559D01*
X140422222Y-122312377D01*
X140309259Y-122339694D01*
X140264255Y-122350431D01*
X140218577Y-122361076D01*
X140176761Y-122370587D01*
X140143344Y-122377925D01*
X140135185Y-122379639D01*
X140104855Y-122386767D01*
X140083920Y-122393406D01*
X140073685Y-122398887D01*
X140075459Y-122402538D01*
X140088329Y-122403704D01*
X140098657Y-122405283D01*
X140120767Y-122409628D01*
X140152012Y-122416150D01*
X140189742Y-122424264D01*
X140231309Y-122433380D01*
X140274066Y-122442912D01*
X140315363Y-122452272D01*
X140352553Y-122460872D01*
X140382988Y-122468125D01*
X140404019Y-122473442D01*
X140409259Y-122474912D01*
X140417614Y-122481202D01*
X140421510Y-122495916D01*
X140422222Y-122513961D01*
X140422222Y-122549146D01*
X140168518Y-122576932D01*
X140107549Y-122583640D01*
X140050214Y-122590009D01*
X139998450Y-122595818D01*
X139954188Y-122600848D01*
X139919364Y-122604881D01*
X139895910Y-122607695D01*
X139887037Y-122608861D01*
X139859259Y-122613005D01*
X139859259Y-122582764D01*
X139860242Y-122563280D01*
X139865447Y-122553783D01*
X139878260Y-122549466D01*
X139883333Y-122548587D01*
X139902644Y-122546060D01*
X139933791Y-122542711D01*
X139973980Y-122538778D01*
X140020413Y-122534500D01*
X140070296Y-122530114D01*
X140120832Y-122525859D01*
X140169228Y-122521972D01*
X140212686Y-122518691D01*
X140248411Y-122516254D01*
X140273608Y-122514900D01*
X140281483Y-122514702D01*
X140311922Y-122513441D01*
X140328454Y-122510202D01*
X140330854Y-122505485D01*
X140318898Y-122499793D01*
X140292360Y-122493628D01*
X140291027Y-122493385D01*
X140265971Y-122488471D01*
X140230432Y-122480990D01*
X140188343Y-122471792D01*
X140143634Y-122461730D01*
X140122222Y-122456802D01*
X140003703Y-122429311D01*
X140003703Y-122396945D01*
X140003703Y-122364579D01*
X140137037Y-122332542D01*
X140181835Y-122321927D01*
X140223854Y-122312246D01*
X140260092Y-122304169D01*
X140287549Y-122298367D01*
X140301943Y-122295694D01*
X140325720Y-122291119D01*
X140334760Y-122286914D01*
X140329137Y-122283109D01*
X140308926Y-122279734D01*
X140274200Y-122276820D01*
X140253449Y-122275647D01*
X140217889Y-122273583D01*
X140171713Y-122270495D01*
X140119062Y-122266683D01*
X140064075Y-122262446D01*
X140012963Y-122258260D01*
X139859259Y-122245241D01*
X139859259Y-122213827D01*
X139859827Y-122194206D01*
X139863649Y-122185705D01*
X139873906Y-122184628D01*
X139883333Y-122185845D01*
G37*
G36*
X139925926Y-121888889D02*
G01*
X139925926Y-122018519D01*
X140011111Y-122018519D01*
X140096296Y-122018519D01*
X140096296Y-121896297D01*
X140096296Y-121774075D01*
X140129629Y-121774075D01*
X140162963Y-121774075D01*
X140162963Y-121896297D01*
X140162963Y-122018519D01*
X140259259Y-122018519D01*
X140355555Y-122018519D01*
X140355555Y-121888889D01*
X140355555Y-121759260D01*
X140388889Y-121759260D01*
X140422222Y-121759260D01*
X140422222Y-121922223D01*
X140422222Y-122085186D01*
X140140740Y-122085186D01*
X139859259Y-122085186D01*
X139859259Y-121922223D01*
X139859259Y-121759260D01*
X139892592Y-121759260D01*
X139925926Y-121759260D01*
X139925926Y-121888889D01*
G37*
G36*
X140419804Y-121247866D02*
G01*
X140421818Y-121263420D01*
X140422222Y-121277058D01*
X140422222Y-121314250D01*
X140331481Y-121367211D01*
X140284504Y-121394572D01*
X140248717Y-121415610D01*
X140222632Y-121431672D01*
X140204766Y-121444104D01*
X140193631Y-121454252D01*
X140187743Y-121463465D01*
X140185616Y-121473089D01*
X140185764Y-121484470D01*
X140186677Y-121498492D01*
X140188889Y-121540741D01*
X140305555Y-121542781D01*
X140422222Y-121544821D01*
X140422222Y-121577966D01*
X140422222Y-121611112D01*
X140139704Y-121611112D01*
X140133333Y-121611112D01*
X139857187Y-121611112D01*
X139859717Y-121540741D01*
X139914814Y-121540741D01*
X140024074Y-121542791D01*
X140133333Y-121544841D01*
X140133333Y-121488355D01*
X140130564Y-121441886D01*
X140122294Y-121408796D01*
X140120903Y-121405676D01*
X140101656Y-121381149D01*
X140072958Y-121363804D01*
X140038773Y-121354530D01*
X140003061Y-121354214D01*
X139969784Y-121363743D01*
X139959520Y-121369519D01*
X139939423Y-121388215D01*
X139926119Y-121414708D01*
X139918710Y-121451371D01*
X139916588Y-121483118D01*
X139914814Y-121540741D01*
X139859717Y-121540741D01*
X139860876Y-121508516D01*
X139862738Y-121465248D01*
X139865075Y-121433368D01*
X139868421Y-121409447D01*
X139873310Y-121390057D01*
X139880274Y-121371770D01*
X139883177Y-121365267D01*
X139902270Y-121331781D01*
X139925359Y-121309063D01*
X139955276Y-121295515D01*
X139994853Y-121289538D01*
X140018518Y-121288889D01*
X140064240Y-121292066D01*
X140099378Y-121302608D01*
X140126963Y-121322034D01*
X140150022Y-121351864D01*
X140152569Y-121356112D01*
X140164675Y-121375132D01*
X140173524Y-121383221D01*
X140182354Y-121382763D01*
X140186263Y-121380905D01*
X140193035Y-121377114D01*
X140204694Y-121370325D01*
X140222417Y-121359835D01*
X140247383Y-121344938D01*
X140280769Y-121324933D01*
X140323754Y-121299114D01*
X140377514Y-121266777D01*
X140416666Y-121243211D01*
X140419804Y-121247866D01*
G37*
G36*
X140305134Y-120317962D02*
G01*
X140326254Y-120324693D01*
X140335931Y-120329095D01*
X140363851Y-120346275D01*
X140385523Y-120368712D01*
X140401561Y-120398131D01*
X140412579Y-120436256D01*
X140419193Y-120484811D01*
X140422015Y-120545523D01*
X140422222Y-120571382D01*
X140422222Y-120662963D01*
X140145971Y-120662963D01*
X140140740Y-120662963D01*
X139908876Y-120662963D01*
X139859259Y-120662963D01*
X139859377Y-120596297D01*
X139908876Y-120596297D01*
X140003260Y-120596297D01*
X140097644Y-120596297D01*
X140145971Y-120596297D01*
X140259290Y-120596297D01*
X140372608Y-120596297D01*
X140368111Y-120522485D01*
X140364849Y-120485832D01*
X140360123Y-120454385D01*
X140354600Y-120432202D01*
X140352504Y-120427188D01*
X140333203Y-120404851D01*
X140304360Y-120389560D01*
X140269914Y-120382213D01*
X140233802Y-120383710D01*
X140203543Y-120393165D01*
X140183216Y-120407251D01*
X140168401Y-120428719D01*
X140158268Y-120459645D01*
X140151986Y-120502105D01*
X140150134Y-120526520D01*
X140145971Y-120596297D01*
X140097644Y-120596297D01*
X140095118Y-120517897D01*
X140093847Y-120482973D01*
X140092126Y-120459497D01*
X140089059Y-120444109D01*
X140083747Y-120433448D01*
X140075292Y-120424157D01*
X140068401Y-120417897D01*
X140041227Y-120401848D01*
X140009838Y-120395718D01*
X139978229Y-120398957D01*
X139950396Y-120411012D01*
X139930333Y-120431333D01*
X139927109Y-120437398D01*
X139922573Y-120453612D01*
X139918162Y-120480029D01*
X139914579Y-120512049D01*
X139913439Y-120526843D01*
X139908876Y-120596297D01*
X139859377Y-120596297D01*
X139859413Y-120575926D01*
X139861584Y-120505957D01*
X139868201Y-120449275D01*
X139879828Y-120404871D01*
X139897029Y-120371735D01*
X139920369Y-120348857D01*
X139950411Y-120335228D01*
X139987721Y-120329838D01*
X139997052Y-120329658D01*
X140039636Y-120334537D01*
X140072612Y-120349937D01*
X140097770Y-120376914D01*
X140108011Y-120395144D01*
X140123429Y-120427193D01*
X140135920Y-120394486D01*
X140148925Y-120368901D01*
X140165944Y-120345431D01*
X140170856Y-120340275D01*
X140184463Y-120328819D01*
X140198700Y-120321943D01*
X140218282Y-120318168D01*
X140247926Y-120316013D01*
X140248224Y-120315998D01*
X140281071Y-120315354D01*
X140305134Y-120317962D01*
G37*
G36*
X139925926Y-119911112D02*
G01*
X139925926Y-119996297D01*
X140174074Y-119996297D01*
X140422222Y-119996297D01*
X140422222Y-120029630D01*
X140422222Y-120062963D01*
X140174074Y-120062963D01*
X139925926Y-120062963D01*
X139925926Y-120144445D01*
X139925926Y-120225926D01*
X139892592Y-120225926D01*
X139859259Y-120225926D01*
X139859259Y-120025926D01*
X139859259Y-119825926D01*
X139892592Y-119825926D01*
X139925926Y-119825926D01*
X139925926Y-119911112D01*
G37*
G36*
X140420740Y-119415959D02*
G01*
X140418518Y-119457844D01*
X140185185Y-119559950D01*
X140129899Y-119584191D01*
X140078721Y-119606723D01*
X140033289Y-119626817D01*
X139995243Y-119643745D01*
X139966222Y-119656778D01*
X139947865Y-119665187D01*
X139942006Y-119668065D01*
X139946721Y-119669424D01*
X139964615Y-119670531D01*
X139994058Y-119671361D01*
X140033414Y-119671889D01*
X140081053Y-119672092D01*
X140135341Y-119671943D01*
X140177191Y-119671609D01*
X140422222Y-119669144D01*
X140422222Y-119699387D01*
X140422222Y-119729630D01*
X140140740Y-119729630D01*
X139859259Y-119729630D01*
X139859259Y-119686191D01*
X139859259Y-119642751D01*
X140087037Y-119544176D01*
X140141462Y-119520560D01*
X140191550Y-119498704D01*
X140235675Y-119479328D01*
X140272214Y-119463149D01*
X140299541Y-119450886D01*
X140316032Y-119443258D01*
X140320264Y-119441055D01*
X140314519Y-119440037D01*
X140295673Y-119439284D01*
X140265439Y-119438808D01*
X140225530Y-119438621D01*
X140177658Y-119438734D01*
X140123534Y-119439160D01*
X140092486Y-119439521D01*
X139859259Y-119442533D01*
X139859259Y-119408304D01*
X139859259Y-119374075D01*
X140141110Y-119374075D01*
X140422961Y-119374075D01*
X140420740Y-119415959D01*
G37*
G36*
X138144752Y-122232459D02*
G01*
X138183012Y-122250188D01*
X138215081Y-122276762D01*
X138237557Y-122309748D01*
X138243651Y-122326093D01*
X138251339Y-122365900D01*
X138255268Y-122413010D01*
X138255087Y-122460309D01*
X138251878Y-122492683D01*
X138245419Y-122528620D01*
X138238590Y-122552257D01*
X138229848Y-122566066D01*
X138217647Y-122572515D01*
X138200960Y-122574075D01*
X138171923Y-122574075D01*
X138186354Y-122527778D01*
X138195729Y-122487914D01*
X138200719Y-122445256D01*
X138201242Y-122404149D01*
X138197213Y-122368937D01*
X138189868Y-122346338D01*
X138167731Y-122318120D01*
X138137976Y-122300743D01*
X138104063Y-122295492D01*
X138071973Y-122302557D01*
X138060663Y-122308474D01*
X138050430Y-122317424D01*
X138039640Y-122331735D01*
X138026657Y-122353738D01*
X138009847Y-122385765D01*
X138000215Y-122404829D01*
X137973178Y-122456212D01*
X137949210Y-122495174D01*
X137926532Y-122523289D01*
X137903361Y-122542135D01*
X137877917Y-122553286D01*
X137848418Y-122558320D01*
X137825926Y-122559056D01*
X137782197Y-122552503D01*
X137745891Y-122534022D01*
X137717540Y-122504804D01*
X137697678Y-122466037D01*
X137686838Y-122418908D01*
X137685554Y-122364608D01*
X137694357Y-122304324D01*
X137700589Y-122279630D01*
X137707643Y-122258169D01*
X137714239Y-122244045D01*
X137717620Y-122240741D01*
X137727255Y-122242852D01*
X137744256Y-122247818D01*
X137762080Y-122253591D01*
X137774185Y-122258120D01*
X137775750Y-122258949D01*
X137774276Y-122265886D01*
X137768719Y-122282546D01*
X137762787Y-122298670D01*
X137750871Y-122342141D01*
X137747643Y-122384308D01*
X137752615Y-122422462D01*
X137765297Y-122453894D01*
X137785201Y-122475892D01*
X137795791Y-122481749D01*
X137824014Y-122491220D01*
X137847766Y-122492936D01*
X137868697Y-122485721D01*
X137888456Y-122468395D01*
X137908691Y-122439782D01*
X137931053Y-122398704D01*
X137941287Y-122377842D01*
X137959409Y-122341898D01*
X137977569Y-122308952D01*
X137993832Y-122282327D01*
X138006260Y-122265347D01*
X138007782Y-122263728D01*
X138038651Y-122242015D01*
X138076756Y-122228836D01*
X138103703Y-122226009D01*
X138144752Y-122232459D01*
G37*
G36*
X138249433Y-123151569D02*
G01*
X138251448Y-123167123D01*
X138251851Y-123180762D01*
X138251851Y-123217953D01*
X138161111Y-123270914D01*
X138114134Y-123298276D01*
X138078346Y-123319314D01*
X138052262Y-123335376D01*
X138034395Y-123347807D01*
X138023261Y-123357956D01*
X138017372Y-123367169D01*
X138015245Y-123376793D01*
X138015393Y-123388174D01*
X138016307Y-123402195D01*
X138018518Y-123444445D01*
X138135185Y-123446485D01*
X138251851Y-123448525D01*
X138251851Y-123481670D01*
X138251851Y-123514815D01*
X137969334Y-123514815D01*
X137962963Y-123514815D01*
X137686816Y-123514815D01*
X137689347Y-123444445D01*
X137744444Y-123444445D01*
X137853703Y-123446495D01*
X137962963Y-123448545D01*
X137962963Y-123392059D01*
X137960194Y-123345590D01*
X137951923Y-123312499D01*
X137950533Y-123309380D01*
X137931285Y-123284852D01*
X137902588Y-123267508D01*
X137868403Y-123258234D01*
X137832691Y-123257917D01*
X137799413Y-123267446D01*
X137789150Y-123273222D01*
X137769053Y-123291918D01*
X137755749Y-123318411D01*
X137748340Y-123355075D01*
X137746217Y-123386822D01*
X137744444Y-123444445D01*
X137689347Y-123444445D01*
X137690506Y-123412219D01*
X137692368Y-123368952D01*
X137694705Y-123337072D01*
X137698051Y-123313150D01*
X137702939Y-123293760D01*
X137709904Y-123275474D01*
X137712807Y-123268971D01*
X137731900Y-123235484D01*
X137754989Y-123212766D01*
X137784905Y-123199218D01*
X137824483Y-123193242D01*
X137848148Y-123192593D01*
X137893870Y-123195769D01*
X137929008Y-123206311D01*
X137956592Y-123225738D01*
X137979652Y-123255567D01*
X137982199Y-123259816D01*
X137994305Y-123278836D01*
X138003154Y-123286925D01*
X138011983Y-123286467D01*
X138015893Y-123284609D01*
X138022665Y-123280818D01*
X138034324Y-123274029D01*
X138052047Y-123263538D01*
X138077013Y-123248642D01*
X138110399Y-123228637D01*
X138153383Y-123202817D01*
X138207144Y-123170481D01*
X138246296Y-123146915D01*
X138249433Y-123151569D01*
G37*
G36*
X137755555Y-122844445D02*
G01*
X137755555Y-122974075D01*
X137840740Y-122974075D01*
X137925926Y-122974075D01*
X137925926Y-122851852D01*
X137925926Y-122729630D01*
X137959259Y-122729630D01*
X137992592Y-122729630D01*
X137992592Y-122851852D01*
X137992592Y-122974075D01*
X138088889Y-122974075D01*
X138185185Y-122974075D01*
X138185185Y-122844445D01*
X138185185Y-122714815D01*
X138218518Y-122714815D01*
X138251851Y-122714815D01*
X138251851Y-122877778D01*
X138251851Y-123040741D01*
X137970370Y-123040741D01*
X137688889Y-123040741D01*
X137688889Y-122877778D01*
X137688889Y-122714815D01*
X137722222Y-122714815D01*
X137755555Y-122714815D01*
X137755555Y-122844445D01*
G37*
G36*
X137755555Y-121896297D02*
G01*
X137755555Y-122025926D01*
X137840740Y-122025926D01*
X137925926Y-122025926D01*
X137925926Y-121903704D01*
X137925926Y-121781482D01*
X137959259Y-121781482D01*
X137992592Y-121781482D01*
X137992592Y-121903704D01*
X137992592Y-122025926D01*
X138088889Y-122025926D01*
X138185185Y-122025926D01*
X138185185Y-121896297D01*
X138185185Y-121766667D01*
X138218518Y-121766667D01*
X138251851Y-121766667D01*
X138251851Y-121929630D01*
X138251851Y-122092593D01*
X137970370Y-122092593D01*
X137688889Y-122092593D01*
X137688889Y-121929630D01*
X137688889Y-121766667D01*
X137722222Y-121766667D01*
X137755555Y-121766667D01*
X137755555Y-121896297D01*
G37*
G36*
X137755555Y-121340741D02*
G01*
X137755555Y-121425926D01*
X138003703Y-121425926D01*
X138251851Y-121425926D01*
X138251851Y-121459260D01*
X138251851Y-121492593D01*
X138003703Y-121492593D01*
X137755555Y-121492593D01*
X137755555Y-121574075D01*
X137755555Y-121655556D01*
X137722222Y-121655556D01*
X137688889Y-121655556D01*
X137688889Y-121455556D01*
X137688889Y-121255556D01*
X137722222Y-121255556D01*
X137755555Y-121255556D01*
X137755555Y-121340741D01*
G37*
G36*
X138134764Y-120325369D02*
G01*
X138155884Y-120332101D01*
X138165561Y-120336502D01*
X138193481Y-120353683D01*
X138215152Y-120376120D01*
X138231190Y-120405538D01*
X138242209Y-120443663D01*
X138248822Y-120492219D01*
X138251645Y-120552930D01*
X138251851Y-120578789D01*
X138251851Y-120670371D01*
X137975601Y-120670371D01*
X137970370Y-120670371D01*
X137738506Y-120670371D01*
X137688889Y-120670371D01*
X137689007Y-120603704D01*
X137738506Y-120603704D01*
X137832890Y-120603704D01*
X137927274Y-120603704D01*
X137975601Y-120603704D01*
X138088919Y-120603704D01*
X138202238Y-120603704D01*
X138197741Y-120529892D01*
X138194478Y-120493240D01*
X138189753Y-120461792D01*
X138184229Y-120439609D01*
X138182133Y-120434595D01*
X138162833Y-120412259D01*
X138133990Y-120396967D01*
X138099544Y-120389620D01*
X138063432Y-120391117D01*
X138033173Y-120400573D01*
X138012845Y-120414658D01*
X137998031Y-120436126D01*
X137987898Y-120467053D01*
X137981616Y-120509512D01*
X137979764Y-120533927D01*
X137975601Y-120603704D01*
X137927274Y-120603704D01*
X137924748Y-120525305D01*
X137923477Y-120490380D01*
X137921756Y-120466904D01*
X137918689Y-120451516D01*
X137913376Y-120440856D01*
X137904922Y-120431564D01*
X137898031Y-120425305D01*
X137870857Y-120409255D01*
X137839468Y-120403126D01*
X137807859Y-120406364D01*
X137780025Y-120418419D01*
X137759963Y-120438740D01*
X137756739Y-120444806D01*
X137752202Y-120461019D01*
X137747791Y-120487436D01*
X137744209Y-120519456D01*
X137743068Y-120534250D01*
X137738506Y-120603704D01*
X137689007Y-120603704D01*
X137689043Y-120583334D01*
X137691214Y-120513364D01*
X137697831Y-120456682D01*
X137709458Y-120412278D01*
X137726659Y-120379142D01*
X137749998Y-120356265D01*
X137780041Y-120342636D01*
X137817351Y-120337246D01*
X137826682Y-120337065D01*
X137869266Y-120341944D01*
X137902242Y-120357344D01*
X137927400Y-120384321D01*
X137937640Y-120402552D01*
X137953059Y-120434601D01*
X137965550Y-120401894D01*
X137978555Y-120376308D01*
X137995573Y-120352838D01*
X138000486Y-120347683D01*
X138014092Y-120336227D01*
X138028329Y-120329351D01*
X138047912Y-120325575D01*
X138077556Y-120323420D01*
X138077854Y-120323405D01*
X138110700Y-120322761D01*
X138134764Y-120325369D01*
G37*
G36*
X137755555Y-119918519D02*
G01*
X137755555Y-120003704D01*
X138003703Y-120003704D01*
X138251851Y-120003704D01*
X138251851Y-120037038D01*
X138251851Y-120070371D01*
X138003703Y-120070371D01*
X137755555Y-120070371D01*
X137755555Y-120151852D01*
X137755555Y-120233334D01*
X137722222Y-120233334D01*
X137688889Y-120233334D01*
X137688889Y-120033334D01*
X137688889Y-119833334D01*
X137722222Y-119833334D01*
X137755555Y-119833334D01*
X137755555Y-119918519D01*
G37*
G36*
X138250369Y-119423367D02*
G01*
X138248148Y-119465251D01*
X138014814Y-119567357D01*
X137959529Y-119591598D01*
X137908351Y-119614130D01*
X137862919Y-119634225D01*
X137824873Y-119651153D01*
X137795852Y-119664185D01*
X137777495Y-119672594D01*
X137771636Y-119675473D01*
X137776350Y-119676832D01*
X137794245Y-119677939D01*
X137823687Y-119678769D01*
X137863044Y-119679297D01*
X137910683Y-119679499D01*
X137964971Y-119679350D01*
X138006821Y-119679017D01*
X138251851Y-119676552D01*
X138251851Y-119706795D01*
X138251851Y-119737038D01*
X137970370Y-119737038D01*
X137688889Y-119737038D01*
X137688889Y-119693598D01*
X137688889Y-119650158D01*
X137916666Y-119551584D01*
X137971092Y-119527967D01*
X138021179Y-119506111D01*
X138065305Y-119486735D01*
X138101844Y-119470556D01*
X138129171Y-119458294D01*
X138145661Y-119450666D01*
X138149894Y-119448462D01*
X138144148Y-119447444D01*
X138125303Y-119446691D01*
X138095069Y-119446215D01*
X138055160Y-119446028D01*
X138007287Y-119446142D01*
X137953164Y-119446567D01*
X137922116Y-119446928D01*
X137688889Y-119449940D01*
X137688889Y-119415711D01*
X137688889Y-119381482D01*
X137970740Y-119381482D01*
X138252591Y-119381482D01*
X138250369Y-119423367D01*
G37*
%TO.C,D1*%
X163600000Y-107344716D02*
G75*
G03*
X160324614Y-107286636I-1600000J2154716D01*
G01*
%TO.C,U1*%
X154110000Y-89770000D02*
X154110000Y-90170000D01*
X133110000Y-61770000D02*
X133110000Y-62170000D01*
X133110000Y-64370000D02*
X133110000Y-64770000D01*
X154110000Y-94870000D02*
X154110000Y-95270000D01*
X139910000Y-110370000D02*
X133110000Y-110370000D01*
X154110000Y-84670000D02*
X154110000Y-85070000D01*
X154110000Y-107570000D02*
X154110000Y-107970000D01*
X154110000Y-61770000D02*
X154110000Y-62170000D01*
X136117000Y-62037000D02*
X136117000Y-59370000D01*
X154110000Y-79570000D02*
X154110000Y-79970000D01*
X133110000Y-59370000D02*
X154110000Y-59370000D01*
X133110000Y-104970000D02*
X133110000Y-105370000D01*
X133110000Y-82170000D02*
X133110000Y-82570000D01*
X133110000Y-107570000D02*
X133110000Y-107970000D01*
X133110000Y-69470000D02*
X133110000Y-69870000D01*
X133110000Y-79570000D02*
X133110000Y-79970000D01*
X154110000Y-82170000D02*
X154110000Y-82570000D01*
X154110000Y-110370000D02*
X147310000Y-110370000D01*
X154110000Y-69470000D02*
X154110000Y-69870000D01*
X133110000Y-92270000D02*
X133110000Y-92670000D01*
X133110000Y-62037000D02*
X136117000Y-62037000D01*
X133110000Y-77070000D02*
X133110000Y-77470000D01*
X133110000Y-89770000D02*
X133110000Y-90170000D01*
X142110000Y-110370000D02*
X142510000Y-110370000D01*
X133110000Y-71970000D02*
X133110000Y-72370000D01*
X154110000Y-64370000D02*
X154110000Y-64770000D01*
X133110000Y-99970000D02*
X133110000Y-100370000D01*
X144710000Y-110370000D02*
X145110000Y-110370000D01*
X154110000Y-71970000D02*
X154110000Y-72370000D01*
X133110000Y-94870000D02*
X133110000Y-95270000D01*
X154110000Y-87170000D02*
X154110000Y-87570000D01*
X133110000Y-74470000D02*
X133110000Y-74870000D01*
X133110000Y-84670000D02*
X133110000Y-85070000D01*
X133110000Y-102470000D02*
X133110000Y-102870000D01*
X133110000Y-97370000D02*
X133110000Y-97770000D01*
X154110000Y-92270000D02*
X154110000Y-92670000D01*
X154110000Y-74470000D02*
X154110000Y-74870000D01*
X154110000Y-102470000D02*
X154110000Y-102870000D01*
X154110000Y-77070000D02*
X154110000Y-77470000D01*
X133110000Y-59370000D02*
X133110000Y-59670000D01*
X154110000Y-104970000D02*
X154110000Y-105370000D01*
X154110000Y-97370000D02*
X154110000Y-97770000D01*
X154110000Y-66870000D02*
X154110000Y-67270000D01*
X133110000Y-87170000D02*
X133110000Y-87570000D01*
X154110000Y-59370000D02*
X154110000Y-59670000D01*
X133110000Y-66870000D02*
X133110000Y-67270000D01*
X154110000Y-99970000D02*
X154110000Y-100370000D01*
%TO.C,Q2*%
X154700000Y-117350000D02*
X158300000Y-117350000D01*
X158338478Y-117338478D02*
G75*
G03*
X156500000Y-112900000I-1838478J1838478D01*
G01*
X156500000Y-112900000D02*
G75*
G03*
X154661522Y-117338478I0J-2600000D01*
G01*
%TO.C,Q1*%
X131230000Y-112900000D02*
G75*
G03*
X129391522Y-117338478I0J-2600000D01*
G01*
X133068478Y-117338478D02*
G75*
G03*
X131230000Y-112900000I-1838478J1838478D01*
G01*
X129430000Y-117350000D02*
X133030000Y-117350000D01*
%TO.C,J2*%
X127500000Y-72090000D02*
X128830000Y-72090000D01*
X128830000Y-74690000D02*
X128830000Y-79830000D01*
X126170000Y-74690000D02*
X126170000Y-79830000D01*
X126170000Y-74690000D02*
X128830000Y-74690000D01*
X128830000Y-72090000D02*
X128830000Y-73420000D01*
X126170000Y-79830000D02*
X128830000Y-79830000D01*
%TD*%
M02*
