%TF.GenerationSoftware,KiCad,Pcbnew,7.0.10+dfsg-1*%
%TF.CreationDate,2024-01-21T16:37:02+01:00*%
%TF.ProjectId,picoswitch,7069636f-7377-4697-9463-682e6b696361,rev?*%
%TF.SameCoordinates,Original*%
%TF.FileFunction,Copper,L1,Top*%
%TF.FilePolarity,Positive*%
%FSLAX46Y46*%
G04 Gerber Fmt 4.6, Leading zero omitted, Abs format (unit mm)*
G04 Created by KiCad (PCBNEW 7.0.10+dfsg-1) date 2024-01-21 16:37:02*
%MOMM*%
%LPD*%
G01*
G04 APERTURE LIST*
%TA.AperFunction,ComponentPad*%
%ADD10R,1.700000X1.700000*%
%TD*%
%TA.AperFunction,ComponentPad*%
%ADD11O,1.700000X1.700000*%
%TD*%
%TA.AperFunction,SMDPad,CuDef*%
%ADD12R,1.700000X3.500000*%
%TD*%
%TA.AperFunction,SMDPad,CuDef*%
%ADD13R,3.500000X1.700000*%
%TD*%
%TA.AperFunction,ComponentPad*%
%ADD14R,1.050000X1.500000*%
%TD*%
%TA.AperFunction,ComponentPad*%
%ADD15O,1.050000X1.500000*%
%TD*%
%TA.AperFunction,ComponentPad*%
%ADD16R,3.200000X3.200000*%
%TD*%
%TA.AperFunction,ComponentPad*%
%ADD17O,3.200000X3.200000*%
%TD*%
%TA.AperFunction,Conductor*%
%ADD18C,0.250000*%
%TD*%
G04 APERTURE END LIST*
D10*
%TO.P,J3,1,GND*%
%TO.N,GND*%
X137300000Y-114000000D03*
D11*
%TO.P,J3,2,RESERVED*%
%TO.N,unconnected-(J3-RESERVED-Pad2)*%
X137300000Y-116540000D03*
%TO.P,J3,3,POWER_BTN*%
%TO.N,Net-(U1-GPIO14)*%
X139840000Y-114000000D03*
%TO.P,J3,4,POWER_BTN*%
%TO.N,GND*%
X139840000Y-116540000D03*
%TO.P,J3,5,LED_OUT_+*%
%TO.N,Net-(J3-LED_OUT_+)*%
X142380000Y-114000000D03*
%TO.P,J3,6,LED_OUT_-*%
%TO.N,GND*%
X142380000Y-116540000D03*
%TO.P,J3,7,LED_IN_-*%
X144920000Y-114000000D03*
%TO.P,J3,8,LED_IN_+*%
%TO.N,Net-(J3-LED_IN_+)*%
X144920000Y-116540000D03*
%TO.P,J3,9,RESET_BTN*%
%TO.N,GND*%
X147460000Y-114000000D03*
%TO.P,J3,10,RESET_BTN*%
%TO.N,Net-(U1-GPIO15)*%
X147460000Y-116540000D03*
%TO.P,J3,11,POWER_SW_-*%
%TO.N,GND*%
X150000000Y-114000000D03*
%TO.P,J3,12,POWER_SW_+*%
%TO.N,Net-(D1-A)*%
X150000000Y-116540000D03*
%TD*%
D10*
%TO.P,J2,1,GND*%
%TO.N,Net-(J2-GND)*%
X127475000Y-78525000D03*
D11*
%TO.P,J2,2,RX*%
%TO.N,Net-(J2-RX)*%
X127475000Y-75985000D03*
%TO.P,J2,3,TX*%
%TO.N,Net-(J2-TX)*%
X127475000Y-73445000D03*
%TD*%
D12*
%TO.P,U1,43,SWDIO*%
%TO.N,unconnected-(U1-SWDIO-Pad43)*%
X146150000Y-109670000D03*
D11*
X146150000Y-108770000D03*
D12*
%TO.P,U1,42,GND*%
%TO.N,unconnected-(U1-GND-Pad42)*%
X143610000Y-109670000D03*
D10*
X143610000Y-108770000D03*
D12*
%TO.P,U1,41,SWCLK*%
%TO.N,unconnected-(U1-SWCLK-Pad41)*%
X141070000Y-109670000D03*
D11*
X141070000Y-108770000D03*
D13*
%TO.P,U1,40,VBUS*%
%TO.N,+5V*%
X153400000Y-60740000D03*
D11*
X152500000Y-60740000D03*
D13*
%TO.P,U1,39,VSYS*%
%TO.N,unconnected-(U1-VSYS-Pad39)*%
X153400000Y-63280000D03*
D11*
X152500000Y-63280000D03*
D13*
%TO.P,U1,38,GND*%
%TO.N,GND*%
X153400000Y-65820000D03*
D10*
X152500000Y-65820000D03*
D13*
%TO.P,U1,37,3V3_EN*%
%TO.N,unconnected-(U1-3V3_EN-Pad37)*%
X153400000Y-68360000D03*
D11*
X152500000Y-68360000D03*
D13*
%TO.P,U1,36,3V3*%
%TO.N,+3V3*%
X153400000Y-70900000D03*
D11*
X152500000Y-70900000D03*
D13*
%TO.P,U1,35,ADC_VREF*%
%TO.N,unconnected-(U1-ADC_VREF-Pad35)*%
X153400000Y-73440000D03*
D11*
X152500000Y-73440000D03*
D13*
%TO.P,U1,34,GPIO28_ADC2*%
%TO.N,unconnected-(U1-GPIO28_ADC2-Pad34)*%
X153400000Y-75980000D03*
D11*
X152500000Y-75980000D03*
D13*
%TO.P,U1,33,AGND*%
%TO.N,GND*%
X153400000Y-78520000D03*
D10*
X152500000Y-78520000D03*
D13*
%TO.P,U1,32,GPIO27_ADC1*%
%TO.N,unconnected-(U1-GPIO27_ADC1-Pad32)*%
X153400000Y-81060000D03*
D11*
X152500000Y-81060000D03*
D13*
%TO.P,U1,31,GPIO26_ADC0*%
%TO.N,unconnected-(U1-GPIO26_ADC0-Pad31)*%
X153400000Y-83600000D03*
D11*
X152500000Y-83600000D03*
D13*
%TO.P,U1,30,RUN*%
%TO.N,unconnected-(U1-RUN-Pad30)*%
X153400000Y-86140000D03*
D11*
X152500000Y-86140000D03*
D13*
%TO.P,U1,29,GPIO22*%
%TO.N,unconnected-(U1-GPIO22-Pad29)*%
X153400000Y-88680000D03*
D11*
X152500000Y-88680000D03*
D13*
%TO.P,U1,28,GND*%
%TO.N,GND*%
X153400000Y-91220000D03*
D10*
X152500000Y-91220000D03*
D13*
%TO.P,U1,27,GPIO21*%
%TO.N,unconnected-(U1-GPIO21-Pad27)*%
X153400000Y-93760000D03*
D11*
X152500000Y-93760000D03*
D13*
%TO.P,U1,26,GPIO20*%
%TO.N,Net-(Q2-B)*%
X153400000Y-96300000D03*
D11*
X152500000Y-96300000D03*
D13*
%TO.P,U1,25,GPIO19*%
%TO.N,Net-(Q1-C)*%
X153400000Y-98840000D03*
D11*
X152500000Y-98840000D03*
D13*
%TO.P,U1,24,GPIO18*%
%TO.N,unconnected-(U1-GPIO18-Pad24)*%
X153400000Y-101380000D03*
D11*
X152500000Y-101380000D03*
D13*
%TO.P,U1,23,GND*%
%TO.N,GND*%
X153400000Y-103920000D03*
D10*
X152500000Y-103920000D03*
D13*
%TO.P,U1,22,GPIO17*%
%TO.N,unconnected-(U1-GPIO17-Pad22)*%
X153400000Y-106460000D03*
D11*
X152500000Y-106460000D03*
D13*
%TO.P,U1,21,GPIO16*%
%TO.N,Net-(D1-K)*%
X153400000Y-109000000D03*
D11*
X152500000Y-109000000D03*
D13*
%TO.P,U1,20,GPIO15*%
%TO.N,Net-(U1-GPIO15)*%
X133820000Y-109000000D03*
D11*
X134720000Y-109000000D03*
D13*
%TO.P,U1,19,GPIO14*%
%TO.N,Net-(U1-GPIO14)*%
X133820000Y-106460000D03*
D11*
X134720000Y-106460000D03*
D13*
%TO.P,U1,18,GND*%
%TO.N,GND*%
X133820000Y-103920000D03*
D10*
X134720000Y-103920000D03*
D13*
%TO.P,U1,17,GPIO13*%
%TO.N,unconnected-(U1-GPIO13-Pad17)*%
X133820000Y-101380000D03*
D11*
X134720000Y-101380000D03*
D13*
%TO.P,U1,16,GPIO12*%
%TO.N,unconnected-(U1-GPIO12-Pad16)*%
X133820000Y-98840000D03*
D11*
X134720000Y-98840000D03*
D13*
%TO.P,U1,15,GPIO11*%
%TO.N,unconnected-(U1-GPIO11-Pad15)*%
X133820000Y-96300000D03*
D11*
X134720000Y-96300000D03*
D13*
%TO.P,U1,14,GPIO10*%
%TO.N,unconnected-(U1-GPIO10-Pad14)*%
X133820000Y-93760000D03*
D11*
X134720000Y-93760000D03*
D13*
%TO.P,U1,13,GND*%
%TO.N,GND*%
X133820000Y-91220000D03*
D10*
X134720000Y-91220000D03*
D13*
%TO.P,U1,12,GPIO9*%
%TO.N,unconnected-(U1-GPIO9-Pad12)*%
X133820000Y-88680000D03*
D11*
X134720000Y-88680000D03*
D13*
%TO.P,U1,11,GPIO8*%
%TO.N,unconnected-(U1-GPIO8-Pad11)*%
X133820000Y-86140000D03*
D11*
X134720000Y-86140000D03*
D13*
%TO.P,U1,10,GPIO7*%
%TO.N,unconnected-(U1-GPIO7-Pad10)*%
X133820000Y-83600000D03*
D11*
X134720000Y-83600000D03*
D13*
%TO.P,U1,9,GPIO6*%
%TO.N,unconnected-(U1-GPIO6-Pad9)*%
X133820000Y-81060000D03*
D11*
X134720000Y-81060000D03*
D13*
%TO.P,U1,8,GND*%
%TO.N,Net-(J2-GND)*%
X133820000Y-78520000D03*
D10*
X134720000Y-78520000D03*
D13*
%TO.P,U1,7,GPIO5*%
%TO.N,Net-(J2-RX)*%
X133820000Y-75980000D03*
D11*
X134720000Y-75980000D03*
D13*
%TO.P,U1,6,GPIO4*%
%TO.N,Net-(J2-TX)*%
X133820000Y-73440000D03*
D11*
X134720000Y-73440000D03*
D13*
%TO.P,U1,5,GPIO3*%
%TO.N,unconnected-(U1-GPIO3-Pad5)*%
X133820000Y-70900000D03*
D11*
X134720000Y-70900000D03*
D13*
%TO.P,U1,4,GPIO2*%
%TO.N,unconnected-(U1-GPIO2-Pad4)*%
X133820000Y-68360000D03*
D11*
X134720000Y-68360000D03*
D13*
%TO.P,U1,3,GND*%
%TO.N,GND*%
X133820000Y-65820000D03*
D10*
X134720000Y-65820000D03*
D13*
%TO.P,U1,2,GPIO1*%
%TO.N,unconnected-(U1-GPIO1-Pad2)*%
X133820000Y-63280000D03*
D11*
X134720000Y-63280000D03*
D13*
%TO.P,U1,1,GPIO0*%
%TO.N,unconnected-(U1-GPIO0-Pad1)*%
X133820000Y-60740000D03*
D11*
X134720000Y-60740000D03*
%TD*%
D14*
%TO.P,Q2,1,C*%
%TO.N,Net-(J3-LED_OUT_+)*%
X155230000Y-115500000D03*
D15*
%TO.P,Q2,2,B*%
%TO.N,Net-(Q2-B)*%
X156500000Y-115500000D03*
%TO.P,Q2,3,E*%
%TO.N,+5V*%
X157770000Y-115500000D03*
%TD*%
D14*
%TO.P,Q1,1,C*%
%TO.N,Net-(Q1-C)*%
X129960000Y-115500000D03*
D15*
%TO.P,Q1,2,B*%
%TO.N,Net-(J3-LED_IN_+)*%
X131230000Y-115500000D03*
%TO.P,Q1,3,E*%
%TO.N,+3V3*%
X132500000Y-115500000D03*
%TD*%
D16*
%TO.P,D1,1,K*%
%TO.N,Net-(D1-K)*%
X162000000Y-105190000D03*
D17*
%TO.P,D1,2,A*%
%TO.N,Net-(D1-A)*%
X162000000Y-109000000D03*
%TD*%
D18*
%TO.N,Net-(U1-GPIO15)*%
X147460000Y-116540000D02*
X146285000Y-115365000D01*
X146285000Y-115365000D02*
X139543299Y-115365000D01*
X139543299Y-115365000D02*
X138500000Y-114321701D01*
X138500000Y-114321701D02*
X138500000Y-112780000D01*
X138500000Y-112780000D02*
X134720000Y-109000000D01*
%TO.N,Net-(Q1-C)*%
X129960000Y-115500000D02*
X129960000Y-107070000D01*
X129960000Y-107070000D02*
X131745000Y-105285000D01*
X131745000Y-105285000D02*
X146055000Y-105285000D01*
X146055000Y-105285000D02*
X152500000Y-98840000D01*
%TO.N,Net-(U1-GPIO14)*%
X134720000Y-106460000D02*
X139840000Y-111580000D01*
X139840000Y-111580000D02*
X139840000Y-114000000D01*
%TO.N,Net-(J2-TX)*%
X127475000Y-73445000D02*
X134715000Y-73445000D01*
X134715000Y-73445000D02*
X134720000Y-73440000D01*
%TO.N,Net-(J2-RX)*%
X134720000Y-75980000D02*
X134715000Y-75985000D01*
X134715000Y-75985000D02*
X127475000Y-75985000D01*
%TO.N,Net-(J2-GND)*%
X134720000Y-78520000D02*
X134715000Y-78525000D01*
X134715000Y-78525000D02*
X127475000Y-78525000D01*
%TO.N,Net-(D1-K)*%
X162000000Y-105190000D02*
X160150000Y-105190000D01*
X160150000Y-105190000D02*
X156340000Y-109000000D01*
X156340000Y-109000000D02*
X152500000Y-109000000D01*
%TO.N,Net-(D1-A)*%
X150000000Y-116540000D02*
X157540000Y-109000000D01*
X157540000Y-109000000D02*
X162000000Y-109000000D01*
%TO.N,Net-(J3-LED_IN_+)*%
X131230000Y-115500000D02*
X131230000Y-115725000D01*
X131230000Y-115725000D02*
X133220000Y-117715000D01*
X133220000Y-117715000D02*
X143745000Y-117715000D01*
X143745000Y-117715000D02*
X144920000Y-116540000D01*
%TD*%
%TA.AperFunction,Conductor*%
%TO.N,GND*%
G36*
X131488833Y-106528269D02*
G01*
X131544767Y-106570141D01*
X131569184Y-106635605D01*
X131569500Y-106644451D01*
X131569500Y-107357870D01*
X131569501Y-107357876D01*
X131575908Y-107417483D01*
X131626202Y-107552328D01*
X131626203Y-107552330D01*
X131703578Y-107655689D01*
X131727995Y-107721153D01*
X131713144Y-107789426D01*
X131703578Y-107804311D01*
X131626203Y-107907669D01*
X131626202Y-107907671D01*
X131575908Y-108042517D01*
X131569501Y-108102116D01*
X131569501Y-108102123D01*
X131569500Y-108102135D01*
X131569500Y-109897870D01*
X131569501Y-109897876D01*
X131575908Y-109957483D01*
X131626202Y-110092328D01*
X131626206Y-110092335D01*
X131712452Y-110207544D01*
X131712455Y-110207547D01*
X131827664Y-110293793D01*
X131827671Y-110293797D01*
X131962517Y-110344091D01*
X131962516Y-110344091D01*
X131969444Y-110344835D01*
X132022127Y-110350500D01*
X134655611Y-110350499D01*
X134666419Y-110350971D01*
X134719999Y-110355659D01*
X134720000Y-110355659D01*
X134720001Y-110355659D01*
X134773580Y-110350971D01*
X134784388Y-110350499D01*
X135134546Y-110350499D01*
X135201585Y-110370184D01*
X135222227Y-110386818D01*
X136529527Y-111694118D01*
X137273729Y-112438319D01*
X137307214Y-112499642D01*
X137302230Y-112569334D01*
X137260358Y-112625267D01*
X137194894Y-112649684D01*
X137186048Y-112650000D01*
X136402155Y-112650000D01*
X136342627Y-112656401D01*
X136342620Y-112656403D01*
X136207913Y-112706645D01*
X136207906Y-112706649D01*
X136092812Y-112792809D01*
X136092809Y-112792812D01*
X136006649Y-112907906D01*
X136006645Y-112907913D01*
X135956403Y-113042620D01*
X135956401Y-113042627D01*
X135950000Y-113102155D01*
X135950000Y-113750000D01*
X136866314Y-113750000D01*
X136840507Y-113790156D01*
X136800000Y-113928111D01*
X136800000Y-114071889D01*
X136840507Y-114209844D01*
X136866314Y-114250000D01*
X135950000Y-114250000D01*
X135950000Y-114897844D01*
X135956401Y-114957372D01*
X135956403Y-114957379D01*
X136006645Y-115092086D01*
X136006649Y-115092093D01*
X136092809Y-115207187D01*
X136092812Y-115207190D01*
X136207906Y-115293350D01*
X136207913Y-115293354D01*
X136339470Y-115342421D01*
X136395403Y-115384292D01*
X136419821Y-115449756D01*
X136404970Y-115518029D01*
X136383819Y-115546284D01*
X136261503Y-115668600D01*
X136125965Y-115862169D01*
X136125964Y-115862171D01*
X136026098Y-116076335D01*
X136026094Y-116076344D01*
X135964938Y-116304586D01*
X135964936Y-116304596D01*
X135944341Y-116539999D01*
X135944341Y-116540000D01*
X135964936Y-116775403D01*
X135964938Y-116775413D01*
X136007272Y-116933407D01*
X136005609Y-117003257D01*
X135966446Y-117061119D01*
X135902218Y-117088623D01*
X135887497Y-117089500D01*
X133530452Y-117089500D01*
X133463413Y-117069815D01*
X133442771Y-117053181D01*
X133113703Y-116724112D01*
X133080218Y-116662789D01*
X133085202Y-116593097D01*
X133122717Y-116540581D01*
X133228647Y-116453647D01*
X133356798Y-116297494D01*
X133413933Y-116190602D01*
X133452021Y-116119345D01*
X133452021Y-116119344D01*
X133452023Y-116119341D01*
X133510662Y-115926033D01*
X133525500Y-115775380D01*
X133525500Y-115224620D01*
X133510662Y-115073967D01*
X133452023Y-114880659D01*
X133452021Y-114880656D01*
X133452021Y-114880654D01*
X133356801Y-114702511D01*
X133356799Y-114702509D01*
X133356798Y-114702506D01*
X133317824Y-114655016D01*
X133228647Y-114546352D01*
X133075132Y-114420367D01*
X133072494Y-114418202D01*
X133072492Y-114418201D01*
X133072488Y-114418198D01*
X132894345Y-114322978D01*
X132701031Y-114264337D01*
X132500000Y-114244538D01*
X132298968Y-114264337D01*
X132105654Y-114322978D01*
X131923453Y-114420367D01*
X131855050Y-114434609D01*
X131806547Y-114420367D01*
X131624345Y-114322978D01*
X131431031Y-114264337D01*
X131230000Y-114244538D01*
X131028968Y-114264337D01*
X130890959Y-114306202D01*
X130835659Y-114322977D01*
X130835658Y-114322977D01*
X130834575Y-114323306D01*
X130764708Y-114323929D01*
X130735618Y-114309529D01*
X130735114Y-114310454D01*
X130727328Y-114306202D01*
X130666167Y-114283391D01*
X130610233Y-114241520D01*
X130585816Y-114176056D01*
X130585500Y-114167209D01*
X130585500Y-107380452D01*
X130605185Y-107313413D01*
X130621819Y-107292771D01*
X130988682Y-106925908D01*
X131357821Y-106556768D01*
X131419142Y-106523285D01*
X131488833Y-106528269D01*
G37*
%TD.AperFunction*%
%TA.AperFunction,Conductor*%
G36*
X141920507Y-116330156D02*
G01*
X141880000Y-116468111D01*
X141880000Y-116611889D01*
X141920507Y-116749844D01*
X141946314Y-116790000D01*
X140273686Y-116790000D01*
X140299493Y-116749844D01*
X140340000Y-116611889D01*
X140340000Y-116468111D01*
X140299493Y-116330156D01*
X140273686Y-116290000D01*
X141946314Y-116290000D01*
X141920507Y-116330156D01*
G37*
%TD.AperFunction*%
%TA.AperFunction,Conductor*%
G36*
X147000507Y-113790156D02*
G01*
X146960000Y-113928111D01*
X146960000Y-114071889D01*
X147000507Y-114209844D01*
X147026314Y-114250000D01*
X145353686Y-114250000D01*
X145379493Y-114209844D01*
X145420000Y-114071889D01*
X145420000Y-113928111D01*
X145379493Y-113790156D01*
X145353686Y-113750000D01*
X147026314Y-113750000D01*
X147000507Y-113790156D01*
G37*
%TD.AperFunction*%
%TA.AperFunction,Conductor*%
G36*
X149540507Y-113790156D02*
G01*
X149500000Y-113928111D01*
X149500000Y-114071889D01*
X149540507Y-114209844D01*
X149566314Y-114250000D01*
X147893686Y-114250000D01*
X147919493Y-114209844D01*
X147960000Y-114071889D01*
X147960000Y-113928111D01*
X147919493Y-113790156D01*
X147893686Y-113750000D01*
X149566314Y-113750000D01*
X149540507Y-113790156D01*
G37*
%TD.AperFunction*%
%TA.AperFunction,Conductor*%
G36*
X151063675Y-101263428D02*
G01*
X151119608Y-101305300D01*
X151144025Y-101370764D01*
X151144341Y-101379610D01*
X151144341Y-101380002D01*
X151149028Y-101433576D01*
X151149500Y-101444383D01*
X151149500Y-102277870D01*
X151149501Y-102277876D01*
X151155908Y-102337483D01*
X151206202Y-102472328D01*
X151206206Y-102472335D01*
X151283889Y-102576105D01*
X151308307Y-102641569D01*
X151293456Y-102709842D01*
X151283890Y-102724727D01*
X151206647Y-102827910D01*
X151206645Y-102827913D01*
X151156403Y-102962620D01*
X151156401Y-102962627D01*
X151150000Y-103022155D01*
X151150000Y-103670000D01*
X152054428Y-103670000D01*
X152031318Y-103705960D01*
X151990000Y-103846673D01*
X151990000Y-103993327D01*
X152031318Y-104134040D01*
X152054428Y-104170000D01*
X151150000Y-104170000D01*
X151150000Y-104817844D01*
X151156401Y-104877372D01*
X151156403Y-104877379D01*
X151206645Y-105012086D01*
X151206646Y-105012088D01*
X151283890Y-105115272D01*
X151308307Y-105180736D01*
X151293456Y-105249009D01*
X151283890Y-105263894D01*
X151206204Y-105367669D01*
X151206202Y-105367671D01*
X151155908Y-105502517D01*
X151149501Y-105562116D01*
X151149501Y-105562123D01*
X151149500Y-105562135D01*
X151149500Y-106395616D01*
X151149028Y-106406423D01*
X151144341Y-106459997D01*
X151144341Y-106460002D01*
X151149028Y-106513576D01*
X151149500Y-106524383D01*
X151149500Y-107357870D01*
X151149501Y-107357876D01*
X151155908Y-107417483D01*
X151206202Y-107552328D01*
X151206203Y-107552330D01*
X151283578Y-107655689D01*
X151307995Y-107721153D01*
X151293144Y-107789426D01*
X151283578Y-107804311D01*
X151206203Y-107907669D01*
X151206202Y-107907671D01*
X151155908Y-108042517D01*
X151149501Y-108102116D01*
X151149501Y-108102123D01*
X151149500Y-108102135D01*
X151149500Y-108935616D01*
X151149028Y-108946423D01*
X151144341Y-108999997D01*
X151144341Y-109000002D01*
X151149028Y-109053576D01*
X151149500Y-109064383D01*
X151149500Y-109897870D01*
X151149501Y-109897876D01*
X151155908Y-109957483D01*
X151206202Y-110092328D01*
X151206206Y-110092335D01*
X151292452Y-110207544D01*
X151292455Y-110207547D01*
X151407664Y-110293793D01*
X151407671Y-110293797D01*
X151542517Y-110344091D01*
X151542516Y-110344091D01*
X151549444Y-110344835D01*
X151602127Y-110350500D01*
X152435616Y-110350499D01*
X152446425Y-110350971D01*
X152500000Y-110355659D01*
X152553575Y-110350971D01*
X152564384Y-110350499D01*
X155005547Y-110350499D01*
X155072586Y-110370184D01*
X155118341Y-110422988D01*
X155128285Y-110492146D01*
X155099260Y-110555702D01*
X155093228Y-110562180D01*
X151441726Y-114213681D01*
X151380403Y-114247166D01*
X151354045Y-114250000D01*
X150433686Y-114250000D01*
X150459493Y-114209844D01*
X150500000Y-114071889D01*
X150500000Y-113928111D01*
X150459493Y-113790156D01*
X150433686Y-113750000D01*
X151330636Y-113750000D01*
X151330635Y-113749999D01*
X151273432Y-113536513D01*
X151273429Y-113536507D01*
X151173600Y-113322422D01*
X151173599Y-113322420D01*
X151038113Y-113128926D01*
X151038108Y-113128920D01*
X150871082Y-112961894D01*
X150677578Y-112826399D01*
X150463492Y-112726570D01*
X150463486Y-112726567D01*
X150250000Y-112669364D01*
X150250000Y-113564498D01*
X150142315Y-113515320D01*
X150035763Y-113500000D01*
X149964237Y-113500000D01*
X149857685Y-113515320D01*
X149750000Y-113564498D01*
X149750000Y-112669364D01*
X149749999Y-112669364D01*
X149536513Y-112726567D01*
X149536507Y-112726570D01*
X149322422Y-112826399D01*
X149322420Y-112826400D01*
X149128926Y-112961886D01*
X149128920Y-112961891D01*
X148961891Y-113128920D01*
X148961890Y-113128922D01*
X148831575Y-113315031D01*
X148776998Y-113358655D01*
X148707499Y-113365848D01*
X148645145Y-113334326D01*
X148628425Y-113315031D01*
X148498109Y-113128922D01*
X148498108Y-113128920D01*
X148331082Y-112961894D01*
X148137578Y-112826399D01*
X147923492Y-112726570D01*
X147923486Y-112726567D01*
X147710000Y-112669364D01*
X147710000Y-113564498D01*
X147602315Y-113515320D01*
X147495763Y-113500000D01*
X147424237Y-113500000D01*
X147317685Y-113515320D01*
X147210000Y-113564498D01*
X147210000Y-112669364D01*
X147209999Y-112669364D01*
X146996513Y-112726567D01*
X146996507Y-112726570D01*
X146782422Y-112826399D01*
X146782420Y-112826400D01*
X146588926Y-112961886D01*
X146588920Y-112961891D01*
X146421891Y-113128920D01*
X146421890Y-113128922D01*
X146291575Y-113315031D01*
X146236998Y-113358655D01*
X146167499Y-113365848D01*
X146105145Y-113334326D01*
X146088425Y-113315031D01*
X145958109Y-113128922D01*
X145958108Y-113128920D01*
X145791082Y-112961894D01*
X145597578Y-112826399D01*
X145383492Y-112726570D01*
X145383486Y-112726567D01*
X145170000Y-112669364D01*
X145170000Y-113564498D01*
X145062315Y-113515320D01*
X144955763Y-113500000D01*
X144884237Y-113500000D01*
X144777685Y-113515320D01*
X144670000Y-113564498D01*
X144670000Y-112669364D01*
X144669999Y-112669364D01*
X144456513Y-112726567D01*
X144456507Y-112726570D01*
X144242422Y-112826399D01*
X144242420Y-112826400D01*
X144048926Y-112961886D01*
X144048920Y-112961891D01*
X143881891Y-113128920D01*
X143881890Y-113128922D01*
X143751880Y-113314595D01*
X143697303Y-113358219D01*
X143627804Y-113365412D01*
X143565450Y-113333890D01*
X143548730Y-113314594D01*
X143418494Y-113128597D01*
X143251402Y-112961506D01*
X143251395Y-112961501D01*
X143057834Y-112825967D01*
X143057830Y-112825965D01*
X142986727Y-112792809D01*
X142843663Y-112726097D01*
X142843659Y-112726096D01*
X142843655Y-112726094D01*
X142615413Y-112664938D01*
X142615403Y-112664936D01*
X142380001Y-112644341D01*
X142379999Y-112644341D01*
X142144596Y-112664936D01*
X142144586Y-112664938D01*
X141916344Y-112726094D01*
X141916335Y-112726098D01*
X141702171Y-112825964D01*
X141702169Y-112825965D01*
X141508597Y-112961505D01*
X141341505Y-113128597D01*
X141211575Y-113314158D01*
X141156998Y-113357783D01*
X141087500Y-113364977D01*
X141025145Y-113333454D01*
X141008425Y-113314158D01*
X140878494Y-113128597D01*
X140711402Y-112961506D01*
X140711401Y-112961505D01*
X140536920Y-112839332D01*
X140518376Y-112826347D01*
X140474751Y-112771770D01*
X140465500Y-112724772D01*
X140465500Y-112044499D01*
X140485185Y-111977460D01*
X140537989Y-111931705D01*
X140589500Y-111920499D01*
X141967871Y-111920499D01*
X141967872Y-111920499D01*
X142027483Y-111914091D01*
X142162331Y-111863796D01*
X142265690Y-111786421D01*
X142331152Y-111762004D01*
X142399425Y-111776855D01*
X142414303Y-111786416D01*
X142517665Y-111863793D01*
X142517668Y-111863795D01*
X142517671Y-111863797D01*
X142652517Y-111914091D01*
X142652516Y-111914091D01*
X142659444Y-111914835D01*
X142712127Y-111920500D01*
X144507872Y-111920499D01*
X144567483Y-111914091D01*
X144702331Y-111863796D01*
X144805690Y-111786421D01*
X144871152Y-111762004D01*
X144939425Y-111776855D01*
X144954303Y-111786416D01*
X145057665Y-111863793D01*
X145057668Y-111863795D01*
X145057671Y-111863797D01*
X145192517Y-111914091D01*
X145192516Y-111914091D01*
X145199444Y-111914835D01*
X145252127Y-111920500D01*
X147047872Y-111920499D01*
X147107483Y-111914091D01*
X147242331Y-111863796D01*
X147357546Y-111777546D01*
X147443796Y-111662331D01*
X147494091Y-111527483D01*
X147500500Y-111467873D01*
X147500499Y-108834381D01*
X147500971Y-108823578D01*
X147505659Y-108770000D01*
X147505659Y-108769999D01*
X147500971Y-108716418D01*
X147500499Y-108705610D01*
X147500499Y-107872129D01*
X147500498Y-107872123D01*
X147500497Y-107872116D01*
X147494091Y-107812517D01*
X147491030Y-107804311D01*
X147443797Y-107677671D01*
X147443793Y-107677664D01*
X147357547Y-107562455D01*
X147357544Y-107562452D01*
X147242335Y-107476206D01*
X147242328Y-107476202D01*
X147107482Y-107425908D01*
X147107483Y-107425908D01*
X147047883Y-107419501D01*
X147047881Y-107419500D01*
X147047873Y-107419500D01*
X147047865Y-107419500D01*
X146214383Y-107419500D01*
X146203576Y-107419028D01*
X146150002Y-107414341D01*
X146149999Y-107414341D01*
X146114865Y-107417414D01*
X146096421Y-107419028D01*
X146085616Y-107419500D01*
X145252129Y-107419500D01*
X145252123Y-107419501D01*
X145192516Y-107425908D01*
X145057671Y-107476202D01*
X145057669Y-107476203D01*
X144954311Y-107553578D01*
X144888847Y-107577995D01*
X144820574Y-107563144D01*
X144805689Y-107553578D01*
X144702330Y-107476203D01*
X144702328Y-107476202D01*
X144567482Y-107425908D01*
X144567483Y-107425908D01*
X144507883Y-107419501D01*
X144507881Y-107419500D01*
X144507873Y-107419500D01*
X144507864Y-107419500D01*
X142712129Y-107419500D01*
X142712123Y-107419501D01*
X142652516Y-107425908D01*
X142517671Y-107476202D01*
X142517669Y-107476203D01*
X142414311Y-107553578D01*
X142348847Y-107577995D01*
X142280574Y-107563144D01*
X142265689Y-107553578D01*
X142162330Y-107476203D01*
X142162328Y-107476202D01*
X142027482Y-107425908D01*
X142027483Y-107425908D01*
X141967883Y-107419501D01*
X141967881Y-107419500D01*
X141967873Y-107419500D01*
X141967865Y-107419500D01*
X141134383Y-107419500D01*
X141123576Y-107419028D01*
X141070002Y-107414341D01*
X141069999Y-107414341D01*
X141034865Y-107417414D01*
X141016421Y-107419028D01*
X141005616Y-107419500D01*
X140172129Y-107419500D01*
X140172123Y-107419501D01*
X140112516Y-107425908D01*
X139977671Y-107476202D01*
X139977664Y-107476206D01*
X139862455Y-107562452D01*
X139862452Y-107562455D01*
X139776206Y-107677664D01*
X139776202Y-107677671D01*
X139725908Y-107812517D01*
X139719501Y-107872116D01*
X139719501Y-107872123D01*
X139719500Y-107872135D01*
X139719500Y-108705618D01*
X139719028Y-108716425D01*
X139714341Y-108769997D01*
X139714341Y-108770001D01*
X139719028Y-108823574D01*
X139719500Y-108834381D01*
X139719500Y-110275547D01*
X139699815Y-110342586D01*
X139647011Y-110388341D01*
X139577853Y-110398285D01*
X139514297Y-110369260D01*
X139507819Y-110363228D01*
X136106818Y-106962227D01*
X136073333Y-106900904D01*
X136070499Y-106874546D01*
X136070499Y-106524385D01*
X136070971Y-106513576D01*
X136071436Y-106508268D01*
X136075659Y-106460000D01*
X136070971Y-106406421D01*
X136070499Y-106395613D01*
X136070499Y-106034500D01*
X136090184Y-105967461D01*
X136142988Y-105921706D01*
X136194499Y-105910500D01*
X145972257Y-105910500D01*
X145987877Y-105912224D01*
X145987904Y-105911939D01*
X145995660Y-105912671D01*
X145995667Y-105912673D01*
X146062873Y-105910561D01*
X146066768Y-105910500D01*
X146094346Y-105910500D01*
X146094350Y-105910500D01*
X146098324Y-105909997D01*
X146109963Y-105909080D01*
X146153627Y-105907709D01*
X146172869Y-105902117D01*
X146191912Y-105898174D01*
X146211792Y-105895664D01*
X146252401Y-105879585D01*
X146263444Y-105875803D01*
X146305390Y-105863618D01*
X146322629Y-105853422D01*
X146340103Y-105844862D01*
X146358727Y-105837488D01*
X146358727Y-105837487D01*
X146358732Y-105837486D01*
X146394083Y-105811800D01*
X146403814Y-105805408D01*
X146441420Y-105783170D01*
X146455589Y-105768999D01*
X146470379Y-105756368D01*
X146486587Y-105744594D01*
X146514438Y-105710926D01*
X146522279Y-105702309D01*
X150932662Y-101291927D01*
X150993983Y-101258444D01*
X151063675Y-101263428D01*
G37*
%TD.AperFunction*%
%TA.AperFunction,Conductor*%
G36*
X165443039Y-59019685D02*
G01*
X165488794Y-59072489D01*
X165500000Y-59124000D01*
X165500000Y-123876000D01*
X165480315Y-123943039D01*
X165427511Y-123988794D01*
X165376000Y-124000000D01*
X125124000Y-124000000D01*
X125056961Y-123980315D01*
X125011206Y-123927511D01*
X125000000Y-123876000D01*
X125000000Y-75985000D01*
X126119341Y-75985000D01*
X126139936Y-76220403D01*
X126139938Y-76220413D01*
X126201094Y-76448655D01*
X126201096Y-76448659D01*
X126201097Y-76448663D01*
X126276563Y-76610500D01*
X126300965Y-76662830D01*
X126300967Y-76662834D01*
X126409281Y-76817521D01*
X126436501Y-76856396D01*
X126436506Y-76856402D01*
X126558430Y-76978326D01*
X126591915Y-77039649D01*
X126586931Y-77109341D01*
X126545059Y-77165274D01*
X126514083Y-77182189D01*
X126382669Y-77231203D01*
X126382664Y-77231206D01*
X126267455Y-77317452D01*
X126267452Y-77317455D01*
X126181206Y-77432664D01*
X126181202Y-77432671D01*
X126130908Y-77567517D01*
X126124501Y-77627116D01*
X126124501Y-77627123D01*
X126124500Y-77627135D01*
X126124500Y-79422870D01*
X126124501Y-79422876D01*
X126130908Y-79482483D01*
X126181202Y-79617328D01*
X126181206Y-79617335D01*
X126267452Y-79732544D01*
X126267455Y-79732547D01*
X126382664Y-79818793D01*
X126382671Y-79818797D01*
X126517517Y-79869091D01*
X126517516Y-79869091D01*
X126524444Y-79869835D01*
X126577127Y-79875500D01*
X128372872Y-79875499D01*
X128432483Y-79869091D01*
X128567331Y-79818796D01*
X128682546Y-79732546D01*
X128768796Y-79617331D01*
X128819091Y-79482483D01*
X128825500Y-79422873D01*
X128825500Y-79274500D01*
X128845185Y-79207461D01*
X128897989Y-79161706D01*
X128949500Y-79150500D01*
X131445501Y-79150500D01*
X131512540Y-79170185D01*
X131558295Y-79222989D01*
X131569501Y-79274500D01*
X131569501Y-79417876D01*
X131575908Y-79477483D01*
X131626202Y-79612328D01*
X131626203Y-79612330D01*
X131703578Y-79715689D01*
X131727995Y-79781153D01*
X131713144Y-79849426D01*
X131703578Y-79864311D01*
X131626203Y-79967669D01*
X131626202Y-79967671D01*
X131575908Y-80102517D01*
X131569501Y-80162116D01*
X131569501Y-80162123D01*
X131569500Y-80162135D01*
X131569500Y-81957870D01*
X131569501Y-81957876D01*
X131575908Y-82017483D01*
X131626202Y-82152328D01*
X131626203Y-82152330D01*
X131703578Y-82255689D01*
X131727995Y-82321153D01*
X131713144Y-82389426D01*
X131703578Y-82404311D01*
X131626203Y-82507669D01*
X131626202Y-82507671D01*
X131575908Y-82642517D01*
X131569501Y-82702116D01*
X131569501Y-82702123D01*
X131569500Y-82702135D01*
X131569500Y-84497870D01*
X131569501Y-84497876D01*
X131575908Y-84557483D01*
X131626202Y-84692328D01*
X131626203Y-84692330D01*
X131703578Y-84795689D01*
X131727995Y-84861153D01*
X131713144Y-84929426D01*
X131703578Y-84944311D01*
X131626203Y-85047669D01*
X131626202Y-85047671D01*
X131575908Y-85182517D01*
X131569501Y-85242116D01*
X131569501Y-85242123D01*
X131569500Y-85242135D01*
X131569500Y-87037870D01*
X131569501Y-87037876D01*
X131575908Y-87097483D01*
X131626202Y-87232328D01*
X131626203Y-87232330D01*
X131703578Y-87335689D01*
X131727995Y-87401153D01*
X131713144Y-87469426D01*
X131703578Y-87484311D01*
X131626203Y-87587669D01*
X131626202Y-87587671D01*
X131575908Y-87722517D01*
X131569501Y-87782116D01*
X131569501Y-87782123D01*
X131569500Y-87782135D01*
X131569500Y-89577870D01*
X131569501Y-89577876D01*
X131575908Y-89637483D01*
X131626202Y-89772328D01*
X131626206Y-89772335D01*
X131703889Y-89876105D01*
X131728307Y-89941569D01*
X131713456Y-90009842D01*
X131703890Y-90024727D01*
X131626647Y-90127910D01*
X131626645Y-90127913D01*
X131576403Y-90262620D01*
X131576401Y-90262627D01*
X131570000Y-90322155D01*
X131570000Y-90970000D01*
X134274428Y-90970000D01*
X134251318Y-91005960D01*
X134210000Y-91146673D01*
X134210000Y-91293327D01*
X134251318Y-91434040D01*
X134274428Y-91470000D01*
X131570000Y-91470000D01*
X131570000Y-92117844D01*
X131576401Y-92177372D01*
X131576403Y-92177379D01*
X131626645Y-92312086D01*
X131626646Y-92312088D01*
X131703890Y-92415272D01*
X131728307Y-92480736D01*
X131713456Y-92549009D01*
X131703890Y-92563894D01*
X131626204Y-92667669D01*
X131626202Y-92667671D01*
X131575908Y-92802517D01*
X131569501Y-92862116D01*
X131569501Y-92862123D01*
X131569500Y-92862135D01*
X131569500Y-94657870D01*
X131569501Y-94657876D01*
X131575908Y-94717483D01*
X131626202Y-94852328D01*
X131626203Y-94852330D01*
X131703578Y-94955689D01*
X131727995Y-95021153D01*
X131713144Y-95089426D01*
X131703578Y-95104311D01*
X131626203Y-95207669D01*
X131626202Y-95207671D01*
X131575908Y-95342517D01*
X131569501Y-95402116D01*
X131569501Y-95402123D01*
X131569500Y-95402135D01*
X131569500Y-97197870D01*
X131569501Y-97197876D01*
X131575908Y-97257483D01*
X131626202Y-97392328D01*
X131626203Y-97392330D01*
X131703578Y-97495689D01*
X131727995Y-97561153D01*
X131713144Y-97629426D01*
X131703578Y-97644311D01*
X131626203Y-97747669D01*
X131626202Y-97747671D01*
X131575908Y-97882517D01*
X131569501Y-97942116D01*
X131569501Y-97942123D01*
X131569500Y-97942135D01*
X131569500Y-99737870D01*
X131569501Y-99737876D01*
X131575908Y-99797483D01*
X131626202Y-99932328D01*
X131626203Y-99932330D01*
X131703578Y-100035689D01*
X131727995Y-100101153D01*
X131713144Y-100169426D01*
X131703578Y-100184311D01*
X131626203Y-100287669D01*
X131626202Y-100287671D01*
X131575908Y-100422517D01*
X131569501Y-100482116D01*
X131569501Y-100482123D01*
X131569500Y-100482135D01*
X131569500Y-102277870D01*
X131569501Y-102277876D01*
X131575908Y-102337483D01*
X131626202Y-102472328D01*
X131626206Y-102472335D01*
X131703889Y-102576105D01*
X131728307Y-102641569D01*
X131713456Y-102709842D01*
X131703890Y-102724727D01*
X131626647Y-102827910D01*
X131626645Y-102827913D01*
X131576403Y-102962620D01*
X131576401Y-102962627D01*
X131570000Y-103022155D01*
X131570000Y-103670000D01*
X134274428Y-103670000D01*
X134251318Y-103705960D01*
X134210000Y-103846673D01*
X134210000Y-103993327D01*
X134251318Y-104134040D01*
X134274428Y-104170000D01*
X131570000Y-104170000D01*
X131570000Y-104592305D01*
X131550315Y-104659344D01*
X131501082Y-104702004D01*
X131501323Y-104702412D01*
X131499083Y-104703736D01*
X131497511Y-104705099D01*
X131495251Y-104706105D01*
X131494606Y-104706383D01*
X131477367Y-104716579D01*
X131459899Y-104725137D01*
X131441269Y-104732513D01*
X131441266Y-104732515D01*
X131405939Y-104758181D01*
X131396180Y-104764592D01*
X131358579Y-104786830D01*
X131344408Y-104801000D01*
X131329623Y-104813628D01*
X131313412Y-104825407D01*
X131285571Y-104859059D01*
X131277711Y-104867696D01*
X129576208Y-106569199D01*
X129563951Y-106579020D01*
X129564134Y-106579241D01*
X129558122Y-106584214D01*
X129512098Y-106633223D01*
X129509391Y-106636016D01*
X129489889Y-106655517D01*
X129489875Y-106655534D01*
X129487407Y-106658715D01*
X129479843Y-106667570D01*
X129449937Y-106699418D01*
X129449936Y-106699420D01*
X129440284Y-106716976D01*
X129429610Y-106733226D01*
X129417329Y-106749061D01*
X129417324Y-106749068D01*
X129399975Y-106789158D01*
X129394838Y-106799644D01*
X129373803Y-106837906D01*
X129368822Y-106857307D01*
X129362521Y-106875710D01*
X129354562Y-106894102D01*
X129354561Y-106894105D01*
X129347728Y-106937243D01*
X129345360Y-106948674D01*
X129334501Y-106990971D01*
X129334500Y-106990982D01*
X129334500Y-107011016D01*
X129332973Y-107030413D01*
X129332669Y-107032335D01*
X129329840Y-107050194D01*
X129329840Y-107050195D01*
X129333950Y-107093674D01*
X129334500Y-107105343D01*
X129334500Y-114167209D01*
X129314815Y-114234248D01*
X129262011Y-114280003D01*
X129253833Y-114283391D01*
X129192671Y-114306202D01*
X129192664Y-114306206D01*
X129077455Y-114392452D01*
X129077452Y-114392455D01*
X128991206Y-114507664D01*
X128991202Y-114507671D01*
X128940908Y-114642517D01*
X128934501Y-114702116D01*
X128934500Y-114702135D01*
X128934500Y-116297870D01*
X128934501Y-116297876D01*
X128940908Y-116357483D01*
X128991202Y-116492328D01*
X128991206Y-116492335D01*
X129077452Y-116607544D01*
X129077455Y-116607547D01*
X129192664Y-116693793D01*
X129192671Y-116693797D01*
X129327517Y-116744091D01*
X129327516Y-116744091D01*
X129334444Y-116744835D01*
X129387127Y-116750500D01*
X130532872Y-116750499D01*
X130592483Y-116744091D01*
X130727331Y-116693796D01*
X130727335Y-116693792D01*
X130735118Y-116689544D01*
X130736252Y-116691621D01*
X130789715Y-116671671D01*
X130834576Y-116676694D01*
X130835656Y-116677021D01*
X130835659Y-116677023D01*
X131028967Y-116735662D01*
X131230000Y-116755462D01*
X131304428Y-116748131D01*
X131373072Y-116761149D01*
X131404262Y-116783853D01*
X132719197Y-118098788D01*
X132729022Y-118111051D01*
X132729243Y-118110869D01*
X132734211Y-118116874D01*
X132783222Y-118162899D01*
X132786021Y-118165612D01*
X132805522Y-118185114D01*
X132805526Y-118185117D01*
X132805529Y-118185120D01*
X132808702Y-118187581D01*
X132817574Y-118195159D01*
X132849418Y-118225062D01*
X132866976Y-118234714D01*
X132883233Y-118245393D01*
X132899064Y-118257673D01*
X132928803Y-118270542D01*
X132939152Y-118275021D01*
X132949641Y-118280160D01*
X132973457Y-118293252D01*
X132987908Y-118301197D01*
X133000523Y-118304435D01*
X133007305Y-118306177D01*
X133025719Y-118312481D01*
X133044104Y-118320438D01*
X133087261Y-118327273D01*
X133098656Y-118329632D01*
X133140981Y-118340500D01*
X133161016Y-118340500D01*
X133180413Y-118342026D01*
X133200196Y-118345160D01*
X133243675Y-118341050D01*
X133255344Y-118340500D01*
X143662257Y-118340500D01*
X143677877Y-118342224D01*
X143677904Y-118341939D01*
X143685660Y-118342671D01*
X143685667Y-118342673D01*
X143752873Y-118340561D01*
X143756768Y-118340500D01*
X143784346Y-118340500D01*
X143784350Y-118340500D01*
X143788324Y-118339997D01*
X143799963Y-118339080D01*
X143843627Y-118337709D01*
X143862869Y-118332117D01*
X143881912Y-118328174D01*
X143901792Y-118325664D01*
X143942401Y-118309585D01*
X143953444Y-118305803D01*
X143995390Y-118293618D01*
X144012629Y-118283422D01*
X144030103Y-118274862D01*
X144048727Y-118267488D01*
X144048727Y-118267487D01*
X144048732Y-118267486D01*
X144084083Y-118241800D01*
X144093814Y-118235408D01*
X144131420Y-118213170D01*
X144145589Y-118198999D01*
X144160379Y-118186368D01*
X144176587Y-118174594D01*
X144204438Y-118140926D01*
X144212279Y-118132309D01*
X144464353Y-117880235D01*
X144525674Y-117846752D01*
X144584125Y-117848143D01*
X144618780Y-117857428D01*
X144684592Y-117875063D01*
X144872918Y-117891539D01*
X144919999Y-117895659D01*
X144920000Y-117895659D01*
X144920001Y-117895659D01*
X144959234Y-117892226D01*
X145155408Y-117875063D01*
X145383663Y-117813903D01*
X145597830Y-117714035D01*
X145791401Y-117578495D01*
X145958495Y-117411401D01*
X146088425Y-117225842D01*
X146143002Y-117182217D01*
X146212500Y-117175023D01*
X146274855Y-117206546D01*
X146291575Y-117225842D01*
X146421500Y-117411395D01*
X146421505Y-117411401D01*
X146588599Y-117578495D01*
X146685384Y-117646265D01*
X146782165Y-117714032D01*
X146782167Y-117714033D01*
X146782170Y-117714035D01*
X146996337Y-117813903D01*
X147224592Y-117875063D01*
X147412918Y-117891539D01*
X147459999Y-117895659D01*
X147460000Y-117895659D01*
X147460001Y-117895659D01*
X147499234Y-117892226D01*
X147695408Y-117875063D01*
X147923663Y-117813903D01*
X148137830Y-117714035D01*
X148331401Y-117578495D01*
X148498495Y-117411401D01*
X148628425Y-117225842D01*
X148683002Y-117182217D01*
X148752500Y-117175023D01*
X148814855Y-117206546D01*
X148831575Y-117225842D01*
X148961500Y-117411395D01*
X148961505Y-117411401D01*
X149128599Y-117578495D01*
X149225384Y-117646265D01*
X149322165Y-117714032D01*
X149322167Y-117714033D01*
X149322170Y-117714035D01*
X149536337Y-117813903D01*
X149764592Y-117875063D01*
X149952918Y-117891539D01*
X149999999Y-117895659D01*
X150000000Y-117895659D01*
X150000001Y-117895659D01*
X150039234Y-117892226D01*
X150235408Y-117875063D01*
X150463663Y-117813903D01*
X150677830Y-117714035D01*
X150871401Y-117578495D01*
X151038495Y-117411401D01*
X151174035Y-117217830D01*
X151273903Y-117003663D01*
X151335063Y-116775408D01*
X151355659Y-116540000D01*
X151335063Y-116304592D01*
X151333262Y-116297870D01*
X154204500Y-116297870D01*
X154204501Y-116297876D01*
X154210908Y-116357483D01*
X154261202Y-116492328D01*
X154261206Y-116492335D01*
X154347452Y-116607544D01*
X154347455Y-116607547D01*
X154462664Y-116693793D01*
X154462671Y-116693797D01*
X154597517Y-116744091D01*
X154597516Y-116744091D01*
X154604444Y-116744835D01*
X154657127Y-116750500D01*
X155802872Y-116750499D01*
X155862483Y-116744091D01*
X155997331Y-116693796D01*
X155997335Y-116693792D01*
X156005118Y-116689544D01*
X156006252Y-116691621D01*
X156059715Y-116671671D01*
X156104576Y-116676694D01*
X156105656Y-116677021D01*
X156105659Y-116677023D01*
X156298967Y-116735662D01*
X156500000Y-116755462D01*
X156701033Y-116735662D01*
X156894341Y-116677023D01*
X157072494Y-116581798D01*
X157072498Y-116581794D01*
X157076546Y-116579631D01*
X157144949Y-116565389D01*
X157193454Y-116579631D01*
X157197502Y-116581794D01*
X157197506Y-116581798D01*
X157375659Y-116677023D01*
X157568967Y-116735662D01*
X157770000Y-116755462D01*
X157971033Y-116735662D01*
X158164341Y-116677023D01*
X158342494Y-116581798D01*
X158498647Y-116453647D01*
X158626798Y-116297494D01*
X158683933Y-116190602D01*
X158722021Y-116119345D01*
X158722021Y-116119344D01*
X158722023Y-116119341D01*
X158780662Y-115926033D01*
X158795500Y-115775380D01*
X158795500Y-115224620D01*
X158780662Y-115073967D01*
X158722023Y-114880659D01*
X158722021Y-114880656D01*
X158722021Y-114880654D01*
X158626801Y-114702511D01*
X158626799Y-114702509D01*
X158626798Y-114702506D01*
X158587824Y-114655016D01*
X158498647Y-114546352D01*
X158345132Y-114420367D01*
X158342494Y-114418202D01*
X158342492Y-114418201D01*
X158342488Y-114418198D01*
X158164345Y-114322978D01*
X157971031Y-114264337D01*
X157770000Y-114244538D01*
X157568968Y-114264337D01*
X157375654Y-114322978D01*
X157193453Y-114420367D01*
X157125050Y-114434609D01*
X157076547Y-114420367D01*
X156894345Y-114322978D01*
X156701031Y-114264337D01*
X156500000Y-114244538D01*
X156298968Y-114264337D01*
X156160959Y-114306202D01*
X156105659Y-114322977D01*
X156105658Y-114322977D01*
X156104575Y-114323306D01*
X156034708Y-114323929D01*
X156005618Y-114309529D01*
X156005114Y-114310454D01*
X155997328Y-114306202D01*
X155862482Y-114255908D01*
X155862483Y-114255908D01*
X155802883Y-114249501D01*
X155802881Y-114249500D01*
X155802873Y-114249500D01*
X155802864Y-114249500D01*
X154657129Y-114249500D01*
X154657123Y-114249501D01*
X154597516Y-114255908D01*
X154462671Y-114306202D01*
X154462664Y-114306206D01*
X154347455Y-114392452D01*
X154347452Y-114392455D01*
X154261206Y-114507664D01*
X154261202Y-114507671D01*
X154210908Y-114642517D01*
X154204501Y-114702116D01*
X154204500Y-114702135D01*
X154204500Y-116297870D01*
X151333262Y-116297870D01*
X151308143Y-116204125D01*
X151309806Y-116134276D01*
X151340235Y-116084353D01*
X157762772Y-109661819D01*
X157824095Y-109628334D01*
X157850453Y-109625500D01*
X159905561Y-109625500D01*
X159972600Y-109645185D01*
X160018355Y-109697989D01*
X160022401Y-109707975D01*
X160068890Y-109838784D01*
X160068893Y-109838790D01*
X160068894Y-109838793D01*
X160068896Y-109838797D01*
X160143655Y-109983075D01*
X160201098Y-110093935D01*
X160366812Y-110328700D01*
X160431801Y-110398285D01*
X160562947Y-110538708D01*
X160785853Y-110720055D01*
X161031382Y-110869365D01*
X161218237Y-110950526D01*
X161294942Y-110983844D01*
X161571642Y-111061371D01*
X161821920Y-111095771D01*
X161856321Y-111100500D01*
X161856322Y-111100500D01*
X162143679Y-111100500D01*
X162174370Y-111096281D01*
X162428358Y-111061371D01*
X162705058Y-110983844D01*
X162818015Y-110934779D01*
X162968617Y-110869365D01*
X162968620Y-110869363D01*
X162968625Y-110869361D01*
X163214147Y-110720055D01*
X163437053Y-110538708D01*
X163633189Y-110328698D01*
X163798901Y-110093936D01*
X163931104Y-109838797D01*
X164027334Y-109568032D01*
X164085798Y-109286686D01*
X164105408Y-109000000D01*
X164085798Y-108713314D01*
X164027334Y-108431968D01*
X163931105Y-108161206D01*
X163931106Y-108161206D01*
X163798901Y-107906064D01*
X163633187Y-107671299D01*
X163472397Y-107499136D01*
X163441025Y-107436705D01*
X163448385Y-107367224D01*
X163492142Y-107312753D01*
X163558402Y-107290585D01*
X163563020Y-107290499D01*
X163647871Y-107290499D01*
X163647872Y-107290499D01*
X163707483Y-107284091D01*
X163842331Y-107233796D01*
X163957546Y-107147546D01*
X164043796Y-107032331D01*
X164094091Y-106897483D01*
X164100500Y-106837873D01*
X164100499Y-103542128D01*
X164094091Y-103482517D01*
X164072872Y-103425627D01*
X164043797Y-103347671D01*
X164043793Y-103347664D01*
X163957547Y-103232455D01*
X163957544Y-103232452D01*
X163842335Y-103146206D01*
X163842328Y-103146202D01*
X163707482Y-103095908D01*
X163707483Y-103095908D01*
X163647883Y-103089501D01*
X163647881Y-103089500D01*
X163647873Y-103089500D01*
X163647864Y-103089500D01*
X160352129Y-103089500D01*
X160352123Y-103089501D01*
X160292516Y-103095908D01*
X160157671Y-103146202D01*
X160157664Y-103146206D01*
X160042455Y-103232452D01*
X160042452Y-103232455D01*
X159956206Y-103347664D01*
X159956202Y-103347671D01*
X159905908Y-103482517D01*
X159905475Y-103486549D01*
X159899501Y-103542123D01*
X159899500Y-103542135D01*
X159899500Y-104535657D01*
X159879815Y-104602696D01*
X159848384Y-104635976D01*
X159810933Y-104663185D01*
X159801173Y-104669596D01*
X159763580Y-104691829D01*
X159749414Y-104705995D01*
X159734624Y-104718627D01*
X159718414Y-104730404D01*
X159718411Y-104730407D01*
X159690573Y-104764058D01*
X159682711Y-104772697D01*
X156117228Y-108338181D01*
X156055905Y-108371666D01*
X156029547Y-108374500D01*
X155774499Y-108374500D01*
X155707460Y-108354815D01*
X155661705Y-108302011D01*
X155650499Y-108250500D01*
X155650499Y-108102129D01*
X155650498Y-108102123D01*
X155650497Y-108102116D01*
X155644091Y-108042517D01*
X155593796Y-107907669D01*
X155516421Y-107804309D01*
X155492004Y-107738848D01*
X155506855Y-107670575D01*
X155516416Y-107655696D01*
X155593796Y-107552331D01*
X155644091Y-107417483D01*
X155650500Y-107357873D01*
X155650499Y-105562128D01*
X155644091Y-105502517D01*
X155593796Y-105367669D01*
X155516109Y-105263893D01*
X155491692Y-105198430D01*
X155506543Y-105130157D01*
X155516110Y-105115271D01*
X155593352Y-105012089D01*
X155593354Y-105012086D01*
X155643596Y-104877379D01*
X155643598Y-104877372D01*
X155649999Y-104817844D01*
X155650000Y-104817827D01*
X155650000Y-104170000D01*
X152945572Y-104170000D01*
X152968682Y-104134040D01*
X153010000Y-103993327D01*
X153010000Y-103846673D01*
X152968682Y-103705960D01*
X152945572Y-103670000D01*
X155650000Y-103670000D01*
X155650000Y-103022172D01*
X155649999Y-103022155D01*
X155643598Y-102962627D01*
X155643596Y-102962620D01*
X155593354Y-102827913D01*
X155593352Y-102827910D01*
X155516110Y-102724729D01*
X155491692Y-102659265D01*
X155506543Y-102590992D01*
X155516105Y-102576111D01*
X155593796Y-102472331D01*
X155644091Y-102337483D01*
X155650500Y-102277873D01*
X155650499Y-100482128D01*
X155644091Y-100422517D01*
X155593796Y-100287669D01*
X155516421Y-100184309D01*
X155492004Y-100118848D01*
X155506855Y-100050575D01*
X155516416Y-100035696D01*
X155593796Y-99932331D01*
X155644091Y-99797483D01*
X155650500Y-99737873D01*
X155650499Y-97942128D01*
X155644091Y-97882517D01*
X155593796Y-97747669D01*
X155516421Y-97644309D01*
X155492004Y-97578848D01*
X155506855Y-97510575D01*
X155516416Y-97495696D01*
X155593796Y-97392331D01*
X155644091Y-97257483D01*
X155650500Y-97197873D01*
X155650499Y-95402128D01*
X155644091Y-95342517D01*
X155593796Y-95207669D01*
X155516421Y-95104309D01*
X155492004Y-95038848D01*
X155506855Y-94970575D01*
X155516416Y-94955696D01*
X155593796Y-94852331D01*
X155644091Y-94717483D01*
X155650500Y-94657873D01*
X155650499Y-92862128D01*
X155644091Y-92802517D01*
X155593796Y-92667669D01*
X155516109Y-92563893D01*
X155491692Y-92498430D01*
X155506543Y-92430157D01*
X155516110Y-92415271D01*
X155593352Y-92312089D01*
X155593354Y-92312086D01*
X155643596Y-92177379D01*
X155643598Y-92177372D01*
X155649999Y-92117844D01*
X155650000Y-92117827D01*
X155650000Y-91470000D01*
X152945572Y-91470000D01*
X152968682Y-91434040D01*
X153010000Y-91293327D01*
X153010000Y-91146673D01*
X152968682Y-91005960D01*
X152945572Y-90970000D01*
X155650000Y-90970000D01*
X155650000Y-90322172D01*
X155649999Y-90322155D01*
X155643598Y-90262627D01*
X155643596Y-90262620D01*
X155593354Y-90127913D01*
X155593352Y-90127910D01*
X155516110Y-90024729D01*
X155491692Y-89959265D01*
X155506543Y-89890992D01*
X155516105Y-89876111D01*
X155593796Y-89772331D01*
X155644091Y-89637483D01*
X155650500Y-89577873D01*
X155650499Y-87782128D01*
X155644091Y-87722517D01*
X155593796Y-87587669D01*
X155516421Y-87484309D01*
X155492004Y-87418848D01*
X155506855Y-87350575D01*
X155516416Y-87335696D01*
X155593796Y-87232331D01*
X155644091Y-87097483D01*
X155650500Y-87037873D01*
X155650499Y-85242128D01*
X155644091Y-85182517D01*
X155593796Y-85047669D01*
X155516421Y-84944309D01*
X155492004Y-84878848D01*
X155506855Y-84810575D01*
X155516416Y-84795696D01*
X155593796Y-84692331D01*
X155644091Y-84557483D01*
X155650500Y-84497873D01*
X155650499Y-82702128D01*
X155644091Y-82642517D01*
X155593796Y-82507669D01*
X155516421Y-82404309D01*
X155492004Y-82338848D01*
X155506855Y-82270575D01*
X155516416Y-82255696D01*
X155593796Y-82152331D01*
X155644091Y-82017483D01*
X155650500Y-81957873D01*
X155650499Y-80162128D01*
X155644091Y-80102517D01*
X155593796Y-79967669D01*
X155516109Y-79863893D01*
X155491692Y-79798430D01*
X155506543Y-79730157D01*
X155516110Y-79715271D01*
X155593352Y-79612089D01*
X155593354Y-79612086D01*
X155643596Y-79477379D01*
X155643598Y-79477372D01*
X155649999Y-79417844D01*
X155650000Y-79417827D01*
X155650000Y-78770000D01*
X152945572Y-78770000D01*
X152968682Y-78734040D01*
X153010000Y-78593327D01*
X153010000Y-78446673D01*
X152968682Y-78305960D01*
X152945572Y-78270000D01*
X155650000Y-78270000D01*
X155650000Y-77622172D01*
X155649999Y-77622155D01*
X155643598Y-77562627D01*
X155643596Y-77562620D01*
X155593354Y-77427913D01*
X155593352Y-77427910D01*
X155516110Y-77324729D01*
X155491692Y-77259265D01*
X155506543Y-77190992D01*
X155516105Y-77176111D01*
X155593796Y-77072331D01*
X155644091Y-76937483D01*
X155650500Y-76877873D01*
X155650499Y-75082128D01*
X155644091Y-75022517D01*
X155615740Y-74946505D01*
X155593797Y-74887671D01*
X155593795Y-74887668D01*
X155516421Y-74784309D01*
X155492004Y-74718848D01*
X155506855Y-74650575D01*
X155516416Y-74635696D01*
X155593796Y-74532331D01*
X155644091Y-74397483D01*
X155650500Y-74337873D01*
X155650499Y-72542128D01*
X155644091Y-72482517D01*
X155615740Y-72406505D01*
X155593797Y-72347671D01*
X155593795Y-72347668D01*
X155516421Y-72244309D01*
X155492004Y-72178848D01*
X155506855Y-72110575D01*
X155516416Y-72095696D01*
X155593796Y-71992331D01*
X155644091Y-71857483D01*
X155650500Y-71797873D01*
X155650499Y-70002128D01*
X155644091Y-69942517D01*
X155593796Y-69807669D01*
X155516421Y-69704309D01*
X155492004Y-69638848D01*
X155506855Y-69570575D01*
X155516416Y-69555696D01*
X155593796Y-69452331D01*
X155644091Y-69317483D01*
X155650500Y-69257873D01*
X155650499Y-67462128D01*
X155644091Y-67402517D01*
X155593796Y-67267669D01*
X155516109Y-67163893D01*
X155491692Y-67098430D01*
X155506543Y-67030157D01*
X155516110Y-67015271D01*
X155593352Y-66912089D01*
X155593354Y-66912086D01*
X155643596Y-66777379D01*
X155643598Y-66777372D01*
X155649999Y-66717844D01*
X155650000Y-66717827D01*
X155650000Y-66070000D01*
X152945572Y-66070000D01*
X152968682Y-66034040D01*
X153010000Y-65893327D01*
X153010000Y-65746673D01*
X152968682Y-65605960D01*
X152945572Y-65570000D01*
X155650000Y-65570000D01*
X155650000Y-64922172D01*
X155649999Y-64922155D01*
X155643598Y-64862627D01*
X155643596Y-64862620D01*
X155593354Y-64727913D01*
X155593352Y-64727910D01*
X155516110Y-64624729D01*
X155491692Y-64559265D01*
X155506543Y-64490992D01*
X155516105Y-64476111D01*
X155593796Y-64372331D01*
X155644091Y-64237483D01*
X155650500Y-64177873D01*
X155650499Y-62382128D01*
X155644091Y-62322517D01*
X155621331Y-62261495D01*
X155593797Y-62187671D01*
X155593795Y-62187668D01*
X155516421Y-62084309D01*
X155492004Y-62018848D01*
X155506855Y-61950575D01*
X155516416Y-61935696D01*
X155593796Y-61832331D01*
X155644091Y-61697483D01*
X155650500Y-61637873D01*
X155650499Y-59842128D01*
X155644091Y-59782517D01*
X155641817Y-59776421D01*
X155593797Y-59647671D01*
X155593793Y-59647664D01*
X155507547Y-59532455D01*
X155507544Y-59532452D01*
X155392335Y-59446206D01*
X155392328Y-59446202D01*
X155257482Y-59395908D01*
X155257483Y-59395908D01*
X155197883Y-59389501D01*
X155197881Y-59389500D01*
X155197873Y-59389500D01*
X155197865Y-59389500D01*
X152564385Y-59389500D01*
X152553578Y-59389028D01*
X152500001Y-59384341D01*
X152499997Y-59384341D01*
X152446419Y-59389028D01*
X152435613Y-59389500D01*
X151602129Y-59389500D01*
X151602123Y-59389501D01*
X151542516Y-59395908D01*
X151407671Y-59446202D01*
X151407664Y-59446206D01*
X151292455Y-59532452D01*
X151292452Y-59532455D01*
X151206206Y-59647664D01*
X151206202Y-59647671D01*
X151155908Y-59782517D01*
X151149877Y-59838621D01*
X151149501Y-59842123D01*
X151149500Y-59842135D01*
X151149500Y-60675616D01*
X151149028Y-60686423D01*
X151144341Y-60739997D01*
X151144341Y-60740002D01*
X151149028Y-60793576D01*
X151149500Y-60804383D01*
X151149500Y-61637870D01*
X151149501Y-61637876D01*
X151155908Y-61697483D01*
X151206202Y-61832328D01*
X151206203Y-61832330D01*
X151283578Y-61935689D01*
X151307995Y-62001153D01*
X151293144Y-62069426D01*
X151283578Y-62084309D01*
X151273168Y-62098216D01*
X151206203Y-62187669D01*
X151206202Y-62187671D01*
X151155908Y-62322517D01*
X151149501Y-62382116D01*
X151149501Y-62382123D01*
X151149500Y-62382135D01*
X151149500Y-63215616D01*
X151149028Y-63226423D01*
X151144341Y-63279997D01*
X151144341Y-63280002D01*
X151149028Y-63333576D01*
X151149500Y-63344383D01*
X151149500Y-64177870D01*
X151149501Y-64177876D01*
X151155908Y-64237483D01*
X151206202Y-64372328D01*
X151206206Y-64372335D01*
X151283889Y-64476105D01*
X151308307Y-64541569D01*
X151293456Y-64609842D01*
X151283890Y-64624727D01*
X151206647Y-64727910D01*
X151206645Y-64727913D01*
X151156403Y-64862620D01*
X151156401Y-64862627D01*
X151150000Y-64922155D01*
X151150000Y-65570000D01*
X152054428Y-65570000D01*
X152031318Y-65605960D01*
X151990000Y-65746673D01*
X151990000Y-65893327D01*
X152031318Y-66034040D01*
X152054428Y-66070000D01*
X151150000Y-66070000D01*
X151150000Y-66717844D01*
X151156401Y-66777372D01*
X151156403Y-66777379D01*
X151206645Y-66912086D01*
X151206646Y-66912088D01*
X151283890Y-67015272D01*
X151308307Y-67080736D01*
X151293456Y-67149009D01*
X151283890Y-67163894D01*
X151206204Y-67267669D01*
X151206202Y-67267671D01*
X151155908Y-67402517D01*
X151149501Y-67462116D01*
X151149501Y-67462123D01*
X151149500Y-67462135D01*
X151149500Y-68295616D01*
X151149028Y-68306423D01*
X151144341Y-68359997D01*
X151144341Y-68360002D01*
X151149028Y-68413576D01*
X151149500Y-68424383D01*
X151149500Y-69257870D01*
X151149501Y-69257876D01*
X151155908Y-69317483D01*
X151206202Y-69452328D01*
X151206203Y-69452330D01*
X151283578Y-69555689D01*
X151307995Y-69621153D01*
X151293144Y-69689426D01*
X151283578Y-69704311D01*
X151206203Y-69807669D01*
X151206202Y-69807671D01*
X151155908Y-69942517D01*
X151149501Y-70002116D01*
X151149501Y-70002123D01*
X151149500Y-70002135D01*
X151149500Y-70835616D01*
X151149028Y-70846423D01*
X151144341Y-70899997D01*
X151144341Y-70900002D01*
X151149028Y-70953576D01*
X151149500Y-70964383D01*
X151149500Y-71797870D01*
X151149501Y-71797876D01*
X151155908Y-71857483D01*
X151206202Y-71992328D01*
X151206203Y-71992330D01*
X151283578Y-72095689D01*
X151307995Y-72161153D01*
X151293144Y-72229426D01*
X151283578Y-72244311D01*
X151206203Y-72347669D01*
X151206202Y-72347671D01*
X151155908Y-72482517D01*
X151149501Y-72542116D01*
X151149501Y-72542123D01*
X151149500Y-72542135D01*
X151149500Y-73375616D01*
X151149028Y-73386423D01*
X151144341Y-73439997D01*
X151144341Y-73440002D01*
X151149028Y-73493576D01*
X151149500Y-73504383D01*
X151149500Y-74337870D01*
X151149501Y-74337876D01*
X151155908Y-74397483D01*
X151206202Y-74532328D01*
X151206203Y-74532330D01*
X151283578Y-74635689D01*
X151307995Y-74701153D01*
X151293144Y-74769426D01*
X151283578Y-74784311D01*
X151206203Y-74887669D01*
X151206202Y-74887671D01*
X151155908Y-75022517D01*
X151149501Y-75082116D01*
X151149501Y-75082123D01*
X151149500Y-75082135D01*
X151149500Y-75915616D01*
X151149028Y-75926423D01*
X151144341Y-75979997D01*
X151144341Y-75980002D01*
X151149028Y-76033576D01*
X151149500Y-76044383D01*
X151149500Y-76877870D01*
X151149501Y-76877876D01*
X151155908Y-76937483D01*
X151206202Y-77072328D01*
X151206206Y-77072335D01*
X151283889Y-77176105D01*
X151308307Y-77241569D01*
X151293456Y-77309842D01*
X151283890Y-77324727D01*
X151206647Y-77427910D01*
X151206645Y-77427913D01*
X151156403Y-77562620D01*
X151156401Y-77562627D01*
X151150000Y-77622155D01*
X151150000Y-78270000D01*
X152054428Y-78270000D01*
X152031318Y-78305960D01*
X151990000Y-78446673D01*
X151990000Y-78593327D01*
X152031318Y-78734040D01*
X152054428Y-78770000D01*
X151150000Y-78770000D01*
X151150000Y-79417844D01*
X151156401Y-79477372D01*
X151156403Y-79477379D01*
X151206645Y-79612086D01*
X151206646Y-79612088D01*
X151283890Y-79715272D01*
X151308307Y-79780736D01*
X151293456Y-79849009D01*
X151283890Y-79863894D01*
X151206204Y-79967669D01*
X151206202Y-79967671D01*
X151155908Y-80102517D01*
X151149501Y-80162116D01*
X151149501Y-80162123D01*
X151149500Y-80162135D01*
X151149500Y-80995616D01*
X151149028Y-81006423D01*
X151144341Y-81059997D01*
X151144341Y-81060002D01*
X151149028Y-81113576D01*
X151149500Y-81124383D01*
X151149500Y-81957870D01*
X151149501Y-81957876D01*
X151155908Y-82017483D01*
X151206202Y-82152328D01*
X151206203Y-82152330D01*
X151283578Y-82255689D01*
X151307995Y-82321153D01*
X151293144Y-82389426D01*
X151283578Y-82404311D01*
X151206203Y-82507669D01*
X151206202Y-82507671D01*
X151155908Y-82642517D01*
X151149501Y-82702116D01*
X151149501Y-82702123D01*
X151149500Y-82702135D01*
X151149500Y-83535616D01*
X151149028Y-83546423D01*
X151144341Y-83599997D01*
X151144341Y-83600002D01*
X151149028Y-83653576D01*
X151149500Y-83664383D01*
X151149500Y-84497870D01*
X151149501Y-84497876D01*
X151155908Y-84557483D01*
X151206202Y-84692328D01*
X151206203Y-84692330D01*
X151283578Y-84795689D01*
X151307995Y-84861153D01*
X151293144Y-84929426D01*
X151283578Y-84944311D01*
X151206203Y-85047669D01*
X151206202Y-85047671D01*
X151155908Y-85182517D01*
X151149501Y-85242116D01*
X151149501Y-85242123D01*
X151149500Y-85242135D01*
X151149500Y-86075616D01*
X151149028Y-86086423D01*
X151144341Y-86139997D01*
X151144341Y-86140002D01*
X151149028Y-86193576D01*
X151149500Y-86204383D01*
X151149500Y-87037870D01*
X151149501Y-87037876D01*
X151155908Y-87097483D01*
X151206202Y-87232328D01*
X151206203Y-87232330D01*
X151283578Y-87335689D01*
X151307995Y-87401153D01*
X151293144Y-87469426D01*
X151283578Y-87484311D01*
X151206203Y-87587669D01*
X151206202Y-87587671D01*
X151155908Y-87722517D01*
X151149501Y-87782116D01*
X151149501Y-87782123D01*
X151149500Y-87782135D01*
X151149500Y-88615616D01*
X151149028Y-88626423D01*
X151144341Y-88679997D01*
X151144341Y-88680002D01*
X151149028Y-88733576D01*
X151149500Y-88744383D01*
X151149500Y-89577870D01*
X151149501Y-89577876D01*
X151155908Y-89637483D01*
X151206202Y-89772328D01*
X151206206Y-89772335D01*
X151283889Y-89876105D01*
X151308307Y-89941569D01*
X151293456Y-90009842D01*
X151283890Y-90024727D01*
X151206647Y-90127910D01*
X151206645Y-90127913D01*
X151156403Y-90262620D01*
X151156401Y-90262627D01*
X151150000Y-90322155D01*
X151150000Y-90970000D01*
X152054428Y-90970000D01*
X152031318Y-91005960D01*
X151990000Y-91146673D01*
X151990000Y-91293327D01*
X152031318Y-91434040D01*
X152054428Y-91470000D01*
X151150000Y-91470000D01*
X151150000Y-92117844D01*
X151156401Y-92177372D01*
X151156403Y-92177379D01*
X151206645Y-92312086D01*
X151206646Y-92312088D01*
X151283890Y-92415272D01*
X151308307Y-92480736D01*
X151293456Y-92549009D01*
X151283890Y-92563894D01*
X151206204Y-92667669D01*
X151206202Y-92667671D01*
X151155908Y-92802517D01*
X151149501Y-92862116D01*
X151149501Y-92862123D01*
X151149500Y-92862135D01*
X151149500Y-93695616D01*
X151149028Y-93706423D01*
X151144341Y-93759997D01*
X151144341Y-93760002D01*
X151149028Y-93813576D01*
X151149500Y-93824383D01*
X151149500Y-94657870D01*
X151149501Y-94657876D01*
X151155908Y-94717483D01*
X151206202Y-94852328D01*
X151206203Y-94852330D01*
X151283578Y-94955689D01*
X151307995Y-95021153D01*
X151293144Y-95089426D01*
X151283578Y-95104311D01*
X151206203Y-95207669D01*
X151206202Y-95207671D01*
X151155908Y-95342517D01*
X151149501Y-95402116D01*
X151149501Y-95402123D01*
X151149500Y-95402135D01*
X151149500Y-96235616D01*
X151149028Y-96246423D01*
X151144341Y-96299997D01*
X151144341Y-96300002D01*
X151149028Y-96353576D01*
X151149500Y-96364383D01*
X151149500Y-97197870D01*
X151149501Y-97197876D01*
X151155908Y-97257483D01*
X151206202Y-97392328D01*
X151206203Y-97392330D01*
X151283578Y-97495689D01*
X151307995Y-97561153D01*
X151293144Y-97629426D01*
X151283578Y-97644311D01*
X151206203Y-97747669D01*
X151206202Y-97747671D01*
X151155908Y-97882517D01*
X151149501Y-97942116D01*
X151149501Y-97942123D01*
X151149500Y-97942135D01*
X151149500Y-98775616D01*
X151149028Y-98786423D01*
X151144341Y-98839997D01*
X151144341Y-98840002D01*
X151149028Y-98893576D01*
X151149500Y-98904383D01*
X151149500Y-99254546D01*
X151129815Y-99321585D01*
X151113181Y-99342227D01*
X145832228Y-104623181D01*
X145770905Y-104656666D01*
X145744547Y-104659500D01*
X136194000Y-104659500D01*
X136126961Y-104639815D01*
X136081206Y-104587011D01*
X136070000Y-104535500D01*
X136070000Y-104170000D01*
X135165572Y-104170000D01*
X135188682Y-104134040D01*
X135230000Y-103993327D01*
X135230000Y-103846673D01*
X135188682Y-103705960D01*
X135165572Y-103670000D01*
X136070000Y-103670000D01*
X136070000Y-103022172D01*
X136069999Y-103022155D01*
X136063598Y-102962627D01*
X136063596Y-102962620D01*
X136013354Y-102827913D01*
X136013352Y-102827910D01*
X135936110Y-102724729D01*
X135911692Y-102659265D01*
X135926543Y-102590992D01*
X135936105Y-102576111D01*
X136013796Y-102472331D01*
X136064091Y-102337483D01*
X136070500Y-102277873D01*
X136070499Y-101444383D01*
X136070971Y-101433576D01*
X136075659Y-101380000D01*
X136075659Y-101379999D01*
X136070971Y-101326421D01*
X136070499Y-101315613D01*
X136070499Y-100482129D01*
X136070498Y-100482123D01*
X136070497Y-100482116D01*
X136064091Y-100422517D01*
X136013796Y-100287669D01*
X135936421Y-100184309D01*
X135912004Y-100118848D01*
X135926855Y-100050575D01*
X135936416Y-100035696D01*
X136013796Y-99932331D01*
X136064091Y-99797483D01*
X136070500Y-99737873D01*
X136070499Y-98904383D01*
X136070971Y-98893576D01*
X136075659Y-98840000D01*
X136075659Y-98839999D01*
X136070971Y-98786421D01*
X136070499Y-98775613D01*
X136070499Y-97942129D01*
X136070498Y-97942123D01*
X136070497Y-97942116D01*
X136064091Y-97882517D01*
X136013796Y-97747669D01*
X135936421Y-97644309D01*
X135912004Y-97578848D01*
X135926855Y-97510575D01*
X135936416Y-97495696D01*
X136013796Y-97392331D01*
X136064091Y-97257483D01*
X136070500Y-97197873D01*
X136070499Y-96364383D01*
X136070971Y-96353576D01*
X136075659Y-96300000D01*
X136075659Y-96299999D01*
X136070971Y-96246421D01*
X136070499Y-96235613D01*
X136070499Y-95402129D01*
X136070498Y-95402123D01*
X136070497Y-95402116D01*
X136064091Y-95342517D01*
X136013796Y-95207669D01*
X135936421Y-95104309D01*
X135912004Y-95038848D01*
X135926855Y-94970575D01*
X135936416Y-94955696D01*
X136013796Y-94852331D01*
X136064091Y-94717483D01*
X136070500Y-94657873D01*
X136070499Y-93824383D01*
X136070971Y-93813576D01*
X136075659Y-93760000D01*
X136075659Y-93759999D01*
X136070971Y-93706421D01*
X136070499Y-93695613D01*
X136070499Y-92862129D01*
X136070498Y-92862123D01*
X136070497Y-92862116D01*
X136064091Y-92802517D01*
X136013796Y-92667669D01*
X135936109Y-92563893D01*
X135911692Y-92498430D01*
X135926543Y-92430157D01*
X135936110Y-92415271D01*
X136013352Y-92312089D01*
X136013354Y-92312086D01*
X136063596Y-92177379D01*
X136063598Y-92177372D01*
X136069999Y-92117844D01*
X136070000Y-92117827D01*
X136070000Y-91470000D01*
X135165572Y-91470000D01*
X135188682Y-91434040D01*
X135230000Y-91293327D01*
X135230000Y-91146673D01*
X135188682Y-91005960D01*
X135165572Y-90970000D01*
X136070000Y-90970000D01*
X136070000Y-90322172D01*
X136069999Y-90322155D01*
X136063598Y-90262627D01*
X136063596Y-90262620D01*
X136013354Y-90127913D01*
X136013352Y-90127910D01*
X135936110Y-90024729D01*
X135911692Y-89959265D01*
X135926543Y-89890992D01*
X135936105Y-89876111D01*
X136013796Y-89772331D01*
X136064091Y-89637483D01*
X136070500Y-89577873D01*
X136070499Y-88744383D01*
X136070971Y-88733576D01*
X136075659Y-88680000D01*
X136075659Y-88679999D01*
X136070971Y-88626421D01*
X136070499Y-88615613D01*
X136070499Y-87782129D01*
X136070498Y-87782123D01*
X136070497Y-87782116D01*
X136064091Y-87722517D01*
X136013796Y-87587669D01*
X135936421Y-87484309D01*
X135912004Y-87418848D01*
X135926855Y-87350575D01*
X135936416Y-87335696D01*
X136013796Y-87232331D01*
X136064091Y-87097483D01*
X136070500Y-87037873D01*
X136070499Y-86204383D01*
X136070971Y-86193576D01*
X136075659Y-86140000D01*
X136075659Y-86139999D01*
X136070971Y-86086421D01*
X136070499Y-86075613D01*
X136070499Y-85242129D01*
X136070498Y-85242123D01*
X136070497Y-85242116D01*
X136064091Y-85182517D01*
X136013796Y-85047669D01*
X135936421Y-84944309D01*
X135912004Y-84878848D01*
X135926855Y-84810575D01*
X135936416Y-84795696D01*
X136013796Y-84692331D01*
X136064091Y-84557483D01*
X136070500Y-84497873D01*
X136070499Y-83664383D01*
X136070971Y-83653576D01*
X136075659Y-83600000D01*
X136075659Y-83599999D01*
X136070971Y-83546421D01*
X136070499Y-83535613D01*
X136070499Y-82702129D01*
X136070498Y-82702123D01*
X136070497Y-82702116D01*
X136064091Y-82642517D01*
X136013796Y-82507669D01*
X135936421Y-82404309D01*
X135912004Y-82338848D01*
X135926855Y-82270575D01*
X135936416Y-82255696D01*
X136013796Y-82152331D01*
X136064091Y-82017483D01*
X136070500Y-81957873D01*
X136070499Y-81124383D01*
X136070971Y-81113576D01*
X136075659Y-81060000D01*
X136075659Y-81059999D01*
X136070971Y-81006421D01*
X136070499Y-80995613D01*
X136070499Y-80162129D01*
X136070498Y-80162123D01*
X136070497Y-80162116D01*
X136064091Y-80102517D01*
X136013796Y-79967669D01*
X135936421Y-79864309D01*
X135912004Y-79798848D01*
X135926855Y-79730575D01*
X135936416Y-79715696D01*
X136013796Y-79612331D01*
X136064091Y-79477483D01*
X136070500Y-79417873D01*
X136070499Y-77622128D01*
X136065299Y-77573757D01*
X136064091Y-77562516D01*
X136013797Y-77427671D01*
X136013795Y-77427668D01*
X135936421Y-77324309D01*
X135912004Y-77258848D01*
X135926855Y-77190575D01*
X135936416Y-77175696D01*
X136013796Y-77072331D01*
X136064091Y-76937483D01*
X136070500Y-76877873D01*
X136070499Y-76044383D01*
X136070971Y-76033576D01*
X136075659Y-75980000D01*
X136075659Y-75979999D01*
X136070971Y-75926421D01*
X136070499Y-75915613D01*
X136070499Y-75082129D01*
X136070498Y-75082123D01*
X136070497Y-75082116D01*
X136064091Y-75022517D01*
X136035740Y-74946505D01*
X136013797Y-74887671D01*
X136013795Y-74887668D01*
X135936421Y-74784309D01*
X135912004Y-74718848D01*
X135926855Y-74650575D01*
X135936416Y-74635696D01*
X136013796Y-74532331D01*
X136064091Y-74397483D01*
X136070500Y-74337873D01*
X136070499Y-73504383D01*
X136070971Y-73493576D01*
X136075659Y-73440000D01*
X136075659Y-73439999D01*
X136070971Y-73386421D01*
X136070499Y-73375613D01*
X136070499Y-72542129D01*
X136070498Y-72542123D01*
X136070497Y-72542116D01*
X136064091Y-72482517D01*
X136035740Y-72406505D01*
X136013797Y-72347671D01*
X136013795Y-72347668D01*
X135936421Y-72244309D01*
X135912004Y-72178848D01*
X135926855Y-72110575D01*
X135936416Y-72095696D01*
X136013796Y-71992331D01*
X136064091Y-71857483D01*
X136070500Y-71797873D01*
X136070499Y-70964383D01*
X136070971Y-70953576D01*
X136075659Y-70900000D01*
X136075659Y-70899999D01*
X136070971Y-70846421D01*
X136070499Y-70835613D01*
X136070499Y-70002129D01*
X136070498Y-70002123D01*
X136070497Y-70002116D01*
X136064091Y-69942517D01*
X136013796Y-69807669D01*
X135936421Y-69704309D01*
X135912004Y-69638848D01*
X135926855Y-69570575D01*
X135936416Y-69555696D01*
X136013796Y-69452331D01*
X136064091Y-69317483D01*
X136070500Y-69257873D01*
X136070499Y-68424383D01*
X136070971Y-68413576D01*
X136075659Y-68360000D01*
X136075659Y-68359999D01*
X136070971Y-68306421D01*
X136070499Y-68295613D01*
X136070499Y-67462129D01*
X136070498Y-67462123D01*
X136070497Y-67462116D01*
X136064091Y-67402517D01*
X136013796Y-67267669D01*
X135936109Y-67163893D01*
X135911692Y-67098430D01*
X135926543Y-67030157D01*
X135936110Y-67015271D01*
X136013352Y-66912089D01*
X136013354Y-66912086D01*
X136063596Y-66777379D01*
X136063598Y-66777372D01*
X136069999Y-66717844D01*
X136070000Y-66717827D01*
X136070000Y-66070000D01*
X135165572Y-66070000D01*
X135188682Y-66034040D01*
X135230000Y-65893327D01*
X135230000Y-65746673D01*
X135188682Y-65605960D01*
X135165572Y-65570000D01*
X136070000Y-65570000D01*
X136070000Y-64922172D01*
X136069999Y-64922155D01*
X136063598Y-64862627D01*
X136063596Y-64862620D01*
X136013354Y-64727913D01*
X136013352Y-64727910D01*
X135936110Y-64624729D01*
X135911692Y-64559265D01*
X135926543Y-64490992D01*
X135936105Y-64476111D01*
X136013796Y-64372331D01*
X136064091Y-64237483D01*
X136070500Y-64177873D01*
X136070500Y-63900003D01*
X139929723Y-63900003D01*
X139931331Y-63918389D01*
X139931678Y-63934752D01*
X139930709Y-63956324D01*
X139930710Y-63956328D01*
X139941444Y-64035576D01*
X139942094Y-64041412D01*
X139948792Y-64117972D01*
X139948795Y-64117989D01*
X139954461Y-64139134D01*
X139957563Y-64154576D01*
X139960923Y-64179380D01*
X139960926Y-64179392D01*
X139984573Y-64252169D01*
X139986417Y-64258393D01*
X140005423Y-64329324D01*
X140005428Y-64329337D01*
X140016135Y-64352300D01*
X140021682Y-64366380D01*
X140030483Y-64393464D01*
X140065128Y-64457845D01*
X140068316Y-64464200D01*
X140097897Y-64527638D01*
X140097898Y-64527639D01*
X140114410Y-64551221D01*
X140122025Y-64563578D01*
X140137146Y-64591678D01*
X140137152Y-64591687D01*
X140180587Y-64646153D01*
X140185214Y-64652340D01*
X140210510Y-64688465D01*
X140223402Y-64706877D01*
X140223405Y-64706880D01*
X140246186Y-64729661D01*
X140255452Y-64740029D01*
X140277492Y-64767666D01*
X140327387Y-64811259D01*
X140333484Y-64816959D01*
X140378116Y-64861592D01*
X140378121Y-64861596D01*
X140378123Y-64861598D01*
X140379583Y-64862620D01*
X140407332Y-64882050D01*
X140417793Y-64890244D01*
X140447004Y-64915765D01*
X140447013Y-64915771D01*
X140500924Y-64947981D01*
X140508449Y-64952854D01*
X140557359Y-64987101D01*
X140557365Y-64987104D01*
X140592798Y-65003627D01*
X140603992Y-65009561D01*
X140640234Y-65031214D01*
X140640236Y-65031215D01*
X140685728Y-65048288D01*
X140695838Y-65052082D01*
X140704669Y-65055792D01*
X140748300Y-65076138D01*
X140755670Y-65079575D01*
X140755675Y-65079577D01*
X140796756Y-65090584D01*
X140808227Y-65094262D01*
X140850976Y-65110307D01*
X140906047Y-65120301D01*
X140915965Y-65122526D01*
X140967023Y-65136207D01*
X141012829Y-65140214D01*
X141024121Y-65141728D01*
X141072453Y-65150500D01*
X141124985Y-65150500D01*
X141135792Y-65150972D01*
X141184998Y-65155277D01*
X141185000Y-65155277D01*
X141235369Y-65150870D01*
X141240600Y-65150524D01*
X141241122Y-65150500D01*
X141241155Y-65150500D01*
X141294217Y-65145724D01*
X141295173Y-65145638D01*
X141295180Y-65145724D01*
X141295477Y-65145611D01*
X141402977Y-65136207D01*
X141402982Y-65136205D01*
X141405000Y-65136029D01*
X141407205Y-65135736D01*
X141409182Y-65135377D01*
X141409188Y-65135377D01*
X141512684Y-65106812D01*
X141513350Y-65106631D01*
X141614330Y-65079575D01*
X141614337Y-65079571D01*
X141618913Y-65077906D01*
X141624449Y-65076138D01*
X141626159Y-65075495D01*
X141626170Y-65075493D01*
X141719890Y-65030359D01*
X141721016Y-65029825D01*
X141812639Y-64987102D01*
X141812640Y-64987101D01*
X141817327Y-64984395D01*
X141817400Y-64984522D01*
X141828164Y-64978218D01*
X141828973Y-64977829D01*
X141910325Y-64918721D01*
X141911993Y-64917531D01*
X141991877Y-64861598D01*
X141992747Y-64860727D01*
X142007550Y-64848084D01*
X142011078Y-64845522D01*
X142078237Y-64775277D01*
X142080098Y-64773376D01*
X142146592Y-64706883D01*
X142146592Y-64706882D01*
X142146598Y-64706877D01*
X142149285Y-64703039D01*
X142161239Y-64688465D01*
X142166629Y-64682828D01*
X142166628Y-64682828D01*
X142166632Y-64682825D01*
X142218266Y-64604600D01*
X142220083Y-64601928D01*
X142272102Y-64527639D01*
X142275543Y-64520259D01*
X142284432Y-64504364D01*
X142290635Y-64494968D01*
X142326114Y-64411958D01*
X142327713Y-64408377D01*
X142364575Y-64329330D01*
X142367570Y-64318148D01*
X142373325Y-64301505D01*
X142379103Y-64287988D01*
X142398417Y-64203366D01*
X142399533Y-64198863D01*
X142421207Y-64117977D01*
X142422515Y-64103015D01*
X142425150Y-64086237D01*
X142429191Y-64068537D01*
X142432934Y-63985183D01*
X142433274Y-63980036D01*
X142440277Y-63900003D01*
X144779723Y-63900003D01*
X144781331Y-63918389D01*
X144781678Y-63934752D01*
X144780709Y-63956324D01*
X144780710Y-63956328D01*
X144791444Y-64035576D01*
X144792094Y-64041412D01*
X144798792Y-64117972D01*
X144798795Y-64117989D01*
X144804461Y-64139134D01*
X144807563Y-64154576D01*
X144810923Y-64179380D01*
X144810926Y-64179392D01*
X144834573Y-64252169D01*
X144836417Y-64258393D01*
X144855423Y-64329324D01*
X144855428Y-64329337D01*
X144866135Y-64352300D01*
X144871682Y-64366380D01*
X144880483Y-64393464D01*
X144915128Y-64457845D01*
X144918316Y-64464200D01*
X144947897Y-64527638D01*
X144947898Y-64527639D01*
X144964410Y-64551221D01*
X144972025Y-64563578D01*
X144987146Y-64591678D01*
X144987152Y-64591687D01*
X145030587Y-64646153D01*
X145035214Y-64652340D01*
X145060510Y-64688465D01*
X145073402Y-64706877D01*
X145073405Y-64706880D01*
X145096186Y-64729661D01*
X145105452Y-64740029D01*
X145127492Y-64767666D01*
X145177387Y-64811259D01*
X145183484Y-64816959D01*
X145228116Y-64861592D01*
X145228121Y-64861596D01*
X145228123Y-64861598D01*
X145229583Y-64862620D01*
X145257332Y-64882050D01*
X145267793Y-64890244D01*
X145297004Y-64915765D01*
X145297013Y-64915771D01*
X145350924Y-64947981D01*
X145358449Y-64952854D01*
X145407359Y-64987101D01*
X145407365Y-64987104D01*
X145442798Y-65003627D01*
X145453992Y-65009561D01*
X145490234Y-65031214D01*
X145490236Y-65031215D01*
X145535728Y-65048288D01*
X145545838Y-65052082D01*
X145554669Y-65055792D01*
X145598300Y-65076138D01*
X145605670Y-65079575D01*
X145605675Y-65079577D01*
X145646756Y-65090584D01*
X145658227Y-65094262D01*
X145700976Y-65110307D01*
X145756047Y-65120301D01*
X145765965Y-65122526D01*
X145817023Y-65136207D01*
X145862829Y-65140214D01*
X145874121Y-65141728D01*
X145922453Y-65150500D01*
X145974985Y-65150500D01*
X145985792Y-65150972D01*
X146034998Y-65155277D01*
X146035000Y-65155277D01*
X146085369Y-65150870D01*
X146090600Y-65150524D01*
X146091122Y-65150500D01*
X146091155Y-65150500D01*
X146144217Y-65145724D01*
X146145173Y-65145638D01*
X146145180Y-65145724D01*
X146145477Y-65145611D01*
X146252977Y-65136207D01*
X146252982Y-65136205D01*
X146255000Y-65136029D01*
X146257205Y-65135736D01*
X146259182Y-65135377D01*
X146259188Y-65135377D01*
X146362684Y-65106812D01*
X146363350Y-65106631D01*
X146464330Y-65079575D01*
X146464337Y-65079571D01*
X146468913Y-65077906D01*
X146474449Y-65076138D01*
X146476159Y-65075495D01*
X146476170Y-65075493D01*
X146569890Y-65030359D01*
X146571016Y-65029825D01*
X146662639Y-64987102D01*
X146662640Y-64987101D01*
X146667327Y-64984395D01*
X146667400Y-64984522D01*
X146678164Y-64978218D01*
X146678973Y-64977829D01*
X146760325Y-64918721D01*
X146761993Y-64917531D01*
X146841877Y-64861598D01*
X146842747Y-64860727D01*
X146857550Y-64848084D01*
X146861078Y-64845522D01*
X146928237Y-64775277D01*
X146930098Y-64773376D01*
X146996592Y-64706883D01*
X146996592Y-64706882D01*
X146996598Y-64706877D01*
X146999285Y-64703039D01*
X147011239Y-64688465D01*
X147016629Y-64682828D01*
X147016628Y-64682828D01*
X147016632Y-64682825D01*
X147068266Y-64604600D01*
X147070083Y-64601928D01*
X147122102Y-64527639D01*
X147125543Y-64520259D01*
X147134432Y-64504364D01*
X147140635Y-64494968D01*
X147176114Y-64411958D01*
X147177713Y-64408377D01*
X147214575Y-64329330D01*
X147217570Y-64318148D01*
X147223325Y-64301505D01*
X147229103Y-64287988D01*
X147248417Y-64203366D01*
X147249533Y-64198863D01*
X147271207Y-64117977D01*
X147272515Y-64103015D01*
X147275150Y-64086237D01*
X147279191Y-64068537D01*
X147282934Y-63985183D01*
X147283274Y-63980036D01*
X147290277Y-63900000D01*
X147288667Y-63881608D01*
X147288321Y-63865239D01*
X147289290Y-63843670D01*
X147278549Y-63764385D01*
X147277905Y-63758600D01*
X147271207Y-63682023D01*
X147265539Y-63660870D01*
X147262434Y-63645412D01*
X147259076Y-63620619D01*
X147259075Y-63620618D01*
X147259075Y-63620613D01*
X147235414Y-63547795D01*
X147233578Y-63541593D01*
X147214576Y-63470674D01*
X147214575Y-63470671D01*
X147214575Y-63470670D01*
X147203863Y-63447699D01*
X147198317Y-63433618D01*
X147189519Y-63406541D01*
X147189517Y-63406537D01*
X147189517Y-63406536D01*
X147154869Y-63342149D01*
X147151681Y-63335794D01*
X147129398Y-63288009D01*
X147122102Y-63272362D01*
X147105592Y-63248785D01*
X147097976Y-63236425D01*
X147092594Y-63226423D01*
X147082852Y-63208319D01*
X147039398Y-63153830D01*
X147034785Y-63147661D01*
X146996598Y-63093123D01*
X146973804Y-63070329D01*
X146964545Y-63059968D01*
X146942506Y-63032332D01*
X146892611Y-62988739D01*
X146886514Y-62983039D01*
X146841878Y-62938402D01*
X146812663Y-62917946D01*
X146802210Y-62909759D01*
X146772996Y-62884235D01*
X146770156Y-62882538D01*
X146719073Y-62852017D01*
X146711550Y-62847145D01*
X146662641Y-62812899D01*
X146627205Y-62796374D01*
X146616015Y-62790442D01*
X146579769Y-62768787D01*
X146579767Y-62768786D01*
X146571951Y-62765852D01*
X146524154Y-62747914D01*
X146515349Y-62744216D01*
X146464330Y-62720425D01*
X146423232Y-62709412D01*
X146411759Y-62705731D01*
X146369024Y-62689692D01*
X146313965Y-62679700D01*
X146304016Y-62677468D01*
X146252977Y-62663793D01*
X146207176Y-62659785D01*
X146195846Y-62658264D01*
X146147552Y-62649500D01*
X146147547Y-62649500D01*
X146095015Y-62649500D01*
X146084208Y-62649028D01*
X146035002Y-62644723D01*
X146034996Y-62644723D01*
X145984651Y-62649127D01*
X145979442Y-62649473D01*
X145978848Y-62649499D01*
X145924915Y-62654352D01*
X145924613Y-62654379D01*
X145827239Y-62662899D01*
X145817023Y-62663793D01*
X145817022Y-62663793D01*
X145815081Y-62663963D01*
X145812708Y-62664278D01*
X145810809Y-62664623D01*
X145707522Y-62693129D01*
X145706628Y-62693372D01*
X145605668Y-62720425D01*
X145601051Y-62722105D01*
X145595520Y-62723872D01*
X145593836Y-62724504D01*
X145500246Y-62769573D01*
X145498853Y-62770233D01*
X145407359Y-62812899D01*
X145402670Y-62815606D01*
X145402598Y-62815481D01*
X145391871Y-62821764D01*
X145391031Y-62822168D01*
X145309662Y-62881284D01*
X145307904Y-62882538D01*
X145228121Y-62938403D01*
X145227241Y-62939284D01*
X145212461Y-62951906D01*
X145208928Y-62954472D01*
X145208921Y-62954478D01*
X145141847Y-63024632D01*
X145139903Y-63026619D01*
X145073404Y-63093119D01*
X145073402Y-63093121D01*
X145070711Y-63096965D01*
X145058773Y-63111521D01*
X145053368Y-63117174D01*
X145033253Y-63147647D01*
X145001750Y-63195369D01*
X144999865Y-63198142D01*
X144947901Y-63272356D01*
X144947891Y-63272374D01*
X144944457Y-63279738D01*
X144935572Y-63295628D01*
X144929363Y-63305034D01*
X144893893Y-63388020D01*
X144892254Y-63391688D01*
X144855426Y-63470664D01*
X144855424Y-63470671D01*
X144852425Y-63481860D01*
X144846681Y-63498475D01*
X144840899Y-63512005D01*
X144840896Y-63512014D01*
X144821576Y-63596659D01*
X144820460Y-63601158D01*
X144798793Y-63682022D01*
X144797483Y-63696992D01*
X144794847Y-63713769D01*
X144790809Y-63731459D01*
X144790809Y-63731464D01*
X144787066Y-63814777D01*
X144786719Y-63820016D01*
X144779723Y-63899995D01*
X144779723Y-63900003D01*
X142440277Y-63900003D01*
X142440277Y-63900000D01*
X142438667Y-63881608D01*
X142438321Y-63865239D01*
X142439290Y-63843670D01*
X142428549Y-63764385D01*
X142427905Y-63758600D01*
X142421207Y-63682023D01*
X142415539Y-63660870D01*
X142412434Y-63645412D01*
X142409076Y-63620619D01*
X142409075Y-63620618D01*
X142409075Y-63620613D01*
X142385414Y-63547795D01*
X142383578Y-63541593D01*
X142364576Y-63470674D01*
X142364575Y-63470671D01*
X142364575Y-63470670D01*
X142353863Y-63447699D01*
X142348317Y-63433618D01*
X142339519Y-63406541D01*
X142339517Y-63406537D01*
X142339517Y-63406536D01*
X142304869Y-63342149D01*
X142301681Y-63335794D01*
X142279398Y-63288009D01*
X142272102Y-63272362D01*
X142255592Y-63248785D01*
X142247976Y-63236425D01*
X142242594Y-63226423D01*
X142232852Y-63208319D01*
X142189398Y-63153830D01*
X142184785Y-63147661D01*
X142146598Y-63093123D01*
X142123804Y-63070329D01*
X142114545Y-63059968D01*
X142092506Y-63032332D01*
X142042611Y-62988739D01*
X142036514Y-62983039D01*
X141991878Y-62938402D01*
X141962663Y-62917946D01*
X141952210Y-62909759D01*
X141922996Y-62884235D01*
X141920156Y-62882538D01*
X141869073Y-62852017D01*
X141861550Y-62847145D01*
X141812641Y-62812899D01*
X141777205Y-62796374D01*
X141766015Y-62790442D01*
X141729769Y-62768787D01*
X141729767Y-62768786D01*
X141721951Y-62765852D01*
X141674154Y-62747914D01*
X141665349Y-62744216D01*
X141614330Y-62720425D01*
X141573232Y-62709412D01*
X141561759Y-62705731D01*
X141519024Y-62689692D01*
X141463965Y-62679700D01*
X141454016Y-62677468D01*
X141402977Y-62663793D01*
X141357176Y-62659785D01*
X141345846Y-62658264D01*
X141297552Y-62649500D01*
X141297547Y-62649500D01*
X141245015Y-62649500D01*
X141234208Y-62649028D01*
X141185002Y-62644723D01*
X141184996Y-62644723D01*
X141134651Y-62649127D01*
X141129442Y-62649473D01*
X141128848Y-62649499D01*
X141074915Y-62654352D01*
X141074613Y-62654379D01*
X140977239Y-62662899D01*
X140967023Y-62663793D01*
X140967022Y-62663793D01*
X140965081Y-62663963D01*
X140962708Y-62664278D01*
X140960809Y-62664623D01*
X140857522Y-62693129D01*
X140856628Y-62693372D01*
X140755668Y-62720425D01*
X140751051Y-62722105D01*
X140745520Y-62723872D01*
X140743836Y-62724504D01*
X140650246Y-62769573D01*
X140648853Y-62770233D01*
X140557359Y-62812899D01*
X140552670Y-62815606D01*
X140552598Y-62815481D01*
X140541871Y-62821764D01*
X140541031Y-62822168D01*
X140459662Y-62881284D01*
X140457904Y-62882538D01*
X140378121Y-62938403D01*
X140377241Y-62939284D01*
X140362461Y-62951906D01*
X140358928Y-62954472D01*
X140358921Y-62954478D01*
X140291847Y-63024632D01*
X140289903Y-63026619D01*
X140223404Y-63093119D01*
X140223402Y-63093121D01*
X140220711Y-63096965D01*
X140208773Y-63111521D01*
X140203368Y-63117174D01*
X140183253Y-63147647D01*
X140151750Y-63195369D01*
X140149865Y-63198142D01*
X140097901Y-63272356D01*
X140097891Y-63272374D01*
X140094457Y-63279738D01*
X140085572Y-63295628D01*
X140079363Y-63305034D01*
X140043893Y-63388020D01*
X140042254Y-63391688D01*
X140005426Y-63470664D01*
X140005424Y-63470671D01*
X140002425Y-63481860D01*
X139996681Y-63498475D01*
X139990899Y-63512005D01*
X139990896Y-63512014D01*
X139971576Y-63596659D01*
X139970460Y-63601158D01*
X139948793Y-63682022D01*
X139947483Y-63696992D01*
X139944847Y-63713769D01*
X139940809Y-63731459D01*
X139940809Y-63731464D01*
X139937066Y-63814777D01*
X139936719Y-63820016D01*
X139929723Y-63899995D01*
X139929723Y-63900003D01*
X136070500Y-63900003D01*
X136070499Y-63344383D01*
X136070971Y-63333576D01*
X136073469Y-63305034D01*
X136075659Y-63280000D01*
X136072406Y-63242827D01*
X136070971Y-63226421D01*
X136070499Y-63215613D01*
X136070499Y-62382129D01*
X136070498Y-62382123D01*
X136070497Y-62382116D01*
X136064091Y-62322517D01*
X136041331Y-62261495D01*
X136013797Y-62187671D01*
X136013795Y-62187668D01*
X135936421Y-62084309D01*
X135912004Y-62018848D01*
X135926855Y-61950575D01*
X135936416Y-61935696D01*
X136013796Y-61832331D01*
X136064091Y-61697483D01*
X136070500Y-61637873D01*
X136070499Y-60869998D01*
X139479700Y-60869998D01*
X139486750Y-60955098D01*
X139487061Y-60960071D01*
X139490819Y-61048523D01*
X139490820Y-61048534D01*
X139495092Y-61068355D01*
X139497451Y-61084238D01*
X139498865Y-61101301D01*
X139498865Y-61101306D01*
X139520660Y-61187372D01*
X139521670Y-61191685D01*
X139541044Y-61281575D01*
X139541046Y-61281582D01*
X139547333Y-61297228D01*
X139552477Y-61313010D01*
X139555843Y-61326300D01*
X139585571Y-61394075D01*
X139592875Y-61410725D01*
X139594377Y-61414300D01*
X139629934Y-61502787D01*
X139629935Y-61502788D01*
X139636981Y-61514232D01*
X139644943Y-61529428D01*
X139649076Y-61538850D01*
X139701366Y-61618886D01*
X139703147Y-61621693D01*
X139754930Y-61705794D01*
X139761543Y-61713308D01*
X139772263Y-61727402D01*
X139776019Y-61733151D01*
X139776021Y-61733153D01*
X139843117Y-61806040D01*
X139844930Y-61808054D01*
X139912436Y-61884755D01*
X139917564Y-61888895D01*
X139930882Y-61901377D01*
X139933216Y-61903913D01*
X140009875Y-61963578D01*
X140014062Y-61966837D01*
X140015795Y-61968211D01*
X140097920Y-62034523D01*
X140097922Y-62034524D01*
X140100678Y-62036064D01*
X140116360Y-62046460D01*
X140116367Y-62046465D01*
X140116371Y-62046467D01*
X140116374Y-62046470D01*
X140209507Y-62096870D01*
X140210785Y-62097573D01*
X140264637Y-62127657D01*
X140306051Y-62150793D01*
X140308849Y-62152058D01*
X140315695Y-62155097D01*
X140315794Y-62154873D01*
X140320491Y-62156933D01*
X140320497Y-62156936D01*
X140423950Y-62192451D01*
X140424557Y-62192662D01*
X140530829Y-62230211D01*
X140530843Y-62230213D01*
X140532392Y-62230617D01*
X140538492Y-62231910D01*
X140539999Y-62232291D01*
X140540019Y-62232298D01*
X140651192Y-62250849D01*
X140651608Y-62250919D01*
X140677416Y-62255345D01*
X140765792Y-62270499D01*
X140765800Y-62270500D01*
X141001044Y-62270500D01*
X141001049Y-62270500D01*
X141055013Y-62261494D01*
X141064883Y-62260252D01*
X141122541Y-62255346D01*
X141171925Y-62242487D01*
X141182760Y-62240177D01*
X141229981Y-62232298D01*
X141284963Y-62213421D01*
X141293941Y-62210716D01*
X141353249Y-62195275D01*
X141396642Y-62175659D01*
X141407436Y-62171377D01*
X141449503Y-62156936D01*
X141503611Y-62127653D01*
X141511541Y-62123721D01*
X141570486Y-62097077D01*
X141607120Y-62072316D01*
X141617503Y-62066018D01*
X141653626Y-62046470D01*
X141704878Y-62006578D01*
X141711584Y-62001710D01*
X141768003Y-61963579D01*
X141797460Y-61935345D01*
X141807075Y-61927035D01*
X141836784Y-61903913D01*
X141883070Y-61853632D01*
X141888490Y-61848100D01*
X141940118Y-61798621D01*
X141962351Y-61768557D01*
X141970799Y-61758331D01*
X141993979Y-61733153D01*
X142033223Y-61673084D01*
X142037317Y-61667196D01*
X142081879Y-61606947D01*
X142097176Y-61576604D01*
X142104074Y-61564637D01*
X142120924Y-61538849D01*
X142151130Y-61469984D01*
X142153927Y-61464045D01*
X142189207Y-61394074D01*
X142198155Y-61364854D01*
X142203153Y-61351383D01*
X142214157Y-61326300D01*
X142233450Y-61250110D01*
X142235088Y-61244255D01*
X142259015Y-61166126D01*
X142259016Y-61166121D01*
X142262460Y-61139227D01*
X142265251Y-61124535D01*
X142271132Y-61101311D01*
X142271134Y-61101305D01*
X142277903Y-61019600D01*
X142278484Y-61014095D01*
X142289298Y-60929654D01*
X142288291Y-60905961D01*
X142288602Y-60890481D01*
X142290300Y-60870000D01*
X142290300Y-60869998D01*
X144929700Y-60869998D01*
X144936750Y-60955098D01*
X144937061Y-60960071D01*
X144940819Y-61048523D01*
X144940820Y-61048534D01*
X144945092Y-61068355D01*
X144947451Y-61084238D01*
X144948865Y-61101301D01*
X144948865Y-61101306D01*
X144970660Y-61187372D01*
X144971670Y-61191685D01*
X144991044Y-61281575D01*
X144991046Y-61281582D01*
X144997333Y-61297228D01*
X145002477Y-61313010D01*
X145005843Y-61326300D01*
X145035571Y-61394075D01*
X145042875Y-61410725D01*
X145044377Y-61414300D01*
X145079934Y-61502787D01*
X145079935Y-61502788D01*
X145086981Y-61514232D01*
X145094943Y-61529428D01*
X145099076Y-61538850D01*
X145151366Y-61618886D01*
X145153147Y-61621693D01*
X145204930Y-61705794D01*
X145211543Y-61713308D01*
X145222263Y-61727402D01*
X145226019Y-61733151D01*
X145226021Y-61733153D01*
X145293117Y-61806040D01*
X145294930Y-61808054D01*
X145362436Y-61884755D01*
X145367564Y-61888895D01*
X145380882Y-61901377D01*
X145383216Y-61903913D01*
X145459875Y-61963578D01*
X145464062Y-61966837D01*
X145465795Y-61968211D01*
X145547920Y-62034523D01*
X145547922Y-62034524D01*
X145550678Y-62036064D01*
X145566360Y-62046460D01*
X145566367Y-62046465D01*
X145566371Y-62046467D01*
X145566374Y-62046470D01*
X145659507Y-62096870D01*
X145660785Y-62097573D01*
X145714637Y-62127657D01*
X145756051Y-62150793D01*
X145758849Y-62152058D01*
X145765695Y-62155097D01*
X145765794Y-62154873D01*
X145770491Y-62156933D01*
X145770497Y-62156936D01*
X145873950Y-62192451D01*
X145874557Y-62192662D01*
X145980829Y-62230211D01*
X145980843Y-62230213D01*
X145982392Y-62230617D01*
X145988492Y-62231910D01*
X145989999Y-62232291D01*
X145990019Y-62232298D01*
X146101192Y-62250849D01*
X146101608Y-62250919D01*
X146127416Y-62255345D01*
X146215792Y-62270499D01*
X146215800Y-62270500D01*
X146451044Y-62270500D01*
X146451049Y-62270500D01*
X146505013Y-62261494D01*
X146514883Y-62260252D01*
X146572541Y-62255346D01*
X146621925Y-62242487D01*
X146632760Y-62240177D01*
X146679981Y-62232298D01*
X146734963Y-62213421D01*
X146743941Y-62210716D01*
X146803249Y-62195275D01*
X146846642Y-62175659D01*
X146857436Y-62171377D01*
X146899503Y-62156936D01*
X146953611Y-62127653D01*
X146961541Y-62123721D01*
X147020486Y-62097077D01*
X147057120Y-62072316D01*
X147067503Y-62066018D01*
X147103626Y-62046470D01*
X147154878Y-62006578D01*
X147161584Y-62001710D01*
X147218003Y-61963579D01*
X147247460Y-61935345D01*
X147257075Y-61927035D01*
X147286784Y-61903913D01*
X147333070Y-61853632D01*
X147338490Y-61848100D01*
X147390118Y-61798621D01*
X147412351Y-61768557D01*
X147420799Y-61758331D01*
X147443979Y-61733153D01*
X147483223Y-61673084D01*
X147487317Y-61667196D01*
X147531879Y-61606947D01*
X147547176Y-61576604D01*
X147554074Y-61564637D01*
X147570924Y-61538849D01*
X147601130Y-61469984D01*
X147603927Y-61464045D01*
X147639207Y-61394074D01*
X147648155Y-61364854D01*
X147653153Y-61351383D01*
X147664157Y-61326300D01*
X147683450Y-61250110D01*
X147685088Y-61244255D01*
X147709015Y-61166126D01*
X147709016Y-61166121D01*
X147712460Y-61139227D01*
X147715251Y-61124535D01*
X147721132Y-61101311D01*
X147721134Y-61101305D01*
X147727903Y-61019600D01*
X147728484Y-61014095D01*
X147739298Y-60929654D01*
X147738291Y-60905961D01*
X147738602Y-60890481D01*
X147740300Y-60870000D01*
X147733248Y-60784902D01*
X147732938Y-60779943D01*
X147731241Y-60740002D01*
X147729180Y-60691468D01*
X147724906Y-60671640D01*
X147722548Y-60655764D01*
X147721134Y-60638695D01*
X147699325Y-60552577D01*
X147698336Y-60548354D01*
X147678954Y-60458419D01*
X147672665Y-60442770D01*
X147667519Y-60426980D01*
X147664157Y-60413700D01*
X147627092Y-60329202D01*
X147625621Y-60325697D01*
X147590064Y-60237210D01*
X147583021Y-60225771D01*
X147575053Y-60210565D01*
X147570924Y-60201151D01*
X147518639Y-60121122D01*
X147516859Y-60118315D01*
X147465074Y-60034212D01*
X147465071Y-60034209D01*
X147465069Y-60034205D01*
X147458451Y-60026686D01*
X147447727Y-60012584D01*
X147443980Y-60006848D01*
X147420800Y-59981668D01*
X147376876Y-59933953D01*
X147375068Y-59931944D01*
X147307565Y-59855246D01*
X147302439Y-59851107D01*
X147289117Y-59838621D01*
X147286785Y-59836088D01*
X147286783Y-59836086D01*
X147205936Y-59773161D01*
X147204198Y-59771783D01*
X147122080Y-59705477D01*
X147122073Y-59705472D01*
X147119311Y-59703929D01*
X147103643Y-59693542D01*
X147103634Y-59693535D01*
X147103628Y-59693532D01*
X147103626Y-59693530D01*
X147010485Y-59643125D01*
X147009094Y-59642359D01*
X146913961Y-59589213D01*
X146911381Y-59588047D01*
X146904284Y-59584898D01*
X146904188Y-59585119D01*
X146899499Y-59583062D01*
X146796278Y-59547626D01*
X146795233Y-59547262D01*
X146689172Y-59509789D01*
X146687635Y-59509389D01*
X146681549Y-59508098D01*
X146679995Y-59507704D01*
X146568772Y-59489144D01*
X146568227Y-59489051D01*
X146454210Y-59469500D01*
X146454200Y-59469500D01*
X146451049Y-59469500D01*
X146218951Y-59469500D01*
X146164993Y-59478503D01*
X146155101Y-59479747D01*
X146097470Y-59484652D01*
X146097461Y-59484653D01*
X146048077Y-59497511D01*
X146037250Y-59499819D01*
X145990012Y-59507703D01*
X145935068Y-59526566D01*
X145926051Y-59529284D01*
X145866749Y-59544725D01*
X145866743Y-59544727D01*
X145823361Y-59564337D01*
X145812553Y-59568624D01*
X145770504Y-59583060D01*
X145770498Y-59583063D01*
X145716396Y-59612341D01*
X145708460Y-59616275D01*
X145649514Y-59642922D01*
X145612883Y-59667679D01*
X145602470Y-59673994D01*
X145566379Y-59693526D01*
X145566367Y-59693533D01*
X145515126Y-59733416D01*
X145508402Y-59738297D01*
X145452001Y-59776417D01*
X145451994Y-59776423D01*
X145422546Y-59804644D01*
X145412918Y-59812967D01*
X145383217Y-59836085D01*
X145383209Y-59836093D01*
X145336925Y-59886369D01*
X145331500Y-59891905D01*
X145279882Y-59941378D01*
X145279880Y-59941380D01*
X145257657Y-59971427D01*
X145249198Y-59981668D01*
X145226021Y-60006846D01*
X145186781Y-60066906D01*
X145182671Y-60072814D01*
X145138124Y-60133047D01*
X145138119Y-60133055D01*
X145122826Y-60163384D01*
X145115918Y-60175370D01*
X145099076Y-60201149D01*
X145068887Y-60269974D01*
X145066060Y-60275975D01*
X145039189Y-60329274D01*
X145030791Y-60345930D01*
X145021847Y-60375131D01*
X145016842Y-60388620D01*
X145005845Y-60413691D01*
X145005845Y-60413692D01*
X144986552Y-60489872D01*
X144984913Y-60495735D01*
X144960984Y-60573877D01*
X144960983Y-60573879D01*
X144957538Y-60600777D01*
X144954750Y-60615454D01*
X144948867Y-60638687D01*
X144948864Y-60638706D01*
X144942097Y-60720377D01*
X144941517Y-60725887D01*
X144930702Y-60810344D01*
X144930701Y-60810345D01*
X144931707Y-60834025D01*
X144931396Y-60849520D01*
X144929700Y-60869998D01*
X142290300Y-60869998D01*
X142283248Y-60784902D01*
X142282938Y-60779943D01*
X142281241Y-60740002D01*
X142279180Y-60691468D01*
X142274906Y-60671640D01*
X142272548Y-60655764D01*
X142271134Y-60638695D01*
X142249325Y-60552577D01*
X142248336Y-60548354D01*
X142228954Y-60458419D01*
X142222665Y-60442770D01*
X142217519Y-60426980D01*
X142214157Y-60413700D01*
X142177092Y-60329202D01*
X142175621Y-60325697D01*
X142140064Y-60237210D01*
X142133021Y-60225771D01*
X142125053Y-60210565D01*
X142120924Y-60201151D01*
X142068639Y-60121122D01*
X142066859Y-60118315D01*
X142015074Y-60034212D01*
X142015071Y-60034209D01*
X142015069Y-60034205D01*
X142008451Y-60026686D01*
X141997727Y-60012584D01*
X141993980Y-60006848D01*
X141970800Y-59981668D01*
X141926876Y-59933953D01*
X141925068Y-59931944D01*
X141857565Y-59855246D01*
X141852439Y-59851107D01*
X141839117Y-59838621D01*
X141836785Y-59836088D01*
X141836783Y-59836086D01*
X141755936Y-59773161D01*
X141754198Y-59771783D01*
X141672080Y-59705477D01*
X141672073Y-59705472D01*
X141669311Y-59703929D01*
X141653643Y-59693542D01*
X141653634Y-59693535D01*
X141653628Y-59693532D01*
X141653626Y-59693530D01*
X141560485Y-59643125D01*
X141559094Y-59642359D01*
X141463961Y-59589213D01*
X141461381Y-59588047D01*
X141454284Y-59584898D01*
X141454188Y-59585119D01*
X141449499Y-59583062D01*
X141346278Y-59547626D01*
X141345233Y-59547262D01*
X141239172Y-59509789D01*
X141237635Y-59509389D01*
X141231549Y-59508098D01*
X141229995Y-59507704D01*
X141118772Y-59489144D01*
X141118227Y-59489051D01*
X141004210Y-59469500D01*
X141004200Y-59469500D01*
X141001049Y-59469500D01*
X140768951Y-59469500D01*
X140714993Y-59478503D01*
X140705101Y-59479747D01*
X140647470Y-59484652D01*
X140647461Y-59484653D01*
X140598077Y-59497511D01*
X140587250Y-59499819D01*
X140540012Y-59507703D01*
X140485068Y-59526566D01*
X140476051Y-59529284D01*
X140416749Y-59544725D01*
X140416743Y-59544727D01*
X140373361Y-59564337D01*
X140362553Y-59568624D01*
X140320504Y-59583060D01*
X140320498Y-59583063D01*
X140266396Y-59612341D01*
X140258460Y-59616275D01*
X140199514Y-59642922D01*
X140162883Y-59667679D01*
X140152470Y-59673994D01*
X140116379Y-59693526D01*
X140116367Y-59693533D01*
X140065126Y-59733416D01*
X140058402Y-59738297D01*
X140002001Y-59776417D01*
X140001994Y-59776423D01*
X139972546Y-59804644D01*
X139962918Y-59812967D01*
X139933217Y-59836085D01*
X139933209Y-59836093D01*
X139886925Y-59886369D01*
X139881500Y-59891905D01*
X139829882Y-59941378D01*
X139829880Y-59941380D01*
X139807657Y-59971427D01*
X139799198Y-59981668D01*
X139776021Y-60006846D01*
X139736781Y-60066906D01*
X139732671Y-60072814D01*
X139688124Y-60133047D01*
X139688119Y-60133055D01*
X139672826Y-60163384D01*
X139665918Y-60175370D01*
X139649076Y-60201149D01*
X139618887Y-60269974D01*
X139616060Y-60275975D01*
X139589189Y-60329274D01*
X139580791Y-60345930D01*
X139571847Y-60375131D01*
X139566842Y-60388620D01*
X139555845Y-60413691D01*
X139555845Y-60413692D01*
X139536552Y-60489872D01*
X139534913Y-60495735D01*
X139510984Y-60573877D01*
X139510983Y-60573879D01*
X139507538Y-60600777D01*
X139504750Y-60615454D01*
X139498867Y-60638687D01*
X139498864Y-60638706D01*
X139492097Y-60720377D01*
X139491517Y-60725887D01*
X139480702Y-60810344D01*
X139480701Y-60810345D01*
X139481707Y-60834025D01*
X139481396Y-60849520D01*
X139479700Y-60869998D01*
X136070499Y-60869998D01*
X136070499Y-60804383D01*
X136070971Y-60793576D01*
X136075659Y-60740000D01*
X136075659Y-60739999D01*
X136070971Y-60686421D01*
X136070499Y-60675613D01*
X136070499Y-59842129D01*
X136070498Y-59842123D01*
X136070497Y-59842116D01*
X136064091Y-59782517D01*
X136061817Y-59776421D01*
X136013797Y-59647671D01*
X136013793Y-59647664D01*
X135927547Y-59532455D01*
X135927544Y-59532452D01*
X135812335Y-59446206D01*
X135812328Y-59446202D01*
X135677482Y-59395908D01*
X135677483Y-59395908D01*
X135617883Y-59389501D01*
X135617881Y-59389500D01*
X135617873Y-59389500D01*
X135617865Y-59389500D01*
X134784380Y-59389500D01*
X134773573Y-59389028D01*
X134747024Y-59386705D01*
X134720001Y-59384341D01*
X134719998Y-59384341D01*
X134666424Y-59389028D01*
X134655617Y-59389500D01*
X132022129Y-59389500D01*
X132022123Y-59389501D01*
X131962516Y-59395908D01*
X131827671Y-59446202D01*
X131827664Y-59446206D01*
X131712455Y-59532452D01*
X131712452Y-59532455D01*
X131626206Y-59647664D01*
X131626202Y-59647671D01*
X131575908Y-59782517D01*
X131569877Y-59838621D01*
X131569501Y-59842123D01*
X131569500Y-59842135D01*
X131569500Y-61637870D01*
X131569501Y-61637876D01*
X131575908Y-61697483D01*
X131626202Y-61832328D01*
X131626203Y-61832330D01*
X131703578Y-61935689D01*
X131727995Y-62001153D01*
X131713144Y-62069426D01*
X131703578Y-62084309D01*
X131693168Y-62098216D01*
X131626203Y-62187669D01*
X131626202Y-62187671D01*
X131575908Y-62322517D01*
X131569501Y-62382116D01*
X131569501Y-62382123D01*
X131569500Y-62382135D01*
X131569500Y-64177870D01*
X131569501Y-64177876D01*
X131575908Y-64237483D01*
X131626202Y-64372328D01*
X131626206Y-64372335D01*
X131703889Y-64476105D01*
X131728307Y-64541569D01*
X131713456Y-64609842D01*
X131703890Y-64624727D01*
X131626647Y-64727910D01*
X131626645Y-64727913D01*
X131576403Y-64862620D01*
X131576401Y-64862627D01*
X131570000Y-64922155D01*
X131570000Y-65570000D01*
X134274428Y-65570000D01*
X134251318Y-65605960D01*
X134210000Y-65746673D01*
X134210000Y-65893327D01*
X134251318Y-66034040D01*
X134274428Y-66070000D01*
X131570000Y-66070000D01*
X131570000Y-66717844D01*
X131576401Y-66777372D01*
X131576403Y-66777379D01*
X131626645Y-66912086D01*
X131626646Y-66912088D01*
X131703890Y-67015272D01*
X131728307Y-67080736D01*
X131713456Y-67149009D01*
X131703890Y-67163894D01*
X131626204Y-67267669D01*
X131626202Y-67267671D01*
X131575908Y-67402517D01*
X131569501Y-67462116D01*
X131569501Y-67462123D01*
X131569500Y-67462135D01*
X131569500Y-69257870D01*
X131569501Y-69257876D01*
X131575908Y-69317483D01*
X131626202Y-69452328D01*
X131626203Y-69452330D01*
X131703578Y-69555689D01*
X131727995Y-69621153D01*
X131713144Y-69689426D01*
X131703578Y-69704311D01*
X131626203Y-69807669D01*
X131626202Y-69807671D01*
X131575908Y-69942517D01*
X131569501Y-70002116D01*
X131569501Y-70002123D01*
X131569500Y-70002135D01*
X131569500Y-71797870D01*
X131569501Y-71797876D01*
X131575908Y-71857483D01*
X131626202Y-71992328D01*
X131626203Y-71992330D01*
X131703578Y-72095689D01*
X131727995Y-72161153D01*
X131713144Y-72229426D01*
X131703578Y-72244311D01*
X131626203Y-72347669D01*
X131626202Y-72347671D01*
X131575908Y-72482517D01*
X131569501Y-72542116D01*
X131569501Y-72542123D01*
X131569500Y-72542135D01*
X131569500Y-72695500D01*
X131549815Y-72762539D01*
X131497011Y-72808294D01*
X131445500Y-72819500D01*
X128750227Y-72819500D01*
X128683188Y-72799815D01*
X128648652Y-72766623D01*
X128513494Y-72573597D01*
X128346402Y-72406506D01*
X128346395Y-72406501D01*
X128152834Y-72270967D01*
X128152830Y-72270965D01*
X128152828Y-72270964D01*
X127938663Y-72171097D01*
X127938659Y-72171096D01*
X127938655Y-72171094D01*
X127710413Y-72109938D01*
X127710403Y-72109936D01*
X127475001Y-72089341D01*
X127474999Y-72089341D01*
X127239596Y-72109936D01*
X127239586Y-72109938D01*
X127011344Y-72171094D01*
X127011335Y-72171098D01*
X126797171Y-72270964D01*
X126797169Y-72270965D01*
X126603597Y-72406505D01*
X126436505Y-72573597D01*
X126300965Y-72767169D01*
X126300964Y-72767171D01*
X126201098Y-72981335D01*
X126201094Y-72981344D01*
X126139938Y-73209586D01*
X126139936Y-73209596D01*
X126119341Y-73444999D01*
X126119341Y-73445000D01*
X126139936Y-73680403D01*
X126139938Y-73680413D01*
X126201094Y-73908655D01*
X126201096Y-73908659D01*
X126201097Y-73908663D01*
X126276563Y-74070500D01*
X126300965Y-74122830D01*
X126300967Y-74122834D01*
X126409281Y-74277521D01*
X126436501Y-74316396D01*
X126436506Y-74316402D01*
X126603597Y-74483493D01*
X126603603Y-74483498D01*
X126789158Y-74613425D01*
X126832783Y-74668002D01*
X126839977Y-74737500D01*
X126808454Y-74799855D01*
X126789158Y-74816575D01*
X126603597Y-74946505D01*
X126436505Y-75113597D01*
X126300965Y-75307169D01*
X126300964Y-75307171D01*
X126201098Y-75521335D01*
X126201094Y-75521344D01*
X126139938Y-75749586D01*
X126139936Y-75749596D01*
X126119341Y-75984999D01*
X126119341Y-75985000D01*
X125000000Y-75985000D01*
X125000000Y-59124000D01*
X125019685Y-59056961D01*
X125072489Y-59011206D01*
X125124000Y-59000000D01*
X165376000Y-59000000D01*
X165443039Y-59019685D01*
G37*
%TD.AperFunction*%
%TD*%
M02*
