M48
; DRILL file {KiCad 7.0.10+dfsg-1} date Thu Feb  1 07:38:55 2024
; FORMAT={-:-/ absolute / inch / decimal}
; #@! TF.CreationDate,2024-02-01T07:38:55+01:00
; #@! TF.GenerationSoftware,Kicad,Pcbnew,7.0.10+dfsg-1
; #@! TF.FileFunction,Plated,1,2,PTH
FMAT,2
INCH
; #@! TA.AperFunction,Plated,PTH,ComponentDrill
T1C0.0394
; #@! TA.AperFunction,Plated,PTH,ComponentDrill
T2C0.0402
; #@! TA.AperFunction,Plated,PTH,ComponentDrill
T3C0.0433
%
G90
G05
T1
X5.025Y-3.25
X5.125Y-3.25
X5.225Y-3.25
X5.325Y-3.25
T2
X4.8404Y-2.8467
X4.8404Y-2.9467
X4.8404Y-3.0467
X4.8404Y-3.1467
X4.8404Y-3.2467
X4.8404Y-3.3467
X4.8404Y-3.4467
X4.8404Y-3.5467
X4.8404Y-3.6467
X4.8404Y-3.7467
X4.8404Y-3.8467
X4.8404Y-3.9467
X4.8404Y-4.0467
X4.8404Y-4.1467
X4.8404Y-4.2467
X4.8404Y-4.3467
X4.8404Y-4.4467
X4.8404Y-4.5467
X4.8404Y-4.6467
X4.8404Y-4.7467
X5.0904Y-4.7376
X5.1904Y-4.7376
X5.2904Y-4.7376
X5.5404Y-2.8467
X5.5404Y-2.9467
X5.5404Y-3.0467
X5.5404Y-3.1467
X5.5404Y-3.2467
X5.5404Y-3.3467
X5.5404Y-3.4467
X5.5404Y-3.5467
X5.5404Y-3.6467
X5.5404Y-3.7467
X5.5404Y-3.8467
X5.5404Y-3.9467
X5.5404Y-4.0467
X5.5404Y-4.1467
X5.5404Y-4.2467
X5.5404Y-4.3467
X5.5404Y-4.4467
X5.5404Y-4.5467
X5.5404Y-4.6467
X5.5404Y-4.7467
T3
X4.5691Y-5.1
X4.5691Y-5.2772
X4.825Y-5.1
X4.825Y-5.2772
X5.047Y-5.4114
X5.047Y-5.5886
X5.303Y-5.4114
X5.303Y-5.5886
X5.522Y-5.1114
X5.522Y-5.2886
X5.778Y-5.1114
X5.778Y-5.2886
M30
