%TF.GenerationSoftware,KiCad,Pcbnew,7.0.10+dfsg-1*%
%TF.CreationDate,2024-01-31T12:43:45+01:00*%
%TF.ProjectId,pcb_chibi,7063625f-6368-4696-9269-2e6b69636164,rev?*%
%TF.SameCoordinates,Original*%
%TF.FileFunction,Copper,L2,Bot*%
%TF.FilePolarity,Positive*%
%FSLAX46Y46*%
G04 Gerber Fmt 4.6, Leading zero omitted, Abs format (unit mm)*
G04 Created by KiCad (PCBNEW 7.0.10+dfsg-1) date 2024-01-31 12:43:45*
%MOMM*%
%LPD*%
G01*
G04 APERTURE LIST*
%TA.AperFunction,ComponentPad*%
%ADD10C,2.000000*%
%TD*%
%TA.AperFunction,ComponentPad*%
%ADD11O,1.600000X2.000000*%
%TD*%
%TA.AperFunction,SMDPad,CuDef*%
%ADD12R,1.700000X3.500000*%
%TD*%
%TA.AperFunction,ComponentPad*%
%ADD13O,1.700000X1.700000*%
%TD*%
%TA.AperFunction,ComponentPad*%
%ADD14R,1.700000X1.700000*%
%TD*%
%TA.AperFunction,SMDPad,CuDef*%
%ADD15R,3.500000X1.700000*%
%TD*%
%TA.AperFunction,Conductor*%
%ADD16C,0.250000*%
%TD*%
G04 APERTURE END LIST*
D10*
%TO.P,SW1,1,1*%
%TO.N,+3V3*%
X122555000Y-134040000D03*
X116055000Y-134040000D03*
%TO.P,SW1,2,2*%
%TO.N,Net-(U1-GPIO2)*%
X122555000Y-129540000D03*
X116055000Y-129540000D03*
%TD*%
%TO.P,SW3,1,1*%
%TO.N,+3V3*%
X146760000Y-134330000D03*
X140260000Y-134330000D03*
%TO.P,SW3,2,2*%
%TO.N,Net-(U1-GPIO4)*%
X146760000Y-129830000D03*
X140260000Y-129830000D03*
%TD*%
D11*
%TO.P,Display,4,SDA*%
%TO.N,Net-(Brd1-SDA)*%
X135255000Y-82550000D03*
%TO.P,Display,3,SCL*%
%TO.N,Net-(Brd1-SCL)*%
X132715000Y-82550000D03*
%TO.P,Display,2,VCC*%
%TO.N,+3V3*%
X130175000Y-82550000D03*
%TO.P,Display,1,GND*%
%TO.N,GND*%
X127635000Y-82550000D03*
%TD*%
D10*
%TO.P,SW2,1,1*%
%TO.N,+3V3*%
X134695000Y-141950000D03*
X128195000Y-141950000D03*
%TO.P,SW2,2,2*%
%TO.N,Net-(U1-GPIO3)*%
X134695000Y-137450000D03*
X128195000Y-137450000D03*
%TD*%
D12*
%TO.P,Pico,43,SWDIO*%
%TO.N,unconnected-(U1-SWDIO-Pad43)*%
X129295000Y-121235000D03*
D13*
X129295000Y-120335000D03*
D12*
%TO.P,Pico,42,GND*%
%TO.N,unconnected-(U1-GND-Pad42)*%
X131835000Y-121235000D03*
D14*
X131835000Y-120335000D03*
D12*
%TO.P,Pico,41,SWCLK*%
%TO.N,unconnected-(U1-SWCLK-Pad41)*%
X134375000Y-121235000D03*
D13*
X134375000Y-120335000D03*
D15*
%TO.P,Pico,40,VBUS*%
%TO.N,unconnected-(U1-VBUS-Pad40)*%
X122045000Y-72305000D03*
D13*
X122945000Y-72305000D03*
D15*
%TO.P,Pico,39,VSYS*%
%TO.N,unconnected-(U1-VSYS-Pad39)*%
X122045000Y-74845000D03*
D13*
X122945000Y-74845000D03*
D15*
%TO.P,Pico,38,GND*%
%TO.N,GND*%
X122045000Y-77385000D03*
D14*
X122945000Y-77385000D03*
D15*
%TO.P,Pico,37,3V3_EN*%
%TO.N,unconnected-(U1-3V3_EN-Pad37)*%
X122045000Y-79925000D03*
D13*
X122945000Y-79925000D03*
D15*
%TO.P,Pico,36,3V3*%
%TO.N,+3V3*%
X122045000Y-82465000D03*
D13*
X122945000Y-82465000D03*
D15*
%TO.P,Pico,35,ADC_VREF*%
%TO.N,unconnected-(U1-ADC_VREF-Pad35)*%
X122045000Y-85005000D03*
D13*
X122945000Y-85005000D03*
D15*
%TO.P,Pico,34,GPIO28_ADC2*%
%TO.N,unconnected-(U1-GPIO28_ADC2-Pad34)*%
X122045000Y-87545000D03*
D13*
X122945000Y-87545000D03*
D15*
%TO.P,Pico,33,AGND*%
%TO.N,unconnected-(U1-AGND-Pad33)*%
X122045000Y-90085000D03*
D14*
X122945000Y-90085000D03*
D15*
%TO.P,Pico,32,GPIO27_ADC1*%
%TO.N,unconnected-(U1-GPIO27_ADC1-Pad32)*%
X122045000Y-92625000D03*
D13*
X122945000Y-92625000D03*
D15*
%TO.P,Pico,31,GPIO26_ADC0*%
%TO.N,unconnected-(U1-GPIO26_ADC0-Pad31)*%
X122045000Y-95165000D03*
D13*
X122945000Y-95165000D03*
D15*
%TO.P,Pico,30,RUN*%
%TO.N,unconnected-(U1-RUN-Pad30)*%
X122045000Y-97705000D03*
D13*
X122945000Y-97705000D03*
D15*
%TO.P,Pico,29,GPIO22*%
%TO.N,unconnected-(U1-GPIO22-Pad29)*%
X122045000Y-100245000D03*
D13*
X122945000Y-100245000D03*
D15*
%TO.P,Pico,28,GND*%
%TO.N,GND*%
X122045000Y-102785000D03*
D14*
X122945000Y-102785000D03*
D15*
%TO.P,Pico,27,GPIO21*%
%TO.N,unconnected-(U1-GPIO21-Pad27)*%
X122045000Y-105325000D03*
D13*
X122945000Y-105325000D03*
D15*
%TO.P,Pico,26,GPIO20*%
%TO.N,unconnected-(U1-GPIO20-Pad26)*%
X122045000Y-107865000D03*
D13*
X122945000Y-107865000D03*
D15*
%TO.P,Pico,25,GPIO19*%
%TO.N,unconnected-(U1-GPIO19-Pad25)*%
X122045000Y-110405000D03*
D13*
X122945000Y-110405000D03*
D15*
%TO.P,Pico,24,GPIO18*%
%TO.N,unconnected-(U1-GPIO18-Pad24)*%
X122045000Y-112945000D03*
D13*
X122945000Y-112945000D03*
D15*
%TO.P,Pico,23,GND*%
%TO.N,GND*%
X122045000Y-115485000D03*
D14*
X122945000Y-115485000D03*
D15*
%TO.P,Pico,22,GPIO17*%
%TO.N,unconnected-(U1-GPIO17-Pad22)*%
X122045000Y-118025000D03*
D13*
X122945000Y-118025000D03*
D15*
%TO.P,Pico,21,GPIO16*%
%TO.N,unconnected-(U1-GPIO16-Pad21)*%
X122045000Y-120565000D03*
D13*
X122945000Y-120565000D03*
D15*
%TO.P,Pico,20,GPIO15*%
%TO.N,unconnected-(U1-GPIO15-Pad20)*%
X141625000Y-120565000D03*
D13*
X140725000Y-120565000D03*
D15*
%TO.P,Pico,19,GPIO14*%
%TO.N,unconnected-(U1-GPIO14-Pad19)*%
X141625000Y-118025000D03*
D13*
X140725000Y-118025000D03*
D15*
%TO.P,Pico,18,GND*%
%TO.N,GND*%
X141625000Y-115485000D03*
D14*
X140725000Y-115485000D03*
D15*
%TO.P,Pico,17,GPIO13*%
%TO.N,unconnected-(U1-GPIO13-Pad17)*%
X141625000Y-112945000D03*
D13*
X140725000Y-112945000D03*
D15*
%TO.P,Pico,16,GPIO12*%
%TO.N,unconnected-(U1-GPIO12-Pad16)*%
X141625000Y-110405000D03*
D13*
X140725000Y-110405000D03*
D15*
%TO.P,Pico,15,GPIO11*%
%TO.N,unconnected-(U1-GPIO11-Pad15)*%
X141625000Y-107865000D03*
D13*
X140725000Y-107865000D03*
D15*
%TO.P,Pico,14,GPIO10*%
%TO.N,unconnected-(U1-GPIO10-Pad14)*%
X141625000Y-105325000D03*
D13*
X140725000Y-105325000D03*
D15*
%TO.P,Pico,13,GND*%
%TO.N,GND*%
X141625000Y-102785000D03*
D14*
X140725000Y-102785000D03*
D15*
%TO.P,Pico,12,GPIO9*%
%TO.N,unconnected-(U1-GPIO9-Pad12)*%
X141625000Y-100245000D03*
D13*
X140725000Y-100245000D03*
D15*
%TO.P,Pico,11,GPIO8*%
%TO.N,unconnected-(U1-GPIO8-Pad11)*%
X141625000Y-97705000D03*
D13*
X140725000Y-97705000D03*
D15*
%TO.P,Pico,10,GPIO7*%
%TO.N,unconnected-(U1-GPIO7-Pad10)*%
X141625000Y-95165000D03*
D13*
X140725000Y-95165000D03*
D15*
%TO.P,Pico,9,GPIO6*%
%TO.N,unconnected-(U1-GPIO6-Pad9)*%
X141625000Y-92625000D03*
D13*
X140725000Y-92625000D03*
D15*
%TO.P,Pico,8,GND*%
%TO.N,GND*%
X141625000Y-90085000D03*
D14*
X140725000Y-90085000D03*
D15*
%TO.P,Pico,7,GPIO5*%
%TO.N,unconnected-(U1-GPIO5-Pad7)*%
X141625000Y-87545000D03*
D13*
X140725000Y-87545000D03*
D15*
%TO.P,Pico,6,GPIO4*%
%TO.N,Net-(U1-GPIO4)*%
X141625000Y-85005000D03*
D13*
X140725000Y-85005000D03*
D15*
%TO.P,Pico,5,GPIO3*%
%TO.N,Net-(U1-GPIO3)*%
X141625000Y-82465000D03*
D13*
X140725000Y-82465000D03*
D15*
%TO.P,Pico,4,GPIO2*%
%TO.N,Net-(U1-GPIO2)*%
X141625000Y-79925000D03*
D13*
X140725000Y-79925000D03*
D15*
%TO.P,Pico,3,GND*%
%TO.N,GND*%
X141625000Y-77385000D03*
D14*
X140725000Y-77385000D03*
D15*
%TO.P,Pico,2,GPIO1*%
%TO.N,Net-(Brd1-SCL)*%
X141625000Y-74845000D03*
D13*
X140725000Y-74845000D03*
D15*
%TO.P,Pico,1,GPIO0*%
%TO.N,Net-(Brd1-SDA)*%
X141625000Y-72305000D03*
D13*
X140725000Y-72305000D03*
%TD*%
D16*
%TO.N,Net-(Brd1-SDA)*%
X135255000Y-82550000D02*
X135255000Y-77775000D01*
X135255000Y-77775000D02*
X140725000Y-72305000D01*
%TD*%
%TA.AperFunction,Conductor*%
%TO.N,GND*%
G36*
X151708039Y-63519685D02*
G01*
X151753794Y-63572489D01*
X151765000Y-63624000D01*
X151765000Y-145926000D01*
X151745315Y-145993039D01*
X151692511Y-146038794D01*
X151641000Y-146050000D01*
X110614000Y-146050000D01*
X110546961Y-146030315D01*
X110501206Y-145977511D01*
X110490000Y-145926000D01*
X110490000Y-141950005D01*
X126689357Y-141950005D01*
X126709890Y-142197812D01*
X126709892Y-142197824D01*
X126770936Y-142438881D01*
X126870826Y-142666606D01*
X127006833Y-142874782D01*
X127006836Y-142874785D01*
X127175256Y-143057738D01*
X127371491Y-143210474D01*
X127590190Y-143328828D01*
X127825386Y-143409571D01*
X128070665Y-143450500D01*
X128319335Y-143450500D01*
X128564614Y-143409571D01*
X128799810Y-143328828D01*
X129018509Y-143210474D01*
X129214744Y-143057738D01*
X129383164Y-142874785D01*
X129519173Y-142666607D01*
X129619063Y-142438881D01*
X129680108Y-142197821D01*
X129700643Y-141950005D01*
X133189357Y-141950005D01*
X133209890Y-142197812D01*
X133209892Y-142197824D01*
X133270936Y-142438881D01*
X133370826Y-142666606D01*
X133506833Y-142874782D01*
X133506836Y-142874785D01*
X133675256Y-143057738D01*
X133871491Y-143210474D01*
X134090190Y-143328828D01*
X134325386Y-143409571D01*
X134570665Y-143450500D01*
X134819335Y-143450500D01*
X135064614Y-143409571D01*
X135299810Y-143328828D01*
X135518509Y-143210474D01*
X135714744Y-143057738D01*
X135883164Y-142874785D01*
X136019173Y-142666607D01*
X136119063Y-142438881D01*
X136180108Y-142197821D01*
X136200643Y-141950000D01*
X136180108Y-141702179D01*
X136119063Y-141461119D01*
X136019173Y-141233393D01*
X135883166Y-141025217D01*
X135861557Y-141001744D01*
X135714744Y-140842262D01*
X135518509Y-140689526D01*
X135518507Y-140689525D01*
X135518506Y-140689524D01*
X135299811Y-140571172D01*
X135299802Y-140571169D01*
X135064616Y-140490429D01*
X134819335Y-140449500D01*
X134570665Y-140449500D01*
X134325383Y-140490429D01*
X134090197Y-140571169D01*
X134090188Y-140571172D01*
X133871493Y-140689524D01*
X133675257Y-140842261D01*
X133506833Y-141025217D01*
X133370826Y-141233393D01*
X133270936Y-141461118D01*
X133209892Y-141702175D01*
X133209890Y-141702187D01*
X133189357Y-141949994D01*
X133189357Y-141950005D01*
X129700643Y-141950005D01*
X129700643Y-141950000D01*
X129680108Y-141702179D01*
X129619063Y-141461119D01*
X129519173Y-141233393D01*
X129383166Y-141025217D01*
X129361557Y-141001744D01*
X129214744Y-140842262D01*
X129018509Y-140689526D01*
X129018507Y-140689525D01*
X129018506Y-140689524D01*
X128799811Y-140571172D01*
X128799802Y-140571169D01*
X128564616Y-140490429D01*
X128319335Y-140449500D01*
X128070665Y-140449500D01*
X127825383Y-140490429D01*
X127590197Y-140571169D01*
X127590188Y-140571172D01*
X127371493Y-140689524D01*
X127175257Y-140842261D01*
X127006833Y-141025217D01*
X126870826Y-141233393D01*
X126770936Y-141461118D01*
X126709892Y-141702175D01*
X126709890Y-141702187D01*
X126689357Y-141949994D01*
X126689357Y-141950005D01*
X110490000Y-141950005D01*
X110490000Y-137450005D01*
X126689357Y-137450005D01*
X126709890Y-137697812D01*
X126709892Y-137697824D01*
X126770936Y-137938881D01*
X126870826Y-138166606D01*
X127006833Y-138374782D01*
X127006836Y-138374785D01*
X127175256Y-138557738D01*
X127371491Y-138710474D01*
X127590190Y-138828828D01*
X127825386Y-138909571D01*
X128070665Y-138950500D01*
X128319335Y-138950500D01*
X128564614Y-138909571D01*
X128799810Y-138828828D01*
X129018509Y-138710474D01*
X129214744Y-138557738D01*
X129383164Y-138374785D01*
X129519173Y-138166607D01*
X129619063Y-137938881D01*
X129680108Y-137697821D01*
X129700643Y-137450005D01*
X133189357Y-137450005D01*
X133209890Y-137697812D01*
X133209892Y-137697824D01*
X133270936Y-137938881D01*
X133370826Y-138166606D01*
X133506833Y-138374782D01*
X133506836Y-138374785D01*
X133675256Y-138557738D01*
X133871491Y-138710474D01*
X134090190Y-138828828D01*
X134325386Y-138909571D01*
X134570665Y-138950500D01*
X134819335Y-138950500D01*
X135064614Y-138909571D01*
X135299810Y-138828828D01*
X135518509Y-138710474D01*
X135714744Y-138557738D01*
X135883164Y-138374785D01*
X136019173Y-138166607D01*
X136119063Y-137938881D01*
X136180108Y-137697821D01*
X136200643Y-137450000D01*
X136180108Y-137202179D01*
X136119063Y-136961119D01*
X136019173Y-136733393D01*
X135883166Y-136525217D01*
X135861557Y-136501744D01*
X135714744Y-136342262D01*
X135518509Y-136189526D01*
X135518507Y-136189525D01*
X135518506Y-136189524D01*
X135299811Y-136071172D01*
X135299802Y-136071169D01*
X135064616Y-135990429D01*
X134819335Y-135949500D01*
X134570665Y-135949500D01*
X134325383Y-135990429D01*
X134090197Y-136071169D01*
X134090188Y-136071172D01*
X133871493Y-136189524D01*
X133675257Y-136342261D01*
X133506833Y-136525217D01*
X133370826Y-136733393D01*
X133270936Y-136961118D01*
X133209892Y-137202175D01*
X133209890Y-137202187D01*
X133189357Y-137449994D01*
X133189357Y-137450005D01*
X129700643Y-137450005D01*
X129700643Y-137450000D01*
X129680108Y-137202179D01*
X129619063Y-136961119D01*
X129519173Y-136733393D01*
X129383166Y-136525217D01*
X129361557Y-136501744D01*
X129214744Y-136342262D01*
X129018509Y-136189526D01*
X129018507Y-136189525D01*
X129018506Y-136189524D01*
X128799811Y-136071172D01*
X128799802Y-136071169D01*
X128564616Y-135990429D01*
X128319335Y-135949500D01*
X128070665Y-135949500D01*
X127825383Y-135990429D01*
X127590197Y-136071169D01*
X127590188Y-136071172D01*
X127371493Y-136189524D01*
X127175257Y-136342261D01*
X127006833Y-136525217D01*
X126870826Y-136733393D01*
X126770936Y-136961118D01*
X126709892Y-137202175D01*
X126709890Y-137202187D01*
X126689357Y-137449994D01*
X126689357Y-137450005D01*
X110490000Y-137450005D01*
X110490000Y-134040005D01*
X114549357Y-134040005D01*
X114569890Y-134287812D01*
X114569892Y-134287824D01*
X114630936Y-134528881D01*
X114730826Y-134756606D01*
X114866833Y-134964782D01*
X114866836Y-134964785D01*
X115035256Y-135147738D01*
X115231491Y-135300474D01*
X115450190Y-135418828D01*
X115685386Y-135499571D01*
X115930665Y-135540500D01*
X116179335Y-135540500D01*
X116424614Y-135499571D01*
X116659810Y-135418828D01*
X116878509Y-135300474D01*
X117074744Y-135147738D01*
X117243164Y-134964785D01*
X117379173Y-134756607D01*
X117479063Y-134528881D01*
X117540108Y-134287821D01*
X117540109Y-134287812D01*
X117560643Y-134040005D01*
X121049357Y-134040005D01*
X121069890Y-134287812D01*
X121069892Y-134287824D01*
X121130936Y-134528881D01*
X121230826Y-134756606D01*
X121366833Y-134964782D01*
X121366836Y-134964785D01*
X121535256Y-135147738D01*
X121731491Y-135300474D01*
X121950190Y-135418828D01*
X122185386Y-135499571D01*
X122430665Y-135540500D01*
X122679335Y-135540500D01*
X122924614Y-135499571D01*
X123159810Y-135418828D01*
X123378509Y-135300474D01*
X123574744Y-135147738D01*
X123743164Y-134964785D01*
X123879173Y-134756607D01*
X123979063Y-134528881D01*
X124029426Y-134330005D01*
X138754357Y-134330005D01*
X138774890Y-134577812D01*
X138774892Y-134577824D01*
X138835936Y-134818881D01*
X138935826Y-135046606D01*
X139071833Y-135254782D01*
X139071836Y-135254785D01*
X139240256Y-135437738D01*
X139436491Y-135590474D01*
X139655190Y-135708828D01*
X139890386Y-135789571D01*
X140135665Y-135830500D01*
X140384335Y-135830500D01*
X140629614Y-135789571D01*
X140864810Y-135708828D01*
X141083509Y-135590474D01*
X141279744Y-135437738D01*
X141448164Y-135254785D01*
X141584173Y-135046607D01*
X141684063Y-134818881D01*
X141745108Y-134577821D01*
X141745109Y-134577812D01*
X141765643Y-134330005D01*
X145254357Y-134330005D01*
X145274890Y-134577812D01*
X145274892Y-134577824D01*
X145335936Y-134818881D01*
X145435826Y-135046606D01*
X145571833Y-135254782D01*
X145571836Y-135254785D01*
X145740256Y-135437738D01*
X145936491Y-135590474D01*
X146155190Y-135708828D01*
X146390386Y-135789571D01*
X146635665Y-135830500D01*
X146884335Y-135830500D01*
X147129614Y-135789571D01*
X147364810Y-135708828D01*
X147583509Y-135590474D01*
X147779744Y-135437738D01*
X147948164Y-135254785D01*
X148084173Y-135046607D01*
X148184063Y-134818881D01*
X148245108Y-134577821D01*
X148245109Y-134577812D01*
X148265643Y-134330005D01*
X148265643Y-134329994D01*
X148245109Y-134082187D01*
X148245107Y-134082175D01*
X148184063Y-133841118D01*
X148084173Y-133613393D01*
X147948166Y-133405217D01*
X147926557Y-133381744D01*
X147779744Y-133222262D01*
X147583509Y-133069526D01*
X147583507Y-133069525D01*
X147583506Y-133069524D01*
X147364811Y-132951172D01*
X147364802Y-132951169D01*
X147129616Y-132870429D01*
X146884335Y-132829500D01*
X146635665Y-132829500D01*
X146390383Y-132870429D01*
X146155197Y-132951169D01*
X146155188Y-132951172D01*
X145936493Y-133069524D01*
X145740257Y-133222261D01*
X145571833Y-133405217D01*
X145435826Y-133613393D01*
X145335936Y-133841118D01*
X145274892Y-134082175D01*
X145274890Y-134082187D01*
X145254357Y-134329994D01*
X145254357Y-134330005D01*
X141765643Y-134330005D01*
X141765643Y-134329994D01*
X141745109Y-134082187D01*
X141745107Y-134082175D01*
X141684063Y-133841118D01*
X141584173Y-133613393D01*
X141448166Y-133405217D01*
X141426557Y-133381744D01*
X141279744Y-133222262D01*
X141083509Y-133069526D01*
X141083507Y-133069525D01*
X141083506Y-133069524D01*
X140864811Y-132951172D01*
X140864802Y-132951169D01*
X140629616Y-132870429D01*
X140384335Y-132829500D01*
X140135665Y-132829500D01*
X139890383Y-132870429D01*
X139655197Y-132951169D01*
X139655188Y-132951172D01*
X139436493Y-133069524D01*
X139240257Y-133222261D01*
X139071833Y-133405217D01*
X138935826Y-133613393D01*
X138835936Y-133841118D01*
X138774892Y-134082175D01*
X138774890Y-134082187D01*
X138754357Y-134329994D01*
X138754357Y-134330005D01*
X124029426Y-134330005D01*
X124040108Y-134287821D01*
X124040109Y-134287812D01*
X124060643Y-134040005D01*
X124060643Y-134039994D01*
X124040109Y-133792187D01*
X124040107Y-133792175D01*
X123979063Y-133551118D01*
X123879173Y-133323393D01*
X123743166Y-133115217D01*
X123701102Y-133069524D01*
X123574744Y-132932262D01*
X123378509Y-132779526D01*
X123378507Y-132779525D01*
X123378506Y-132779524D01*
X123159811Y-132661172D01*
X123159802Y-132661169D01*
X122924616Y-132580429D01*
X122679335Y-132539500D01*
X122430665Y-132539500D01*
X122185383Y-132580429D01*
X121950197Y-132661169D01*
X121950188Y-132661172D01*
X121731493Y-132779524D01*
X121535257Y-132932261D01*
X121366833Y-133115217D01*
X121230826Y-133323393D01*
X121130936Y-133551118D01*
X121069892Y-133792175D01*
X121069890Y-133792187D01*
X121049357Y-134039994D01*
X121049357Y-134040005D01*
X117560643Y-134040005D01*
X117560643Y-134039994D01*
X117540109Y-133792187D01*
X117540107Y-133792175D01*
X117479063Y-133551118D01*
X117379173Y-133323393D01*
X117243166Y-133115217D01*
X117201102Y-133069524D01*
X117074744Y-132932262D01*
X116878509Y-132779526D01*
X116878507Y-132779525D01*
X116878506Y-132779524D01*
X116659811Y-132661172D01*
X116659802Y-132661169D01*
X116424616Y-132580429D01*
X116179335Y-132539500D01*
X115930665Y-132539500D01*
X115685383Y-132580429D01*
X115450197Y-132661169D01*
X115450188Y-132661172D01*
X115231493Y-132779524D01*
X115035257Y-132932261D01*
X114866833Y-133115217D01*
X114730826Y-133323393D01*
X114630936Y-133551118D01*
X114569892Y-133792175D01*
X114569890Y-133792187D01*
X114549357Y-134039994D01*
X114549357Y-134040005D01*
X110490000Y-134040005D01*
X110490000Y-129540005D01*
X114549357Y-129540005D01*
X114569890Y-129787812D01*
X114569892Y-129787824D01*
X114630936Y-130028881D01*
X114730826Y-130256606D01*
X114866833Y-130464782D01*
X114866836Y-130464785D01*
X115035256Y-130647738D01*
X115231491Y-130800474D01*
X115450190Y-130918828D01*
X115685386Y-130999571D01*
X115930665Y-131040500D01*
X116179335Y-131040500D01*
X116424614Y-130999571D01*
X116659810Y-130918828D01*
X116878509Y-130800474D01*
X117074744Y-130647738D01*
X117243164Y-130464785D01*
X117379173Y-130256607D01*
X117479063Y-130028881D01*
X117540108Y-129787821D01*
X117540109Y-129787812D01*
X117560643Y-129540005D01*
X121049357Y-129540005D01*
X121069890Y-129787812D01*
X121069892Y-129787824D01*
X121130936Y-130028881D01*
X121230826Y-130256606D01*
X121366833Y-130464782D01*
X121366836Y-130464785D01*
X121535256Y-130647738D01*
X121731491Y-130800474D01*
X121950190Y-130918828D01*
X122185386Y-130999571D01*
X122430665Y-131040500D01*
X122679335Y-131040500D01*
X122924614Y-130999571D01*
X123159810Y-130918828D01*
X123378509Y-130800474D01*
X123574744Y-130647738D01*
X123743164Y-130464785D01*
X123879173Y-130256607D01*
X123979063Y-130028881D01*
X124029426Y-129830005D01*
X138754357Y-129830005D01*
X138774890Y-130077812D01*
X138774892Y-130077824D01*
X138835936Y-130318881D01*
X138935826Y-130546606D01*
X139071833Y-130754782D01*
X139071836Y-130754785D01*
X139240256Y-130937738D01*
X139436491Y-131090474D01*
X139655190Y-131208828D01*
X139890386Y-131289571D01*
X140135665Y-131330500D01*
X140384335Y-131330500D01*
X140629614Y-131289571D01*
X140864810Y-131208828D01*
X141083509Y-131090474D01*
X141279744Y-130937738D01*
X141448164Y-130754785D01*
X141584173Y-130546607D01*
X141684063Y-130318881D01*
X141745108Y-130077821D01*
X141745109Y-130077812D01*
X141765643Y-129830005D01*
X145254357Y-129830005D01*
X145274890Y-130077812D01*
X145274892Y-130077824D01*
X145335936Y-130318881D01*
X145435826Y-130546606D01*
X145571833Y-130754782D01*
X145571836Y-130754785D01*
X145740256Y-130937738D01*
X145936491Y-131090474D01*
X146155190Y-131208828D01*
X146390386Y-131289571D01*
X146635665Y-131330500D01*
X146884335Y-131330500D01*
X147129614Y-131289571D01*
X147364810Y-131208828D01*
X147583509Y-131090474D01*
X147779744Y-130937738D01*
X147948164Y-130754785D01*
X148084173Y-130546607D01*
X148184063Y-130318881D01*
X148245108Y-130077821D01*
X148245109Y-130077812D01*
X148265643Y-129830005D01*
X148265643Y-129829994D01*
X148245109Y-129582187D01*
X148245107Y-129582175D01*
X148184063Y-129341118D01*
X148084173Y-129113393D01*
X147948166Y-128905217D01*
X147926557Y-128881744D01*
X147779744Y-128722262D01*
X147583509Y-128569526D01*
X147583507Y-128569525D01*
X147583506Y-128569524D01*
X147364811Y-128451172D01*
X147364802Y-128451169D01*
X147129616Y-128370429D01*
X146884335Y-128329500D01*
X146635665Y-128329500D01*
X146390383Y-128370429D01*
X146155197Y-128451169D01*
X146155188Y-128451172D01*
X145936493Y-128569524D01*
X145740257Y-128722261D01*
X145571833Y-128905217D01*
X145435826Y-129113393D01*
X145335936Y-129341118D01*
X145274892Y-129582175D01*
X145274890Y-129582187D01*
X145254357Y-129829994D01*
X145254357Y-129830005D01*
X141765643Y-129830005D01*
X141765643Y-129829994D01*
X141745109Y-129582187D01*
X141745107Y-129582175D01*
X141684063Y-129341118D01*
X141584173Y-129113393D01*
X141448166Y-128905217D01*
X141426557Y-128881744D01*
X141279744Y-128722262D01*
X141083509Y-128569526D01*
X141083507Y-128569525D01*
X141083506Y-128569524D01*
X140864811Y-128451172D01*
X140864802Y-128451169D01*
X140629616Y-128370429D01*
X140384335Y-128329500D01*
X140135665Y-128329500D01*
X139890383Y-128370429D01*
X139655197Y-128451169D01*
X139655188Y-128451172D01*
X139436493Y-128569524D01*
X139240257Y-128722261D01*
X139071833Y-128905217D01*
X138935826Y-129113393D01*
X138835936Y-129341118D01*
X138774892Y-129582175D01*
X138774890Y-129582187D01*
X138754357Y-129829994D01*
X138754357Y-129830005D01*
X124029426Y-129830005D01*
X124040108Y-129787821D01*
X124040109Y-129787812D01*
X124060643Y-129540005D01*
X124060643Y-129539994D01*
X124040109Y-129292187D01*
X124040107Y-129292175D01*
X123979063Y-129051118D01*
X123879173Y-128823393D01*
X123743166Y-128615217D01*
X123701102Y-128569524D01*
X123574744Y-128432262D01*
X123378509Y-128279526D01*
X123378507Y-128279525D01*
X123378506Y-128279524D01*
X123159811Y-128161172D01*
X123159802Y-128161169D01*
X122924616Y-128080429D01*
X122679335Y-128039500D01*
X122430665Y-128039500D01*
X122185383Y-128080429D01*
X121950197Y-128161169D01*
X121950188Y-128161172D01*
X121731493Y-128279524D01*
X121535257Y-128432261D01*
X121366833Y-128615217D01*
X121230826Y-128823393D01*
X121130936Y-129051118D01*
X121069892Y-129292175D01*
X121069890Y-129292187D01*
X121049357Y-129539994D01*
X121049357Y-129540005D01*
X117560643Y-129540005D01*
X117560643Y-129539994D01*
X117540109Y-129292187D01*
X117540107Y-129292175D01*
X117479063Y-129051118D01*
X117379173Y-128823393D01*
X117243166Y-128615217D01*
X117201102Y-128569524D01*
X117074744Y-128432262D01*
X116878509Y-128279526D01*
X116878507Y-128279525D01*
X116878506Y-128279524D01*
X116659811Y-128161172D01*
X116659802Y-128161169D01*
X116424616Y-128080429D01*
X116179335Y-128039500D01*
X115930665Y-128039500D01*
X115685383Y-128080429D01*
X115450197Y-128161169D01*
X115450188Y-128161172D01*
X115231493Y-128279524D01*
X115035257Y-128432261D01*
X114866833Y-128615217D01*
X114730826Y-128823393D01*
X114630936Y-129051118D01*
X114569892Y-129292175D01*
X114569890Y-129292187D01*
X114549357Y-129539994D01*
X114549357Y-129540005D01*
X110490000Y-129540005D01*
X110490000Y-121462870D01*
X119794500Y-121462870D01*
X119794501Y-121462876D01*
X119800908Y-121522483D01*
X119851202Y-121657328D01*
X119851206Y-121657335D01*
X119937452Y-121772544D01*
X119937455Y-121772547D01*
X120052664Y-121858793D01*
X120052671Y-121858797D01*
X120187517Y-121909091D01*
X120187516Y-121909091D01*
X120194444Y-121909835D01*
X120247127Y-121915500D01*
X122880611Y-121915499D01*
X122891419Y-121915971D01*
X122944999Y-121920659D01*
X122945000Y-121920659D01*
X122945001Y-121920659D01*
X122998580Y-121915971D01*
X123009388Y-121915499D01*
X123842871Y-121915499D01*
X123842872Y-121915499D01*
X123902483Y-121909091D01*
X124037331Y-121858796D01*
X124152546Y-121772546D01*
X124238796Y-121657331D01*
X124289091Y-121522483D01*
X124295500Y-121462873D01*
X124295499Y-120629383D01*
X124295971Y-120618576D01*
X124300659Y-120565000D01*
X124300659Y-120564999D01*
X124295971Y-120511421D01*
X124295499Y-120500613D01*
X124295499Y-120335001D01*
X127939341Y-120335001D01*
X127944028Y-120388574D01*
X127944500Y-120399381D01*
X127944500Y-123032870D01*
X127944501Y-123032876D01*
X127950908Y-123092483D01*
X128001202Y-123227328D01*
X128001206Y-123227335D01*
X128087452Y-123342544D01*
X128087455Y-123342547D01*
X128202664Y-123428793D01*
X128202671Y-123428797D01*
X128337517Y-123479091D01*
X128337516Y-123479091D01*
X128344444Y-123479835D01*
X128397127Y-123485500D01*
X130192872Y-123485499D01*
X130252483Y-123479091D01*
X130387331Y-123428796D01*
X130490690Y-123351421D01*
X130556152Y-123327004D01*
X130624425Y-123341855D01*
X130639303Y-123351416D01*
X130742665Y-123428793D01*
X130742668Y-123428795D01*
X130742671Y-123428797D01*
X130877517Y-123479091D01*
X130877516Y-123479091D01*
X130884444Y-123479835D01*
X130937127Y-123485500D01*
X132732872Y-123485499D01*
X132792483Y-123479091D01*
X132927331Y-123428796D01*
X133030690Y-123351421D01*
X133096152Y-123327004D01*
X133164425Y-123341855D01*
X133179303Y-123351416D01*
X133282665Y-123428793D01*
X133282668Y-123428795D01*
X133282671Y-123428797D01*
X133417517Y-123479091D01*
X133417516Y-123479091D01*
X133424444Y-123479835D01*
X133477127Y-123485500D01*
X135272872Y-123485499D01*
X135332483Y-123479091D01*
X135467331Y-123428796D01*
X135582546Y-123342546D01*
X135668796Y-123227331D01*
X135719091Y-123092483D01*
X135725500Y-123032873D01*
X135725499Y-120399381D01*
X135725971Y-120388578D01*
X135730659Y-120335000D01*
X135730659Y-120334999D01*
X135725971Y-120281418D01*
X135725499Y-120270610D01*
X135725499Y-119437129D01*
X135725498Y-119437123D01*
X135725497Y-119437116D01*
X135719091Y-119377517D01*
X135716030Y-119369311D01*
X135668797Y-119242671D01*
X135668793Y-119242664D01*
X135582547Y-119127455D01*
X135582544Y-119127452D01*
X135467335Y-119041206D01*
X135467328Y-119041202D01*
X135332482Y-118990908D01*
X135332483Y-118990908D01*
X135272883Y-118984501D01*
X135272881Y-118984500D01*
X135272873Y-118984500D01*
X135272865Y-118984500D01*
X134439383Y-118984500D01*
X134428576Y-118984028D01*
X134375002Y-118979341D01*
X134374999Y-118979341D01*
X134339865Y-118982414D01*
X134321421Y-118984028D01*
X134310616Y-118984500D01*
X133477129Y-118984500D01*
X133477123Y-118984501D01*
X133417516Y-118990908D01*
X133282671Y-119041202D01*
X133282669Y-119041203D01*
X133179311Y-119118578D01*
X133113847Y-119142995D01*
X133045574Y-119128144D01*
X133030689Y-119118578D01*
X132927330Y-119041203D01*
X132927328Y-119041202D01*
X132792482Y-118990908D01*
X132792483Y-118990908D01*
X132732883Y-118984501D01*
X132732881Y-118984500D01*
X132732873Y-118984500D01*
X132732864Y-118984500D01*
X130937129Y-118984500D01*
X130937123Y-118984501D01*
X130877516Y-118990908D01*
X130742671Y-119041202D01*
X130742669Y-119041203D01*
X130639311Y-119118578D01*
X130573847Y-119142995D01*
X130505574Y-119128144D01*
X130490689Y-119118578D01*
X130387330Y-119041203D01*
X130387328Y-119041202D01*
X130252482Y-118990908D01*
X130252483Y-118990908D01*
X130192883Y-118984501D01*
X130192881Y-118984500D01*
X130192873Y-118984500D01*
X130192865Y-118984500D01*
X129359383Y-118984500D01*
X129348576Y-118984028D01*
X129295002Y-118979341D01*
X129294999Y-118979341D01*
X129259865Y-118982414D01*
X129241421Y-118984028D01*
X129230616Y-118984500D01*
X128397129Y-118984500D01*
X128397123Y-118984501D01*
X128337516Y-118990908D01*
X128202671Y-119041202D01*
X128202664Y-119041206D01*
X128087455Y-119127452D01*
X128087452Y-119127455D01*
X128001206Y-119242664D01*
X128001202Y-119242671D01*
X127950908Y-119377517D01*
X127944501Y-119437116D01*
X127944501Y-119437123D01*
X127944500Y-119437135D01*
X127944500Y-120270618D01*
X127944028Y-120281425D01*
X127939341Y-120334997D01*
X127939341Y-120335001D01*
X124295499Y-120335001D01*
X124295499Y-119667129D01*
X124295498Y-119667123D01*
X124295497Y-119667116D01*
X124289091Y-119607517D01*
X124238796Y-119472669D01*
X124161421Y-119369309D01*
X124137004Y-119303848D01*
X124151855Y-119235575D01*
X124161416Y-119220696D01*
X124238796Y-119117331D01*
X124289091Y-118982483D01*
X124295500Y-118922873D01*
X124295499Y-118089383D01*
X124295971Y-118078576D01*
X124300659Y-118025000D01*
X124300659Y-118024999D01*
X124295971Y-117971421D01*
X124295499Y-117960613D01*
X124295499Y-117127129D01*
X124295498Y-117127123D01*
X124295497Y-117127116D01*
X124289091Y-117067517D01*
X124238796Y-116932669D01*
X124161109Y-116828893D01*
X124136692Y-116763430D01*
X124151543Y-116695157D01*
X124161110Y-116680271D01*
X124238352Y-116577089D01*
X124238354Y-116577086D01*
X124288596Y-116442379D01*
X124288598Y-116442372D01*
X124294999Y-116382844D01*
X124295000Y-116382827D01*
X124295000Y-115735000D01*
X123390572Y-115735000D01*
X123413682Y-115699040D01*
X123455000Y-115558327D01*
X123455000Y-115411673D01*
X123413682Y-115270960D01*
X123390572Y-115235000D01*
X124295000Y-115235000D01*
X124295000Y-114587172D01*
X124294999Y-114587155D01*
X124288598Y-114527627D01*
X124288596Y-114527620D01*
X124238354Y-114392913D01*
X124238352Y-114392910D01*
X124161110Y-114289729D01*
X124136692Y-114224265D01*
X124151543Y-114155992D01*
X124161105Y-114141111D01*
X124238796Y-114037331D01*
X124289091Y-113902483D01*
X124295500Y-113842873D01*
X124295499Y-113009383D01*
X124295971Y-112998576D01*
X124300659Y-112945000D01*
X124300659Y-112944999D01*
X124295971Y-112891421D01*
X124295499Y-112880613D01*
X124295499Y-112047129D01*
X124295498Y-112047123D01*
X124295497Y-112047116D01*
X124289091Y-111987517D01*
X124238796Y-111852669D01*
X124161421Y-111749309D01*
X124137004Y-111683848D01*
X124151855Y-111615575D01*
X124161416Y-111600696D01*
X124238796Y-111497331D01*
X124289091Y-111362483D01*
X124295500Y-111302873D01*
X124295499Y-110469383D01*
X124295971Y-110458576D01*
X124300659Y-110405000D01*
X124300659Y-110404999D01*
X124295971Y-110351421D01*
X124295499Y-110340613D01*
X124295499Y-109507129D01*
X124295498Y-109507123D01*
X124295497Y-109507116D01*
X124289091Y-109447517D01*
X124238796Y-109312669D01*
X124161421Y-109209309D01*
X124137004Y-109143848D01*
X124151855Y-109075575D01*
X124161416Y-109060696D01*
X124238796Y-108957331D01*
X124289091Y-108822483D01*
X124295500Y-108762873D01*
X124295499Y-107929383D01*
X124295971Y-107918576D01*
X124300659Y-107865000D01*
X124300659Y-107864999D01*
X124295971Y-107811421D01*
X124295499Y-107800613D01*
X124295499Y-106967129D01*
X124295498Y-106967123D01*
X124295497Y-106967116D01*
X124289091Y-106907517D01*
X124238796Y-106772669D01*
X124161421Y-106669309D01*
X124137004Y-106603848D01*
X124151855Y-106535575D01*
X124161416Y-106520696D01*
X124238796Y-106417331D01*
X124289091Y-106282483D01*
X124295500Y-106222873D01*
X124295499Y-105389383D01*
X124295971Y-105378576D01*
X124300659Y-105325000D01*
X124300659Y-105324999D01*
X124295971Y-105271421D01*
X124295499Y-105260613D01*
X124295499Y-104427129D01*
X124295498Y-104427123D01*
X124295497Y-104427116D01*
X124289091Y-104367517D01*
X124238796Y-104232669D01*
X124161109Y-104128893D01*
X124136692Y-104063430D01*
X124151543Y-103995157D01*
X124161110Y-103980271D01*
X124238352Y-103877089D01*
X124238354Y-103877086D01*
X124288596Y-103742379D01*
X124288598Y-103742372D01*
X124294999Y-103682844D01*
X124295000Y-103682827D01*
X124295000Y-103035000D01*
X123390572Y-103035000D01*
X123413682Y-102999040D01*
X123455000Y-102858327D01*
X123455000Y-102711673D01*
X123413682Y-102570960D01*
X123390572Y-102535000D01*
X124295000Y-102535000D01*
X124295000Y-101887172D01*
X124294999Y-101887155D01*
X124288598Y-101827627D01*
X124288596Y-101827620D01*
X124238354Y-101692913D01*
X124238352Y-101692910D01*
X124161110Y-101589729D01*
X124136692Y-101524265D01*
X124151543Y-101455992D01*
X124161105Y-101441111D01*
X124238796Y-101337331D01*
X124289091Y-101202483D01*
X124295500Y-101142873D01*
X124295499Y-100309383D01*
X124295971Y-100298576D01*
X124300659Y-100245000D01*
X124300659Y-100244999D01*
X124295971Y-100191421D01*
X124295499Y-100180613D01*
X124295499Y-99347129D01*
X124295498Y-99347123D01*
X124295497Y-99347116D01*
X124289091Y-99287517D01*
X124238796Y-99152669D01*
X124161421Y-99049309D01*
X124137004Y-98983848D01*
X124151855Y-98915575D01*
X124161416Y-98900696D01*
X124238796Y-98797331D01*
X124289091Y-98662483D01*
X124295500Y-98602873D01*
X124295499Y-97769383D01*
X124295971Y-97758576D01*
X124300659Y-97705000D01*
X124300659Y-97704999D01*
X124295971Y-97651421D01*
X124295499Y-97640613D01*
X124295499Y-96807129D01*
X124295498Y-96807123D01*
X124295497Y-96807116D01*
X124289091Y-96747517D01*
X124238796Y-96612669D01*
X124161421Y-96509309D01*
X124137004Y-96443848D01*
X124151855Y-96375575D01*
X124161416Y-96360696D01*
X124238796Y-96257331D01*
X124289091Y-96122483D01*
X124295500Y-96062873D01*
X124295499Y-95229383D01*
X124295971Y-95218576D01*
X124300659Y-95165000D01*
X124300659Y-95164999D01*
X124295971Y-95111421D01*
X124295499Y-95100613D01*
X124295499Y-94267129D01*
X124295498Y-94267123D01*
X124295497Y-94267116D01*
X124289091Y-94207517D01*
X124238796Y-94072669D01*
X124161421Y-93969309D01*
X124137004Y-93903848D01*
X124151855Y-93835575D01*
X124161416Y-93820696D01*
X124238796Y-93717331D01*
X124289091Y-93582483D01*
X124295500Y-93522873D01*
X124295499Y-92689383D01*
X124295971Y-92678576D01*
X124300659Y-92625000D01*
X124300659Y-92624999D01*
X124295971Y-92571421D01*
X124295499Y-92560613D01*
X124295499Y-91727129D01*
X124295498Y-91727123D01*
X124295497Y-91727116D01*
X124289091Y-91667517D01*
X124238796Y-91532669D01*
X124161421Y-91429309D01*
X124137004Y-91363848D01*
X124151855Y-91295575D01*
X124161416Y-91280696D01*
X124238796Y-91177331D01*
X124289091Y-91042483D01*
X124295500Y-90982873D01*
X124295499Y-89187128D01*
X124289091Y-89127517D01*
X124238796Y-88992669D01*
X124161421Y-88889309D01*
X124137004Y-88823848D01*
X124151855Y-88755575D01*
X124161416Y-88740696D01*
X124238796Y-88637331D01*
X124289091Y-88502483D01*
X124295500Y-88442873D01*
X124295499Y-87609383D01*
X124295971Y-87598576D01*
X124300659Y-87545000D01*
X124300659Y-87544999D01*
X124295971Y-87491421D01*
X124295499Y-87480613D01*
X124295499Y-86647129D01*
X124295498Y-86647123D01*
X124295497Y-86647116D01*
X124289091Y-86587517D01*
X124238796Y-86452669D01*
X124161421Y-86349309D01*
X124137004Y-86283848D01*
X124151855Y-86215575D01*
X124161416Y-86200696D01*
X124238796Y-86097331D01*
X124289091Y-85962483D01*
X124295500Y-85902873D01*
X124295499Y-85069383D01*
X124295971Y-85058576D01*
X124300659Y-85005000D01*
X124300659Y-85004999D01*
X124295971Y-84951421D01*
X124295499Y-84940613D01*
X124295499Y-84107129D01*
X124295498Y-84107123D01*
X124295497Y-84107116D01*
X124289091Y-84047517D01*
X124284659Y-84035635D01*
X124238797Y-83912671D01*
X124238795Y-83912668D01*
X124214440Y-83880134D01*
X124161421Y-83809309D01*
X124137004Y-83743848D01*
X124151855Y-83675575D01*
X124161416Y-83660696D01*
X124238796Y-83557331D01*
X124289091Y-83422483D01*
X124295500Y-83362873D01*
X124295499Y-82806766D01*
X126335000Y-82806766D01*
X126349858Y-82976599D01*
X126349860Y-82976610D01*
X126408730Y-83196317D01*
X126408734Y-83196326D01*
X126504865Y-83402482D01*
X126635342Y-83588820D01*
X126796179Y-83749657D01*
X126982517Y-83880134D01*
X127188673Y-83976265D01*
X127188682Y-83976269D01*
X127384999Y-84028872D01*
X127385000Y-84028871D01*
X127385000Y-82985501D01*
X127492685Y-83034680D01*
X127599237Y-83050000D01*
X127670763Y-83050000D01*
X127777315Y-83034680D01*
X127885000Y-82985501D01*
X127885000Y-84028872D01*
X128081317Y-83976269D01*
X128081326Y-83976265D01*
X128287482Y-83880134D01*
X128473820Y-83749657D01*
X128634657Y-83588820D01*
X128765132Y-83402484D01*
X128792341Y-83344134D01*
X128838513Y-83291695D01*
X128905707Y-83272542D01*
X128972588Y-83292757D01*
X129017105Y-83344132D01*
X129025846Y-83362876D01*
X129044431Y-83402732D01*
X129044432Y-83402734D01*
X129174954Y-83589141D01*
X129335858Y-83750045D01*
X129335861Y-83750047D01*
X129522266Y-83880568D01*
X129728504Y-83976739D01*
X129948308Y-84035635D01*
X130110230Y-84049801D01*
X130174998Y-84055468D01*
X130175000Y-84055468D01*
X130175002Y-84055468D01*
X130231673Y-84050509D01*
X130401692Y-84035635D01*
X130621496Y-83976739D01*
X130827734Y-83880568D01*
X131014139Y-83750047D01*
X131175047Y-83589139D01*
X131305568Y-83402734D01*
X131332618Y-83344724D01*
X131378790Y-83292285D01*
X131445983Y-83273133D01*
X131512865Y-83293348D01*
X131557382Y-83344725D01*
X131584429Y-83402728D01*
X131584432Y-83402734D01*
X131714954Y-83589141D01*
X131875858Y-83750045D01*
X131875861Y-83750047D01*
X132062266Y-83880568D01*
X132268504Y-83976739D01*
X132488308Y-84035635D01*
X132650230Y-84049801D01*
X132714998Y-84055468D01*
X132715000Y-84055468D01*
X132715002Y-84055468D01*
X132771673Y-84050509D01*
X132941692Y-84035635D01*
X133161496Y-83976739D01*
X133367734Y-83880568D01*
X133554139Y-83750047D01*
X133715047Y-83589139D01*
X133845568Y-83402734D01*
X133872618Y-83344724D01*
X133918790Y-83292285D01*
X133985983Y-83273133D01*
X134052865Y-83293348D01*
X134097382Y-83344725D01*
X134124429Y-83402728D01*
X134124432Y-83402734D01*
X134254954Y-83589141D01*
X134415858Y-83750045D01*
X134415861Y-83750047D01*
X134602266Y-83880568D01*
X134808504Y-83976739D01*
X135028308Y-84035635D01*
X135190230Y-84049801D01*
X135254998Y-84055468D01*
X135255000Y-84055468D01*
X135255002Y-84055468D01*
X135311673Y-84050509D01*
X135481692Y-84035635D01*
X135701496Y-83976739D01*
X135907734Y-83880568D01*
X136094139Y-83750047D01*
X136255047Y-83589139D01*
X136385568Y-83402734D01*
X136481739Y-83196496D01*
X136540635Y-82976692D01*
X136555500Y-82806784D01*
X136555500Y-82293216D01*
X136540635Y-82123308D01*
X136481739Y-81903504D01*
X136385568Y-81697266D01*
X136255047Y-81510861D01*
X136255045Y-81510858D01*
X136094140Y-81349953D01*
X135933377Y-81237386D01*
X135889752Y-81182809D01*
X135880500Y-81135811D01*
X135880500Y-78085452D01*
X135900185Y-78018413D01*
X135916819Y-77997771D01*
X139157660Y-74756930D01*
X139218983Y-74723445D01*
X139288675Y-74728429D01*
X139344608Y-74770301D01*
X139369025Y-74835765D01*
X139369341Y-74844611D01*
X139369341Y-74845002D01*
X139374028Y-74898576D01*
X139374500Y-74909383D01*
X139374500Y-75742870D01*
X139374501Y-75742876D01*
X139380908Y-75802483D01*
X139431202Y-75937328D01*
X139431206Y-75937335D01*
X139508889Y-76041105D01*
X139533307Y-76106569D01*
X139518456Y-76174842D01*
X139508890Y-76189727D01*
X139431647Y-76292910D01*
X139431645Y-76292913D01*
X139381403Y-76427620D01*
X139381401Y-76427627D01*
X139375000Y-76487155D01*
X139375000Y-77135000D01*
X140279428Y-77135000D01*
X140256318Y-77170960D01*
X140215000Y-77311673D01*
X140215000Y-77458327D01*
X140256318Y-77599040D01*
X140279428Y-77635000D01*
X139375000Y-77635000D01*
X139375000Y-78282844D01*
X139381401Y-78342372D01*
X139381403Y-78342379D01*
X139431645Y-78477086D01*
X139431646Y-78477088D01*
X139508890Y-78580272D01*
X139533307Y-78645736D01*
X139518456Y-78714009D01*
X139508890Y-78728894D01*
X139431204Y-78832669D01*
X139431202Y-78832671D01*
X139380908Y-78967517D01*
X139374501Y-79027116D01*
X139374501Y-79027123D01*
X139374500Y-79027135D01*
X139374500Y-79860616D01*
X139374028Y-79871423D01*
X139369341Y-79924997D01*
X139369341Y-79925002D01*
X139374028Y-79978576D01*
X139374500Y-79989383D01*
X139374500Y-80822870D01*
X139374501Y-80822876D01*
X139380908Y-80882483D01*
X139431202Y-81017328D01*
X139431203Y-81017330D01*
X139508578Y-81120689D01*
X139532995Y-81186153D01*
X139518144Y-81254426D01*
X139508578Y-81269311D01*
X139431203Y-81372669D01*
X139431202Y-81372671D01*
X139380908Y-81507517D01*
X139374501Y-81567116D01*
X139374501Y-81567123D01*
X139374500Y-81567135D01*
X139374500Y-82400616D01*
X139374028Y-82411423D01*
X139369341Y-82464997D01*
X139369341Y-82465002D01*
X139374028Y-82518576D01*
X139374500Y-82529383D01*
X139374500Y-83362870D01*
X139374501Y-83362876D01*
X139380908Y-83422483D01*
X139431202Y-83557328D01*
X139431203Y-83557330D01*
X139508578Y-83660689D01*
X139532995Y-83726153D01*
X139518144Y-83794426D01*
X139508578Y-83809311D01*
X139431203Y-83912669D01*
X139431202Y-83912671D01*
X139380908Y-84047517D01*
X139374501Y-84107116D01*
X139374501Y-84107123D01*
X139374500Y-84107135D01*
X139374500Y-84940616D01*
X139374028Y-84951423D01*
X139369341Y-85004997D01*
X139369341Y-85005002D01*
X139374028Y-85058576D01*
X139374500Y-85069383D01*
X139374500Y-85902870D01*
X139374501Y-85902876D01*
X139380908Y-85962483D01*
X139431202Y-86097328D01*
X139431203Y-86097330D01*
X139508578Y-86200689D01*
X139532995Y-86266153D01*
X139518144Y-86334426D01*
X139508578Y-86349311D01*
X139431203Y-86452669D01*
X139431202Y-86452671D01*
X139380908Y-86587517D01*
X139374501Y-86647116D01*
X139374501Y-86647123D01*
X139374500Y-86647135D01*
X139374500Y-87480616D01*
X139374028Y-87491423D01*
X139369341Y-87544997D01*
X139369341Y-87545002D01*
X139374028Y-87598576D01*
X139374500Y-87609383D01*
X139374500Y-88442870D01*
X139374501Y-88442876D01*
X139380908Y-88502483D01*
X139431202Y-88637328D01*
X139431206Y-88637335D01*
X139508889Y-88741105D01*
X139533307Y-88806569D01*
X139518456Y-88874842D01*
X139508890Y-88889727D01*
X139431647Y-88992910D01*
X139431645Y-88992913D01*
X139381403Y-89127620D01*
X139381401Y-89127627D01*
X139375000Y-89187155D01*
X139375000Y-89835000D01*
X140279428Y-89835000D01*
X140256318Y-89870960D01*
X140215000Y-90011673D01*
X140215000Y-90158327D01*
X140256318Y-90299040D01*
X140279428Y-90335000D01*
X139375000Y-90335000D01*
X139375000Y-90982844D01*
X139381401Y-91042372D01*
X139381403Y-91042379D01*
X139431645Y-91177086D01*
X139431646Y-91177088D01*
X139508890Y-91280272D01*
X139533307Y-91345736D01*
X139518456Y-91414009D01*
X139508890Y-91428894D01*
X139431204Y-91532669D01*
X139431202Y-91532671D01*
X139380908Y-91667517D01*
X139374501Y-91727116D01*
X139374501Y-91727123D01*
X139374500Y-91727135D01*
X139374500Y-92560616D01*
X139374028Y-92571423D01*
X139369341Y-92624997D01*
X139369341Y-92625002D01*
X139374028Y-92678576D01*
X139374500Y-92689383D01*
X139374500Y-93522870D01*
X139374501Y-93522876D01*
X139380908Y-93582483D01*
X139431202Y-93717328D01*
X139431203Y-93717330D01*
X139508578Y-93820689D01*
X139532995Y-93886153D01*
X139518144Y-93954426D01*
X139508578Y-93969311D01*
X139431203Y-94072669D01*
X139431202Y-94072671D01*
X139380908Y-94207517D01*
X139374501Y-94267116D01*
X139374501Y-94267123D01*
X139374500Y-94267135D01*
X139374500Y-95100616D01*
X139374028Y-95111423D01*
X139369341Y-95164997D01*
X139369341Y-95165002D01*
X139374028Y-95218576D01*
X139374500Y-95229383D01*
X139374500Y-96062870D01*
X139374501Y-96062876D01*
X139380908Y-96122483D01*
X139431202Y-96257328D01*
X139431203Y-96257330D01*
X139508578Y-96360689D01*
X139532995Y-96426153D01*
X139518144Y-96494426D01*
X139508578Y-96509311D01*
X139431203Y-96612669D01*
X139431202Y-96612671D01*
X139380908Y-96747517D01*
X139374501Y-96807116D01*
X139374501Y-96807123D01*
X139374500Y-96807135D01*
X139374500Y-97640616D01*
X139374028Y-97651423D01*
X139369341Y-97704997D01*
X139369341Y-97705002D01*
X139374028Y-97758576D01*
X139374500Y-97769383D01*
X139374500Y-98602870D01*
X139374501Y-98602876D01*
X139380908Y-98662483D01*
X139431202Y-98797328D01*
X139431203Y-98797330D01*
X139508578Y-98900689D01*
X139532995Y-98966153D01*
X139518144Y-99034426D01*
X139508578Y-99049311D01*
X139431203Y-99152669D01*
X139431202Y-99152671D01*
X139380908Y-99287517D01*
X139374501Y-99347116D01*
X139374501Y-99347123D01*
X139374500Y-99347135D01*
X139374500Y-100180616D01*
X139374028Y-100191423D01*
X139369341Y-100244997D01*
X139369341Y-100245002D01*
X139374028Y-100298576D01*
X139374500Y-100309383D01*
X139374500Y-101142870D01*
X139374501Y-101142876D01*
X139380908Y-101202483D01*
X139431202Y-101337328D01*
X139431206Y-101337335D01*
X139508889Y-101441105D01*
X139533307Y-101506569D01*
X139518456Y-101574842D01*
X139508890Y-101589727D01*
X139431647Y-101692910D01*
X139431645Y-101692913D01*
X139381403Y-101827620D01*
X139381401Y-101827627D01*
X139375000Y-101887155D01*
X139375000Y-102535000D01*
X140279428Y-102535000D01*
X140256318Y-102570960D01*
X140215000Y-102711673D01*
X140215000Y-102858327D01*
X140256318Y-102999040D01*
X140279428Y-103035000D01*
X139375000Y-103035000D01*
X139375000Y-103682844D01*
X139381401Y-103742372D01*
X139381403Y-103742379D01*
X139431645Y-103877086D01*
X139431646Y-103877088D01*
X139508890Y-103980272D01*
X139533307Y-104045736D01*
X139518456Y-104114009D01*
X139508890Y-104128894D01*
X139431204Y-104232669D01*
X139431202Y-104232671D01*
X139380908Y-104367517D01*
X139374501Y-104427116D01*
X139374501Y-104427123D01*
X139374500Y-104427135D01*
X139374500Y-105260616D01*
X139374028Y-105271423D01*
X139369341Y-105324997D01*
X139369341Y-105325002D01*
X139374028Y-105378576D01*
X139374500Y-105389383D01*
X139374500Y-106222870D01*
X139374501Y-106222876D01*
X139380908Y-106282483D01*
X139431202Y-106417328D01*
X139431203Y-106417330D01*
X139508578Y-106520689D01*
X139532995Y-106586153D01*
X139518144Y-106654426D01*
X139508578Y-106669311D01*
X139431203Y-106772669D01*
X139431202Y-106772671D01*
X139380908Y-106907517D01*
X139374501Y-106967116D01*
X139374501Y-106967123D01*
X139374500Y-106967135D01*
X139374500Y-107800616D01*
X139374028Y-107811423D01*
X139369341Y-107864997D01*
X139369341Y-107865002D01*
X139374028Y-107918576D01*
X139374500Y-107929383D01*
X139374500Y-108762870D01*
X139374501Y-108762876D01*
X139380908Y-108822483D01*
X139431202Y-108957328D01*
X139431203Y-108957330D01*
X139508578Y-109060689D01*
X139532995Y-109126153D01*
X139518144Y-109194426D01*
X139508578Y-109209311D01*
X139431203Y-109312669D01*
X139431202Y-109312671D01*
X139380908Y-109447517D01*
X139374501Y-109507116D01*
X139374501Y-109507123D01*
X139374500Y-109507135D01*
X139374500Y-110340616D01*
X139374028Y-110351423D01*
X139369341Y-110404997D01*
X139369341Y-110405002D01*
X139374028Y-110458576D01*
X139374500Y-110469383D01*
X139374500Y-111302870D01*
X139374501Y-111302876D01*
X139380908Y-111362483D01*
X139431202Y-111497328D01*
X139431203Y-111497330D01*
X139508578Y-111600689D01*
X139532995Y-111666153D01*
X139518144Y-111734426D01*
X139508578Y-111749311D01*
X139431203Y-111852669D01*
X139431202Y-111852671D01*
X139380908Y-111987517D01*
X139374501Y-112047116D01*
X139374501Y-112047123D01*
X139374500Y-112047135D01*
X139374500Y-112880616D01*
X139374028Y-112891423D01*
X139369341Y-112944997D01*
X139369341Y-112945002D01*
X139374028Y-112998576D01*
X139374500Y-113009383D01*
X139374500Y-113842870D01*
X139374501Y-113842876D01*
X139380908Y-113902483D01*
X139431202Y-114037328D01*
X139431206Y-114037335D01*
X139508889Y-114141105D01*
X139533307Y-114206569D01*
X139518456Y-114274842D01*
X139508890Y-114289727D01*
X139431647Y-114392910D01*
X139431645Y-114392913D01*
X139381403Y-114527620D01*
X139381401Y-114527627D01*
X139375000Y-114587155D01*
X139375000Y-115235000D01*
X140279428Y-115235000D01*
X140256318Y-115270960D01*
X140215000Y-115411673D01*
X140215000Y-115558327D01*
X140256318Y-115699040D01*
X140279428Y-115735000D01*
X139375000Y-115735000D01*
X139375000Y-116382844D01*
X139381401Y-116442372D01*
X139381403Y-116442379D01*
X139431645Y-116577086D01*
X139431646Y-116577088D01*
X139508890Y-116680272D01*
X139533307Y-116745736D01*
X139518456Y-116814009D01*
X139508890Y-116828894D01*
X139431204Y-116932669D01*
X139431202Y-116932671D01*
X139380908Y-117067517D01*
X139374501Y-117127116D01*
X139374501Y-117127123D01*
X139374500Y-117127135D01*
X139374500Y-117960616D01*
X139374028Y-117971423D01*
X139369341Y-118024997D01*
X139369341Y-118025002D01*
X139374028Y-118078576D01*
X139374500Y-118089383D01*
X139374500Y-118922870D01*
X139374501Y-118922876D01*
X139380908Y-118982483D01*
X139431202Y-119117328D01*
X139431203Y-119117330D01*
X139508578Y-119220689D01*
X139532995Y-119286153D01*
X139518144Y-119354426D01*
X139508578Y-119369311D01*
X139431203Y-119472669D01*
X139431202Y-119472671D01*
X139380908Y-119607517D01*
X139374501Y-119667116D01*
X139374501Y-119667123D01*
X139374500Y-119667135D01*
X139374500Y-120500616D01*
X139374028Y-120511423D01*
X139369341Y-120564997D01*
X139369341Y-120565002D01*
X139374028Y-120618576D01*
X139374500Y-120629383D01*
X139374500Y-121462870D01*
X139374501Y-121462876D01*
X139380908Y-121522483D01*
X139431202Y-121657328D01*
X139431206Y-121657335D01*
X139517452Y-121772544D01*
X139517455Y-121772547D01*
X139632664Y-121858793D01*
X139632671Y-121858797D01*
X139767517Y-121909091D01*
X139767516Y-121909091D01*
X139774444Y-121909835D01*
X139827127Y-121915500D01*
X140660616Y-121915499D01*
X140671425Y-121915971D01*
X140725000Y-121920659D01*
X140778575Y-121915971D01*
X140789384Y-121915499D01*
X143422871Y-121915499D01*
X143422872Y-121915499D01*
X143482483Y-121909091D01*
X143617331Y-121858796D01*
X143732546Y-121772546D01*
X143818796Y-121657331D01*
X143869091Y-121522483D01*
X143875500Y-121462873D01*
X143875499Y-119667128D01*
X143869091Y-119607517D01*
X143818796Y-119472669D01*
X143741421Y-119369309D01*
X143717004Y-119303848D01*
X143731855Y-119235575D01*
X143741416Y-119220696D01*
X143818796Y-119117331D01*
X143869091Y-118982483D01*
X143875500Y-118922873D01*
X143875499Y-117127128D01*
X143869091Y-117067517D01*
X143818796Y-116932669D01*
X143741109Y-116828893D01*
X143716692Y-116763430D01*
X143731543Y-116695157D01*
X143741110Y-116680271D01*
X143818352Y-116577089D01*
X143818354Y-116577086D01*
X143868596Y-116442379D01*
X143868598Y-116442372D01*
X143874999Y-116382844D01*
X143875000Y-116382827D01*
X143875000Y-115735000D01*
X141170572Y-115735000D01*
X141193682Y-115699040D01*
X141235000Y-115558327D01*
X141235000Y-115411673D01*
X141193682Y-115270960D01*
X141170572Y-115235000D01*
X143875000Y-115235000D01*
X143875000Y-114587172D01*
X143874999Y-114587155D01*
X143868598Y-114527627D01*
X143868596Y-114527620D01*
X143818354Y-114392913D01*
X143818352Y-114392910D01*
X143741110Y-114289729D01*
X143716692Y-114224265D01*
X143731543Y-114155992D01*
X143741105Y-114141111D01*
X143818796Y-114037331D01*
X143869091Y-113902483D01*
X143875500Y-113842873D01*
X143875499Y-112047128D01*
X143869091Y-111987517D01*
X143818796Y-111852669D01*
X143741421Y-111749309D01*
X143717004Y-111683848D01*
X143731855Y-111615575D01*
X143741416Y-111600696D01*
X143818796Y-111497331D01*
X143869091Y-111362483D01*
X143875500Y-111302873D01*
X143875499Y-109507128D01*
X143869091Y-109447517D01*
X143818796Y-109312669D01*
X143741421Y-109209309D01*
X143717004Y-109143848D01*
X143731855Y-109075575D01*
X143741416Y-109060696D01*
X143818796Y-108957331D01*
X143869091Y-108822483D01*
X143875500Y-108762873D01*
X143875499Y-106967128D01*
X143869091Y-106907517D01*
X143818796Y-106772669D01*
X143741421Y-106669309D01*
X143717004Y-106603848D01*
X143731855Y-106535575D01*
X143741416Y-106520696D01*
X143818796Y-106417331D01*
X143869091Y-106282483D01*
X143875500Y-106222873D01*
X143875499Y-104427128D01*
X143869091Y-104367517D01*
X143818796Y-104232669D01*
X143741109Y-104128893D01*
X143716692Y-104063430D01*
X143731543Y-103995157D01*
X143741110Y-103980271D01*
X143818352Y-103877089D01*
X143818354Y-103877086D01*
X143868596Y-103742379D01*
X143868598Y-103742372D01*
X143874999Y-103682844D01*
X143875000Y-103682827D01*
X143875000Y-103035000D01*
X141170572Y-103035000D01*
X141193682Y-102999040D01*
X141235000Y-102858327D01*
X141235000Y-102711673D01*
X141193682Y-102570960D01*
X141170572Y-102535000D01*
X143875000Y-102535000D01*
X143875000Y-101887172D01*
X143874999Y-101887155D01*
X143868598Y-101827627D01*
X143868596Y-101827620D01*
X143818354Y-101692913D01*
X143818352Y-101692910D01*
X143741110Y-101589729D01*
X143716692Y-101524265D01*
X143731543Y-101455992D01*
X143741105Y-101441111D01*
X143818796Y-101337331D01*
X143869091Y-101202483D01*
X143875500Y-101142873D01*
X143875499Y-99347128D01*
X143869091Y-99287517D01*
X143818796Y-99152669D01*
X143741421Y-99049309D01*
X143717004Y-98983848D01*
X143731855Y-98915575D01*
X143741416Y-98900696D01*
X143818796Y-98797331D01*
X143869091Y-98662483D01*
X143875500Y-98602873D01*
X143875499Y-96807128D01*
X143869091Y-96747517D01*
X143818796Y-96612669D01*
X143741421Y-96509309D01*
X143717004Y-96443848D01*
X143731855Y-96375575D01*
X143741416Y-96360696D01*
X143818796Y-96257331D01*
X143869091Y-96122483D01*
X143875500Y-96062873D01*
X143875499Y-94267128D01*
X143869091Y-94207517D01*
X143818796Y-94072669D01*
X143741421Y-93969309D01*
X143717004Y-93903848D01*
X143731855Y-93835575D01*
X143741416Y-93820696D01*
X143818796Y-93717331D01*
X143869091Y-93582483D01*
X143875500Y-93522873D01*
X143875499Y-91727128D01*
X143869091Y-91667517D01*
X143818796Y-91532669D01*
X143741109Y-91428893D01*
X143716692Y-91363430D01*
X143731543Y-91295157D01*
X143741110Y-91280271D01*
X143818352Y-91177089D01*
X143818354Y-91177086D01*
X143868596Y-91042379D01*
X143868598Y-91042372D01*
X143874999Y-90982844D01*
X143875000Y-90982827D01*
X143875000Y-90335000D01*
X141170572Y-90335000D01*
X141193682Y-90299040D01*
X141235000Y-90158327D01*
X141235000Y-90011673D01*
X141193682Y-89870960D01*
X141170572Y-89835000D01*
X143875000Y-89835000D01*
X143875000Y-89187172D01*
X143874999Y-89187155D01*
X143868598Y-89127627D01*
X143868596Y-89127620D01*
X143818354Y-88992913D01*
X143818352Y-88992910D01*
X143741110Y-88889729D01*
X143716692Y-88824265D01*
X143731543Y-88755992D01*
X143741105Y-88741111D01*
X143818796Y-88637331D01*
X143869091Y-88502483D01*
X143875500Y-88442873D01*
X143875499Y-86647128D01*
X143869091Y-86587517D01*
X143818796Y-86452669D01*
X143741421Y-86349309D01*
X143717004Y-86283848D01*
X143731855Y-86215575D01*
X143741416Y-86200696D01*
X143818796Y-86097331D01*
X143869091Y-85962483D01*
X143875500Y-85902873D01*
X143875499Y-84107128D01*
X143869091Y-84047517D01*
X143864659Y-84035635D01*
X143818797Y-83912671D01*
X143818795Y-83912668D01*
X143794440Y-83880134D01*
X143741421Y-83809309D01*
X143717004Y-83743848D01*
X143731855Y-83675575D01*
X143741416Y-83660696D01*
X143818796Y-83557331D01*
X143869091Y-83422483D01*
X143875500Y-83362873D01*
X143875499Y-81567128D01*
X143869485Y-81511179D01*
X143869091Y-81507516D01*
X143818797Y-81372671D01*
X143818795Y-81372668D01*
X143802082Y-81350342D01*
X143741421Y-81269309D01*
X143717004Y-81203848D01*
X143731855Y-81135575D01*
X143741416Y-81120696D01*
X143818796Y-81017331D01*
X143869091Y-80882483D01*
X143875500Y-80822873D01*
X143875499Y-79027128D01*
X143869091Y-78967517D01*
X143818796Y-78832669D01*
X143741109Y-78728893D01*
X143716692Y-78663430D01*
X143731543Y-78595157D01*
X143741110Y-78580271D01*
X143818352Y-78477089D01*
X143818354Y-78477086D01*
X143868596Y-78342379D01*
X143868598Y-78342372D01*
X143874999Y-78282844D01*
X143875000Y-78282827D01*
X143875000Y-77635000D01*
X141170572Y-77635000D01*
X141193682Y-77599040D01*
X141235000Y-77458327D01*
X141235000Y-77311673D01*
X141193682Y-77170960D01*
X141170572Y-77135000D01*
X143875000Y-77135000D01*
X143875000Y-76487172D01*
X143874999Y-76487155D01*
X143868598Y-76427627D01*
X143868596Y-76427620D01*
X143818354Y-76292913D01*
X143818352Y-76292910D01*
X143741110Y-76189729D01*
X143716692Y-76124265D01*
X143731543Y-76055992D01*
X143741105Y-76041111D01*
X143818796Y-75937331D01*
X143869091Y-75802483D01*
X143875500Y-75742873D01*
X143875499Y-73947128D01*
X143869091Y-73887517D01*
X143846331Y-73826495D01*
X143818797Y-73752671D01*
X143818795Y-73752668D01*
X143741421Y-73649309D01*
X143717004Y-73583848D01*
X143731855Y-73515575D01*
X143741416Y-73500696D01*
X143818796Y-73397331D01*
X143869091Y-73262483D01*
X143875500Y-73202873D01*
X143875499Y-71407128D01*
X143869091Y-71347517D01*
X143866817Y-71341421D01*
X143818797Y-71212671D01*
X143818793Y-71212664D01*
X143732547Y-71097455D01*
X143732544Y-71097452D01*
X143617335Y-71011206D01*
X143617328Y-71011202D01*
X143482482Y-70960908D01*
X143482483Y-70960908D01*
X143422883Y-70954501D01*
X143422881Y-70954500D01*
X143422873Y-70954500D01*
X143422865Y-70954500D01*
X140789385Y-70954500D01*
X140778578Y-70954028D01*
X140725001Y-70949341D01*
X140724997Y-70949341D01*
X140671419Y-70954028D01*
X140660613Y-70954500D01*
X139827129Y-70954500D01*
X139827123Y-70954501D01*
X139767516Y-70960908D01*
X139632671Y-71011202D01*
X139632664Y-71011206D01*
X139517455Y-71097452D01*
X139517452Y-71097455D01*
X139431206Y-71212664D01*
X139431202Y-71212671D01*
X139380908Y-71347517D01*
X139374877Y-71403621D01*
X139374501Y-71407123D01*
X139374500Y-71407135D01*
X139374500Y-72240616D01*
X139374028Y-72251423D01*
X139369341Y-72304997D01*
X139369341Y-72305002D01*
X139374028Y-72358576D01*
X139374500Y-72369383D01*
X139374500Y-72719546D01*
X139354815Y-72786585D01*
X139338181Y-72807227D01*
X134871208Y-77274199D01*
X134858951Y-77284020D01*
X134859134Y-77284241D01*
X134853122Y-77289214D01*
X134807098Y-77338223D01*
X134804391Y-77341016D01*
X134784889Y-77360517D01*
X134784875Y-77360534D01*
X134782407Y-77363715D01*
X134774843Y-77372570D01*
X134744937Y-77404418D01*
X134744936Y-77404420D01*
X134735284Y-77421976D01*
X134724610Y-77438226D01*
X134712329Y-77454061D01*
X134712324Y-77454068D01*
X134694975Y-77494158D01*
X134689838Y-77504644D01*
X134668803Y-77542906D01*
X134663822Y-77562307D01*
X134657521Y-77580710D01*
X134649562Y-77599102D01*
X134649561Y-77599105D01*
X134642728Y-77642243D01*
X134640360Y-77653674D01*
X134629501Y-77695971D01*
X134629500Y-77695982D01*
X134629500Y-77716016D01*
X134627973Y-77735415D01*
X134624840Y-77755194D01*
X134624840Y-77755195D01*
X134628950Y-77798674D01*
X134629500Y-77810343D01*
X134629500Y-81135811D01*
X134609815Y-81202850D01*
X134576623Y-81237386D01*
X134415859Y-81349953D01*
X134254954Y-81510858D01*
X134124432Y-81697265D01*
X134124431Y-81697267D01*
X134097382Y-81755275D01*
X134051209Y-81807714D01*
X133984016Y-81826866D01*
X133917135Y-81806650D01*
X133872618Y-81755275D01*
X133845686Y-81697520D01*
X133845568Y-81697266D01*
X133715047Y-81510861D01*
X133715045Y-81510858D01*
X133554141Y-81349954D01*
X133367734Y-81219432D01*
X133367732Y-81219431D01*
X133161497Y-81123261D01*
X133161488Y-81123258D01*
X132941697Y-81064366D01*
X132941693Y-81064365D01*
X132941692Y-81064365D01*
X132941691Y-81064364D01*
X132941686Y-81064364D01*
X132715002Y-81044532D01*
X132714998Y-81044532D01*
X132488313Y-81064364D01*
X132488302Y-81064366D01*
X132268511Y-81123258D01*
X132268502Y-81123261D01*
X132062267Y-81219431D01*
X132062265Y-81219432D01*
X131875858Y-81349954D01*
X131714954Y-81510858D01*
X131584432Y-81697265D01*
X131584431Y-81697267D01*
X131557382Y-81755275D01*
X131511209Y-81807714D01*
X131444016Y-81826866D01*
X131377135Y-81806650D01*
X131332618Y-81755275D01*
X131305686Y-81697520D01*
X131305568Y-81697266D01*
X131175047Y-81510861D01*
X131175045Y-81510858D01*
X131014141Y-81349954D01*
X130827734Y-81219432D01*
X130827732Y-81219431D01*
X130621497Y-81123261D01*
X130621488Y-81123258D01*
X130401697Y-81064366D01*
X130401693Y-81064365D01*
X130401692Y-81064365D01*
X130401691Y-81064364D01*
X130401686Y-81064364D01*
X130175002Y-81044532D01*
X130174998Y-81044532D01*
X129948313Y-81064364D01*
X129948302Y-81064366D01*
X129728511Y-81123258D01*
X129728502Y-81123261D01*
X129522267Y-81219431D01*
X129522265Y-81219432D01*
X129335858Y-81349954D01*
X129174954Y-81510858D01*
X129044433Y-81697264D01*
X129044432Y-81697266D01*
X129044315Y-81697518D01*
X129017106Y-81755867D01*
X128970933Y-81808306D01*
X128903739Y-81827457D01*
X128836858Y-81807241D01*
X128792342Y-81755865D01*
X128765135Y-81697520D01*
X128765134Y-81697518D01*
X128634657Y-81511179D01*
X128473820Y-81350342D01*
X128287482Y-81219865D01*
X128081328Y-81123734D01*
X127885000Y-81071127D01*
X127885000Y-82114498D01*
X127777315Y-82065320D01*
X127670763Y-82050000D01*
X127599237Y-82050000D01*
X127492685Y-82065320D01*
X127385000Y-82114498D01*
X127385000Y-81071127D01*
X127188671Y-81123734D01*
X126982517Y-81219865D01*
X126796179Y-81350342D01*
X126635342Y-81511179D01*
X126504865Y-81697517D01*
X126408734Y-81903673D01*
X126408730Y-81903682D01*
X126349860Y-82123389D01*
X126349858Y-82123400D01*
X126335000Y-82293233D01*
X126335000Y-82300000D01*
X127201314Y-82300000D01*
X127175507Y-82340156D01*
X127135000Y-82478111D01*
X127135000Y-82621889D01*
X127175507Y-82759844D01*
X127201314Y-82800000D01*
X126335000Y-82800000D01*
X126335000Y-82806766D01*
X124295499Y-82806766D01*
X124295499Y-82529383D01*
X124295971Y-82518576D01*
X124300659Y-82465000D01*
X124300659Y-82464999D01*
X124295971Y-82411421D01*
X124295499Y-82400613D01*
X124295499Y-81567129D01*
X124295498Y-81567123D01*
X124295497Y-81567116D01*
X124289485Y-81511179D01*
X124289091Y-81507516D01*
X124238797Y-81372671D01*
X124238795Y-81372668D01*
X124222082Y-81350342D01*
X124161421Y-81269309D01*
X124137004Y-81203848D01*
X124151855Y-81135575D01*
X124161416Y-81120696D01*
X124238796Y-81017331D01*
X124289091Y-80882483D01*
X124295500Y-80822873D01*
X124295499Y-79989383D01*
X124295971Y-79978576D01*
X124300659Y-79925000D01*
X124300659Y-79924999D01*
X124295971Y-79871421D01*
X124295499Y-79860613D01*
X124295499Y-79027129D01*
X124295498Y-79027123D01*
X124295497Y-79027116D01*
X124289091Y-78967517D01*
X124238796Y-78832669D01*
X124161109Y-78728893D01*
X124136692Y-78663430D01*
X124151543Y-78595157D01*
X124161110Y-78580271D01*
X124238352Y-78477089D01*
X124238354Y-78477086D01*
X124288596Y-78342379D01*
X124288598Y-78342372D01*
X124294999Y-78282844D01*
X124295000Y-78282827D01*
X124295000Y-77635000D01*
X123390572Y-77635000D01*
X123413682Y-77599040D01*
X123455000Y-77458327D01*
X123455000Y-77311673D01*
X123413682Y-77170960D01*
X123390572Y-77135000D01*
X124295000Y-77135000D01*
X124295000Y-76487172D01*
X124294999Y-76487155D01*
X124288598Y-76427627D01*
X124288596Y-76427620D01*
X124238354Y-76292913D01*
X124238352Y-76292910D01*
X124161110Y-76189729D01*
X124136692Y-76124265D01*
X124151543Y-76055992D01*
X124161105Y-76041111D01*
X124238796Y-75937331D01*
X124289091Y-75802483D01*
X124295500Y-75742873D01*
X124295500Y-75465003D01*
X128154723Y-75465003D01*
X128156331Y-75483389D01*
X128156678Y-75499752D01*
X128155709Y-75521324D01*
X128155710Y-75521328D01*
X128166444Y-75600576D01*
X128167094Y-75606412D01*
X128173792Y-75682972D01*
X128173795Y-75682989D01*
X128179461Y-75704134D01*
X128182563Y-75719576D01*
X128185923Y-75744380D01*
X128185926Y-75744392D01*
X128209573Y-75817169D01*
X128211417Y-75823393D01*
X128230423Y-75894324D01*
X128230428Y-75894337D01*
X128241135Y-75917300D01*
X128246682Y-75931380D01*
X128255483Y-75958464D01*
X128290128Y-76022845D01*
X128293316Y-76029200D01*
X128322897Y-76092638D01*
X128322898Y-76092639D01*
X128339410Y-76116221D01*
X128347025Y-76128578D01*
X128362146Y-76156678D01*
X128362152Y-76156687D01*
X128405587Y-76211153D01*
X128410214Y-76217340D01*
X128435510Y-76253465D01*
X128448402Y-76271877D01*
X128448405Y-76271880D01*
X128471186Y-76294661D01*
X128480452Y-76305029D01*
X128502492Y-76332666D01*
X128552387Y-76376259D01*
X128558484Y-76381959D01*
X128603116Y-76426592D01*
X128603121Y-76426596D01*
X128603123Y-76426598D01*
X128604583Y-76427620D01*
X128632332Y-76447050D01*
X128642793Y-76455244D01*
X128672004Y-76480765D01*
X128672013Y-76480771D01*
X128725924Y-76512981D01*
X128733449Y-76517854D01*
X128782359Y-76552101D01*
X128782365Y-76552104D01*
X128817798Y-76568627D01*
X128828992Y-76574561D01*
X128865234Y-76596214D01*
X128865236Y-76596215D01*
X128910728Y-76613288D01*
X128920838Y-76617082D01*
X128929669Y-76620792D01*
X128973300Y-76641138D01*
X128980670Y-76644575D01*
X128980675Y-76644577D01*
X129021756Y-76655584D01*
X129033227Y-76659262D01*
X129075976Y-76675307D01*
X129131047Y-76685301D01*
X129140965Y-76687526D01*
X129192023Y-76701207D01*
X129237829Y-76705214D01*
X129249121Y-76706728D01*
X129297453Y-76715500D01*
X129349985Y-76715500D01*
X129360792Y-76715972D01*
X129409998Y-76720277D01*
X129410000Y-76720277D01*
X129460369Y-76715870D01*
X129465600Y-76715524D01*
X129466122Y-76715500D01*
X129466155Y-76715500D01*
X129519217Y-76710724D01*
X129520173Y-76710638D01*
X129520180Y-76710724D01*
X129520477Y-76710611D01*
X129627977Y-76701207D01*
X129627982Y-76701205D01*
X129630000Y-76701029D01*
X129632205Y-76700736D01*
X129634182Y-76700377D01*
X129634188Y-76700377D01*
X129737684Y-76671812D01*
X129738350Y-76671631D01*
X129839330Y-76644575D01*
X129839337Y-76644571D01*
X129843913Y-76642906D01*
X129849449Y-76641138D01*
X129851159Y-76640495D01*
X129851170Y-76640493D01*
X129944890Y-76595359D01*
X129946016Y-76594825D01*
X130037639Y-76552102D01*
X130037640Y-76552101D01*
X130042327Y-76549395D01*
X130042400Y-76549522D01*
X130053164Y-76543218D01*
X130053973Y-76542829D01*
X130135325Y-76483721D01*
X130136993Y-76482531D01*
X130216877Y-76426598D01*
X130217747Y-76425727D01*
X130232550Y-76413084D01*
X130236078Y-76410522D01*
X130303237Y-76340277D01*
X130305098Y-76338376D01*
X130371592Y-76271883D01*
X130371592Y-76271882D01*
X130371598Y-76271877D01*
X130374285Y-76268039D01*
X130386239Y-76253465D01*
X130391629Y-76247828D01*
X130391628Y-76247828D01*
X130391632Y-76247825D01*
X130443266Y-76169600D01*
X130445083Y-76166928D01*
X130497102Y-76092639D01*
X130500543Y-76085259D01*
X130509432Y-76069364D01*
X130515635Y-76059968D01*
X130551114Y-75976958D01*
X130552713Y-75973377D01*
X130589575Y-75894330D01*
X130592570Y-75883148D01*
X130598325Y-75866505D01*
X130604103Y-75852988D01*
X130623417Y-75768366D01*
X130624533Y-75763863D01*
X130646207Y-75682977D01*
X130647515Y-75668015D01*
X130650150Y-75651237D01*
X130654191Y-75633537D01*
X130657934Y-75550183D01*
X130658274Y-75545036D01*
X130665277Y-75465003D01*
X133004723Y-75465003D01*
X133006331Y-75483389D01*
X133006678Y-75499752D01*
X133005709Y-75521324D01*
X133005710Y-75521328D01*
X133016444Y-75600576D01*
X133017094Y-75606412D01*
X133023792Y-75682972D01*
X133023795Y-75682989D01*
X133029461Y-75704134D01*
X133032563Y-75719576D01*
X133035923Y-75744380D01*
X133035926Y-75744392D01*
X133059573Y-75817169D01*
X133061417Y-75823393D01*
X133080423Y-75894324D01*
X133080428Y-75894337D01*
X133091135Y-75917300D01*
X133096682Y-75931380D01*
X133105483Y-75958464D01*
X133140128Y-76022845D01*
X133143316Y-76029200D01*
X133172897Y-76092638D01*
X133172898Y-76092639D01*
X133189410Y-76116221D01*
X133197025Y-76128578D01*
X133212146Y-76156678D01*
X133212152Y-76156687D01*
X133255587Y-76211153D01*
X133260214Y-76217340D01*
X133285510Y-76253465D01*
X133298402Y-76271877D01*
X133298405Y-76271880D01*
X133321186Y-76294661D01*
X133330452Y-76305029D01*
X133352492Y-76332666D01*
X133402387Y-76376259D01*
X133408484Y-76381959D01*
X133453116Y-76426592D01*
X133453121Y-76426596D01*
X133453123Y-76426598D01*
X133454583Y-76427620D01*
X133482332Y-76447050D01*
X133492793Y-76455244D01*
X133522004Y-76480765D01*
X133522013Y-76480771D01*
X133575924Y-76512981D01*
X133583449Y-76517854D01*
X133632359Y-76552101D01*
X133632365Y-76552104D01*
X133667798Y-76568627D01*
X133678992Y-76574561D01*
X133715234Y-76596214D01*
X133715236Y-76596215D01*
X133760728Y-76613288D01*
X133770838Y-76617082D01*
X133779669Y-76620792D01*
X133823300Y-76641138D01*
X133830670Y-76644575D01*
X133830675Y-76644577D01*
X133871756Y-76655584D01*
X133883227Y-76659262D01*
X133925976Y-76675307D01*
X133981047Y-76685301D01*
X133990965Y-76687526D01*
X134042023Y-76701207D01*
X134087829Y-76705214D01*
X134099121Y-76706728D01*
X134147453Y-76715500D01*
X134199985Y-76715500D01*
X134210792Y-76715972D01*
X134259998Y-76720277D01*
X134260000Y-76720277D01*
X134310369Y-76715870D01*
X134315600Y-76715524D01*
X134316122Y-76715500D01*
X134316155Y-76715500D01*
X134369217Y-76710724D01*
X134370173Y-76710638D01*
X134370180Y-76710724D01*
X134370477Y-76710611D01*
X134477977Y-76701207D01*
X134477982Y-76701205D01*
X134480000Y-76701029D01*
X134482205Y-76700736D01*
X134484182Y-76700377D01*
X134484188Y-76700377D01*
X134587684Y-76671812D01*
X134588350Y-76671631D01*
X134689330Y-76644575D01*
X134689337Y-76644571D01*
X134693913Y-76642906D01*
X134699449Y-76641138D01*
X134701159Y-76640495D01*
X134701170Y-76640493D01*
X134794890Y-76595359D01*
X134796016Y-76594825D01*
X134887639Y-76552102D01*
X134887640Y-76552101D01*
X134892327Y-76549395D01*
X134892400Y-76549522D01*
X134903164Y-76543218D01*
X134903973Y-76542829D01*
X134985325Y-76483721D01*
X134986993Y-76482531D01*
X135066877Y-76426598D01*
X135067747Y-76425727D01*
X135082550Y-76413084D01*
X135086078Y-76410522D01*
X135153237Y-76340277D01*
X135155098Y-76338376D01*
X135221592Y-76271883D01*
X135221592Y-76271882D01*
X135221598Y-76271877D01*
X135224285Y-76268039D01*
X135236239Y-76253465D01*
X135241629Y-76247828D01*
X135241628Y-76247828D01*
X135241632Y-76247825D01*
X135293266Y-76169600D01*
X135295083Y-76166928D01*
X135347102Y-76092639D01*
X135350543Y-76085259D01*
X135359432Y-76069364D01*
X135365635Y-76059968D01*
X135401114Y-75976958D01*
X135402713Y-75973377D01*
X135439575Y-75894330D01*
X135442570Y-75883148D01*
X135448325Y-75866505D01*
X135454103Y-75852988D01*
X135473417Y-75768366D01*
X135474533Y-75763863D01*
X135496207Y-75682977D01*
X135497515Y-75668015D01*
X135500150Y-75651237D01*
X135504191Y-75633537D01*
X135507934Y-75550183D01*
X135508274Y-75545036D01*
X135515277Y-75465000D01*
X135513667Y-75446608D01*
X135513321Y-75430239D01*
X135514290Y-75408670D01*
X135503549Y-75329385D01*
X135502905Y-75323600D01*
X135496207Y-75247023D01*
X135490539Y-75225870D01*
X135487434Y-75210412D01*
X135484076Y-75185619D01*
X135484075Y-75185618D01*
X135484075Y-75185613D01*
X135460414Y-75112795D01*
X135458578Y-75106593D01*
X135439576Y-75035674D01*
X135439575Y-75035671D01*
X135439575Y-75035670D01*
X135428863Y-75012699D01*
X135423317Y-74998618D01*
X135414519Y-74971541D01*
X135414517Y-74971537D01*
X135414517Y-74971536D01*
X135379869Y-74907149D01*
X135376681Y-74900794D01*
X135354398Y-74853009D01*
X135347102Y-74837362D01*
X135330592Y-74813785D01*
X135322976Y-74801425D01*
X135307852Y-74773319D01*
X135264398Y-74718830D01*
X135259785Y-74712661D01*
X135221598Y-74658123D01*
X135198804Y-74635329D01*
X135189545Y-74624968D01*
X135167506Y-74597332D01*
X135117611Y-74553739D01*
X135111514Y-74548039D01*
X135066878Y-74503402D01*
X135037663Y-74482946D01*
X135027210Y-74474759D01*
X134997996Y-74449235D01*
X134995156Y-74447538D01*
X134944073Y-74417017D01*
X134936550Y-74412145D01*
X134887641Y-74377899D01*
X134852205Y-74361374D01*
X134841015Y-74355442D01*
X134804769Y-74333787D01*
X134804767Y-74333786D01*
X134796951Y-74330852D01*
X134749154Y-74312914D01*
X134740349Y-74309216D01*
X134689330Y-74285425D01*
X134648232Y-74274412D01*
X134636759Y-74270731D01*
X134594024Y-74254692D01*
X134538965Y-74244700D01*
X134529016Y-74242468D01*
X134477977Y-74228793D01*
X134432176Y-74224785D01*
X134420846Y-74223264D01*
X134372552Y-74214500D01*
X134372547Y-74214500D01*
X134320015Y-74214500D01*
X134309208Y-74214028D01*
X134260002Y-74209723D01*
X134259996Y-74209723D01*
X134209651Y-74214127D01*
X134204442Y-74214473D01*
X134203848Y-74214499D01*
X134149915Y-74219352D01*
X134149613Y-74219379D01*
X134052239Y-74227899D01*
X134042023Y-74228793D01*
X134042022Y-74228793D01*
X134040081Y-74228963D01*
X134037708Y-74229278D01*
X134035809Y-74229623D01*
X133932522Y-74258129D01*
X133931628Y-74258372D01*
X133830668Y-74285425D01*
X133826051Y-74287105D01*
X133820520Y-74288872D01*
X133818836Y-74289504D01*
X133725246Y-74334573D01*
X133723853Y-74335233D01*
X133632359Y-74377899D01*
X133627670Y-74380606D01*
X133627598Y-74380481D01*
X133616871Y-74386764D01*
X133616031Y-74387168D01*
X133534662Y-74446284D01*
X133532904Y-74447538D01*
X133453121Y-74503403D01*
X133452241Y-74504284D01*
X133437461Y-74516906D01*
X133433928Y-74519472D01*
X133433921Y-74519478D01*
X133366847Y-74589632D01*
X133364903Y-74591619D01*
X133298404Y-74658119D01*
X133298402Y-74658121D01*
X133295711Y-74661965D01*
X133283773Y-74676521D01*
X133278368Y-74682174D01*
X133258253Y-74712647D01*
X133226750Y-74760369D01*
X133224865Y-74763142D01*
X133172901Y-74837356D01*
X133172891Y-74837374D01*
X133169457Y-74844738D01*
X133160572Y-74860628D01*
X133154363Y-74870034D01*
X133118893Y-74953020D01*
X133117254Y-74956688D01*
X133080426Y-75035664D01*
X133080424Y-75035671D01*
X133077425Y-75046860D01*
X133071681Y-75063475D01*
X133065899Y-75077005D01*
X133065896Y-75077014D01*
X133046576Y-75161659D01*
X133045460Y-75166158D01*
X133023793Y-75247022D01*
X133022483Y-75261992D01*
X133019847Y-75278769D01*
X133015809Y-75296459D01*
X133015809Y-75296464D01*
X133012066Y-75379777D01*
X133011719Y-75385016D01*
X133004723Y-75464995D01*
X133004723Y-75465003D01*
X130665277Y-75465003D01*
X130665277Y-75465000D01*
X130663667Y-75446608D01*
X130663321Y-75430239D01*
X130664290Y-75408670D01*
X130653549Y-75329385D01*
X130652905Y-75323600D01*
X130646207Y-75247023D01*
X130640539Y-75225870D01*
X130637434Y-75210412D01*
X130634076Y-75185619D01*
X130634075Y-75185618D01*
X130634075Y-75185613D01*
X130610414Y-75112795D01*
X130608578Y-75106593D01*
X130589576Y-75035674D01*
X130589575Y-75035671D01*
X130589575Y-75035670D01*
X130578863Y-75012699D01*
X130573317Y-74998618D01*
X130564519Y-74971541D01*
X130564517Y-74971537D01*
X130564517Y-74971536D01*
X130529869Y-74907149D01*
X130526681Y-74900794D01*
X130504398Y-74853009D01*
X130497102Y-74837362D01*
X130480592Y-74813785D01*
X130472976Y-74801425D01*
X130457852Y-74773319D01*
X130414398Y-74718830D01*
X130409785Y-74712661D01*
X130371598Y-74658123D01*
X130348804Y-74635329D01*
X130339545Y-74624968D01*
X130317506Y-74597332D01*
X130267611Y-74553739D01*
X130261514Y-74548039D01*
X130216878Y-74503402D01*
X130187663Y-74482946D01*
X130177210Y-74474759D01*
X130147996Y-74449235D01*
X130145156Y-74447538D01*
X130094073Y-74417017D01*
X130086550Y-74412145D01*
X130037641Y-74377899D01*
X130002205Y-74361374D01*
X129991015Y-74355442D01*
X129954769Y-74333787D01*
X129954767Y-74333786D01*
X129946951Y-74330852D01*
X129899154Y-74312914D01*
X129890349Y-74309216D01*
X129839330Y-74285425D01*
X129798232Y-74274412D01*
X129786759Y-74270731D01*
X129744024Y-74254692D01*
X129688965Y-74244700D01*
X129679016Y-74242468D01*
X129627977Y-74228793D01*
X129582176Y-74224785D01*
X129570846Y-74223264D01*
X129522552Y-74214500D01*
X129522547Y-74214500D01*
X129470015Y-74214500D01*
X129459208Y-74214028D01*
X129410002Y-74209723D01*
X129409996Y-74209723D01*
X129359651Y-74214127D01*
X129354442Y-74214473D01*
X129353848Y-74214499D01*
X129299915Y-74219352D01*
X129299613Y-74219379D01*
X129202239Y-74227899D01*
X129192023Y-74228793D01*
X129192022Y-74228793D01*
X129190081Y-74228963D01*
X129187708Y-74229278D01*
X129185809Y-74229623D01*
X129082522Y-74258129D01*
X129081628Y-74258372D01*
X128980668Y-74285425D01*
X128976051Y-74287105D01*
X128970520Y-74288872D01*
X128968836Y-74289504D01*
X128875246Y-74334573D01*
X128873853Y-74335233D01*
X128782359Y-74377899D01*
X128777670Y-74380606D01*
X128777598Y-74380481D01*
X128766871Y-74386764D01*
X128766031Y-74387168D01*
X128684662Y-74446284D01*
X128682904Y-74447538D01*
X128603121Y-74503403D01*
X128602241Y-74504284D01*
X128587461Y-74516906D01*
X128583928Y-74519472D01*
X128583921Y-74519478D01*
X128516847Y-74589632D01*
X128514903Y-74591619D01*
X128448404Y-74658119D01*
X128448402Y-74658121D01*
X128445711Y-74661965D01*
X128433773Y-74676521D01*
X128428368Y-74682174D01*
X128408253Y-74712647D01*
X128376750Y-74760369D01*
X128374865Y-74763142D01*
X128322901Y-74837356D01*
X128322891Y-74837374D01*
X128319457Y-74844738D01*
X128310572Y-74860628D01*
X128304363Y-74870034D01*
X128268893Y-74953020D01*
X128267254Y-74956688D01*
X128230426Y-75035664D01*
X128230424Y-75035671D01*
X128227425Y-75046860D01*
X128221681Y-75063475D01*
X128215899Y-75077005D01*
X128215896Y-75077014D01*
X128196576Y-75161659D01*
X128195460Y-75166158D01*
X128173793Y-75247022D01*
X128172483Y-75261992D01*
X128169847Y-75278769D01*
X128165809Y-75296459D01*
X128165809Y-75296464D01*
X128162066Y-75379777D01*
X128161719Y-75385016D01*
X128154723Y-75464995D01*
X128154723Y-75465003D01*
X124295500Y-75465003D01*
X124295499Y-74909383D01*
X124295971Y-74898576D01*
X124298469Y-74870034D01*
X124300659Y-74845000D01*
X124297406Y-74807827D01*
X124295971Y-74791421D01*
X124295499Y-74780613D01*
X124295499Y-73947129D01*
X124295498Y-73947123D01*
X124295497Y-73947116D01*
X124289091Y-73887517D01*
X124266331Y-73826495D01*
X124238797Y-73752671D01*
X124238795Y-73752668D01*
X124161421Y-73649309D01*
X124137004Y-73583848D01*
X124151855Y-73515575D01*
X124161416Y-73500696D01*
X124238796Y-73397331D01*
X124289091Y-73262483D01*
X124295500Y-73202873D01*
X124295499Y-72434998D01*
X127704700Y-72434998D01*
X127711750Y-72520098D01*
X127712061Y-72525071D01*
X127715819Y-72613523D01*
X127715820Y-72613534D01*
X127720092Y-72633355D01*
X127722451Y-72649238D01*
X127723865Y-72666301D01*
X127723865Y-72666306D01*
X127745660Y-72752372D01*
X127746670Y-72756685D01*
X127766044Y-72846575D01*
X127766046Y-72846582D01*
X127772333Y-72862228D01*
X127777477Y-72878010D01*
X127780843Y-72891300D01*
X127810571Y-72959075D01*
X127817875Y-72975725D01*
X127819377Y-72979300D01*
X127854934Y-73067787D01*
X127854935Y-73067788D01*
X127861981Y-73079232D01*
X127869943Y-73094428D01*
X127874076Y-73103850D01*
X127926366Y-73183886D01*
X127928147Y-73186693D01*
X127979930Y-73270794D01*
X127986543Y-73278308D01*
X127997263Y-73292402D01*
X128001019Y-73298151D01*
X128001021Y-73298153D01*
X128068117Y-73371040D01*
X128069930Y-73373054D01*
X128137436Y-73449755D01*
X128142564Y-73453895D01*
X128155882Y-73466377D01*
X128158216Y-73468913D01*
X128234875Y-73528578D01*
X128239062Y-73531837D01*
X128240795Y-73533211D01*
X128322920Y-73599523D01*
X128322922Y-73599524D01*
X128325678Y-73601064D01*
X128341360Y-73611460D01*
X128341367Y-73611465D01*
X128341371Y-73611467D01*
X128341374Y-73611470D01*
X128434507Y-73661870D01*
X128435785Y-73662573D01*
X128489637Y-73692657D01*
X128531051Y-73715793D01*
X128533849Y-73717058D01*
X128540695Y-73720097D01*
X128540794Y-73719873D01*
X128545491Y-73721933D01*
X128545497Y-73721936D01*
X128648950Y-73757451D01*
X128649557Y-73757662D01*
X128755829Y-73795211D01*
X128755843Y-73795213D01*
X128757392Y-73795617D01*
X128763492Y-73796910D01*
X128764999Y-73797291D01*
X128765019Y-73797298D01*
X128876192Y-73815849D01*
X128876608Y-73815919D01*
X128902416Y-73820345D01*
X128990792Y-73835499D01*
X128990800Y-73835500D01*
X129226044Y-73835500D01*
X129226049Y-73835500D01*
X129280013Y-73826494D01*
X129289883Y-73825252D01*
X129347541Y-73820346D01*
X129396925Y-73807487D01*
X129407760Y-73805177D01*
X129454981Y-73797298D01*
X129509963Y-73778421D01*
X129518941Y-73775716D01*
X129578249Y-73760275D01*
X129621642Y-73740659D01*
X129632436Y-73736377D01*
X129674503Y-73721936D01*
X129728611Y-73692653D01*
X129736541Y-73688721D01*
X129795486Y-73662077D01*
X129832120Y-73637316D01*
X129842503Y-73631018D01*
X129878626Y-73611470D01*
X129929878Y-73571578D01*
X129936584Y-73566710D01*
X129993003Y-73528579D01*
X130022460Y-73500345D01*
X130032075Y-73492035D01*
X130061784Y-73468913D01*
X130108070Y-73418632D01*
X130113490Y-73413100D01*
X130165118Y-73363621D01*
X130187351Y-73333557D01*
X130195799Y-73323331D01*
X130218979Y-73298153D01*
X130258223Y-73238084D01*
X130262317Y-73232196D01*
X130306879Y-73171947D01*
X130322176Y-73141604D01*
X130329074Y-73129637D01*
X130345924Y-73103849D01*
X130376130Y-73034984D01*
X130378927Y-73029045D01*
X130414207Y-72959074D01*
X130423155Y-72929854D01*
X130428153Y-72916383D01*
X130439157Y-72891300D01*
X130458450Y-72815110D01*
X130460088Y-72809255D01*
X130484015Y-72731126D01*
X130484016Y-72731121D01*
X130487460Y-72704227D01*
X130490251Y-72689535D01*
X130496132Y-72666311D01*
X130496134Y-72666305D01*
X130502903Y-72584600D01*
X130503484Y-72579095D01*
X130514298Y-72494654D01*
X130513291Y-72470961D01*
X130513602Y-72455481D01*
X130515300Y-72435000D01*
X130515300Y-72434998D01*
X133154700Y-72434998D01*
X133161750Y-72520098D01*
X133162061Y-72525071D01*
X133165819Y-72613523D01*
X133165820Y-72613534D01*
X133170092Y-72633355D01*
X133172451Y-72649238D01*
X133173865Y-72666301D01*
X133173865Y-72666306D01*
X133195660Y-72752372D01*
X133196670Y-72756685D01*
X133216044Y-72846575D01*
X133216046Y-72846582D01*
X133222333Y-72862228D01*
X133227477Y-72878010D01*
X133230843Y-72891300D01*
X133260571Y-72959075D01*
X133267875Y-72975725D01*
X133269377Y-72979300D01*
X133304934Y-73067787D01*
X133304935Y-73067788D01*
X133311981Y-73079232D01*
X133319943Y-73094428D01*
X133324076Y-73103850D01*
X133376366Y-73183886D01*
X133378147Y-73186693D01*
X133429930Y-73270794D01*
X133436543Y-73278308D01*
X133447263Y-73292402D01*
X133451019Y-73298151D01*
X133451021Y-73298153D01*
X133518117Y-73371040D01*
X133519930Y-73373054D01*
X133587436Y-73449755D01*
X133592564Y-73453895D01*
X133605882Y-73466377D01*
X133608216Y-73468913D01*
X133684875Y-73528578D01*
X133689062Y-73531837D01*
X133690795Y-73533211D01*
X133772920Y-73599523D01*
X133772922Y-73599524D01*
X133775678Y-73601064D01*
X133791360Y-73611460D01*
X133791367Y-73611465D01*
X133791371Y-73611467D01*
X133791374Y-73611470D01*
X133884507Y-73661870D01*
X133885785Y-73662573D01*
X133939637Y-73692657D01*
X133981051Y-73715793D01*
X133983849Y-73717058D01*
X133990695Y-73720097D01*
X133990794Y-73719873D01*
X133995491Y-73721933D01*
X133995497Y-73721936D01*
X134098950Y-73757451D01*
X134099557Y-73757662D01*
X134205829Y-73795211D01*
X134205843Y-73795213D01*
X134207392Y-73795617D01*
X134213492Y-73796910D01*
X134214999Y-73797291D01*
X134215019Y-73797298D01*
X134326192Y-73815849D01*
X134326608Y-73815919D01*
X134352416Y-73820345D01*
X134440792Y-73835499D01*
X134440800Y-73835500D01*
X134676044Y-73835500D01*
X134676049Y-73835500D01*
X134730013Y-73826494D01*
X134739883Y-73825252D01*
X134797541Y-73820346D01*
X134846925Y-73807487D01*
X134857760Y-73805177D01*
X134904981Y-73797298D01*
X134959963Y-73778421D01*
X134968941Y-73775716D01*
X135028249Y-73760275D01*
X135071642Y-73740659D01*
X135082436Y-73736377D01*
X135124503Y-73721936D01*
X135178611Y-73692653D01*
X135186541Y-73688721D01*
X135245486Y-73662077D01*
X135282120Y-73637316D01*
X135292503Y-73631018D01*
X135328626Y-73611470D01*
X135379878Y-73571578D01*
X135386584Y-73566710D01*
X135443003Y-73528579D01*
X135472460Y-73500345D01*
X135482075Y-73492035D01*
X135511784Y-73468913D01*
X135558070Y-73418632D01*
X135563490Y-73413100D01*
X135615118Y-73363621D01*
X135637351Y-73333557D01*
X135645799Y-73323331D01*
X135668979Y-73298153D01*
X135708223Y-73238084D01*
X135712317Y-73232196D01*
X135756879Y-73171947D01*
X135772176Y-73141604D01*
X135779074Y-73129637D01*
X135795924Y-73103849D01*
X135826130Y-73034984D01*
X135828927Y-73029045D01*
X135864207Y-72959074D01*
X135873155Y-72929854D01*
X135878153Y-72916383D01*
X135889157Y-72891300D01*
X135908450Y-72815110D01*
X135910088Y-72809255D01*
X135934015Y-72731126D01*
X135934016Y-72731121D01*
X135937460Y-72704227D01*
X135940251Y-72689535D01*
X135946132Y-72666311D01*
X135946134Y-72666305D01*
X135952903Y-72584600D01*
X135953484Y-72579095D01*
X135964298Y-72494654D01*
X135963291Y-72470961D01*
X135963602Y-72455481D01*
X135965300Y-72435000D01*
X135958248Y-72349902D01*
X135957938Y-72344943D01*
X135956241Y-72305002D01*
X135954180Y-72256468D01*
X135949906Y-72236640D01*
X135947548Y-72220764D01*
X135946134Y-72203695D01*
X135924325Y-72117577D01*
X135923336Y-72113354D01*
X135903954Y-72023419D01*
X135897665Y-72007770D01*
X135892519Y-71991980D01*
X135889157Y-71978700D01*
X135852092Y-71894202D01*
X135850621Y-71890697D01*
X135815064Y-71802210D01*
X135808021Y-71790771D01*
X135800053Y-71775565D01*
X135795924Y-71766151D01*
X135743639Y-71686122D01*
X135741859Y-71683315D01*
X135690074Y-71599212D01*
X135690071Y-71599209D01*
X135690069Y-71599205D01*
X135683451Y-71591686D01*
X135672727Y-71577584D01*
X135668980Y-71571848D01*
X135645800Y-71546668D01*
X135601876Y-71498953D01*
X135600068Y-71496944D01*
X135532565Y-71420246D01*
X135527439Y-71416107D01*
X135514117Y-71403621D01*
X135511785Y-71401088D01*
X135511783Y-71401086D01*
X135430936Y-71338161D01*
X135429198Y-71336783D01*
X135347080Y-71270477D01*
X135347073Y-71270472D01*
X135344311Y-71268929D01*
X135328643Y-71258542D01*
X135328634Y-71258535D01*
X135328628Y-71258532D01*
X135328626Y-71258530D01*
X135235485Y-71208125D01*
X135234094Y-71207359D01*
X135138961Y-71154213D01*
X135136381Y-71153047D01*
X135129284Y-71149898D01*
X135129188Y-71150119D01*
X135124499Y-71148062D01*
X135021278Y-71112626D01*
X135020233Y-71112262D01*
X134914172Y-71074789D01*
X134912635Y-71074389D01*
X134906549Y-71073098D01*
X134904995Y-71072704D01*
X134793772Y-71054144D01*
X134793227Y-71054051D01*
X134679210Y-71034500D01*
X134679200Y-71034500D01*
X134676049Y-71034500D01*
X134443951Y-71034500D01*
X134389993Y-71043503D01*
X134380101Y-71044747D01*
X134322470Y-71049652D01*
X134322461Y-71049653D01*
X134273077Y-71062511D01*
X134262250Y-71064819D01*
X134215012Y-71072703D01*
X134160068Y-71091566D01*
X134151051Y-71094284D01*
X134091749Y-71109725D01*
X134091743Y-71109727D01*
X134048361Y-71129337D01*
X134037553Y-71133624D01*
X133995504Y-71148060D01*
X133995498Y-71148063D01*
X133941396Y-71177341D01*
X133933460Y-71181275D01*
X133874514Y-71207922D01*
X133837883Y-71232679D01*
X133827470Y-71238994D01*
X133791379Y-71258526D01*
X133791367Y-71258533D01*
X133740126Y-71298416D01*
X133733402Y-71303297D01*
X133677001Y-71341417D01*
X133676994Y-71341423D01*
X133647546Y-71369644D01*
X133637918Y-71377967D01*
X133608217Y-71401085D01*
X133608209Y-71401093D01*
X133561925Y-71451369D01*
X133556500Y-71456905D01*
X133504882Y-71506378D01*
X133504880Y-71506380D01*
X133482657Y-71536427D01*
X133474198Y-71546668D01*
X133451021Y-71571846D01*
X133411781Y-71631906D01*
X133407671Y-71637814D01*
X133363124Y-71698047D01*
X133363119Y-71698055D01*
X133347826Y-71728384D01*
X133340918Y-71740370D01*
X133324076Y-71766149D01*
X133293887Y-71834974D01*
X133291060Y-71840975D01*
X133264189Y-71894274D01*
X133255791Y-71910930D01*
X133246847Y-71940131D01*
X133241842Y-71953620D01*
X133230845Y-71978691D01*
X133230845Y-71978692D01*
X133211552Y-72054872D01*
X133209913Y-72060735D01*
X133185984Y-72138877D01*
X133185983Y-72138879D01*
X133182538Y-72165777D01*
X133179750Y-72180454D01*
X133173867Y-72203687D01*
X133173864Y-72203706D01*
X133167097Y-72285377D01*
X133166517Y-72290887D01*
X133155702Y-72375344D01*
X133155701Y-72375345D01*
X133156707Y-72399025D01*
X133156396Y-72414520D01*
X133154700Y-72434998D01*
X130515300Y-72434998D01*
X130508248Y-72349902D01*
X130507938Y-72344943D01*
X130506241Y-72305002D01*
X130504180Y-72256468D01*
X130499906Y-72236640D01*
X130497548Y-72220764D01*
X130496134Y-72203695D01*
X130474325Y-72117577D01*
X130473336Y-72113354D01*
X130453954Y-72023419D01*
X130447665Y-72007770D01*
X130442519Y-71991980D01*
X130439157Y-71978700D01*
X130402092Y-71894202D01*
X130400621Y-71890697D01*
X130365064Y-71802210D01*
X130358021Y-71790771D01*
X130350053Y-71775565D01*
X130345924Y-71766151D01*
X130293639Y-71686122D01*
X130291859Y-71683315D01*
X130240074Y-71599212D01*
X130240071Y-71599209D01*
X130240069Y-71599205D01*
X130233451Y-71591686D01*
X130222727Y-71577584D01*
X130218980Y-71571848D01*
X130195800Y-71546668D01*
X130151876Y-71498953D01*
X130150068Y-71496944D01*
X130082565Y-71420246D01*
X130077439Y-71416107D01*
X130064117Y-71403621D01*
X130061785Y-71401088D01*
X130061783Y-71401086D01*
X129980936Y-71338161D01*
X129979198Y-71336783D01*
X129897080Y-71270477D01*
X129897073Y-71270472D01*
X129894311Y-71268929D01*
X129878643Y-71258542D01*
X129878634Y-71258535D01*
X129878628Y-71258532D01*
X129878626Y-71258530D01*
X129785485Y-71208125D01*
X129784094Y-71207359D01*
X129688961Y-71154213D01*
X129686381Y-71153047D01*
X129679284Y-71149898D01*
X129679188Y-71150119D01*
X129674499Y-71148062D01*
X129571278Y-71112626D01*
X129570233Y-71112262D01*
X129464172Y-71074789D01*
X129462635Y-71074389D01*
X129456549Y-71073098D01*
X129454995Y-71072704D01*
X129343772Y-71054144D01*
X129343227Y-71054051D01*
X129229210Y-71034500D01*
X129229200Y-71034500D01*
X129226049Y-71034500D01*
X128993951Y-71034500D01*
X128939993Y-71043503D01*
X128930101Y-71044747D01*
X128872470Y-71049652D01*
X128872461Y-71049653D01*
X128823077Y-71062511D01*
X128812250Y-71064819D01*
X128765012Y-71072703D01*
X128710068Y-71091566D01*
X128701051Y-71094284D01*
X128641749Y-71109725D01*
X128641743Y-71109727D01*
X128598361Y-71129337D01*
X128587553Y-71133624D01*
X128545504Y-71148060D01*
X128545498Y-71148063D01*
X128491396Y-71177341D01*
X128483460Y-71181275D01*
X128424514Y-71207922D01*
X128387883Y-71232679D01*
X128377470Y-71238994D01*
X128341379Y-71258526D01*
X128341367Y-71258533D01*
X128290126Y-71298416D01*
X128283402Y-71303297D01*
X128227001Y-71341417D01*
X128226994Y-71341423D01*
X128197546Y-71369644D01*
X128187918Y-71377967D01*
X128158217Y-71401085D01*
X128158209Y-71401093D01*
X128111925Y-71451369D01*
X128106500Y-71456905D01*
X128054882Y-71506378D01*
X128054880Y-71506380D01*
X128032657Y-71536427D01*
X128024198Y-71546668D01*
X128001021Y-71571846D01*
X127961781Y-71631906D01*
X127957671Y-71637814D01*
X127913124Y-71698047D01*
X127913119Y-71698055D01*
X127897826Y-71728384D01*
X127890918Y-71740370D01*
X127874076Y-71766149D01*
X127843887Y-71834974D01*
X127841060Y-71840975D01*
X127814189Y-71894274D01*
X127805791Y-71910930D01*
X127796847Y-71940131D01*
X127791842Y-71953620D01*
X127780845Y-71978691D01*
X127780845Y-71978692D01*
X127761552Y-72054872D01*
X127759913Y-72060735D01*
X127735984Y-72138877D01*
X127735983Y-72138879D01*
X127732538Y-72165777D01*
X127729750Y-72180454D01*
X127723867Y-72203687D01*
X127723864Y-72203706D01*
X127717097Y-72285377D01*
X127716517Y-72290887D01*
X127705702Y-72375344D01*
X127705701Y-72375345D01*
X127706707Y-72399025D01*
X127706396Y-72414520D01*
X127704700Y-72434998D01*
X124295499Y-72434998D01*
X124295499Y-72369383D01*
X124295971Y-72358576D01*
X124300659Y-72305000D01*
X124300659Y-72304999D01*
X124295971Y-72251421D01*
X124295499Y-72240613D01*
X124295499Y-71407129D01*
X124295498Y-71407123D01*
X124295497Y-71407116D01*
X124289091Y-71347517D01*
X124286817Y-71341421D01*
X124238797Y-71212671D01*
X124238793Y-71212664D01*
X124152547Y-71097455D01*
X124152544Y-71097452D01*
X124037335Y-71011206D01*
X124037328Y-71011202D01*
X123902482Y-70960908D01*
X123902483Y-70960908D01*
X123842883Y-70954501D01*
X123842881Y-70954500D01*
X123842873Y-70954500D01*
X123842865Y-70954500D01*
X123009380Y-70954500D01*
X122998573Y-70954028D01*
X122972024Y-70951705D01*
X122945001Y-70949341D01*
X122944998Y-70949341D01*
X122891424Y-70954028D01*
X122880617Y-70954500D01*
X120247129Y-70954500D01*
X120247123Y-70954501D01*
X120187516Y-70960908D01*
X120052671Y-71011202D01*
X120052664Y-71011206D01*
X119937455Y-71097452D01*
X119937452Y-71097455D01*
X119851206Y-71212664D01*
X119851202Y-71212671D01*
X119800908Y-71347517D01*
X119794877Y-71403621D01*
X119794501Y-71407123D01*
X119794500Y-71407135D01*
X119794500Y-73202870D01*
X119794501Y-73202876D01*
X119800908Y-73262483D01*
X119851202Y-73397328D01*
X119851203Y-73397330D01*
X119928578Y-73500689D01*
X119952995Y-73566153D01*
X119938144Y-73634426D01*
X119928578Y-73649309D01*
X119918168Y-73663216D01*
X119851203Y-73752669D01*
X119851202Y-73752671D01*
X119800908Y-73887517D01*
X119794501Y-73947116D01*
X119794501Y-73947123D01*
X119794500Y-73947135D01*
X119794500Y-75742870D01*
X119794501Y-75742876D01*
X119800908Y-75802483D01*
X119851202Y-75937328D01*
X119851206Y-75937335D01*
X119928889Y-76041105D01*
X119953307Y-76106569D01*
X119938456Y-76174842D01*
X119928890Y-76189727D01*
X119851647Y-76292910D01*
X119851645Y-76292913D01*
X119801403Y-76427620D01*
X119801401Y-76427627D01*
X119795000Y-76487155D01*
X119795000Y-77135000D01*
X122499428Y-77135000D01*
X122476318Y-77170960D01*
X122435000Y-77311673D01*
X122435000Y-77458327D01*
X122476318Y-77599040D01*
X122499428Y-77635000D01*
X119795000Y-77635000D01*
X119795000Y-78282844D01*
X119801401Y-78342372D01*
X119801403Y-78342379D01*
X119851645Y-78477086D01*
X119851646Y-78477088D01*
X119928890Y-78580272D01*
X119953307Y-78645736D01*
X119938456Y-78714009D01*
X119928890Y-78728894D01*
X119851204Y-78832669D01*
X119851202Y-78832671D01*
X119800908Y-78967517D01*
X119794501Y-79027116D01*
X119794501Y-79027123D01*
X119794500Y-79027135D01*
X119794500Y-80822870D01*
X119794501Y-80822876D01*
X119800908Y-80882483D01*
X119851202Y-81017328D01*
X119851203Y-81017330D01*
X119928578Y-81120689D01*
X119952995Y-81186153D01*
X119938144Y-81254426D01*
X119928578Y-81269311D01*
X119851203Y-81372669D01*
X119851202Y-81372671D01*
X119800908Y-81507517D01*
X119794501Y-81567116D01*
X119794501Y-81567123D01*
X119794500Y-81567135D01*
X119794500Y-83362870D01*
X119794501Y-83362876D01*
X119800908Y-83422483D01*
X119851202Y-83557328D01*
X119851203Y-83557330D01*
X119928578Y-83660689D01*
X119952995Y-83726153D01*
X119938144Y-83794426D01*
X119928578Y-83809311D01*
X119851203Y-83912669D01*
X119851202Y-83912671D01*
X119800908Y-84047517D01*
X119794501Y-84107116D01*
X119794501Y-84107123D01*
X119794500Y-84107135D01*
X119794500Y-85902870D01*
X119794501Y-85902876D01*
X119800908Y-85962483D01*
X119851202Y-86097328D01*
X119851203Y-86097330D01*
X119928578Y-86200689D01*
X119952995Y-86266153D01*
X119938144Y-86334426D01*
X119928578Y-86349311D01*
X119851203Y-86452669D01*
X119851202Y-86452671D01*
X119800908Y-86587517D01*
X119794501Y-86647116D01*
X119794501Y-86647123D01*
X119794500Y-86647135D01*
X119794500Y-88442870D01*
X119794501Y-88442876D01*
X119800908Y-88502483D01*
X119851202Y-88637328D01*
X119851203Y-88637330D01*
X119928578Y-88740689D01*
X119952995Y-88806153D01*
X119938144Y-88874426D01*
X119928578Y-88889309D01*
X119928265Y-88889729D01*
X119851203Y-88992669D01*
X119851202Y-88992671D01*
X119800908Y-89127517D01*
X119794501Y-89187116D01*
X119794501Y-89187123D01*
X119794500Y-89187135D01*
X119794500Y-90982870D01*
X119794501Y-90982876D01*
X119800908Y-91042483D01*
X119851202Y-91177328D01*
X119851203Y-91177330D01*
X119928578Y-91280689D01*
X119952995Y-91346153D01*
X119938144Y-91414426D01*
X119928578Y-91429311D01*
X119851203Y-91532669D01*
X119851202Y-91532671D01*
X119800908Y-91667517D01*
X119794501Y-91727116D01*
X119794501Y-91727123D01*
X119794500Y-91727135D01*
X119794500Y-93522870D01*
X119794501Y-93522876D01*
X119800908Y-93582483D01*
X119851202Y-93717328D01*
X119851203Y-93717330D01*
X119928578Y-93820689D01*
X119952995Y-93886153D01*
X119938144Y-93954426D01*
X119928578Y-93969311D01*
X119851203Y-94072669D01*
X119851202Y-94072671D01*
X119800908Y-94207517D01*
X119794501Y-94267116D01*
X119794501Y-94267123D01*
X119794500Y-94267135D01*
X119794500Y-96062870D01*
X119794501Y-96062876D01*
X119800908Y-96122483D01*
X119851202Y-96257328D01*
X119851203Y-96257330D01*
X119928578Y-96360689D01*
X119952995Y-96426153D01*
X119938144Y-96494426D01*
X119928578Y-96509311D01*
X119851203Y-96612669D01*
X119851202Y-96612671D01*
X119800908Y-96747517D01*
X119794501Y-96807116D01*
X119794501Y-96807123D01*
X119794500Y-96807135D01*
X119794500Y-98602870D01*
X119794501Y-98602876D01*
X119800908Y-98662483D01*
X119851202Y-98797328D01*
X119851203Y-98797330D01*
X119928578Y-98900689D01*
X119952995Y-98966153D01*
X119938144Y-99034426D01*
X119928578Y-99049311D01*
X119851203Y-99152669D01*
X119851202Y-99152671D01*
X119800908Y-99287517D01*
X119794501Y-99347116D01*
X119794501Y-99347123D01*
X119794500Y-99347135D01*
X119794500Y-101142870D01*
X119794501Y-101142876D01*
X119800908Y-101202483D01*
X119851202Y-101337328D01*
X119851206Y-101337335D01*
X119928889Y-101441105D01*
X119953307Y-101506569D01*
X119938456Y-101574842D01*
X119928890Y-101589727D01*
X119851647Y-101692910D01*
X119851645Y-101692913D01*
X119801403Y-101827620D01*
X119801401Y-101827627D01*
X119795000Y-101887155D01*
X119795000Y-102535000D01*
X122499428Y-102535000D01*
X122476318Y-102570960D01*
X122435000Y-102711673D01*
X122435000Y-102858327D01*
X122476318Y-102999040D01*
X122499428Y-103035000D01*
X119795000Y-103035000D01*
X119795000Y-103682844D01*
X119801401Y-103742372D01*
X119801403Y-103742379D01*
X119851645Y-103877086D01*
X119851646Y-103877088D01*
X119928890Y-103980272D01*
X119953307Y-104045736D01*
X119938456Y-104114009D01*
X119928890Y-104128894D01*
X119851204Y-104232669D01*
X119851202Y-104232671D01*
X119800908Y-104367517D01*
X119794501Y-104427116D01*
X119794501Y-104427123D01*
X119794500Y-104427135D01*
X119794500Y-106222870D01*
X119794501Y-106222876D01*
X119800908Y-106282483D01*
X119851202Y-106417328D01*
X119851203Y-106417330D01*
X119928578Y-106520689D01*
X119952995Y-106586153D01*
X119938144Y-106654426D01*
X119928578Y-106669311D01*
X119851203Y-106772669D01*
X119851202Y-106772671D01*
X119800908Y-106907517D01*
X119794501Y-106967116D01*
X119794501Y-106967123D01*
X119794500Y-106967135D01*
X119794500Y-108762870D01*
X119794501Y-108762876D01*
X119800908Y-108822483D01*
X119851202Y-108957328D01*
X119851203Y-108957330D01*
X119928578Y-109060689D01*
X119952995Y-109126153D01*
X119938144Y-109194426D01*
X119928578Y-109209311D01*
X119851203Y-109312669D01*
X119851202Y-109312671D01*
X119800908Y-109447517D01*
X119794501Y-109507116D01*
X119794501Y-109507123D01*
X119794500Y-109507135D01*
X119794500Y-111302870D01*
X119794501Y-111302876D01*
X119800908Y-111362483D01*
X119851202Y-111497328D01*
X119851203Y-111497330D01*
X119928578Y-111600689D01*
X119952995Y-111666153D01*
X119938144Y-111734426D01*
X119928578Y-111749311D01*
X119851203Y-111852669D01*
X119851202Y-111852671D01*
X119800908Y-111987517D01*
X119794501Y-112047116D01*
X119794501Y-112047123D01*
X119794500Y-112047135D01*
X119794500Y-113842870D01*
X119794501Y-113842876D01*
X119800908Y-113902483D01*
X119851202Y-114037328D01*
X119851206Y-114037335D01*
X119928889Y-114141105D01*
X119953307Y-114206569D01*
X119938456Y-114274842D01*
X119928890Y-114289727D01*
X119851647Y-114392910D01*
X119851645Y-114392913D01*
X119801403Y-114527620D01*
X119801401Y-114527627D01*
X119795000Y-114587155D01*
X119795000Y-115235000D01*
X122499428Y-115235000D01*
X122476318Y-115270960D01*
X122435000Y-115411673D01*
X122435000Y-115558327D01*
X122476318Y-115699040D01*
X122499428Y-115735000D01*
X119795000Y-115735000D01*
X119795000Y-116382844D01*
X119801401Y-116442372D01*
X119801403Y-116442379D01*
X119851645Y-116577086D01*
X119851646Y-116577088D01*
X119928890Y-116680272D01*
X119953307Y-116745736D01*
X119938456Y-116814009D01*
X119928890Y-116828894D01*
X119851204Y-116932669D01*
X119851202Y-116932671D01*
X119800908Y-117067517D01*
X119794501Y-117127116D01*
X119794501Y-117127123D01*
X119794500Y-117127135D01*
X119794500Y-118922870D01*
X119794501Y-118922876D01*
X119800908Y-118982483D01*
X119851202Y-119117328D01*
X119851203Y-119117330D01*
X119928578Y-119220689D01*
X119952995Y-119286153D01*
X119938144Y-119354426D01*
X119928578Y-119369311D01*
X119851203Y-119472669D01*
X119851202Y-119472671D01*
X119800908Y-119607517D01*
X119794501Y-119667116D01*
X119794501Y-119667123D01*
X119794500Y-119667135D01*
X119794500Y-121462870D01*
X110490000Y-121462870D01*
X110490000Y-63624000D01*
X110509685Y-63556961D01*
X110562489Y-63511206D01*
X110614000Y-63500000D01*
X151641000Y-63500000D01*
X151708039Y-63519685D01*
G37*
%TD.AperFunction*%
%TD*%
M02*
