%TF.GenerationSoftware,KiCad,Pcbnew,7.0.10+dfsg-1*%
%TF.CreationDate,2024-01-31T12:43:45+01:00*%
%TF.ProjectId,pcb_chibi,7063625f-6368-4696-9269-2e6b69636164,rev?*%
%TF.SameCoordinates,Original*%
%TF.FileFunction,Soldermask,Top*%
%TF.FilePolarity,Negative*%
%FSLAX46Y46*%
G04 Gerber Fmt 4.6, Leading zero omitted, Abs format (unit mm)*
G04 Created by KiCad (PCBNEW 7.0.10+dfsg-1) date 2024-01-31 12:43:45*
%MOMM*%
%LPD*%
G01*
G04 APERTURE LIST*
%ADD10C,2.000000*%
%ADD11O,1.600000X2.000000*%
%ADD12O,1.700000X1.700000*%
%ADD13R,1.700000X1.700000*%
%ADD14O,1.800000X1.800000*%
%ADD15O,1.500000X1.500000*%
G04 APERTURE END LIST*
D10*
%TO.C,SW1*%
X122555000Y-134040000D03*
X116055000Y-134040000D03*
X122555000Y-129540000D03*
X116055000Y-129540000D03*
%TD*%
%TO.C,SW3*%
X146760000Y-134330000D03*
X140260000Y-134330000D03*
X146760000Y-129830000D03*
X140260000Y-129830000D03*
%TD*%
D11*
%TO.C,Display*%
X135255000Y-82550000D03*
X132715000Y-82550000D03*
X130175000Y-82550000D03*
X127635000Y-82550000D03*
%TD*%
D10*
%TO.C,SW2*%
X134695000Y-141950000D03*
X128195000Y-141950000D03*
X134695000Y-137450000D03*
X128195000Y-137450000D03*
%TD*%
D12*
%TO.C,Pico*%
X129295000Y-120335000D03*
D13*
X131835000Y-120335000D03*
D12*
X134375000Y-120335000D03*
X122945000Y-72305000D03*
X122945000Y-74845000D03*
D13*
X122945000Y-77385000D03*
D12*
X122945000Y-79925000D03*
X122945000Y-82465000D03*
X122945000Y-85005000D03*
X122945000Y-87545000D03*
D13*
X122945000Y-90085000D03*
D12*
X122945000Y-92625000D03*
X122945000Y-95165000D03*
X122945000Y-97705000D03*
X122945000Y-100245000D03*
D13*
X122945000Y-102785000D03*
D12*
X122945000Y-105325000D03*
X122945000Y-107865000D03*
X122945000Y-110405000D03*
X122945000Y-112945000D03*
D13*
X122945000Y-115485000D03*
D12*
X122945000Y-118025000D03*
X122945000Y-120565000D03*
X140725000Y-120565000D03*
X140725000Y-118025000D03*
D13*
X140725000Y-115485000D03*
D12*
X140725000Y-112945000D03*
X140725000Y-110405000D03*
X140725000Y-107865000D03*
X140725000Y-105325000D03*
D13*
X140725000Y-102785000D03*
D12*
X140725000Y-100245000D03*
X140725000Y-97705000D03*
X140725000Y-95165000D03*
X140725000Y-92625000D03*
D13*
X140725000Y-90085000D03*
D12*
X140725000Y-87545000D03*
X140725000Y-85005000D03*
X140725000Y-82465000D03*
X140725000Y-79925000D03*
D13*
X140725000Y-77385000D03*
D12*
X140725000Y-74845000D03*
X140725000Y-72305000D03*
D14*
X129110000Y-72435000D03*
D15*
X129410000Y-75465000D03*
X134260000Y-75465000D03*
D14*
X134560000Y-72435000D03*
%TD*%
M02*
