%TF.GenerationSoftware,KiCad,Pcbnew,7.0.10+dfsg-1*%
%TF.CreationDate,2024-01-31T12:43:45+01:00*%
%TF.ProjectId,pcb_chibi,7063625f-6368-4696-9269-2e6b69636164,rev?*%
%TF.SameCoordinates,Original*%
%TF.FileFunction,Legend,Bot*%
%TF.FilePolarity,Positive*%
%FSLAX46Y46*%
G04 Gerber Fmt 4.6, Leading zero omitted, Abs format (unit mm)*
G04 Created by KiCad (PCBNEW 7.0.10+dfsg-1) date 2024-01-31 12:43:45*
%MOMM*%
%LPD*%
G01*
G04 APERTURE LIST*
%ADD10C,0.150000*%
%ADD11C,0.120000*%
G04 APERTURE END LIST*
D10*
X133215951Y-96889819D02*
X133215951Y-95889819D01*
X133215951Y-95889819D02*
X132834999Y-95889819D01*
X132834999Y-95889819D02*
X132739761Y-95937438D01*
X132739761Y-95937438D02*
X132692142Y-95985057D01*
X132692142Y-95985057D02*
X132644523Y-96080295D01*
X132644523Y-96080295D02*
X132644523Y-96223152D01*
X132644523Y-96223152D02*
X132692142Y-96318390D01*
X132692142Y-96318390D02*
X132739761Y-96366009D01*
X132739761Y-96366009D02*
X132834999Y-96413628D01*
X132834999Y-96413628D02*
X133215951Y-96413628D01*
X132215951Y-96889819D02*
X132215951Y-96223152D01*
X132215951Y-95889819D02*
X132263570Y-95937438D01*
X132263570Y-95937438D02*
X132215951Y-95985057D01*
X132215951Y-95985057D02*
X132168332Y-95937438D01*
X132168332Y-95937438D02*
X132215951Y-95889819D01*
X132215951Y-95889819D02*
X132215951Y-95985057D01*
X131311190Y-96842200D02*
X131406428Y-96889819D01*
X131406428Y-96889819D02*
X131596904Y-96889819D01*
X131596904Y-96889819D02*
X131692142Y-96842200D01*
X131692142Y-96842200D02*
X131739761Y-96794580D01*
X131739761Y-96794580D02*
X131787380Y-96699342D01*
X131787380Y-96699342D02*
X131787380Y-96413628D01*
X131787380Y-96413628D02*
X131739761Y-96318390D01*
X131739761Y-96318390D02*
X131692142Y-96270771D01*
X131692142Y-96270771D02*
X131596904Y-96223152D01*
X131596904Y-96223152D02*
X131406428Y-96223152D01*
X131406428Y-96223152D02*
X131311190Y-96270771D01*
X130739761Y-96889819D02*
X130834999Y-96842200D01*
X130834999Y-96842200D02*
X130882618Y-96794580D01*
X130882618Y-96794580D02*
X130930237Y-96699342D01*
X130930237Y-96699342D02*
X130930237Y-96413628D01*
X130930237Y-96413628D02*
X130882618Y-96318390D01*
X130882618Y-96318390D02*
X130834999Y-96270771D01*
X130834999Y-96270771D02*
X130739761Y-96223152D01*
X130739761Y-96223152D02*
X130596904Y-96223152D01*
X130596904Y-96223152D02*
X130501666Y-96270771D01*
X130501666Y-96270771D02*
X130454047Y-96318390D01*
X130454047Y-96318390D02*
X130406428Y-96413628D01*
X130406428Y-96413628D02*
X130406428Y-96699342D01*
X130406428Y-96699342D02*
X130454047Y-96794580D01*
X130454047Y-96794580D02*
X130501666Y-96842200D01*
X130501666Y-96842200D02*
X130596904Y-96889819D01*
X130596904Y-96889819D02*
X130739761Y-96889819D01*
X119737001Y-87681868D02*
X119817814Y-87708805D01*
X119817814Y-87708805D02*
X119898626Y-87789618D01*
X119898626Y-87789618D02*
X119952501Y-87897367D01*
X119952501Y-87897367D02*
X119952501Y-88005117D01*
X119952501Y-88005117D02*
X119925563Y-88085929D01*
X119925563Y-88085929D02*
X119844751Y-88220616D01*
X119844751Y-88220616D02*
X119763939Y-88301428D01*
X119763939Y-88301428D02*
X119629252Y-88382241D01*
X119629252Y-88382241D02*
X119548439Y-88409178D01*
X119548439Y-88409178D02*
X119440690Y-88409178D01*
X119440690Y-88409178D02*
X119332940Y-88355303D01*
X119332940Y-88355303D02*
X119279065Y-88301428D01*
X119279065Y-88301428D02*
X119225191Y-88193679D01*
X119225191Y-88193679D02*
X119225191Y-88139804D01*
X119225191Y-88139804D02*
X119413752Y-87951242D01*
X119413752Y-87951242D02*
X119521502Y-88058992D01*
X118928879Y-87951242D02*
X119494565Y-87385557D01*
X119494565Y-87385557D02*
X119279065Y-87170057D01*
X119279065Y-87170057D02*
X119198253Y-87143120D01*
X119198253Y-87143120D02*
X119144378Y-87143120D01*
X119144378Y-87143120D02*
X119063566Y-87170057D01*
X119063566Y-87170057D02*
X118982754Y-87250870D01*
X118982754Y-87250870D02*
X118955817Y-87331682D01*
X118955817Y-87331682D02*
X118955817Y-87385557D01*
X118955817Y-87385557D02*
X118982754Y-87466369D01*
X118982754Y-87466369D02*
X119198253Y-87681868D01*
X118901942Y-86900683D02*
X118901942Y-86846809D01*
X118901942Y-86846809D02*
X118875004Y-86765996D01*
X118875004Y-86765996D02*
X118740317Y-86631309D01*
X118740317Y-86631309D02*
X118659505Y-86604372D01*
X118659505Y-86604372D02*
X118605630Y-86604372D01*
X118605630Y-86604372D02*
X118524818Y-86631309D01*
X118524818Y-86631309D02*
X118470943Y-86685184D01*
X118470943Y-86685184D02*
X118417069Y-86792934D01*
X118417069Y-86792934D02*
X118417069Y-87439431D01*
X118417069Y-87439431D02*
X118066882Y-87089245D01*
X118066882Y-86442747D02*
X118147694Y-86469685D01*
X118147694Y-86469685D02*
X118201569Y-86469685D01*
X118201569Y-86469685D02*
X118282381Y-86442747D01*
X118282381Y-86442747D02*
X118309319Y-86415810D01*
X118309319Y-86415810D02*
X118336256Y-86334998D01*
X118336256Y-86334998D02*
X118336256Y-86281123D01*
X118336256Y-86281123D02*
X118309319Y-86200311D01*
X118309319Y-86200311D02*
X118201569Y-86092561D01*
X118201569Y-86092561D02*
X118120757Y-86065624D01*
X118120757Y-86065624D02*
X118066882Y-86065624D01*
X118066882Y-86065624D02*
X117986070Y-86092561D01*
X117986070Y-86092561D02*
X117959133Y-86119499D01*
X117959133Y-86119499D02*
X117932195Y-86200311D01*
X117932195Y-86200311D02*
X117932195Y-86254186D01*
X117932195Y-86254186D02*
X117959133Y-86334998D01*
X117959133Y-86334998D02*
X118066882Y-86442747D01*
X118066882Y-86442747D02*
X118093820Y-86523560D01*
X118093820Y-86523560D02*
X118093820Y-86577434D01*
X118093820Y-86577434D02*
X118066882Y-86658247D01*
X118066882Y-86658247D02*
X117959133Y-86765996D01*
X117959133Y-86765996D02*
X117878320Y-86792934D01*
X117878320Y-86792934D02*
X117824446Y-86792934D01*
X117824446Y-86792934D02*
X117743633Y-86765996D01*
X117743633Y-86765996D02*
X117635884Y-86658247D01*
X117635884Y-86658247D02*
X117608946Y-86577434D01*
X117608946Y-86577434D02*
X117608946Y-86523560D01*
X117608946Y-86523560D02*
X117635884Y-86442747D01*
X117635884Y-86442747D02*
X117743633Y-86334998D01*
X117743633Y-86334998D02*
X117824446Y-86308060D01*
X117824446Y-86308060D02*
X117878320Y-86308060D01*
X117878320Y-86308060D02*
X117959133Y-86334998D01*
X119737001Y-120955868D02*
X119817814Y-120982805D01*
X119817814Y-120982805D02*
X119898626Y-121063618D01*
X119898626Y-121063618D02*
X119952501Y-121171367D01*
X119952501Y-121171367D02*
X119952501Y-121279117D01*
X119952501Y-121279117D02*
X119925563Y-121359929D01*
X119925563Y-121359929D02*
X119844751Y-121494616D01*
X119844751Y-121494616D02*
X119763939Y-121575428D01*
X119763939Y-121575428D02*
X119629252Y-121656241D01*
X119629252Y-121656241D02*
X119548439Y-121683178D01*
X119548439Y-121683178D02*
X119440690Y-121683178D01*
X119440690Y-121683178D02*
X119332940Y-121629303D01*
X119332940Y-121629303D02*
X119279065Y-121575428D01*
X119279065Y-121575428D02*
X119225191Y-121467679D01*
X119225191Y-121467679D02*
X119225191Y-121413804D01*
X119225191Y-121413804D02*
X119413752Y-121225242D01*
X119413752Y-121225242D02*
X119521502Y-121332992D01*
X118928879Y-121225242D02*
X119494565Y-120659557D01*
X119494565Y-120659557D02*
X119279065Y-120444057D01*
X119279065Y-120444057D02*
X119198253Y-120417120D01*
X119198253Y-120417120D02*
X119144378Y-120417120D01*
X119144378Y-120417120D02*
X119063566Y-120444057D01*
X119063566Y-120444057D02*
X118982754Y-120524870D01*
X118982754Y-120524870D02*
X118955817Y-120605682D01*
X118955817Y-120605682D02*
X118955817Y-120659557D01*
X118955817Y-120659557D02*
X118982754Y-120740369D01*
X118982754Y-120740369D02*
X119198253Y-120955868D01*
X118066882Y-120363245D02*
X118390131Y-120686494D01*
X118228507Y-120524870D02*
X118794192Y-119959184D01*
X118794192Y-119959184D02*
X118767255Y-120093871D01*
X118767255Y-120093871D02*
X118767255Y-120201621D01*
X118767255Y-120201621D02*
X118794192Y-120282433D01*
X118147694Y-119312686D02*
X118255444Y-119420436D01*
X118255444Y-119420436D02*
X118282381Y-119501248D01*
X118282381Y-119501248D02*
X118282381Y-119555123D01*
X118282381Y-119555123D02*
X118255444Y-119689810D01*
X118255444Y-119689810D02*
X118174632Y-119824497D01*
X118174632Y-119824497D02*
X117959133Y-120039996D01*
X117959133Y-120039996D02*
X117878320Y-120066934D01*
X117878320Y-120066934D02*
X117824446Y-120066934D01*
X117824446Y-120066934D02*
X117743633Y-120039996D01*
X117743633Y-120039996D02*
X117635884Y-119932247D01*
X117635884Y-119932247D02*
X117608946Y-119851434D01*
X117608946Y-119851434D02*
X117608946Y-119797560D01*
X117608946Y-119797560D02*
X117635884Y-119716747D01*
X117635884Y-119716747D02*
X117770571Y-119582060D01*
X117770571Y-119582060D02*
X117851383Y-119555123D01*
X117851383Y-119555123D02*
X117905258Y-119555123D01*
X117905258Y-119555123D02*
X117986070Y-119582060D01*
X117986070Y-119582060D02*
X118093820Y-119689810D01*
X118093820Y-119689810D02*
X118120757Y-119770622D01*
X118120757Y-119770622D02*
X118120757Y-119824497D01*
X118120757Y-119824497D02*
X118093820Y-119905309D01*
X145321627Y-92746494D02*
X145402439Y-92773431D01*
X145402439Y-92773431D02*
X145483251Y-92854243D01*
X145483251Y-92854243D02*
X145537126Y-92961993D01*
X145537126Y-92961993D02*
X145537126Y-93069742D01*
X145537126Y-93069742D02*
X145510189Y-93150555D01*
X145510189Y-93150555D02*
X145429376Y-93285242D01*
X145429376Y-93285242D02*
X145348564Y-93366054D01*
X145348564Y-93366054D02*
X145213877Y-93446866D01*
X145213877Y-93446866D02*
X145133065Y-93473803D01*
X145133065Y-93473803D02*
X145025315Y-93473803D01*
X145025315Y-93473803D02*
X144917566Y-93419929D01*
X144917566Y-93419929D02*
X144863691Y-93366054D01*
X144863691Y-93366054D02*
X144809816Y-93258304D01*
X144809816Y-93258304D02*
X144809816Y-93204429D01*
X144809816Y-93204429D02*
X144998378Y-93015868D01*
X144998378Y-93015868D02*
X145106128Y-93123617D01*
X144513505Y-93015868D02*
X145079190Y-92450182D01*
X145079190Y-92450182D02*
X144863691Y-92234683D01*
X144863691Y-92234683D02*
X144782879Y-92207746D01*
X144782879Y-92207746D02*
X144729004Y-92207746D01*
X144729004Y-92207746D02*
X144648192Y-92234683D01*
X144648192Y-92234683D02*
X144567380Y-92315495D01*
X144567380Y-92315495D02*
X144540442Y-92396307D01*
X144540442Y-92396307D02*
X144540442Y-92450182D01*
X144540442Y-92450182D02*
X144567380Y-92530994D01*
X144567380Y-92530994D02*
X144782879Y-92746494D01*
X144271068Y-91642060D02*
X144378818Y-91749810D01*
X144378818Y-91749810D02*
X144405755Y-91830622D01*
X144405755Y-91830622D02*
X144405755Y-91884497D01*
X144405755Y-91884497D02*
X144378818Y-92019184D01*
X144378818Y-92019184D02*
X144298006Y-92153871D01*
X144298006Y-92153871D02*
X144082506Y-92369370D01*
X144082506Y-92369370D02*
X144001694Y-92396307D01*
X144001694Y-92396307D02*
X143947819Y-92396307D01*
X143947819Y-92396307D02*
X143867007Y-92369370D01*
X143867007Y-92369370D02*
X143759258Y-92261620D01*
X143759258Y-92261620D02*
X143732320Y-92180808D01*
X143732320Y-92180808D02*
X143732320Y-92126933D01*
X143732320Y-92126933D02*
X143759258Y-92046121D01*
X143759258Y-92046121D02*
X143893945Y-91911434D01*
X143893945Y-91911434D02*
X143974757Y-91884497D01*
X143974757Y-91884497D02*
X144028632Y-91884497D01*
X144028632Y-91884497D02*
X144109444Y-91911434D01*
X144109444Y-91911434D02*
X144217193Y-92019184D01*
X144217193Y-92019184D02*
X144244131Y-92099996D01*
X144244131Y-92099996D02*
X144244131Y-92153871D01*
X144244131Y-92153871D02*
X144217193Y-92234683D01*
X145421627Y-74956494D02*
X145502439Y-74983431D01*
X145502439Y-74983431D02*
X145583251Y-75064243D01*
X145583251Y-75064243D02*
X145637126Y-75171993D01*
X145637126Y-75171993D02*
X145637126Y-75279742D01*
X145637126Y-75279742D02*
X145610189Y-75360555D01*
X145610189Y-75360555D02*
X145529376Y-75495242D01*
X145529376Y-75495242D02*
X145448564Y-75576054D01*
X145448564Y-75576054D02*
X145313877Y-75656866D01*
X145313877Y-75656866D02*
X145233065Y-75683803D01*
X145233065Y-75683803D02*
X145125315Y-75683803D01*
X145125315Y-75683803D02*
X145017566Y-75629929D01*
X145017566Y-75629929D02*
X144963691Y-75576054D01*
X144963691Y-75576054D02*
X144909816Y-75468304D01*
X144909816Y-75468304D02*
X144909816Y-75414429D01*
X144909816Y-75414429D02*
X145098378Y-75225868D01*
X145098378Y-75225868D02*
X145206128Y-75333617D01*
X144613505Y-75225868D02*
X145179190Y-74660182D01*
X145179190Y-74660182D02*
X144963691Y-74444683D01*
X144963691Y-74444683D02*
X144882879Y-74417746D01*
X144882879Y-74417746D02*
X144829004Y-74417746D01*
X144829004Y-74417746D02*
X144748192Y-74444683D01*
X144748192Y-74444683D02*
X144667380Y-74525495D01*
X144667380Y-74525495D02*
X144640442Y-74606307D01*
X144640442Y-74606307D02*
X144640442Y-74660182D01*
X144640442Y-74660182D02*
X144667380Y-74740994D01*
X144667380Y-74740994D02*
X144882879Y-74956494D01*
X143751508Y-74363871D02*
X144074757Y-74687120D01*
X143913132Y-74525495D02*
X144478818Y-73959810D01*
X144478818Y-73959810D02*
X144451880Y-74094497D01*
X144451880Y-74094497D02*
X144451880Y-74202246D01*
X144451880Y-74202246D02*
X144478818Y-74283059D01*
X119881593Y-72962585D02*
X119127346Y-73339709D01*
X119127346Y-73339709D02*
X119504470Y-72585462D01*
X118857972Y-72477712D02*
X118750223Y-72423838D01*
X118750223Y-72423838D02*
X118696348Y-72423838D01*
X118696348Y-72423838D02*
X118615536Y-72450775D01*
X118615536Y-72450775D02*
X118534723Y-72531587D01*
X118534723Y-72531587D02*
X118507786Y-72612399D01*
X118507786Y-72612399D02*
X118507786Y-72666274D01*
X118507786Y-72666274D02*
X118534723Y-72747086D01*
X118534723Y-72747086D02*
X118750223Y-72962586D01*
X118750223Y-72962586D02*
X119315908Y-72396900D01*
X119315908Y-72396900D02*
X119127346Y-72208338D01*
X119127346Y-72208338D02*
X119046534Y-72181401D01*
X119046534Y-72181401D02*
X118992659Y-72181401D01*
X118992659Y-72181401D02*
X118911847Y-72208338D01*
X118911847Y-72208338D02*
X118857972Y-72262213D01*
X118857972Y-72262213D02*
X118831035Y-72343025D01*
X118831035Y-72343025D02*
X118831035Y-72396900D01*
X118831035Y-72396900D02*
X118857972Y-72477712D01*
X118857972Y-72477712D02*
X119046534Y-72666274D01*
X118750223Y-71831215D02*
X118292287Y-72289151D01*
X118292287Y-72289151D02*
X118211475Y-72316088D01*
X118211475Y-72316088D02*
X118157600Y-72316088D01*
X118157600Y-72316088D02*
X118076788Y-72289151D01*
X118076788Y-72289151D02*
X117969038Y-72181401D01*
X117969038Y-72181401D02*
X117942101Y-72100589D01*
X117942101Y-72100589D02*
X117942101Y-72046714D01*
X117942101Y-72046714D02*
X117969038Y-71965902D01*
X117969038Y-71965902D02*
X118426974Y-71507966D01*
X117645789Y-71804277D02*
X117538040Y-71750403D01*
X117538040Y-71750403D02*
X117403353Y-71615716D01*
X117403353Y-71615716D02*
X117376415Y-71534903D01*
X117376415Y-71534903D02*
X117376415Y-71481029D01*
X117376415Y-71481029D02*
X117403353Y-71400216D01*
X117403353Y-71400216D02*
X117457228Y-71346342D01*
X117457228Y-71346342D02*
X117538040Y-71319404D01*
X117538040Y-71319404D02*
X117591915Y-71319404D01*
X117591915Y-71319404D02*
X117672727Y-71346342D01*
X117672727Y-71346342D02*
X117807414Y-71427154D01*
X117807414Y-71427154D02*
X117888226Y-71454091D01*
X117888226Y-71454091D02*
X117942101Y-71454091D01*
X117942101Y-71454091D02*
X118022913Y-71427154D01*
X118022913Y-71427154D02*
X118076788Y-71373279D01*
X118076788Y-71373279D02*
X118103725Y-71292467D01*
X118103725Y-71292467D02*
X118103725Y-71238592D01*
X118103725Y-71238592D02*
X118076788Y-71157780D01*
X118076788Y-71157780D02*
X117942101Y-71023093D01*
X117942101Y-71023093D02*
X117834351Y-70969218D01*
X146371001Y-108340868D02*
X146451814Y-108367805D01*
X146451814Y-108367805D02*
X146532626Y-108448618D01*
X146532626Y-108448618D02*
X146586501Y-108556367D01*
X146586501Y-108556367D02*
X146586501Y-108664117D01*
X146586501Y-108664117D02*
X146559563Y-108744929D01*
X146559563Y-108744929D02*
X146478751Y-108879616D01*
X146478751Y-108879616D02*
X146397939Y-108960428D01*
X146397939Y-108960428D02*
X146263252Y-109041241D01*
X146263252Y-109041241D02*
X146182439Y-109068178D01*
X146182439Y-109068178D02*
X146074690Y-109068178D01*
X146074690Y-109068178D02*
X145966940Y-109014303D01*
X145966940Y-109014303D02*
X145913065Y-108960428D01*
X145913065Y-108960428D02*
X145859191Y-108852679D01*
X145859191Y-108852679D02*
X145859191Y-108798804D01*
X145859191Y-108798804D02*
X146047752Y-108610242D01*
X146047752Y-108610242D02*
X146155502Y-108717992D01*
X145562879Y-108610242D02*
X146128565Y-108044557D01*
X146128565Y-108044557D02*
X145913065Y-107829057D01*
X145913065Y-107829057D02*
X145832253Y-107802120D01*
X145832253Y-107802120D02*
X145778378Y-107802120D01*
X145778378Y-107802120D02*
X145697566Y-107829057D01*
X145697566Y-107829057D02*
X145616754Y-107909870D01*
X145616754Y-107909870D02*
X145589817Y-107990682D01*
X145589817Y-107990682D02*
X145589817Y-108044557D01*
X145589817Y-108044557D02*
X145616754Y-108125369D01*
X145616754Y-108125369D02*
X145832253Y-108340868D01*
X144700882Y-107748245D02*
X145024131Y-108071494D01*
X144862507Y-107909870D02*
X145428192Y-107344184D01*
X145428192Y-107344184D02*
X145401255Y-107478871D01*
X145401255Y-107478871D02*
X145401255Y-107586621D01*
X145401255Y-107586621D02*
X145428192Y-107667433D01*
X144162134Y-107209497D02*
X144485383Y-107532746D01*
X144323759Y-107371121D02*
X144889444Y-106805436D01*
X144889444Y-106805436D02*
X144862507Y-106940123D01*
X144862507Y-106940123D02*
X144862507Y-107047873D01*
X144862507Y-107047873D02*
X144889444Y-107128685D01*
X145321627Y-82586494D02*
X145402439Y-82613431D01*
X145402439Y-82613431D02*
X145483251Y-82694243D01*
X145483251Y-82694243D02*
X145537126Y-82801993D01*
X145537126Y-82801993D02*
X145537126Y-82909742D01*
X145537126Y-82909742D02*
X145510189Y-82990555D01*
X145510189Y-82990555D02*
X145429376Y-83125242D01*
X145429376Y-83125242D02*
X145348564Y-83206054D01*
X145348564Y-83206054D02*
X145213877Y-83286866D01*
X145213877Y-83286866D02*
X145133065Y-83313803D01*
X145133065Y-83313803D02*
X145025315Y-83313803D01*
X145025315Y-83313803D02*
X144917566Y-83259929D01*
X144917566Y-83259929D02*
X144863691Y-83206054D01*
X144863691Y-83206054D02*
X144809816Y-83098304D01*
X144809816Y-83098304D02*
X144809816Y-83044429D01*
X144809816Y-83044429D02*
X144998378Y-82855868D01*
X144998378Y-82855868D02*
X145106128Y-82963617D01*
X144513505Y-82855868D02*
X145079190Y-82290182D01*
X145079190Y-82290182D02*
X144863691Y-82074683D01*
X144863691Y-82074683D02*
X144782879Y-82047746D01*
X144782879Y-82047746D02*
X144729004Y-82047746D01*
X144729004Y-82047746D02*
X144648192Y-82074683D01*
X144648192Y-82074683D02*
X144567380Y-82155495D01*
X144567380Y-82155495D02*
X144540442Y-82236307D01*
X144540442Y-82236307D02*
X144540442Y-82290182D01*
X144540442Y-82290182D02*
X144567380Y-82370994D01*
X144567380Y-82370994D02*
X144782879Y-82586494D01*
X144567380Y-81778372D02*
X144217193Y-81428185D01*
X144217193Y-81428185D02*
X144190256Y-81832246D01*
X144190256Y-81832246D02*
X144109444Y-81751434D01*
X144109444Y-81751434D02*
X144028632Y-81724497D01*
X144028632Y-81724497D02*
X143974757Y-81724497D01*
X143974757Y-81724497D02*
X143893945Y-81751434D01*
X143893945Y-81751434D02*
X143759258Y-81886121D01*
X143759258Y-81886121D02*
X143732320Y-81966933D01*
X143732320Y-81966933D02*
X143732320Y-82020808D01*
X143732320Y-82020808D02*
X143759258Y-82101620D01*
X143759258Y-82101620D02*
X143920882Y-82263245D01*
X143920882Y-82263245D02*
X144001694Y-82290182D01*
X144001694Y-82290182D02*
X144055569Y-82290182D01*
X119748564Y-115633431D02*
X119829376Y-115660368D01*
X119829376Y-115660368D02*
X119910188Y-115741180D01*
X119910188Y-115741180D02*
X119964063Y-115848930D01*
X119964063Y-115848930D02*
X119964063Y-115956680D01*
X119964063Y-115956680D02*
X119937126Y-116037492D01*
X119937126Y-116037492D02*
X119856314Y-116172179D01*
X119856314Y-116172179D02*
X119775501Y-116252991D01*
X119775501Y-116252991D02*
X119640814Y-116333803D01*
X119640814Y-116333803D02*
X119560002Y-116360741D01*
X119560002Y-116360741D02*
X119452253Y-116360741D01*
X119452253Y-116360741D02*
X119344503Y-116306866D01*
X119344503Y-116306866D02*
X119290628Y-116252991D01*
X119290628Y-116252991D02*
X119236753Y-116145241D01*
X119236753Y-116145241D02*
X119236753Y-116091367D01*
X119236753Y-116091367D02*
X119425315Y-115902805D01*
X119425315Y-115902805D02*
X119533065Y-116010554D01*
X118940442Y-115902805D02*
X119506127Y-115337119D01*
X119506127Y-115337119D02*
X118617193Y-115579556D01*
X118617193Y-115579556D02*
X119182879Y-115013871D01*
X118347819Y-115310182D02*
X118913505Y-114744497D01*
X118913505Y-114744497D02*
X118778818Y-114609810D01*
X118778818Y-114609810D02*
X118671068Y-114555935D01*
X118671068Y-114555935D02*
X118563319Y-114555935D01*
X118563319Y-114555935D02*
X118482506Y-114582872D01*
X118482506Y-114582872D02*
X118347819Y-114663685D01*
X118347819Y-114663685D02*
X118267007Y-114744497D01*
X118267007Y-114744497D02*
X118186195Y-114879184D01*
X118186195Y-114879184D02*
X118159258Y-114959996D01*
X118159258Y-114959996D02*
X118159258Y-115067746D01*
X118159258Y-115067746D02*
X118213132Y-115175495D01*
X118213132Y-115175495D02*
X118347819Y-115310182D01*
X146225001Y-113420868D02*
X146305814Y-113447805D01*
X146305814Y-113447805D02*
X146386626Y-113528618D01*
X146386626Y-113528618D02*
X146440501Y-113636367D01*
X146440501Y-113636367D02*
X146440501Y-113744117D01*
X146440501Y-113744117D02*
X146413563Y-113824929D01*
X146413563Y-113824929D02*
X146332751Y-113959616D01*
X146332751Y-113959616D02*
X146251939Y-114040428D01*
X146251939Y-114040428D02*
X146117252Y-114121241D01*
X146117252Y-114121241D02*
X146036439Y-114148178D01*
X146036439Y-114148178D02*
X145928690Y-114148178D01*
X145928690Y-114148178D02*
X145820940Y-114094303D01*
X145820940Y-114094303D02*
X145767065Y-114040428D01*
X145767065Y-114040428D02*
X145713191Y-113932679D01*
X145713191Y-113932679D02*
X145713191Y-113878804D01*
X145713191Y-113878804D02*
X145901752Y-113690242D01*
X145901752Y-113690242D02*
X146009502Y-113797992D01*
X145416879Y-113690242D02*
X145982565Y-113124557D01*
X145982565Y-113124557D02*
X145767065Y-112909057D01*
X145767065Y-112909057D02*
X145686253Y-112882120D01*
X145686253Y-112882120D02*
X145632378Y-112882120D01*
X145632378Y-112882120D02*
X145551566Y-112909057D01*
X145551566Y-112909057D02*
X145470754Y-112989870D01*
X145470754Y-112989870D02*
X145443817Y-113070682D01*
X145443817Y-113070682D02*
X145443817Y-113124557D01*
X145443817Y-113124557D02*
X145470754Y-113205369D01*
X145470754Y-113205369D02*
X145686253Y-113420868D01*
X144554882Y-112828245D02*
X144878131Y-113151494D01*
X144716507Y-112989870D02*
X145282192Y-112424184D01*
X145282192Y-112424184D02*
X145255255Y-112558871D01*
X145255255Y-112558871D02*
X145255255Y-112666621D01*
X145255255Y-112666621D02*
X145282192Y-112747433D01*
X144932006Y-112073998D02*
X144581820Y-111723812D01*
X144581820Y-111723812D02*
X144554882Y-112127873D01*
X144554882Y-112127873D02*
X144474070Y-112047060D01*
X144474070Y-112047060D02*
X144393258Y-112020123D01*
X144393258Y-112020123D02*
X144339383Y-112020123D01*
X144339383Y-112020123D02*
X144258571Y-112047060D01*
X144258571Y-112047060D02*
X144123884Y-112181747D01*
X144123884Y-112181747D02*
X144096946Y-112262560D01*
X144096946Y-112262560D02*
X144096946Y-112316434D01*
X144096946Y-112316434D02*
X144123884Y-112397247D01*
X144123884Y-112397247D02*
X144285508Y-112558871D01*
X144285508Y-112558871D02*
X144366320Y-112585808D01*
X144366320Y-112585808D02*
X144420195Y-112585808D01*
X146225001Y-105800868D02*
X146305814Y-105827805D01*
X146305814Y-105827805D02*
X146386626Y-105908618D01*
X146386626Y-105908618D02*
X146440501Y-106016367D01*
X146440501Y-106016367D02*
X146440501Y-106124117D01*
X146440501Y-106124117D02*
X146413563Y-106204929D01*
X146413563Y-106204929D02*
X146332751Y-106339616D01*
X146332751Y-106339616D02*
X146251939Y-106420428D01*
X146251939Y-106420428D02*
X146117252Y-106501241D01*
X146117252Y-106501241D02*
X146036439Y-106528178D01*
X146036439Y-106528178D02*
X145928690Y-106528178D01*
X145928690Y-106528178D02*
X145820940Y-106474303D01*
X145820940Y-106474303D02*
X145767065Y-106420428D01*
X145767065Y-106420428D02*
X145713191Y-106312679D01*
X145713191Y-106312679D02*
X145713191Y-106258804D01*
X145713191Y-106258804D02*
X145901752Y-106070242D01*
X145901752Y-106070242D02*
X146009502Y-106177992D01*
X145416879Y-106070242D02*
X145982565Y-105504557D01*
X145982565Y-105504557D02*
X145767065Y-105289057D01*
X145767065Y-105289057D02*
X145686253Y-105262120D01*
X145686253Y-105262120D02*
X145632378Y-105262120D01*
X145632378Y-105262120D02*
X145551566Y-105289057D01*
X145551566Y-105289057D02*
X145470754Y-105369870D01*
X145470754Y-105369870D02*
X145443817Y-105450682D01*
X145443817Y-105450682D02*
X145443817Y-105504557D01*
X145443817Y-105504557D02*
X145470754Y-105585369D01*
X145470754Y-105585369D02*
X145686253Y-105800868D01*
X144554882Y-105208245D02*
X144878131Y-105531494D01*
X144716507Y-105369870D02*
X145282192Y-104804184D01*
X145282192Y-104804184D02*
X145255255Y-104938871D01*
X145255255Y-104938871D02*
X145255255Y-105046621D01*
X145255255Y-105046621D02*
X145282192Y-105127433D01*
X144770381Y-104292373D02*
X144716507Y-104238499D01*
X144716507Y-104238499D02*
X144635694Y-104211561D01*
X144635694Y-104211561D02*
X144581820Y-104211561D01*
X144581820Y-104211561D02*
X144501007Y-104238499D01*
X144501007Y-104238499D02*
X144366320Y-104319311D01*
X144366320Y-104319311D02*
X144231633Y-104453998D01*
X144231633Y-104453998D02*
X144150821Y-104588685D01*
X144150821Y-104588685D02*
X144123884Y-104669497D01*
X144123884Y-104669497D02*
X144123884Y-104723372D01*
X144123884Y-104723372D02*
X144150821Y-104804184D01*
X144150821Y-104804184D02*
X144204696Y-104858059D01*
X144204696Y-104858059D02*
X144285508Y-104884996D01*
X144285508Y-104884996D02*
X144339383Y-104884996D01*
X144339383Y-104884996D02*
X144420195Y-104858059D01*
X144420195Y-104858059D02*
X144554882Y-104777247D01*
X144554882Y-104777247D02*
X144689569Y-104642560D01*
X144689569Y-104642560D02*
X144770381Y-104507873D01*
X144770381Y-104507873D02*
X144797319Y-104427060D01*
X144797319Y-104427060D02*
X144797319Y-104373186D01*
X144797319Y-104373186D02*
X144770381Y-104292373D01*
X145348564Y-90233431D02*
X145429376Y-90260368D01*
X145429376Y-90260368D02*
X145510188Y-90341180D01*
X145510188Y-90341180D02*
X145564063Y-90448930D01*
X145564063Y-90448930D02*
X145564063Y-90556680D01*
X145564063Y-90556680D02*
X145537126Y-90637492D01*
X145537126Y-90637492D02*
X145456314Y-90772179D01*
X145456314Y-90772179D02*
X145375501Y-90852991D01*
X145375501Y-90852991D02*
X145240814Y-90933803D01*
X145240814Y-90933803D02*
X145160002Y-90960741D01*
X145160002Y-90960741D02*
X145052253Y-90960741D01*
X145052253Y-90960741D02*
X144944503Y-90906866D01*
X144944503Y-90906866D02*
X144890628Y-90852991D01*
X144890628Y-90852991D02*
X144836753Y-90745241D01*
X144836753Y-90745241D02*
X144836753Y-90691367D01*
X144836753Y-90691367D02*
X145025315Y-90502805D01*
X145025315Y-90502805D02*
X145133065Y-90610554D01*
X144540442Y-90502805D02*
X145106127Y-89937119D01*
X145106127Y-89937119D02*
X144217193Y-90179556D01*
X144217193Y-90179556D02*
X144782879Y-89613871D01*
X143947819Y-89910182D02*
X144513505Y-89344497D01*
X144513505Y-89344497D02*
X144378818Y-89209810D01*
X144378818Y-89209810D02*
X144271068Y-89155935D01*
X144271068Y-89155935D02*
X144163319Y-89155935D01*
X144163319Y-89155935D02*
X144082506Y-89182872D01*
X144082506Y-89182872D02*
X143947819Y-89263685D01*
X143947819Y-89263685D02*
X143867007Y-89344497D01*
X143867007Y-89344497D02*
X143786195Y-89479184D01*
X143786195Y-89479184D02*
X143759258Y-89559996D01*
X143759258Y-89559996D02*
X143759258Y-89667746D01*
X143759258Y-89667746D02*
X143813132Y-89775495D01*
X143813132Y-89775495D02*
X143947819Y-89910182D01*
X119737001Y-95555868D02*
X119817814Y-95582805D01*
X119817814Y-95582805D02*
X119898626Y-95663618D01*
X119898626Y-95663618D02*
X119952501Y-95771367D01*
X119952501Y-95771367D02*
X119952501Y-95879117D01*
X119952501Y-95879117D02*
X119925563Y-95959929D01*
X119925563Y-95959929D02*
X119844751Y-96094616D01*
X119844751Y-96094616D02*
X119763939Y-96175428D01*
X119763939Y-96175428D02*
X119629252Y-96256241D01*
X119629252Y-96256241D02*
X119548439Y-96283178D01*
X119548439Y-96283178D02*
X119440690Y-96283178D01*
X119440690Y-96283178D02*
X119332940Y-96229303D01*
X119332940Y-96229303D02*
X119279065Y-96175428D01*
X119279065Y-96175428D02*
X119225191Y-96067679D01*
X119225191Y-96067679D02*
X119225191Y-96013804D01*
X119225191Y-96013804D02*
X119413752Y-95825242D01*
X119413752Y-95825242D02*
X119521502Y-95932992D01*
X118928879Y-95825242D02*
X119494565Y-95259557D01*
X119494565Y-95259557D02*
X119279065Y-95044057D01*
X119279065Y-95044057D02*
X119198253Y-95017120D01*
X119198253Y-95017120D02*
X119144378Y-95017120D01*
X119144378Y-95017120D02*
X119063566Y-95044057D01*
X119063566Y-95044057D02*
X118982754Y-95124870D01*
X118982754Y-95124870D02*
X118955817Y-95205682D01*
X118955817Y-95205682D02*
X118955817Y-95259557D01*
X118955817Y-95259557D02*
X118982754Y-95340369D01*
X118982754Y-95340369D02*
X119198253Y-95555868D01*
X118901942Y-94774683D02*
X118901942Y-94720809D01*
X118901942Y-94720809D02*
X118875004Y-94639996D01*
X118875004Y-94639996D02*
X118740317Y-94505309D01*
X118740317Y-94505309D02*
X118659505Y-94478372D01*
X118659505Y-94478372D02*
X118605630Y-94478372D01*
X118605630Y-94478372D02*
X118524818Y-94505309D01*
X118524818Y-94505309D02*
X118470943Y-94559184D01*
X118470943Y-94559184D02*
X118417069Y-94666934D01*
X118417069Y-94666934D02*
X118417069Y-95313431D01*
X118417069Y-95313431D02*
X118066882Y-94963245D01*
X118147694Y-93912686D02*
X118255444Y-94020436D01*
X118255444Y-94020436D02*
X118282381Y-94101248D01*
X118282381Y-94101248D02*
X118282381Y-94155123D01*
X118282381Y-94155123D02*
X118255444Y-94289810D01*
X118255444Y-94289810D02*
X118174632Y-94424497D01*
X118174632Y-94424497D02*
X117959133Y-94639996D01*
X117959133Y-94639996D02*
X117878320Y-94666934D01*
X117878320Y-94666934D02*
X117824446Y-94666934D01*
X117824446Y-94666934D02*
X117743633Y-94639996D01*
X117743633Y-94639996D02*
X117635884Y-94532247D01*
X117635884Y-94532247D02*
X117608946Y-94451434D01*
X117608946Y-94451434D02*
X117608946Y-94397560D01*
X117608946Y-94397560D02*
X117635884Y-94316747D01*
X117635884Y-94316747D02*
X117770571Y-94182060D01*
X117770571Y-94182060D02*
X117851383Y-94155123D01*
X117851383Y-94155123D02*
X117905258Y-94155123D01*
X117905258Y-94155123D02*
X117986070Y-94182060D01*
X117986070Y-94182060D02*
X118093820Y-94289810D01*
X118093820Y-94289810D02*
X118120757Y-94370622D01*
X118120757Y-94370622D02*
X118120757Y-94424497D01*
X118120757Y-94424497D02*
X118093820Y-94505309D01*
X146225001Y-121040868D02*
X146305814Y-121067805D01*
X146305814Y-121067805D02*
X146386626Y-121148618D01*
X146386626Y-121148618D02*
X146440501Y-121256367D01*
X146440501Y-121256367D02*
X146440501Y-121364117D01*
X146440501Y-121364117D02*
X146413563Y-121444929D01*
X146413563Y-121444929D02*
X146332751Y-121579616D01*
X146332751Y-121579616D02*
X146251939Y-121660428D01*
X146251939Y-121660428D02*
X146117252Y-121741241D01*
X146117252Y-121741241D02*
X146036439Y-121768178D01*
X146036439Y-121768178D02*
X145928690Y-121768178D01*
X145928690Y-121768178D02*
X145820940Y-121714303D01*
X145820940Y-121714303D02*
X145767065Y-121660428D01*
X145767065Y-121660428D02*
X145713191Y-121552679D01*
X145713191Y-121552679D02*
X145713191Y-121498804D01*
X145713191Y-121498804D02*
X145901752Y-121310242D01*
X145901752Y-121310242D02*
X146009502Y-121417992D01*
X145416879Y-121310242D02*
X145982565Y-120744557D01*
X145982565Y-120744557D02*
X145767065Y-120529057D01*
X145767065Y-120529057D02*
X145686253Y-120502120D01*
X145686253Y-120502120D02*
X145632378Y-120502120D01*
X145632378Y-120502120D02*
X145551566Y-120529057D01*
X145551566Y-120529057D02*
X145470754Y-120609870D01*
X145470754Y-120609870D02*
X145443817Y-120690682D01*
X145443817Y-120690682D02*
X145443817Y-120744557D01*
X145443817Y-120744557D02*
X145470754Y-120825369D01*
X145470754Y-120825369D02*
X145686253Y-121040868D01*
X144554882Y-120448245D02*
X144878131Y-120771494D01*
X144716507Y-120609870D02*
X145282192Y-120044184D01*
X145282192Y-120044184D02*
X145255255Y-120178871D01*
X145255255Y-120178871D02*
X145255255Y-120286621D01*
X145255255Y-120286621D02*
X145282192Y-120367433D01*
X144608757Y-119370749D02*
X144878131Y-119640123D01*
X144878131Y-119640123D02*
X144635694Y-119936434D01*
X144635694Y-119936434D02*
X144635694Y-119882560D01*
X144635694Y-119882560D02*
X144608757Y-119801747D01*
X144608757Y-119801747D02*
X144474070Y-119667060D01*
X144474070Y-119667060D02*
X144393258Y-119640123D01*
X144393258Y-119640123D02*
X144339383Y-119640123D01*
X144339383Y-119640123D02*
X144258571Y-119667060D01*
X144258571Y-119667060D02*
X144123884Y-119801747D01*
X144123884Y-119801747D02*
X144096946Y-119882560D01*
X144096946Y-119882560D02*
X144096946Y-119936434D01*
X144096946Y-119936434D02*
X144123884Y-120017247D01*
X144123884Y-120017247D02*
X144258571Y-120151934D01*
X144258571Y-120151934D02*
X144339383Y-120178871D01*
X144339383Y-120178871D02*
X144393258Y-120178871D01*
X146371001Y-110880868D02*
X146451814Y-110907805D01*
X146451814Y-110907805D02*
X146532626Y-110988618D01*
X146532626Y-110988618D02*
X146586501Y-111096367D01*
X146586501Y-111096367D02*
X146586501Y-111204117D01*
X146586501Y-111204117D02*
X146559563Y-111284929D01*
X146559563Y-111284929D02*
X146478751Y-111419616D01*
X146478751Y-111419616D02*
X146397939Y-111500428D01*
X146397939Y-111500428D02*
X146263252Y-111581241D01*
X146263252Y-111581241D02*
X146182439Y-111608178D01*
X146182439Y-111608178D02*
X146074690Y-111608178D01*
X146074690Y-111608178D02*
X145966940Y-111554303D01*
X145966940Y-111554303D02*
X145913065Y-111500428D01*
X145913065Y-111500428D02*
X145859191Y-111392679D01*
X145859191Y-111392679D02*
X145859191Y-111338804D01*
X145859191Y-111338804D02*
X146047752Y-111150242D01*
X146047752Y-111150242D02*
X146155502Y-111257992D01*
X145562879Y-111150242D02*
X146128565Y-110584557D01*
X146128565Y-110584557D02*
X145913065Y-110369057D01*
X145913065Y-110369057D02*
X145832253Y-110342120D01*
X145832253Y-110342120D02*
X145778378Y-110342120D01*
X145778378Y-110342120D02*
X145697566Y-110369057D01*
X145697566Y-110369057D02*
X145616754Y-110449870D01*
X145616754Y-110449870D02*
X145589817Y-110530682D01*
X145589817Y-110530682D02*
X145589817Y-110584557D01*
X145589817Y-110584557D02*
X145616754Y-110665369D01*
X145616754Y-110665369D02*
X145832253Y-110880868D01*
X144700882Y-110288245D02*
X145024131Y-110611494D01*
X144862507Y-110449870D02*
X145428192Y-109884184D01*
X145428192Y-109884184D02*
X145401255Y-110018871D01*
X145401255Y-110018871D02*
X145401255Y-110126621D01*
X145401255Y-110126621D02*
X145428192Y-110207433D01*
X144997194Y-109560935D02*
X144997194Y-109507060D01*
X144997194Y-109507060D02*
X144970256Y-109426248D01*
X144970256Y-109426248D02*
X144835569Y-109291561D01*
X144835569Y-109291561D02*
X144754757Y-109264624D01*
X144754757Y-109264624D02*
X144700882Y-109264624D01*
X144700882Y-109264624D02*
X144620070Y-109291561D01*
X144620070Y-109291561D02*
X144566195Y-109345436D01*
X144566195Y-109345436D02*
X144512320Y-109453186D01*
X144512320Y-109453186D02*
X144512320Y-110099683D01*
X144512320Y-110099683D02*
X144162134Y-109749497D01*
X119748564Y-102933431D02*
X119829376Y-102960368D01*
X119829376Y-102960368D02*
X119910188Y-103041180D01*
X119910188Y-103041180D02*
X119964063Y-103148930D01*
X119964063Y-103148930D02*
X119964063Y-103256680D01*
X119964063Y-103256680D02*
X119937126Y-103337492D01*
X119937126Y-103337492D02*
X119856314Y-103472179D01*
X119856314Y-103472179D02*
X119775501Y-103552991D01*
X119775501Y-103552991D02*
X119640814Y-103633803D01*
X119640814Y-103633803D02*
X119560002Y-103660741D01*
X119560002Y-103660741D02*
X119452253Y-103660741D01*
X119452253Y-103660741D02*
X119344503Y-103606866D01*
X119344503Y-103606866D02*
X119290628Y-103552991D01*
X119290628Y-103552991D02*
X119236753Y-103445241D01*
X119236753Y-103445241D02*
X119236753Y-103391367D01*
X119236753Y-103391367D02*
X119425315Y-103202805D01*
X119425315Y-103202805D02*
X119533065Y-103310554D01*
X118940442Y-103202805D02*
X119506127Y-102637119D01*
X119506127Y-102637119D02*
X118617193Y-102879556D01*
X118617193Y-102879556D02*
X119182879Y-102313871D01*
X118347819Y-102610182D02*
X118913505Y-102044497D01*
X118913505Y-102044497D02*
X118778818Y-101909810D01*
X118778818Y-101909810D02*
X118671068Y-101855935D01*
X118671068Y-101855935D02*
X118563319Y-101855935D01*
X118563319Y-101855935D02*
X118482506Y-101882872D01*
X118482506Y-101882872D02*
X118347819Y-101963685D01*
X118347819Y-101963685D02*
X118267007Y-102044497D01*
X118267007Y-102044497D02*
X118186195Y-102179184D01*
X118186195Y-102179184D02*
X118159258Y-102259996D01*
X118159258Y-102259996D02*
X118159258Y-102367746D01*
X118159258Y-102367746D02*
X118213132Y-102475495D01*
X118213132Y-102475495D02*
X118347819Y-102610182D01*
X146271001Y-118500868D02*
X146351814Y-118527805D01*
X146351814Y-118527805D02*
X146432626Y-118608618D01*
X146432626Y-118608618D02*
X146486501Y-118716367D01*
X146486501Y-118716367D02*
X146486501Y-118824117D01*
X146486501Y-118824117D02*
X146459563Y-118904929D01*
X146459563Y-118904929D02*
X146378751Y-119039616D01*
X146378751Y-119039616D02*
X146297939Y-119120428D01*
X146297939Y-119120428D02*
X146163252Y-119201241D01*
X146163252Y-119201241D02*
X146082439Y-119228178D01*
X146082439Y-119228178D02*
X145974690Y-119228178D01*
X145974690Y-119228178D02*
X145866940Y-119174303D01*
X145866940Y-119174303D02*
X145813065Y-119120428D01*
X145813065Y-119120428D02*
X145759191Y-119012679D01*
X145759191Y-119012679D02*
X145759191Y-118958804D01*
X145759191Y-118958804D02*
X145947752Y-118770242D01*
X145947752Y-118770242D02*
X146055502Y-118877992D01*
X145462879Y-118770242D02*
X146028565Y-118204557D01*
X146028565Y-118204557D02*
X145813065Y-117989057D01*
X145813065Y-117989057D02*
X145732253Y-117962120D01*
X145732253Y-117962120D02*
X145678378Y-117962120D01*
X145678378Y-117962120D02*
X145597566Y-117989057D01*
X145597566Y-117989057D02*
X145516754Y-118069870D01*
X145516754Y-118069870D02*
X145489817Y-118150682D01*
X145489817Y-118150682D02*
X145489817Y-118204557D01*
X145489817Y-118204557D02*
X145516754Y-118285369D01*
X145516754Y-118285369D02*
X145732253Y-118500868D01*
X144600882Y-117908245D02*
X144924131Y-118231494D01*
X144762507Y-118069870D02*
X145328192Y-117504184D01*
X145328192Y-117504184D02*
X145301255Y-117638871D01*
X145301255Y-117638871D02*
X145301255Y-117746621D01*
X145301255Y-117746621D02*
X145328192Y-117827433D01*
X144493133Y-117046248D02*
X144116009Y-117423372D01*
X144843319Y-116965436D02*
X144573945Y-117504184D01*
X144573945Y-117504184D02*
X144223759Y-117153998D01*
X145321627Y-85126494D02*
X145402439Y-85153431D01*
X145402439Y-85153431D02*
X145483251Y-85234243D01*
X145483251Y-85234243D02*
X145537126Y-85341993D01*
X145537126Y-85341993D02*
X145537126Y-85449742D01*
X145537126Y-85449742D02*
X145510189Y-85530555D01*
X145510189Y-85530555D02*
X145429376Y-85665242D01*
X145429376Y-85665242D02*
X145348564Y-85746054D01*
X145348564Y-85746054D02*
X145213877Y-85826866D01*
X145213877Y-85826866D02*
X145133065Y-85853803D01*
X145133065Y-85853803D02*
X145025315Y-85853803D01*
X145025315Y-85853803D02*
X144917566Y-85799929D01*
X144917566Y-85799929D02*
X144863691Y-85746054D01*
X144863691Y-85746054D02*
X144809816Y-85638304D01*
X144809816Y-85638304D02*
X144809816Y-85584429D01*
X144809816Y-85584429D02*
X144998378Y-85395868D01*
X144998378Y-85395868D02*
X145106128Y-85503617D01*
X144513505Y-85395868D02*
X145079190Y-84830182D01*
X145079190Y-84830182D02*
X144863691Y-84614683D01*
X144863691Y-84614683D02*
X144782879Y-84587746D01*
X144782879Y-84587746D02*
X144729004Y-84587746D01*
X144729004Y-84587746D02*
X144648192Y-84614683D01*
X144648192Y-84614683D02*
X144567380Y-84695495D01*
X144567380Y-84695495D02*
X144540442Y-84776307D01*
X144540442Y-84776307D02*
X144540442Y-84830182D01*
X144540442Y-84830182D02*
X144567380Y-84910994D01*
X144567380Y-84910994D02*
X144782879Y-85126494D01*
X144082506Y-84210622D02*
X143705383Y-84587746D01*
X144432693Y-84129810D02*
X144163319Y-84668558D01*
X144163319Y-84668558D02*
X143813132Y-84318372D01*
X119679935Y-85969049D02*
X119410561Y-85699675D01*
X119572186Y-86184549D02*
X119949309Y-85430301D01*
X119949309Y-85430301D02*
X119195062Y-85807425D01*
X119006500Y-85618863D02*
X119572186Y-85053178D01*
X119572186Y-85053178D02*
X119437499Y-84918491D01*
X119437499Y-84918491D02*
X119329749Y-84864616D01*
X119329749Y-84864616D02*
X119222000Y-84864616D01*
X119222000Y-84864616D02*
X119141187Y-84891553D01*
X119141187Y-84891553D02*
X119006500Y-84972366D01*
X119006500Y-84972366D02*
X118925688Y-85053178D01*
X118925688Y-85053178D02*
X118844876Y-85187865D01*
X118844876Y-85187865D02*
X118817939Y-85268677D01*
X118817939Y-85268677D02*
X118817939Y-85376427D01*
X118817939Y-85376427D02*
X118871813Y-85484176D01*
X118871813Y-85484176D02*
X119006500Y-85618863D01*
X118171441Y-84676054D02*
X118171441Y-84729929D01*
X118171441Y-84729929D02*
X118225316Y-84837679D01*
X118225316Y-84837679D02*
X118279191Y-84891553D01*
X118279191Y-84891553D02*
X118386940Y-84945428D01*
X118386940Y-84945428D02*
X118494690Y-84945428D01*
X118494690Y-84945428D02*
X118575502Y-84918491D01*
X118575502Y-84918491D02*
X118710189Y-84837679D01*
X118710189Y-84837679D02*
X118791001Y-84756866D01*
X118791001Y-84756866D02*
X118871813Y-84622179D01*
X118871813Y-84622179D02*
X118898751Y-84541367D01*
X118898751Y-84541367D02*
X118898751Y-84433618D01*
X118898751Y-84433618D02*
X118844876Y-84325868D01*
X118844876Y-84325868D02*
X118791001Y-84271993D01*
X118791001Y-84271993D02*
X118683252Y-84218118D01*
X118683252Y-84218118D02*
X118629377Y-84218118D01*
X117955942Y-84676054D02*
X117524943Y-84245056D01*
X118090629Y-83571621D02*
X117336381Y-83948744D01*
X117336381Y-83948744D02*
X117713505Y-83194497D01*
X116636009Y-83248372D02*
X117093945Y-83167560D01*
X116959258Y-83571621D02*
X117524943Y-83005935D01*
X117524943Y-83005935D02*
X117309444Y-82790436D01*
X117309444Y-82790436D02*
X117228632Y-82763499D01*
X117228632Y-82763499D02*
X117174757Y-82763499D01*
X117174757Y-82763499D02*
X117093945Y-82790436D01*
X117093945Y-82790436D02*
X117013133Y-82871248D01*
X117013133Y-82871248D02*
X116986195Y-82952061D01*
X116986195Y-82952061D02*
X116986195Y-83005935D01*
X116986195Y-83005935D02*
X117013133Y-83086748D01*
X117013133Y-83086748D02*
X117228632Y-83302247D01*
X116689884Y-82709624D02*
X116501322Y-82521062D01*
X116124199Y-82736561D02*
X116393573Y-83005935D01*
X116393573Y-83005935D02*
X116959258Y-82440250D01*
X116959258Y-82440250D02*
X116689884Y-82170876D01*
X115989511Y-82009251D02*
X116178073Y-82197813D01*
X115881762Y-82494125D02*
X116447447Y-81928439D01*
X116447447Y-81928439D02*
X116178073Y-81659065D01*
X119737001Y-93025868D02*
X119817814Y-93052805D01*
X119817814Y-93052805D02*
X119898626Y-93133618D01*
X119898626Y-93133618D02*
X119952501Y-93241367D01*
X119952501Y-93241367D02*
X119952501Y-93349117D01*
X119952501Y-93349117D02*
X119925563Y-93429929D01*
X119925563Y-93429929D02*
X119844751Y-93564616D01*
X119844751Y-93564616D02*
X119763939Y-93645428D01*
X119763939Y-93645428D02*
X119629252Y-93726241D01*
X119629252Y-93726241D02*
X119548439Y-93753178D01*
X119548439Y-93753178D02*
X119440690Y-93753178D01*
X119440690Y-93753178D02*
X119332940Y-93699303D01*
X119332940Y-93699303D02*
X119279065Y-93645428D01*
X119279065Y-93645428D02*
X119225191Y-93537679D01*
X119225191Y-93537679D02*
X119225191Y-93483804D01*
X119225191Y-93483804D02*
X119413752Y-93295242D01*
X119413752Y-93295242D02*
X119521502Y-93402992D01*
X118928879Y-93295242D02*
X119494565Y-92729557D01*
X119494565Y-92729557D02*
X119279065Y-92514057D01*
X119279065Y-92514057D02*
X119198253Y-92487120D01*
X119198253Y-92487120D02*
X119144378Y-92487120D01*
X119144378Y-92487120D02*
X119063566Y-92514057D01*
X119063566Y-92514057D02*
X118982754Y-92594870D01*
X118982754Y-92594870D02*
X118955817Y-92675682D01*
X118955817Y-92675682D02*
X118955817Y-92729557D01*
X118955817Y-92729557D02*
X118982754Y-92810369D01*
X118982754Y-92810369D02*
X119198253Y-93025868D01*
X118901942Y-92244683D02*
X118901942Y-92190809D01*
X118901942Y-92190809D02*
X118875004Y-92109996D01*
X118875004Y-92109996D02*
X118740317Y-91975309D01*
X118740317Y-91975309D02*
X118659505Y-91948372D01*
X118659505Y-91948372D02*
X118605630Y-91948372D01*
X118605630Y-91948372D02*
X118524818Y-91975309D01*
X118524818Y-91975309D02*
X118470943Y-92029184D01*
X118470943Y-92029184D02*
X118417069Y-92136934D01*
X118417069Y-92136934D02*
X118417069Y-92783431D01*
X118417069Y-92783431D02*
X118066882Y-92433245D01*
X118444006Y-91678998D02*
X118066882Y-91301874D01*
X118066882Y-91301874D02*
X117743633Y-92109996D01*
X119737001Y-113335868D02*
X119817814Y-113362805D01*
X119817814Y-113362805D02*
X119898626Y-113443618D01*
X119898626Y-113443618D02*
X119952501Y-113551367D01*
X119952501Y-113551367D02*
X119952501Y-113659117D01*
X119952501Y-113659117D02*
X119925563Y-113739929D01*
X119925563Y-113739929D02*
X119844751Y-113874616D01*
X119844751Y-113874616D02*
X119763939Y-113955428D01*
X119763939Y-113955428D02*
X119629252Y-114036241D01*
X119629252Y-114036241D02*
X119548439Y-114063178D01*
X119548439Y-114063178D02*
X119440690Y-114063178D01*
X119440690Y-114063178D02*
X119332940Y-114009303D01*
X119332940Y-114009303D02*
X119279065Y-113955428D01*
X119279065Y-113955428D02*
X119225191Y-113847679D01*
X119225191Y-113847679D02*
X119225191Y-113793804D01*
X119225191Y-113793804D02*
X119413752Y-113605242D01*
X119413752Y-113605242D02*
X119521502Y-113712992D01*
X118928879Y-113605242D02*
X119494565Y-113039557D01*
X119494565Y-113039557D02*
X119279065Y-112824057D01*
X119279065Y-112824057D02*
X119198253Y-112797120D01*
X119198253Y-112797120D02*
X119144378Y-112797120D01*
X119144378Y-112797120D02*
X119063566Y-112824057D01*
X119063566Y-112824057D02*
X118982754Y-112904870D01*
X118982754Y-112904870D02*
X118955817Y-112985682D01*
X118955817Y-112985682D02*
X118955817Y-113039557D01*
X118955817Y-113039557D02*
X118982754Y-113120369D01*
X118982754Y-113120369D02*
X119198253Y-113335868D01*
X118066882Y-112743245D02*
X118390131Y-113066494D01*
X118228507Y-112904870D02*
X118794192Y-112339184D01*
X118794192Y-112339184D02*
X118767255Y-112473871D01*
X118767255Y-112473871D02*
X118767255Y-112581621D01*
X118767255Y-112581621D02*
X118794192Y-112662433D01*
X118066882Y-112096747D02*
X118147694Y-112123685D01*
X118147694Y-112123685D02*
X118201569Y-112123685D01*
X118201569Y-112123685D02*
X118282381Y-112096747D01*
X118282381Y-112096747D02*
X118309319Y-112069810D01*
X118309319Y-112069810D02*
X118336256Y-111988998D01*
X118336256Y-111988998D02*
X118336256Y-111935123D01*
X118336256Y-111935123D02*
X118309319Y-111854311D01*
X118309319Y-111854311D02*
X118201569Y-111746561D01*
X118201569Y-111746561D02*
X118120757Y-111719624D01*
X118120757Y-111719624D02*
X118066882Y-111719624D01*
X118066882Y-111719624D02*
X117986070Y-111746561D01*
X117986070Y-111746561D02*
X117959133Y-111773499D01*
X117959133Y-111773499D02*
X117932195Y-111854311D01*
X117932195Y-111854311D02*
X117932195Y-111908186D01*
X117932195Y-111908186D02*
X117959133Y-111988998D01*
X117959133Y-111988998D02*
X118066882Y-112096747D01*
X118066882Y-112096747D02*
X118093820Y-112177560D01*
X118093820Y-112177560D02*
X118093820Y-112231434D01*
X118093820Y-112231434D02*
X118066882Y-112312247D01*
X118066882Y-112312247D02*
X117959133Y-112419996D01*
X117959133Y-112419996D02*
X117878320Y-112446934D01*
X117878320Y-112446934D02*
X117824446Y-112446934D01*
X117824446Y-112446934D02*
X117743633Y-112419996D01*
X117743633Y-112419996D02*
X117635884Y-112312247D01*
X117635884Y-112312247D02*
X117608946Y-112231434D01*
X117608946Y-112231434D02*
X117608946Y-112177560D01*
X117608946Y-112177560D02*
X117635884Y-112096747D01*
X117635884Y-112096747D02*
X117743633Y-111988998D01*
X117743633Y-111988998D02*
X117824446Y-111962060D01*
X117824446Y-111962060D02*
X117878320Y-111962060D01*
X117878320Y-111962060D02*
X117959133Y-111988998D01*
X119748564Y-77533431D02*
X119829376Y-77560368D01*
X119829376Y-77560368D02*
X119910188Y-77641180D01*
X119910188Y-77641180D02*
X119964063Y-77748930D01*
X119964063Y-77748930D02*
X119964063Y-77856680D01*
X119964063Y-77856680D02*
X119937126Y-77937492D01*
X119937126Y-77937492D02*
X119856314Y-78072179D01*
X119856314Y-78072179D02*
X119775501Y-78152991D01*
X119775501Y-78152991D02*
X119640814Y-78233803D01*
X119640814Y-78233803D02*
X119560002Y-78260741D01*
X119560002Y-78260741D02*
X119452253Y-78260741D01*
X119452253Y-78260741D02*
X119344503Y-78206866D01*
X119344503Y-78206866D02*
X119290628Y-78152991D01*
X119290628Y-78152991D02*
X119236753Y-78045241D01*
X119236753Y-78045241D02*
X119236753Y-77991367D01*
X119236753Y-77991367D02*
X119425315Y-77802805D01*
X119425315Y-77802805D02*
X119533065Y-77910554D01*
X118940442Y-77802805D02*
X119506127Y-77237119D01*
X119506127Y-77237119D02*
X118617193Y-77479556D01*
X118617193Y-77479556D02*
X119182879Y-76913871D01*
X118347819Y-77210182D02*
X118913505Y-76644497D01*
X118913505Y-76644497D02*
X118778818Y-76509810D01*
X118778818Y-76509810D02*
X118671068Y-76455935D01*
X118671068Y-76455935D02*
X118563319Y-76455935D01*
X118563319Y-76455935D02*
X118482506Y-76482872D01*
X118482506Y-76482872D02*
X118347819Y-76563685D01*
X118347819Y-76563685D02*
X118267007Y-76644497D01*
X118267007Y-76644497D02*
X118186195Y-76779184D01*
X118186195Y-76779184D02*
X118159258Y-76859996D01*
X118159258Y-76859996D02*
X118159258Y-76967746D01*
X118159258Y-76967746D02*
X118213132Y-77075495D01*
X118213132Y-77075495D02*
X118347819Y-77210182D01*
X145421627Y-80046494D02*
X145502439Y-80073431D01*
X145502439Y-80073431D02*
X145583251Y-80154243D01*
X145583251Y-80154243D02*
X145637126Y-80261993D01*
X145637126Y-80261993D02*
X145637126Y-80369742D01*
X145637126Y-80369742D02*
X145610189Y-80450555D01*
X145610189Y-80450555D02*
X145529376Y-80585242D01*
X145529376Y-80585242D02*
X145448564Y-80666054D01*
X145448564Y-80666054D02*
X145313877Y-80746866D01*
X145313877Y-80746866D02*
X145233065Y-80773803D01*
X145233065Y-80773803D02*
X145125315Y-80773803D01*
X145125315Y-80773803D02*
X145017566Y-80719929D01*
X145017566Y-80719929D02*
X144963691Y-80666054D01*
X144963691Y-80666054D02*
X144909816Y-80558304D01*
X144909816Y-80558304D02*
X144909816Y-80504429D01*
X144909816Y-80504429D02*
X145098378Y-80315868D01*
X145098378Y-80315868D02*
X145206128Y-80423617D01*
X144613505Y-80315868D02*
X145179190Y-79750182D01*
X145179190Y-79750182D02*
X144963691Y-79534683D01*
X144963691Y-79534683D02*
X144882879Y-79507746D01*
X144882879Y-79507746D02*
X144829004Y-79507746D01*
X144829004Y-79507746D02*
X144748192Y-79534683D01*
X144748192Y-79534683D02*
X144667380Y-79615495D01*
X144667380Y-79615495D02*
X144640442Y-79696307D01*
X144640442Y-79696307D02*
X144640442Y-79750182D01*
X144640442Y-79750182D02*
X144667380Y-79830994D01*
X144667380Y-79830994D02*
X144882879Y-80046494D01*
X144586567Y-79265309D02*
X144586567Y-79211434D01*
X144586567Y-79211434D02*
X144559630Y-79130622D01*
X144559630Y-79130622D02*
X144424943Y-78995935D01*
X144424943Y-78995935D02*
X144344131Y-78968998D01*
X144344131Y-78968998D02*
X144290256Y-78968998D01*
X144290256Y-78968998D02*
X144209444Y-78995935D01*
X144209444Y-78995935D02*
X144155569Y-79049810D01*
X144155569Y-79049810D02*
X144101694Y-79157559D01*
X144101694Y-79157559D02*
X144101694Y-79804057D01*
X144101694Y-79804057D02*
X143751508Y-79453871D01*
X145728564Y-115718431D02*
X145809376Y-115745368D01*
X145809376Y-115745368D02*
X145890188Y-115826180D01*
X145890188Y-115826180D02*
X145944063Y-115933930D01*
X145944063Y-115933930D02*
X145944063Y-116041680D01*
X145944063Y-116041680D02*
X145917126Y-116122492D01*
X145917126Y-116122492D02*
X145836314Y-116257179D01*
X145836314Y-116257179D02*
X145755501Y-116337991D01*
X145755501Y-116337991D02*
X145620814Y-116418803D01*
X145620814Y-116418803D02*
X145540002Y-116445741D01*
X145540002Y-116445741D02*
X145432253Y-116445741D01*
X145432253Y-116445741D02*
X145324503Y-116391866D01*
X145324503Y-116391866D02*
X145270628Y-116337991D01*
X145270628Y-116337991D02*
X145216753Y-116230241D01*
X145216753Y-116230241D02*
X145216753Y-116176367D01*
X145216753Y-116176367D02*
X145405315Y-115987805D01*
X145405315Y-115987805D02*
X145513065Y-116095554D01*
X144920442Y-115987805D02*
X145486127Y-115422119D01*
X145486127Y-115422119D02*
X144597193Y-115664556D01*
X144597193Y-115664556D02*
X145162879Y-115098871D01*
X144327819Y-115395182D02*
X144893505Y-114829497D01*
X144893505Y-114829497D02*
X144758818Y-114694810D01*
X144758818Y-114694810D02*
X144651068Y-114640935D01*
X144651068Y-114640935D02*
X144543319Y-114640935D01*
X144543319Y-114640935D02*
X144462506Y-114667872D01*
X144462506Y-114667872D02*
X144327819Y-114748685D01*
X144327819Y-114748685D02*
X144247007Y-114829497D01*
X144247007Y-114829497D02*
X144166195Y-114964184D01*
X144166195Y-114964184D02*
X144139258Y-115044996D01*
X144139258Y-115044996D02*
X144139258Y-115152746D01*
X144139258Y-115152746D02*
X144193132Y-115260495D01*
X144193132Y-115260495D02*
X144327819Y-115395182D01*
X119737001Y-110795868D02*
X119817814Y-110822805D01*
X119817814Y-110822805D02*
X119898626Y-110903618D01*
X119898626Y-110903618D02*
X119952501Y-111011367D01*
X119952501Y-111011367D02*
X119952501Y-111119117D01*
X119952501Y-111119117D02*
X119925563Y-111199929D01*
X119925563Y-111199929D02*
X119844751Y-111334616D01*
X119844751Y-111334616D02*
X119763939Y-111415428D01*
X119763939Y-111415428D02*
X119629252Y-111496241D01*
X119629252Y-111496241D02*
X119548439Y-111523178D01*
X119548439Y-111523178D02*
X119440690Y-111523178D01*
X119440690Y-111523178D02*
X119332940Y-111469303D01*
X119332940Y-111469303D02*
X119279065Y-111415428D01*
X119279065Y-111415428D02*
X119225191Y-111307679D01*
X119225191Y-111307679D02*
X119225191Y-111253804D01*
X119225191Y-111253804D02*
X119413752Y-111065242D01*
X119413752Y-111065242D02*
X119521502Y-111172992D01*
X118928879Y-111065242D02*
X119494565Y-110499557D01*
X119494565Y-110499557D02*
X119279065Y-110284057D01*
X119279065Y-110284057D02*
X119198253Y-110257120D01*
X119198253Y-110257120D02*
X119144378Y-110257120D01*
X119144378Y-110257120D02*
X119063566Y-110284057D01*
X119063566Y-110284057D02*
X118982754Y-110364870D01*
X118982754Y-110364870D02*
X118955817Y-110445682D01*
X118955817Y-110445682D02*
X118955817Y-110499557D01*
X118955817Y-110499557D02*
X118982754Y-110580369D01*
X118982754Y-110580369D02*
X119198253Y-110795868D01*
X118066882Y-110203245D02*
X118390131Y-110526494D01*
X118228507Y-110364870D02*
X118794192Y-109799184D01*
X118794192Y-109799184D02*
X118767255Y-109933871D01*
X118767255Y-109933871D02*
X118767255Y-110041621D01*
X118767255Y-110041621D02*
X118794192Y-110122433D01*
X117797508Y-109933871D02*
X117689759Y-109826121D01*
X117689759Y-109826121D02*
X117662821Y-109745309D01*
X117662821Y-109745309D02*
X117662821Y-109691434D01*
X117662821Y-109691434D02*
X117689759Y-109556747D01*
X117689759Y-109556747D02*
X117770571Y-109422060D01*
X117770571Y-109422060D02*
X117986070Y-109206561D01*
X117986070Y-109206561D02*
X118066882Y-109179624D01*
X118066882Y-109179624D02*
X118120757Y-109179624D01*
X118120757Y-109179624D02*
X118201569Y-109206561D01*
X118201569Y-109206561D02*
X118309319Y-109314311D01*
X118309319Y-109314311D02*
X118336256Y-109395123D01*
X118336256Y-109395123D02*
X118336256Y-109448998D01*
X118336256Y-109448998D02*
X118309319Y-109529810D01*
X118309319Y-109529810D02*
X118174632Y-109664497D01*
X118174632Y-109664497D02*
X118093820Y-109691434D01*
X118093820Y-109691434D02*
X118039945Y-109691434D01*
X118039945Y-109691434D02*
X117959133Y-109664497D01*
X117959133Y-109664497D02*
X117851383Y-109556747D01*
X117851383Y-109556747D02*
X117824446Y-109475935D01*
X117824446Y-109475935D02*
X117824446Y-109422060D01*
X117824446Y-109422060D02*
X117851383Y-109341248D01*
X119737001Y-105725868D02*
X119817814Y-105752805D01*
X119817814Y-105752805D02*
X119898626Y-105833618D01*
X119898626Y-105833618D02*
X119952501Y-105941367D01*
X119952501Y-105941367D02*
X119952501Y-106049117D01*
X119952501Y-106049117D02*
X119925563Y-106129929D01*
X119925563Y-106129929D02*
X119844751Y-106264616D01*
X119844751Y-106264616D02*
X119763939Y-106345428D01*
X119763939Y-106345428D02*
X119629252Y-106426241D01*
X119629252Y-106426241D02*
X119548439Y-106453178D01*
X119548439Y-106453178D02*
X119440690Y-106453178D01*
X119440690Y-106453178D02*
X119332940Y-106399303D01*
X119332940Y-106399303D02*
X119279065Y-106345428D01*
X119279065Y-106345428D02*
X119225191Y-106237679D01*
X119225191Y-106237679D02*
X119225191Y-106183804D01*
X119225191Y-106183804D02*
X119413752Y-105995242D01*
X119413752Y-105995242D02*
X119521502Y-106102992D01*
X118928879Y-105995242D02*
X119494565Y-105429557D01*
X119494565Y-105429557D02*
X119279065Y-105214057D01*
X119279065Y-105214057D02*
X119198253Y-105187120D01*
X119198253Y-105187120D02*
X119144378Y-105187120D01*
X119144378Y-105187120D02*
X119063566Y-105214057D01*
X119063566Y-105214057D02*
X118982754Y-105294870D01*
X118982754Y-105294870D02*
X118955817Y-105375682D01*
X118955817Y-105375682D02*
X118955817Y-105429557D01*
X118955817Y-105429557D02*
X118982754Y-105510369D01*
X118982754Y-105510369D02*
X119198253Y-105725868D01*
X118901942Y-104944683D02*
X118901942Y-104890809D01*
X118901942Y-104890809D02*
X118875004Y-104809996D01*
X118875004Y-104809996D02*
X118740317Y-104675309D01*
X118740317Y-104675309D02*
X118659505Y-104648372D01*
X118659505Y-104648372D02*
X118605630Y-104648372D01*
X118605630Y-104648372D02*
X118524818Y-104675309D01*
X118524818Y-104675309D02*
X118470943Y-104729184D01*
X118470943Y-104729184D02*
X118417069Y-104836934D01*
X118417069Y-104836934D02*
X118417069Y-105483431D01*
X118417069Y-105483431D02*
X118066882Y-105133245D01*
X117528134Y-104594497D02*
X117851383Y-104917746D01*
X117689759Y-104756121D02*
X118255444Y-104190436D01*
X118255444Y-104190436D02*
X118228507Y-104325123D01*
X118228507Y-104325123D02*
X118228507Y-104432873D01*
X118228507Y-104432873D02*
X118255444Y-104513685D01*
X145221627Y-95256494D02*
X145302439Y-95283431D01*
X145302439Y-95283431D02*
X145383251Y-95364243D01*
X145383251Y-95364243D02*
X145437126Y-95471993D01*
X145437126Y-95471993D02*
X145437126Y-95579742D01*
X145437126Y-95579742D02*
X145410189Y-95660555D01*
X145410189Y-95660555D02*
X145329376Y-95795242D01*
X145329376Y-95795242D02*
X145248564Y-95876054D01*
X145248564Y-95876054D02*
X145113877Y-95956866D01*
X145113877Y-95956866D02*
X145033065Y-95983803D01*
X145033065Y-95983803D02*
X144925315Y-95983803D01*
X144925315Y-95983803D02*
X144817566Y-95929929D01*
X144817566Y-95929929D02*
X144763691Y-95876054D01*
X144763691Y-95876054D02*
X144709816Y-95768304D01*
X144709816Y-95768304D02*
X144709816Y-95714429D01*
X144709816Y-95714429D02*
X144898378Y-95525868D01*
X144898378Y-95525868D02*
X145006128Y-95633617D01*
X144413505Y-95525868D02*
X144979190Y-94960182D01*
X144979190Y-94960182D02*
X144763691Y-94744683D01*
X144763691Y-94744683D02*
X144682879Y-94717746D01*
X144682879Y-94717746D02*
X144629004Y-94717746D01*
X144629004Y-94717746D02*
X144548192Y-94744683D01*
X144548192Y-94744683D02*
X144467380Y-94825495D01*
X144467380Y-94825495D02*
X144440442Y-94906307D01*
X144440442Y-94906307D02*
X144440442Y-94960182D01*
X144440442Y-94960182D02*
X144467380Y-95040994D01*
X144467380Y-95040994D02*
X144682879Y-95256494D01*
X144467380Y-94448372D02*
X144090256Y-94071248D01*
X144090256Y-94071248D02*
X143767007Y-94879370D01*
X145321627Y-87666494D02*
X145402439Y-87693431D01*
X145402439Y-87693431D02*
X145483251Y-87774243D01*
X145483251Y-87774243D02*
X145537126Y-87881993D01*
X145537126Y-87881993D02*
X145537126Y-87989742D01*
X145537126Y-87989742D02*
X145510189Y-88070555D01*
X145510189Y-88070555D02*
X145429376Y-88205242D01*
X145429376Y-88205242D02*
X145348564Y-88286054D01*
X145348564Y-88286054D02*
X145213877Y-88366866D01*
X145213877Y-88366866D02*
X145133065Y-88393803D01*
X145133065Y-88393803D02*
X145025315Y-88393803D01*
X145025315Y-88393803D02*
X144917566Y-88339929D01*
X144917566Y-88339929D02*
X144863691Y-88286054D01*
X144863691Y-88286054D02*
X144809816Y-88178304D01*
X144809816Y-88178304D02*
X144809816Y-88124429D01*
X144809816Y-88124429D02*
X144998378Y-87935868D01*
X144998378Y-87935868D02*
X145106128Y-88043617D01*
X144513505Y-87935868D02*
X145079190Y-87370182D01*
X145079190Y-87370182D02*
X144863691Y-87154683D01*
X144863691Y-87154683D02*
X144782879Y-87127746D01*
X144782879Y-87127746D02*
X144729004Y-87127746D01*
X144729004Y-87127746D02*
X144648192Y-87154683D01*
X144648192Y-87154683D02*
X144567380Y-87235495D01*
X144567380Y-87235495D02*
X144540442Y-87316307D01*
X144540442Y-87316307D02*
X144540442Y-87370182D01*
X144540442Y-87370182D02*
X144567380Y-87450994D01*
X144567380Y-87450994D02*
X144782879Y-87666494D01*
X144244131Y-86535123D02*
X144513505Y-86804497D01*
X144513505Y-86804497D02*
X144271068Y-87100808D01*
X144271068Y-87100808D02*
X144271068Y-87046933D01*
X144271068Y-87046933D02*
X144244131Y-86966121D01*
X144244131Y-86966121D02*
X144109444Y-86831434D01*
X144109444Y-86831434D02*
X144028632Y-86804497D01*
X144028632Y-86804497D02*
X143974757Y-86804497D01*
X143974757Y-86804497D02*
X143893945Y-86831434D01*
X143893945Y-86831434D02*
X143759258Y-86966121D01*
X143759258Y-86966121D02*
X143732320Y-87046933D01*
X143732320Y-87046933D02*
X143732320Y-87100808D01*
X143732320Y-87100808D02*
X143759258Y-87181620D01*
X143759258Y-87181620D02*
X143893945Y-87316307D01*
X143893945Y-87316307D02*
X143974757Y-87343245D01*
X143974757Y-87343245D02*
X144028632Y-87343245D01*
X119912592Y-80393584D02*
X119562406Y-80043398D01*
X119562406Y-80043398D02*
X119535468Y-80447459D01*
X119535468Y-80447459D02*
X119454656Y-80366646D01*
X119454656Y-80366646D02*
X119373844Y-80339709D01*
X119373844Y-80339709D02*
X119319969Y-80339709D01*
X119319969Y-80339709D02*
X119239157Y-80366646D01*
X119239157Y-80366646D02*
X119104470Y-80501333D01*
X119104470Y-80501333D02*
X119077532Y-80582146D01*
X119077532Y-80582146D02*
X119077532Y-80636020D01*
X119077532Y-80636020D02*
X119104470Y-80716833D01*
X119104470Y-80716833D02*
X119266094Y-80878457D01*
X119266094Y-80878457D02*
X119346906Y-80905394D01*
X119346906Y-80905394D02*
X119400781Y-80905394D01*
X119400781Y-79881773D02*
X118646534Y-80258897D01*
X118646534Y-80258897D02*
X119023657Y-79504649D01*
X118888971Y-79369963D02*
X118538784Y-79019776D01*
X118538784Y-79019776D02*
X118511847Y-79423837D01*
X118511847Y-79423837D02*
X118431035Y-79343025D01*
X118431035Y-79343025D02*
X118350223Y-79316088D01*
X118350223Y-79316088D02*
X118296348Y-79316088D01*
X118296348Y-79316088D02*
X118215535Y-79343025D01*
X118215535Y-79343025D02*
X118080848Y-79477712D01*
X118080848Y-79477712D02*
X118053911Y-79558524D01*
X118053911Y-79558524D02*
X118053911Y-79612399D01*
X118053911Y-79612399D02*
X118080848Y-79693211D01*
X118080848Y-79693211D02*
X118242473Y-79854836D01*
X118242473Y-79854836D02*
X118323285Y-79881773D01*
X118323285Y-79881773D02*
X118377160Y-79881773D01*
X117811474Y-79531587D02*
X117380476Y-79100588D01*
X117595975Y-78615715D02*
X117407413Y-78427153D01*
X117030290Y-78642652D02*
X117299664Y-78912026D01*
X117299664Y-78912026D02*
X117865349Y-78346341D01*
X117865349Y-78346341D02*
X117595975Y-78076967D01*
X116787853Y-78400215D02*
X117353538Y-77834530D01*
X117353538Y-77834530D02*
X116464604Y-78076967D01*
X116464604Y-78076967D02*
X117030289Y-77511281D01*
X145701627Y-100451494D02*
X145782439Y-100478431D01*
X145782439Y-100478431D02*
X145863251Y-100559243D01*
X145863251Y-100559243D02*
X145917126Y-100666993D01*
X145917126Y-100666993D02*
X145917126Y-100774742D01*
X145917126Y-100774742D02*
X145890189Y-100855555D01*
X145890189Y-100855555D02*
X145809376Y-100990242D01*
X145809376Y-100990242D02*
X145728564Y-101071054D01*
X145728564Y-101071054D02*
X145593877Y-101151866D01*
X145593877Y-101151866D02*
X145513065Y-101178803D01*
X145513065Y-101178803D02*
X145405315Y-101178803D01*
X145405315Y-101178803D02*
X145297566Y-101124929D01*
X145297566Y-101124929D02*
X145243691Y-101071054D01*
X145243691Y-101071054D02*
X145189816Y-100963304D01*
X145189816Y-100963304D02*
X145189816Y-100909429D01*
X145189816Y-100909429D02*
X145378378Y-100720868D01*
X145378378Y-100720868D02*
X145486128Y-100828617D01*
X144893505Y-100720868D02*
X145459190Y-100155182D01*
X145459190Y-100155182D02*
X145243691Y-99939683D01*
X145243691Y-99939683D02*
X145162879Y-99912746D01*
X145162879Y-99912746D02*
X145109004Y-99912746D01*
X145109004Y-99912746D02*
X145028192Y-99939683D01*
X145028192Y-99939683D02*
X144947380Y-100020495D01*
X144947380Y-100020495D02*
X144920442Y-100101307D01*
X144920442Y-100101307D02*
X144920442Y-100155182D01*
X144920442Y-100155182D02*
X144947380Y-100235994D01*
X144947380Y-100235994D02*
X145162879Y-100451494D01*
X144300882Y-100128245D02*
X144193132Y-100020495D01*
X144193132Y-100020495D02*
X144166195Y-99939683D01*
X144166195Y-99939683D02*
X144166195Y-99885808D01*
X144166195Y-99885808D02*
X144193132Y-99751121D01*
X144193132Y-99751121D02*
X144273945Y-99616434D01*
X144273945Y-99616434D02*
X144489444Y-99400935D01*
X144489444Y-99400935D02*
X144570256Y-99373998D01*
X144570256Y-99373998D02*
X144624131Y-99373998D01*
X144624131Y-99373998D02*
X144704943Y-99400935D01*
X144704943Y-99400935D02*
X144812693Y-99508685D01*
X144812693Y-99508685D02*
X144839630Y-99589497D01*
X144839630Y-99589497D02*
X144839630Y-99643372D01*
X144839630Y-99643372D02*
X144812693Y-99724184D01*
X144812693Y-99724184D02*
X144678006Y-99858871D01*
X144678006Y-99858871D02*
X144597193Y-99885808D01*
X144597193Y-99885808D02*
X144543319Y-99885808D01*
X144543319Y-99885808D02*
X144462506Y-99858871D01*
X144462506Y-99858871D02*
X144354757Y-99751121D01*
X144354757Y-99751121D02*
X144327819Y-99670309D01*
X144327819Y-99670309D02*
X144327819Y-99616434D01*
X144327819Y-99616434D02*
X144354757Y-99535622D01*
X145701627Y-97911494D02*
X145782439Y-97938431D01*
X145782439Y-97938431D02*
X145863251Y-98019243D01*
X145863251Y-98019243D02*
X145917126Y-98126993D01*
X145917126Y-98126993D02*
X145917126Y-98234742D01*
X145917126Y-98234742D02*
X145890189Y-98315555D01*
X145890189Y-98315555D02*
X145809376Y-98450242D01*
X145809376Y-98450242D02*
X145728564Y-98531054D01*
X145728564Y-98531054D02*
X145593877Y-98611866D01*
X145593877Y-98611866D02*
X145513065Y-98638803D01*
X145513065Y-98638803D02*
X145405315Y-98638803D01*
X145405315Y-98638803D02*
X145297566Y-98584929D01*
X145297566Y-98584929D02*
X145243691Y-98531054D01*
X145243691Y-98531054D02*
X145189816Y-98423304D01*
X145189816Y-98423304D02*
X145189816Y-98369429D01*
X145189816Y-98369429D02*
X145378378Y-98180868D01*
X145378378Y-98180868D02*
X145486128Y-98288617D01*
X144893505Y-98180868D02*
X145459190Y-97615182D01*
X145459190Y-97615182D02*
X145243691Y-97399683D01*
X145243691Y-97399683D02*
X145162879Y-97372746D01*
X145162879Y-97372746D02*
X145109004Y-97372746D01*
X145109004Y-97372746D02*
X145028192Y-97399683D01*
X145028192Y-97399683D02*
X144947380Y-97480495D01*
X144947380Y-97480495D02*
X144920442Y-97561307D01*
X144920442Y-97561307D02*
X144920442Y-97615182D01*
X144920442Y-97615182D02*
X144947380Y-97695994D01*
X144947380Y-97695994D02*
X145162879Y-97911494D01*
X144570256Y-97211121D02*
X144651068Y-97238059D01*
X144651068Y-97238059D02*
X144704943Y-97238059D01*
X144704943Y-97238059D02*
X144785755Y-97211121D01*
X144785755Y-97211121D02*
X144812693Y-97184184D01*
X144812693Y-97184184D02*
X144839630Y-97103372D01*
X144839630Y-97103372D02*
X144839630Y-97049497D01*
X144839630Y-97049497D02*
X144812693Y-96968685D01*
X144812693Y-96968685D02*
X144704943Y-96860935D01*
X144704943Y-96860935D02*
X144624131Y-96833998D01*
X144624131Y-96833998D02*
X144570256Y-96833998D01*
X144570256Y-96833998D02*
X144489444Y-96860935D01*
X144489444Y-96860935D02*
X144462506Y-96887872D01*
X144462506Y-96887872D02*
X144435569Y-96968685D01*
X144435569Y-96968685D02*
X144435569Y-97022559D01*
X144435569Y-97022559D02*
X144462506Y-97103372D01*
X144462506Y-97103372D02*
X144570256Y-97211121D01*
X144570256Y-97211121D02*
X144597193Y-97291933D01*
X144597193Y-97291933D02*
X144597193Y-97345808D01*
X144597193Y-97345808D02*
X144570256Y-97426620D01*
X144570256Y-97426620D02*
X144462506Y-97534370D01*
X144462506Y-97534370D02*
X144381694Y-97561307D01*
X144381694Y-97561307D02*
X144327819Y-97561307D01*
X144327819Y-97561307D02*
X144247007Y-97534370D01*
X144247007Y-97534370D02*
X144139258Y-97426620D01*
X144139258Y-97426620D02*
X144112320Y-97345808D01*
X144112320Y-97345808D02*
X144112320Y-97291933D01*
X144112320Y-97291933D02*
X144139258Y-97211121D01*
X144139258Y-97211121D02*
X144247007Y-97103372D01*
X144247007Y-97103372D02*
X144327819Y-97076434D01*
X144327819Y-97076434D02*
X144381694Y-97076434D01*
X144381694Y-97076434D02*
X144462506Y-97103372D01*
X145321627Y-72426494D02*
X145402439Y-72453431D01*
X145402439Y-72453431D02*
X145483251Y-72534243D01*
X145483251Y-72534243D02*
X145537126Y-72641993D01*
X145537126Y-72641993D02*
X145537126Y-72749742D01*
X145537126Y-72749742D02*
X145510189Y-72830555D01*
X145510189Y-72830555D02*
X145429376Y-72965242D01*
X145429376Y-72965242D02*
X145348564Y-73046054D01*
X145348564Y-73046054D02*
X145213877Y-73126866D01*
X145213877Y-73126866D02*
X145133065Y-73153803D01*
X145133065Y-73153803D02*
X145025315Y-73153803D01*
X145025315Y-73153803D02*
X144917566Y-73099929D01*
X144917566Y-73099929D02*
X144863691Y-73046054D01*
X144863691Y-73046054D02*
X144809816Y-72938304D01*
X144809816Y-72938304D02*
X144809816Y-72884429D01*
X144809816Y-72884429D02*
X144998378Y-72695868D01*
X144998378Y-72695868D02*
X145106128Y-72803617D01*
X144513505Y-72695868D02*
X145079190Y-72130182D01*
X145079190Y-72130182D02*
X144863691Y-71914683D01*
X144863691Y-71914683D02*
X144782879Y-71887746D01*
X144782879Y-71887746D02*
X144729004Y-71887746D01*
X144729004Y-71887746D02*
X144648192Y-71914683D01*
X144648192Y-71914683D02*
X144567380Y-71995495D01*
X144567380Y-71995495D02*
X144540442Y-72076307D01*
X144540442Y-72076307D02*
X144540442Y-72130182D01*
X144540442Y-72130182D02*
X144567380Y-72210994D01*
X144567380Y-72210994D02*
X144782879Y-72426494D01*
X144405755Y-71456747D02*
X144351880Y-71402872D01*
X144351880Y-71402872D02*
X144271068Y-71375935D01*
X144271068Y-71375935D02*
X144217193Y-71375935D01*
X144217193Y-71375935D02*
X144136381Y-71402872D01*
X144136381Y-71402872D02*
X144001694Y-71483685D01*
X144001694Y-71483685D02*
X143867007Y-71618372D01*
X143867007Y-71618372D02*
X143786195Y-71753059D01*
X143786195Y-71753059D02*
X143759258Y-71833871D01*
X143759258Y-71833871D02*
X143759258Y-71887746D01*
X143759258Y-71887746D02*
X143786195Y-71968558D01*
X143786195Y-71968558D02*
X143840070Y-72022433D01*
X143840070Y-72022433D02*
X143920882Y-72049370D01*
X143920882Y-72049370D02*
X143974757Y-72049370D01*
X143974757Y-72049370D02*
X144055569Y-72022433D01*
X144055569Y-72022433D02*
X144190256Y-71941620D01*
X144190256Y-71941620D02*
X144324943Y-71806933D01*
X144324943Y-71806933D02*
X144405755Y-71672246D01*
X144405755Y-71672246D02*
X144432693Y-71591434D01*
X144432693Y-71591434D02*
X144432693Y-71537559D01*
X144432693Y-71537559D02*
X144405755Y-71456747D01*
X119737001Y-118415868D02*
X119817814Y-118442805D01*
X119817814Y-118442805D02*
X119898626Y-118523618D01*
X119898626Y-118523618D02*
X119952501Y-118631367D01*
X119952501Y-118631367D02*
X119952501Y-118739117D01*
X119952501Y-118739117D02*
X119925563Y-118819929D01*
X119925563Y-118819929D02*
X119844751Y-118954616D01*
X119844751Y-118954616D02*
X119763939Y-119035428D01*
X119763939Y-119035428D02*
X119629252Y-119116241D01*
X119629252Y-119116241D02*
X119548439Y-119143178D01*
X119548439Y-119143178D02*
X119440690Y-119143178D01*
X119440690Y-119143178D02*
X119332940Y-119089303D01*
X119332940Y-119089303D02*
X119279065Y-119035428D01*
X119279065Y-119035428D02*
X119225191Y-118927679D01*
X119225191Y-118927679D02*
X119225191Y-118873804D01*
X119225191Y-118873804D02*
X119413752Y-118685242D01*
X119413752Y-118685242D02*
X119521502Y-118792992D01*
X118928879Y-118685242D02*
X119494565Y-118119557D01*
X119494565Y-118119557D02*
X119279065Y-117904057D01*
X119279065Y-117904057D02*
X119198253Y-117877120D01*
X119198253Y-117877120D02*
X119144378Y-117877120D01*
X119144378Y-117877120D02*
X119063566Y-117904057D01*
X119063566Y-117904057D02*
X118982754Y-117984870D01*
X118982754Y-117984870D02*
X118955817Y-118065682D01*
X118955817Y-118065682D02*
X118955817Y-118119557D01*
X118955817Y-118119557D02*
X118982754Y-118200369D01*
X118982754Y-118200369D02*
X119198253Y-118415868D01*
X118066882Y-117823245D02*
X118390131Y-118146494D01*
X118228507Y-117984870D02*
X118794192Y-117419184D01*
X118794192Y-117419184D02*
X118767255Y-117553871D01*
X118767255Y-117553871D02*
X118767255Y-117661621D01*
X118767255Y-117661621D02*
X118794192Y-117742433D01*
X118444006Y-117068998D02*
X118066882Y-116691874D01*
X118066882Y-116691874D02*
X117743633Y-117499996D01*
X119737001Y-100635868D02*
X119817814Y-100662805D01*
X119817814Y-100662805D02*
X119898626Y-100743618D01*
X119898626Y-100743618D02*
X119952501Y-100851367D01*
X119952501Y-100851367D02*
X119952501Y-100959117D01*
X119952501Y-100959117D02*
X119925563Y-101039929D01*
X119925563Y-101039929D02*
X119844751Y-101174616D01*
X119844751Y-101174616D02*
X119763939Y-101255428D01*
X119763939Y-101255428D02*
X119629252Y-101336241D01*
X119629252Y-101336241D02*
X119548439Y-101363178D01*
X119548439Y-101363178D02*
X119440690Y-101363178D01*
X119440690Y-101363178D02*
X119332940Y-101309303D01*
X119332940Y-101309303D02*
X119279065Y-101255428D01*
X119279065Y-101255428D02*
X119225191Y-101147679D01*
X119225191Y-101147679D02*
X119225191Y-101093804D01*
X119225191Y-101093804D02*
X119413752Y-100905242D01*
X119413752Y-100905242D02*
X119521502Y-101012992D01*
X118928879Y-100905242D02*
X119494565Y-100339557D01*
X119494565Y-100339557D02*
X119279065Y-100124057D01*
X119279065Y-100124057D02*
X119198253Y-100097120D01*
X119198253Y-100097120D02*
X119144378Y-100097120D01*
X119144378Y-100097120D02*
X119063566Y-100124057D01*
X119063566Y-100124057D02*
X118982754Y-100204870D01*
X118982754Y-100204870D02*
X118955817Y-100285682D01*
X118955817Y-100285682D02*
X118955817Y-100339557D01*
X118955817Y-100339557D02*
X118982754Y-100420369D01*
X118982754Y-100420369D02*
X119198253Y-100635868D01*
X118901942Y-99854683D02*
X118901942Y-99800809D01*
X118901942Y-99800809D02*
X118875004Y-99719996D01*
X118875004Y-99719996D02*
X118740317Y-99585309D01*
X118740317Y-99585309D02*
X118659505Y-99558372D01*
X118659505Y-99558372D02*
X118605630Y-99558372D01*
X118605630Y-99558372D02*
X118524818Y-99585309D01*
X118524818Y-99585309D02*
X118470943Y-99639184D01*
X118470943Y-99639184D02*
X118417069Y-99746934D01*
X118417069Y-99746934D02*
X118417069Y-100393431D01*
X118417069Y-100393431D02*
X118066882Y-100043245D01*
X118363194Y-99315935D02*
X118363194Y-99262060D01*
X118363194Y-99262060D02*
X118336256Y-99181248D01*
X118336256Y-99181248D02*
X118201569Y-99046561D01*
X118201569Y-99046561D02*
X118120757Y-99019624D01*
X118120757Y-99019624D02*
X118066882Y-99019624D01*
X118066882Y-99019624D02*
X117986070Y-99046561D01*
X117986070Y-99046561D02*
X117932195Y-99100436D01*
X117932195Y-99100436D02*
X117878320Y-99208186D01*
X117878320Y-99208186D02*
X117878320Y-99854683D01*
X117878320Y-99854683D02*
X117528134Y-99504497D01*
X119944876Y-82925868D02*
X119594690Y-82575682D01*
X119594690Y-82575682D02*
X119567752Y-82979743D01*
X119567752Y-82979743D02*
X119486940Y-82898931D01*
X119486940Y-82898931D02*
X119406128Y-82871993D01*
X119406128Y-82871993D02*
X119352253Y-82871993D01*
X119352253Y-82871993D02*
X119271441Y-82898931D01*
X119271441Y-82898931D02*
X119136754Y-83033618D01*
X119136754Y-83033618D02*
X119109817Y-83114430D01*
X119109817Y-83114430D02*
X119109817Y-83168305D01*
X119109817Y-83168305D02*
X119136754Y-83249117D01*
X119136754Y-83249117D02*
X119298378Y-83410741D01*
X119298378Y-83410741D02*
X119379191Y-83437679D01*
X119379191Y-83437679D02*
X119433065Y-83437679D01*
X119433065Y-82414057D02*
X118678818Y-82791181D01*
X118678818Y-82791181D02*
X119055942Y-82036934D01*
X118921255Y-81902247D02*
X118571069Y-81552061D01*
X118571069Y-81552061D02*
X118544131Y-81956122D01*
X118544131Y-81956122D02*
X118463319Y-81875309D01*
X118463319Y-81875309D02*
X118382507Y-81848372D01*
X118382507Y-81848372D02*
X118328632Y-81848372D01*
X118328632Y-81848372D02*
X118247820Y-81875309D01*
X118247820Y-81875309D02*
X118113133Y-82009996D01*
X118113133Y-82009996D02*
X118086195Y-82090809D01*
X118086195Y-82090809D02*
X118086195Y-82144683D01*
X118086195Y-82144683D02*
X118113133Y-82225496D01*
X118113133Y-82225496D02*
X118274757Y-82387120D01*
X118274757Y-82387120D02*
X118355569Y-82414057D01*
X118355569Y-82414057D02*
X118409444Y-82414057D01*
X119737001Y-108255868D02*
X119817814Y-108282805D01*
X119817814Y-108282805D02*
X119898626Y-108363618D01*
X119898626Y-108363618D02*
X119952501Y-108471367D01*
X119952501Y-108471367D02*
X119952501Y-108579117D01*
X119952501Y-108579117D02*
X119925563Y-108659929D01*
X119925563Y-108659929D02*
X119844751Y-108794616D01*
X119844751Y-108794616D02*
X119763939Y-108875428D01*
X119763939Y-108875428D02*
X119629252Y-108956241D01*
X119629252Y-108956241D02*
X119548439Y-108983178D01*
X119548439Y-108983178D02*
X119440690Y-108983178D01*
X119440690Y-108983178D02*
X119332940Y-108929303D01*
X119332940Y-108929303D02*
X119279065Y-108875428D01*
X119279065Y-108875428D02*
X119225191Y-108767679D01*
X119225191Y-108767679D02*
X119225191Y-108713804D01*
X119225191Y-108713804D02*
X119413752Y-108525242D01*
X119413752Y-108525242D02*
X119521502Y-108632992D01*
X118928879Y-108525242D02*
X119494565Y-107959557D01*
X119494565Y-107959557D02*
X119279065Y-107744057D01*
X119279065Y-107744057D02*
X119198253Y-107717120D01*
X119198253Y-107717120D02*
X119144378Y-107717120D01*
X119144378Y-107717120D02*
X119063566Y-107744057D01*
X119063566Y-107744057D02*
X118982754Y-107824870D01*
X118982754Y-107824870D02*
X118955817Y-107905682D01*
X118955817Y-107905682D02*
X118955817Y-107959557D01*
X118955817Y-107959557D02*
X118982754Y-108040369D01*
X118982754Y-108040369D02*
X119198253Y-108255868D01*
X118901942Y-107474683D02*
X118901942Y-107420809D01*
X118901942Y-107420809D02*
X118875004Y-107339996D01*
X118875004Y-107339996D02*
X118740317Y-107205309D01*
X118740317Y-107205309D02*
X118659505Y-107178372D01*
X118659505Y-107178372D02*
X118605630Y-107178372D01*
X118605630Y-107178372D02*
X118524818Y-107205309D01*
X118524818Y-107205309D02*
X118470943Y-107259184D01*
X118470943Y-107259184D02*
X118417069Y-107366934D01*
X118417069Y-107366934D02*
X118417069Y-108013431D01*
X118417069Y-108013431D02*
X118066882Y-107663245D01*
X118282381Y-106747373D02*
X118228507Y-106693499D01*
X118228507Y-106693499D02*
X118147694Y-106666561D01*
X118147694Y-106666561D02*
X118093820Y-106666561D01*
X118093820Y-106666561D02*
X118013007Y-106693499D01*
X118013007Y-106693499D02*
X117878320Y-106774311D01*
X117878320Y-106774311D02*
X117743633Y-106908998D01*
X117743633Y-106908998D02*
X117662821Y-107043685D01*
X117662821Y-107043685D02*
X117635884Y-107124497D01*
X117635884Y-107124497D02*
X117635884Y-107178372D01*
X117635884Y-107178372D02*
X117662821Y-107259184D01*
X117662821Y-107259184D02*
X117716696Y-107313059D01*
X117716696Y-107313059D02*
X117797508Y-107339996D01*
X117797508Y-107339996D02*
X117851383Y-107339996D01*
X117851383Y-107339996D02*
X117932195Y-107313059D01*
X117932195Y-107313059D02*
X118066882Y-107232247D01*
X118066882Y-107232247D02*
X118201569Y-107097560D01*
X118201569Y-107097560D02*
X118282381Y-106962873D01*
X118282381Y-106962873D02*
X118309319Y-106882060D01*
X118309319Y-106882060D02*
X118309319Y-106828186D01*
X118309319Y-106828186D02*
X118282381Y-106747373D01*
X118996348Y-98378710D02*
X119454283Y-98297898D01*
X119319596Y-98701959D02*
X119885282Y-98136274D01*
X119885282Y-98136274D02*
X119669783Y-97920775D01*
X119669783Y-97920775D02*
X119588970Y-97893837D01*
X119588970Y-97893837D02*
X119535096Y-97893837D01*
X119535096Y-97893837D02*
X119454283Y-97920775D01*
X119454283Y-97920775D02*
X119373471Y-98001587D01*
X119373471Y-98001587D02*
X119346534Y-98082399D01*
X119346534Y-98082399D02*
X119346534Y-98136274D01*
X119346534Y-98136274D02*
X119373471Y-98217086D01*
X119373471Y-98217086D02*
X119588970Y-98432585D01*
X119319596Y-97570588D02*
X118861661Y-98028524D01*
X118861661Y-98028524D02*
X118780848Y-98055462D01*
X118780848Y-98055462D02*
X118726974Y-98055462D01*
X118726974Y-98055462D02*
X118646161Y-98028524D01*
X118646161Y-98028524D02*
X118538412Y-97920775D01*
X118538412Y-97920775D02*
X118511474Y-97839962D01*
X118511474Y-97839962D02*
X118511474Y-97786088D01*
X118511474Y-97786088D02*
X118538412Y-97705275D01*
X118538412Y-97705275D02*
X118996348Y-97247340D01*
X118161288Y-97543651D02*
X118726974Y-96977966D01*
X118726974Y-96977966D02*
X117838040Y-97220402D01*
X117838040Y-97220402D02*
X118403725Y-96654717D01*
X145728564Y-103018431D02*
X145809376Y-103045368D01*
X145809376Y-103045368D02*
X145890188Y-103126180D01*
X145890188Y-103126180D02*
X145944063Y-103233930D01*
X145944063Y-103233930D02*
X145944063Y-103341680D01*
X145944063Y-103341680D02*
X145917126Y-103422492D01*
X145917126Y-103422492D02*
X145836314Y-103557179D01*
X145836314Y-103557179D02*
X145755501Y-103637991D01*
X145755501Y-103637991D02*
X145620814Y-103718803D01*
X145620814Y-103718803D02*
X145540002Y-103745741D01*
X145540002Y-103745741D02*
X145432253Y-103745741D01*
X145432253Y-103745741D02*
X145324503Y-103691866D01*
X145324503Y-103691866D02*
X145270628Y-103637991D01*
X145270628Y-103637991D02*
X145216753Y-103530241D01*
X145216753Y-103530241D02*
X145216753Y-103476367D01*
X145216753Y-103476367D02*
X145405315Y-103287805D01*
X145405315Y-103287805D02*
X145513065Y-103395554D01*
X144920442Y-103287805D02*
X145486127Y-102722119D01*
X145486127Y-102722119D02*
X144597193Y-102964556D01*
X144597193Y-102964556D02*
X145162879Y-102398871D01*
X144327819Y-102695182D02*
X144893505Y-102129497D01*
X144893505Y-102129497D02*
X144758818Y-101994810D01*
X144758818Y-101994810D02*
X144651068Y-101940935D01*
X144651068Y-101940935D02*
X144543319Y-101940935D01*
X144543319Y-101940935D02*
X144462506Y-101967872D01*
X144462506Y-101967872D02*
X144327819Y-102048685D01*
X144327819Y-102048685D02*
X144247007Y-102129497D01*
X144247007Y-102129497D02*
X144166195Y-102264184D01*
X144166195Y-102264184D02*
X144139258Y-102344996D01*
X144139258Y-102344996D02*
X144139258Y-102452746D01*
X144139258Y-102452746D02*
X144193132Y-102560495D01*
X144193132Y-102560495D02*
X144327819Y-102695182D01*
X119683126Y-91176240D02*
X119413752Y-90906866D01*
X119575376Y-91391739D02*
X119952500Y-90637492D01*
X119952500Y-90637492D02*
X119198253Y-91014615D01*
X119252128Y-89990994D02*
X119332940Y-90017932D01*
X119332940Y-90017932D02*
X119413752Y-90098744D01*
X119413752Y-90098744D02*
X119467627Y-90206494D01*
X119467627Y-90206494D02*
X119467627Y-90314243D01*
X119467627Y-90314243D02*
X119440689Y-90395055D01*
X119440689Y-90395055D02*
X119359877Y-90529742D01*
X119359877Y-90529742D02*
X119279065Y-90610555D01*
X119279065Y-90610555D02*
X119144378Y-90691367D01*
X119144378Y-90691367D02*
X119063566Y-90718304D01*
X119063566Y-90718304D02*
X118955816Y-90718304D01*
X118955816Y-90718304D02*
X118848067Y-90664429D01*
X118848067Y-90664429D02*
X118794192Y-90610555D01*
X118794192Y-90610555D02*
X118740317Y-90502805D01*
X118740317Y-90502805D02*
X118740317Y-90448930D01*
X118740317Y-90448930D02*
X118928879Y-90260368D01*
X118928879Y-90260368D02*
X119036628Y-90368118D01*
X118444006Y-90260368D02*
X119009691Y-89694683D01*
X119009691Y-89694683D02*
X118120757Y-89937120D01*
X118120757Y-89937120D02*
X118686442Y-89371434D01*
X117851383Y-89667746D02*
X118417068Y-89102060D01*
X118417068Y-89102060D02*
X118282381Y-88967373D01*
X118282381Y-88967373D02*
X118174632Y-88913498D01*
X118174632Y-88913498D02*
X118066882Y-88913498D01*
X118066882Y-88913498D02*
X117986070Y-88940436D01*
X117986070Y-88940436D02*
X117851383Y-89021248D01*
X117851383Y-89021248D02*
X117770571Y-89102060D01*
X117770571Y-89102060D02*
X117689758Y-89236747D01*
X117689758Y-89236747D02*
X117662821Y-89317560D01*
X117662821Y-89317560D02*
X117662821Y-89425309D01*
X117662821Y-89425309D02*
X117716696Y-89533059D01*
X117716696Y-89533059D02*
X117851383Y-89667746D01*
X145348564Y-77533431D02*
X145429376Y-77560368D01*
X145429376Y-77560368D02*
X145510188Y-77641180D01*
X145510188Y-77641180D02*
X145564063Y-77748930D01*
X145564063Y-77748930D02*
X145564063Y-77856680D01*
X145564063Y-77856680D02*
X145537126Y-77937492D01*
X145537126Y-77937492D02*
X145456314Y-78072179D01*
X145456314Y-78072179D02*
X145375501Y-78152991D01*
X145375501Y-78152991D02*
X145240814Y-78233803D01*
X145240814Y-78233803D02*
X145160002Y-78260741D01*
X145160002Y-78260741D02*
X145052253Y-78260741D01*
X145052253Y-78260741D02*
X144944503Y-78206866D01*
X144944503Y-78206866D02*
X144890628Y-78152991D01*
X144890628Y-78152991D02*
X144836753Y-78045241D01*
X144836753Y-78045241D02*
X144836753Y-77991367D01*
X144836753Y-77991367D02*
X145025315Y-77802805D01*
X145025315Y-77802805D02*
X145133065Y-77910554D01*
X144540442Y-77802805D02*
X145106127Y-77237119D01*
X145106127Y-77237119D02*
X144217193Y-77479556D01*
X144217193Y-77479556D02*
X144782879Y-76913871D01*
X143947819Y-77210182D02*
X144513505Y-76644497D01*
X144513505Y-76644497D02*
X144378818Y-76509810D01*
X144378818Y-76509810D02*
X144271068Y-76455935D01*
X144271068Y-76455935D02*
X144163319Y-76455935D01*
X144163319Y-76455935D02*
X144082506Y-76482872D01*
X144082506Y-76482872D02*
X143947819Y-76563685D01*
X143947819Y-76563685D02*
X143867007Y-76644497D01*
X143867007Y-76644497D02*
X143786195Y-76779184D01*
X143786195Y-76779184D02*
X143759258Y-76859996D01*
X143759258Y-76859996D02*
X143759258Y-76967746D01*
X143759258Y-76967746D02*
X143813132Y-77075495D01*
X143813132Y-77075495D02*
X143947819Y-77210182D01*
X119914250Y-75505242D02*
X119160003Y-75882366D01*
X119160003Y-75882366D02*
X119537126Y-75128118D01*
X118836754Y-75505242D02*
X118729004Y-75451367D01*
X118729004Y-75451367D02*
X118594317Y-75316680D01*
X118594317Y-75316680D02*
X118567380Y-75235868D01*
X118567380Y-75235868D02*
X118567380Y-75181993D01*
X118567380Y-75181993D02*
X118594317Y-75101181D01*
X118594317Y-75101181D02*
X118648192Y-75047306D01*
X118648192Y-75047306D02*
X118729004Y-75020369D01*
X118729004Y-75020369D02*
X118782879Y-75020369D01*
X118782879Y-75020369D02*
X118863691Y-75047306D01*
X118863691Y-75047306D02*
X118998378Y-75128118D01*
X118998378Y-75128118D02*
X119079191Y-75155056D01*
X119079191Y-75155056D02*
X119133065Y-75155056D01*
X119133065Y-75155056D02*
X119213878Y-75128118D01*
X119213878Y-75128118D02*
X119267752Y-75074244D01*
X119267752Y-75074244D02*
X119294690Y-74993431D01*
X119294690Y-74993431D02*
X119294690Y-74939557D01*
X119294690Y-74939557D02*
X119267752Y-74858744D01*
X119267752Y-74858744D02*
X119133065Y-74724057D01*
X119133065Y-74724057D02*
X119025316Y-74670183D01*
X118405755Y-74589370D02*
X118136381Y-74858744D01*
X118890629Y-74481621D02*
X118405755Y-74589370D01*
X118405755Y-74589370D02*
X118513505Y-74104497D01*
X117813133Y-74481621D02*
X117705383Y-74427746D01*
X117705383Y-74427746D02*
X117570696Y-74293059D01*
X117570696Y-74293059D02*
X117543759Y-74212247D01*
X117543759Y-74212247D02*
X117543759Y-74158372D01*
X117543759Y-74158372D02*
X117570696Y-74077560D01*
X117570696Y-74077560D02*
X117624571Y-74023685D01*
X117624571Y-74023685D02*
X117705383Y-73996748D01*
X117705383Y-73996748D02*
X117759258Y-73996748D01*
X117759258Y-73996748D02*
X117840070Y-74023685D01*
X117840070Y-74023685D02*
X117974757Y-74104497D01*
X117974757Y-74104497D02*
X118055569Y-74131435D01*
X118055569Y-74131435D02*
X118109444Y-74131435D01*
X118109444Y-74131435D02*
X118190256Y-74104497D01*
X118190256Y-74104497D02*
X118244131Y-74050622D01*
X118244131Y-74050622D02*
X118271069Y-73969810D01*
X118271069Y-73969810D02*
X118271069Y-73915935D01*
X118271069Y-73915935D02*
X118244131Y-73835123D01*
X118244131Y-73835123D02*
X118109444Y-73700436D01*
X118109444Y-73700436D02*
X118001695Y-73646561D01*
D11*
%TO.C,Pico*%
X121335000Y-70935000D02*
X121335000Y-71235000D01*
X121335000Y-73335000D02*
X121335000Y-73735000D01*
X121335000Y-75935000D02*
X121335000Y-76335000D01*
X121335000Y-78435000D02*
X121335000Y-78835000D01*
X121335000Y-81035000D02*
X121335000Y-81435000D01*
X121335000Y-83535000D02*
X121335000Y-83935000D01*
X121335000Y-86035000D02*
X121335000Y-86435000D01*
X121335000Y-88635000D02*
X121335000Y-89035000D01*
X121335000Y-91135000D02*
X121335000Y-91535000D01*
X121335000Y-93735000D02*
X121335000Y-94135000D01*
X121335000Y-96235000D02*
X121335000Y-96635000D01*
X121335000Y-98735000D02*
X121335000Y-99135000D01*
X121335000Y-101335000D02*
X121335000Y-101735000D01*
X121335000Y-103835000D02*
X121335000Y-104235000D01*
X121335000Y-106435000D02*
X121335000Y-106835000D01*
X121335000Y-108935000D02*
X121335000Y-109335000D01*
X121335000Y-111535000D02*
X121335000Y-111935000D01*
X121335000Y-114035000D02*
X121335000Y-114435000D01*
X121335000Y-116535000D02*
X121335000Y-116935000D01*
X121335000Y-119135000D02*
X121335000Y-119535000D01*
X121335000Y-121935000D02*
X128135000Y-121935000D01*
X130735000Y-121935000D02*
X130335000Y-121935000D01*
X133335000Y-121935000D02*
X132935000Y-121935000D01*
X135535000Y-121935000D02*
X142335000Y-121935000D01*
X139328000Y-73602000D02*
X139328000Y-70935000D01*
X142335000Y-70935000D02*
X121335000Y-70935000D01*
X142335000Y-70935000D02*
X142335000Y-71235000D01*
X142335000Y-73335000D02*
X142335000Y-73735000D01*
X142335000Y-73602000D02*
X139328000Y-73602000D01*
X142335000Y-75935000D02*
X142335000Y-76335000D01*
X142335000Y-78435000D02*
X142335000Y-78835000D01*
X142335000Y-81035000D02*
X142335000Y-81435000D01*
X142335000Y-83535000D02*
X142335000Y-83935000D01*
X142335000Y-86035000D02*
X142335000Y-86435000D01*
X142335000Y-88635000D02*
X142335000Y-89035000D01*
X142335000Y-91135000D02*
X142335000Y-91535000D01*
X142335000Y-93735000D02*
X142335000Y-94135000D01*
X142335000Y-96235000D02*
X142335000Y-96635000D01*
X142335000Y-98735000D02*
X142335000Y-99135000D01*
X142335000Y-101335000D02*
X142335000Y-101735000D01*
X142335000Y-103835000D02*
X142335000Y-104235000D01*
X142335000Y-106435000D02*
X142335000Y-106835000D01*
X142335000Y-108935000D02*
X142335000Y-109335000D01*
X142335000Y-111535000D02*
X142335000Y-111935000D01*
X142335000Y-114035000D02*
X142335000Y-114435000D01*
X142335000Y-116535000D02*
X142335000Y-116935000D01*
X142335000Y-119135000D02*
X142335000Y-119535000D01*
%TD*%
M02*
