%TF.GenerationSoftware,KiCad,Pcbnew,7.0.10+dfsg-1*%
%TF.CreationDate,2024-02-23T10:47:49+01:00*%
%TF.ProjectId,chibi_v2_1,63686962-695f-4763-925f-312e6b696361,rev?*%
%TF.SameCoordinates,Original*%
%TF.FileFunction,Copper,L1,Top*%
%TF.FilePolarity,Positive*%
%FSLAX46Y46*%
G04 Gerber Fmt 4.6, Leading zero omitted, Abs format (unit mm)*
G04 Created by KiCad (PCBNEW 7.0.10+dfsg-1) date 2024-02-23 10:47:49*
%MOMM*%
%LPD*%
G01*
G04 APERTURE LIST*
%TA.AperFunction,ComponentPad*%
%ADD10C,1.600000*%
%TD*%
%TA.AperFunction,ComponentPad*%
%ADD11O,1.600000X1.600000*%
%TD*%
%TA.AperFunction,ComponentPad*%
%ADD12R,1.800000X1.800000*%
%TD*%
%TA.AperFunction,ComponentPad*%
%ADD13C,1.800000*%
%TD*%
%TA.AperFunction,ComponentPad*%
%ADD14R,1.700000X1.700000*%
%TD*%
%TA.AperFunction,ComponentPad*%
%ADD15O,1.700000X1.700000*%
%TD*%
%TA.AperFunction,ComponentPad*%
%ADD16R,2.000000X2.000000*%
%TD*%
%TA.AperFunction,ComponentPad*%
%ADD17C,2.000000*%
%TD*%
%TA.AperFunction,ComponentPad*%
%ADD18C,1.676400*%
%TD*%
%TA.AperFunction,ComponentPad*%
%ADD19O,1.600000X2.000000*%
%TD*%
%TA.AperFunction,ViaPad*%
%ADD20C,2.200000*%
%TD*%
%TA.AperFunction,Conductor*%
%ADD21C,0.250000*%
%TD*%
G04 APERTURE END LIST*
D10*
%TO.P,R2,1*%
%TO.N,Net-(Q2-C)*%
X134620000Y-50800000D03*
D11*
%TO.P,R2,2*%
%TO.N,Net-(D1-A)*%
X134620000Y-40640000D03*
%TD*%
D12*
%TO.P,D1,1,K*%
%TO.N,GND*%
X140315000Y-40410000D03*
D13*
%TO.P,D1,2,A*%
%TO.N,Net-(D1-A)*%
X137775000Y-40410000D03*
%TD*%
D14*
%TO.P,J2,1,Pin_1*%
%TO.N,+3V3*%
X117500000Y-109920000D03*
D15*
%TO.P,J2,2,Pin_2*%
%TO.N,Net-(J2-Pin_2)*%
X117500000Y-112460000D03*
%TO.P,J2,3,Pin_3*%
%TO.N,Net-(J2-Pin_3)*%
X117500000Y-115000000D03*
%TO.P,J2,4,Pin_4*%
%TO.N,Net-(J2-Pin_4)*%
X117500000Y-117540000D03*
%TO.P,J2,5,Pin_5*%
%TO.N,Net-(J2-Pin_5)*%
X117500000Y-120080000D03*
%TO.P,J2,6,Pin_6*%
%TO.N,Net-(J2-Pin_6)*%
X117500000Y-122620000D03*
%TO.P,J2,7,Pin_7*%
%TO.N,Net-(J2-Pin_7)*%
X117500000Y-125160000D03*
%TO.P,J2,8,Pin_8*%
%TO.N,Net-(J2-Pin_8)*%
X117500000Y-127700000D03*
%TD*%
D12*
%TO.P,D2,1,K*%
%TO.N,GND*%
X147300000Y-40410000D03*
D13*
%TO.P,D2,2,A*%
%TO.N,Net-(D2-A)*%
X144760000Y-40410000D03*
%TD*%
D16*
%TO.P,BZ1,1,+*%
%TO.N,Net-(BZ1-+)*%
X161280000Y-41275000D03*
D17*
%TO.P,BZ1,2,-*%
%TO.N,+3V3*%
X153680000Y-41275000D03*
%TD*%
D10*
%TO.P,R1,1*%
%TO.N,Net-(Q3-C)*%
X144780000Y-53340000D03*
D11*
%TO.P,R1,2*%
%TO.N,Net-(D2-A)*%
X144780000Y-43180000D03*
%TD*%
D18*
%TO.P,Q3,1,C*%
%TO.N,Net-(Q3-C)*%
X149225000Y-49530000D03*
%TO.P,Q3,2,B*%
%TO.N,Net-(Pico1-GPIO11)*%
X151130000Y-48260000D03*
%TO.P,Q3,3,E*%
%TO.N,+3V3*%
X149225000Y-46990000D03*
%TD*%
%TO.P,Q2,1,C*%
%TO.N,Net-(Q2-C)*%
X138430000Y-50800000D03*
%TO.P,Q2,2,B*%
%TO.N,Net-(Pico1-GPIO10)*%
X139700000Y-52705000D03*
%TO.P,Q2,3,E*%
%TO.N,+3V3*%
X140970000Y-50800000D03*
%TD*%
%TO.P,Q1,1,C*%
%TO.N,GND*%
X156210000Y-52070000D03*
%TO.P,Q1,2,B*%
%TO.N,Net-(Pico1-GPIO9)*%
X157480000Y-53975000D03*
%TO.P,Q1,3,E*%
%TO.N,Net-(BZ1-+)*%
X158750000Y-52070000D03*
%TD*%
D19*
%TO.P,Display1,1,GND*%
%TO.N,GND*%
X132080000Y-57785000D03*
%TO.P,Display1,2,VCC*%
%TO.N,+3V3*%
X134620000Y-57785000D03*
%TO.P,Display1,3,SCL*%
%TO.N,Net-(Display1-SCL)*%
X137160000Y-57785000D03*
%TO.P,Display1,4,SDA*%
%TO.N,Net-(Display1-SDA)*%
X139700000Y-57785000D03*
%TD*%
D14*
%TO.P,J1,1,Pin_1*%
%TO.N,GND*%
X105925000Y-40600000D03*
D15*
%TO.P,J1,2,Pin_2*%
%TO.N,Net-(J1-Pin_2)*%
X108465000Y-40600000D03*
%TD*%
%TO.P,Pico1,1,GPIO0*%
%TO.N,Net-(Display1-SDA)*%
X126365000Y-48260000D03*
%TO.P,Pico1,2,GPIO1*%
%TO.N,Net-(Display1-SCL)*%
X126365000Y-50800000D03*
D14*
%TO.P,Pico1,3,GND*%
%TO.N,GND*%
X126365000Y-53340000D03*
D15*
%TO.P,Pico1,4,GPIO2*%
%TO.N,Net-(J2-Pin_2)*%
X126365000Y-55880000D03*
%TO.P,Pico1,5,GPIO3*%
%TO.N,Net-(J2-Pin_3)*%
X126365000Y-58420000D03*
%TO.P,Pico1,6,GPIO4*%
%TO.N,Net-(J2-Pin_4)*%
X126365000Y-60960000D03*
%TO.P,Pico1,7,GPIO5*%
%TO.N,Net-(J2-Pin_5)*%
X126365000Y-63500000D03*
D14*
%TO.P,Pico1,8,GND*%
%TO.N,GND*%
X126365000Y-66040000D03*
D15*
%TO.P,Pico1,9,GPIO6*%
%TO.N,Net-(J2-Pin_6)*%
X126365000Y-68580000D03*
%TO.P,Pico1,10,GPIO7*%
%TO.N,Net-(J2-Pin_7)*%
X126365000Y-71120000D03*
%TO.P,Pico1,11,GPIO8*%
%TO.N,Net-(J2-Pin_8)*%
X126365000Y-73660000D03*
%TO.P,Pico1,12,GPIO9*%
%TO.N,Net-(Pico1-GPIO9)*%
X126365000Y-76200000D03*
D14*
%TO.P,Pico1,13,GND*%
%TO.N,GND*%
X126365000Y-78740000D03*
D15*
%TO.P,Pico1,14,GPIO10*%
%TO.N,Net-(Pico1-GPIO10)*%
X126365000Y-81280000D03*
%TO.P,Pico1,15,GPIO11*%
%TO.N,Net-(Pico1-GPIO11)*%
X126365000Y-83820000D03*
%TO.P,Pico1,16,GPIO12*%
%TO.N,unconnected-(Pico1-GPIO12-Pad16)*%
X126365000Y-86360000D03*
%TO.P,Pico1,17,GPIO13*%
%TO.N,unconnected-(Pico1-GPIO13-Pad17)*%
X126365000Y-88900000D03*
D14*
%TO.P,Pico1,18,GND*%
%TO.N,GND*%
X126365000Y-91440000D03*
D15*
%TO.P,Pico1,19,GPIO14*%
%TO.N,unconnected-(Pico1-GPIO14-Pad19)*%
X126365000Y-93980000D03*
%TO.P,Pico1,20,GPIO15*%
%TO.N,unconnected-(Pico1-GPIO15-Pad20)*%
X126365000Y-96520000D03*
%TO.P,Pico1,21,GPIO16*%
%TO.N,Net-(Pico1-GPIO16)*%
X108585000Y-96520000D03*
%TO.P,Pico1,22,GPIO17*%
%TO.N,Net-(Pico1-GPIO17)*%
X108585000Y-93980000D03*
D14*
%TO.P,Pico1,23,GND*%
%TO.N,unconnected-(Pico1-GND-Pad23)*%
X108585000Y-91440000D03*
D15*
%TO.P,Pico1,24,GPIO18*%
%TO.N,Net-(Pico1-GPIO18)*%
X108585000Y-88900000D03*
%TO.P,Pico1,25,GPIO19*%
%TO.N,Net-(Pico1-GPIO19)*%
X108585000Y-86360000D03*
%TO.P,Pico1,26,GPIO20*%
%TO.N,unconnected-(Pico1-GPIO20-Pad26)*%
X108585000Y-83820000D03*
%TO.P,Pico1,27,GPIO21*%
%TO.N,unconnected-(Pico1-GPIO21-Pad27)*%
X108585000Y-81280000D03*
D14*
%TO.P,Pico1,28,GND*%
%TO.N,unconnected-(Pico1-GND-Pad28)*%
X108585000Y-78740000D03*
D15*
%TO.P,Pico1,29,GPIO22*%
%TO.N,unconnected-(Pico1-GPIO22-Pad29)*%
X108585000Y-76200000D03*
%TO.P,Pico1,30,RUN*%
%TO.N,unconnected-(Pico1-RUN-Pad30)*%
X108585000Y-73660000D03*
%TO.P,Pico1,31,GPIO26_ADC0*%
%TO.N,unconnected-(Pico1-GPIO26_ADC0-Pad31)*%
X108585000Y-71120000D03*
%TO.P,Pico1,32,GPIO27_ADC1*%
%TO.N,unconnected-(Pico1-GPIO27_ADC1-Pad32)*%
X108585000Y-68580000D03*
D14*
%TO.P,Pico1,33,AGND*%
%TO.N,unconnected-(Pico1-AGND-Pad33)*%
X108585000Y-66040000D03*
D15*
%TO.P,Pico1,34,GPIO28_ADC2*%
%TO.N,unconnected-(Pico1-GPIO28_ADC2-Pad34)*%
X108585000Y-63500000D03*
%TO.P,Pico1,35,ADC_VREF*%
%TO.N,unconnected-(Pico1-ADC_VREF-Pad35)*%
X108585000Y-60960000D03*
%TO.P,Pico1,36,3V3*%
%TO.N,+3V3*%
X108585000Y-58420000D03*
%TO.P,Pico1,37,3V3_EN*%
%TO.N,unconnected-(Pico1-3V3_EN-Pad37)*%
X108585000Y-55880000D03*
D14*
%TO.P,Pico1,38,GND*%
%TO.N,GND*%
X108585000Y-53340000D03*
D15*
%TO.P,Pico1,39,VSYS*%
%TO.N,unconnected-(Pico1-VSYS-Pad39)*%
X108585000Y-50800000D03*
%TO.P,Pico1,40,VBUS*%
%TO.N,Net-(J1-Pin_2)*%
X108585000Y-48260000D03*
%TO.P,Pico1,41,SWCLK*%
%TO.N,unconnected-(Pico1-SWCLK-Pad41)*%
X120015000Y-96290000D03*
D14*
%TO.P,Pico1,42,GND*%
%TO.N,unconnected-(Pico1-GND-Pad42)*%
X117475000Y-96290000D03*
D15*
%TO.P,Pico1,43,SWDIO*%
%TO.N,unconnected-(Pico1-SWDIO-Pad43)*%
X114935000Y-96290000D03*
%TD*%
%TO.P,SDCard1,1,3v*%
%TO.N,+3V3*%
X137160000Y-99060000D03*
%TO.P,SDCard1,2,GND*%
%TO.N,GND*%
X137160000Y-96520000D03*
%TO.P,SDCard1,3,CLK*%
%TO.N,Net-(Pico1-GPIO18)*%
X137160000Y-93980000D03*
%TO.P,SDCard1,4,Slave_Output*%
%TO.N,Net-(Pico1-GPIO16)*%
X137160000Y-91440000D03*
%TO.P,SDCard1,5,Slave_Input*%
%TO.N,Net-(Pico1-GPIO19)*%
X137160000Y-88900000D03*
%TO.P,SDCard1,6,Chip_Select*%
%TO.N,Net-(Pico1-GPIO17)*%
X137160000Y-86360000D03*
%TO.P,SDCard1,7*%
%TO.N,unconnected-(SDCard1-Pad7)*%
X137160000Y-83820000D03*
%TO.P,SDCard1,8*%
%TO.N,unconnected-(SDCard1-Pad8)*%
X137160000Y-81280000D03*
%TO.P,SDCard1,9,Card_Detect*%
%TO.N,unconnected-(SDCard1-Card_Detect-Pad9)*%
X137160000Y-78740000D03*
%TD*%
D20*
%TO.N,*%
X163830000Y-102870000D03*
X101200000Y-130400000D03*
X163830000Y-36195000D03*
X101600000Y-36195000D03*
X120000000Y-130400000D03*
%TD*%
D21*
%TO.N,Net-(J1-Pin_2)*%
X108465000Y-40600000D02*
X108465000Y-48140000D01*
X108465000Y-48140000D02*
X108585000Y-48260000D01*
%TO.N,Net-(J2-Pin_6)*%
X119400000Y-120720000D02*
X117500000Y-122620000D01*
X119400000Y-106372792D02*
X117063604Y-104036396D01*
X106510000Y-97379493D02*
X106510000Y-76490000D01*
X106510000Y-76490000D02*
X108165000Y-74835000D01*
X113166903Y-104036396D02*
X117063604Y-104036396D01*
X113166903Y-104036396D02*
X106510000Y-97379493D01*
X108165000Y-74835000D02*
X120110000Y-74835000D01*
X120110000Y-74835000D02*
X126365000Y-68580000D01*
X119400000Y-106352792D02*
X119400000Y-120720000D01*
%TO.N,Net-(J2-Pin_7)*%
X117500000Y-125160000D02*
X119850000Y-122810000D01*
X106960000Y-77840001D02*
X107425001Y-77375000D01*
X119850000Y-122810000D02*
X119850000Y-105686396D01*
X120110000Y-77375000D02*
X126365000Y-71120000D01*
X119850000Y-105686396D02*
X117581802Y-103418198D01*
X117581802Y-103418198D02*
X113185101Y-103418198D01*
X107425001Y-77375000D02*
X120110000Y-77375000D01*
X113185101Y-103418198D02*
X106960000Y-97193097D01*
X106960000Y-97193097D02*
X106960000Y-77840001D01*
%TO.N,Net-(J2-Pin_8)*%
X117500000Y-127700000D02*
X120300000Y-124900000D01*
X108203299Y-80000000D02*
X120025000Y-80000000D01*
X120300000Y-124900000D02*
X120300000Y-105343604D01*
X120025000Y-80000000D02*
X126365000Y-73660000D01*
X113203299Y-102800000D02*
X107410000Y-97006701D01*
X120300000Y-105343604D02*
X117756396Y-102800000D01*
X107410000Y-80793299D02*
X108203299Y-80000000D01*
X117756396Y-102800000D02*
X113203299Y-102800000D01*
X107410000Y-97006701D02*
X107410000Y-80793299D01*
%TO.N,Net-(BZ1-+)*%
X158750000Y-43805000D02*
X161280000Y-41275000D01*
X158750000Y-52070000D02*
X158750000Y-43805000D01*
%TO.N,Net-(D1-A)*%
X134620000Y-40640000D02*
X137545000Y-40640000D01*
X137545000Y-40640000D02*
X137775000Y-40410000D01*
%TO.N,Net-(D2-A)*%
X144780000Y-40430000D02*
X144760000Y-40410000D01*
X144780000Y-43180000D02*
X144780000Y-40430000D01*
%TO.N,Net-(Pico1-GPIO10)*%
X139700000Y-52705000D02*
X138575000Y-53830000D01*
X138575000Y-53830000D02*
X138575000Y-69070000D01*
X138575000Y-69070000D02*
X126365000Y-81280000D01*
%TO.N,Net-(Pico1-GPIO11)*%
X151130000Y-48260000D02*
X151130000Y-52529010D01*
X146540000Y-63645000D02*
X126365000Y-83820000D01*
X146540000Y-57119010D02*
X146540000Y-63645000D01*
X151130000Y-52529010D02*
X146540000Y-57119010D01*
%TO.N,Net-(Pico1-GPIO16)*%
X137160000Y-91440000D02*
X135985000Y-92615000D01*
X135985000Y-92615000D02*
X112490000Y-92615000D01*
X112490000Y-92615000D02*
X108585000Y-96520000D01*
%TO.N,Net-(Pico1-GPIO17)*%
X112395000Y-90170000D02*
X108585000Y-93980000D01*
X133350000Y-90170000D02*
X112395000Y-90170000D01*
X137160000Y-86360000D02*
X133350000Y-90170000D01*
%TO.N,Net-(Q2-C)*%
X138430000Y-50800000D02*
X134620000Y-50800000D01*
%TO.N,Net-(Q3-C)*%
X145415000Y-53340000D02*
X144780000Y-53340000D01*
X149225000Y-49530000D02*
X145415000Y-53340000D01*
%TD*%
%TA.AperFunction,Conductor*%
%TO.N,+3V3*%
G36*
X162283538Y-35479685D02*
G01*
X162329293Y-35532489D01*
X162339237Y-35601647D01*
X162331060Y-35631453D01*
X162303126Y-35698889D01*
X162244317Y-35943848D01*
X162224551Y-36195000D01*
X162244317Y-36446151D01*
X162303126Y-36691110D01*
X162399533Y-36923859D01*
X162531160Y-37138653D01*
X162531161Y-37138656D01*
X162531164Y-37138659D01*
X162694776Y-37330224D01*
X162843066Y-37456875D01*
X162886343Y-37493838D01*
X162886346Y-37493839D01*
X163101140Y-37625466D01*
X163333889Y-37721873D01*
X163578852Y-37780683D01*
X163830000Y-37800449D01*
X164081148Y-37780683D01*
X164247406Y-37740768D01*
X164317187Y-37744259D01*
X164374005Y-37784922D01*
X164399818Y-37849849D01*
X164400352Y-37861324D01*
X164409662Y-101205874D01*
X164389987Y-101272916D01*
X164337190Y-101318679D01*
X164268033Y-101328632D01*
X164256716Y-101326466D01*
X164081152Y-101284318D01*
X164081148Y-101284317D01*
X163830000Y-101264551D01*
X163578848Y-101284317D01*
X163333889Y-101343126D01*
X163101140Y-101439533D01*
X162886346Y-101571160D01*
X162886343Y-101571161D01*
X162694776Y-101734776D01*
X162531161Y-101926343D01*
X162531160Y-101926346D01*
X162399533Y-102141140D01*
X162303126Y-102373889D01*
X162244317Y-102618848D01*
X162224551Y-102870000D01*
X162244317Y-103121151D01*
X162299779Y-103352167D01*
X162296288Y-103421950D01*
X162255624Y-103478767D01*
X162190698Y-103504580D01*
X162179489Y-103505114D01*
X120800000Y-103600000D01*
X120800000Y-104659651D01*
X120780315Y-104726690D01*
X120727511Y-104772445D01*
X120658353Y-104782389D01*
X120594797Y-104753364D01*
X120588319Y-104747332D01*
X118257199Y-102416212D01*
X118247376Y-102403950D01*
X118247155Y-102404134D01*
X118242182Y-102398122D01*
X118193172Y-102352099D01*
X118190373Y-102349386D01*
X118170873Y-102329885D01*
X118170867Y-102329880D01*
X118167682Y-102327409D01*
X118158830Y-102319848D01*
X118126978Y-102289938D01*
X118126976Y-102289936D01*
X118126973Y-102289935D01*
X118109425Y-102280288D01*
X118093159Y-102269604D01*
X118077328Y-102257324D01*
X118037245Y-102239978D01*
X118026759Y-102234841D01*
X117988490Y-102213803D01*
X117988488Y-102213802D01*
X117969089Y-102208822D01*
X117950677Y-102202518D01*
X117932294Y-102194562D01*
X117932288Y-102194560D01*
X117889156Y-102187729D01*
X117877718Y-102185361D01*
X117835416Y-102174500D01*
X117835415Y-102174500D01*
X117815380Y-102174500D01*
X117795982Y-102172973D01*
X117788558Y-102171797D01*
X117776201Y-102169840D01*
X117776200Y-102169840D01*
X117732721Y-102173950D01*
X117721052Y-102174500D01*
X113513751Y-102174500D01*
X113446712Y-102154815D01*
X113426070Y-102138181D01*
X109196478Y-97908588D01*
X109162993Y-97847265D01*
X109167977Y-97777573D01*
X109209849Y-97721640D01*
X109231748Y-97708528D01*
X109262830Y-97694035D01*
X109456401Y-97558495D01*
X109623495Y-97391401D01*
X109759035Y-97197830D01*
X109858903Y-96983663D01*
X109920063Y-96755408D01*
X109940659Y-96520000D01*
X109920536Y-96290000D01*
X113579341Y-96290000D01*
X113599936Y-96525403D01*
X113599938Y-96525413D01*
X113661094Y-96753655D01*
X113661096Y-96753659D01*
X113661097Y-96753663D01*
X113745499Y-96934663D01*
X113760965Y-96967830D01*
X113760967Y-96967834D01*
X113869281Y-97122521D01*
X113896505Y-97161401D01*
X114063599Y-97328495D01*
X114153237Y-97391260D01*
X114257165Y-97464032D01*
X114257167Y-97464033D01*
X114257170Y-97464035D01*
X114471337Y-97563903D01*
X114699592Y-97625063D01*
X114876034Y-97640500D01*
X114934999Y-97645659D01*
X114935000Y-97645659D01*
X114935001Y-97645659D01*
X114993966Y-97640500D01*
X115170408Y-97625063D01*
X115398663Y-97563903D01*
X115612830Y-97464035D01*
X115806401Y-97328495D01*
X115928329Y-97206566D01*
X115989648Y-97173084D01*
X116059340Y-97178068D01*
X116115274Y-97219939D01*
X116132189Y-97250917D01*
X116181202Y-97382328D01*
X116181206Y-97382335D01*
X116267452Y-97497544D01*
X116267455Y-97497547D01*
X116382664Y-97583793D01*
X116382671Y-97583797D01*
X116517517Y-97634091D01*
X116517516Y-97634091D01*
X116524444Y-97634835D01*
X116577127Y-97640500D01*
X118372872Y-97640499D01*
X118432483Y-97634091D01*
X118567331Y-97583796D01*
X118682546Y-97497546D01*
X118768796Y-97382331D01*
X118817810Y-97250916D01*
X118859681Y-97194984D01*
X118925145Y-97170566D01*
X118993418Y-97185417D01*
X119021673Y-97206569D01*
X119143599Y-97328495D01*
X119233237Y-97391260D01*
X119337165Y-97464032D01*
X119337167Y-97464033D01*
X119337170Y-97464035D01*
X119551337Y-97563903D01*
X119779592Y-97625063D01*
X119956034Y-97640500D01*
X120014999Y-97645659D01*
X120015000Y-97645659D01*
X120015001Y-97645659D01*
X120073966Y-97640500D01*
X120250408Y-97625063D01*
X120478663Y-97563903D01*
X120692830Y-97464035D01*
X120886401Y-97328495D01*
X121053495Y-97161401D01*
X121189035Y-96967830D01*
X121288903Y-96753663D01*
X121350063Y-96525408D01*
X121370659Y-96290000D01*
X121350063Y-96054592D01*
X121288903Y-95826337D01*
X121189035Y-95612171D01*
X121097540Y-95481501D01*
X121053494Y-95418597D01*
X120886402Y-95251506D01*
X120886395Y-95251501D01*
X120884251Y-95250000D01*
X120809518Y-95197671D01*
X120692834Y-95115967D01*
X120692830Y-95115965D01*
X120692828Y-95115964D01*
X120478663Y-95016097D01*
X120478659Y-95016096D01*
X120478655Y-95016094D01*
X120250413Y-94954938D01*
X120250403Y-94954936D01*
X120015001Y-94934341D01*
X120014999Y-94934341D01*
X119779596Y-94954936D01*
X119779586Y-94954938D01*
X119551344Y-95016094D01*
X119551335Y-95016098D01*
X119337171Y-95115964D01*
X119337169Y-95115965D01*
X119143600Y-95251503D01*
X119021673Y-95373430D01*
X118960350Y-95406914D01*
X118890658Y-95401930D01*
X118834725Y-95360058D01*
X118817810Y-95329081D01*
X118768797Y-95197671D01*
X118768793Y-95197664D01*
X118682547Y-95082455D01*
X118682544Y-95082452D01*
X118567335Y-94996206D01*
X118567328Y-94996202D01*
X118432482Y-94945908D01*
X118432483Y-94945908D01*
X118372883Y-94939501D01*
X118372881Y-94939500D01*
X118372873Y-94939500D01*
X118372864Y-94939500D01*
X116577129Y-94939500D01*
X116577123Y-94939501D01*
X116517516Y-94945908D01*
X116382671Y-94996202D01*
X116382664Y-94996206D01*
X116267455Y-95082452D01*
X116267452Y-95082455D01*
X116181206Y-95197664D01*
X116181203Y-95197669D01*
X116132189Y-95329083D01*
X116090317Y-95385016D01*
X116024853Y-95409433D01*
X115956580Y-95394581D01*
X115928326Y-95373430D01*
X115806402Y-95251506D01*
X115806395Y-95251501D01*
X115804251Y-95250000D01*
X115729518Y-95197671D01*
X115612834Y-95115967D01*
X115612830Y-95115965D01*
X115612828Y-95115964D01*
X115398663Y-95016097D01*
X115398659Y-95016096D01*
X115398655Y-95016094D01*
X115170413Y-94954938D01*
X115170403Y-94954936D01*
X114935001Y-94934341D01*
X114934999Y-94934341D01*
X114699596Y-94954936D01*
X114699586Y-94954938D01*
X114471344Y-95016094D01*
X114471335Y-95016098D01*
X114257171Y-95115964D01*
X114257169Y-95115965D01*
X114063597Y-95251505D01*
X113896505Y-95418597D01*
X113760965Y-95612169D01*
X113760964Y-95612171D01*
X113661098Y-95826335D01*
X113661094Y-95826344D01*
X113599938Y-96054586D01*
X113599936Y-96054596D01*
X113579341Y-96289999D01*
X113579341Y-96290000D01*
X109920536Y-96290000D01*
X109920063Y-96284592D01*
X109893143Y-96184125D01*
X109894806Y-96114276D01*
X109925235Y-96064353D01*
X112712772Y-93276819D01*
X112774095Y-93243334D01*
X112800453Y-93240500D01*
X125025081Y-93240500D01*
X125092120Y-93260185D01*
X125137875Y-93312989D01*
X125147819Y-93382147D01*
X125137463Y-93416905D01*
X125091098Y-93516335D01*
X125091094Y-93516344D01*
X125029938Y-93744586D01*
X125029936Y-93744596D01*
X125009341Y-93979999D01*
X125009341Y-93980000D01*
X125029936Y-94215403D01*
X125029938Y-94215413D01*
X125091094Y-94443655D01*
X125091096Y-94443659D01*
X125091097Y-94443663D01*
X125190965Y-94657830D01*
X125190967Y-94657834D01*
X125326501Y-94851395D01*
X125326506Y-94851402D01*
X125493597Y-95018493D01*
X125493603Y-95018498D01*
X125679158Y-95148425D01*
X125722783Y-95203002D01*
X125729977Y-95272500D01*
X125698454Y-95334855D01*
X125679158Y-95351575D01*
X125493597Y-95481505D01*
X125326505Y-95648597D01*
X125190965Y-95842169D01*
X125190964Y-95842171D01*
X125091098Y-96056335D01*
X125091094Y-96056344D01*
X125029938Y-96284586D01*
X125029936Y-96284596D01*
X125009341Y-96519999D01*
X125009341Y-96520000D01*
X125029936Y-96755403D01*
X125029938Y-96755413D01*
X125091094Y-96983655D01*
X125091096Y-96983659D01*
X125091097Y-96983663D01*
X125186322Y-97187873D01*
X125190965Y-97197830D01*
X125190967Y-97197834D01*
X125260228Y-97296748D01*
X125326505Y-97391401D01*
X125493599Y-97558495D01*
X125529733Y-97583796D01*
X125687165Y-97694032D01*
X125687167Y-97694033D01*
X125687170Y-97694035D01*
X125901337Y-97793903D01*
X126129592Y-97855063D01*
X126317918Y-97871539D01*
X126364999Y-97875659D01*
X126365000Y-97875659D01*
X126365001Y-97875659D01*
X126404234Y-97872226D01*
X126600408Y-97855063D01*
X126828663Y-97793903D01*
X127042830Y-97694035D01*
X127236401Y-97558495D01*
X127403495Y-97391401D01*
X127539035Y-97197830D01*
X127638903Y-96983663D01*
X127700063Y-96755408D01*
X127720659Y-96520000D01*
X127700063Y-96284592D01*
X127638903Y-96056337D01*
X127539035Y-95842171D01*
X127403495Y-95648599D01*
X127403494Y-95648597D01*
X127236402Y-95481506D01*
X127236396Y-95481501D01*
X127050842Y-95351575D01*
X127007217Y-95296998D01*
X127000023Y-95227500D01*
X127031546Y-95165145D01*
X127050842Y-95148425D01*
X127097197Y-95115967D01*
X127236401Y-95018495D01*
X127403495Y-94851401D01*
X127539035Y-94657830D01*
X127638903Y-94443663D01*
X127700063Y-94215408D01*
X127720659Y-93980000D01*
X127700063Y-93744592D01*
X127638903Y-93516337D01*
X127592537Y-93416905D01*
X127582045Y-93347827D01*
X127610565Y-93284043D01*
X127669041Y-93245804D01*
X127704919Y-93240500D01*
X135820081Y-93240500D01*
X135887120Y-93260185D01*
X135932875Y-93312989D01*
X135942819Y-93382147D01*
X135932463Y-93416905D01*
X135886098Y-93516335D01*
X135886094Y-93516344D01*
X135824938Y-93744586D01*
X135824936Y-93744596D01*
X135804341Y-93979999D01*
X135804341Y-93980000D01*
X135824936Y-94215403D01*
X135824938Y-94215413D01*
X135886094Y-94443655D01*
X135886096Y-94443659D01*
X135886097Y-94443663D01*
X135985965Y-94657830D01*
X135985967Y-94657834D01*
X136121501Y-94851395D01*
X136121506Y-94851402D01*
X136288597Y-95018493D01*
X136288603Y-95018498D01*
X136474158Y-95148425D01*
X136517783Y-95203002D01*
X136524977Y-95272500D01*
X136493454Y-95334855D01*
X136474158Y-95351575D01*
X136288597Y-95481505D01*
X136121505Y-95648597D01*
X135985965Y-95842169D01*
X135985964Y-95842171D01*
X135886098Y-96056335D01*
X135886094Y-96056344D01*
X135824938Y-96284586D01*
X135824936Y-96284596D01*
X135804341Y-96519999D01*
X135804341Y-96520000D01*
X135824936Y-96755403D01*
X135824938Y-96755413D01*
X135886094Y-96983655D01*
X135886096Y-96983659D01*
X135886097Y-96983663D01*
X135981322Y-97187873D01*
X135985965Y-97197830D01*
X135985967Y-97197834D01*
X136121501Y-97391395D01*
X136121506Y-97391402D01*
X136288597Y-97558493D01*
X136288603Y-97558498D01*
X136324734Y-97583797D01*
X136415178Y-97647127D01*
X136474594Y-97688730D01*
X136518219Y-97743307D01*
X136525413Y-97812805D01*
X136493890Y-97875160D01*
X136474595Y-97891880D01*
X136288922Y-98021890D01*
X136288920Y-98021891D01*
X136121891Y-98188920D01*
X136121886Y-98188926D01*
X135986400Y-98382420D01*
X135986399Y-98382422D01*
X135886570Y-98596507D01*
X135886567Y-98596513D01*
X135829364Y-98809999D01*
X135829364Y-98810000D01*
X136714428Y-98810000D01*
X136691318Y-98845960D01*
X136650000Y-98986673D01*
X136650000Y-99133327D01*
X136691318Y-99274040D01*
X136714428Y-99310000D01*
X135829364Y-99310000D01*
X135886567Y-99523486D01*
X135886570Y-99523492D01*
X135986399Y-99737578D01*
X136121894Y-99931082D01*
X136288917Y-100098105D01*
X136482421Y-100233600D01*
X136696507Y-100333429D01*
X136696516Y-100333433D01*
X136910000Y-100390634D01*
X136910000Y-99506494D01*
X137014839Y-99554373D01*
X137123527Y-99570000D01*
X137196473Y-99570000D01*
X137305161Y-99554373D01*
X137410000Y-99506494D01*
X137410000Y-100390633D01*
X137623483Y-100333433D01*
X137623492Y-100333429D01*
X137837578Y-100233600D01*
X138031082Y-100098105D01*
X138198105Y-99931082D01*
X138333600Y-99737578D01*
X138433429Y-99523492D01*
X138433432Y-99523486D01*
X138490636Y-99310000D01*
X137605572Y-99310000D01*
X137628682Y-99274040D01*
X137670000Y-99133327D01*
X137670000Y-98986673D01*
X137628682Y-98845960D01*
X137605572Y-98810000D01*
X138490636Y-98810000D01*
X138490635Y-98809999D01*
X138433432Y-98596513D01*
X138433429Y-98596507D01*
X138333600Y-98382422D01*
X138333599Y-98382420D01*
X138198113Y-98188926D01*
X138198108Y-98188920D01*
X138031078Y-98021890D01*
X137845405Y-97891879D01*
X137801780Y-97837302D01*
X137794588Y-97767804D01*
X137826110Y-97705449D01*
X137845406Y-97688730D01*
X137892828Y-97655525D01*
X138031401Y-97558495D01*
X138198495Y-97391401D01*
X138334035Y-97197830D01*
X138433903Y-96983663D01*
X138495063Y-96755408D01*
X138515659Y-96520000D01*
X138495063Y-96284592D01*
X138433903Y-96056337D01*
X138334035Y-95842171D01*
X138198495Y-95648599D01*
X138198494Y-95648597D01*
X138031402Y-95481506D01*
X138031396Y-95481501D01*
X137845842Y-95351575D01*
X137802217Y-95296998D01*
X137795023Y-95227500D01*
X137826546Y-95165145D01*
X137845842Y-95148425D01*
X137892197Y-95115967D01*
X138031401Y-95018495D01*
X138198495Y-94851401D01*
X138334035Y-94657830D01*
X138433903Y-94443663D01*
X138495063Y-94215408D01*
X138515659Y-93980000D01*
X138495063Y-93744592D01*
X138433903Y-93516337D01*
X138334035Y-93302171D01*
X138316284Y-93276819D01*
X138198494Y-93108597D01*
X138031402Y-92941506D01*
X138031396Y-92941501D01*
X137845842Y-92811575D01*
X137802217Y-92756998D01*
X137795023Y-92687500D01*
X137826546Y-92625145D01*
X137845842Y-92608425D01*
X137868026Y-92592891D01*
X138031401Y-92478495D01*
X138198495Y-92311401D01*
X138334035Y-92117830D01*
X138433903Y-91903663D01*
X138495063Y-91675408D01*
X138515659Y-91440000D01*
X138495063Y-91204592D01*
X138433903Y-90976337D01*
X138334035Y-90762171D01*
X138324546Y-90748618D01*
X138198494Y-90568597D01*
X138031402Y-90401506D01*
X138031396Y-90401501D01*
X137845842Y-90271575D01*
X137802217Y-90216998D01*
X137795023Y-90147500D01*
X137826546Y-90085145D01*
X137845842Y-90068425D01*
X137958054Y-89989853D01*
X138031401Y-89938495D01*
X138198495Y-89771401D01*
X138334035Y-89577830D01*
X138433903Y-89363663D01*
X138495063Y-89135408D01*
X138515659Y-88900000D01*
X138495063Y-88664592D01*
X138433903Y-88436337D01*
X138334035Y-88222171D01*
X138198495Y-88028599D01*
X138198494Y-88028597D01*
X138031402Y-87861506D01*
X138031396Y-87861501D01*
X137845842Y-87731575D01*
X137802217Y-87676998D01*
X137795023Y-87607500D01*
X137826546Y-87545145D01*
X137845842Y-87528425D01*
X137868026Y-87512891D01*
X138031401Y-87398495D01*
X138198495Y-87231401D01*
X138334035Y-87037830D01*
X138433903Y-86823663D01*
X138495063Y-86595408D01*
X138515659Y-86360000D01*
X138495063Y-86124592D01*
X138433903Y-85896337D01*
X138334035Y-85682171D01*
X138198495Y-85488599D01*
X138198494Y-85488597D01*
X138031402Y-85321506D01*
X138031396Y-85321501D01*
X137845842Y-85191575D01*
X137802217Y-85136998D01*
X137795023Y-85067500D01*
X137826546Y-85005145D01*
X137845842Y-84988425D01*
X137868026Y-84972891D01*
X138031401Y-84858495D01*
X138198495Y-84691401D01*
X138334035Y-84497830D01*
X138433903Y-84283663D01*
X138495063Y-84055408D01*
X138515659Y-83820000D01*
X138495063Y-83584592D01*
X138433903Y-83356337D01*
X138334035Y-83142171D01*
X138198495Y-82948599D01*
X138198494Y-82948597D01*
X138031402Y-82781506D01*
X138031396Y-82781501D01*
X137845842Y-82651575D01*
X137802217Y-82596998D01*
X137795023Y-82527500D01*
X137826546Y-82465145D01*
X137845842Y-82448425D01*
X137868026Y-82432891D01*
X138031401Y-82318495D01*
X138198495Y-82151401D01*
X138334035Y-81957830D01*
X138433903Y-81743663D01*
X138495063Y-81515408D01*
X138515659Y-81280000D01*
X138495063Y-81044592D01*
X138433903Y-80816337D01*
X138334035Y-80602171D01*
X138327217Y-80592433D01*
X138198494Y-80408597D01*
X138031402Y-80241506D01*
X138031396Y-80241501D01*
X137845842Y-80111575D01*
X137802217Y-80056998D01*
X137795023Y-79987500D01*
X137826546Y-79925145D01*
X137845842Y-79908425D01*
X137868026Y-79892891D01*
X138031401Y-79778495D01*
X138198495Y-79611401D01*
X138334035Y-79417830D01*
X138433903Y-79203663D01*
X138495063Y-78975408D01*
X138515659Y-78740000D01*
X138495063Y-78504592D01*
X138433903Y-78276337D01*
X138334035Y-78062171D01*
X138298700Y-78011706D01*
X138198494Y-77868597D01*
X138031402Y-77701506D01*
X138031395Y-77701501D01*
X137837834Y-77565967D01*
X137837830Y-77565965D01*
X137837828Y-77565964D01*
X137623663Y-77466097D01*
X137623659Y-77466096D01*
X137623655Y-77466094D01*
X137395413Y-77404938D01*
X137395403Y-77404936D01*
X137160001Y-77384341D01*
X137159999Y-77384341D01*
X136924596Y-77404936D01*
X136924586Y-77404938D01*
X136696344Y-77466094D01*
X136696335Y-77466098D01*
X136482171Y-77565964D01*
X136482169Y-77565965D01*
X136288597Y-77701505D01*
X136121505Y-77868597D01*
X135985965Y-78062169D01*
X135985964Y-78062171D01*
X135886098Y-78276335D01*
X135886094Y-78276344D01*
X135824938Y-78504586D01*
X135824936Y-78504596D01*
X135804341Y-78739999D01*
X135804341Y-78740000D01*
X135824936Y-78975403D01*
X135824938Y-78975413D01*
X135886094Y-79203655D01*
X135886096Y-79203659D01*
X135886097Y-79203663D01*
X135907938Y-79250500D01*
X135985965Y-79417830D01*
X135985967Y-79417834D01*
X136121501Y-79611395D01*
X136121506Y-79611402D01*
X136288597Y-79778493D01*
X136288603Y-79778498D01*
X136474158Y-79908425D01*
X136517783Y-79963002D01*
X136524977Y-80032500D01*
X136493454Y-80094855D01*
X136474158Y-80111575D01*
X136288597Y-80241505D01*
X136121505Y-80408597D01*
X135985965Y-80602169D01*
X135985964Y-80602171D01*
X135886098Y-80816335D01*
X135886094Y-80816344D01*
X135824938Y-81044586D01*
X135824936Y-81044596D01*
X135804341Y-81279999D01*
X135804341Y-81280000D01*
X135824936Y-81515403D01*
X135824938Y-81515413D01*
X135886094Y-81743655D01*
X135886096Y-81743659D01*
X135886097Y-81743663D01*
X135985965Y-81957830D01*
X135985967Y-81957834D01*
X136121501Y-82151395D01*
X136121506Y-82151402D01*
X136288597Y-82318493D01*
X136288603Y-82318498D01*
X136474158Y-82448425D01*
X136517783Y-82503002D01*
X136524977Y-82572500D01*
X136493454Y-82634855D01*
X136474158Y-82651575D01*
X136288597Y-82781505D01*
X136121505Y-82948597D01*
X135985965Y-83142169D01*
X135985964Y-83142171D01*
X135886098Y-83356335D01*
X135886094Y-83356344D01*
X135824938Y-83584586D01*
X135824936Y-83584596D01*
X135804341Y-83819999D01*
X135804341Y-83820000D01*
X135824936Y-84055403D01*
X135824938Y-84055413D01*
X135886094Y-84283655D01*
X135886096Y-84283659D01*
X135886097Y-84283663D01*
X135985965Y-84497830D01*
X135985967Y-84497834D01*
X136121501Y-84691395D01*
X136121506Y-84691402D01*
X136288597Y-84858493D01*
X136288603Y-84858498D01*
X136474158Y-84988425D01*
X136517783Y-85043002D01*
X136524977Y-85112500D01*
X136493454Y-85174855D01*
X136474158Y-85191575D01*
X136288597Y-85321505D01*
X136121505Y-85488597D01*
X135985965Y-85682169D01*
X135985964Y-85682171D01*
X135886098Y-85896335D01*
X135886094Y-85896344D01*
X135824938Y-86124586D01*
X135824936Y-86124596D01*
X135804341Y-86359999D01*
X135804341Y-86360000D01*
X135824936Y-86595403D01*
X135824938Y-86595413D01*
X135851856Y-86695872D01*
X135850193Y-86765722D01*
X135819762Y-86815646D01*
X133127228Y-89508181D01*
X133065905Y-89541666D01*
X133039547Y-89544500D01*
X127749218Y-89544500D01*
X127682179Y-89524815D01*
X127636424Y-89472011D01*
X127626480Y-89402853D01*
X127636837Y-89368094D01*
X127638900Y-89363669D01*
X127638903Y-89363663D01*
X127700063Y-89135408D01*
X127720659Y-88900000D01*
X127700063Y-88664592D01*
X127638903Y-88436337D01*
X127539035Y-88222171D01*
X127403495Y-88028599D01*
X127403494Y-88028597D01*
X127236402Y-87861506D01*
X127236396Y-87861501D01*
X127050842Y-87731575D01*
X127007217Y-87676998D01*
X127000023Y-87607500D01*
X127031546Y-87545145D01*
X127050842Y-87528425D01*
X127073026Y-87512891D01*
X127236401Y-87398495D01*
X127403495Y-87231401D01*
X127539035Y-87037830D01*
X127638903Y-86823663D01*
X127700063Y-86595408D01*
X127720659Y-86360000D01*
X127700063Y-86124592D01*
X127638903Y-85896337D01*
X127539035Y-85682171D01*
X127403495Y-85488599D01*
X127403494Y-85488597D01*
X127236402Y-85321506D01*
X127236396Y-85321501D01*
X127050842Y-85191575D01*
X127007217Y-85136998D01*
X127000023Y-85067500D01*
X127031546Y-85005145D01*
X127050842Y-84988425D01*
X127073026Y-84972891D01*
X127236401Y-84858495D01*
X127403495Y-84691401D01*
X127539035Y-84497830D01*
X127638903Y-84283663D01*
X127700063Y-84055408D01*
X127720659Y-83820000D01*
X127700063Y-83584592D01*
X127673143Y-83484125D01*
X127674806Y-83414276D01*
X127705235Y-83364353D01*
X146923786Y-64145802D01*
X146936048Y-64135980D01*
X146935865Y-64135759D01*
X146941868Y-64130791D01*
X146941877Y-64130786D01*
X146987934Y-64081739D01*
X146990582Y-64079006D01*
X147010120Y-64059470D01*
X147012570Y-64056310D01*
X147020154Y-64047429D01*
X147050062Y-64015582D01*
X147059714Y-63998023D01*
X147070389Y-63981772D01*
X147082674Y-63965936D01*
X147100030Y-63925825D01*
X147105161Y-63915354D01*
X147126194Y-63877098D01*
X147126194Y-63877097D01*
X147126197Y-63877092D01*
X147131180Y-63857680D01*
X147137477Y-63839291D01*
X147145438Y-63820895D01*
X147152270Y-63777748D01*
X147154639Y-63766316D01*
X147162574Y-63735413D01*
X147165500Y-63724019D01*
X147165500Y-63703983D01*
X147167027Y-63684582D01*
X147170160Y-63664804D01*
X147166050Y-63621324D01*
X147165500Y-63609655D01*
X147165500Y-57429462D01*
X147185185Y-57362423D01*
X147201819Y-57341781D01*
X149341431Y-55202169D01*
X151513788Y-53029811D01*
X151526042Y-53019996D01*
X151525859Y-53019774D01*
X151531868Y-53014801D01*
X151531877Y-53014796D01*
X151577949Y-52965732D01*
X151580566Y-52963033D01*
X151600120Y-52943481D01*
X151602576Y-52940313D01*
X151610156Y-52931437D01*
X151640062Y-52899592D01*
X151649713Y-52882034D01*
X151660396Y-52865771D01*
X151672673Y-52849946D01*
X151690021Y-52809854D01*
X151695151Y-52799381D01*
X151716197Y-52761102D01*
X151721180Y-52741690D01*
X151727481Y-52723290D01*
X151735437Y-52704906D01*
X151742270Y-52661758D01*
X151744633Y-52650348D01*
X151755500Y-52608029D01*
X151755500Y-52587993D01*
X151757027Y-52568592D01*
X151760160Y-52548814D01*
X151756050Y-52505334D01*
X151755500Y-52493665D01*
X151755500Y-52070000D01*
X154866186Y-52070000D01*
X154886601Y-52303346D01*
X154886603Y-52303356D01*
X154947225Y-52529603D01*
X154947227Y-52529607D01*
X154947228Y-52529611D01*
X155046223Y-52741907D01*
X155180579Y-52933787D01*
X155346213Y-53099421D01*
X155538093Y-53233777D01*
X155750389Y-53332772D01*
X155750395Y-53332773D01*
X155750396Y-53332774D01*
X155777357Y-53339998D01*
X155976649Y-53393398D01*
X156096441Y-53403878D01*
X156161509Y-53429330D01*
X156202488Y-53485921D01*
X156206366Y-53555683D01*
X156205408Y-53559499D01*
X156156603Y-53741643D01*
X156156601Y-53741653D01*
X156136186Y-53974999D01*
X156136186Y-53975000D01*
X156156601Y-54208346D01*
X156156603Y-54208356D01*
X156217225Y-54434603D01*
X156217227Y-54434607D01*
X156217228Y-54434611D01*
X156316223Y-54646907D01*
X156450579Y-54838787D01*
X156616213Y-55004421D01*
X156808093Y-55138777D01*
X157020389Y-55237772D01*
X157246649Y-55298398D01*
X157433329Y-55314730D01*
X157479999Y-55318814D01*
X157480000Y-55318814D01*
X157480001Y-55318814D01*
X157518891Y-55315411D01*
X157713351Y-55298398D01*
X157939611Y-55237772D01*
X158151907Y-55138777D01*
X158343787Y-55004421D01*
X158509421Y-54838787D01*
X158643777Y-54646907D01*
X158742772Y-54434611D01*
X158803398Y-54208351D01*
X158823814Y-53975000D01*
X158823181Y-53967770D01*
X158809395Y-53810194D01*
X158803398Y-53741649D01*
X158754591Y-53559498D01*
X158756254Y-53489650D01*
X158795416Y-53431787D01*
X158859645Y-53404283D01*
X158863517Y-53403882D01*
X158983351Y-53393398D01*
X159209611Y-53332772D01*
X159421907Y-53233777D01*
X159613787Y-53099421D01*
X159779421Y-52933787D01*
X159913777Y-52741907D01*
X160012772Y-52529611D01*
X160073398Y-52303351D01*
X160093814Y-52070000D01*
X160093181Y-52062770D01*
X160083780Y-51955318D01*
X160073398Y-51836649D01*
X160020000Y-51637364D01*
X160012774Y-51610396D01*
X160012773Y-51610395D01*
X160012772Y-51610389D01*
X159913777Y-51398093D01*
X159779421Y-51206213D01*
X159613787Y-51040579D01*
X159428375Y-50910752D01*
X159384751Y-50856176D01*
X159375500Y-50809178D01*
X159375500Y-44115451D01*
X159395185Y-44048412D01*
X159411814Y-44027775D01*
X160627771Y-42811817D01*
X160689094Y-42778333D01*
X160715452Y-42775499D01*
X162327871Y-42775499D01*
X162327872Y-42775499D01*
X162387483Y-42769091D01*
X162522331Y-42718796D01*
X162637546Y-42632546D01*
X162723796Y-42517331D01*
X162774091Y-42382483D01*
X162780500Y-42322873D01*
X162780499Y-40227128D01*
X162774091Y-40167517D01*
X162762464Y-40136344D01*
X162723797Y-40032671D01*
X162723793Y-40032664D01*
X162637547Y-39917455D01*
X162637544Y-39917452D01*
X162522335Y-39831206D01*
X162522328Y-39831202D01*
X162387482Y-39780908D01*
X162387483Y-39780908D01*
X162327883Y-39774501D01*
X162327881Y-39774500D01*
X162327873Y-39774500D01*
X162327864Y-39774500D01*
X160232129Y-39774500D01*
X160232123Y-39774501D01*
X160172516Y-39780908D01*
X160037671Y-39831202D01*
X160037664Y-39831206D01*
X159922455Y-39917452D01*
X159922452Y-39917455D01*
X159836206Y-40032664D01*
X159836202Y-40032671D01*
X159785908Y-40167517D01*
X159783114Y-40193511D01*
X159779501Y-40227123D01*
X159779500Y-40227135D01*
X159779500Y-41839546D01*
X159759815Y-41906585D01*
X159743181Y-41927227D01*
X158366208Y-43304199D01*
X158353951Y-43314020D01*
X158354134Y-43314241D01*
X158348122Y-43319214D01*
X158302098Y-43368223D01*
X158299391Y-43371016D01*
X158279889Y-43390517D01*
X158279875Y-43390534D01*
X158277407Y-43393715D01*
X158269843Y-43402570D01*
X158239937Y-43434418D01*
X158239936Y-43434420D01*
X158230284Y-43451976D01*
X158219610Y-43468226D01*
X158207329Y-43484061D01*
X158207324Y-43484068D01*
X158189975Y-43524158D01*
X158184838Y-43534644D01*
X158163803Y-43572906D01*
X158158822Y-43592307D01*
X158152521Y-43610710D01*
X158144562Y-43629102D01*
X158144561Y-43629105D01*
X158137728Y-43672243D01*
X158135360Y-43683674D01*
X158124501Y-43725971D01*
X158124500Y-43725982D01*
X158124500Y-43746016D01*
X158122973Y-43765415D01*
X158119840Y-43785194D01*
X158119840Y-43785195D01*
X158123950Y-43828674D01*
X158124500Y-43840343D01*
X158124500Y-50809178D01*
X158104815Y-50876217D01*
X158071625Y-50910751D01*
X157886213Y-51040579D01*
X157886211Y-51040580D01*
X157886208Y-51040583D01*
X157720583Y-51206208D01*
X157720580Y-51206211D01*
X157720579Y-51206213D01*
X157586223Y-51398093D01*
X157583118Y-51402528D01*
X157581680Y-51401521D01*
X157536810Y-51444297D01*
X157468202Y-51457513D01*
X157403340Y-51431540D01*
X157377702Y-51401953D01*
X157376882Y-51402528D01*
X157373777Y-51398093D01*
X157239421Y-51206213D01*
X157073787Y-51040579D01*
X156881907Y-50906223D01*
X156669611Y-50807228D01*
X156669607Y-50807227D01*
X156669603Y-50807225D01*
X156443356Y-50746603D01*
X156443346Y-50746601D01*
X156210001Y-50726186D01*
X156209999Y-50726186D01*
X155976653Y-50746601D01*
X155976643Y-50746603D01*
X155750396Y-50807225D01*
X155750389Y-50807227D01*
X155750389Y-50807228D01*
X155538093Y-50906223D01*
X155346213Y-51040579D01*
X155346211Y-51040580D01*
X155346208Y-51040583D01*
X155180583Y-51206208D01*
X155180580Y-51206211D01*
X155180579Y-51206213D01*
X155046223Y-51398093D01*
X154974036Y-51552900D01*
X154947229Y-51610387D01*
X154947225Y-51610396D01*
X154886603Y-51836643D01*
X154886601Y-51836653D01*
X154866186Y-52069999D01*
X154866186Y-52070000D01*
X151755500Y-52070000D01*
X151755500Y-49520821D01*
X151775185Y-49453782D01*
X151808372Y-49419250D01*
X151993787Y-49289421D01*
X152159421Y-49123787D01*
X152293777Y-48931907D01*
X152392772Y-48719611D01*
X152453398Y-48493351D01*
X152473814Y-48260000D01*
X152453398Y-48026649D01*
X152392772Y-47800389D01*
X152293777Y-47588093D01*
X152159421Y-47396213D01*
X151993787Y-47230579D01*
X151801907Y-47096223D01*
X151589611Y-46997228D01*
X151589607Y-46997227D01*
X151589603Y-46997225D01*
X151363356Y-46936603D01*
X151363346Y-46936601D01*
X151130001Y-46916186D01*
X151129999Y-46916186D01*
X150896653Y-46936601D01*
X150896643Y-46936603D01*
X150714009Y-46985539D01*
X150644159Y-46983876D01*
X150586297Y-46944713D01*
X150558793Y-46880484D01*
X150558388Y-46876571D01*
X150547904Y-46756741D01*
X150547902Y-46756731D01*
X150487302Y-46530567D01*
X150487298Y-46530558D01*
X150388342Y-46318345D01*
X150388341Y-46318343D01*
X150331453Y-46237099D01*
X150331453Y-46237098D01*
X149628547Y-46940004D01*
X149616327Y-46862850D01*
X149557883Y-46748146D01*
X149466854Y-46657117D01*
X149352150Y-46598673D01*
X149274994Y-46586452D01*
X149977900Y-45883546D01*
X149977899Y-45883545D01*
X149896656Y-45826658D01*
X149896654Y-45826657D01*
X149684441Y-45727701D01*
X149684432Y-45727697D01*
X149458268Y-45667097D01*
X149458258Y-45667095D01*
X149225002Y-45646688D01*
X149224998Y-45646688D01*
X148991741Y-45667095D01*
X148991731Y-45667097D01*
X148765567Y-45727697D01*
X148765558Y-45727701D01*
X148553341Y-45826659D01*
X148472099Y-45883544D01*
X148472098Y-45883545D01*
X149175006Y-46586452D01*
X149097850Y-46598673D01*
X148983146Y-46657117D01*
X148892117Y-46748146D01*
X148833673Y-46862850D01*
X148821452Y-46940005D01*
X148118545Y-46237098D01*
X148118544Y-46237099D01*
X148061659Y-46318341D01*
X147962701Y-46530558D01*
X147962697Y-46530567D01*
X147902097Y-46756731D01*
X147902095Y-46756741D01*
X147881688Y-46989998D01*
X147881688Y-46990001D01*
X147902095Y-47223258D01*
X147902097Y-47223268D01*
X147962697Y-47449432D01*
X147962701Y-47449441D01*
X148061657Y-47661654D01*
X148061658Y-47661656D01*
X148118545Y-47742899D01*
X148118546Y-47742900D01*
X148821452Y-47039993D01*
X148833673Y-47117150D01*
X148892117Y-47231854D01*
X148983146Y-47322883D01*
X149097850Y-47381327D01*
X149175005Y-47393547D01*
X148472098Y-48096453D01*
X148557779Y-48156447D01*
X148556817Y-48157820D01*
X148599786Y-48202872D01*
X148613019Y-48271477D01*
X148587061Y-48336346D01*
X148557017Y-48362388D01*
X148557528Y-48363118D01*
X148553094Y-48366222D01*
X148553093Y-48366223D01*
X148361213Y-48500579D01*
X148361211Y-48500580D01*
X148361208Y-48500583D01*
X148195583Y-48666208D01*
X148195580Y-48666211D01*
X148195579Y-48666213D01*
X148061223Y-48858093D01*
X147975674Y-49041555D01*
X147962229Y-49070387D01*
X147962225Y-49070396D01*
X147901603Y-49296643D01*
X147901601Y-49296653D01*
X147881186Y-49529999D01*
X147881186Y-49530000D01*
X147901601Y-49763346D01*
X147901604Y-49763359D01*
X147926490Y-49856239D01*
X147924827Y-49926089D01*
X147894396Y-49976012D01*
X145640550Y-52229857D01*
X145579227Y-52263342D01*
X145509535Y-52258358D01*
X145481749Y-52243753D01*
X145432734Y-52209432D01*
X145418572Y-52202828D01*
X145226497Y-52113261D01*
X145226488Y-52113258D01*
X145006697Y-52054366D01*
X145006693Y-52054365D01*
X145006692Y-52054365D01*
X145006691Y-52054364D01*
X145006686Y-52054364D01*
X144780002Y-52034532D01*
X144779998Y-52034532D01*
X144553313Y-52054364D01*
X144553302Y-52054366D01*
X144333511Y-52113258D01*
X144333502Y-52113261D01*
X144127267Y-52209431D01*
X144127265Y-52209432D01*
X143940858Y-52339954D01*
X143779954Y-52500858D01*
X143649432Y-52687265D01*
X143649431Y-52687267D01*
X143553261Y-52893502D01*
X143553258Y-52893511D01*
X143494366Y-53113302D01*
X143494364Y-53113313D01*
X143474532Y-53339998D01*
X143474532Y-53340001D01*
X143494364Y-53566686D01*
X143494366Y-53566697D01*
X143553258Y-53786488D01*
X143553261Y-53786497D01*
X143649431Y-53992732D01*
X143649432Y-53992734D01*
X143779954Y-54179141D01*
X143940858Y-54340045D01*
X143940861Y-54340047D01*
X144127266Y-54470568D01*
X144333504Y-54566739D01*
X144553308Y-54625635D01*
X144715230Y-54639801D01*
X144779998Y-54645468D01*
X144780000Y-54645468D01*
X144780002Y-54645468D01*
X144836673Y-54640509D01*
X145006692Y-54625635D01*
X145226496Y-54566739D01*
X145432734Y-54470568D01*
X145619139Y-54340047D01*
X145780047Y-54179139D01*
X145910568Y-53992734D01*
X146006739Y-53786496D01*
X146008273Y-53780773D01*
X146042212Y-53654105D01*
X146054377Y-53608705D01*
X146086468Y-53553120D01*
X148778988Y-50860600D01*
X148840309Y-50827117D01*
X148898759Y-50828507D01*
X148991649Y-50853398D01*
X149204583Y-50872027D01*
X149224999Y-50873814D01*
X149225000Y-50873814D01*
X149225001Y-50873814D01*
X149263891Y-50870411D01*
X149458351Y-50853398D01*
X149684611Y-50792772D01*
X149896907Y-50693777D01*
X150088787Y-50559421D01*
X150254421Y-50393787D01*
X150278927Y-50358787D01*
X150333502Y-50315166D01*
X150403001Y-50307973D01*
X150465355Y-50339495D01*
X150500769Y-50399725D01*
X150504500Y-50429914D01*
X150504500Y-52218556D01*
X150484815Y-52285595D01*
X150468181Y-52306237D01*
X146156208Y-56618209D01*
X146143951Y-56628030D01*
X146144134Y-56628251D01*
X146138122Y-56633224D01*
X146092098Y-56682233D01*
X146089391Y-56685026D01*
X146069889Y-56704527D01*
X146069875Y-56704544D01*
X146067407Y-56707725D01*
X146059843Y-56716580D01*
X146029937Y-56748428D01*
X146029936Y-56748430D01*
X146020284Y-56765986D01*
X146009610Y-56782236D01*
X145997329Y-56798071D01*
X145997324Y-56798078D01*
X145979975Y-56838168D01*
X145974838Y-56848654D01*
X145953803Y-56886916D01*
X145948822Y-56906317D01*
X145942521Y-56924720D01*
X145934562Y-56943112D01*
X145934561Y-56943115D01*
X145927728Y-56986253D01*
X145925360Y-56997684D01*
X145914501Y-57039981D01*
X145914500Y-57039992D01*
X145914500Y-57060026D01*
X145912973Y-57079425D01*
X145909840Y-57099204D01*
X145909840Y-57099205D01*
X145913950Y-57142684D01*
X145914500Y-57154353D01*
X145914500Y-63334547D01*
X145894815Y-63401586D01*
X145878181Y-63422228D01*
X127932340Y-81368069D01*
X127871017Y-81401554D01*
X127801325Y-81396570D01*
X127745392Y-81354698D01*
X127720975Y-81289234D01*
X127720659Y-81280388D01*
X127720659Y-81279999D01*
X127700063Y-81044596D01*
X127700063Y-81044592D01*
X127673143Y-80944125D01*
X127674806Y-80874276D01*
X127705235Y-80824353D01*
X138958786Y-69570802D01*
X138971048Y-69560980D01*
X138970865Y-69560759D01*
X138976868Y-69555791D01*
X138976877Y-69555786D01*
X139022934Y-69506739D01*
X139025582Y-69504006D01*
X139045120Y-69484470D01*
X139047570Y-69481310D01*
X139055154Y-69472429D01*
X139085062Y-69440582D01*
X139094714Y-69423023D01*
X139105389Y-69406772D01*
X139117674Y-69390936D01*
X139135030Y-69350825D01*
X139140161Y-69340354D01*
X139161194Y-69302098D01*
X139161194Y-69302097D01*
X139161197Y-69302092D01*
X139166180Y-69282680D01*
X139172477Y-69264291D01*
X139180438Y-69245895D01*
X139187270Y-69202748D01*
X139189639Y-69191316D01*
X139200499Y-69149022D01*
X139200500Y-69149017D01*
X139200500Y-69128983D01*
X139202027Y-69109582D01*
X139205160Y-69089804D01*
X139201050Y-69046324D01*
X139200500Y-69034655D01*
X139200500Y-59359136D01*
X139220185Y-59292097D01*
X139272989Y-59246342D01*
X139342147Y-59236398D01*
X139356582Y-59239358D01*
X139473308Y-59270635D01*
X139635230Y-59284801D01*
X139699998Y-59290468D01*
X139700000Y-59290468D01*
X139700002Y-59290468D01*
X139756673Y-59285509D01*
X139926692Y-59270635D01*
X140146496Y-59211739D01*
X140352734Y-59115568D01*
X140539139Y-58985047D01*
X140700047Y-58824139D01*
X140830568Y-58637734D01*
X140926739Y-58431496D01*
X140985635Y-58211692D01*
X141000500Y-58041784D01*
X141000500Y-57528216D01*
X140985635Y-57358308D01*
X140926739Y-57138504D01*
X140830568Y-56932266D01*
X140701846Y-56748430D01*
X140700045Y-56745858D01*
X140539141Y-56584954D01*
X140352734Y-56454432D01*
X140352732Y-56454431D01*
X140146497Y-56358261D01*
X140146488Y-56358258D01*
X139926697Y-56299366D01*
X139926693Y-56299365D01*
X139926692Y-56299365D01*
X139926691Y-56299364D01*
X139926686Y-56299364D01*
X139700002Y-56279532D01*
X139699998Y-56279532D01*
X139473313Y-56299364D01*
X139473302Y-56299366D01*
X139356593Y-56330638D01*
X139286743Y-56328975D01*
X139228881Y-56289812D01*
X139201377Y-56225583D01*
X139200500Y-56210863D01*
X139200500Y-54140452D01*
X139220185Y-54073413D01*
X139236813Y-54052776D01*
X139253987Y-54035602D01*
X139315306Y-54002118D01*
X139373759Y-54003507D01*
X139466649Y-54028398D01*
X139682623Y-54047293D01*
X139699999Y-54048814D01*
X139700000Y-54048814D01*
X139700001Y-54048814D01*
X139738891Y-54045411D01*
X139933351Y-54028398D01*
X140159611Y-53967772D01*
X140371907Y-53868777D01*
X140563787Y-53734421D01*
X140729421Y-53568787D01*
X140863777Y-53376907D01*
X140962772Y-53164611D01*
X141023398Y-52938351D01*
X141043814Y-52705000D01*
X141023398Y-52471649D01*
X140978303Y-52303351D01*
X140974460Y-52289009D01*
X140976123Y-52219159D01*
X141015286Y-52161297D01*
X141079514Y-52133793D01*
X141083428Y-52133388D01*
X141203258Y-52122904D01*
X141203268Y-52122902D01*
X141429432Y-52062302D01*
X141429441Y-52062298D01*
X141641655Y-51963342D01*
X141722900Y-51906453D01*
X141019994Y-51203547D01*
X141097150Y-51191327D01*
X141211854Y-51132883D01*
X141302883Y-51041854D01*
X141361327Y-50927150D01*
X141373547Y-50849994D01*
X142076453Y-51552900D01*
X142133342Y-51471655D01*
X142232298Y-51259441D01*
X142232302Y-51259432D01*
X142292902Y-51033268D01*
X142292904Y-51033258D01*
X142313312Y-50800001D01*
X142313312Y-50799998D01*
X142292904Y-50566741D01*
X142292902Y-50566731D01*
X142232302Y-50340567D01*
X142232298Y-50340558D01*
X142133342Y-50128345D01*
X142133341Y-50128343D01*
X142076453Y-50047099D01*
X142076453Y-50047098D01*
X141373547Y-50750004D01*
X141361327Y-50672850D01*
X141302883Y-50558146D01*
X141211854Y-50467117D01*
X141097150Y-50408673D01*
X141019994Y-50396452D01*
X141722900Y-49693546D01*
X141722899Y-49693545D01*
X141641656Y-49636658D01*
X141641654Y-49636657D01*
X141429441Y-49537701D01*
X141429432Y-49537697D01*
X141203268Y-49477097D01*
X141203258Y-49477095D01*
X140970002Y-49456688D01*
X140969998Y-49456688D01*
X140736741Y-49477095D01*
X140736731Y-49477097D01*
X140510567Y-49537697D01*
X140510558Y-49537701D01*
X140298341Y-49636659D01*
X140217099Y-49693544D01*
X140217098Y-49693545D01*
X140920006Y-50396452D01*
X140842850Y-50408673D01*
X140728146Y-50467117D01*
X140637117Y-50558146D01*
X140578673Y-50672850D01*
X140566452Y-50750005D01*
X139863544Y-50047098D01*
X139803553Y-50132778D01*
X139802187Y-50131821D01*
X139757081Y-50174808D01*
X139688471Y-50188014D01*
X139623613Y-50162029D01*
X139597614Y-50132014D01*
X139596882Y-50132528D01*
X139589630Y-50122171D01*
X139459421Y-49936213D01*
X139293787Y-49770579D01*
X139101907Y-49636223D01*
X138889611Y-49537228D01*
X138889607Y-49537227D01*
X138889603Y-49537225D01*
X138663356Y-49476603D01*
X138663346Y-49476601D01*
X138430001Y-49456186D01*
X138429999Y-49456186D01*
X138196653Y-49476601D01*
X138196643Y-49476603D01*
X137970396Y-49537225D01*
X137970389Y-49537227D01*
X137970389Y-49537228D01*
X137758093Y-49636223D01*
X137566213Y-49770579D01*
X137566211Y-49770580D01*
X137566208Y-49770583D01*
X137400583Y-49936208D01*
X137400580Y-49936211D01*
X137400579Y-49936213D01*
X137270753Y-50121624D01*
X137216176Y-50165249D01*
X137169178Y-50174500D01*
X135834188Y-50174500D01*
X135767149Y-50154815D01*
X135732613Y-50121623D01*
X135620045Y-49960858D01*
X135459141Y-49799954D01*
X135272734Y-49669432D01*
X135272732Y-49669431D01*
X135066497Y-49573261D01*
X135066488Y-49573258D01*
X134846697Y-49514366D01*
X134846693Y-49514365D01*
X134846692Y-49514365D01*
X134846691Y-49514364D01*
X134846686Y-49514364D01*
X134620002Y-49494532D01*
X134619998Y-49494532D01*
X134393313Y-49514364D01*
X134393302Y-49514366D01*
X134173511Y-49573258D01*
X134173502Y-49573261D01*
X133967267Y-49669431D01*
X133967265Y-49669432D01*
X133780858Y-49799954D01*
X133619954Y-49960858D01*
X133489432Y-50147265D01*
X133489431Y-50147267D01*
X133393261Y-50353502D01*
X133393258Y-50353511D01*
X133334366Y-50573302D01*
X133334364Y-50573313D01*
X133314532Y-50799998D01*
X133314532Y-50800001D01*
X133334364Y-51026686D01*
X133334366Y-51026697D01*
X133393258Y-51246488D01*
X133393261Y-51246497D01*
X133489431Y-51452732D01*
X133489432Y-51452734D01*
X133619954Y-51639141D01*
X133780858Y-51800045D01*
X133792202Y-51807988D01*
X133967266Y-51930568D01*
X134173504Y-52026739D01*
X134173509Y-52026740D01*
X134173511Y-52026741D01*
X134202588Y-52034532D01*
X134393308Y-52085635D01*
X134555230Y-52099801D01*
X134619998Y-52105468D01*
X134620000Y-52105468D01*
X134620002Y-52105468D01*
X134676673Y-52100509D01*
X134846692Y-52085635D01*
X135066496Y-52026739D01*
X135272734Y-51930568D01*
X135459139Y-51800047D01*
X135620047Y-51639139D01*
X135732613Y-51478377D01*
X135787189Y-51434752D01*
X135834188Y-51425500D01*
X137169178Y-51425500D01*
X137236217Y-51445185D01*
X137270751Y-51478374D01*
X137400579Y-51663787D01*
X137566213Y-51829421D01*
X137758093Y-51963777D01*
X137970389Y-52062772D01*
X137970395Y-52062773D01*
X137970396Y-52062774D01*
X137997364Y-52070000D01*
X138196649Y-52123398D01*
X138316441Y-52133878D01*
X138381509Y-52159330D01*
X138422488Y-52215921D01*
X138426366Y-52285683D01*
X138425408Y-52289499D01*
X138376603Y-52471643D01*
X138376601Y-52471653D01*
X138356186Y-52704999D01*
X138356186Y-52705000D01*
X138376601Y-52938346D01*
X138376603Y-52938356D01*
X138401490Y-53031237D01*
X138399827Y-53101087D01*
X138369396Y-53151011D01*
X138191208Y-53329199D01*
X138178951Y-53339020D01*
X138179134Y-53339241D01*
X138173122Y-53344214D01*
X138127098Y-53393223D01*
X138124391Y-53396016D01*
X138104889Y-53415517D01*
X138104875Y-53415534D01*
X138102407Y-53418715D01*
X138094843Y-53427570D01*
X138064937Y-53459418D01*
X138064936Y-53459420D01*
X138055284Y-53476976D01*
X138044610Y-53493226D01*
X138032329Y-53509061D01*
X138032324Y-53509068D01*
X138014975Y-53549158D01*
X138009838Y-53559644D01*
X137988803Y-53597906D01*
X137983822Y-53617307D01*
X137977521Y-53635710D01*
X137969562Y-53654102D01*
X137969561Y-53654105D01*
X137962728Y-53697243D01*
X137960360Y-53708674D01*
X137949501Y-53750971D01*
X137949500Y-53750982D01*
X137949500Y-53771016D01*
X137947973Y-53790415D01*
X137944840Y-53810194D01*
X137944840Y-53810195D01*
X137948950Y-53853674D01*
X137949500Y-53865343D01*
X137949500Y-56323566D01*
X137929815Y-56390605D01*
X137877011Y-56436360D01*
X137807853Y-56446304D01*
X137773095Y-56435948D01*
X137675857Y-56390605D01*
X137606496Y-56358261D01*
X137606492Y-56358260D01*
X137606488Y-56358258D01*
X137386697Y-56299366D01*
X137386693Y-56299365D01*
X137386692Y-56299365D01*
X137386691Y-56299364D01*
X137386686Y-56299364D01*
X137160002Y-56279532D01*
X137159998Y-56279532D01*
X136933313Y-56299364D01*
X136933302Y-56299366D01*
X136713511Y-56358258D01*
X136713502Y-56358261D01*
X136507267Y-56454431D01*
X136507265Y-56454432D01*
X136320858Y-56584954D01*
X136159954Y-56745858D01*
X136029433Y-56932264D01*
X136029432Y-56932266D01*
X136004258Y-56986253D01*
X136002106Y-56990867D01*
X135955933Y-57043306D01*
X135888739Y-57062457D01*
X135821858Y-57042241D01*
X135777342Y-56990865D01*
X135750135Y-56932520D01*
X135750134Y-56932518D01*
X135619657Y-56746179D01*
X135458820Y-56585342D01*
X135272482Y-56454865D01*
X135066328Y-56358734D01*
X134870000Y-56306127D01*
X134870000Y-57349498D01*
X134762315Y-57300320D01*
X134655763Y-57285000D01*
X134584237Y-57285000D01*
X134477685Y-57300320D01*
X134370000Y-57349498D01*
X134370000Y-56306127D01*
X134173671Y-56358734D01*
X133967517Y-56454865D01*
X133781179Y-56585342D01*
X133620342Y-56746179D01*
X133489867Y-56932515D01*
X133462657Y-56990867D01*
X133416484Y-57043306D01*
X133349290Y-57062457D01*
X133282409Y-57042241D01*
X133237893Y-56990865D01*
X133235742Y-56986253D01*
X133210568Y-56932266D01*
X133081846Y-56748430D01*
X133080045Y-56745858D01*
X132919141Y-56584954D01*
X132732734Y-56454432D01*
X132732732Y-56454431D01*
X132526497Y-56358261D01*
X132526488Y-56358258D01*
X132306697Y-56299366D01*
X132306693Y-56299365D01*
X132306692Y-56299365D01*
X132306691Y-56299364D01*
X132306686Y-56299364D01*
X132080002Y-56279532D01*
X132079998Y-56279532D01*
X131853313Y-56299364D01*
X131853302Y-56299366D01*
X131633511Y-56358258D01*
X131633502Y-56358261D01*
X131427267Y-56454431D01*
X131427265Y-56454432D01*
X131240858Y-56584954D01*
X131079954Y-56745858D01*
X130949432Y-56932265D01*
X130949431Y-56932267D01*
X130853261Y-57138502D01*
X130853258Y-57138511D01*
X130794366Y-57358302D01*
X130794364Y-57358312D01*
X130779500Y-57528214D01*
X130779500Y-58041785D01*
X130794364Y-58211687D01*
X130794366Y-58211697D01*
X130853258Y-58431488D01*
X130853261Y-58431497D01*
X130949431Y-58637732D01*
X130949432Y-58637734D01*
X131079954Y-58824141D01*
X131240858Y-58985045D01*
X131240861Y-58985047D01*
X131427266Y-59115568D01*
X131633504Y-59211739D01*
X131853308Y-59270635D01*
X132015230Y-59284801D01*
X132079998Y-59290468D01*
X132080000Y-59290468D01*
X132080002Y-59290468D01*
X132136673Y-59285509D01*
X132306692Y-59270635D01*
X132526496Y-59211739D01*
X132732734Y-59115568D01*
X132919139Y-58985047D01*
X133080047Y-58824139D01*
X133210568Y-58637734D01*
X133237895Y-58579129D01*
X133284064Y-58526695D01*
X133351257Y-58507542D01*
X133418139Y-58527757D01*
X133462657Y-58579133D01*
X133489865Y-58637482D01*
X133620342Y-58823820D01*
X133781179Y-58984657D01*
X133967517Y-59115134D01*
X134173673Y-59211265D01*
X134173682Y-59211269D01*
X134369999Y-59263872D01*
X134370000Y-59263871D01*
X134370000Y-58220501D01*
X134477685Y-58269680D01*
X134584237Y-58285000D01*
X134655763Y-58285000D01*
X134762315Y-58269680D01*
X134870000Y-58220501D01*
X134870000Y-59263872D01*
X135066317Y-59211269D01*
X135066326Y-59211265D01*
X135272482Y-59115134D01*
X135458820Y-58984657D01*
X135619657Y-58823820D01*
X135750132Y-58637484D01*
X135777341Y-58579134D01*
X135823513Y-58526695D01*
X135890707Y-58507542D01*
X135957588Y-58527757D01*
X136002106Y-58579133D01*
X136029431Y-58637732D01*
X136029432Y-58637734D01*
X136159954Y-58824141D01*
X136320858Y-58985045D01*
X136320861Y-58985047D01*
X136507266Y-59115568D01*
X136713504Y-59211739D01*
X136933308Y-59270635D01*
X137095230Y-59284801D01*
X137159998Y-59290468D01*
X137160000Y-59290468D01*
X137160002Y-59290468D01*
X137216673Y-59285509D01*
X137386692Y-59270635D01*
X137606496Y-59211739D01*
X137773095Y-59134051D01*
X137842173Y-59123560D01*
X137905957Y-59152080D01*
X137944196Y-59210556D01*
X137949500Y-59246434D01*
X137949500Y-68759546D01*
X137929815Y-68826585D01*
X137913181Y-68847227D01*
X127927180Y-78833228D01*
X127865857Y-78866713D01*
X127796165Y-78861729D01*
X127740232Y-78819857D01*
X127715815Y-78754393D01*
X127715499Y-78745547D01*
X127715499Y-77842129D01*
X127715498Y-77842123D01*
X127715497Y-77842116D01*
X127709091Y-77782517D01*
X127658796Y-77647669D01*
X127658795Y-77647668D01*
X127658793Y-77647664D01*
X127572547Y-77532455D01*
X127572544Y-77532452D01*
X127457335Y-77446206D01*
X127457328Y-77446202D01*
X127325917Y-77397189D01*
X127269983Y-77355318D01*
X127245566Y-77289853D01*
X127260418Y-77221580D01*
X127281563Y-77193332D01*
X127403495Y-77071401D01*
X127539035Y-76877830D01*
X127638903Y-76663663D01*
X127700063Y-76435408D01*
X127720659Y-76200000D01*
X127700063Y-75964592D01*
X127638903Y-75736337D01*
X127539035Y-75522171D01*
X127497375Y-75462673D01*
X127403494Y-75328597D01*
X127236402Y-75161506D01*
X127236396Y-75161501D01*
X127050842Y-75031575D01*
X127007217Y-74976998D01*
X127000023Y-74907500D01*
X127031546Y-74845145D01*
X127050842Y-74828425D01*
X127073026Y-74812891D01*
X127236401Y-74698495D01*
X127403495Y-74531401D01*
X127539035Y-74337830D01*
X127638903Y-74123663D01*
X127700063Y-73895408D01*
X127720659Y-73660000D01*
X127700063Y-73424592D01*
X127638903Y-73196337D01*
X127539035Y-72982171D01*
X127403495Y-72788599D01*
X127403494Y-72788597D01*
X127236402Y-72621506D01*
X127236396Y-72621501D01*
X127050842Y-72491575D01*
X127007217Y-72436998D01*
X127000023Y-72367500D01*
X127031546Y-72305145D01*
X127050842Y-72288425D01*
X127073026Y-72272891D01*
X127236401Y-72158495D01*
X127403495Y-71991401D01*
X127539035Y-71797830D01*
X127638903Y-71583663D01*
X127700063Y-71355408D01*
X127720659Y-71120000D01*
X127700063Y-70884592D01*
X127638903Y-70656337D01*
X127539035Y-70442171D01*
X127403495Y-70248599D01*
X127403494Y-70248597D01*
X127236402Y-70081506D01*
X127236396Y-70081501D01*
X127050842Y-69951575D01*
X127007217Y-69896998D01*
X127000023Y-69827500D01*
X127031546Y-69765145D01*
X127050842Y-69748425D01*
X127073026Y-69732891D01*
X127236401Y-69618495D01*
X127403495Y-69451401D01*
X127539035Y-69257830D01*
X127638903Y-69043663D01*
X127700063Y-68815408D01*
X127720659Y-68580000D01*
X127700063Y-68344592D01*
X127638903Y-68116337D01*
X127539035Y-67902171D01*
X127403495Y-67708599D01*
X127281567Y-67586671D01*
X127248084Y-67525351D01*
X127253068Y-67455659D01*
X127294939Y-67399725D01*
X127325915Y-67382810D01*
X127457331Y-67333796D01*
X127572546Y-67247546D01*
X127658796Y-67132331D01*
X127709091Y-66997483D01*
X127715500Y-66937873D01*
X127715499Y-65142128D01*
X127709091Y-65082517D01*
X127658796Y-64947669D01*
X127658795Y-64947668D01*
X127658793Y-64947664D01*
X127572547Y-64832455D01*
X127572544Y-64832452D01*
X127457335Y-64746206D01*
X127457328Y-64746202D01*
X127325917Y-64697189D01*
X127269983Y-64655318D01*
X127245566Y-64589853D01*
X127260418Y-64521580D01*
X127281563Y-64493332D01*
X127403495Y-64371401D01*
X127539035Y-64177830D01*
X127638903Y-63963663D01*
X127700063Y-63735408D01*
X127720659Y-63500000D01*
X127700063Y-63264592D01*
X127638903Y-63036337D01*
X127539035Y-62822171D01*
X127403495Y-62628599D01*
X127403494Y-62628597D01*
X127236402Y-62461506D01*
X127236396Y-62461501D01*
X127050842Y-62331575D01*
X127007217Y-62276998D01*
X127000023Y-62207500D01*
X127031546Y-62145145D01*
X127050842Y-62128425D01*
X127073026Y-62112891D01*
X127236401Y-61998495D01*
X127403495Y-61831401D01*
X127539035Y-61637830D01*
X127638903Y-61423663D01*
X127700063Y-61195408D01*
X127720659Y-60960000D01*
X127700063Y-60724592D01*
X127638903Y-60496337D01*
X127539035Y-60282171D01*
X127403495Y-60088599D01*
X127403494Y-60088597D01*
X127236402Y-59921506D01*
X127236396Y-59921501D01*
X127050842Y-59791575D01*
X127007217Y-59736998D01*
X127000023Y-59667500D01*
X127031546Y-59605145D01*
X127050842Y-59588425D01*
X127073026Y-59572891D01*
X127236401Y-59458495D01*
X127403495Y-59291401D01*
X127539035Y-59097830D01*
X127638903Y-58883663D01*
X127700063Y-58655408D01*
X127720659Y-58420000D01*
X127700063Y-58184592D01*
X127638903Y-57956337D01*
X127539035Y-57742171D01*
X127422091Y-57575156D01*
X127403494Y-57548597D01*
X127236402Y-57381506D01*
X127236396Y-57381501D01*
X127050842Y-57251575D01*
X127007217Y-57196998D01*
X127000023Y-57127500D01*
X127031546Y-57065145D01*
X127050842Y-57048425D01*
X127133046Y-56990865D01*
X127236401Y-56918495D01*
X127403495Y-56751401D01*
X127539035Y-56557830D01*
X127638903Y-56343663D01*
X127700063Y-56115408D01*
X127720659Y-55880000D01*
X127700063Y-55644592D01*
X127638903Y-55416337D01*
X127539035Y-55202171D01*
X127494646Y-55138777D01*
X127403496Y-55008600D01*
X127399312Y-55004416D01*
X127281567Y-54886671D01*
X127248084Y-54825351D01*
X127253068Y-54755659D01*
X127294939Y-54699725D01*
X127325915Y-54682810D01*
X127457331Y-54633796D01*
X127572546Y-54547546D01*
X127658796Y-54432331D01*
X127709091Y-54297483D01*
X127715500Y-54237873D01*
X127715499Y-52442128D01*
X127709091Y-52382517D01*
X127708748Y-52381598D01*
X127658797Y-52247671D01*
X127658793Y-52247664D01*
X127572547Y-52132455D01*
X127572544Y-52132452D01*
X127457335Y-52046206D01*
X127457328Y-52046202D01*
X127325917Y-51997189D01*
X127269983Y-51955318D01*
X127245566Y-51889853D01*
X127260418Y-51821580D01*
X127281563Y-51793332D01*
X127403495Y-51671401D01*
X127539035Y-51477830D01*
X127638903Y-51263663D01*
X127700063Y-51035408D01*
X127720659Y-50800000D01*
X127720026Y-50792770D01*
X127709621Y-50673838D01*
X127700063Y-50564592D01*
X127648463Y-50372017D01*
X127638905Y-50336344D01*
X127638904Y-50336343D01*
X127638903Y-50336337D01*
X127539035Y-50122171D01*
X127538652Y-50121623D01*
X127403494Y-49928597D01*
X127236402Y-49761506D01*
X127236396Y-49761501D01*
X127050842Y-49631575D01*
X127007217Y-49576998D01*
X127000023Y-49507500D01*
X127031546Y-49445145D01*
X127050842Y-49428425D01*
X127133170Y-49370778D01*
X127236401Y-49298495D01*
X127403495Y-49131401D01*
X127539035Y-48937830D01*
X127638903Y-48723663D01*
X127700063Y-48495408D01*
X127720659Y-48260000D01*
X127700063Y-48024592D01*
X127638903Y-47796337D01*
X127539035Y-47582171D01*
X127514196Y-47546696D01*
X127403494Y-47388597D01*
X127236402Y-47221506D01*
X127236395Y-47221501D01*
X127233297Y-47219332D01*
X127197111Y-47193994D01*
X127042834Y-47085967D01*
X127042830Y-47085965D01*
X127003502Y-47067626D01*
X126828663Y-46986097D01*
X126828659Y-46986096D01*
X126828655Y-46986094D01*
X126600413Y-46924938D01*
X126600403Y-46924936D01*
X126365001Y-46904341D01*
X126364999Y-46904341D01*
X126129596Y-46924936D01*
X126129586Y-46924938D01*
X125901344Y-46986094D01*
X125901335Y-46986098D01*
X125687171Y-47085964D01*
X125687169Y-47085965D01*
X125493597Y-47221505D01*
X125326505Y-47388597D01*
X125190965Y-47582169D01*
X125190964Y-47582171D01*
X125091098Y-47796335D01*
X125091094Y-47796344D01*
X125029938Y-48024586D01*
X125029936Y-48024596D01*
X125009341Y-48259999D01*
X125009341Y-48260000D01*
X125029936Y-48495403D01*
X125029938Y-48495413D01*
X125091094Y-48723655D01*
X125091096Y-48723659D01*
X125091097Y-48723663D01*
X125179887Y-48914074D01*
X125190965Y-48937830D01*
X125190967Y-48937834D01*
X125258466Y-49034232D01*
X125323388Y-49126950D01*
X125326501Y-49131395D01*
X125326506Y-49131402D01*
X125493597Y-49298493D01*
X125493603Y-49298498D01*
X125679158Y-49428425D01*
X125722783Y-49483002D01*
X125729977Y-49552500D01*
X125698454Y-49614855D01*
X125679158Y-49631575D01*
X125493597Y-49761505D01*
X125326505Y-49928597D01*
X125190965Y-50122169D01*
X125190964Y-50122171D01*
X125091098Y-50336335D01*
X125091094Y-50336344D01*
X125029938Y-50564586D01*
X125029936Y-50564596D01*
X125009341Y-50799999D01*
X125009341Y-50800000D01*
X125029936Y-51035403D01*
X125029938Y-51035413D01*
X125091094Y-51263655D01*
X125091096Y-51263659D01*
X125091097Y-51263663D01*
X125179262Y-51452732D01*
X125190965Y-51477830D01*
X125190967Y-51477834D01*
X125268483Y-51588537D01*
X125326501Y-51671396D01*
X125326506Y-51671402D01*
X125448430Y-51793326D01*
X125481915Y-51854649D01*
X125476931Y-51924341D01*
X125435059Y-51980274D01*
X125404083Y-51997189D01*
X125272669Y-52046203D01*
X125272664Y-52046206D01*
X125157455Y-52132452D01*
X125157452Y-52132455D01*
X125071206Y-52247664D01*
X125071202Y-52247671D01*
X125020908Y-52382517D01*
X125015184Y-52435765D01*
X125014501Y-52442123D01*
X125014500Y-52442135D01*
X125014500Y-54237870D01*
X125014501Y-54237876D01*
X125020908Y-54297483D01*
X125071202Y-54432328D01*
X125071206Y-54432335D01*
X125157452Y-54547544D01*
X125157455Y-54547547D01*
X125272664Y-54633793D01*
X125272671Y-54633797D01*
X125404081Y-54682810D01*
X125460015Y-54724681D01*
X125484432Y-54790145D01*
X125469580Y-54858418D01*
X125448430Y-54886673D01*
X125326503Y-55008600D01*
X125190965Y-55202169D01*
X125190964Y-55202171D01*
X125091098Y-55416335D01*
X125091094Y-55416344D01*
X125029938Y-55644586D01*
X125029936Y-55644596D01*
X125009341Y-55879999D01*
X125009341Y-55880000D01*
X125029936Y-56115403D01*
X125029938Y-56115413D01*
X125091094Y-56343655D01*
X125091096Y-56343659D01*
X125091097Y-56343663D01*
X125187405Y-56550195D01*
X125190965Y-56557830D01*
X125190967Y-56557834D01*
X125326501Y-56751395D01*
X125326506Y-56751402D01*
X125493597Y-56918493D01*
X125493603Y-56918498D01*
X125679158Y-57048425D01*
X125722783Y-57103002D01*
X125729977Y-57172500D01*
X125698454Y-57234855D01*
X125679158Y-57251575D01*
X125493597Y-57381505D01*
X125326505Y-57548597D01*
X125190965Y-57742169D01*
X125190964Y-57742171D01*
X125091098Y-57956335D01*
X125091094Y-57956344D01*
X125029938Y-58184586D01*
X125029936Y-58184596D01*
X125009341Y-58419999D01*
X125009341Y-58420000D01*
X125029936Y-58655403D01*
X125029938Y-58655413D01*
X125091094Y-58883655D01*
X125091096Y-58883659D01*
X125091097Y-58883663D01*
X125154581Y-59019804D01*
X125190965Y-59097830D01*
X125190967Y-59097834D01*
X125270724Y-59211738D01*
X125311964Y-59270635D01*
X125326501Y-59291395D01*
X125326506Y-59291402D01*
X125493597Y-59458493D01*
X125493603Y-59458498D01*
X125679158Y-59588425D01*
X125722783Y-59643002D01*
X125729977Y-59712500D01*
X125698454Y-59774855D01*
X125679158Y-59791575D01*
X125493597Y-59921505D01*
X125326505Y-60088597D01*
X125190965Y-60282169D01*
X125190964Y-60282171D01*
X125091098Y-60496335D01*
X125091094Y-60496344D01*
X125029938Y-60724586D01*
X125029936Y-60724596D01*
X125009341Y-60959999D01*
X125009341Y-60960000D01*
X125029936Y-61195403D01*
X125029938Y-61195413D01*
X125091094Y-61423655D01*
X125091096Y-61423659D01*
X125091097Y-61423663D01*
X125190965Y-61637830D01*
X125190967Y-61637834D01*
X125326501Y-61831395D01*
X125326506Y-61831402D01*
X125493597Y-61998493D01*
X125493603Y-61998498D01*
X125679158Y-62128425D01*
X125722783Y-62183002D01*
X125729977Y-62252500D01*
X125698454Y-62314855D01*
X125679158Y-62331575D01*
X125493597Y-62461505D01*
X125326505Y-62628597D01*
X125190965Y-62822169D01*
X125190964Y-62822171D01*
X125091098Y-63036335D01*
X125091094Y-63036344D01*
X125029938Y-63264586D01*
X125029936Y-63264596D01*
X125009341Y-63499999D01*
X125009341Y-63500000D01*
X125029936Y-63735403D01*
X125029938Y-63735413D01*
X125091094Y-63963655D01*
X125091096Y-63963659D01*
X125091097Y-63963663D01*
X125146175Y-64081778D01*
X125190965Y-64177830D01*
X125190967Y-64177834D01*
X125299281Y-64332521D01*
X125326501Y-64371396D01*
X125326506Y-64371402D01*
X125448430Y-64493326D01*
X125481915Y-64554649D01*
X125476931Y-64624341D01*
X125435059Y-64680274D01*
X125404083Y-64697189D01*
X125272669Y-64746203D01*
X125272664Y-64746206D01*
X125157455Y-64832452D01*
X125157452Y-64832455D01*
X125071206Y-64947664D01*
X125071202Y-64947671D01*
X125020908Y-65082517D01*
X125014501Y-65142116D01*
X125014501Y-65142123D01*
X125014500Y-65142135D01*
X125014500Y-66937870D01*
X125014501Y-66937876D01*
X125020908Y-66997483D01*
X125071202Y-67132328D01*
X125071206Y-67132335D01*
X125157452Y-67247544D01*
X125157455Y-67247547D01*
X125272664Y-67333793D01*
X125272671Y-67333797D01*
X125404081Y-67382810D01*
X125460015Y-67424681D01*
X125484432Y-67490145D01*
X125469580Y-67558418D01*
X125448430Y-67586673D01*
X125326503Y-67708600D01*
X125190965Y-67902169D01*
X125190964Y-67902171D01*
X125091098Y-68116335D01*
X125091094Y-68116344D01*
X125029938Y-68344586D01*
X125029936Y-68344596D01*
X125009341Y-68579999D01*
X125009341Y-68580000D01*
X125029936Y-68815403D01*
X125029938Y-68815413D01*
X125056856Y-68915872D01*
X125055193Y-68985722D01*
X125024762Y-69035646D01*
X119887228Y-74173181D01*
X119825905Y-74206666D01*
X119799547Y-74209500D01*
X109997503Y-74209500D01*
X109930464Y-74189815D01*
X109884709Y-74137011D01*
X109874765Y-74067853D01*
X109877728Y-74053407D01*
X109893144Y-73995872D01*
X109920063Y-73895408D01*
X109940659Y-73660000D01*
X109920063Y-73424592D01*
X109858903Y-73196337D01*
X109759035Y-72982171D01*
X109623495Y-72788599D01*
X109623494Y-72788597D01*
X109456402Y-72621506D01*
X109456396Y-72621501D01*
X109270842Y-72491575D01*
X109227217Y-72436998D01*
X109220023Y-72367500D01*
X109251546Y-72305145D01*
X109270842Y-72288425D01*
X109293026Y-72272891D01*
X109456401Y-72158495D01*
X109623495Y-71991401D01*
X109759035Y-71797830D01*
X109858903Y-71583663D01*
X109920063Y-71355408D01*
X109940659Y-71120000D01*
X109920063Y-70884592D01*
X109858903Y-70656337D01*
X109759035Y-70442171D01*
X109623495Y-70248599D01*
X109623494Y-70248597D01*
X109456402Y-70081506D01*
X109456396Y-70081501D01*
X109270842Y-69951575D01*
X109227217Y-69896998D01*
X109220023Y-69827500D01*
X109251546Y-69765145D01*
X109270842Y-69748425D01*
X109293026Y-69732891D01*
X109456401Y-69618495D01*
X109623495Y-69451401D01*
X109759035Y-69257830D01*
X109858903Y-69043663D01*
X109920063Y-68815408D01*
X109940659Y-68580000D01*
X109920063Y-68344592D01*
X109858903Y-68116337D01*
X109759035Y-67902171D01*
X109623495Y-67708599D01*
X109501567Y-67586671D01*
X109468084Y-67525351D01*
X109473068Y-67455659D01*
X109514939Y-67399725D01*
X109545915Y-67382810D01*
X109677331Y-67333796D01*
X109792546Y-67247546D01*
X109878796Y-67132331D01*
X109929091Y-66997483D01*
X109935500Y-66937873D01*
X109935499Y-65142128D01*
X109929091Y-65082517D01*
X109878796Y-64947669D01*
X109878795Y-64947668D01*
X109878793Y-64947664D01*
X109792547Y-64832455D01*
X109792544Y-64832452D01*
X109677335Y-64746206D01*
X109677328Y-64746202D01*
X109545917Y-64697189D01*
X109489983Y-64655318D01*
X109465566Y-64589853D01*
X109480418Y-64521580D01*
X109501563Y-64493332D01*
X109623495Y-64371401D01*
X109759035Y-64177830D01*
X109858903Y-63963663D01*
X109920063Y-63735408D01*
X109940659Y-63500000D01*
X109920063Y-63264592D01*
X109858903Y-63036337D01*
X109759035Y-62822171D01*
X109623495Y-62628599D01*
X109623494Y-62628597D01*
X109456402Y-62461506D01*
X109456396Y-62461501D01*
X109270842Y-62331575D01*
X109227217Y-62276998D01*
X109220023Y-62207500D01*
X109251546Y-62145145D01*
X109270842Y-62128425D01*
X109293026Y-62112891D01*
X109456401Y-61998495D01*
X109623495Y-61831401D01*
X109759035Y-61637830D01*
X109858903Y-61423663D01*
X109920063Y-61195408D01*
X109940659Y-60960000D01*
X109920063Y-60724592D01*
X109858903Y-60496337D01*
X109759035Y-60282171D01*
X109623495Y-60088599D01*
X109623494Y-60088597D01*
X109456402Y-59921506D01*
X109456401Y-59921505D01*
X109270405Y-59791269D01*
X109226781Y-59736692D01*
X109219588Y-59667193D01*
X109251110Y-59604839D01*
X109270405Y-59588119D01*
X109456082Y-59458105D01*
X109623105Y-59291082D01*
X109758600Y-59097578D01*
X109858429Y-58883492D01*
X109858432Y-58883486D01*
X109915636Y-58670000D01*
X109030572Y-58670000D01*
X109053682Y-58634040D01*
X109095000Y-58493327D01*
X109095000Y-58346673D01*
X109053682Y-58205960D01*
X109030572Y-58170000D01*
X109915636Y-58170000D01*
X109915635Y-58169999D01*
X109858432Y-57956513D01*
X109858429Y-57956507D01*
X109758600Y-57742422D01*
X109758599Y-57742420D01*
X109623113Y-57548926D01*
X109623108Y-57548920D01*
X109456078Y-57381890D01*
X109270405Y-57251879D01*
X109226780Y-57197302D01*
X109219588Y-57127804D01*
X109251110Y-57065449D01*
X109270406Y-57048730D01*
X109270842Y-57048425D01*
X109456401Y-56918495D01*
X109623495Y-56751401D01*
X109759035Y-56557830D01*
X109858903Y-56343663D01*
X109920063Y-56115408D01*
X109940659Y-55880000D01*
X109920063Y-55644592D01*
X109858903Y-55416337D01*
X109759035Y-55202171D01*
X109714646Y-55138777D01*
X109623496Y-55008600D01*
X109619312Y-55004416D01*
X109501567Y-54886671D01*
X109468084Y-54825351D01*
X109473068Y-54755659D01*
X109514939Y-54699725D01*
X109545915Y-54682810D01*
X109677331Y-54633796D01*
X109792546Y-54547546D01*
X109878796Y-54432331D01*
X109929091Y-54297483D01*
X109935500Y-54237873D01*
X109935499Y-52442128D01*
X109929091Y-52382517D01*
X109928748Y-52381598D01*
X109878797Y-52247671D01*
X109878793Y-52247664D01*
X109792547Y-52132455D01*
X109792544Y-52132452D01*
X109677335Y-52046206D01*
X109677328Y-52046202D01*
X109545917Y-51997189D01*
X109489983Y-51955318D01*
X109465566Y-51889853D01*
X109480418Y-51821580D01*
X109501563Y-51793332D01*
X109623495Y-51671401D01*
X109759035Y-51477830D01*
X109786000Y-51420003D01*
X113794723Y-51420003D01*
X113796331Y-51438389D01*
X113796678Y-51454752D01*
X113795709Y-51476324D01*
X113795710Y-51476328D01*
X113795710Y-51476330D01*
X113798914Y-51499983D01*
X113806444Y-51555576D01*
X113807094Y-51561412D01*
X113813792Y-51637972D01*
X113813795Y-51637989D01*
X113819461Y-51659134D01*
X113822563Y-51674576D01*
X113825923Y-51699380D01*
X113825926Y-51699392D01*
X113849573Y-51772169D01*
X113851417Y-51778393D01*
X113870423Y-51849324D01*
X113870428Y-51849337D01*
X113881135Y-51872300D01*
X113886682Y-51886380D01*
X113887811Y-51889853D01*
X113895483Y-51913464D01*
X113922557Y-51963777D01*
X113930128Y-51977845D01*
X113933316Y-51984200D01*
X113962897Y-52047638D01*
X113962898Y-52047639D01*
X113979410Y-52071221D01*
X113987025Y-52083578D01*
X114002146Y-52111678D01*
X114002152Y-52111687D01*
X114045587Y-52166153D01*
X114050214Y-52172340D01*
X114075510Y-52208465D01*
X114088402Y-52226877D01*
X114088405Y-52226880D01*
X114111186Y-52249661D01*
X114120452Y-52260029D01*
X114142492Y-52287666D01*
X114192387Y-52331259D01*
X114198484Y-52336959D01*
X114243116Y-52381592D01*
X114243121Y-52381596D01*
X114243123Y-52381598D01*
X114244436Y-52382517D01*
X114272332Y-52402050D01*
X114282793Y-52410244D01*
X114312004Y-52435765D01*
X114312013Y-52435771D01*
X114365924Y-52467981D01*
X114373449Y-52472854D01*
X114422359Y-52507101D01*
X114422365Y-52507104D01*
X114457798Y-52523627D01*
X114468992Y-52529561D01*
X114505234Y-52551214D01*
X114505236Y-52551215D01*
X114550728Y-52568288D01*
X114560838Y-52572082D01*
X114569669Y-52575792D01*
X114613300Y-52596138D01*
X114620670Y-52599575D01*
X114620675Y-52599577D01*
X114661756Y-52610584D01*
X114673227Y-52614262D01*
X114715976Y-52630307D01*
X114771047Y-52640301D01*
X114780965Y-52642526D01*
X114832023Y-52656207D01*
X114877829Y-52660214D01*
X114889121Y-52661728D01*
X114937453Y-52670500D01*
X114989985Y-52670500D01*
X115000792Y-52670972D01*
X115049998Y-52675277D01*
X115050000Y-52675277D01*
X115100369Y-52670870D01*
X115105600Y-52670524D01*
X115106122Y-52670500D01*
X115106155Y-52670500D01*
X115159217Y-52665724D01*
X115160173Y-52665638D01*
X115160180Y-52665724D01*
X115160477Y-52665611D01*
X115267977Y-52656207D01*
X115267982Y-52656205D01*
X115270000Y-52656029D01*
X115272205Y-52655736D01*
X115274182Y-52655377D01*
X115274188Y-52655377D01*
X115377684Y-52626812D01*
X115378350Y-52626631D01*
X115479330Y-52599575D01*
X115479337Y-52599571D01*
X115483913Y-52597906D01*
X115489449Y-52596138D01*
X115491159Y-52595495D01*
X115491170Y-52595493D01*
X115584890Y-52550359D01*
X115586016Y-52549825D01*
X115677639Y-52507102D01*
X115677640Y-52507101D01*
X115682327Y-52504395D01*
X115682400Y-52504522D01*
X115693164Y-52498218D01*
X115693973Y-52497829D01*
X115775325Y-52438721D01*
X115776993Y-52437531D01*
X115856877Y-52381598D01*
X115857747Y-52380727D01*
X115872550Y-52368084D01*
X115876078Y-52365522D01*
X115943237Y-52295277D01*
X115945098Y-52293376D01*
X116011592Y-52226883D01*
X116011592Y-52226882D01*
X116011598Y-52226877D01*
X116014285Y-52223039D01*
X116026239Y-52208465D01*
X116031629Y-52202828D01*
X116031628Y-52202828D01*
X116031632Y-52202825D01*
X116083266Y-52124600D01*
X116085083Y-52121928D01*
X116137102Y-52047639D01*
X116140543Y-52040259D01*
X116149432Y-52024364D01*
X116155635Y-52014968D01*
X116191114Y-51931958D01*
X116192713Y-51928377D01*
X116229575Y-51849330D01*
X116232570Y-51838148D01*
X116238325Y-51821505D01*
X116244103Y-51807988D01*
X116245916Y-51800047D01*
X116263417Y-51723366D01*
X116264533Y-51718863D01*
X116286207Y-51637977D01*
X116287515Y-51623015D01*
X116290150Y-51606237D01*
X116294191Y-51588537D01*
X116297934Y-51505183D01*
X116298274Y-51500036D01*
X116305277Y-51420003D01*
X118644723Y-51420003D01*
X118646331Y-51438389D01*
X118646678Y-51454752D01*
X118645709Y-51476324D01*
X118645710Y-51476328D01*
X118645710Y-51476330D01*
X118648914Y-51499983D01*
X118656444Y-51555576D01*
X118657094Y-51561412D01*
X118663792Y-51637972D01*
X118663795Y-51637989D01*
X118669461Y-51659134D01*
X118672563Y-51674576D01*
X118675923Y-51699380D01*
X118675926Y-51699392D01*
X118699573Y-51772169D01*
X118701417Y-51778393D01*
X118720423Y-51849324D01*
X118720428Y-51849337D01*
X118731135Y-51872300D01*
X118736682Y-51886380D01*
X118737811Y-51889853D01*
X118745483Y-51913464D01*
X118772557Y-51963777D01*
X118780128Y-51977845D01*
X118783316Y-51984200D01*
X118812897Y-52047638D01*
X118812898Y-52047639D01*
X118829410Y-52071221D01*
X118837025Y-52083578D01*
X118852146Y-52111678D01*
X118852152Y-52111687D01*
X118895587Y-52166153D01*
X118900214Y-52172340D01*
X118925510Y-52208465D01*
X118938402Y-52226877D01*
X118938405Y-52226880D01*
X118961186Y-52249661D01*
X118970452Y-52260029D01*
X118992492Y-52287666D01*
X119042387Y-52331259D01*
X119048484Y-52336959D01*
X119093116Y-52381592D01*
X119093121Y-52381596D01*
X119093123Y-52381598D01*
X119094436Y-52382517D01*
X119122332Y-52402050D01*
X119132793Y-52410244D01*
X119162004Y-52435765D01*
X119162013Y-52435771D01*
X119215924Y-52467981D01*
X119223449Y-52472854D01*
X119272359Y-52507101D01*
X119272365Y-52507104D01*
X119307798Y-52523627D01*
X119318992Y-52529561D01*
X119355234Y-52551214D01*
X119355236Y-52551215D01*
X119400728Y-52568288D01*
X119410838Y-52572082D01*
X119419669Y-52575792D01*
X119463300Y-52596138D01*
X119470670Y-52599575D01*
X119470675Y-52599577D01*
X119511756Y-52610584D01*
X119523227Y-52614262D01*
X119565976Y-52630307D01*
X119621047Y-52640301D01*
X119630965Y-52642526D01*
X119682023Y-52656207D01*
X119727829Y-52660214D01*
X119739121Y-52661728D01*
X119787453Y-52670500D01*
X119839985Y-52670500D01*
X119850792Y-52670972D01*
X119899998Y-52675277D01*
X119900000Y-52675277D01*
X119950369Y-52670870D01*
X119955600Y-52670524D01*
X119956122Y-52670500D01*
X119956155Y-52670500D01*
X120009217Y-52665724D01*
X120010173Y-52665638D01*
X120010180Y-52665724D01*
X120010477Y-52665611D01*
X120117977Y-52656207D01*
X120117982Y-52656205D01*
X120120000Y-52656029D01*
X120122205Y-52655736D01*
X120124182Y-52655377D01*
X120124188Y-52655377D01*
X120227684Y-52626812D01*
X120228350Y-52626631D01*
X120329330Y-52599575D01*
X120329337Y-52599571D01*
X120333913Y-52597906D01*
X120339449Y-52596138D01*
X120341159Y-52595495D01*
X120341170Y-52595493D01*
X120434890Y-52550359D01*
X120436016Y-52549825D01*
X120527639Y-52507102D01*
X120527640Y-52507101D01*
X120532327Y-52504395D01*
X120532400Y-52504522D01*
X120543164Y-52498218D01*
X120543973Y-52497829D01*
X120625325Y-52438721D01*
X120626993Y-52437531D01*
X120706877Y-52381598D01*
X120707747Y-52380727D01*
X120722550Y-52368084D01*
X120726078Y-52365522D01*
X120793237Y-52295277D01*
X120795098Y-52293376D01*
X120861592Y-52226883D01*
X120861592Y-52226882D01*
X120861598Y-52226877D01*
X120864285Y-52223039D01*
X120876239Y-52208465D01*
X120881629Y-52202828D01*
X120881628Y-52202828D01*
X120881632Y-52202825D01*
X120933266Y-52124600D01*
X120935083Y-52121928D01*
X120987102Y-52047639D01*
X120990543Y-52040259D01*
X120999432Y-52024364D01*
X121005635Y-52014968D01*
X121041114Y-51931958D01*
X121042713Y-51928377D01*
X121079575Y-51849330D01*
X121082570Y-51838148D01*
X121088325Y-51821505D01*
X121094103Y-51807988D01*
X121095916Y-51800047D01*
X121113417Y-51723366D01*
X121114533Y-51718863D01*
X121136207Y-51637977D01*
X121137515Y-51623015D01*
X121140150Y-51606237D01*
X121144191Y-51588537D01*
X121147934Y-51505183D01*
X121148274Y-51500036D01*
X121155277Y-51420000D01*
X121153667Y-51401608D01*
X121153321Y-51385239D01*
X121154290Y-51363670D01*
X121143549Y-51284385D01*
X121142905Y-51278600D01*
X121136207Y-51202023D01*
X121130539Y-51180870D01*
X121127434Y-51165412D01*
X121124076Y-51140619D01*
X121124075Y-51140618D01*
X121124075Y-51140613D01*
X121100414Y-51067795D01*
X121098578Y-51061593D01*
X121079576Y-50990674D01*
X121079575Y-50990671D01*
X121079575Y-50990670D01*
X121068863Y-50967699D01*
X121063317Y-50953618D01*
X121054519Y-50926541D01*
X121054517Y-50926537D01*
X121054517Y-50926536D01*
X121019869Y-50862149D01*
X121016681Y-50855794D01*
X120994398Y-50808009D01*
X120987102Y-50792362D01*
X120970592Y-50768785D01*
X120962976Y-50756425D01*
X120947852Y-50728319D01*
X120904398Y-50673830D01*
X120899785Y-50667661D01*
X120861598Y-50613123D01*
X120838804Y-50590329D01*
X120829545Y-50579968D01*
X120818989Y-50566731D01*
X120807508Y-50552334D01*
X120800967Y-50546619D01*
X120757611Y-50508739D01*
X120751514Y-50503039D01*
X120706878Y-50458402D01*
X120677663Y-50437946D01*
X120667210Y-50429759D01*
X120637996Y-50404235D01*
X120635156Y-50402538D01*
X120584073Y-50372017D01*
X120576550Y-50367145D01*
X120527641Y-50332899D01*
X120492205Y-50316374D01*
X120481015Y-50310442D01*
X120444769Y-50288787D01*
X120444767Y-50288786D01*
X120436951Y-50285852D01*
X120389154Y-50267914D01*
X120380349Y-50264216D01*
X120329330Y-50240425D01*
X120288232Y-50229412D01*
X120276759Y-50225731D01*
X120234024Y-50209692D01*
X120178965Y-50199700D01*
X120169016Y-50197468D01*
X120117977Y-50183793D01*
X120072176Y-50179785D01*
X120060846Y-50178264D01*
X120012552Y-50169500D01*
X120012547Y-50169500D01*
X119960015Y-50169500D01*
X119949208Y-50169028D01*
X119900002Y-50164723D01*
X119899996Y-50164723D01*
X119849651Y-50169127D01*
X119844442Y-50169473D01*
X119843848Y-50169499D01*
X119789915Y-50174352D01*
X119789613Y-50174379D01*
X119692239Y-50182899D01*
X119682023Y-50183793D01*
X119682022Y-50183793D01*
X119680081Y-50183963D01*
X119677708Y-50184278D01*
X119675809Y-50184623D01*
X119572522Y-50213129D01*
X119571628Y-50213372D01*
X119470668Y-50240425D01*
X119466051Y-50242105D01*
X119460520Y-50243872D01*
X119458836Y-50244504D01*
X119365246Y-50289573D01*
X119363853Y-50290233D01*
X119272359Y-50332899D01*
X119267670Y-50335606D01*
X119267598Y-50335481D01*
X119256871Y-50341764D01*
X119256031Y-50342168D01*
X119174662Y-50401284D01*
X119172904Y-50402538D01*
X119093121Y-50458403D01*
X119092241Y-50459284D01*
X119077461Y-50471906D01*
X119073928Y-50474472D01*
X119073921Y-50474478D01*
X119006847Y-50544632D01*
X119004903Y-50546619D01*
X118938404Y-50613119D01*
X118938402Y-50613121D01*
X118935711Y-50616965D01*
X118923773Y-50631521D01*
X118918368Y-50637174D01*
X118898253Y-50667647D01*
X118866750Y-50715369D01*
X118864865Y-50718142D01*
X118812901Y-50792356D01*
X118812891Y-50792374D01*
X118809457Y-50799738D01*
X118800572Y-50815628D01*
X118794363Y-50825034D01*
X118758893Y-50908020D01*
X118757254Y-50911688D01*
X118720426Y-50990664D01*
X118720424Y-50990671D01*
X118717425Y-51001860D01*
X118711681Y-51018475D01*
X118705899Y-51032005D01*
X118705896Y-51032014D01*
X118686576Y-51116659D01*
X118685460Y-51121158D01*
X118663793Y-51202022D01*
X118662483Y-51216992D01*
X118659847Y-51233769D01*
X118655809Y-51251459D01*
X118655809Y-51251464D01*
X118652066Y-51334777D01*
X118651719Y-51340016D01*
X118644723Y-51419995D01*
X118644723Y-51420003D01*
X116305277Y-51420003D01*
X116305277Y-51420000D01*
X116303667Y-51401608D01*
X116303321Y-51385239D01*
X116304290Y-51363670D01*
X116293549Y-51284385D01*
X116292905Y-51278600D01*
X116286207Y-51202023D01*
X116280539Y-51180870D01*
X116277434Y-51165412D01*
X116274076Y-51140619D01*
X116274075Y-51140618D01*
X116274075Y-51140613D01*
X116250414Y-51067795D01*
X116248578Y-51061593D01*
X116229576Y-50990674D01*
X116229575Y-50990671D01*
X116229575Y-50990670D01*
X116218863Y-50967699D01*
X116213317Y-50953618D01*
X116204519Y-50926541D01*
X116204517Y-50926537D01*
X116204517Y-50926536D01*
X116169869Y-50862149D01*
X116166681Y-50855794D01*
X116144398Y-50808009D01*
X116137102Y-50792362D01*
X116120592Y-50768785D01*
X116112976Y-50756425D01*
X116097852Y-50728319D01*
X116054398Y-50673830D01*
X116049785Y-50667661D01*
X116011598Y-50613123D01*
X115988804Y-50590329D01*
X115979545Y-50579968D01*
X115968989Y-50566731D01*
X115957508Y-50552334D01*
X115950967Y-50546619D01*
X115907611Y-50508739D01*
X115901514Y-50503039D01*
X115856878Y-50458402D01*
X115827663Y-50437946D01*
X115817210Y-50429759D01*
X115787996Y-50404235D01*
X115785156Y-50402538D01*
X115734073Y-50372017D01*
X115726550Y-50367145D01*
X115677641Y-50332899D01*
X115642205Y-50316374D01*
X115631015Y-50310442D01*
X115594769Y-50288787D01*
X115594767Y-50288786D01*
X115586951Y-50285852D01*
X115539154Y-50267914D01*
X115530349Y-50264216D01*
X115479330Y-50240425D01*
X115438232Y-50229412D01*
X115426759Y-50225731D01*
X115384024Y-50209692D01*
X115328965Y-50199700D01*
X115319016Y-50197468D01*
X115267977Y-50183793D01*
X115222176Y-50179785D01*
X115210846Y-50178264D01*
X115162552Y-50169500D01*
X115162547Y-50169500D01*
X115110015Y-50169500D01*
X115099208Y-50169028D01*
X115050002Y-50164723D01*
X115049996Y-50164723D01*
X114999651Y-50169127D01*
X114994442Y-50169473D01*
X114993848Y-50169499D01*
X114939915Y-50174352D01*
X114939613Y-50174379D01*
X114842239Y-50182899D01*
X114832023Y-50183793D01*
X114832022Y-50183793D01*
X114830081Y-50183963D01*
X114827708Y-50184278D01*
X114825809Y-50184623D01*
X114722522Y-50213129D01*
X114721628Y-50213372D01*
X114620668Y-50240425D01*
X114616051Y-50242105D01*
X114610520Y-50243872D01*
X114608836Y-50244504D01*
X114515246Y-50289573D01*
X114513853Y-50290233D01*
X114422359Y-50332899D01*
X114417670Y-50335606D01*
X114417598Y-50335481D01*
X114406871Y-50341764D01*
X114406031Y-50342168D01*
X114324662Y-50401284D01*
X114322904Y-50402538D01*
X114243121Y-50458403D01*
X114242241Y-50459284D01*
X114227461Y-50471906D01*
X114223928Y-50474472D01*
X114223921Y-50474478D01*
X114156847Y-50544632D01*
X114154903Y-50546619D01*
X114088404Y-50613119D01*
X114088402Y-50613121D01*
X114085711Y-50616965D01*
X114073773Y-50631521D01*
X114068368Y-50637174D01*
X114048253Y-50667647D01*
X114016750Y-50715369D01*
X114014865Y-50718142D01*
X113962901Y-50792356D01*
X113962891Y-50792374D01*
X113959457Y-50799738D01*
X113950572Y-50815628D01*
X113944363Y-50825034D01*
X113908893Y-50908020D01*
X113907254Y-50911688D01*
X113870426Y-50990664D01*
X113870424Y-50990671D01*
X113867425Y-51001860D01*
X113861681Y-51018475D01*
X113855899Y-51032005D01*
X113855896Y-51032014D01*
X113836576Y-51116659D01*
X113835460Y-51121158D01*
X113813793Y-51202022D01*
X113812483Y-51216992D01*
X113809847Y-51233769D01*
X113805809Y-51251459D01*
X113805809Y-51251464D01*
X113802066Y-51334777D01*
X113801719Y-51340016D01*
X113794723Y-51419995D01*
X113794723Y-51420003D01*
X109786000Y-51420003D01*
X109858903Y-51263663D01*
X109920063Y-51035408D01*
X109940659Y-50800000D01*
X109940026Y-50792770D01*
X109929621Y-50673838D01*
X109920063Y-50564592D01*
X109868463Y-50372017D01*
X109858905Y-50336344D01*
X109858904Y-50336343D01*
X109858903Y-50336337D01*
X109759035Y-50122171D01*
X109758652Y-50121623D01*
X109623494Y-49928597D01*
X109456402Y-49761506D01*
X109456396Y-49761501D01*
X109270842Y-49631575D01*
X109227217Y-49576998D01*
X109220023Y-49507500D01*
X109251546Y-49445145D01*
X109270842Y-49428425D01*
X109353170Y-49370778D01*
X109456401Y-49298495D01*
X109623495Y-49131401D01*
X109759035Y-48937830D01*
X109858903Y-48723663D01*
X109920063Y-48495408D01*
X109929285Y-48389998D01*
X113344700Y-48389998D01*
X113351750Y-48475098D01*
X113352061Y-48480071D01*
X113355819Y-48568523D01*
X113355820Y-48568534D01*
X113360092Y-48588355D01*
X113362451Y-48604238D01*
X113363865Y-48621301D01*
X113363865Y-48621306D01*
X113385660Y-48707372D01*
X113386670Y-48711685D01*
X113406044Y-48801575D01*
X113406046Y-48801582D01*
X113412333Y-48817228D01*
X113417477Y-48833010D01*
X113420843Y-48846300D01*
X113450571Y-48914075D01*
X113457875Y-48930725D01*
X113459377Y-48934300D01*
X113494934Y-49022787D01*
X113494935Y-49022788D01*
X113501981Y-49034232D01*
X113509943Y-49049428D01*
X113514076Y-49058850D01*
X113566366Y-49138886D01*
X113568147Y-49141693D01*
X113619930Y-49225794D01*
X113626543Y-49233308D01*
X113637263Y-49247402D01*
X113641019Y-49253151D01*
X113641021Y-49253153D01*
X113708117Y-49326040D01*
X113709930Y-49328054D01*
X113777436Y-49404755D01*
X113782564Y-49408895D01*
X113795882Y-49421377D01*
X113798216Y-49423913D01*
X113866548Y-49477097D01*
X113879062Y-49486837D01*
X113880795Y-49488211D01*
X113962920Y-49554523D01*
X113962922Y-49554524D01*
X113965678Y-49556064D01*
X113981360Y-49566460D01*
X113981367Y-49566465D01*
X113981371Y-49566467D01*
X113981374Y-49566470D01*
X114074507Y-49616870D01*
X114075785Y-49617573D01*
X114129637Y-49647657D01*
X114171051Y-49670793D01*
X114173849Y-49672058D01*
X114180695Y-49675097D01*
X114180794Y-49674873D01*
X114185491Y-49676933D01*
X114185497Y-49676936D01*
X114288950Y-49712451D01*
X114289557Y-49712662D01*
X114395829Y-49750211D01*
X114395843Y-49750213D01*
X114397392Y-49750617D01*
X114403492Y-49751910D01*
X114404999Y-49752291D01*
X114405019Y-49752298D01*
X114516192Y-49770849D01*
X114516608Y-49770919D01*
X114542416Y-49775345D01*
X114630792Y-49790499D01*
X114630800Y-49790500D01*
X114866044Y-49790500D01*
X114866049Y-49790500D01*
X114920013Y-49781494D01*
X114929883Y-49780252D01*
X114987541Y-49775346D01*
X115036925Y-49762487D01*
X115047760Y-49760177D01*
X115094981Y-49752298D01*
X115149963Y-49733421D01*
X115158941Y-49730716D01*
X115218249Y-49715275D01*
X115261642Y-49695659D01*
X115272436Y-49691377D01*
X115314503Y-49676936D01*
X115368611Y-49647653D01*
X115376541Y-49643721D01*
X115435486Y-49617077D01*
X115472120Y-49592316D01*
X115482503Y-49586018D01*
X115518626Y-49566470D01*
X115569878Y-49526578D01*
X115576584Y-49521710D01*
X115633003Y-49483579D01*
X115662460Y-49455345D01*
X115672075Y-49447035D01*
X115701784Y-49423913D01*
X115748070Y-49373632D01*
X115753490Y-49368100D01*
X115805118Y-49318621D01*
X115827351Y-49288557D01*
X115835799Y-49278331D01*
X115858979Y-49253153D01*
X115898223Y-49193084D01*
X115902317Y-49187196D01*
X115946879Y-49126947D01*
X115962176Y-49096604D01*
X115969074Y-49084637D01*
X115985924Y-49058849D01*
X116016130Y-48989984D01*
X116018927Y-48984045D01*
X116054207Y-48914074D01*
X116063155Y-48884854D01*
X116068153Y-48871383D01*
X116079157Y-48846300D01*
X116098450Y-48770110D01*
X116100088Y-48764255D01*
X116124015Y-48686126D01*
X116124016Y-48686121D01*
X116126566Y-48666213D01*
X116127460Y-48659225D01*
X116130251Y-48644535D01*
X116136132Y-48621311D01*
X116136134Y-48621305D01*
X116142903Y-48539600D01*
X116143484Y-48534095D01*
X116154298Y-48449654D01*
X116153291Y-48425961D01*
X116153602Y-48410481D01*
X116155300Y-48390000D01*
X116155300Y-48389998D01*
X118794700Y-48389998D01*
X118801750Y-48475098D01*
X118802061Y-48480071D01*
X118805819Y-48568523D01*
X118805820Y-48568534D01*
X118810092Y-48588355D01*
X118812451Y-48604238D01*
X118813865Y-48621301D01*
X118813865Y-48621306D01*
X118835660Y-48707372D01*
X118836670Y-48711685D01*
X118856044Y-48801575D01*
X118856046Y-48801582D01*
X118862333Y-48817228D01*
X118867477Y-48833010D01*
X118870843Y-48846300D01*
X118900571Y-48914075D01*
X118907875Y-48930725D01*
X118909377Y-48934300D01*
X118944934Y-49022787D01*
X118944935Y-49022788D01*
X118951981Y-49034232D01*
X118959943Y-49049428D01*
X118964076Y-49058850D01*
X119016366Y-49138886D01*
X119018147Y-49141693D01*
X119069930Y-49225794D01*
X119076543Y-49233308D01*
X119087263Y-49247402D01*
X119091019Y-49253151D01*
X119091021Y-49253153D01*
X119158117Y-49326040D01*
X119159930Y-49328054D01*
X119227436Y-49404755D01*
X119232564Y-49408895D01*
X119245882Y-49421377D01*
X119248216Y-49423913D01*
X119316548Y-49477097D01*
X119329062Y-49486837D01*
X119330795Y-49488211D01*
X119412920Y-49554523D01*
X119412922Y-49554524D01*
X119415678Y-49556064D01*
X119431360Y-49566460D01*
X119431367Y-49566465D01*
X119431371Y-49566467D01*
X119431374Y-49566470D01*
X119524507Y-49616870D01*
X119525785Y-49617573D01*
X119579637Y-49647657D01*
X119621051Y-49670793D01*
X119623849Y-49672058D01*
X119630695Y-49675097D01*
X119630794Y-49674873D01*
X119635491Y-49676933D01*
X119635497Y-49676936D01*
X119738950Y-49712451D01*
X119739557Y-49712662D01*
X119845829Y-49750211D01*
X119845843Y-49750213D01*
X119847392Y-49750617D01*
X119853492Y-49751910D01*
X119854999Y-49752291D01*
X119855019Y-49752298D01*
X119966192Y-49770849D01*
X119966608Y-49770919D01*
X119992416Y-49775345D01*
X120080792Y-49790499D01*
X120080800Y-49790500D01*
X120316044Y-49790500D01*
X120316049Y-49790500D01*
X120370013Y-49781494D01*
X120379883Y-49780252D01*
X120437541Y-49775346D01*
X120486925Y-49762487D01*
X120497760Y-49760177D01*
X120544981Y-49752298D01*
X120599963Y-49733421D01*
X120608941Y-49730716D01*
X120668249Y-49715275D01*
X120711642Y-49695659D01*
X120722436Y-49691377D01*
X120764503Y-49676936D01*
X120818611Y-49647653D01*
X120826541Y-49643721D01*
X120885486Y-49617077D01*
X120922120Y-49592316D01*
X120932503Y-49586018D01*
X120968626Y-49566470D01*
X121019878Y-49526578D01*
X121026584Y-49521710D01*
X121083003Y-49483579D01*
X121112460Y-49455345D01*
X121122075Y-49447035D01*
X121151784Y-49423913D01*
X121198070Y-49373632D01*
X121203490Y-49368100D01*
X121255118Y-49318621D01*
X121277351Y-49288557D01*
X121285799Y-49278331D01*
X121308979Y-49253153D01*
X121348223Y-49193084D01*
X121352317Y-49187196D01*
X121396879Y-49126947D01*
X121412176Y-49096604D01*
X121419074Y-49084637D01*
X121435924Y-49058849D01*
X121466130Y-48989984D01*
X121468927Y-48984045D01*
X121504207Y-48914074D01*
X121513155Y-48884854D01*
X121518153Y-48871383D01*
X121529157Y-48846300D01*
X121548450Y-48770110D01*
X121550088Y-48764255D01*
X121574015Y-48686126D01*
X121574016Y-48686121D01*
X121576566Y-48666213D01*
X121577460Y-48659225D01*
X121580251Y-48644535D01*
X121586132Y-48621311D01*
X121586134Y-48621305D01*
X121592903Y-48539600D01*
X121593484Y-48534095D01*
X121604298Y-48449654D01*
X121603291Y-48425961D01*
X121603602Y-48410481D01*
X121605300Y-48390000D01*
X121598248Y-48304902D01*
X121597938Y-48299943D01*
X121596548Y-48267228D01*
X121594180Y-48211468D01*
X121589906Y-48191640D01*
X121587548Y-48175764D01*
X121586134Y-48158695D01*
X121585912Y-48157820D01*
X121578411Y-48128198D01*
X121564325Y-48072577D01*
X121563336Y-48068354D01*
X121543954Y-47978419D01*
X121537665Y-47962770D01*
X121532519Y-47946980D01*
X121529157Y-47933700D01*
X121492092Y-47849202D01*
X121490621Y-47845697D01*
X121470789Y-47796344D01*
X121455064Y-47757210D01*
X121448021Y-47745771D01*
X121440053Y-47730565D01*
X121435924Y-47721151D01*
X121383639Y-47641122D01*
X121381859Y-47638315D01*
X121330074Y-47554212D01*
X121330071Y-47554209D01*
X121330069Y-47554205D01*
X121323451Y-47546686D01*
X121312727Y-47532584D01*
X121308980Y-47526848D01*
X121285800Y-47501668D01*
X121241876Y-47453953D01*
X121240068Y-47451944D01*
X121172565Y-47375246D01*
X121167439Y-47371107D01*
X121154117Y-47358621D01*
X121151785Y-47356088D01*
X121151783Y-47356086D01*
X121070936Y-47293161D01*
X121069198Y-47291783D01*
X120987080Y-47225477D01*
X120987073Y-47225472D01*
X120984311Y-47223929D01*
X120968643Y-47213542D01*
X120968634Y-47213535D01*
X120968628Y-47213532D01*
X120968626Y-47213530D01*
X120875485Y-47163125D01*
X120874094Y-47162359D01*
X120778961Y-47109213D01*
X120776381Y-47108047D01*
X120769284Y-47104898D01*
X120769188Y-47105119D01*
X120764499Y-47103062D01*
X120661278Y-47067626D01*
X120660233Y-47067262D01*
X120554172Y-47029789D01*
X120552635Y-47029389D01*
X120546549Y-47028098D01*
X120544995Y-47027704D01*
X120433772Y-47009144D01*
X120433227Y-47009051D01*
X120319210Y-46989500D01*
X120319200Y-46989500D01*
X120316049Y-46989500D01*
X120083951Y-46989500D01*
X120029993Y-46998503D01*
X120020101Y-46999747D01*
X119962470Y-47004652D01*
X119962461Y-47004653D01*
X119913077Y-47017511D01*
X119902250Y-47019819D01*
X119855012Y-47027703D01*
X119800068Y-47046566D01*
X119791051Y-47049284D01*
X119731749Y-47064725D01*
X119731743Y-47064727D01*
X119688361Y-47084337D01*
X119677553Y-47088624D01*
X119635504Y-47103060D01*
X119635498Y-47103063D01*
X119581396Y-47132341D01*
X119573460Y-47136275D01*
X119514514Y-47162922D01*
X119477883Y-47187679D01*
X119467470Y-47193994D01*
X119431379Y-47213526D01*
X119431367Y-47213533D01*
X119380126Y-47253416D01*
X119373402Y-47258297D01*
X119317001Y-47296417D01*
X119316994Y-47296423D01*
X119287546Y-47324644D01*
X119277918Y-47332967D01*
X119248217Y-47356085D01*
X119248209Y-47356093D01*
X119201925Y-47406369D01*
X119196500Y-47411905D01*
X119144882Y-47461378D01*
X119144880Y-47461380D01*
X119122657Y-47491427D01*
X119114198Y-47501668D01*
X119091021Y-47526846D01*
X119051781Y-47586906D01*
X119047671Y-47592814D01*
X119003124Y-47653047D01*
X119003119Y-47653055D01*
X118987826Y-47683384D01*
X118980918Y-47695370D01*
X118964076Y-47721149D01*
X118933887Y-47789974D01*
X118931060Y-47795975D01*
X118904189Y-47849274D01*
X118895791Y-47865930D01*
X118886847Y-47895131D01*
X118881842Y-47908620D01*
X118870845Y-47933691D01*
X118870845Y-47933692D01*
X118851552Y-48009872D01*
X118849913Y-48015735D01*
X118825984Y-48093877D01*
X118825983Y-48093879D01*
X118822538Y-48120777D01*
X118819750Y-48135454D01*
X118813867Y-48158687D01*
X118813864Y-48158706D01*
X118807097Y-48240377D01*
X118806517Y-48245887D01*
X118795702Y-48330344D01*
X118795701Y-48330345D01*
X118796707Y-48354025D01*
X118796396Y-48369520D01*
X118794700Y-48389998D01*
X116155300Y-48389998D01*
X116148248Y-48304902D01*
X116147938Y-48299943D01*
X116146548Y-48267228D01*
X116144180Y-48211468D01*
X116139906Y-48191640D01*
X116137548Y-48175764D01*
X116136134Y-48158695D01*
X116135912Y-48157820D01*
X116128411Y-48128198D01*
X116114325Y-48072577D01*
X116113336Y-48068354D01*
X116093954Y-47978419D01*
X116087665Y-47962770D01*
X116082519Y-47946980D01*
X116079157Y-47933700D01*
X116042092Y-47849202D01*
X116040621Y-47845697D01*
X116020789Y-47796344D01*
X116005064Y-47757210D01*
X115998021Y-47745771D01*
X115990053Y-47730565D01*
X115985924Y-47721151D01*
X115933639Y-47641122D01*
X115931859Y-47638315D01*
X115880074Y-47554212D01*
X115880071Y-47554209D01*
X115880069Y-47554205D01*
X115873451Y-47546686D01*
X115862727Y-47532584D01*
X115858980Y-47526848D01*
X115835800Y-47501668D01*
X115791876Y-47453953D01*
X115790068Y-47451944D01*
X115722565Y-47375246D01*
X115717439Y-47371107D01*
X115704117Y-47358621D01*
X115701785Y-47356088D01*
X115701783Y-47356086D01*
X115620936Y-47293161D01*
X115619198Y-47291783D01*
X115537080Y-47225477D01*
X115537073Y-47225472D01*
X115534311Y-47223929D01*
X115518643Y-47213542D01*
X115518634Y-47213535D01*
X115518628Y-47213532D01*
X115518626Y-47213530D01*
X115425485Y-47163125D01*
X115424094Y-47162359D01*
X115328961Y-47109213D01*
X115326381Y-47108047D01*
X115319284Y-47104898D01*
X115319188Y-47105119D01*
X115314499Y-47103062D01*
X115211278Y-47067626D01*
X115210233Y-47067262D01*
X115104172Y-47029789D01*
X115102635Y-47029389D01*
X115096549Y-47028098D01*
X115094995Y-47027704D01*
X114983772Y-47009144D01*
X114983227Y-47009051D01*
X114869210Y-46989500D01*
X114869200Y-46989500D01*
X114866049Y-46989500D01*
X114633951Y-46989500D01*
X114579993Y-46998503D01*
X114570101Y-46999747D01*
X114512470Y-47004652D01*
X114512461Y-47004653D01*
X114463077Y-47017511D01*
X114452250Y-47019819D01*
X114405012Y-47027703D01*
X114350068Y-47046566D01*
X114341051Y-47049284D01*
X114281749Y-47064725D01*
X114281743Y-47064727D01*
X114238361Y-47084337D01*
X114227553Y-47088624D01*
X114185504Y-47103060D01*
X114185498Y-47103063D01*
X114131396Y-47132341D01*
X114123460Y-47136275D01*
X114064514Y-47162922D01*
X114027883Y-47187679D01*
X114017470Y-47193994D01*
X113981379Y-47213526D01*
X113981367Y-47213533D01*
X113930126Y-47253416D01*
X113923402Y-47258297D01*
X113867001Y-47296417D01*
X113866994Y-47296423D01*
X113837546Y-47324644D01*
X113827918Y-47332967D01*
X113798217Y-47356085D01*
X113798209Y-47356093D01*
X113751925Y-47406369D01*
X113746500Y-47411905D01*
X113694882Y-47461378D01*
X113694880Y-47461380D01*
X113672657Y-47491427D01*
X113664198Y-47501668D01*
X113641021Y-47526846D01*
X113601781Y-47586906D01*
X113597671Y-47592814D01*
X113553124Y-47653047D01*
X113553119Y-47653055D01*
X113537826Y-47683384D01*
X113530918Y-47695370D01*
X113514076Y-47721149D01*
X113483887Y-47789974D01*
X113481060Y-47795975D01*
X113454189Y-47849274D01*
X113445791Y-47865930D01*
X113436847Y-47895131D01*
X113431842Y-47908620D01*
X113420845Y-47933691D01*
X113420845Y-47933692D01*
X113401552Y-48009872D01*
X113399913Y-48015735D01*
X113375984Y-48093877D01*
X113375983Y-48093879D01*
X113372538Y-48120777D01*
X113369750Y-48135454D01*
X113363867Y-48158687D01*
X113363864Y-48158706D01*
X113357097Y-48240377D01*
X113356517Y-48245887D01*
X113345702Y-48330344D01*
X113345701Y-48330345D01*
X113346707Y-48354025D01*
X113346396Y-48369520D01*
X113344700Y-48389998D01*
X109929285Y-48389998D01*
X109940659Y-48260000D01*
X109920063Y-48024592D01*
X109858903Y-47796337D01*
X109759035Y-47582171D01*
X109734196Y-47546696D01*
X109623494Y-47388597D01*
X109456402Y-47221506D01*
X109456395Y-47221501D01*
X109453297Y-47219332D01*
X109296032Y-47109213D01*
X109262832Y-47085966D01*
X109162094Y-47038990D01*
X109109655Y-46992817D01*
X109090500Y-46926608D01*
X109090500Y-41875226D01*
X109110185Y-41808187D01*
X109143374Y-41773654D01*
X109336401Y-41638495D01*
X109503495Y-41471401D01*
X109639035Y-41277830D01*
X109738903Y-41063663D01*
X109800063Y-40835408D01*
X109817159Y-40640001D01*
X133314532Y-40640001D01*
X133334364Y-40866686D01*
X133334366Y-40866697D01*
X133393258Y-41086488D01*
X133393261Y-41086497D01*
X133489431Y-41292732D01*
X133489432Y-41292734D01*
X133619954Y-41479141D01*
X133780858Y-41640045D01*
X133780861Y-41640047D01*
X133967266Y-41770568D01*
X134173504Y-41866739D01*
X134393308Y-41925635D01*
X134555230Y-41939801D01*
X134619998Y-41945468D01*
X134620000Y-41945468D01*
X134620002Y-41945468D01*
X134676673Y-41940509D01*
X134846692Y-41925635D01*
X135066496Y-41866739D01*
X135272734Y-41770568D01*
X135459139Y-41640047D01*
X135620047Y-41479139D01*
X135732613Y-41318377D01*
X135787189Y-41274752D01*
X135834188Y-41265500D01*
X136604584Y-41265500D01*
X136671623Y-41285185D01*
X136695814Y-41305517D01*
X136823216Y-41443913D01*
X136823219Y-41443915D01*
X136823222Y-41443918D01*
X137006365Y-41586464D01*
X137006371Y-41586468D01*
X137006374Y-41586470D01*
X137210497Y-41696936D01*
X137324487Y-41736068D01*
X137430015Y-41772297D01*
X137430017Y-41772297D01*
X137430019Y-41772298D01*
X137658951Y-41810500D01*
X137658952Y-41810500D01*
X137891048Y-41810500D01*
X137891049Y-41810500D01*
X138119981Y-41772298D01*
X138339503Y-41696936D01*
X138543626Y-41586470D01*
X138726784Y-41443913D01*
X138735130Y-41434846D01*
X138795010Y-41398854D01*
X138864849Y-41400949D01*
X138922468Y-41440469D01*
X138942544Y-41475491D01*
X138971203Y-41552330D01*
X138971206Y-41552335D01*
X139057452Y-41667544D01*
X139057455Y-41667547D01*
X139172664Y-41753793D01*
X139172671Y-41753797D01*
X139307517Y-41804091D01*
X139307516Y-41804091D01*
X139314444Y-41804835D01*
X139367127Y-41810500D01*
X141262872Y-41810499D01*
X141322483Y-41804091D01*
X141457331Y-41753796D01*
X141572546Y-41667546D01*
X141658796Y-41552331D01*
X141709091Y-41417483D01*
X141715500Y-41357873D01*
X141715500Y-40410006D01*
X143354700Y-40410006D01*
X143373864Y-40641297D01*
X143373866Y-40641308D01*
X143430842Y-40866300D01*
X143524075Y-41078848D01*
X143651016Y-41273147D01*
X143651019Y-41273151D01*
X143651021Y-41273153D01*
X143808216Y-41443913D01*
X143808219Y-41443915D01*
X143808222Y-41443918D01*
X143991365Y-41586464D01*
X143991372Y-41586468D01*
X143991374Y-41586470D01*
X144087504Y-41638493D01*
X144089517Y-41639582D01*
X144139108Y-41688801D01*
X144154500Y-41748637D01*
X144154500Y-41965811D01*
X144134815Y-42032850D01*
X144101623Y-42067386D01*
X143940859Y-42179953D01*
X143779954Y-42340858D01*
X143649432Y-42527265D01*
X143649431Y-42527267D01*
X143553261Y-42733502D01*
X143553258Y-42733511D01*
X143494366Y-42953302D01*
X143494364Y-42953313D01*
X143474532Y-43179998D01*
X143474532Y-43180001D01*
X143494364Y-43406686D01*
X143494366Y-43406697D01*
X143553258Y-43626488D01*
X143553261Y-43626497D01*
X143649431Y-43832732D01*
X143649432Y-43832734D01*
X143779954Y-44019141D01*
X143940858Y-44180045D01*
X143940861Y-44180047D01*
X144127266Y-44310568D01*
X144333504Y-44406739D01*
X144553308Y-44465635D01*
X144715230Y-44479801D01*
X144779998Y-44485468D01*
X144780000Y-44485468D01*
X144780002Y-44485468D01*
X144836673Y-44480509D01*
X145006692Y-44465635D01*
X145226496Y-44406739D01*
X145432734Y-44310568D01*
X145619139Y-44180047D01*
X145780047Y-44019139D01*
X145910568Y-43832734D01*
X146006739Y-43626496D01*
X146065635Y-43406692D01*
X146085468Y-43180000D01*
X146065635Y-42953308D01*
X146006739Y-42733504D01*
X145910568Y-42527266D01*
X145780047Y-42340861D01*
X145780045Y-42340858D01*
X145619140Y-42179953D01*
X145458377Y-42067386D01*
X145414752Y-42012809D01*
X145405500Y-41965811D01*
X145405500Y-41726990D01*
X145425185Y-41659951D01*
X145470483Y-41617935D01*
X145492911Y-41605798D01*
X145528626Y-41586470D01*
X145711784Y-41443913D01*
X145720130Y-41434846D01*
X145780010Y-41398854D01*
X145849849Y-41400949D01*
X145907468Y-41440469D01*
X145927544Y-41475491D01*
X145956203Y-41552330D01*
X145956206Y-41552335D01*
X146042452Y-41667544D01*
X146042455Y-41667547D01*
X146157664Y-41753793D01*
X146157671Y-41753797D01*
X146292517Y-41804091D01*
X146292516Y-41804091D01*
X146299444Y-41804835D01*
X146352127Y-41810500D01*
X148247872Y-41810499D01*
X148307483Y-41804091D01*
X148442331Y-41753796D01*
X148557546Y-41667546D01*
X148643796Y-41552331D01*
X148694091Y-41417483D01*
X148700500Y-41357873D01*
X148700500Y-41275005D01*
X152174859Y-41275005D01*
X152195385Y-41522729D01*
X152195387Y-41522738D01*
X152256412Y-41763717D01*
X152356266Y-41991364D01*
X152456564Y-42144882D01*
X153196923Y-41404523D01*
X153220507Y-41484844D01*
X153298239Y-41605798D01*
X153406900Y-41699952D01*
X153537685Y-41759680D01*
X153547466Y-41761086D01*
X152809942Y-42498609D01*
X152856768Y-42535055D01*
X152856770Y-42535056D01*
X153075385Y-42653364D01*
X153075396Y-42653369D01*
X153310506Y-42734083D01*
X153555707Y-42775000D01*
X153804293Y-42775000D01*
X154049493Y-42734083D01*
X154284603Y-42653369D01*
X154284614Y-42653364D01*
X154503228Y-42535057D01*
X154503231Y-42535055D01*
X154550056Y-42498609D01*
X153812533Y-41761086D01*
X153822315Y-41759680D01*
X153953100Y-41699952D01*
X154061761Y-41605798D01*
X154139493Y-41484844D01*
X154163076Y-41404524D01*
X154903434Y-42144882D01*
X155003731Y-41991369D01*
X155103587Y-41763717D01*
X155164612Y-41522738D01*
X155164614Y-41522729D01*
X155185141Y-41275005D01*
X155185141Y-41274994D01*
X155164614Y-41027270D01*
X155164612Y-41027261D01*
X155103587Y-40786282D01*
X155003731Y-40558630D01*
X154903434Y-40405116D01*
X154163076Y-41145475D01*
X154139493Y-41065156D01*
X154061761Y-40944202D01*
X153953100Y-40850048D01*
X153822315Y-40790320D01*
X153812534Y-40788913D01*
X154550057Y-40051390D01*
X154550056Y-40051389D01*
X154503229Y-40014943D01*
X154284614Y-39896635D01*
X154284603Y-39896630D01*
X154049493Y-39815916D01*
X153804293Y-39775000D01*
X153555707Y-39775000D01*
X153310506Y-39815916D01*
X153075396Y-39896630D01*
X153075390Y-39896632D01*
X152856761Y-40014949D01*
X152809942Y-40051388D01*
X152809942Y-40051390D01*
X153547466Y-40788913D01*
X153537685Y-40790320D01*
X153406900Y-40850048D01*
X153298239Y-40944202D01*
X153220507Y-41065156D01*
X153196923Y-41145475D01*
X152456564Y-40405116D01*
X152356267Y-40558632D01*
X152256412Y-40786282D01*
X152195387Y-41027261D01*
X152195385Y-41027270D01*
X152174859Y-41274994D01*
X152174859Y-41275005D01*
X148700500Y-41275005D01*
X148700499Y-39462128D01*
X148694091Y-39402517D01*
X148684233Y-39376087D01*
X148643797Y-39267671D01*
X148643793Y-39267664D01*
X148557547Y-39152455D01*
X148557544Y-39152452D01*
X148442335Y-39066206D01*
X148442328Y-39066202D01*
X148307482Y-39015908D01*
X148307483Y-39015908D01*
X148247883Y-39009501D01*
X148247881Y-39009500D01*
X148247873Y-39009500D01*
X148247864Y-39009500D01*
X146352129Y-39009500D01*
X146352123Y-39009501D01*
X146292516Y-39015908D01*
X146157671Y-39066202D01*
X146157664Y-39066206D01*
X146042455Y-39152452D01*
X146042452Y-39152455D01*
X145956206Y-39267664D01*
X145956203Y-39267670D01*
X145927544Y-39344508D01*
X145885672Y-39400441D01*
X145820208Y-39424858D01*
X145751935Y-39410006D01*
X145720135Y-39385158D01*
X145711784Y-39376087D01*
X145711778Y-39376082D01*
X145711777Y-39376081D01*
X145528634Y-39233535D01*
X145528628Y-39233531D01*
X145324504Y-39123064D01*
X145324495Y-39123061D01*
X145104984Y-39047702D01*
X144914450Y-39015908D01*
X144876049Y-39009500D01*
X144643951Y-39009500D01*
X144605550Y-39015908D01*
X144415015Y-39047702D01*
X144195504Y-39123061D01*
X144195495Y-39123064D01*
X143991371Y-39233531D01*
X143991365Y-39233535D01*
X143808222Y-39376081D01*
X143808219Y-39376084D01*
X143808216Y-39376086D01*
X143808216Y-39376087D01*
X143773998Y-39413258D01*
X143651016Y-39546852D01*
X143524075Y-39741151D01*
X143430842Y-39953699D01*
X143373866Y-40178691D01*
X143373864Y-40178702D01*
X143354700Y-40409993D01*
X143354700Y-40410006D01*
X141715500Y-40410006D01*
X141715499Y-39462128D01*
X141709091Y-39402517D01*
X141699233Y-39376087D01*
X141658797Y-39267671D01*
X141658793Y-39267664D01*
X141572547Y-39152455D01*
X141572544Y-39152452D01*
X141457335Y-39066206D01*
X141457328Y-39066202D01*
X141322482Y-39015908D01*
X141322483Y-39015908D01*
X141262883Y-39009501D01*
X141262881Y-39009500D01*
X141262873Y-39009500D01*
X141262864Y-39009500D01*
X139367129Y-39009500D01*
X139367123Y-39009501D01*
X139307516Y-39015908D01*
X139172671Y-39066202D01*
X139172664Y-39066206D01*
X139057455Y-39152452D01*
X139057452Y-39152455D01*
X138971206Y-39267664D01*
X138971203Y-39267670D01*
X138942544Y-39344508D01*
X138900672Y-39400441D01*
X138835208Y-39424858D01*
X138766935Y-39410006D01*
X138735135Y-39385158D01*
X138726784Y-39376087D01*
X138726778Y-39376082D01*
X138726777Y-39376081D01*
X138543634Y-39233535D01*
X138543628Y-39233531D01*
X138339504Y-39123064D01*
X138339495Y-39123061D01*
X138119984Y-39047702D01*
X137929450Y-39015908D01*
X137891049Y-39009500D01*
X137658951Y-39009500D01*
X137620550Y-39015908D01*
X137430015Y-39047702D01*
X137210504Y-39123061D01*
X137210495Y-39123064D01*
X137006371Y-39233531D01*
X137006365Y-39233535D01*
X136823222Y-39376081D01*
X136823219Y-39376084D01*
X136823216Y-39376086D01*
X136823216Y-39376087D01*
X136788998Y-39413258D01*
X136666016Y-39546852D01*
X136539075Y-39741151D01*
X136451716Y-39940310D01*
X136406760Y-39993796D01*
X136340024Y-40014486D01*
X136338160Y-40014500D01*
X135834188Y-40014500D01*
X135767149Y-39994815D01*
X135732613Y-39961623D01*
X135620045Y-39800858D01*
X135459141Y-39639954D01*
X135272734Y-39509432D01*
X135272732Y-39509431D01*
X135066497Y-39413261D01*
X135066488Y-39413258D01*
X134846697Y-39354366D01*
X134846693Y-39354365D01*
X134846692Y-39354365D01*
X134846691Y-39354364D01*
X134846686Y-39354364D01*
X134620002Y-39334532D01*
X134619998Y-39334532D01*
X134393313Y-39354364D01*
X134393302Y-39354366D01*
X134173511Y-39413258D01*
X134173502Y-39413261D01*
X133967267Y-39509431D01*
X133967265Y-39509432D01*
X133780858Y-39639954D01*
X133619954Y-39800858D01*
X133489432Y-39987265D01*
X133489431Y-39987267D01*
X133393261Y-40193502D01*
X133393258Y-40193511D01*
X133334366Y-40413302D01*
X133334364Y-40413313D01*
X133314532Y-40639998D01*
X133314532Y-40640001D01*
X109817159Y-40640001D01*
X109820659Y-40600000D01*
X109800063Y-40364592D01*
X109738903Y-40136337D01*
X109639035Y-39922171D01*
X109635733Y-39917454D01*
X109503494Y-39728597D01*
X109336402Y-39561506D01*
X109336395Y-39561501D01*
X109142834Y-39425967D01*
X109142830Y-39425965D01*
X109108606Y-39410006D01*
X108928663Y-39326097D01*
X108928659Y-39326096D01*
X108928655Y-39326094D01*
X108700413Y-39264938D01*
X108700403Y-39264936D01*
X108465001Y-39244341D01*
X108464999Y-39244341D01*
X108229596Y-39264936D01*
X108229586Y-39264938D01*
X108001344Y-39326094D01*
X108001335Y-39326098D01*
X107787171Y-39425964D01*
X107787169Y-39425965D01*
X107593600Y-39561503D01*
X107471673Y-39683430D01*
X107410350Y-39716914D01*
X107340658Y-39711930D01*
X107284725Y-39670058D01*
X107267810Y-39639081D01*
X107218797Y-39507671D01*
X107218793Y-39507664D01*
X107132547Y-39392455D01*
X107132544Y-39392452D01*
X107017335Y-39306206D01*
X107017328Y-39306202D01*
X106882482Y-39255908D01*
X106882483Y-39255908D01*
X106822883Y-39249501D01*
X106822881Y-39249500D01*
X106822873Y-39249500D01*
X106822864Y-39249500D01*
X105027129Y-39249500D01*
X105027123Y-39249501D01*
X104967516Y-39255908D01*
X104832671Y-39306202D01*
X104832664Y-39306206D01*
X104717455Y-39392452D01*
X104717452Y-39392455D01*
X104631206Y-39507664D01*
X104631202Y-39507671D01*
X104580908Y-39642517D01*
X104574501Y-39702116D01*
X104574500Y-39702135D01*
X104574500Y-41497870D01*
X104574501Y-41497876D01*
X104580908Y-41557483D01*
X104631202Y-41692328D01*
X104631206Y-41692335D01*
X104717452Y-41807544D01*
X104717455Y-41807547D01*
X104832664Y-41893793D01*
X104832671Y-41893797D01*
X104967517Y-41944091D01*
X104967516Y-41944091D01*
X104974444Y-41944835D01*
X105027127Y-41950500D01*
X106822872Y-41950499D01*
X106882483Y-41944091D01*
X107017331Y-41893796D01*
X107132546Y-41807546D01*
X107218796Y-41692331D01*
X107267810Y-41560916D01*
X107309681Y-41504984D01*
X107375145Y-41480566D01*
X107443418Y-41495417D01*
X107471673Y-41516569D01*
X107593597Y-41638493D01*
X107593603Y-41638498D01*
X107595815Y-41640047D01*
X107786624Y-41773653D01*
X107830248Y-41828228D01*
X107839500Y-41875226D01*
X107839500Y-47068797D01*
X107819815Y-47135836D01*
X107786625Y-47170371D01*
X107733132Y-47207827D01*
X107716703Y-47219332D01*
X107713595Y-47221508D01*
X107546505Y-47388597D01*
X107410965Y-47582169D01*
X107410964Y-47582171D01*
X107311098Y-47796335D01*
X107311094Y-47796344D01*
X107249938Y-48024586D01*
X107249936Y-48024596D01*
X107229341Y-48259999D01*
X107229341Y-48260000D01*
X107249936Y-48495403D01*
X107249938Y-48495413D01*
X107311094Y-48723655D01*
X107311096Y-48723659D01*
X107311097Y-48723663D01*
X107399887Y-48914074D01*
X107410965Y-48937830D01*
X107410967Y-48937834D01*
X107478466Y-49034232D01*
X107543388Y-49126950D01*
X107546501Y-49131395D01*
X107546506Y-49131402D01*
X107713597Y-49298493D01*
X107713603Y-49298498D01*
X107899158Y-49428425D01*
X107942783Y-49483002D01*
X107949977Y-49552500D01*
X107918454Y-49614855D01*
X107899158Y-49631575D01*
X107713597Y-49761505D01*
X107546505Y-49928597D01*
X107410965Y-50122169D01*
X107410964Y-50122171D01*
X107311098Y-50336335D01*
X107311094Y-50336344D01*
X107249938Y-50564586D01*
X107249936Y-50564596D01*
X107229341Y-50799999D01*
X107229341Y-50800000D01*
X107249936Y-51035403D01*
X107249938Y-51035413D01*
X107311094Y-51263655D01*
X107311096Y-51263659D01*
X107311097Y-51263663D01*
X107399262Y-51452732D01*
X107410965Y-51477830D01*
X107410967Y-51477834D01*
X107488483Y-51588537D01*
X107546501Y-51671396D01*
X107546506Y-51671402D01*
X107668430Y-51793326D01*
X107701915Y-51854649D01*
X107696931Y-51924341D01*
X107655059Y-51980274D01*
X107624083Y-51997189D01*
X107492669Y-52046203D01*
X107492664Y-52046206D01*
X107377455Y-52132452D01*
X107377452Y-52132455D01*
X107291206Y-52247664D01*
X107291202Y-52247671D01*
X107240908Y-52382517D01*
X107235184Y-52435765D01*
X107234501Y-52442123D01*
X107234500Y-52442135D01*
X107234500Y-54237870D01*
X107234501Y-54237876D01*
X107240908Y-54297483D01*
X107291202Y-54432328D01*
X107291206Y-54432335D01*
X107377452Y-54547544D01*
X107377455Y-54547547D01*
X107492664Y-54633793D01*
X107492671Y-54633797D01*
X107624081Y-54682810D01*
X107680015Y-54724681D01*
X107704432Y-54790145D01*
X107689580Y-54858418D01*
X107668430Y-54886673D01*
X107546503Y-55008600D01*
X107410965Y-55202169D01*
X107410964Y-55202171D01*
X107311098Y-55416335D01*
X107311094Y-55416344D01*
X107249938Y-55644586D01*
X107249936Y-55644596D01*
X107229341Y-55879999D01*
X107229341Y-55880000D01*
X107249936Y-56115403D01*
X107249938Y-56115413D01*
X107311094Y-56343655D01*
X107311096Y-56343659D01*
X107311097Y-56343663D01*
X107407405Y-56550195D01*
X107410965Y-56557830D01*
X107410967Y-56557834D01*
X107546501Y-56751395D01*
X107546506Y-56751402D01*
X107713597Y-56918493D01*
X107713603Y-56918498D01*
X107748760Y-56943115D01*
X107891847Y-57043306D01*
X107899594Y-57048730D01*
X107943219Y-57103307D01*
X107950413Y-57172805D01*
X107918890Y-57235160D01*
X107899595Y-57251880D01*
X107713922Y-57381890D01*
X107713920Y-57381891D01*
X107546891Y-57548920D01*
X107546886Y-57548926D01*
X107411400Y-57742420D01*
X107411399Y-57742422D01*
X107311570Y-57956507D01*
X107311567Y-57956513D01*
X107254364Y-58169999D01*
X107254364Y-58170000D01*
X108139428Y-58170000D01*
X108116318Y-58205960D01*
X108075000Y-58346673D01*
X108075000Y-58493327D01*
X108116318Y-58634040D01*
X108139428Y-58670000D01*
X107254364Y-58670000D01*
X107311567Y-58883486D01*
X107311570Y-58883492D01*
X107411399Y-59097578D01*
X107546894Y-59291082D01*
X107713917Y-59458105D01*
X107899595Y-59588119D01*
X107943219Y-59642696D01*
X107950412Y-59712195D01*
X107918890Y-59774549D01*
X107899595Y-59791269D01*
X107713594Y-59921508D01*
X107546505Y-60088597D01*
X107410965Y-60282169D01*
X107410964Y-60282171D01*
X107311098Y-60496335D01*
X107311094Y-60496344D01*
X107249938Y-60724586D01*
X107249936Y-60724596D01*
X107229341Y-60959999D01*
X107229341Y-60960000D01*
X107249936Y-61195403D01*
X107249938Y-61195413D01*
X107311094Y-61423655D01*
X107311096Y-61423659D01*
X107311097Y-61423663D01*
X107410965Y-61637830D01*
X107410967Y-61637834D01*
X107546501Y-61831395D01*
X107546506Y-61831402D01*
X107713597Y-61998493D01*
X107713603Y-61998498D01*
X107899158Y-62128425D01*
X107942783Y-62183002D01*
X107949977Y-62252500D01*
X107918454Y-62314855D01*
X107899158Y-62331575D01*
X107713597Y-62461505D01*
X107546505Y-62628597D01*
X107410965Y-62822169D01*
X107410964Y-62822171D01*
X107311098Y-63036335D01*
X107311094Y-63036344D01*
X107249938Y-63264586D01*
X107249936Y-63264596D01*
X107229341Y-63499999D01*
X107229341Y-63500000D01*
X107249936Y-63735403D01*
X107249938Y-63735413D01*
X107311094Y-63963655D01*
X107311096Y-63963659D01*
X107311097Y-63963663D01*
X107366175Y-64081778D01*
X107410965Y-64177830D01*
X107410967Y-64177834D01*
X107519281Y-64332521D01*
X107546501Y-64371396D01*
X107546506Y-64371402D01*
X107668430Y-64493326D01*
X107701915Y-64554649D01*
X107696931Y-64624341D01*
X107655059Y-64680274D01*
X107624083Y-64697189D01*
X107492669Y-64746203D01*
X107492664Y-64746206D01*
X107377455Y-64832452D01*
X107377452Y-64832455D01*
X107291206Y-64947664D01*
X107291202Y-64947671D01*
X107240908Y-65082517D01*
X107234501Y-65142116D01*
X107234501Y-65142123D01*
X107234500Y-65142135D01*
X107234500Y-66937870D01*
X107234501Y-66937876D01*
X107240908Y-66997483D01*
X107291202Y-67132328D01*
X107291206Y-67132335D01*
X107377452Y-67247544D01*
X107377455Y-67247547D01*
X107492664Y-67333793D01*
X107492671Y-67333797D01*
X107624081Y-67382810D01*
X107680015Y-67424681D01*
X107704432Y-67490145D01*
X107689580Y-67558418D01*
X107668430Y-67586673D01*
X107546503Y-67708600D01*
X107410965Y-67902169D01*
X107410964Y-67902171D01*
X107311098Y-68116335D01*
X107311094Y-68116344D01*
X107249938Y-68344586D01*
X107249936Y-68344596D01*
X107229341Y-68579999D01*
X107229341Y-68580000D01*
X107249936Y-68815403D01*
X107249938Y-68815413D01*
X107311094Y-69043655D01*
X107311096Y-69043659D01*
X107311097Y-69043663D01*
X107360227Y-69149022D01*
X107410965Y-69257830D01*
X107410967Y-69257834D01*
X107468749Y-69340354D01*
X107538929Y-69440582D01*
X107546501Y-69451395D01*
X107546506Y-69451402D01*
X107713597Y-69618493D01*
X107713603Y-69618498D01*
X107899158Y-69748425D01*
X107942783Y-69803002D01*
X107949977Y-69872500D01*
X107918454Y-69934855D01*
X107899158Y-69951575D01*
X107713597Y-70081505D01*
X107546505Y-70248597D01*
X107410965Y-70442169D01*
X107410964Y-70442171D01*
X107311098Y-70656335D01*
X107311094Y-70656344D01*
X107249938Y-70884586D01*
X107249936Y-70884596D01*
X107229341Y-71119999D01*
X107229341Y-71120000D01*
X107249936Y-71355403D01*
X107249938Y-71355413D01*
X107311094Y-71583655D01*
X107311096Y-71583659D01*
X107311097Y-71583663D01*
X107410965Y-71797830D01*
X107410967Y-71797834D01*
X107546501Y-71991395D01*
X107546506Y-71991402D01*
X107713597Y-72158493D01*
X107713603Y-72158498D01*
X107899158Y-72288425D01*
X107942783Y-72343002D01*
X107949977Y-72412500D01*
X107918454Y-72474855D01*
X107899158Y-72491575D01*
X107713597Y-72621505D01*
X107546505Y-72788597D01*
X107410965Y-72982169D01*
X107410964Y-72982171D01*
X107311098Y-73196335D01*
X107311094Y-73196344D01*
X107249938Y-73424586D01*
X107249936Y-73424596D01*
X107229341Y-73659999D01*
X107229341Y-73660000D01*
X107249936Y-73895403D01*
X107249938Y-73895413D01*
X107311094Y-74123655D01*
X107311096Y-74123659D01*
X107311097Y-74123663D01*
X107334188Y-74173181D01*
X107410964Y-74337829D01*
X107410965Y-74337830D01*
X107502270Y-74468227D01*
X107524597Y-74534432D01*
X107507587Y-74602200D01*
X107488376Y-74627031D01*
X106126208Y-75989199D01*
X106113951Y-75999020D01*
X106114134Y-75999241D01*
X106108122Y-76004214D01*
X106062098Y-76053223D01*
X106059391Y-76056016D01*
X106039889Y-76075517D01*
X106039875Y-76075534D01*
X106037407Y-76078715D01*
X106029843Y-76087570D01*
X105999937Y-76119418D01*
X105999936Y-76119420D01*
X105990284Y-76136976D01*
X105979610Y-76153226D01*
X105967329Y-76169061D01*
X105967324Y-76169068D01*
X105949975Y-76209158D01*
X105944838Y-76219644D01*
X105923803Y-76257906D01*
X105918822Y-76277307D01*
X105912521Y-76295710D01*
X105904562Y-76314102D01*
X105904561Y-76314105D01*
X105897728Y-76357243D01*
X105895360Y-76368674D01*
X105884501Y-76410971D01*
X105884500Y-76410982D01*
X105884500Y-76431016D01*
X105882973Y-76450415D01*
X105879840Y-76470194D01*
X105879840Y-76470195D01*
X105883950Y-76513674D01*
X105884500Y-76525343D01*
X105884500Y-97296748D01*
X105882775Y-97312365D01*
X105883061Y-97312392D01*
X105882326Y-97320158D01*
X105884439Y-97387365D01*
X105884500Y-97391260D01*
X105884500Y-97418850D01*
X105885003Y-97422828D01*
X105885918Y-97434460D01*
X105887290Y-97478117D01*
X105887291Y-97478120D01*
X105892880Y-97497360D01*
X105896824Y-97516404D01*
X105899336Y-97536285D01*
X105915414Y-97576896D01*
X105919197Y-97587945D01*
X105929981Y-97625063D01*
X105931382Y-97629883D01*
X105937659Y-97640498D01*
X105941580Y-97647127D01*
X105950138Y-97664596D01*
X105957514Y-97683225D01*
X105983181Y-97718553D01*
X105989593Y-97728314D01*
X106011828Y-97765910D01*
X106011833Y-97765917D01*
X106025990Y-97780073D01*
X106038627Y-97794868D01*
X106050406Y-97811080D01*
X106082103Y-97837302D01*
X106084057Y-97838918D01*
X106092698Y-97846781D01*
X112666097Y-104420180D01*
X112675922Y-104432444D01*
X112676143Y-104432262D01*
X112681113Y-104438270D01*
X112730142Y-104484311D01*
X112732939Y-104487022D01*
X112752433Y-104506516D01*
X112755598Y-104508971D01*
X112764474Y-104516552D01*
X112796321Y-104546458D01*
X112796325Y-104546460D01*
X112813876Y-104556109D01*
X112830134Y-104566788D01*
X112845967Y-104579070D01*
X112881313Y-104594364D01*
X112886058Y-104596418D01*
X112896538Y-104601551D01*
X112934811Y-104622593D01*
X112954215Y-104627575D01*
X112972613Y-104633874D01*
X112991008Y-104641834D01*
X113034157Y-104648667D01*
X113045583Y-104651034D01*
X113087884Y-104661896D01*
X113107919Y-104661896D01*
X113127316Y-104663422D01*
X113147099Y-104666556D01*
X113190578Y-104662446D01*
X113202247Y-104661896D01*
X116753152Y-104661896D01*
X116820191Y-104681581D01*
X116840833Y-104698215D01*
X118738181Y-106595563D01*
X118771666Y-106656886D01*
X118774500Y-106683244D01*
X118774500Y-108517259D01*
X118754815Y-108584298D01*
X118702011Y-108630053D01*
X118632853Y-108639997D01*
X118600581Y-108629256D01*
X118600399Y-108629746D01*
X118457379Y-108576403D01*
X118457372Y-108576401D01*
X118397844Y-108570000D01*
X117750000Y-108570000D01*
X117750000Y-109484498D01*
X117642315Y-109435320D01*
X117535763Y-109420000D01*
X117464237Y-109420000D01*
X117357685Y-109435320D01*
X117250000Y-109484498D01*
X117250000Y-108570000D01*
X116602155Y-108570000D01*
X116542627Y-108576401D01*
X116542620Y-108576403D01*
X116407913Y-108626645D01*
X116407906Y-108626649D01*
X116292812Y-108712809D01*
X116292809Y-108712812D01*
X116206649Y-108827906D01*
X116206645Y-108827913D01*
X116156403Y-108962620D01*
X116156401Y-108962627D01*
X116150000Y-109022155D01*
X116150000Y-109670000D01*
X117066314Y-109670000D01*
X117040507Y-109710156D01*
X117000000Y-109848111D01*
X117000000Y-109991889D01*
X117040507Y-110129844D01*
X117066314Y-110170000D01*
X116150000Y-110170000D01*
X116150000Y-110817844D01*
X116156401Y-110877372D01*
X116156403Y-110877379D01*
X116206645Y-111012086D01*
X116206649Y-111012093D01*
X116292809Y-111127187D01*
X116292812Y-111127190D01*
X116407906Y-111213350D01*
X116407913Y-111213354D01*
X116539470Y-111262421D01*
X116595403Y-111304292D01*
X116619821Y-111369756D01*
X116604970Y-111438029D01*
X116583819Y-111466284D01*
X116461503Y-111588600D01*
X116325965Y-111782169D01*
X116325964Y-111782171D01*
X116226098Y-111996335D01*
X116226094Y-111996344D01*
X116164938Y-112224586D01*
X116164936Y-112224596D01*
X116144341Y-112459999D01*
X116144341Y-112460000D01*
X116164936Y-112695403D01*
X116164938Y-112695413D01*
X116226094Y-112923655D01*
X116226096Y-112923659D01*
X116226097Y-112923663D01*
X116325965Y-113137830D01*
X116325967Y-113137834D01*
X116420529Y-113272881D01*
X116461501Y-113331396D01*
X116461506Y-113331402D01*
X116628597Y-113498493D01*
X116628603Y-113498498D01*
X116814158Y-113628425D01*
X116857783Y-113683002D01*
X116864977Y-113752500D01*
X116833454Y-113814855D01*
X116814158Y-113831575D01*
X116628597Y-113961505D01*
X116461505Y-114128597D01*
X116325965Y-114322169D01*
X116325964Y-114322171D01*
X116226098Y-114536335D01*
X116226094Y-114536344D01*
X116164938Y-114764586D01*
X116164936Y-114764596D01*
X116144341Y-114999999D01*
X116144341Y-115000000D01*
X116164936Y-115235403D01*
X116164938Y-115235413D01*
X116226094Y-115463655D01*
X116226096Y-115463659D01*
X116226097Y-115463663D01*
X116325965Y-115677830D01*
X116325967Y-115677834D01*
X116420529Y-115812881D01*
X116461501Y-115871396D01*
X116461506Y-115871402D01*
X116628597Y-116038493D01*
X116628603Y-116038498D01*
X116814158Y-116168425D01*
X116857783Y-116223002D01*
X116864977Y-116292500D01*
X116833454Y-116354855D01*
X116814158Y-116371575D01*
X116628597Y-116501505D01*
X116461505Y-116668597D01*
X116325965Y-116862169D01*
X116325964Y-116862171D01*
X116226098Y-117076335D01*
X116226094Y-117076344D01*
X116164938Y-117304586D01*
X116164936Y-117304596D01*
X116144341Y-117539999D01*
X116144341Y-117540000D01*
X116164936Y-117775403D01*
X116164938Y-117775413D01*
X116226094Y-118003655D01*
X116226096Y-118003659D01*
X116226097Y-118003663D01*
X116325965Y-118217830D01*
X116325967Y-118217834D01*
X116420529Y-118352881D01*
X116461501Y-118411396D01*
X116461506Y-118411402D01*
X116628597Y-118578493D01*
X116628603Y-118578498D01*
X116814158Y-118708425D01*
X116857783Y-118763002D01*
X116864977Y-118832500D01*
X116833454Y-118894855D01*
X116814158Y-118911575D01*
X116628597Y-119041505D01*
X116461505Y-119208597D01*
X116325965Y-119402169D01*
X116325964Y-119402171D01*
X116226098Y-119616335D01*
X116226094Y-119616344D01*
X116164938Y-119844586D01*
X116164936Y-119844596D01*
X116144341Y-120079999D01*
X116144341Y-120080000D01*
X116164936Y-120315403D01*
X116164938Y-120315413D01*
X116226094Y-120543655D01*
X116226096Y-120543659D01*
X116226097Y-120543663D01*
X116325965Y-120757830D01*
X116325967Y-120757834D01*
X116461501Y-120951395D01*
X116461506Y-120951402D01*
X116628597Y-121118493D01*
X116628603Y-121118498D01*
X116814158Y-121248425D01*
X116857783Y-121303002D01*
X116864977Y-121372500D01*
X116833454Y-121434855D01*
X116814158Y-121451575D01*
X116628597Y-121581505D01*
X116461505Y-121748597D01*
X116325965Y-121942169D01*
X116325964Y-121942171D01*
X116226098Y-122156335D01*
X116226094Y-122156344D01*
X116164938Y-122384586D01*
X116164936Y-122384596D01*
X116144341Y-122619999D01*
X116144341Y-122620000D01*
X116164936Y-122855403D01*
X116164938Y-122855413D01*
X116226094Y-123083655D01*
X116226096Y-123083659D01*
X116226097Y-123083663D01*
X116325965Y-123297830D01*
X116325967Y-123297834D01*
X116461501Y-123491395D01*
X116461506Y-123491402D01*
X116628597Y-123658493D01*
X116628603Y-123658498D01*
X116814158Y-123788425D01*
X116857783Y-123843002D01*
X116864977Y-123912500D01*
X116833454Y-123974855D01*
X116814158Y-123991575D01*
X116628597Y-124121505D01*
X116461505Y-124288597D01*
X116325965Y-124482169D01*
X116325964Y-124482171D01*
X116226098Y-124696335D01*
X116226094Y-124696344D01*
X116164938Y-124924586D01*
X116164936Y-124924596D01*
X116144341Y-125159999D01*
X116144341Y-125160000D01*
X116164936Y-125395403D01*
X116164938Y-125395413D01*
X116226094Y-125623655D01*
X116226096Y-125623659D01*
X116226097Y-125623663D01*
X116325965Y-125837830D01*
X116325967Y-125837834D01*
X116461501Y-126031395D01*
X116461506Y-126031402D01*
X116628597Y-126198493D01*
X116628603Y-126198498D01*
X116814158Y-126328425D01*
X116857783Y-126383002D01*
X116864977Y-126452500D01*
X116833454Y-126514855D01*
X116814158Y-126531575D01*
X116628597Y-126661505D01*
X116461505Y-126828597D01*
X116325965Y-127022169D01*
X116325964Y-127022171D01*
X116226098Y-127236335D01*
X116226094Y-127236344D01*
X116164938Y-127464586D01*
X116164936Y-127464596D01*
X116144341Y-127699999D01*
X116144341Y-127700000D01*
X116164936Y-127935403D01*
X116164938Y-127935413D01*
X116226094Y-128163655D01*
X116226096Y-128163659D01*
X116226097Y-128163663D01*
X116325965Y-128377830D01*
X116325967Y-128377834D01*
X116434281Y-128532521D01*
X116461505Y-128571401D01*
X116628599Y-128738495D01*
X116708655Y-128794551D01*
X116822165Y-128874032D01*
X116822167Y-128874033D01*
X116822170Y-128874035D01*
X117036337Y-128973903D01*
X117264592Y-129035063D01*
X117452918Y-129051539D01*
X117499999Y-129055659D01*
X117500000Y-129055659D01*
X117500001Y-129055659D01*
X117539234Y-129052226D01*
X117735408Y-129035063D01*
X117963663Y-128973903D01*
X118177830Y-128874035D01*
X118371401Y-128738495D01*
X118538495Y-128571401D01*
X118674035Y-128377830D01*
X118773903Y-128163663D01*
X118835063Y-127935408D01*
X118855659Y-127700000D01*
X118835063Y-127464592D01*
X118808143Y-127364125D01*
X118809806Y-127294276D01*
X118840235Y-127244353D01*
X120588321Y-125496268D01*
X120649642Y-125462785D01*
X120719334Y-125467769D01*
X120775267Y-125509641D01*
X120799684Y-125575105D01*
X120800000Y-125583951D01*
X120800000Y-128813422D01*
X120780315Y-128880461D01*
X120727511Y-128926216D01*
X120658353Y-128936160D01*
X120628548Y-128927983D01*
X120496113Y-128873127D01*
X120251151Y-128814317D01*
X120000000Y-128794551D01*
X119748848Y-128814317D01*
X119503889Y-128873126D01*
X119271140Y-128969533D01*
X119056346Y-129101160D01*
X119056343Y-129101161D01*
X118864776Y-129264776D01*
X118701161Y-129456343D01*
X118701160Y-129456346D01*
X118569533Y-129671140D01*
X118473126Y-129903889D01*
X118414317Y-130148848D01*
X118394551Y-130400000D01*
X118414317Y-130651151D01*
X118461349Y-130847053D01*
X118457858Y-130916836D01*
X118417194Y-130973653D01*
X118352268Y-130999466D01*
X118340775Y-131000000D01*
X102859225Y-131000000D01*
X102792186Y-130980315D01*
X102746431Y-130927511D01*
X102736487Y-130858353D01*
X102738651Y-130847053D01*
X102785682Y-130651151D01*
X102785683Y-130651148D01*
X102805449Y-130400000D01*
X102785683Y-130148852D01*
X102726873Y-129903889D01*
X102630466Y-129671141D01*
X102630466Y-129671140D01*
X102498839Y-129456346D01*
X102498838Y-129456343D01*
X102461875Y-129413066D01*
X102335224Y-129264776D01*
X102208571Y-129156604D01*
X102143656Y-129101161D01*
X102143653Y-129101160D01*
X101928859Y-128969533D01*
X101696110Y-128873126D01*
X101451151Y-128814317D01*
X101200000Y-128794551D01*
X100948852Y-128814317D01*
X100948848Y-128814317D01*
X100948847Y-128814318D01*
X100749872Y-128862086D01*
X100680090Y-128858595D01*
X100623273Y-128817931D01*
X100597460Y-128753004D01*
X100596927Y-128741705D01*
X100472915Y-37603015D01*
X100492508Y-37535953D01*
X100545250Y-37490126D01*
X100614395Y-37480088D01*
X100661705Y-37497123D01*
X100871140Y-37625466D01*
X101103889Y-37721873D01*
X101348852Y-37780683D01*
X101600000Y-37800449D01*
X101851148Y-37780683D01*
X102096111Y-37721873D01*
X102328859Y-37625466D01*
X102543659Y-37493836D01*
X102735224Y-37330224D01*
X102898836Y-37138659D01*
X103030466Y-36923859D01*
X103126873Y-36691111D01*
X103185683Y-36446148D01*
X103205449Y-36195000D01*
X103185683Y-35943852D01*
X103126873Y-35698889D01*
X103098939Y-35631452D01*
X103091471Y-35561984D01*
X103122746Y-35499505D01*
X103182835Y-35463852D01*
X103213501Y-35460000D01*
X162216499Y-35460000D01*
X162283538Y-35479685D01*
G37*
%TD.AperFunction*%
%TD*%
M02*
