M48
; DRILL file {KiCad 7.0.10+dfsg-1} date Fri Feb 23 09:49:27 2024
; FORMAT={-:-/ absolute / inch / decimal}
; #@! TF.CreationDate,2024-02-23T09:49:27+01:00
; #@! TF.GenerationSoftware,Kicad,Pcbnew,7.0.10+dfsg-1
; #@! TF.FileFunction,Plated,1,2,PTH
FMAT,2
INCH
; #@! TA.AperFunction,Plated,PTH,ComponentDrill
T1C0.0315
; #@! TA.AperFunction,Plated,PTH,ComponentDrill
T2C0.0320
; #@! TA.AperFunction,Plated,PTH,ComponentDrill
T3C0.0354
; #@! TA.AperFunction,Plated,PTH,ComponentDrill
T4C0.0394
; #@! TA.AperFunction,Plated,PTH,ComponentDrill
T5C0.0402
; #@! TA.AperFunction,Plated,PTH,ViaDrill
T6C0.0709
%
G90
G05
T1
X5.3Y-1.6
X5.3Y-2.0
X5.7Y-1.7
X5.7Y-2.1
T2
X5.45Y-2.0
X5.5Y-2.075
X5.55Y-2.0
X5.875Y-1.85
X5.875Y-1.95
X5.95Y-1.9
X6.15Y-2.05
X6.2Y-2.125
X6.25Y-2.05
T3
X5.4242Y-1.5909
X5.5242Y-1.5909
X5.6992Y-1.5909
X5.7992Y-1.5909
T4
X4.626Y-4.3276
X4.626Y-4.4276
X4.626Y-4.5276
X4.626Y-4.6276
X4.626Y-4.7276
X4.626Y-4.8276
X4.626Y-4.9276
X4.626Y-5.0276
X5.2Y-2.275
X5.3Y-2.275
X5.4Y-2.275
X5.5Y-2.275
X6.0504Y-1.625
X6.3496Y-1.625
T5
X4.275Y-1.9
X4.275Y-2.0
X4.275Y-2.1
X4.275Y-2.2
X4.275Y-2.3
X4.275Y-2.4
X4.275Y-2.5
X4.275Y-2.6
X4.275Y-2.7
X4.275Y-2.8
X4.275Y-2.9
X4.275Y-3.0
X4.275Y-3.1
X4.275Y-3.2
X4.275Y-3.3
X4.275Y-3.4
X4.275Y-3.5
X4.275Y-3.6
X4.275Y-3.7
X4.275Y-3.8
X4.525Y-3.7909
X4.625Y-3.7909
X4.725Y-3.7909
X4.975Y-1.9
X4.975Y-2.0
X4.975Y-2.1
X4.975Y-2.2
X4.975Y-2.3
X4.975Y-2.4
X4.975Y-2.5
X4.975Y-2.6
X4.975Y-2.7
X4.975Y-2.8
X4.975Y-2.9
X4.975Y-3.0
X4.975Y-3.1
X4.975Y-3.2
X4.975Y-3.3
X4.975Y-3.4
X4.975Y-3.5
X4.975Y-3.6
X4.975Y-3.7
X4.975Y-3.8
X5.4Y-3.1
X5.4Y-3.2
X5.4Y-3.3
X5.4Y-3.4
X5.4Y-3.5
X5.4Y-3.6
X5.4Y-3.7
X5.4Y-3.8
X5.4Y-3.9
T6
X3.9843Y-5.1339
X4.0Y-1.425
X4.7244Y-5.1339
X6.45Y-1.425
X6.45Y-4.05
M30
