%TF.GenerationSoftware,KiCad,Pcbnew,7.0.10+dfsg-1*%
%TF.CreationDate,2024-02-23T09:49:32+01:00*%
%TF.ProjectId,chibi_v2_1,63686962-695f-4763-925f-312e6b696361,rev?*%
%TF.SameCoordinates,Original*%
%TF.FileFunction,Legend,Top*%
%TF.FilePolarity,Positive*%
%FSLAX46Y46*%
G04 Gerber Fmt 4.6, Leading zero omitted, Abs format (unit mm)*
G04 Created by KiCad (PCBNEW 7.0.10+dfsg-1) date 2024-02-23 09:49:32*
%MOMM*%
%LPD*%
G01*
G04 APERTURE LIST*
%ADD10C,0.150000*%
%ADD11C,0.120000*%
%ADD12C,0.203200*%
G04 APERTURE END LIST*
D10*
X135074819Y-45886666D02*
X134598628Y-46219999D01*
X135074819Y-46458094D02*
X134074819Y-46458094D01*
X134074819Y-46458094D02*
X134074819Y-46077142D01*
X134074819Y-46077142D02*
X134122438Y-45981904D01*
X134122438Y-45981904D02*
X134170057Y-45934285D01*
X134170057Y-45934285D02*
X134265295Y-45886666D01*
X134265295Y-45886666D02*
X134408152Y-45886666D01*
X134408152Y-45886666D02*
X134503390Y-45934285D01*
X134503390Y-45934285D02*
X134551009Y-45981904D01*
X134551009Y-45981904D02*
X134598628Y-46077142D01*
X134598628Y-46077142D02*
X134598628Y-46458094D01*
X134170057Y-45505713D02*
X134122438Y-45458094D01*
X134122438Y-45458094D02*
X134074819Y-45362856D01*
X134074819Y-45362856D02*
X134074819Y-45124761D01*
X134074819Y-45124761D02*
X134122438Y-45029523D01*
X134122438Y-45029523D02*
X134170057Y-44981904D01*
X134170057Y-44981904D02*
X134265295Y-44934285D01*
X134265295Y-44934285D02*
X134360533Y-44934285D01*
X134360533Y-44934285D02*
X134503390Y-44981904D01*
X134503390Y-44981904D02*
X135074819Y-45553332D01*
X135074819Y-45553332D02*
X135074819Y-44934285D01*
X117166666Y-107044819D02*
X117166666Y-107759104D01*
X117166666Y-107759104D02*
X117119047Y-107901961D01*
X117119047Y-107901961D02*
X117023809Y-107997200D01*
X117023809Y-107997200D02*
X116880952Y-108044819D01*
X116880952Y-108044819D02*
X116785714Y-108044819D01*
X117595238Y-107140057D02*
X117642857Y-107092438D01*
X117642857Y-107092438D02*
X117738095Y-107044819D01*
X117738095Y-107044819D02*
X117976190Y-107044819D01*
X117976190Y-107044819D02*
X118071428Y-107092438D01*
X118071428Y-107092438D02*
X118119047Y-107140057D01*
X118119047Y-107140057D02*
X118166666Y-107235295D01*
X118166666Y-107235295D02*
X118166666Y-107330533D01*
X118166666Y-107330533D02*
X118119047Y-107473390D01*
X118119047Y-107473390D02*
X117547619Y-108044819D01*
X117547619Y-108044819D02*
X118166666Y-108044819D01*
X156599047Y-48406009D02*
X156741904Y-48453628D01*
X156741904Y-48453628D02*
X156789523Y-48501247D01*
X156789523Y-48501247D02*
X156837142Y-48596485D01*
X156837142Y-48596485D02*
X156837142Y-48739342D01*
X156837142Y-48739342D02*
X156789523Y-48834580D01*
X156789523Y-48834580D02*
X156741904Y-48882200D01*
X156741904Y-48882200D02*
X156646666Y-48929819D01*
X156646666Y-48929819D02*
X156265714Y-48929819D01*
X156265714Y-48929819D02*
X156265714Y-47929819D01*
X156265714Y-47929819D02*
X156599047Y-47929819D01*
X156599047Y-47929819D02*
X156694285Y-47977438D01*
X156694285Y-47977438D02*
X156741904Y-48025057D01*
X156741904Y-48025057D02*
X156789523Y-48120295D01*
X156789523Y-48120295D02*
X156789523Y-48215533D01*
X156789523Y-48215533D02*
X156741904Y-48310771D01*
X156741904Y-48310771D02*
X156694285Y-48358390D01*
X156694285Y-48358390D02*
X156599047Y-48406009D01*
X156599047Y-48406009D02*
X156265714Y-48406009D01*
X157170476Y-47929819D02*
X157837142Y-47929819D01*
X157837142Y-47929819D02*
X157170476Y-48929819D01*
X157170476Y-48929819D02*
X157837142Y-48929819D01*
X158741904Y-48929819D02*
X158170476Y-48929819D01*
X158456190Y-48929819D02*
X158456190Y-47929819D01*
X158456190Y-47929819D02*
X158360952Y-48072676D01*
X158360952Y-48072676D02*
X158265714Y-48167914D01*
X158265714Y-48167914D02*
X158170476Y-48215533D01*
X160909048Y-43888866D02*
X161670953Y-43888866D01*
X161290000Y-44269819D02*
X161290000Y-43507914D01*
X145234819Y-48426666D02*
X144758628Y-48759999D01*
X145234819Y-48998094D02*
X144234819Y-48998094D01*
X144234819Y-48998094D02*
X144234819Y-48617142D01*
X144234819Y-48617142D02*
X144282438Y-48521904D01*
X144282438Y-48521904D02*
X144330057Y-48474285D01*
X144330057Y-48474285D02*
X144425295Y-48426666D01*
X144425295Y-48426666D02*
X144568152Y-48426666D01*
X144568152Y-48426666D02*
X144663390Y-48474285D01*
X144663390Y-48474285D02*
X144711009Y-48521904D01*
X144711009Y-48521904D02*
X144758628Y-48617142D01*
X144758628Y-48617142D02*
X144758628Y-48998094D01*
X145234819Y-47474285D02*
X145234819Y-48045713D01*
X145234819Y-47759999D02*
X144234819Y-47759999D01*
X144234819Y-47759999D02*
X144377676Y-47855237D01*
X144377676Y-47855237D02*
X144472914Y-47950475D01*
X144472914Y-47950475D02*
X144520533Y-48045713D01*
X132771428Y-69093819D02*
X132771428Y-68093819D01*
X132771428Y-68093819D02*
X133009523Y-68093819D01*
X133009523Y-68093819D02*
X133152380Y-68141438D01*
X133152380Y-68141438D02*
X133247618Y-68236676D01*
X133247618Y-68236676D02*
X133295237Y-68331914D01*
X133295237Y-68331914D02*
X133342856Y-68522390D01*
X133342856Y-68522390D02*
X133342856Y-68665247D01*
X133342856Y-68665247D02*
X133295237Y-68855723D01*
X133295237Y-68855723D02*
X133247618Y-68950961D01*
X133247618Y-68950961D02*
X133152380Y-69046200D01*
X133152380Y-69046200D02*
X133009523Y-69093819D01*
X133009523Y-69093819D02*
X132771428Y-69093819D01*
X133771428Y-69093819D02*
X133771428Y-68427152D01*
X133771428Y-68093819D02*
X133723809Y-68141438D01*
X133723809Y-68141438D02*
X133771428Y-68189057D01*
X133771428Y-68189057D02*
X133819047Y-68141438D01*
X133819047Y-68141438D02*
X133771428Y-68093819D01*
X133771428Y-68093819D02*
X133771428Y-68189057D01*
X134199999Y-69046200D02*
X134295237Y-69093819D01*
X134295237Y-69093819D02*
X134485713Y-69093819D01*
X134485713Y-69093819D02*
X134580951Y-69046200D01*
X134580951Y-69046200D02*
X134628570Y-68950961D01*
X134628570Y-68950961D02*
X134628570Y-68903342D01*
X134628570Y-68903342D02*
X134580951Y-68808104D01*
X134580951Y-68808104D02*
X134485713Y-68760485D01*
X134485713Y-68760485D02*
X134342856Y-68760485D01*
X134342856Y-68760485D02*
X134247618Y-68712866D01*
X134247618Y-68712866D02*
X134199999Y-68617628D01*
X134199999Y-68617628D02*
X134199999Y-68570009D01*
X134199999Y-68570009D02*
X134247618Y-68474771D01*
X134247618Y-68474771D02*
X134342856Y-68427152D01*
X134342856Y-68427152D02*
X134485713Y-68427152D01*
X134485713Y-68427152D02*
X134580951Y-68474771D01*
X135057142Y-68427152D02*
X135057142Y-69427152D01*
X135057142Y-68474771D02*
X135152380Y-68427152D01*
X135152380Y-68427152D02*
X135342856Y-68427152D01*
X135342856Y-68427152D02*
X135438094Y-68474771D01*
X135438094Y-68474771D02*
X135485713Y-68522390D01*
X135485713Y-68522390D02*
X135533332Y-68617628D01*
X135533332Y-68617628D02*
X135533332Y-68903342D01*
X135533332Y-68903342D02*
X135485713Y-68998580D01*
X135485713Y-68998580D02*
X135438094Y-69046200D01*
X135438094Y-69046200D02*
X135342856Y-69093819D01*
X135342856Y-69093819D02*
X135152380Y-69093819D01*
X135152380Y-69093819D02*
X135057142Y-69046200D01*
X136104761Y-69093819D02*
X136009523Y-69046200D01*
X136009523Y-69046200D02*
X135961904Y-68950961D01*
X135961904Y-68950961D02*
X135961904Y-68093819D01*
X136914285Y-69093819D02*
X136914285Y-68570009D01*
X136914285Y-68570009D02*
X136866666Y-68474771D01*
X136866666Y-68474771D02*
X136771428Y-68427152D01*
X136771428Y-68427152D02*
X136580952Y-68427152D01*
X136580952Y-68427152D02*
X136485714Y-68474771D01*
X136914285Y-69046200D02*
X136819047Y-69093819D01*
X136819047Y-69093819D02*
X136580952Y-69093819D01*
X136580952Y-69093819D02*
X136485714Y-69046200D01*
X136485714Y-69046200D02*
X136438095Y-68950961D01*
X136438095Y-68950961D02*
X136438095Y-68855723D01*
X136438095Y-68855723D02*
X136485714Y-68760485D01*
X136485714Y-68760485D02*
X136580952Y-68712866D01*
X136580952Y-68712866D02*
X136819047Y-68712866D01*
X136819047Y-68712866D02*
X136914285Y-68665247D01*
X137295238Y-68427152D02*
X137533333Y-69093819D01*
X137771428Y-68427152D02*
X137533333Y-69093819D01*
X137533333Y-69093819D02*
X137438095Y-69331914D01*
X137438095Y-69331914D02*
X137390476Y-69379533D01*
X137390476Y-69379533D02*
X137295238Y-69427152D01*
X138676190Y-69093819D02*
X138104762Y-69093819D01*
X138390476Y-69093819D02*
X138390476Y-68093819D01*
X138390476Y-68093819D02*
X138295238Y-68236676D01*
X138295238Y-68236676D02*
X138200000Y-68331914D01*
X138200000Y-68331914D02*
X138104762Y-68379533D01*
D11*
%TO.C,R2*%
X134620000Y-49760000D02*
X134620000Y-48990000D01*
X133250000Y-48990000D02*
X135990000Y-48990000D01*
X135990000Y-48990000D02*
X135990000Y-42450000D01*
X133250000Y-42450000D02*
X133250000Y-48990000D01*
X135990000Y-42450000D02*
X133250000Y-42450000D01*
X134620000Y-41680000D02*
X134620000Y-42450000D01*
%TO.C,D1*%
X140755000Y-39200000D02*
X140755000Y-37480000D01*
X140755000Y-37480000D02*
X137335000Y-37480000D01*
X140635000Y-39200000D02*
X140635000Y-37480000D01*
X140515000Y-39200000D02*
X140515000Y-37480000D01*
X140315000Y-39330000D02*
X140315000Y-39330000D01*
X140315000Y-39330000D02*
X140315000Y-39200000D01*
X140315000Y-39200000D02*
X140315000Y-39330000D01*
X140315000Y-39200000D02*
X140315000Y-39200000D01*
X140005000Y-37480000D02*
X140005000Y-36080000D01*
X140005000Y-36080000D02*
X138085000Y-36080000D01*
X138085000Y-37480000D02*
X140005000Y-37480000D01*
X138085000Y-36080000D02*
X138085000Y-37480000D01*
X137775000Y-39330000D02*
X137775000Y-39330000D01*
X137775000Y-39330000D02*
X137775000Y-39200000D01*
X137775000Y-39200000D02*
X137775000Y-39330000D01*
X137775000Y-39200000D02*
X137775000Y-39200000D01*
X137335000Y-39200000D02*
X140755000Y-39200000D01*
X137335000Y-37480000D02*
X137335000Y-39200000D01*
%TO.C,J2*%
X116170000Y-108590000D02*
X117500000Y-108590000D01*
X116170000Y-109920000D02*
X116170000Y-108590000D01*
X116170000Y-111190000D02*
X116170000Y-129030000D01*
X116170000Y-111190000D02*
X118830000Y-111190000D01*
X116170000Y-129030000D02*
X118830000Y-129030000D01*
X118830000Y-111190000D02*
X118830000Y-129030000D01*
%TO.C,D2*%
X147740000Y-39200000D02*
X147740000Y-37480000D01*
X147740000Y-37480000D02*
X144320000Y-37480000D01*
X147620000Y-39200000D02*
X147620000Y-37480000D01*
X147500000Y-39200000D02*
X147500000Y-37480000D01*
X147300000Y-39330000D02*
X147300000Y-39330000D01*
X147300000Y-39330000D02*
X147300000Y-39200000D01*
X147300000Y-39200000D02*
X147300000Y-39330000D01*
X147300000Y-39200000D02*
X147300000Y-39200000D01*
X146990000Y-37480000D02*
X146990000Y-36080000D01*
X146990000Y-36080000D02*
X145070000Y-36080000D01*
X145070000Y-37480000D02*
X146990000Y-37480000D01*
X145070000Y-36080000D02*
X145070000Y-37480000D01*
X144760000Y-39330000D02*
X144760000Y-39330000D01*
X144760000Y-39330000D02*
X144760000Y-39200000D01*
X144760000Y-39200000D02*
X144760000Y-39330000D01*
X144760000Y-39200000D02*
X144760000Y-39200000D01*
X144320000Y-39200000D02*
X147740000Y-39200000D01*
X144320000Y-37480000D02*
X144320000Y-39200000D01*
%TO.C,BZ1*%
X163580000Y-41275000D02*
G75*
G03*
X151380000Y-41275000I-6100000J0D01*
G01*
X151380000Y-41275000D02*
G75*
G03*
X163580000Y-41275000I6100000J0D01*
G01*
%TO.C,R1*%
X144780000Y-52300000D02*
X144780000Y-51530000D01*
X143410000Y-51530000D02*
X146150000Y-51530000D01*
X146150000Y-51530000D02*
X146150000Y-44990000D01*
X143410000Y-44990000D02*
X143410000Y-51530000D01*
X146150000Y-44990000D02*
X143410000Y-44990000D01*
X144780000Y-44220000D02*
X144780000Y-44990000D01*
D12*
%TO.C,Q3*%
X147625000Y-46160000D02*
X147625000Y-50360000D01*
X151525000Y-46860000D02*
G75*
G03*
X147625000Y-46160000I-2253944J-1343401D01*
G01*
X147625001Y-50359999D02*
G75*
G03*
X151524999Y-49660000I1655264J1992097D01*
G01*
%TO.C,Q2*%
X141800000Y-49200000D02*
X137600000Y-49200000D01*
X141100000Y-53100000D02*
G75*
G03*
X141800000Y-49200000I-1343401J2253944D01*
G01*
X137600001Y-49200001D02*
G75*
G03*
X138300000Y-53099999I1992097J-1655264D01*
G01*
%TO.C,Q1*%
X159580000Y-50470000D02*
X155380000Y-50470000D01*
X158880000Y-54370000D02*
G75*
G03*
X159580000Y-50470000I-1343401J2253944D01*
G01*
X155380001Y-50470001D02*
G75*
G03*
X156080000Y-54369999I1992097J-1655264D01*
G01*
D11*
%TO.C,Display1*%
X122300000Y-56085000D02*
X149700000Y-56085000D01*
X122300000Y-83385000D02*
X122300000Y-56085000D01*
X122722000Y-59380000D02*
X145822000Y-59380000D01*
X122722000Y-75980000D02*
X122722000Y-59380000D01*
X131001000Y-56574000D02*
X131001000Y-58987000D01*
X131001000Y-56574000D02*
X140780000Y-56574000D01*
X140780000Y-56574000D02*
X140780000Y-58987000D01*
X140780000Y-58987000D02*
X131001000Y-58987000D01*
X145822000Y-59380000D02*
X148908000Y-59380000D01*
X145822000Y-75980000D02*
X122722000Y-75980000D01*
X145822000Y-75980000D02*
X149162000Y-76005000D01*
X149162000Y-59368000D02*
X148908000Y-59380000D01*
X149162000Y-76005000D02*
X149162000Y-59368000D01*
X149700000Y-56085000D02*
X149700000Y-83385000D01*
X149700000Y-83385000D02*
X122300000Y-83385000D01*
%TO.C,G\u002A\u002A\u002A*%
G36*
X143134118Y-92621841D02*
G01*
X143115441Y-92640517D01*
X143096765Y-92621841D01*
X143115441Y-92603164D01*
X143134118Y-92621841D01*
G37*
G36*
X154713529Y-98598311D02*
G01*
X154694853Y-98616988D01*
X154676177Y-98598311D01*
X154694853Y-98579635D01*
X154713529Y-98598311D01*
G37*
G36*
X155161765Y-90156547D02*
G01*
X155143088Y-90175223D01*
X155124412Y-90156547D01*
X155143088Y-90137870D01*
X155161765Y-90156547D01*
G37*
G36*
X155796765Y-90455370D02*
G01*
X155778088Y-90474047D01*
X155759412Y-90455370D01*
X155778088Y-90436694D01*
X155796765Y-90455370D01*
G37*
G36*
X158598235Y-86906841D02*
G01*
X158579559Y-86925517D01*
X158560882Y-86906841D01*
X158579559Y-86888164D01*
X158598235Y-86906841D01*
G37*
G36*
X159195882Y-101213017D02*
G01*
X159177206Y-101231694D01*
X159158529Y-101213017D01*
X159177206Y-101194341D01*
X159195882Y-101213017D01*
G37*
G36*
X163192647Y-96170370D02*
G01*
X163173971Y-96189047D01*
X163155294Y-96170370D01*
X163173971Y-96151694D01*
X163192647Y-96170370D01*
G37*
G36*
X155865699Y-90489156D02*
G01*
X155905799Y-90526767D01*
X155897573Y-90548389D01*
X155892352Y-90548753D01*
X155860758Y-90522222D01*
X155849227Y-90505628D01*
X155844825Y-90480068D01*
X155865699Y-90489156D01*
G37*
G36*
X144904767Y-101170167D02*
G01*
X144945735Y-101194341D01*
X144942038Y-101224195D01*
X144886021Y-101223814D01*
X144796324Y-101194341D01*
X144751393Y-101171243D01*
X144771806Y-101161909D01*
X144822134Y-101159613D01*
X144904767Y-101170167D01*
G37*
G36*
X148699703Y-83143689D02*
G01*
X148699706Y-83145400D01*
X148690519Y-83216779D01*
X148662999Y-83215782D01*
X148641665Y-83186968D01*
X148641692Y-83128838D01*
X148658137Y-83104792D01*
X148690179Y-83090841D01*
X148699703Y-83143689D01*
G37*
G36*
X162891000Y-96012340D02*
G01*
X162957638Y-96032865D01*
X162961116Y-96070884D01*
X162935409Y-96093049D01*
X162887587Y-96085913D01*
X162857879Y-96060009D01*
X162836192Y-96019807D01*
X162877016Y-96011472D01*
X162891000Y-96012340D01*
G37*
G36*
X142703493Y-89480661D02*
G01*
X142752370Y-89540944D01*
X142784278Y-89596025D01*
X142788919Y-89610596D01*
X142749602Y-89598800D01*
X142713440Y-89589093D01*
X142668374Y-89559704D01*
X142668953Y-89537396D01*
X142658463Y-89508082D01*
X142629853Y-89502870D01*
X142589007Y-89486007D01*
X142591492Y-89467149D01*
X142639102Y-89445151D01*
X142703493Y-89480661D01*
G37*
G36*
X144093995Y-99975297D02*
G01*
X144093356Y-100022735D01*
X144024150Y-100096327D01*
X143957375Y-100147395D01*
X143873856Y-100192933D01*
X143826893Y-100188400D01*
X143825565Y-100186488D01*
X143833642Y-100153948D01*
X143860296Y-100148458D01*
X143911316Y-100124023D01*
X143918529Y-100101414D01*
X143944318Y-100052670D01*
X144002265Y-100002601D01*
X144063241Y-99972144D01*
X144093995Y-99975297D01*
G37*
G36*
X155254756Y-90191649D02*
G01*
X155343711Y-90230226D01*
X155455838Y-90282489D01*
X155569557Y-90338098D01*
X155663288Y-90386711D01*
X155715451Y-90417986D01*
X155718189Y-90420373D01*
X155721207Y-90437168D01*
X155666067Y-90420467D01*
X155559910Y-90373071D01*
X155423235Y-90304716D01*
X155310690Y-90244284D01*
X155234572Y-90199188D01*
X155208817Y-90177788D01*
X155210551Y-90177101D01*
X155254756Y-90191649D01*
G37*
G36*
X159118125Y-94779571D02*
G01*
X159211272Y-94807003D01*
X159261772Y-94848951D01*
X159263946Y-94856112D01*
X159252986Y-94936690D01*
X159205007Y-95003701D01*
X159144618Y-95026385D01*
X159083277Y-95013813D01*
X158985269Y-94988750D01*
X158962427Y-94982445D01*
X158860407Y-94942287D01*
X158825856Y-94891571D01*
X158851542Y-94818878D01*
X158855166Y-94813054D01*
X158912835Y-94779727D01*
X159009567Y-94769522D01*
X159118125Y-94779571D01*
G37*
G36*
X148310874Y-83164858D02*
G01*
X148432903Y-83192831D01*
X148571918Y-83235741D01*
X148608885Y-83249216D01*
X148710632Y-83294619D01*
X148757544Y-83339614D01*
X148767215Y-83402088D01*
X148766825Y-83409767D01*
X148746384Y-83508065D01*
X148706584Y-83578534D01*
X148667118Y-83597737D01*
X148618027Y-83585544D01*
X148532578Y-83560893D01*
X148531618Y-83560604D01*
X148414072Y-83505381D01*
X148302644Y-83420838D01*
X148217182Y-83325628D01*
X148177534Y-83238405D01*
X148176765Y-83227108D01*
X148184897Y-83172751D01*
X148223518Y-83155470D01*
X148310874Y-83164858D01*
G37*
G36*
X159392288Y-92400336D02*
G01*
X159487224Y-92452297D01*
X159520636Y-92523786D01*
X159514892Y-92554571D01*
X159524908Y-92583613D01*
X159552638Y-92578589D01*
X159596482Y-92583102D01*
X159601400Y-92632368D01*
X159567113Y-92707210D01*
X159554768Y-92724561D01*
X159484740Y-92783830D01*
X159417463Y-92769286D01*
X159387545Y-92739801D01*
X159364794Y-92684398D01*
X159372494Y-92663121D01*
X159367523Y-92651792D01*
X159335132Y-92661095D01*
X159273415Y-92657638D01*
X159242651Y-92602026D01*
X159249442Y-92512726D01*
X159265980Y-92467626D01*
X159311566Y-92401600D01*
X159374433Y-92395392D01*
X159392288Y-92400336D01*
G37*
G36*
X159037000Y-86248786D02*
G01*
X159068015Y-86266583D01*
X159071616Y-86273898D01*
X159052802Y-86316437D01*
X158990743Y-86393987D01*
X158897737Y-86491604D01*
X158871825Y-86516693D01*
X158765617Y-86619381D01*
X158623607Y-86758720D01*
X158462501Y-86918221D01*
X158299006Y-87081394D01*
X158258930Y-87121620D01*
X158079988Y-87297425D01*
X157944803Y-87419752D01*
X157848251Y-87491619D01*
X157785211Y-87516044D01*
X157750560Y-87496045D01*
X157739177Y-87434642D01*
X157739118Y-87427927D01*
X157765101Y-87302214D01*
X157836775Y-87146938D01*
X157932178Y-86999699D01*
X157986067Y-86908214D01*
X158043686Y-86783118D01*
X158067958Y-86720329D01*
X158114428Y-86607382D01*
X158164358Y-86543879D01*
X158239516Y-86506835D01*
X158282230Y-86494081D01*
X158394485Y-86445593D01*
X158462595Y-86381147D01*
X158465656Y-86375072D01*
X158519006Y-86316564D01*
X158623821Y-86281837D01*
X158671098Y-86274389D01*
X158850564Y-86252674D01*
X158968524Y-86244145D01*
X159037000Y-86248786D01*
G37*
G36*
X143157342Y-100659047D02*
G01*
X143234345Y-100722596D01*
X143325479Y-100807518D01*
X143413137Y-100896637D01*
X143479708Y-100972777D01*
X143507585Y-101018762D01*
X143507647Y-101019890D01*
X143475471Y-101032154D01*
X143395723Y-101026864D01*
X143371512Y-101022775D01*
X143286822Y-101013082D01*
X143259255Y-101032112D01*
X143287640Y-101088074D01*
X143351030Y-101166326D01*
X143365752Y-101187761D01*
X143362464Y-101203924D01*
X143332633Y-101215555D01*
X143267729Y-101223397D01*
X143159218Y-101228189D01*
X142998570Y-101230672D01*
X142777253Y-101231588D01*
X142598289Y-101231694D01*
X142361539Y-101230990D01*
X142152136Y-101229020D01*
X141980827Y-101225998D01*
X141858358Y-101222134D01*
X141795475Y-101217644D01*
X141789412Y-101215685D01*
X141812530Y-101179961D01*
X141849399Y-101139690D01*
X141914914Y-101101966D01*
X141954602Y-101117230D01*
X142023329Y-101146503D01*
X142109395Y-101159962D01*
X142177588Y-101159520D01*
X142294802Y-101155269D01*
X142443520Y-101148217D01*
X142606225Y-101139374D01*
X142765399Y-101129748D01*
X142903528Y-101120346D01*
X143003092Y-101112177D01*
X143046577Y-101106250D01*
X143047016Y-101105991D01*
X143043144Y-101070156D01*
X143026266Y-100984640D01*
X143013080Y-100925101D01*
X142996973Y-100777814D01*
X143024384Y-100678853D01*
X143092856Y-100635433D01*
X143112081Y-100634047D01*
X143157342Y-100659047D01*
G37*
G36*
X154956324Y-98616988D02*
G01*
X154946186Y-98648775D01*
X154911837Y-98656966D01*
X154868513Y-98662404D01*
X154892095Y-98679799D01*
X154918971Y-98691694D01*
X154961245Y-98717157D01*
X154952165Y-98726421D01*
X154926462Y-98759701D01*
X154928233Y-98821005D01*
X154931296Y-98906367D01*
X154921322Y-99034053D01*
X154905097Y-99147844D01*
X154887912Y-99270462D01*
X154868468Y-99447141D01*
X154848782Y-99657357D01*
X154830869Y-99880588D01*
X154825141Y-99961694D01*
X154806823Y-100224956D01*
X154791454Y-100425160D01*
X154777693Y-100573834D01*
X154764201Y-100682502D01*
X154749636Y-100762689D01*
X154732657Y-100825923D01*
X154720490Y-100861232D01*
X154702493Y-100959984D01*
X154703152Y-101079985D01*
X154704441Y-101091620D01*
X154711009Y-101183189D01*
X154692412Y-101222737D01*
X154637300Y-101231661D01*
X154630146Y-101231694D01*
X154566943Y-101218249D01*
X154524289Y-101165451D01*
X154491660Y-101075056D01*
X154469594Y-100972213D01*
X154447051Y-100818134D01*
X154427109Y-100636205D01*
X154416057Y-100500634D01*
X154402500Y-100329288D01*
X154387701Y-100184651D01*
X154373590Y-100083527D01*
X154363593Y-100044354D01*
X154359874Y-99983925D01*
X154380273Y-99858502D01*
X154423609Y-99673384D01*
X154488701Y-99433867D01*
X154535045Y-99275170D01*
X154589796Y-99117835D01*
X154621247Y-99062791D01*
X154797393Y-99062791D01*
X154802503Y-99065223D01*
X154836591Y-99038927D01*
X154844265Y-99027870D01*
X154853783Y-98992949D01*
X154848674Y-98990517D01*
X154814586Y-99016813D01*
X154806912Y-99027870D01*
X154797393Y-99062791D01*
X154621247Y-99062791D01*
X154641196Y-99027878D01*
X154681282Y-99000005D01*
X154739172Y-98963576D01*
X154750882Y-98934128D01*
X154781238Y-98882040D01*
X154815203Y-98861769D01*
X154857256Y-98836248D01*
X154830074Y-98806549D01*
X154826665Y-98804418D01*
X154793817Y-98765823D01*
X154806545Y-98701232D01*
X154817573Y-98675692D01*
X154871292Y-98596119D01*
X154924783Y-98585303D01*
X154956324Y-98616988D01*
G37*
G36*
X155471657Y-97103265D02*
G01*
X155474592Y-97127599D01*
X155431474Y-97179353D01*
X155375790Y-97234929D01*
X155312161Y-97311043D01*
X155232621Y-97425404D01*
X155147119Y-97561027D01*
X155065604Y-97700925D01*
X154998024Y-97828114D01*
X154954328Y-97925606D01*
X154943480Y-97973035D01*
X154917415Y-98007991D01*
X154867702Y-98037683D01*
X154794690Y-98095452D01*
X154761187Y-98168868D01*
X154776406Y-98232383D01*
X154792530Y-98246112D01*
X154818748Y-98275981D01*
X154777850Y-98301475D01*
X154722719Y-98338224D01*
X154720597Y-98370269D01*
X154771144Y-98374419D01*
X154778897Y-98372458D01*
X154796010Y-98373014D01*
X154752985Y-98397889D01*
X154740662Y-98403876D01*
X154676316Y-98445085D01*
X154661467Y-98477578D01*
X154662615Y-98478916D01*
X154659622Y-98521560D01*
X154620354Y-98579406D01*
X154579367Y-98634529D01*
X154593812Y-98654170D01*
X154605020Y-98654913D01*
X154637271Y-98662519D01*
X154608837Y-98686351D01*
X154569829Y-98732514D01*
X154568178Y-98751146D01*
X154561006Y-98808109D01*
X154537271Y-98878458D01*
X154509496Y-98953774D01*
X154501515Y-98990517D01*
X154487063Y-99032364D01*
X154447553Y-99110022D01*
X154441266Y-99121253D01*
X154384253Y-99233709D01*
X154341180Y-99336032D01*
X154297304Y-99409921D01*
X154247542Y-99438753D01*
X154200611Y-99424077D01*
X154196518Y-99410738D01*
X154191957Y-99366613D01*
X154163249Y-99284120D01*
X154106114Y-99151815D01*
X154071329Y-99075868D01*
X154027629Y-98975949D01*
X154001214Y-98904877D01*
X153997724Y-98889103D01*
X153983985Y-98838205D01*
X153950951Y-98749857D01*
X153942398Y-98729047D01*
X153907714Y-98642703D01*
X153890291Y-98592742D01*
X153889769Y-98588973D01*
X153891377Y-98549050D01*
X153891765Y-98500573D01*
X153875399Y-98442201D01*
X153821194Y-98439965D01*
X153736560Y-98440247D01*
X153699797Y-98426217D01*
X153676064Y-98400947D01*
X153721584Y-98392906D01*
X153723677Y-98392870D01*
X153772742Y-98386366D01*
X153752719Y-98362397D01*
X153742353Y-98355517D01*
X153714137Y-98325636D01*
X153730141Y-98318736D01*
X153783241Y-98294318D01*
X153860252Y-98234440D01*
X153880746Y-98215444D01*
X154000802Y-98103669D01*
X154144008Y-97977789D01*
X154319790Y-97829854D01*
X154537568Y-97651917D01*
X154770665Y-97464818D01*
X154895593Y-97372958D01*
X155037507Y-97280606D01*
X155179513Y-97197342D01*
X155304717Y-97132747D01*
X155396224Y-97096401D01*
X155427854Y-97092129D01*
X155471657Y-97103265D01*
G37*
G36*
X143936397Y-92861380D02*
G01*
X144093686Y-92889940D01*
X144248302Y-92926432D01*
X144329412Y-92950353D01*
X144441108Y-92999181D01*
X144584288Y-93078324D01*
X144731758Y-93171858D01*
X144833677Y-93245659D01*
X145078579Y-93442064D01*
X145261230Y-93598860D01*
X145382313Y-93716689D01*
X145442516Y-93796191D01*
X145450000Y-93821753D01*
X145470457Y-93861578D01*
X145523655Y-93942280D01*
X145585829Y-94029515D01*
X145688721Y-94209207D01*
X145721882Y-94381378D01*
X145686885Y-94560801D01*
X145651197Y-94644015D01*
X145540603Y-94788930D01*
X145376948Y-94889047D01*
X145168043Y-94942872D01*
X144921699Y-94948912D01*
X144645731Y-94905673D01*
X144497500Y-94864608D01*
X144285484Y-94793423D01*
X144126503Y-94727445D01*
X144000668Y-94655649D01*
X143888095Y-94567008D01*
X143790222Y-94472478D01*
X143695089Y-94379209D01*
X143618939Y-94311827D01*
X143577445Y-94284144D01*
X143576402Y-94284047D01*
X143537907Y-94253822D01*
X143495655Y-94183880D01*
X143464341Y-94105321D01*
X143458660Y-94049245D01*
X143462446Y-94042876D01*
X143459615Y-94026098D01*
X143438946Y-94028802D01*
X143377210Y-94008994D01*
X143311736Y-93932256D01*
X143249410Y-93815603D01*
X143197117Y-93676054D01*
X143161743Y-93530622D01*
X143161612Y-93529103D01*
X143401406Y-93529103D01*
X143433781Y-93670623D01*
X143469185Y-93722474D01*
X143531080Y-93808551D01*
X143565085Y-93877601D01*
X143598269Y-93935567D01*
X143621264Y-93947870D01*
X143659684Y-93977743D01*
X143708144Y-94050593D01*
X143713063Y-94059880D01*
X143796242Y-94182853D01*
X143915653Y-94314646D01*
X144049170Y-94434231D01*
X144174664Y-94520579D01*
X144220633Y-94542246D01*
X144329072Y-94584677D01*
X144418708Y-94622074D01*
X144422794Y-94623893D01*
X144552198Y-94668324D01*
X144725893Y-94710510D01*
X144913563Y-94744427D01*
X145084888Y-94764049D01*
X145140524Y-94766523D01*
X145262499Y-94762930D01*
X145332670Y-94742565D01*
X145373293Y-94698492D01*
X145376316Y-94693020D01*
X145394040Y-94625263D01*
X145403809Y-94518191D01*
X145405998Y-94393758D01*
X145400980Y-94273921D01*
X145389128Y-94180633D01*
X145370818Y-94135850D01*
X145366812Y-94134635D01*
X145340046Y-94104993D01*
X145338100Y-94087944D01*
X145310194Y-94033766D01*
X145234818Y-93946841D01*
X145124829Y-93838483D01*
X144993088Y-93720005D01*
X144852452Y-93602722D01*
X144715779Y-93497948D01*
X144595929Y-93416997D01*
X144540270Y-93385950D01*
X144424811Y-93331583D01*
X144336992Y-93294965D01*
X144297476Y-93284225D01*
X144242010Y-93277792D01*
X144145723Y-93250958D01*
X144036824Y-93211889D01*
X144011912Y-93201584D01*
X143937326Y-93175998D01*
X143832297Y-93146900D01*
X143720564Y-93119908D01*
X143625867Y-93100635D01*
X143571947Y-93094696D01*
X143567240Y-93096409D01*
X143542760Y-93131153D01*
X143506416Y-93179967D01*
X143479820Y-93224927D01*
X143493763Y-93227263D01*
X143537363Y-93240026D01*
X143610774Y-93295334D01*
X143697889Y-93376802D01*
X143782604Y-93468046D01*
X143848811Y-93552680D01*
X143880406Y-93614321D01*
X143881177Y-93621380D01*
X143910986Y-93660072D01*
X143990504Y-93726323D01*
X144104861Y-93810129D01*
X144239188Y-93901486D01*
X144378618Y-93990392D01*
X144508282Y-94066843D01*
X144613312Y-94120835D01*
X144640306Y-94132123D01*
X144749410Y-94162064D01*
X144834029Y-94171988D01*
X144899138Y-94191661D01*
X144983058Y-94241032D01*
X145068089Y-94305624D01*
X145136527Y-94370962D01*
X145170669Y-94422572D01*
X145164984Y-94442606D01*
X145114104Y-94445341D01*
X145008542Y-94435012D01*
X144866587Y-94414562D01*
X144706530Y-94386929D01*
X144546659Y-94355053D01*
X144405265Y-94321875D01*
X144391780Y-94318314D01*
X144204917Y-94241006D01*
X144006567Y-94113461D01*
X143818168Y-93952500D01*
X143661159Y-93774944D01*
X143616157Y-93709741D01*
X143542580Y-93579338D01*
X143488987Y-93457016D01*
X143466936Y-93369170D01*
X143466926Y-93368900D01*
X143462805Y-93294372D01*
X143453623Y-93290465D01*
X143432941Y-93350223D01*
X143401406Y-93529103D01*
X143161612Y-93529103D01*
X143150173Y-93396326D01*
X143156815Y-93331547D01*
X143198912Y-93201692D01*
X143263291Y-93085910D01*
X143336251Y-93004305D01*
X143398635Y-92976694D01*
X143457686Y-92962333D01*
X143470294Y-92943697D01*
X143504796Y-92907195D01*
X143597425Y-92871071D01*
X143713088Y-92845025D01*
X143801257Y-92844995D01*
X143936397Y-92861380D01*
G37*
G36*
X162660043Y-95994863D02*
G01*
X162725989Y-96010845D01*
X162723966Y-96026858D01*
X162687338Y-96042950D01*
X162638280Y-96065270D01*
X162657921Y-96073154D01*
X162681249Y-96074362D01*
X162735575Y-96086012D01*
X162731933Y-96108210D01*
X162684495Y-96132090D01*
X162607432Y-96148786D01*
X162557647Y-96151694D01*
X162458927Y-96160504D01*
X162396053Y-96182346D01*
X162389559Y-96189047D01*
X162337500Y-96219118D01*
X162284634Y-96226374D01*
X162219759Y-96241889D01*
X162112990Y-96282365D01*
X161983731Y-96338668D01*
X161851386Y-96401660D01*
X161735360Y-96462207D01*
X161655057Y-96511172D01*
X161630049Y-96534561D01*
X161587055Y-96560071D01*
X161563750Y-96562576D01*
X161516780Y-96587690D01*
X161431090Y-96655713D01*
X161319702Y-96755669D01*
X161218531Y-96853555D01*
X160996730Y-97068521D01*
X160805124Y-97238060D01*
X160627376Y-97375189D01*
X160447148Y-97492923D01*
X160335147Y-97557394D01*
X160232444Y-97622373D01*
X160118341Y-97705796D01*
X160093181Y-97725957D01*
X160004948Y-97790806D01*
X159935674Y-97828612D01*
X159918867Y-97832576D01*
X159867779Y-97852207D01*
X159862010Y-97860591D01*
X159826816Y-97894415D01*
X159748135Y-97955012D01*
X159644912Y-98029216D01*
X159536095Y-98103865D01*
X159440633Y-98165793D01*
X159377472Y-98201837D01*
X159364704Y-98206106D01*
X159319185Y-98228112D01*
X159287893Y-98252797D01*
X159190817Y-98334729D01*
X159110590Y-98384401D01*
X159011948Y-98423080D01*
X158997674Y-98427836D01*
X158909685Y-98464678D01*
X158862330Y-98499701D01*
X158859706Y-98507114D01*
X158828044Y-98540330D01*
X158766324Y-98564296D01*
X158696427Y-98592191D01*
X158672941Y-98618301D01*
X158643243Y-98655040D01*
X158571666Y-98701014D01*
X158570221Y-98701761D01*
X158314104Y-98833943D01*
X158116839Y-98937122D01*
X157970751Y-99016286D01*
X157868166Y-99076421D01*
X157801410Y-99122516D01*
X157762809Y-99159558D01*
X157744689Y-99192534D01*
X157739376Y-99226433D01*
X157739118Y-99241913D01*
X157719212Y-99297087D01*
X157649122Y-99337234D01*
X157580368Y-99357847D01*
X157454428Y-99383229D01*
X157339743Y-99395282D01*
X157317341Y-99395386D01*
X157231861Y-99401543D01*
X157186664Y-99418461D01*
X157187669Y-99456948D01*
X157239418Y-99500506D01*
X157320171Y-99536130D01*
X157407876Y-99550811D01*
X157491305Y-99562899D01*
X157533323Y-99587593D01*
X157584924Y-99616241D01*
X157638248Y-99622192D01*
X157743198Y-99628628D01*
X157795147Y-99637574D01*
X157892709Y-99655550D01*
X158026272Y-99674145D01*
X158171069Y-99690658D01*
X158302332Y-99702388D01*
X158395296Y-99706633D01*
X158417500Y-99705460D01*
X158486741Y-99718285D01*
X158512301Y-99772685D01*
X158498649Y-99853120D01*
X158450255Y-99944048D01*
X158371588Y-100029926D01*
X158311979Y-100072408D01*
X158191893Y-100130061D01*
X158049762Y-100180986D01*
X158008819Y-100192338D01*
X157881731Y-100229753D01*
X157769941Y-100271496D01*
X157740144Y-100285491D01*
X157640543Y-100322989D01*
X157566265Y-100334993D01*
X157479512Y-100360142D01*
X157440294Y-100391253D01*
X157417281Y-100437112D01*
X157432268Y-100447282D01*
X157480104Y-100462286D01*
X157579711Y-100502895D01*
X157715456Y-100562504D01*
X157838386Y-100618880D01*
X158016302Y-100701899D01*
X158194085Y-100784816D01*
X158345588Y-100855437D01*
X158411471Y-100886125D01*
X158541984Y-100950727D01*
X158659599Y-101015363D01*
X158716060Y-101050704D01*
X158800535Y-101099733D01*
X158865150Y-101121308D01*
X158865472Y-101121320D01*
X158932969Y-101137283D01*
X159025864Y-101173435D01*
X159027794Y-101174315D01*
X159078399Y-101199600D01*
X159088130Y-101214900D01*
X159047807Y-101222773D01*
X158948251Y-101225776D01*
X158841029Y-101226343D01*
X158652084Y-101220094D01*
X158509429Y-101197204D01*
X158385622Y-101153054D01*
X158374118Y-101147715D01*
X158281202Y-101103560D01*
X158137501Y-101034918D01*
X157959544Y-100949698D01*
X157763861Y-100855812D01*
X157670001Y-100810717D01*
X157450189Y-100706704D01*
X157279722Y-100633555D01*
X157141152Y-100588668D01*
X157017032Y-100569444D01*
X156889914Y-100573283D01*
X156742351Y-100597584D01*
X156556896Y-100639746D01*
X156543824Y-100642873D01*
X156338435Y-100673337D01*
X156133295Y-100671370D01*
X155951203Y-100639108D01*
X155814964Y-100578684D01*
X155808507Y-100574033D01*
X155731327Y-100494214D01*
X155696767Y-100387157D01*
X155691896Y-100340827D01*
X155694252Y-100230754D01*
X155724407Y-100189754D01*
X155784779Y-100216821D01*
X155846779Y-100276233D01*
X155912029Y-100330607D01*
X155996257Y-100360609D01*
X156124804Y-100374406D01*
X156155969Y-100375854D01*
X156281644Y-100377606D01*
X156377338Y-100372755D01*
X156415900Y-100364735D01*
X156468456Y-100350781D01*
X156572612Y-100333922D01*
X156702181Y-100318213D01*
X156832208Y-100300242D01*
X156930377Y-100278399D01*
X156975194Y-100257586D01*
X157026454Y-100228123D01*
X157064680Y-100223164D01*
X157140383Y-100211851D01*
X157260149Y-100182858D01*
X157397679Y-100143606D01*
X157526672Y-100101516D01*
X157608382Y-100069755D01*
X157692888Y-100035971D01*
X157805094Y-99995412D01*
X157826332Y-99988156D01*
X157969576Y-99939770D01*
X157583538Y-99854259D01*
X157413859Y-99815262D01*
X157264024Y-99778264D01*
X157153881Y-99748302D01*
X157111698Y-99734486D01*
X157013035Y-99706943D01*
X156952948Y-99700223D01*
X156893193Y-99685436D01*
X156880000Y-99665687D01*
X156847748Y-99646470D01*
X156768868Y-99645106D01*
X156756569Y-99646460D01*
X156645435Y-99641179D01*
X156503463Y-99609111D01*
X156429731Y-99584257D01*
X156289518Y-99531005D01*
X156116540Y-99465556D01*
X155947973Y-99401975D01*
X155946177Y-99401299D01*
X155683667Y-99302102D01*
X155483474Y-99224856D01*
X155337860Y-99165557D01*
X155239090Y-99120202D01*
X155179425Y-99084787D01*
X155151131Y-99055310D01*
X155146470Y-99027767D01*
X155157706Y-98998154D01*
X155159720Y-98994338D01*
X155226590Y-98940573D01*
X155360954Y-98907282D01*
X155383732Y-98904352D01*
X155468674Y-98897405D01*
X155549319Y-98900809D01*
X155639296Y-98918377D01*
X155752238Y-98953921D01*
X155901774Y-99011252D01*
X156101536Y-99094183D01*
X156176967Y-99126185D01*
X156389081Y-99216432D01*
X156681231Y-99136448D01*
X156835444Y-99094273D01*
X156975583Y-99056027D01*
X157074864Y-99029016D01*
X157085441Y-99026152D01*
X157189570Y-98996156D01*
X157322346Y-98955623D01*
X157379269Y-98937629D01*
X157490622Y-98908598D01*
X157574411Y-98898693D01*
X157599820Y-98903386D01*
X157620664Y-98903382D01*
X157611949Y-98884230D01*
X157620036Y-98851876D01*
X157698642Y-98841106D01*
X157699560Y-98841106D01*
X157779191Y-98830680D01*
X157813779Y-98805493D01*
X157813824Y-98804464D01*
X157845777Y-98770333D01*
X157916544Y-98743284D01*
X158007790Y-98713667D01*
X158061675Y-98685523D01*
X158108053Y-98658709D01*
X158209619Y-98605494D01*
X158223765Y-98598311D01*
X158336765Y-98598311D01*
X158355441Y-98616988D01*
X158374118Y-98598311D01*
X158355441Y-98579635D01*
X158336765Y-98598311D01*
X158223765Y-98598311D01*
X158354314Y-98532021D01*
X158530080Y-98444430D01*
X158672941Y-98374194D01*
X158864705Y-98279470D01*
X159034975Y-98193534D01*
X159171476Y-98122725D01*
X159261929Y-98073385D01*
X159291837Y-98054559D01*
X159395584Y-97983603D01*
X159503978Y-97932424D01*
X159594599Y-97909647D01*
X159641837Y-97919942D01*
X159675520Y-97936858D01*
X159681471Y-97910488D01*
X159707714Y-97859654D01*
X159774907Y-97782965D01*
X159829373Y-97731755D01*
X159917915Y-97646023D01*
X159980778Y-97570187D01*
X159997405Y-97539917D01*
X160044902Y-97475775D01*
X160101635Y-97436570D01*
X160403757Y-97273646D01*
X160659861Y-97099967D01*
X160825344Y-96963471D01*
X160938236Y-96869086D01*
X161031996Y-96801021D01*
X161091943Y-96769511D01*
X161103399Y-96769573D01*
X161133854Y-96760370D01*
X161138235Y-96736789D01*
X161164058Y-96676637D01*
X161227062Y-96602262D01*
X161235404Y-96594511D01*
X161325686Y-96512408D01*
X161404410Y-96440261D01*
X161496841Y-96376730D01*
X161656237Y-96293570D01*
X161878095Y-96192908D01*
X162157910Y-96076872D01*
X162256363Y-96037857D01*
X162347516Y-96009211D01*
X162391142Y-96017469D01*
X162399533Y-96032204D01*
X162427300Y-96056046D01*
X162486757Y-96026225D01*
X162577836Y-95994412D01*
X162660043Y-95994863D01*
G37*
G36*
X151886817Y-89518105D02*
G01*
X152330376Y-89646714D01*
X152715147Y-89803337D01*
X152807049Y-89841965D01*
X152896121Y-89876053D01*
X153079051Y-89960182D01*
X153285502Y-90083076D01*
X153489659Y-90227405D01*
X153665705Y-90375837D01*
X153718138Y-90427895D01*
X153890602Y-90611096D01*
X154021753Y-90756857D01*
X154122953Y-90880713D01*
X154205565Y-90998198D01*
X154280950Y-91124847D01*
X154360472Y-91276196D01*
X154407576Y-91370517D01*
X154620147Y-91800076D01*
X154611797Y-92136253D01*
X154604115Y-92295804D01*
X154590769Y-92433374D01*
X154574149Y-92526980D01*
X154567145Y-92547135D01*
X154530446Y-92626066D01*
X154479956Y-92738572D01*
X154457346Y-92789929D01*
X154394942Y-92912774D01*
X154325470Y-93021737D01*
X154301944Y-93051400D01*
X154230953Y-93139075D01*
X154145687Y-93253329D01*
X154108762Y-93305531D01*
X153904273Y-93556753D01*
X153643641Y-93808999D01*
X153344174Y-94049672D01*
X153023182Y-94266175D01*
X152697974Y-94445911D01*
X152385861Y-94576284D01*
X152343694Y-94590037D01*
X152176959Y-94638760D01*
X152033826Y-94669737D01*
X151886972Y-94686670D01*
X151709074Y-94693260D01*
X151577726Y-94693793D01*
X151400508Y-94690326D01*
X151247029Y-94681777D01*
X151134949Y-94669480D01*
X151084442Y-94656535D01*
X151009166Y-94629152D01*
X150897722Y-94605350D01*
X150863181Y-94600388D01*
X150707355Y-94572297D01*
X150511867Y-94524937D01*
X150301240Y-94465500D01*
X150099997Y-94401178D01*
X149932660Y-94339162D01*
X149857647Y-94305506D01*
X149722889Y-94237557D01*
X149568278Y-94159440D01*
X149493144Y-94121418D01*
X149263414Y-93989946D01*
X149047236Y-93838479D01*
X148864462Y-93682162D01*
X148746397Y-93551794D01*
X148678363Y-93454790D01*
X148634312Y-93379059D01*
X148625000Y-93351794D01*
X148602468Y-93314209D01*
X148594565Y-93312870D01*
X148557490Y-93280433D01*
X148508513Y-93196559D01*
X148457073Y-93081403D01*
X148412607Y-92955121D01*
X148393410Y-92883311D01*
X148387510Y-92856168D01*
X148536726Y-92856168D01*
X148543578Y-92956489D01*
X148547260Y-93019345D01*
X148580719Y-93102953D01*
X148667887Y-93216704D01*
X148798688Y-93351846D01*
X148963048Y-93499630D01*
X149150892Y-93651304D01*
X149352145Y-93798119D01*
X149556732Y-93931323D01*
X149678651Y-94002038D01*
X149887464Y-94104268D01*
X150124484Y-94199835D01*
X150372682Y-94283775D01*
X150615030Y-94351123D01*
X150834500Y-94396915D01*
X151014061Y-94416185D01*
X151090294Y-94413605D01*
X151197400Y-94401937D01*
X151344069Y-94386907D01*
X151473681Y-94374179D01*
X151603808Y-94357442D01*
X151701911Y-94336883D01*
X151746694Y-94316993D01*
X151796404Y-94290351D01*
X151847455Y-94284047D01*
X151874126Y-94272850D01*
X151845701Y-94244425D01*
X151777493Y-94206519D01*
X151684811Y-94166878D01*
X151643724Y-94153311D01*
X152098824Y-94153311D01*
X152117500Y-94171988D01*
X152136177Y-94153311D01*
X152117500Y-94134635D01*
X152098824Y-94153311D01*
X151643724Y-94153311D01*
X151582969Y-94133250D01*
X151520258Y-94118499D01*
X151433927Y-94094514D01*
X151390382Y-94067168D01*
X151389118Y-94062593D01*
X151357936Y-94029499D01*
X151310654Y-94010770D01*
X151256370Y-93977818D01*
X151260752Y-93944037D01*
X151265616Y-93912832D01*
X151234607Y-93918815D01*
X151179130Y-93904538D01*
X151089868Y-93843172D01*
X150978643Y-93746798D01*
X150857277Y-93627495D01*
X150737592Y-93497344D01*
X150631412Y-93368424D01*
X150550556Y-93252816D01*
X150513656Y-93182135D01*
X150499550Y-93144782D01*
X150604706Y-93144782D01*
X150623382Y-93163458D01*
X150642059Y-93144782D01*
X150623382Y-93126106D01*
X150604706Y-93144782D01*
X150499550Y-93144782D01*
X150443127Y-92995370D01*
X150530000Y-92995370D01*
X150548677Y-93014047D01*
X150567353Y-92995370D01*
X150548677Y-92976694D01*
X150530000Y-92995370D01*
X150443127Y-92995370D01*
X150405469Y-92895651D01*
X150332239Y-92660146D01*
X150290444Y-92462569D01*
X150276750Y-92304335D01*
X150282624Y-92174316D01*
X150301936Y-92013863D01*
X150330836Y-91842321D01*
X150365476Y-91679033D01*
X150402008Y-91543345D01*
X150436583Y-91454601D01*
X150449481Y-91436095D01*
X150492830Y-91437968D01*
X150547164Y-91480905D01*
X150586062Y-91533779D01*
X150596110Y-91591392D01*
X150579267Y-91681156D01*
X150565196Y-91733073D01*
X150541157Y-91857141D01*
X150522901Y-92023378D01*
X150513823Y-92199286D01*
X150513430Y-92228788D01*
X150541351Y-92554339D01*
X150632436Y-92856508D01*
X150790903Y-93146333D01*
X150938398Y-93340921D01*
X151154051Y-93572713D01*
X151353428Y-93734661D01*
X151539770Y-93829032D01*
X151676600Y-93857087D01*
X151809143Y-93874446D01*
X151929601Y-93903692D01*
X151956822Y-93913587D01*
X152043691Y-93932158D01*
X152165030Y-93935765D01*
X152306710Y-93926924D01*
X152454605Y-93908153D01*
X152594586Y-93881969D01*
X152712527Y-93850889D01*
X152794298Y-93817430D01*
X152825773Y-93784110D01*
X152809441Y-93761669D01*
X152736102Y-93745915D01*
X152692935Y-93751207D01*
X152602339Y-93756510D01*
X152528159Y-93745711D01*
X152462959Y-93720088D01*
X152459087Y-93677407D01*
X152474185Y-93645624D01*
X152486226Y-93555671D01*
X152448388Y-93464297D01*
X152377481Y-93400524D01*
X152324748Y-93387576D01*
X152229049Y-93420199D01*
X152157400Y-93499354D01*
X152136177Y-93577009D01*
X152126413Y-93626102D01*
X152088717Y-93644524D01*
X152010481Y-93632308D01*
X151879096Y-93589490D01*
X151846853Y-93577813D01*
X151618711Y-93479150D01*
X151431942Y-93358476D01*
X151253214Y-93193736D01*
X151231050Y-93170306D01*
X151076429Y-92973162D01*
X150956301Y-92743561D01*
X150861887Y-92463649D01*
X150838242Y-92371251D01*
X150806736Y-92225736D01*
X150796623Y-92116167D01*
X150807577Y-92007011D01*
X150833766Y-91885663D01*
X150875875Y-91741720D01*
X150916200Y-91669691D01*
X150938896Y-91661634D01*
X151032621Y-91661560D01*
X151160757Y-91637143D01*
X151293983Y-91596802D01*
X151402976Y-91548953D01*
X151449593Y-91515016D01*
X151510167Y-91396754D01*
X151513848Y-91253430D01*
X151466159Y-91101034D01*
X151372619Y-90955558D01*
X151238753Y-90832993D01*
X151206906Y-90812195D01*
X151122917Y-90752890D01*
X151078173Y-90705491D01*
X151076096Y-90690918D01*
X151119233Y-90659675D01*
X151212744Y-90609560D01*
X151337676Y-90549537D01*
X151475075Y-90488566D01*
X151605988Y-90435611D01*
X151650588Y-90419278D01*
X151808444Y-90381868D01*
X152033777Y-90357469D01*
X152329373Y-90345804D01*
X152405154Y-90344912D01*
X152514614Y-90340339D01*
X152581339Y-90330109D01*
X152591918Y-90319307D01*
X152546411Y-90293867D01*
X152451744Y-90249845D01*
X152328047Y-90196583D01*
X152322941Y-90194460D01*
X152051623Y-90102552D01*
X151737116Y-90030322D01*
X151409803Y-89984463D01*
X151345032Y-89979012D01*
X151222994Y-89965808D01*
X151129396Y-89948181D01*
X151097100Y-89936635D01*
X151057998Y-89933701D01*
X151052941Y-89948901D01*
X151021736Y-89981220D01*
X150979541Y-89988458D01*
X150832142Y-90013653D01*
X150644156Y-90085450D01*
X150428356Y-90198164D01*
X150237328Y-90318682D01*
X150098963Y-90412411D01*
X149979320Y-90493061D01*
X149894878Y-90549545D01*
X149867644Y-90567429D01*
X149804305Y-90619220D01*
X149697001Y-90720189D01*
X149551963Y-90864183D01*
X149375420Y-91045050D01*
X149228990Y-91198138D01*
X149126098Y-91298538D01*
X149035445Y-91372905D01*
X148974114Y-91407499D01*
X148967520Y-91408442D01*
X148929187Y-91416703D01*
X148952948Y-91439347D01*
X148976376Y-91474884D01*
X148949048Y-91533973D01*
X148926927Y-91563529D01*
X148871064Y-91645927D01*
X148841773Y-91709916D01*
X148804683Y-91777297D01*
X148774412Y-91808091D01*
X148744905Y-91845662D01*
X148761768Y-91854918D01*
X148796408Y-91884224D01*
X148796574Y-91902797D01*
X148763284Y-92055564D01*
X148730298Y-92155627D01*
X148701165Y-92192269D01*
X148700689Y-92192282D01*
X148676499Y-92224013D01*
X148669156Y-92276326D01*
X148660293Y-92410104D01*
X148640078Y-92544335D01*
X148613115Y-92657164D01*
X148584009Y-92726737D01*
X148571898Y-92737945D01*
X148542966Y-92782935D01*
X148536726Y-92856168D01*
X148387510Y-92856168D01*
X148352640Y-92695754D01*
X148333660Y-92584488D01*
X148512941Y-92584488D01*
X148531618Y-92603164D01*
X148550294Y-92584488D01*
X148531618Y-92565811D01*
X148512941Y-92584488D01*
X148333660Y-92584488D01*
X148328713Y-92555490D01*
X148319321Y-92437604D01*
X148322156Y-92317179D01*
X148330977Y-92209562D01*
X148359616Y-92023246D01*
X148414109Y-91855405D01*
X148496111Y-91686620D01*
X148787122Y-91204216D01*
X149033988Y-90866253D01*
X149372059Y-90866253D01*
X149390735Y-90884929D01*
X149409412Y-90866253D01*
X149390735Y-90847576D01*
X149372059Y-90866253D01*
X149033988Y-90866253D01*
X149127975Y-90737583D01*
X149405740Y-90413804D01*
X149592864Y-90218728D01*
X149760901Y-90063658D01*
X149931713Y-89931783D01*
X150114932Y-89814145D01*
X150953333Y-89814145D01*
X150958461Y-89836351D01*
X150978235Y-89839047D01*
X151008981Y-89825380D01*
X151003137Y-89814145D01*
X150958808Y-89809674D01*
X150953333Y-89814145D01*
X150114932Y-89814145D01*
X150127164Y-89806291D01*
X150369119Y-89670370D01*
X150380588Y-89664202D01*
X150712101Y-89528309D01*
X151075257Y-89458758D01*
X151467637Y-89455405D01*
X151886817Y-89518105D01*
G37*
G36*
X146985550Y-79590862D02*
G01*
X147087148Y-79641100D01*
X147190929Y-79714803D01*
X147198320Y-79721110D01*
X147293347Y-79797177D01*
X147431976Y-79900428D01*
X147595324Y-80017102D01*
X147758614Y-80129467D01*
X147952763Y-80260865D01*
X148165101Y-80405428D01*
X148366539Y-80543311D01*
X148494265Y-80631303D01*
X148669552Y-80747954D01*
X148859147Y-80866752D01*
X149033249Y-80969289D01*
X149105990Y-81009137D01*
X149235149Y-81081442D01*
X149336640Y-81146154D01*
X149393483Y-81192174D01*
X149399389Y-81200923D01*
X149433757Y-81231956D01*
X149448384Y-81228193D01*
X149487020Y-81230856D01*
X149569193Y-81263724D01*
X149700373Y-81329463D01*
X149886028Y-81430737D01*
X150025735Y-81509606D01*
X150130753Y-81568271D01*
X150274278Y-81646977D01*
X150428859Y-81730693D01*
X150461313Y-81748123D01*
X150610927Y-81832696D01*
X150750819Y-81919256D01*
X150855491Y-81991853D01*
X150872195Y-82005141D01*
X150963637Y-82078363D01*
X151046046Y-82133434D01*
X151132189Y-82173181D01*
X151234833Y-82200433D01*
X151366746Y-82218017D01*
X151540693Y-82228762D01*
X151769441Y-82235496D01*
X151925932Y-82238563D01*
X152253681Y-82246359D01*
X152510976Y-82256762D01*
X152702035Y-82270151D01*
X152831078Y-82286907D01*
X152902322Y-82307407D01*
X152920588Y-82327919D01*
X152952427Y-82342796D01*
X153028224Y-82339722D01*
X153113588Y-82340965D01*
X153161163Y-82364868D01*
X153213995Y-82395866D01*
X153286984Y-82406984D01*
X153372735Y-82424040D01*
X153495240Y-82467257D01*
X153609216Y-82518331D01*
X153723458Y-82572112D01*
X153808437Y-82606514D01*
X153845340Y-82614099D01*
X153853409Y-82571789D01*
X153858699Y-82478538D01*
X153859883Y-82400031D01*
X153870148Y-82265815D01*
X153896652Y-82159573D01*
X153913180Y-82127952D01*
X153950050Y-82085407D01*
X153985376Y-82083837D01*
X154041556Y-82127994D01*
X154078557Y-82163043D01*
X154147159Y-82239535D01*
X154157872Y-82285818D01*
X154143989Y-82300257D01*
X154121877Y-82324795D01*
X154156692Y-82330534D01*
X154212293Y-82364432D01*
X154275542Y-82454063D01*
X154335811Y-82582724D01*
X154359034Y-82648606D01*
X154378339Y-82691819D01*
X154405995Y-82687760D01*
X154458772Y-82631036D01*
X154475173Y-82611253D01*
X154682561Y-82375748D01*
X154869894Y-82198928D01*
X155047545Y-82071251D01*
X155086963Y-82048476D01*
X155180595Y-81991816D01*
X155246976Y-81943004D01*
X155255052Y-81935135D01*
X155368118Y-81835226D01*
X155500463Y-81752995D01*
X155625064Y-81703683D01*
X155678893Y-81696106D01*
X155756703Y-81700972D01*
X155788963Y-81725611D01*
X155779083Y-81785080D01*
X155730472Y-81894437D01*
X155725938Y-81903869D01*
X155662119Y-82069409D01*
X155594591Y-82308299D01*
X155523692Y-82619294D01*
X155501409Y-82728504D01*
X155482566Y-82958914D01*
X155503063Y-83139386D01*
X155525482Y-83269284D01*
X155541725Y-83376236D01*
X155547136Y-83423679D01*
X155569016Y-83481209D01*
X155620253Y-83473008D01*
X155696592Y-83400061D01*
X155707617Y-83386526D01*
X155765039Y-83320452D01*
X155804576Y-83307716D01*
X155853757Y-83342341D01*
X155864903Y-83352368D01*
X155917135Y-83423958D01*
X155923640Y-83519811D01*
X155919370Y-83550589D01*
X155898296Y-83680448D01*
X156024957Y-83609071D01*
X156129879Y-83548168D01*
X156261644Y-83469359D01*
X156342514Y-83419988D01*
X156451460Y-83356924D01*
X156538020Y-83314206D01*
X156575969Y-83302282D01*
X156616377Y-83281352D01*
X156618529Y-83271802D01*
X156650363Y-83242968D01*
X156733261Y-83198302D01*
X156833309Y-83154175D01*
X156957065Y-83100663D01*
X157057725Y-83051276D01*
X157104118Y-83023221D01*
X157165773Y-82987101D01*
X157273413Y-82934615D01*
X157402941Y-82877468D01*
X157533806Y-82821506D01*
X157642975Y-82773009D01*
X157706505Y-82742634D01*
X157783717Y-82713577D01*
X157890873Y-82686632D01*
X157902281Y-82684418D01*
X157984145Y-82660341D01*
X158018216Y-82632323D01*
X158016733Y-82625833D01*
X158029145Y-82598556D01*
X158064305Y-82592576D01*
X158139542Y-82575505D01*
X158242144Y-82533061D01*
X158270597Y-82518523D01*
X158373632Y-82476647D01*
X158457163Y-82465440D01*
X158472274Y-82468841D01*
X158515282Y-82475812D01*
X158505209Y-82443741D01*
X158494948Y-82411830D01*
X158517227Y-82420593D01*
X158573284Y-82424978D01*
X158682827Y-82411741D01*
X158827694Y-82384417D01*
X158989725Y-82346544D01*
X159150759Y-82301657D01*
X159188110Y-82289954D01*
X159286086Y-82271034D01*
X159395104Y-82281784D01*
X159513324Y-82314047D01*
X159616259Y-82354353D01*
X159712752Y-82404850D01*
X159788349Y-82455536D01*
X159828595Y-82496408D01*
X159819036Y-82517461D01*
X159808657Y-82518442D01*
X159800373Y-82534361D01*
X159814173Y-82546457D01*
X159871485Y-82619480D01*
X159928420Y-82748748D01*
X159979301Y-82915989D01*
X160018449Y-83102931D01*
X160038656Y-83268844D01*
X160051109Y-83413684D01*
X160063786Y-83527174D01*
X160074525Y-83590942D01*
X160077435Y-83598124D01*
X160070634Y-83636843D01*
X160036330Y-83699720D01*
X160000807Y-83759315D01*
X160009988Y-83772267D01*
X160042203Y-83761769D01*
X160085957Y-83757350D01*
X160086554Y-83805220D01*
X160083178Y-83818923D01*
X160079776Y-83881734D01*
X160097164Y-83899929D01*
X160112343Y-83926110D01*
X160096274Y-83967309D01*
X160080340Y-84048967D01*
X160092203Y-84086451D01*
X160104137Y-84111342D01*
X160111321Y-84147379D01*
X160113414Y-84205508D01*
X160110072Y-84296674D01*
X160100952Y-84431824D01*
X160085712Y-84621904D01*
X160069377Y-84815076D01*
X160057829Y-84968428D01*
X160051227Y-85094208D01*
X160050448Y-85173318D01*
X160052232Y-85188606D01*
X160064826Y-85294513D01*
X160052772Y-85406956D01*
X160045196Y-85431400D01*
X160009786Y-85562026D01*
X159977974Y-85754158D01*
X159950438Y-85994654D01*
X159927857Y-86270369D01*
X159910908Y-86568162D01*
X159900269Y-86874890D01*
X159896620Y-87177409D01*
X159900639Y-87462576D01*
X159913002Y-87717250D01*
X159921822Y-87821988D01*
X159936805Y-87976187D01*
X159949955Y-88115715D01*
X159958522Y-88211395D01*
X159958755Y-88214194D01*
X159974691Y-88317471D01*
X159995719Y-88388703D01*
X160025612Y-88470392D01*
X160033559Y-88500762D01*
X160056188Y-88580900D01*
X160065321Y-88606400D01*
X160078753Y-88683497D01*
X160079452Y-88774488D01*
X160087979Y-88874301D01*
X160115780Y-88942576D01*
X160154157Y-89031161D01*
X160182587Y-89172399D01*
X160200221Y-89344791D01*
X160206210Y-89526840D01*
X160199707Y-89697049D01*
X160179863Y-89833920D01*
X160153763Y-89905046D01*
X160134185Y-89961009D01*
X160107010Y-90069297D01*
X160077467Y-90208638D01*
X160071491Y-90239642D01*
X160033291Y-90400999D01*
X159987019Y-90537093D01*
X159940997Y-90623450D01*
X159940990Y-90623458D01*
X159862589Y-90728349D01*
X159801483Y-90819325D01*
X159741952Y-90890712D01*
X159686257Y-90921989D01*
X159684583Y-90922046D01*
X159650968Y-90935127D01*
X159656245Y-90946860D01*
X159657878Y-90992038D01*
X159641980Y-91018240D01*
X159623871Y-91069862D01*
X159642304Y-91089249D01*
X159678131Y-91090519D01*
X159681471Y-91078498D01*
X159713265Y-91044028D01*
X159792463Y-90998780D01*
X159894788Y-90953018D01*
X159995964Y-90917008D01*
X160071714Y-90901014D01*
X160093465Y-90904293D01*
X160129005Y-90964907D01*
X160107729Y-91059211D01*
X160032883Y-91176474D01*
X159999185Y-91215950D01*
X159868663Y-91360422D01*
X160032656Y-91382899D01*
X160116048Y-91396881D01*
X160199655Y-91418210D01*
X160296910Y-91452045D01*
X160421244Y-91503550D01*
X160586086Y-91577884D01*
X160798263Y-91677092D01*
X160965229Y-91765456D01*
X161125146Y-91867008D01*
X161264696Y-91971355D01*
X161370559Y-92068103D01*
X161429415Y-92146859D01*
X161437059Y-92175544D01*
X161402454Y-92272151D01*
X161305458Y-92344611D01*
X161156303Y-92386308D01*
X161102661Y-92391847D01*
X160988301Y-92405111D01*
X160909656Y-92424550D01*
X160888157Y-92439080D01*
X160909302Y-92478647D01*
X160975299Y-92537913D01*
X161006757Y-92560590D01*
X161171250Y-92680930D01*
X161274007Y-92775330D01*
X161312612Y-92841391D01*
X161308848Y-92860550D01*
X161313581Y-92897038D01*
X161334961Y-92901988D01*
X161398304Y-92929702D01*
X161472689Y-92994777D01*
X161531395Y-93070117D01*
X161549118Y-93119175D01*
X161568496Y-93160879D01*
X161578281Y-93163458D01*
X161612452Y-93188507D01*
X161691354Y-93258513D01*
X161806735Y-93365769D01*
X161950343Y-93502570D01*
X162113925Y-93661206D01*
X162168218Y-93714414D01*
X162344017Y-93885769D01*
X162509645Y-94044686D01*
X162654944Y-94181611D01*
X162769754Y-94286994D01*
X162843916Y-94351282D01*
X162853489Y-94358753D01*
X162952063Y-94435847D01*
X163036030Y-94506615D01*
X163047964Y-94517503D01*
X163112814Y-94567262D01*
X163150720Y-94582870D01*
X163198832Y-94608500D01*
X163233229Y-94642791D01*
X163308389Y-94704424D01*
X163368538Y-94735249D01*
X163420278Y-94765503D01*
X163445852Y-94819657D01*
X163453855Y-94920003D01*
X163454118Y-94957244D01*
X163454118Y-95146703D01*
X162724141Y-95133218D01*
X162449516Y-95129655D01*
X162248399Y-95130578D01*
X162119720Y-95136128D01*
X162062409Y-95146450D01*
X162075395Y-95161684D01*
X162157607Y-95181974D01*
X162243277Y-95197222D01*
X162385420Y-95236146D01*
X162517988Y-95298514D01*
X162617729Y-95371475D01*
X162657244Y-95426036D01*
X162660485Y-95499313D01*
X162608439Y-95533138D01*
X162512954Y-95520829D01*
X162498362Y-95515641D01*
X162425474Y-95489575D01*
X162415727Y-95496426D01*
X162462414Y-95542621D01*
X162466347Y-95546302D01*
X162562135Y-95607714D01*
X162653112Y-95639205D01*
X162763129Y-95666136D01*
X162897508Y-95707179D01*
X163035938Y-95755025D01*
X163158110Y-95802364D01*
X163243713Y-95841890D01*
X163271529Y-95861740D01*
X163311166Y-95893026D01*
X163318220Y-95893413D01*
X163342059Y-95908900D01*
X163342059Y-95958325D01*
X163342059Y-95987845D01*
X163322640Y-96029451D01*
X163253596Y-96034747D01*
X163232267Y-96032000D01*
X163156416Y-96031359D01*
X163129502Y-96053304D01*
X163129547Y-96053557D01*
X163104833Y-96091191D01*
X163066273Y-96106482D01*
X163017489Y-96105849D01*
X163012299Y-96060248D01*
X163019295Y-96028633D01*
X163024131Y-95955997D01*
X162976846Y-95920077D01*
X162948039Y-95911782D01*
X162883936Y-95885654D01*
X162870053Y-95861113D01*
X162850978Y-95840612D01*
X162787536Y-95831159D01*
X162672573Y-95811387D01*
X162497341Y-95758315D01*
X162297652Y-95684782D01*
X162669706Y-95684782D01*
X162688382Y-95703458D01*
X162707059Y-95684782D01*
X162688382Y-95666106D01*
X162669706Y-95684782D01*
X162297652Y-95684782D01*
X162267544Y-95673695D01*
X162240147Y-95662919D01*
X162166701Y-95637626D01*
X162044375Y-95601034D01*
X161866074Y-95551123D01*
X161624702Y-95485871D01*
X161530441Y-95460745D01*
X161318535Y-95409828D01*
X161054079Y-95354505D01*
X160758769Y-95298640D01*
X160454301Y-95246095D01*
X160162372Y-95200733D01*
X159904678Y-95166418D01*
X159831513Y-95158246D01*
X159723125Y-95140987D01*
X159647147Y-95118177D01*
X159632296Y-95108931D01*
X159633336Y-95080909D01*
X159693922Y-95080909D01*
X159699049Y-95103116D01*
X159718824Y-95105811D01*
X159749569Y-95092145D01*
X159743726Y-95080909D01*
X159699396Y-95076439D01*
X159693922Y-95080909D01*
X159633336Y-95080909D01*
X159633880Y-95066251D01*
X159678933Y-95006146D01*
X159746643Y-94949255D01*
X159816195Y-94916216D01*
X159828587Y-94914280D01*
X159915299Y-94903154D01*
X159961618Y-94895163D01*
X160097541Y-94875529D01*
X160257072Y-94862085D01*
X160420744Y-94855238D01*
X160569092Y-94855394D01*
X160682651Y-94862959D01*
X160741955Y-94878338D01*
X160742627Y-94878870D01*
X160792523Y-94901166D01*
X160808059Y-94882369D01*
X160809588Y-94881694D01*
X162333529Y-94881694D01*
X162347196Y-94912439D01*
X162358431Y-94906596D01*
X162362902Y-94862266D01*
X162358431Y-94856792D01*
X162336225Y-94861919D01*
X162333529Y-94881694D01*
X160809588Y-94881694D01*
X160850130Y-94863792D01*
X160956857Y-94847237D01*
X161118194Y-94833916D01*
X161269265Y-94826765D01*
X161524347Y-94818269D01*
X161715121Y-94813485D01*
X161851907Y-94812692D01*
X161945026Y-94816171D01*
X162004796Y-94824199D01*
X162041537Y-94837057D01*
X162057952Y-94848134D01*
X162109767Y-94863227D01*
X162126967Y-94846155D01*
X162183328Y-94814874D01*
X162273784Y-94809086D01*
X162362481Y-94828049D01*
X162400765Y-94851811D01*
X162438197Y-94872527D01*
X162445588Y-94859312D01*
X162478054Y-94838448D01*
X162558405Y-94835505D01*
X162576324Y-94837251D01*
X162662739Y-94855462D01*
X162705931Y-94880474D01*
X162707059Y-94884847D01*
X162738442Y-94901485D01*
X162812999Y-94895991D01*
X162922265Y-94891756D01*
X163045740Y-94909943D01*
X163055793Y-94912590D01*
X163154987Y-94929766D01*
X163189015Y-94912273D01*
X163155958Y-94865204D01*
X163091729Y-94817292D01*
X162989131Y-94743096D01*
X162908497Y-94676357D01*
X162822750Y-94603613D01*
X162718433Y-94521562D01*
X162701254Y-94508672D01*
X162626021Y-94445163D01*
X162509255Y-94337301D01*
X162360818Y-94194949D01*
X162190574Y-94027969D01*
X162008387Y-93846223D01*
X161824120Y-93659574D01*
X161647638Y-93477883D01*
X161488803Y-93311012D01*
X161357481Y-93168825D01*
X161325722Y-93133357D01*
X161192721Y-92994118D01*
X161048094Y-92859590D01*
X160916678Y-92752404D01*
X160877487Y-92724936D01*
X160768364Y-92650539D01*
X160685454Y-92589078D01*
X160648471Y-92555744D01*
X160600632Y-92525289D01*
X160592441Y-92525083D01*
X160536121Y-92516788D01*
X160447271Y-92492624D01*
X160447206Y-92492604D01*
X160357387Y-92474146D01*
X160219106Y-92456851D01*
X160058581Y-92443832D01*
X160017647Y-92441591D01*
X159783198Y-92415837D01*
X159585239Y-92365813D01*
X159573519Y-92360370D01*
X160839412Y-92360370D01*
X160858088Y-92379047D01*
X160876765Y-92360370D01*
X160858088Y-92341694D01*
X160839412Y-92360370D01*
X159573519Y-92360370D01*
X159434525Y-92295819D01*
X159341812Y-92210158D01*
X159320565Y-92162788D01*
X159316477Y-92069366D01*
X159362134Y-92030478D01*
X159454072Y-92048221D01*
X159485882Y-92062743D01*
X159593245Y-92109705D01*
X159688183Y-92141181D01*
X159688879Y-92141346D01*
X159810747Y-92162202D01*
X159973693Y-92179783D01*
X160155451Y-92192879D01*
X160333754Y-92200283D01*
X160486339Y-92200785D01*
X160590939Y-92193177D01*
X160602513Y-92190952D01*
X160705433Y-92175884D01*
X160781727Y-92178628D01*
X160788196Y-92180621D01*
X160857942Y-92187447D01*
X160959943Y-92177844D01*
X160973170Y-92175503D01*
X161057590Y-92154974D01*
X161080288Y-92129752D01*
X161056933Y-92090873D01*
X160993738Y-92042154D01*
X160877620Y-91975990D01*
X160725913Y-91900323D01*
X160555953Y-91823097D01*
X160410324Y-91762723D01*
X160764706Y-91762723D01*
X160783382Y-91781400D01*
X160802059Y-91762723D01*
X160783382Y-91744047D01*
X160764706Y-91762723D01*
X160410324Y-91762723D01*
X160385076Y-91752256D01*
X160230617Y-91695743D01*
X160129706Y-91665989D01*
X159990204Y-91641645D01*
X159811669Y-91623459D01*
X159629726Y-91614924D01*
X159606765Y-91614701D01*
X159452701Y-91612706D01*
X159359036Y-91606042D01*
X159311473Y-91591211D01*
X159295715Y-91564713D01*
X159295838Y-91538606D01*
X159294617Y-91508433D01*
X159279079Y-91505738D01*
X159242410Y-91537209D01*
X159177798Y-91609532D01*
X159078432Y-91729396D01*
X158988367Y-91840441D01*
X158899210Y-91933236D01*
X158831305Y-91961812D01*
X158812293Y-91957963D01*
X158778912Y-91937579D01*
X158773917Y-91899758D01*
X158798878Y-91825332D01*
X158828912Y-91755076D01*
X158889302Y-91636351D01*
X158976792Y-91486983D01*
X159064035Y-91351841D01*
X159457353Y-91351841D01*
X159476029Y-91370517D01*
X159494706Y-91351841D01*
X159476029Y-91333164D01*
X159457353Y-91351841D01*
X159064035Y-91351841D01*
X159074022Y-91336371D01*
X159089068Y-91314488D01*
X159192596Y-91164003D01*
X159316908Y-90981205D01*
X159441627Y-90796125D01*
X159494623Y-90716841D01*
X159590314Y-90574281D01*
X159673630Y-90452135D01*
X159734117Y-90365614D01*
X159758312Y-90333134D01*
X159812352Y-90244282D01*
X159863827Y-90123180D01*
X159898606Y-90006366D01*
X159905588Y-89952305D01*
X159924835Y-89890758D01*
X159952279Y-89875828D01*
X159978621Y-89867282D01*
X159950695Y-89844629D01*
X159918709Y-89789428D01*
X159905597Y-89696093D01*
X159905708Y-89686451D01*
X159904947Y-89469343D01*
X159892496Y-89270531D01*
X159870207Y-89105429D01*
X159839935Y-88989453D01*
X159816893Y-88947755D01*
X159768263Y-88862312D01*
X159756177Y-88801993D01*
X159742775Y-88706768D01*
X159718393Y-88623943D01*
X159687511Y-88515914D01*
X159665043Y-88392051D01*
X159664562Y-88388055D01*
X159652316Y-88285588D01*
X159634378Y-88137526D01*
X159614209Y-87972415D01*
X159610001Y-87938139D01*
X159594127Y-87792361D01*
X159585293Y-87676231D01*
X159584792Y-87608623D01*
X159586833Y-87599901D01*
X159589214Y-87550619D01*
X159575829Y-87459697D01*
X159570469Y-87434470D01*
X159557337Y-87309779D01*
X159567711Y-87193743D01*
X159570154Y-87184399D01*
X159583297Y-87108467D01*
X159571998Y-87075007D01*
X159570860Y-87074929D01*
X159533048Y-87110848D01*
X159485878Y-87214616D01*
X159431390Y-87380251D01*
X159371627Y-87601772D01*
X159327226Y-87789185D01*
X159286014Y-87960444D01*
X159245971Y-88107159D01*
X159212010Y-88212428D01*
X159191156Y-88257241D01*
X159170518Y-88300470D01*
X159188701Y-88307576D01*
X159209587Y-88336113D01*
X159193032Y-88424716D01*
X159191772Y-88428973D01*
X159158801Y-88550005D01*
X159126245Y-88684967D01*
X159122972Y-88699782D01*
X159097183Y-88814936D01*
X159062044Y-88967823D01*
X159028617Y-89110664D01*
X158996026Y-89251879D01*
X158969610Y-89372375D01*
X158955008Y-89446421D01*
X158954895Y-89447129D01*
X158928766Y-89548261D01*
X158886394Y-89656098D01*
X158838922Y-89747124D01*
X158797490Y-89797821D01*
X158786906Y-89801694D01*
X158751617Y-89831717D01*
X158747647Y-89855012D01*
X158720949Y-89915848D01*
X158663603Y-89977416D01*
X158586536Y-90053933D01*
X158503179Y-90154974D01*
X158487690Y-90176230D01*
X158372605Y-90326550D01*
X158237975Y-90483412D01*
X158095905Y-90634702D01*
X157958501Y-90768310D01*
X157837868Y-90872125D01*
X157746111Y-90934036D01*
X157719840Y-90944447D01*
X157613145Y-90941761D01*
X157538487Y-90884589D01*
X157515000Y-90802110D01*
X157525347Y-90729876D01*
X157552425Y-90612347D01*
X157588971Y-90479845D01*
X157633868Y-90290783D01*
X157664252Y-90085388D01*
X157678428Y-89886214D01*
X157674705Y-89715817D01*
X157654610Y-89605591D01*
X157623306Y-89532116D01*
X157598722Y-89502870D01*
X157560582Y-89529112D01*
X157498230Y-89592452D01*
X157431728Y-89669814D01*
X157381134Y-89738121D01*
X157365588Y-89771068D01*
X157333871Y-89795206D01*
X157281544Y-89802266D01*
X157228243Y-89809179D01*
X157243887Y-89832115D01*
X157249238Y-89835604D01*
X157276743Y-89867312D01*
X157239561Y-89901037D01*
X157227306Y-89907796D01*
X157156368Y-89973972D01*
X157084078Y-90088449D01*
X157015501Y-90235254D01*
X156955698Y-90398416D01*
X156909732Y-90561960D01*
X156882664Y-90709914D01*
X156879557Y-90826305D01*
X156905474Y-90895162D01*
X156912630Y-90900686D01*
X156945902Y-90954997D01*
X156954706Y-91013295D01*
X156977586Y-91101992D01*
X157010735Y-91146400D01*
X157067574Y-91216784D01*
X157055391Y-91268032D01*
X156979087Y-91291795D01*
X156925650Y-91291335D01*
X156821192Y-91291700D01*
X156746209Y-91305745D01*
X156738622Y-91309523D01*
X156689012Y-91306664D01*
X156668929Y-91275932D01*
X156605501Y-91172071D01*
X156502996Y-91063771D01*
X156382745Y-90968421D01*
X156266081Y-90903410D01*
X156189275Y-90884929D01*
X156127840Y-90911108D01*
X156095007Y-90941659D01*
X156079136Y-91010294D01*
X156127431Y-91087641D01*
X156231610Y-91164186D01*
X156329044Y-91210483D01*
X156426655Y-91262315D01*
X156466051Y-91323009D01*
X156469118Y-91353692D01*
X156454731Y-91431171D01*
X156431765Y-91463900D01*
X156405550Y-91513977D01*
X156393868Y-91603015D01*
X156393840Y-91606178D01*
X156382628Y-91732695D01*
X156341942Y-91797685D01*
X156258894Y-91810578D01*
X156145754Y-91787722D01*
X156004299Y-91743827D01*
X155925032Y-91699248D01*
X155896141Y-91643036D01*
X155905598Y-91565071D01*
X155952100Y-91481788D01*
X156033861Y-91451967D01*
X156135287Y-91440035D01*
X156024195Y-91336259D01*
X155926366Y-91215462D01*
X155881890Y-91076500D01*
X155886668Y-90901766D01*
X155902408Y-90813319D01*
X155946547Y-90653082D01*
X156003921Y-90556064D01*
X156083128Y-90520157D01*
X156192769Y-90543252D01*
X156341442Y-90623241D01*
X156432304Y-90683361D01*
X156537628Y-90753684D01*
X156594279Y-90783399D01*
X156613790Y-90776131D01*
X156608554Y-90738757D01*
X156610074Y-90662079D01*
X156634375Y-90537727D01*
X156675137Y-90386832D01*
X156726040Y-90230526D01*
X156780765Y-90089939D01*
X156832992Y-89986203D01*
X156834183Y-89984309D01*
X156888227Y-89912809D01*
X156979648Y-89805643D01*
X157093277Y-89680249D01*
X157161657Y-89607837D01*
X157284135Y-89476964D01*
X157396003Y-89351721D01*
X157480743Y-89250854D01*
X157509222Y-89213385D01*
X157586462Y-89127583D01*
X157672515Y-89094545D01*
X157718647Y-89091988D01*
X157786779Y-89086597D01*
X157836735Y-89060477D01*
X157883726Y-88998707D01*
X157942963Y-88886364D01*
X157956632Y-88858532D01*
X158035452Y-88689934D01*
X158117951Y-88502194D01*
X158166379Y-88385258D01*
X158224223Y-88252541D01*
X158281736Y-88140598D01*
X158323846Y-88077096D01*
X158356490Y-88026617D01*
X158345898Y-88008753D01*
X158287971Y-88028342D01*
X158179974Y-88082437D01*
X158033945Y-88164032D01*
X157861924Y-88266119D01*
X157675950Y-88381691D01*
X157488062Y-88503740D01*
X157438968Y-88536623D01*
X157301994Y-88627401D01*
X157190188Y-88698433D01*
X157116359Y-88741780D01*
X157093058Y-88750978D01*
X157071066Y-88711468D01*
X157038750Y-88653598D01*
X157001236Y-88553504D01*
X156991228Y-88485509D01*
X156990398Y-88400958D01*
X156919077Y-88493783D01*
X156861631Y-88549236D01*
X156819012Y-88557820D01*
X156817187Y-88556265D01*
X156803222Y-88510370D01*
X156784630Y-88403499D01*
X156763339Y-88249093D01*
X156741277Y-88060594D01*
X156728844Y-87940499D01*
X156671070Y-87355076D01*
X156598109Y-87476237D01*
X156539351Y-87555104D01*
X156486868Y-87596035D01*
X156478456Y-87597634D01*
X156435002Y-87616948D01*
X156431765Y-87627937D01*
X156407280Y-87665664D01*
X156341146Y-87743856D01*
X156244346Y-87849958D01*
X156160956Y-87937485D01*
X155953446Y-88153360D01*
X155792355Y-88326369D01*
X155670810Y-88466003D01*
X155581940Y-88581753D01*
X155518874Y-88683111D01*
X155474739Y-88779566D01*
X155442665Y-88880611D01*
X155424804Y-88954254D01*
X155408076Y-89057803D01*
X155411703Y-89155875D01*
X155438781Y-89275964D01*
X155473773Y-89389159D01*
X155511530Y-89519202D01*
X155532045Y-89619742D01*
X155531664Y-89671969D01*
X155529247Y-89674696D01*
X155505084Y-89722997D01*
X155497941Y-89785222D01*
X155484200Y-89854347D01*
X155458645Y-89876400D01*
X155420079Y-89907834D01*
X155381997Y-89983555D01*
X155381574Y-89984761D01*
X155343401Y-90058366D01*
X155279295Y-90094185D01*
X155194602Y-90107350D01*
X155058455Y-90106251D01*
X154931070Y-90081887D01*
X154835663Y-90040647D01*
X154797343Y-89998026D01*
X154816906Y-89953482D01*
X154884019Y-89912840D01*
X154985875Y-89874114D01*
X154913126Y-89791213D01*
X154848341Y-89702890D01*
X154780439Y-89589671D01*
X154767615Y-89565260D01*
X154698688Y-89464787D01*
X154592277Y-89373922D01*
X154452059Y-89288621D01*
X154198317Y-89136814D01*
X154012860Y-88996781D01*
X153891093Y-88863885D01*
X153828422Y-88733487D01*
X153817198Y-88647888D01*
X153822137Y-88595783D01*
X153849777Y-88572657D01*
X153919035Y-88571707D01*
X154003824Y-88580760D01*
X154130227Y-88588120D01*
X154187125Y-88571539D01*
X154175964Y-88530458D01*
X154164925Y-88518482D01*
X154138073Y-88462316D01*
X154130921Y-88428212D01*
X154090823Y-88231971D01*
X154042867Y-88083458D01*
X154005311Y-87945708D01*
X153976808Y-87760108D01*
X153958524Y-87549457D01*
X153951625Y-87336557D01*
X153957277Y-87144208D01*
X153976646Y-86995210D01*
X153985500Y-86961757D01*
X154013706Y-86917378D01*
X154070561Y-86904574D01*
X154172077Y-86922198D01*
X154247640Y-86942950D01*
X154283496Y-86979930D01*
X154338355Y-87064948D01*
X154391402Y-87162435D01*
X154471489Y-87312686D01*
X154528205Y-87394934D01*
X154566477Y-87410318D01*
X154591231Y-87359974D01*
X154607395Y-87245040D01*
X154610149Y-87212929D01*
X154644347Y-87007272D01*
X154715093Y-86841237D01*
X154727346Y-86821157D01*
X154784751Y-86722707D01*
X154820135Y-86647545D01*
X154825588Y-86625923D01*
X154851686Y-86562183D01*
X154925076Y-86455605D01*
X155038402Y-86314290D01*
X155184307Y-86146337D01*
X155355435Y-85959846D01*
X155544429Y-85762916D01*
X155743934Y-85563648D01*
X155946593Y-85370140D01*
X156063154Y-85263311D01*
X156189151Y-85142232D01*
X156312482Y-85011410D01*
X156397791Y-84909982D01*
X156530183Y-84740526D01*
X156630040Y-84623861D01*
X156707272Y-84551300D01*
X156771786Y-84514156D01*
X156833493Y-84503743D01*
X156859622Y-84505117D01*
X156917605Y-84513440D01*
X156952841Y-84535215D01*
X156972836Y-84586756D01*
X156985095Y-84684378D01*
X156993639Y-84796400D01*
X156999473Y-84952763D01*
X156995503Y-85096613D01*
X156982604Y-85197546D01*
X156982064Y-85199686D01*
X156962566Y-85326966D01*
X156961807Y-85442480D01*
X156968670Y-85491195D01*
X156982451Y-85510234D01*
X157010720Y-85492789D01*
X157061050Y-85432050D01*
X157141011Y-85321210D01*
X157216177Y-85213743D01*
X157320214Y-85065269D01*
X157414343Y-84932397D01*
X157486959Y-84831426D01*
X157522063Y-84784184D01*
X157585155Y-84703017D01*
X157671172Y-84787796D01*
X157757189Y-84872575D01*
X157647650Y-85067439D01*
X157570109Y-85200679D01*
X157490989Y-85329389D01*
X157451441Y-85390020D01*
X157401350Y-85472797D01*
X157380026Y-85526675D01*
X157381498Y-85534466D01*
X157414801Y-85519438D01*
X157491795Y-85468266D01*
X157598143Y-85391857D01*
X157719505Y-85301115D01*
X157841544Y-85206948D01*
X157949922Y-85120259D01*
X158030300Y-85051955D01*
X158068341Y-85012942D01*
X158069098Y-85011477D01*
X158105628Y-84976207D01*
X158189177Y-84912402D01*
X158303426Y-84831148D01*
X158432061Y-84743528D01*
X158558763Y-84660627D01*
X158667217Y-84593531D01*
X158741105Y-84553322D01*
X158747647Y-84550516D01*
X158879615Y-84499516D01*
X158964650Y-84476323D01*
X159024324Y-84478950D01*
X159080212Y-84505410D01*
X159100023Y-84518064D01*
X159169059Y-84585390D01*
X159180384Y-84642571D01*
X159134248Y-84809109D01*
X159096567Y-84957028D01*
X159072463Y-85065636D01*
X159066817Y-85101445D01*
X159038554Y-85182015D01*
X159011325Y-85223299D01*
X158970981Y-85303290D01*
X158948493Y-85397701D01*
X158923172Y-85499406D01*
X158874188Y-85626540D01*
X158845530Y-85686730D01*
X158772891Y-85833427D01*
X158698842Y-85991051D01*
X158677571Y-86038385D01*
X158615043Y-86156008D01*
X158565770Y-86206102D01*
X158533710Y-86195262D01*
X158522819Y-86130085D01*
X158537056Y-86017166D01*
X158577488Y-85871602D01*
X158616261Y-85744710D01*
X158646006Y-85626910D01*
X158651020Y-85601658D01*
X158674921Y-85497018D01*
X158711370Y-85366442D01*
X158725339Y-85321511D01*
X158780899Y-85139913D01*
X158822584Y-84986046D01*
X158847145Y-84873281D01*
X158851336Y-84814989D01*
X158849330Y-84810926D01*
X158813471Y-84822974D01*
X158731769Y-84868696D01*
X158619762Y-84939181D01*
X158581640Y-84964449D01*
X158029238Y-85377138D01*
X157504913Y-85854218D01*
X157079642Y-86314051D01*
X156985036Y-86414153D01*
X156899756Y-86486043D01*
X156841817Y-86514605D01*
X156840627Y-86514635D01*
X156774892Y-86545794D01*
X156750360Y-86585890D01*
X156702556Y-86664218D01*
X156641881Y-86675968D01*
X156586565Y-86619871D01*
X156576796Y-86597966D01*
X156557262Y-86495558D01*
X156563452Y-86346335D01*
X156578545Y-86234488D01*
X156614179Y-85995921D01*
X156639673Y-85790733D01*
X156658506Y-85585531D01*
X156674158Y-85346919D01*
X156677772Y-85281988D01*
X156697055Y-84927135D01*
X156611101Y-85043124D01*
X156560675Y-85101881D01*
X156465604Y-85204102D01*
X156334500Y-85340859D01*
X156175977Y-85503227D01*
X155998647Y-85682278D01*
X155882939Y-85797847D01*
X155614736Y-86069272D01*
X155398243Y-86299810D01*
X155228011Y-86496674D01*
X155098594Y-86667079D01*
X155004542Y-86818240D01*
X154940406Y-86957371D01*
X154900740Y-87091688D01*
X154898728Y-87101150D01*
X154884062Y-87218573D01*
X154877172Y-87379733D01*
X154877220Y-87570111D01*
X154883370Y-87775189D01*
X154894785Y-87980449D01*
X154910629Y-88171372D01*
X154930064Y-88333439D01*
X154952255Y-88452133D01*
X154976363Y-88512934D01*
X154980284Y-88516283D01*
X155010371Y-88566983D01*
X155005897Y-88633278D01*
X154972314Y-88677659D01*
X154956324Y-88681106D01*
X154906615Y-88701275D01*
X154900294Y-88718458D01*
X154868472Y-88747045D01*
X154811443Y-88755811D01*
X154735581Y-88723041D01*
X154673201Y-88642877D01*
X154641500Y-88542539D01*
X154643201Y-88489498D01*
X154638094Y-88402028D01*
X154605207Y-88265919D01*
X154550762Y-88099048D01*
X154480980Y-87919294D01*
X154402083Y-87744539D01*
X154347430Y-87639527D01*
X154304910Y-87592263D01*
X154273454Y-87611628D01*
X154258162Y-87689785D01*
X154259731Y-87774258D01*
X154311863Y-88059073D01*
X154423052Y-88360850D01*
X154560426Y-88619045D01*
X154633390Y-88745476D01*
X154687468Y-88852944D01*
X154712785Y-88921484D01*
X154713529Y-88928554D01*
X154736366Y-88970255D01*
X154771175Y-88965801D01*
X154835705Y-88971047D01*
X154930657Y-89010212D01*
X154972119Y-89034140D01*
X155115416Y-89124599D01*
X155139557Y-88942622D01*
X155201123Y-88714502D01*
X155328005Y-88476495D01*
X155522913Y-88223913D01*
X155610000Y-88128780D01*
X155729667Y-88001801D01*
X155840984Y-87881766D01*
X155925878Y-87788235D01*
X155948403Y-87762608D01*
X156038515Y-87667009D01*
X156129040Y-87583554D01*
X156135647Y-87578161D01*
X156273538Y-87441152D01*
X156416671Y-87253628D01*
X156549729Y-87036898D01*
X156611543Y-86916179D01*
X156676430Y-86785801D01*
X156725441Y-86709926D01*
X156771640Y-86674186D01*
X156828096Y-86664214D01*
X156840826Y-86664047D01*
X156927312Y-86676106D01*
X156974353Y-86702971D01*
X156982399Y-86751987D01*
X156988998Y-86862073D01*
X156993683Y-87019598D01*
X156995991Y-87210933D01*
X156996034Y-87337971D01*
X156995988Y-87539480D01*
X156997393Y-87711870D01*
X157000031Y-87842624D01*
X157003681Y-87919224D01*
X157006455Y-87934047D01*
X157033134Y-87906206D01*
X157086956Y-87835212D01*
X157123773Y-87783223D01*
X157198850Y-87689933D01*
X157250331Y-87662656D01*
X157267059Y-87671164D01*
X157335885Y-87705113D01*
X157373059Y-87709929D01*
X157420865Y-87742103D01*
X157441091Y-87827576D01*
X157432590Y-87949776D01*
X157398622Y-88079791D01*
X157372250Y-88178580D01*
X157385945Y-88215057D01*
X157442438Y-88190914D01*
X157502555Y-88144227D01*
X157583792Y-88086713D01*
X157706158Y-88012613D01*
X157852407Y-87930947D01*
X158005292Y-87850738D01*
X158147567Y-87781005D01*
X158261985Y-87730768D01*
X158331301Y-87709049D01*
X158335061Y-87708793D01*
X158369148Y-87701701D01*
X158337871Y-87675764D01*
X158327426Y-87669584D01*
X158271642Y-87611383D01*
X158276420Y-87532863D01*
X158343615Y-87428838D01*
X158454780Y-87313089D01*
X158606286Y-87168787D01*
X158709262Y-87067089D01*
X158770334Y-87000209D01*
X158796126Y-86960365D01*
X158793262Y-86939771D01*
X158778412Y-86932813D01*
X158684848Y-86905502D01*
X158651668Y-86883085D01*
X158666771Y-86852367D01*
X158686174Y-86832242D01*
X158758662Y-86785713D01*
X158801008Y-86776106D01*
X158852459Y-86760580D01*
X158859706Y-86746256D01*
X158891933Y-86714164D01*
X158970989Y-86677212D01*
X159070434Y-86645131D01*
X159163830Y-86627649D01*
X159184622Y-86626694D01*
X159270908Y-86652788D01*
X159308404Y-86683280D01*
X159318453Y-86710643D01*
X159305457Y-86750685D01*
X159263274Y-86810915D01*
X159185760Y-86898845D01*
X159066773Y-87021982D01*
X158900170Y-87187837D01*
X158877084Y-87210575D01*
X158707451Y-87377835D01*
X158586065Y-87499457D01*
X158507922Y-87582198D01*
X158468018Y-87632813D01*
X158461348Y-87658059D01*
X158482908Y-87664692D01*
X158527692Y-87659468D01*
X158546950Y-87656254D01*
X158653123Y-87646785D01*
X158721821Y-87670049D01*
X158768063Y-87713387D01*
X158812878Y-87777056D01*
X158800721Y-87809048D01*
X158792779Y-87812401D01*
X158764417Y-87841236D01*
X158785941Y-87879151D01*
X158800961Y-87925434D01*
X158756391Y-87974728D01*
X158732662Y-87991092D01*
X158610162Y-88107492D01*
X158486342Y-88295993D01*
X158362726Y-88554043D01*
X158297695Y-88718454D01*
X158188169Y-88973246D01*
X158072901Y-89167953D01*
X158025983Y-89227192D01*
X157883289Y-89389552D01*
X157876571Y-89801072D01*
X157875855Y-89966293D01*
X157879049Y-90099862D01*
X157885540Y-90186722D01*
X157893268Y-90212584D01*
X157919737Y-90181271D01*
X157962881Y-90100741D01*
X157996170Y-90027802D01*
X158057240Y-89910610D01*
X158124862Y-89816593D01*
X158158493Y-89785008D01*
X158202737Y-89743758D01*
X158191091Y-89726988D01*
X158160062Y-89716216D01*
X158185849Y-89672777D01*
X158187353Y-89670958D01*
X158256576Y-89630133D01*
X158345388Y-89614929D01*
X158422066Y-89621625D01*
X158442622Y-89656328D01*
X158431316Y-89717650D01*
X158395382Y-89827926D01*
X158339509Y-89966489D01*
X158279055Y-90095783D01*
X158268259Y-90116313D01*
X158279612Y-90123680D01*
X158331289Y-90093616D01*
X158417790Y-90009746D01*
X158512203Y-89883829D01*
X158596221Y-89743770D01*
X158651537Y-89617474D01*
X158657562Y-89596253D01*
X158696289Y-89500623D01*
X158744496Y-89438691D01*
X158781832Y-89402894D01*
X158756966Y-89392253D01*
X158749515Y-89391999D01*
X158715823Y-89380430D01*
X158740176Y-89345988D01*
X158776717Y-89274073D01*
X158785000Y-89217457D01*
X158798000Y-89142711D01*
X158817684Y-89113550D01*
X158842414Y-89064759D01*
X158850368Y-88997061D01*
X158864933Y-88898300D01*
X158900710Y-88780904D01*
X158907899Y-88762924D01*
X158967989Y-88615252D01*
X159005043Y-88512401D01*
X159026887Y-88431158D01*
X159035972Y-88382982D01*
X159056942Y-88304991D01*
X159076920Y-88270923D01*
X159102217Y-88219951D01*
X159102500Y-88214194D01*
X159109794Y-88160923D01*
X159128921Y-88057110D01*
X159155746Y-87925192D01*
X159155848Y-87924708D01*
X159192861Y-87777837D01*
X159229246Y-87696586D01*
X159267907Y-87672004D01*
X159302152Y-87662231D01*
X159282764Y-87643539D01*
X159264011Y-87589956D01*
X159276161Y-87471915D01*
X159319417Y-87288338D01*
X159393978Y-87038144D01*
X159397135Y-87028238D01*
X159426141Y-86927157D01*
X159438304Y-86862903D01*
X159435576Y-86850811D01*
X159437166Y-86823105D01*
X159450196Y-86794782D01*
X159532059Y-86794782D01*
X159550735Y-86813458D01*
X159569412Y-86794782D01*
X159550735Y-86776106D01*
X159532059Y-86794782D01*
X159450196Y-86794782D01*
X159463084Y-86766767D01*
X159502200Y-86679787D01*
X159517649Y-86626694D01*
X159539274Y-86512102D01*
X159571913Y-86363745D01*
X159609771Y-86205433D01*
X159647050Y-86060974D01*
X159677955Y-85954177D01*
X159689048Y-85922724D01*
X159721742Y-85829588D01*
X159736789Y-85767576D01*
X159750223Y-85691463D01*
X159769706Y-85599488D01*
X159793952Y-85483426D01*
X159810093Y-85394047D01*
X159823489Y-85310000D01*
X159844116Y-85180677D01*
X159866693Y-85039194D01*
X159885541Y-84899953D01*
X159903313Y-84731038D01*
X159919161Y-84546607D01*
X159932233Y-84360820D01*
X159941681Y-84187836D01*
X159946655Y-84041816D01*
X159946305Y-83936917D01*
X159939780Y-83887301D01*
X159935925Y-83885589D01*
X159920684Y-83864130D01*
X159916243Y-83790610D01*
X159917053Y-83770097D01*
X159929145Y-83683265D01*
X159949579Y-83639670D01*
X159953594Y-83638471D01*
X159963155Y-83611710D01*
X159948556Y-83573091D01*
X159924607Y-83500136D01*
X159900462Y-83383979D01*
X159888229Y-83302282D01*
X159830283Y-82994646D01*
X159741480Y-82751106D01*
X159620002Y-82566925D01*
X159596287Y-82541499D01*
X159534824Y-82480632D01*
X159481019Y-82440160D01*
X159421752Y-82420303D01*
X159343907Y-82421282D01*
X159234365Y-82443320D01*
X159080008Y-82486637D01*
X158867720Y-82551455D01*
X158859706Y-82553922D01*
X158691615Y-82602773D01*
X158535599Y-82643014D01*
X158415038Y-82668833D01*
X158374118Y-82674631D01*
X158267277Y-82697542D01*
X158130927Y-82744382D01*
X158037941Y-82784745D01*
X157909697Y-82846319D01*
X157742715Y-82926461D01*
X157565616Y-83011436D01*
X157496324Y-83044677D01*
X157352249Y-83115265D01*
X157235028Y-83175472D01*
X157160103Y-83217213D01*
X157141471Y-83230511D01*
X157099046Y-83260712D01*
X157014244Y-83307799D01*
X156973382Y-83328425D01*
X156836280Y-83397872D01*
X156691178Y-83474821D01*
X156554503Y-83550123D01*
X156442684Y-83614628D01*
X156372152Y-83659186D01*
X156357059Y-83671674D01*
X156318817Y-83700459D01*
X156231355Y-83757684D01*
X156109704Y-83833675D01*
X156030221Y-83882044D01*
X155898101Y-83964435D01*
X155794308Y-84034358D01*
X155732826Y-84082105D01*
X155722059Y-84095948D01*
X155693272Y-84123174D01*
X155683832Y-84124047D01*
X155638091Y-84144353D01*
X155547774Y-84198719D01*
X155428761Y-84277319D01*
X155366982Y-84320150D01*
X155225596Y-84419569D01*
X155092301Y-84513139D01*
X154989792Y-84584935D01*
X154966312Y-84601326D01*
X154714171Y-84794186D01*
X154469242Y-85009901D01*
X154368719Y-85098396D01*
X154272319Y-85174226D01*
X154247255Y-85191623D01*
X154179946Y-85250605D01*
X154153235Y-85302249D01*
X154126181Y-85357660D01*
X154060798Y-85423960D01*
X154057928Y-85426241D01*
X153994193Y-85480653D01*
X153967557Y-85512013D01*
X153967681Y-85512996D01*
X153957201Y-85555350D01*
X153919673Y-85658566D01*
X153858083Y-85815107D01*
X153775421Y-86017434D01*
X153674672Y-86258007D01*
X153640642Y-86338216D01*
X153568024Y-86511767D01*
X153522937Y-86629935D01*
X153502235Y-86705454D01*
X153502773Y-86751059D01*
X153521404Y-86779482D01*
X153529904Y-86786452D01*
X153577172Y-86854526D01*
X153571998Y-86925841D01*
X153521306Y-86972612D01*
X153482129Y-86978159D01*
X153428220Y-86983382D01*
X153411613Y-87018981D01*
X153423037Y-87105677D01*
X153423642Y-87108895D01*
X153439500Y-87218307D01*
X153455081Y-87366789D01*
X153465127Y-87495150D01*
X153472456Y-87628546D01*
X153469516Y-87703953D01*
X153451229Y-87737905D01*
X153412518Y-87746940D01*
X153387710Y-87747282D01*
X153316865Y-87737671D01*
X153292875Y-87719267D01*
X153270270Y-87673383D01*
X153217810Y-87602627D01*
X153143988Y-87514002D01*
X153070537Y-87607380D01*
X153005341Y-87672146D01*
X152897796Y-87760781D01*
X152768350Y-87856689D01*
X152733974Y-87880534D01*
X152616165Y-87964402D01*
X152528152Y-88033538D01*
X152483601Y-88076928D01*
X152480946Y-88084465D01*
X152512228Y-88119144D01*
X152585285Y-88188051D01*
X152685006Y-88276986D01*
X152696471Y-88286962D01*
X152939944Y-88498912D01*
X153138031Y-88673498D01*
X153302128Y-88821902D01*
X153443635Y-88955302D01*
X153573950Y-89084876D01*
X153704472Y-89221805D01*
X153846600Y-89377268D01*
X154011731Y-89562443D01*
X154107625Y-89670958D01*
X154169935Y-89746375D01*
X154250394Y-89849668D01*
X154284564Y-89895076D01*
X154358748Y-89988530D01*
X154421532Y-90056820D01*
X154442500Y-90074359D01*
X154474395Y-90127285D01*
X154489442Y-90216665D01*
X154488205Y-90315774D01*
X154471247Y-90397889D01*
X154439132Y-90436286D01*
X154434855Y-90436694D01*
X154367274Y-90410143D01*
X154332134Y-90378315D01*
X154253407Y-90289955D01*
X154138712Y-90169553D01*
X154006454Y-90035559D01*
X153875038Y-89906421D01*
X153762868Y-89800585D01*
X153705000Y-89749702D01*
X153435319Y-89543908D01*
X153134449Y-89343227D01*
X152821424Y-89158610D01*
X152515280Y-89001006D01*
X152235049Y-88881368D01*
X152136177Y-88847135D01*
X152017611Y-88807005D01*
X151927170Y-88772027D01*
X151893382Y-88755240D01*
X151843056Y-88740066D01*
X151741915Y-88721070D01*
X151613498Y-88701669D01*
X151481344Y-88685282D01*
X151368994Y-88675327D01*
X151333088Y-88673882D01*
X151226402Y-88677844D01*
X151078404Y-88690183D01*
X150913578Y-88708050D01*
X150756403Y-88728597D01*
X150631363Y-88748977D01*
X150574349Y-88762141D01*
X150477690Y-88781736D01*
X150410349Y-88760640D01*
X150378246Y-88735015D01*
X150316884Y-88664387D01*
X150320504Y-88605941D01*
X150383727Y-88540666D01*
X150469182Y-88468973D01*
X150561153Y-88391395D01*
X150648843Y-88327009D01*
X150724576Y-88286693D01*
X150727307Y-88285775D01*
X150847170Y-88212679D01*
X150967406Y-88074488D01*
X151066528Y-87907274D01*
X151119488Y-87799327D01*
X151155234Y-87720442D01*
X151165000Y-87692494D01*
X151138802Y-87671326D01*
X151081146Y-87682998D01*
X151023435Y-87719991D01*
X151015930Y-87728194D01*
X150964723Y-87766022D01*
X150939840Y-87765314D01*
X150900724Y-87769490D01*
X150897382Y-87775064D01*
X150855574Y-87803538D01*
X150763853Y-87842143D01*
X150644814Y-87883691D01*
X150521053Y-87920992D01*
X150415164Y-87946857D01*
X150349743Y-87954097D01*
X150341799Y-87951836D01*
X150316055Y-87902098D01*
X150305882Y-87818524D01*
X150322323Y-87731907D01*
X150383714Y-87664628D01*
X150436618Y-87630274D01*
X150518596Y-87576490D01*
X150564071Y-87536136D01*
X150567330Y-87528813D01*
X150532521Y-87519370D01*
X150438277Y-87512600D01*
X150299846Y-87509234D01*
X150165786Y-87509508D01*
X149940662Y-87506082D01*
X149687071Y-87492609D01*
X149448447Y-87471664D01*
X149372059Y-87462458D01*
X149177985Y-87438119D01*
X148982532Y-87415996D01*
X148815507Y-87399367D01*
X148748959Y-87393921D01*
X148518064Y-87377454D01*
X148492182Y-87497000D01*
X148453463Y-87609684D01*
X148394083Y-87716183D01*
X148328822Y-87794290D01*
X148275905Y-87821988D01*
X148209561Y-87790507D01*
X148137308Y-87712754D01*
X148075515Y-87613765D01*
X148040553Y-87518575D01*
X148041981Y-87464216D01*
X148042151Y-87424838D01*
X147994602Y-87412688D01*
X147888928Y-87426012D01*
X147854596Y-87432637D01*
X147747206Y-87454169D01*
X147741750Y-87946240D01*
X147724462Y-88338537D01*
X147680788Y-88671050D01*
X147608859Y-88954565D01*
X147533806Y-89144627D01*
X147340226Y-89547918D01*
X147150901Y-89918665D01*
X146970736Y-90247989D01*
X146804637Y-90527009D01*
X146657510Y-90746844D01*
X146623331Y-90792739D01*
X146416431Y-91053847D01*
X146237851Y-91257169D01*
X146079334Y-91410061D01*
X145932627Y-91519877D01*
X145789476Y-91593973D01*
X145684691Y-91629141D01*
X145583261Y-91662928D01*
X145516002Y-91697286D01*
X145505402Y-91707709D01*
X145457192Y-91730260D01*
X145363497Y-91742995D01*
X145325229Y-91744047D01*
X145240290Y-91738912D01*
X145170634Y-91715891D01*
X145096773Y-91663557D01*
X144999219Y-91570486D01*
X144958875Y-91529267D01*
X144735193Y-91253349D01*
X144580832Y-90959564D01*
X144497283Y-90652567D01*
X144487302Y-90372496D01*
X144786026Y-90372496D01*
X144791268Y-90494880D01*
X144795464Y-90547061D01*
X144810760Y-90692766D01*
X144828799Y-90818155D01*
X144845687Y-90896180D01*
X144845753Y-90896379D01*
X144865522Y-90999790D01*
X144868328Y-91076841D01*
X144894517Y-91180203D01*
X144937856Y-91226253D01*
X145013994Y-91284649D01*
X145108207Y-91364593D01*
X145128333Y-91382637D01*
X145220271Y-91452266D01*
X145309910Y-91475836D01*
X145401081Y-91471520D01*
X145527237Y-91440588D01*
X145667896Y-91381218D01*
X145727847Y-91347342D01*
X145838442Y-91267203D01*
X145878932Y-91209551D01*
X145849731Y-91172215D01*
X145815950Y-91165076D01*
X145972941Y-91165076D01*
X145991618Y-91183753D01*
X146010294Y-91165076D01*
X145991618Y-91146400D01*
X145972941Y-91165076D01*
X145815950Y-91165076D01*
X145764619Y-91154228D01*
X145633088Y-91129467D01*
X145524733Y-91088296D01*
X145459838Y-91039742D01*
X145450000Y-91014245D01*
X145425691Y-90960936D01*
X145412277Y-90953286D01*
X145380442Y-90907517D01*
X145353700Y-90804252D01*
X145333346Y-90660603D01*
X145320675Y-90493683D01*
X145316985Y-90320605D01*
X145323571Y-90158482D01*
X145341728Y-90024426D01*
X145341881Y-90023711D01*
X145361419Y-89932429D01*
X145412647Y-89932429D01*
X145431324Y-89951106D01*
X145450000Y-89932429D01*
X145431324Y-89913753D01*
X145412647Y-89932429D01*
X145361419Y-89932429D01*
X145366965Y-89906518D01*
X145385981Y-89817257D01*
X145391890Y-89789255D01*
X145449138Y-89566893D01*
X145527752Y-89334014D01*
X145619732Y-89109339D01*
X145717079Y-88911586D01*
X145811794Y-88759476D01*
X145853735Y-88708427D01*
X145950894Y-88605013D01*
X145997947Y-88689750D01*
X146036414Y-88776231D01*
X146037694Y-88852193D01*
X145998238Y-88944312D01*
X145954423Y-89017031D01*
X145857985Y-89197567D01*
X145771487Y-89408270D01*
X145724554Y-89558900D01*
X145692982Y-89659021D01*
X145674188Y-89708311D01*
X145621422Y-89881545D01*
X145586261Y-90090577D01*
X145570374Y-90309833D01*
X145575428Y-90513743D01*
X145603092Y-90676733D01*
X145609687Y-90697190D01*
X145690307Y-90826301D01*
X145821998Y-90900978D01*
X145976054Y-90921731D01*
X146089808Y-90914077D01*
X146130855Y-90889677D01*
X146099361Y-90848230D01*
X146037313Y-90810536D01*
X145880749Y-90687590D01*
X145818847Y-90585726D01*
X145954385Y-90585726D01*
X145955622Y-90680423D01*
X146010867Y-90747859D01*
X146100408Y-90765335D01*
X146158630Y-90736823D01*
X146178025Y-90661200D01*
X146178382Y-90642135D01*
X146166817Y-90559992D01*
X146118519Y-90525415D01*
X146078868Y-90518566D01*
X145995690Y-90526996D01*
X145954385Y-90585726D01*
X145818847Y-90585726D01*
X145776412Y-90515897D01*
X145724400Y-90300226D01*
X145724811Y-90045345D01*
X145777745Y-89756021D01*
X145883301Y-89437021D01*
X146003295Y-89168508D01*
X146078353Y-89024875D01*
X146137736Y-88935586D01*
X146193721Y-88885704D01*
X146256126Y-88860911D01*
X146394276Y-88795229D01*
X146482484Y-88678228D01*
X146524011Y-88512962D01*
X146529684Y-88395160D01*
X146507343Y-88315613D01*
X146454226Y-88246842D01*
X146365147Y-88151898D01*
X146477206Y-88060721D01*
X146562426Y-87991452D01*
X146627296Y-87938845D01*
X146634379Y-87933119D01*
X146708230Y-87899599D01*
X146732526Y-87896694D01*
X146799419Y-87870275D01*
X146832059Y-87840664D01*
X146904495Y-87795993D01*
X146967368Y-87784635D01*
X147039703Y-87761334D01*
X147052548Y-87704134D01*
X147016235Y-87647576D01*
X146976549Y-87577655D01*
X146966203Y-87537385D01*
X146926156Y-87472019D01*
X146838742Y-87452418D01*
X146714886Y-87477623D01*
X146565512Y-87546673D01*
X146515540Y-87576954D01*
X146404364Y-87644980D01*
X146316780Y-87692920D01*
X146273543Y-87709929D01*
X146226429Y-87736909D01*
X146141812Y-87810637D01*
X146029807Y-87920296D01*
X145900527Y-88055071D01*
X145764085Y-88204145D01*
X145630596Y-88356701D01*
X145510173Y-88501923D01*
X145412929Y-88628994D01*
X145408742Y-88634837D01*
X145316617Y-88765331D01*
X145243423Y-88871670D01*
X145198379Y-88940304D01*
X145188529Y-88958579D01*
X145174541Y-88998321D01*
X145138637Y-89084020D01*
X145107711Y-89154259D01*
X145063270Y-89260810D01*
X145036697Y-89338843D01*
X145033005Y-89362797D01*
X145013339Y-89390721D01*
X145011103Y-89390811D01*
X144989419Y-89423133D01*
X144978862Y-89493532D01*
X144965478Y-89610684D01*
X144948664Y-89689635D01*
X144923210Y-89783803D01*
X144909057Y-89839047D01*
X144893336Y-89888586D01*
X144888562Y-89895076D01*
X144880902Y-89927535D01*
X144872008Y-90005741D01*
X144871886Y-90007135D01*
X144862195Y-90092572D01*
X144853077Y-90137870D01*
X144848829Y-90185618D01*
X144851441Y-90244787D01*
X144844346Y-90306676D01*
X144815637Y-90306352D01*
X144793908Y-90312524D01*
X144786026Y-90372496D01*
X144487302Y-90372496D01*
X144486037Y-90337013D01*
X144514953Y-90143976D01*
X144587336Y-89824878D01*
X144588451Y-89820370D01*
X144702941Y-89820370D01*
X144721618Y-89839047D01*
X144740294Y-89820370D01*
X144721618Y-89801694D01*
X144702941Y-89820370D01*
X144588451Y-89820370D01*
X144651901Y-89563834D01*
X144712834Y-89345163D01*
X144774322Y-89153184D01*
X144795818Y-89091988D01*
X144848876Y-88941630D01*
X144895908Y-88803884D01*
X144927712Y-88705767D01*
X144930257Y-88697302D01*
X144973674Y-88600855D01*
X145055669Y-88461983D01*
X145166351Y-88295110D01*
X145295829Y-88114660D01*
X145434212Y-87935057D01*
X145543382Y-87803189D01*
X145694031Y-87644036D01*
X145874326Y-87478219D01*
X146014500Y-87362915D01*
X147173890Y-87362915D01*
X147185064Y-87405511D01*
X147191891Y-87406065D01*
X147238763Y-87382527D01*
X147332205Y-87333662D01*
X147452999Y-87269533D01*
X147467059Y-87262017D01*
X147566489Y-87209896D01*
X147647415Y-87173986D01*
X147727241Y-87151248D01*
X147823372Y-87138642D01*
X147953212Y-87133128D01*
X148134165Y-87131667D01*
X148214118Y-87131550D01*
X148602697Y-87137137D01*
X149019271Y-87153613D01*
X149431421Y-87179270D01*
X149806729Y-87212401D01*
X149861767Y-87218345D01*
X150020752Y-87228042D01*
X150215968Y-87228630D01*
X150409504Y-87220149D01*
X150440738Y-87217705D01*
X150633296Y-87203392D01*
X150837069Y-87191392D01*
X151012333Y-87184000D01*
X151034265Y-87183417D01*
X151176376Y-87175269D01*
X151295804Y-87159902D01*
X151365591Y-87141044D01*
X151455620Y-87125403D01*
X151613948Y-87135758D01*
X151720444Y-87151035D01*
X151922088Y-87175523D01*
X152083525Y-87174173D01*
X152191731Y-87157389D01*
X152300464Y-87137428D01*
X152374868Y-87129931D01*
X152393157Y-87132694D01*
X152388067Y-87170148D01*
X152344028Y-87219758D01*
X152286746Y-87256254D01*
X152261931Y-87261694D01*
X152198249Y-87276293D01*
X152098185Y-87313114D01*
X152051725Y-87333135D01*
X151920738Y-87387960D01*
X151791390Y-87435692D01*
X151762647Y-87445021D01*
X151666566Y-87491677D01*
X151590150Y-87575788D01*
X151539443Y-87663065D01*
X151484031Y-87765921D01*
X151441383Y-87838668D01*
X151426522Y-87859341D01*
X151388402Y-87907641D01*
X151338633Y-87984679D01*
X151295443Y-88060489D01*
X151277059Y-88105062D01*
X151310249Y-88114723D01*
X151397062Y-88110021D01*
X151518356Y-88093530D01*
X151654992Y-88067823D01*
X151781324Y-88037277D01*
X151884016Y-88004171D01*
X151955715Y-87972375D01*
X151966221Y-87965103D01*
X152034786Y-87935403D01*
X152050602Y-87934047D01*
X152102594Y-87914710D01*
X152196140Y-87863726D01*
X152315133Y-87791633D01*
X152443465Y-87708970D01*
X152565027Y-87626277D01*
X152663711Y-87554091D01*
X152723409Y-87502953D01*
X152733824Y-87487045D01*
X152764301Y-87448950D01*
X152799191Y-87432567D01*
X152866700Y-87381971D01*
X152943455Y-87282350D01*
X153016026Y-87155861D01*
X153070984Y-87024662D01*
X153089920Y-86952892D01*
X153147450Y-86809523D01*
X153218434Y-86728774D01*
X153274525Y-86667008D01*
X153329873Y-86568550D01*
X153390302Y-86421133D01*
X153457701Y-86224617D01*
X153521970Y-86034166D01*
X153589087Y-85847405D01*
X153650059Y-85688768D01*
X153687160Y-85601161D01*
X153743952Y-85474504D01*
X153792101Y-85362814D01*
X153813488Y-85310055D01*
X153882935Y-85227609D01*
X153886351Y-85225958D01*
X154078529Y-85225958D01*
X154097206Y-85244635D01*
X154115882Y-85225958D01*
X154097206Y-85207282D01*
X154078529Y-85225958D01*
X153886351Y-85225958D01*
X153998929Y-85171544D01*
X154087862Y-85135994D01*
X154133751Y-85105232D01*
X154135343Y-85096493D01*
X154148571Y-85056354D01*
X154198027Y-84978869D01*
X154269618Y-84881904D01*
X154349249Y-84783325D01*
X154422824Y-84700998D01*
X154476249Y-84652790D01*
X154489958Y-84646988D01*
X154525420Y-84618310D01*
X154526765Y-84607843D01*
X154555612Y-84553596D01*
X154629694Y-84477439D01*
X154730315Y-84396120D01*
X154838782Y-84326384D01*
X154844265Y-84323400D01*
X154926426Y-84273649D01*
X154974963Y-84234152D01*
X154976532Y-84231982D01*
X155015708Y-84198228D01*
X155101350Y-84136715D01*
X155216648Y-84059402D01*
X155244896Y-84041091D01*
X155493051Y-83881253D01*
X155365307Y-83619782D01*
X155302485Y-83484277D01*
X155264451Y-83374949D01*
X155245123Y-83263270D01*
X155238420Y-83120712D01*
X155237908Y-83022135D01*
X155242203Y-82850016D01*
X155253326Y-82687612D01*
X155269148Y-82563050D01*
X155274666Y-82536547D01*
X155304553Y-82404769D01*
X155329752Y-82278984D01*
X155332160Y-82265412D01*
X155353241Y-82143688D01*
X155191445Y-82252883D01*
X155041584Y-82370666D01*
X154892146Y-82516172D01*
X154761736Y-82668927D01*
X154668959Y-82808459D01*
X154649130Y-82849640D01*
X154617338Y-82974287D01*
X154606347Y-83124422D01*
X154607816Y-83163958D01*
X154601760Y-83312026D01*
X154559643Y-83394709D01*
X154481502Y-83411972D01*
X154383140Y-83373119D01*
X154309393Y-83335831D01*
X154271687Y-83341698D01*
X154243782Y-83391795D01*
X154193812Y-83459899D01*
X154137547Y-83454808D01*
X154077015Y-83377568D01*
X154034152Y-83283606D01*
X153972708Y-83154061D01*
X153899849Y-83037941D01*
X153866360Y-82997143D01*
X153738505Y-82892590D01*
X153563759Y-82788775D01*
X153368828Y-82699257D01*
X153180419Y-82637597D01*
X153141006Y-82628820D01*
X153007954Y-82598236D01*
X152891402Y-82564498D01*
X152845882Y-82547524D01*
X152777058Y-82532761D01*
X152651051Y-82520003D01*
X152481876Y-82509470D01*
X152283547Y-82501385D01*
X152070078Y-82495969D01*
X151855483Y-82493443D01*
X151653775Y-82494030D01*
X151478970Y-82497952D01*
X151345080Y-82505428D01*
X151266121Y-82516682D01*
X151253000Y-82522338D01*
X151190654Y-82534853D01*
X151108175Y-82495238D01*
X150999512Y-82443289D01*
X150901845Y-82418524D01*
X150699668Y-82395704D01*
X150551087Y-82376946D01*
X150435320Y-82359322D01*
X150331585Y-82339905D01*
X150305882Y-82334593D01*
X150250895Y-82322175D01*
X152152377Y-82322175D01*
X152189093Y-82328157D01*
X152237540Y-82321289D01*
X152237942Y-82312429D01*
X152547059Y-82312429D01*
X152565735Y-82331106D01*
X152584412Y-82312429D01*
X152565735Y-82293753D01*
X152547059Y-82312429D01*
X152237942Y-82312429D01*
X152238119Y-82308538D01*
X152188126Y-82299621D01*
X152166526Y-82305589D01*
X152152377Y-82322175D01*
X150250895Y-82322175D01*
X150054905Y-82277914D01*
X149866771Y-82226569D01*
X149746795Y-82182031D01*
X149735691Y-82176397D01*
X149684917Y-82155303D01*
X149674268Y-82180758D01*
X149687403Y-82242433D01*
X149737045Y-82387698D01*
X149819197Y-82573170D01*
X149922797Y-82778373D01*
X150036785Y-82982831D01*
X150150099Y-83166067D01*
X150251679Y-83307603D01*
X150281818Y-83342850D01*
X150434648Y-83475472D01*
X150628393Y-83595322D01*
X150831246Y-83684707D01*
X150957921Y-83719013D01*
X151021225Y-83763033D01*
X151058689Y-83845945D01*
X151058433Y-83933253D01*
X151042648Y-83965041D01*
X150975992Y-83993805D01*
X150856470Y-83987390D01*
X150695904Y-83947977D01*
X150506122Y-83877748D01*
X150459466Y-83857414D01*
X150348099Y-83810627D01*
X150251504Y-83775197D01*
X150181258Y-83754110D01*
X150148934Y-83750353D01*
X150166108Y-83766912D01*
X150221838Y-83796106D01*
X150292156Y-83846400D01*
X150298795Y-83892004D01*
X150259191Y-83916142D01*
X150205337Y-83927004D01*
X150094271Y-83946050D01*
X149942679Y-83970507D01*
X149782941Y-83995228D01*
X149543182Y-84037831D01*
X149342634Y-84090857D01*
X149161892Y-84163218D01*
X148981555Y-84263822D01*
X148782219Y-84401579D01*
X148609010Y-84534298D01*
X148386616Y-84727271D01*
X148159864Y-84956041D01*
X147941338Y-85205236D01*
X147743619Y-85459482D01*
X147579293Y-85703409D01*
X147460941Y-85921642D01*
X147446610Y-85954341D01*
X147389072Y-86096982D01*
X147344897Y-86224956D01*
X147310013Y-86356108D01*
X147280347Y-86508285D01*
X147251826Y-86699334D01*
X147220733Y-86944194D01*
X147202633Y-87090145D01*
X147184316Y-87233450D01*
X147178774Y-87275598D01*
X147173890Y-87362915D01*
X146014500Y-87362915D01*
X146065870Y-87320659D01*
X146250268Y-87186279D01*
X146409124Y-87090003D01*
X146442834Y-87073571D01*
X146538493Y-87027539D01*
X146598090Y-86994137D01*
X146607941Y-86985175D01*
X146587059Y-86907750D01*
X146536723Y-86813313D01*
X146475399Y-86731188D01*
X146422657Y-86690964D01*
X146380550Y-86670619D01*
X146357230Y-86625360D01*
X146347214Y-86537016D01*
X146345147Y-86434088D01*
X146336478Y-86292878D01*
X146315365Y-86169628D01*
X146292912Y-86105187D01*
X146262882Y-86056183D01*
X146241234Y-86050663D01*
X146218279Y-86097966D01*
X146184332Y-86207431D01*
X146183319Y-86210841D01*
X146149032Y-86331552D01*
X146122733Y-86441133D01*
X146098472Y-86567500D01*
X146070300Y-86738572D01*
X146068690Y-86748747D01*
X146078061Y-86851347D01*
X146145955Y-86945723D01*
X146212496Y-87039751D01*
X146220513Y-87120334D01*
X146170309Y-87172936D01*
X146140992Y-87181683D01*
X146059564Y-87222984D01*
X146019011Y-87264577D01*
X145952600Y-87312920D01*
X145906561Y-87306807D01*
X145810222Y-87259921D01*
X145700543Y-87196151D01*
X145597118Y-87128372D01*
X145519544Y-87069460D01*
X145487416Y-87032291D01*
X145487353Y-87031359D01*
X145519983Y-86962355D01*
X145599303Y-86908116D01*
X145690126Y-86888164D01*
X145748205Y-86882014D01*
X145776546Y-86850497D01*
X145785807Y-86774016D01*
X145786620Y-86710738D01*
X145816767Y-86443457D01*
X145903454Y-86146582D01*
X145983681Y-85954563D01*
X146037560Y-85825661D01*
X146050837Y-85741427D01*
X146015614Y-85693529D01*
X145923996Y-85673635D01*
X145768086Y-85673413D01*
X145719128Y-85675410D01*
X145459713Y-85689799D01*
X145223246Y-85708131D01*
X145022841Y-85729049D01*
X144871612Y-85751194D01*
X144785682Y-85772041D01*
X144701449Y-85788968D01*
X144565458Y-85801363D01*
X144400546Y-85808780D01*
X144229550Y-85810771D01*
X144075307Y-85806891D01*
X143960653Y-85796691D01*
X143924728Y-85788894D01*
X143882746Y-85779018D01*
X143871344Y-85793510D01*
X143893790Y-85843757D01*
X143953352Y-85941145D01*
X143980757Y-85984081D01*
X144095463Y-86160939D01*
X144184828Y-86291529D01*
X144262355Y-86393399D01*
X144341547Y-86484094D01*
X144435906Y-86581162D01*
X144454329Y-86599462D01*
X144549744Y-86698392D01*
X144596944Y-86762736D01*
X144604063Y-86806956D01*
X144587516Y-86836192D01*
X144565743Y-86881007D01*
X144587205Y-86931033D01*
X144657304Y-87003598D01*
X144730972Y-87093709D01*
X144752263Y-87168952D01*
X144720115Y-87215676D01*
X144674456Y-87224341D01*
X144610445Y-87202865D01*
X144519622Y-87149066D01*
X144486667Y-87125228D01*
X144410472Y-87074084D01*
X144332243Y-87043419D01*
X144228668Y-87027577D01*
X144076436Y-87020906D01*
X144054734Y-87020471D01*
X143851858Y-87021237D01*
X143653952Y-87032960D01*
X143441559Y-87057904D01*
X143195222Y-87098328D01*
X142910000Y-87153546D01*
X142669645Y-87196106D01*
X142465688Y-87216117D01*
X142264251Y-87216371D01*
X142192773Y-87212608D01*
X141867752Y-87192074D01*
X141930023Y-87329605D01*
X141981027Y-87429383D01*
X142057399Y-87564149D01*
X142143516Y-87706433D01*
X142152324Y-87720432D01*
X142226944Y-87840669D01*
X142283000Y-87935042D01*
X142310894Y-87987265D01*
X142312353Y-87992042D01*
X142332117Y-88035780D01*
X142380796Y-88115636D01*
X142442470Y-88207970D01*
X142501219Y-88289142D01*
X142541124Y-88335513D01*
X142545809Y-88338704D01*
X142572705Y-88381680D01*
X142573824Y-88394197D01*
X142589720Y-88448877D01*
X142630836Y-88545772D01*
X142673353Y-88633956D01*
X142723952Y-88740756D01*
X142753844Y-88817462D01*
X142757397Y-88844017D01*
X142705920Y-88868332D01*
X142635160Y-88883559D01*
X142574390Y-88886045D01*
X142552883Y-88872138D01*
X142554222Y-88869367D01*
X142542487Y-88840024D01*
X142482646Y-88830517D01*
X142411400Y-88818000D01*
X142387059Y-88793164D01*
X142356805Y-88760026D01*
X142331029Y-88755811D01*
X142287489Y-88761166D01*
X142283916Y-88785554D01*
X142324810Y-88841459D01*
X142387021Y-88911201D01*
X142473835Y-89039159D01*
X142491418Y-89133903D01*
X142502003Y-89230159D01*
X142529762Y-89289346D01*
X142555436Y-89338348D01*
X142519657Y-89366251D01*
X142456157Y-89357487D01*
X142366537Y-89309228D01*
X142272296Y-89238345D01*
X142194932Y-89161706D01*
X142155943Y-89096180D01*
X142155103Y-89080195D01*
X142144239Y-89035810D01*
X142115667Y-89037767D01*
X142060101Y-89025257D01*
X141986442Y-88969871D01*
X141970189Y-88953127D01*
X141876340Y-88856692D01*
X141763436Y-88749439D01*
X141649960Y-88647540D01*
X142173523Y-88647540D01*
X142181360Y-88684968D01*
X142184019Y-88692055D01*
X142213610Y-88737795D01*
X142230433Y-88738123D01*
X142226243Y-88698609D01*
X142204929Y-88671145D01*
X142193333Y-88662429D01*
X142573824Y-88662429D01*
X142592500Y-88681106D01*
X142611177Y-88662429D01*
X142592500Y-88643753D01*
X142573824Y-88662429D01*
X142193333Y-88662429D01*
X142173523Y-88647540D01*
X141649960Y-88647540D01*
X141645188Y-88643255D01*
X141535310Y-88550024D01*
X141447513Y-88481633D01*
X141395509Y-88449968D01*
X141389026Y-88449372D01*
X141371614Y-88481706D01*
X141373529Y-88563324D01*
X141395575Y-88701641D01*
X141438143Y-88902250D01*
X141471543Y-89075402D01*
X141499037Y-89262789D01*
X141510068Y-89369162D01*
X141542480Y-89746178D01*
X141578997Y-90085931D01*
X141601970Y-90268606D01*
X141619522Y-90424570D01*
X141637554Y-90622499D01*
X141653215Y-90829727D01*
X141659017Y-90922282D01*
X141672924Y-91151557D01*
X141685980Y-91326309D01*
X141700637Y-91466647D01*
X141719349Y-91592679D01*
X141744571Y-91724516D01*
X141772947Y-91856106D01*
X141821698Y-92079088D01*
X141855095Y-92239817D01*
X141874936Y-92348748D01*
X141883019Y-92416338D01*
X141881139Y-92453043D01*
X141877223Y-92462767D01*
X141886506Y-92490033D01*
X141895612Y-92491106D01*
X141927422Y-92518868D01*
X141961689Y-92583103D01*
X141987227Y-92655231D01*
X141992848Y-92706675D01*
X141983572Y-92715795D01*
X141982021Y-92732476D01*
X141995203Y-92743810D01*
X142036311Y-92789401D01*
X142098886Y-92874853D01*
X142135806Y-92930003D01*
X142196781Y-93020425D01*
X142240092Y-93077918D01*
X142251890Y-93088753D01*
X142278745Y-93060853D01*
X142331474Y-92990287D01*
X142360383Y-92948679D01*
X142450874Y-92824043D01*
X142540157Y-92714954D01*
X142615028Y-92636405D01*
X142662284Y-92603390D01*
X142664625Y-92603164D01*
X142703085Y-92577189D01*
X142766401Y-92512597D01*
X142785613Y-92490373D01*
X142878632Y-92400520D01*
X142998098Y-92310421D01*
X143040046Y-92284094D01*
X143133812Y-92219098D01*
X143205941Y-92138786D01*
X143273442Y-92021332D01*
X143316256Y-91929644D01*
X143373116Y-91791401D01*
X143414645Y-91669309D01*
X143432731Y-91587548D01*
X143432941Y-91581855D01*
X143442743Y-91503410D01*
X143458113Y-91469855D01*
X143470947Y-91453216D01*
X143481411Y-91423428D01*
X143492021Y-91366110D01*
X143505293Y-91266883D01*
X143523744Y-91111366D01*
X143529420Y-91062356D01*
X143546620Y-90947137D01*
X143565682Y-90869183D01*
X143578941Y-90847576D01*
X143592716Y-90813602D01*
X143603811Y-90725199D01*
X143609170Y-90620348D01*
X143622455Y-90454832D01*
X143650267Y-90282870D01*
X143670194Y-90200128D01*
X143715279Y-90037031D01*
X143761857Y-89858074D01*
X143805846Y-89680278D01*
X143843164Y-89520664D01*
X143869727Y-89396253D01*
X143881455Y-89324067D01*
X143881681Y-89318297D01*
X143898036Y-89255184D01*
X143942105Y-89147065D01*
X144005409Y-89010496D01*
X144079470Y-88862034D01*
X144155808Y-88718237D01*
X144225946Y-88595662D01*
X144281403Y-88510866D01*
X144310494Y-88480926D01*
X144360217Y-88437736D01*
X144366765Y-88414121D01*
X144391769Y-88362582D01*
X144454775Y-88285698D01*
X144488162Y-88251718D01*
X144566458Y-88172761D01*
X144676902Y-88057085D01*
X144801661Y-87923495D01*
X144871029Y-87847980D01*
X144984264Y-87728684D01*
X145082840Y-87633605D01*
X145154008Y-87574554D01*
X145180889Y-87560975D01*
X145238778Y-87536108D01*
X145313321Y-87476411D01*
X145317960Y-87471836D01*
X145445943Y-87378927D01*
X145592328Y-87325052D01*
X145727565Y-87320684D01*
X145737864Y-87322998D01*
X145830108Y-87346149D01*
X145686745Y-87474694D01*
X145571819Y-87569587D01*
X145431894Y-87674137D01*
X145346822Y-87732730D01*
X145115113Y-87909000D01*
X144889927Y-88131003D01*
X144659263Y-88410823D01*
X144616223Y-88468280D01*
X144480047Y-88658010D01*
X144386172Y-88804363D01*
X144327899Y-88920352D01*
X144298528Y-89018989D01*
X144291280Y-89099471D01*
X144282093Y-89198657D01*
X144258635Y-89344489D01*
X144225793Y-89511405D01*
X144188451Y-89673844D01*
X144164245Y-89764341D01*
X144116011Y-89962009D01*
X144068966Y-90210464D01*
X144027101Y-90485837D01*
X143994407Y-90764262D01*
X143990914Y-90800784D01*
X143966490Y-91017086D01*
X143938971Y-91178670D01*
X143909902Y-91277348D01*
X143896996Y-91298753D01*
X143852753Y-91375076D01*
X143843824Y-91418695D01*
X143818639Y-91490345D01*
X143775224Y-91546489D01*
X143724710Y-91616640D01*
X143667225Y-91724670D01*
X143616397Y-91841101D01*
X143585856Y-91936459D01*
X143582353Y-91963661D01*
X143613400Y-91968248D01*
X143690318Y-91954082D01*
X143788772Y-91927949D01*
X143884426Y-91896629D01*
X143952945Y-91866908D01*
X143968207Y-91856106D01*
X143982795Y-91810894D01*
X143998812Y-91717699D01*
X144005549Y-91663277D01*
X144046113Y-91476017D01*
X144119963Y-91355131D01*
X144227679Y-91299823D01*
X144273818Y-91295811D01*
X144344812Y-91304823D01*
X144413632Y-91339342D01*
X144496499Y-91410596D01*
X144605699Y-91525486D01*
X144702276Y-91636742D01*
X144775276Y-91730886D01*
X144812579Y-91791929D01*
X144815000Y-91801637D01*
X144784403Y-91851359D01*
X144717385Y-91891117D01*
X144656250Y-91899389D01*
X144612020Y-91918564D01*
X144556222Y-91965472D01*
X144472276Y-92015861D01*
X144348723Y-92053304D01*
X144304090Y-92060709D01*
X144015017Y-92113182D01*
X143751620Y-92190303D01*
X143527640Y-92286638D01*
X143356819Y-92396753D01*
X143290093Y-92461710D01*
X143205533Y-92533609D01*
X143123078Y-92559941D01*
X143122004Y-92559888D01*
X143022693Y-92576362D01*
X142923714Y-92624697D01*
X142855234Y-92687986D01*
X142842465Y-92716551D01*
X142809521Y-92774018D01*
X142740213Y-92854048D01*
X142706793Y-92886713D01*
X142649327Y-92941764D01*
X142607723Y-92991768D01*
X142576467Y-93051571D01*
X142550043Y-93136014D01*
X142522937Y-93259942D01*
X142489634Y-93438199D01*
X142477941Y-93502662D01*
X142448578Y-93672540D01*
X142433931Y-93790579D01*
X142433847Y-93878150D01*
X142448174Y-93956626D01*
X142474102Y-94039606D01*
X142505462Y-94148450D01*
X142518102Y-94228450D01*
X142514912Y-94251358D01*
X142519917Y-94282399D01*
X142529910Y-94284047D01*
X142569438Y-94314550D01*
X142586090Y-94349414D01*
X142625646Y-94438948D01*
X142695137Y-94567082D01*
X142781252Y-94711497D01*
X142870684Y-94849875D01*
X142950123Y-94959898D01*
X142950175Y-94959963D01*
X143010344Y-95030019D01*
X143068345Y-95072851D01*
X143146587Y-95097769D01*
X143267481Y-95114080D01*
X143337050Y-95120666D01*
X143536721Y-95145137D01*
X143694769Y-95177318D01*
X143800548Y-95214335D01*
X143843407Y-95253313D01*
X143843824Y-95257437D01*
X143876254Y-95286280D01*
X143957370Y-95319394D01*
X143991554Y-95329476D01*
X144100242Y-95368348D01*
X144182814Y-95414358D01*
X144194327Y-95424298D01*
X144252626Y-95469504D01*
X144280053Y-95479519D01*
X144322945Y-95502979D01*
X144399121Y-95562799D01*
X144452888Y-95610255D01*
X144543428Y-95685067D01*
X144618061Y-95732301D01*
X144645040Y-95740811D01*
X144701352Y-95764682D01*
X144783113Y-95824598D01*
X144815000Y-95852870D01*
X144894892Y-95921290D01*
X144954063Y-95960945D01*
X144966703Y-95964929D01*
X145008338Y-95984429D01*
X145092439Y-96034846D01*
X145200411Y-96104052D01*
X145313662Y-96179922D01*
X145413596Y-96250330D01*
X145468677Y-96292299D01*
X145554522Y-96348072D01*
X145681411Y-96414608D01*
X145827896Y-96482483D01*
X145972532Y-96542274D01*
X146093872Y-96584556D01*
X146168797Y-96599929D01*
X146264548Y-96592733D01*
X146417611Y-96572822D01*
X146612161Y-96542714D01*
X146832373Y-96504925D01*
X147062423Y-96461973D01*
X147168235Y-96440963D01*
X147291230Y-96419483D01*
X147388545Y-96408637D01*
X147425729Y-96409109D01*
X147487130Y-96398389D01*
X147500434Y-96386218D01*
X147545937Y-96360063D01*
X147642166Y-96324222D01*
X147754631Y-96290342D01*
X147922533Y-96238289D01*
X148100682Y-96173714D01*
X148194079Y-96135204D01*
X148318938Y-96073151D01*
X148396753Y-96010245D01*
X148451900Y-95923721D01*
X148475047Y-95872809D01*
X148507832Y-95770809D01*
X148535479Y-95639240D01*
X148556097Y-95496723D01*
X148567797Y-95361878D01*
X148568690Y-95253324D01*
X148556884Y-95189682D01*
X148545309Y-95180517D01*
X148518084Y-95149536D01*
X148512941Y-95113282D01*
X148496054Y-95036301D01*
X148480119Y-95010561D01*
X148452017Y-94952215D01*
X148426332Y-94855957D01*
X148423579Y-94841306D01*
X148418582Y-94727117D01*
X148459064Y-94640204D01*
X148473077Y-94623119D01*
X148545900Y-94570375D01*
X148644786Y-94559921D01*
X148782023Y-94592442D01*
X148923824Y-94648180D01*
X149024561Y-94688219D01*
X149102390Y-94712873D01*
X149110588Y-94714554D01*
X149174200Y-94733267D01*
X149280275Y-94771658D01*
X149372059Y-94807800D01*
X149499516Y-94859281D01*
X149610333Y-94903309D01*
X149661544Y-94923135D01*
X149727285Y-94974131D01*
X149745588Y-95065900D01*
X149732399Y-95173022D01*
X149699560Y-95275388D01*
X149657168Y-95347795D01*
X149624866Y-95367282D01*
X149573312Y-95391056D01*
X149534811Y-95423311D01*
X149456479Y-95470103D01*
X149408948Y-95479341D01*
X149338557Y-95497118D01*
X149316029Y-95516694D01*
X149264497Y-95545698D01*
X149202525Y-95554047D01*
X149132528Y-95573625D01*
X149069793Y-95642141D01*
X149028991Y-95712797D01*
X148979763Y-95809441D01*
X148948589Y-95875635D01*
X148943268Y-95890223D01*
X148923090Y-95928791D01*
X148872869Y-96011426D01*
X148807276Y-96114341D01*
X148724905Y-96229182D01*
X148638791Y-96314763D01*
X148525471Y-96390783D01*
X148395677Y-96459856D01*
X148259490Y-96524861D01*
X148143428Y-96573832D01*
X148067540Y-96598501D01*
X148055935Y-96599929D01*
X147990910Y-96617210D01*
X147974356Y-96632376D01*
X147927761Y-96658284D01*
X147836231Y-96683043D01*
X147804063Y-96688846D01*
X147710350Y-96711946D01*
X147657876Y-96740628D01*
X147653824Y-96749782D01*
X147621585Y-96776546D01*
X147550856Y-96786694D01*
X147442295Y-96798303D01*
X147321666Y-96826371D01*
X147317400Y-96827694D01*
X147241963Y-96839518D01*
X147108041Y-96849209D01*
X146931829Y-96856554D01*
X146729523Y-96861336D01*
X146517319Y-96863342D01*
X146311413Y-96862357D01*
X146128000Y-96858165D01*
X145983277Y-96850554D01*
X145935588Y-96846014D01*
X145795431Y-96823150D01*
X145674507Y-96792175D01*
X145594941Y-96759364D01*
X145577754Y-96744516D01*
X145527851Y-96717259D01*
X145485149Y-96711988D01*
X145425658Y-96695921D01*
X145412647Y-96674635D01*
X145383118Y-96639988D01*
X145365574Y-96637282D01*
X145308852Y-96613637D01*
X145230734Y-96555558D01*
X145217793Y-96543900D01*
X145146943Y-96482757D01*
X145101178Y-96451550D01*
X145097101Y-96450517D01*
X145057697Y-96429288D01*
X144975959Y-96373511D01*
X144868093Y-96295051D01*
X144750304Y-96205775D01*
X144638797Y-96117548D01*
X144609559Y-96093529D01*
X144392571Y-95916224D01*
X144220650Y-95783355D01*
X144084021Y-95688625D01*
X143972911Y-95625740D01*
X143877549Y-95588404D01*
X143799668Y-95571788D01*
X143695585Y-95552927D01*
X143630594Y-95532404D01*
X143619695Y-95522527D01*
X143586820Y-95506307D01*
X143506028Y-95498222D01*
X143489194Y-95498017D01*
X143402776Y-95505074D01*
X143359587Y-95522420D01*
X143358470Y-95526032D01*
X143358247Y-95586501D01*
X143358235Y-95603349D01*
X143381411Y-95660629D01*
X143439185Y-95742958D01*
X143460956Y-95768670D01*
X143542320Y-95865369D01*
X143610697Y-95954426D01*
X143619706Y-95967358D01*
X143876736Y-96299410D01*
X144165584Y-96589145D01*
X144454217Y-96809899D01*
X144661480Y-96924529D01*
X144926000Y-97039194D01*
X145230572Y-97147935D01*
X145557987Y-97244794D01*
X145891038Y-97323815D01*
X146000059Y-97345111D01*
X146171892Y-97376922D01*
X146322146Y-97405083D01*
X146432049Y-97426055D01*
X146477206Y-97435044D01*
X146584466Y-97449629D01*
X146756272Y-97462878D01*
X146982470Y-97474663D01*
X147252911Y-97484857D01*
X147557443Y-97493333D01*
X147885914Y-97499965D01*
X148228174Y-97504624D01*
X148574070Y-97507183D01*
X148913452Y-97507516D01*
X149236168Y-97505494D01*
X149532068Y-97500992D01*
X149790999Y-97493881D01*
X150002810Y-97484034D01*
X150063088Y-97479981D01*
X150239968Y-97468158D01*
X150412072Y-97458926D01*
X150548848Y-97453865D01*
X150576703Y-97453411D01*
X150684318Y-97447304D01*
X150756260Y-97433544D01*
X150770829Y-97424874D01*
X150817393Y-97406594D01*
X150924225Y-97390290D01*
X151076887Y-97377369D01*
X151260943Y-97369236D01*
X151361103Y-97367396D01*
X151464577Y-97361755D01*
X151528515Y-97349352D01*
X151538529Y-97341155D01*
X151571895Y-97322358D01*
X151656891Y-97301822D01*
X151717515Y-97292028D01*
X151854823Y-97272921D01*
X151966196Y-97256474D01*
X151983730Y-97253606D01*
X152285588Y-97253606D01*
X152304265Y-97272282D01*
X152322941Y-97253606D01*
X152304265Y-97234929D01*
X152285588Y-97253606D01*
X151983730Y-97253606D01*
X152071075Y-97239319D01*
X152188904Y-97218089D01*
X152198523Y-97216253D01*
X153480882Y-97216253D01*
X153499559Y-97234929D01*
X153518235Y-97216253D01*
X153499559Y-97197576D01*
X153480882Y-97216253D01*
X152198523Y-97216253D01*
X152339124Y-97189416D01*
X152541178Y-97149933D01*
X152565735Y-97145112D01*
X152923925Y-97073866D01*
X153215128Y-97013767D01*
X153445982Y-96963292D01*
X153623124Y-96920915D01*
X153753190Y-96885112D01*
X153842817Y-96854358D01*
X153857055Y-96848427D01*
X153979543Y-96796252D01*
X154114368Y-96740040D01*
X154134559Y-96731748D01*
X154258575Y-96675059D01*
X154411210Y-96596693D01*
X154575751Y-96506283D01*
X154735485Y-96413465D01*
X154873698Y-96327871D01*
X154973677Y-96259135D01*
X155012353Y-96225776D01*
X155050073Y-96198146D01*
X155136707Y-96140510D01*
X155257776Y-96062385D01*
X155348529Y-96004840D01*
X155503828Y-95900865D01*
X155651643Y-95791299D01*
X155689840Y-95759488D01*
X156020882Y-95759488D01*
X156039559Y-95778164D01*
X156058235Y-95759488D01*
X156039559Y-95740811D01*
X156020882Y-95759488D01*
X155689840Y-95759488D01*
X155768814Y-95693717D01*
X155806181Y-95657551D01*
X155880807Y-95570715D01*
X155986507Y-95436689D01*
X156112536Y-95270188D01*
X156248150Y-95085926D01*
X156382606Y-94898620D01*
X156505161Y-94722983D01*
X156605069Y-94573732D01*
X156652182Y-94498826D01*
X156707558Y-94413807D01*
X156747852Y-94364086D01*
X156756468Y-94358753D01*
X156767320Y-94390535D01*
X156755352Y-94474000D01*
X156725124Y-94591323D01*
X156681199Y-94724680D01*
X156630503Y-94850964D01*
X156584504Y-94968094D01*
X156559624Y-95059974D01*
X156559963Y-95101707D01*
X156555740Y-95153492D01*
X156517873Y-95240979D01*
X156489140Y-95290444D01*
X156433096Y-95385424D01*
X156399109Y-95454983D01*
X156394412Y-95472287D01*
X156365058Y-95511210D01*
X156302304Y-95553364D01*
X156242035Y-95598603D01*
X156229803Y-95634382D01*
X156224065Y-95664679D01*
X156214666Y-95666106D01*
X156173921Y-95694336D01*
X156113560Y-95765068D01*
X156091065Y-95796586D01*
X156025619Y-95877776D01*
X155969010Y-95923585D01*
X155955515Y-95927321D01*
X155910764Y-95957087D01*
X155906696Y-95974267D01*
X155877089Y-96021255D01*
X155802027Y-96095820D01*
X155698247Y-96184144D01*
X155582482Y-96272409D01*
X155471468Y-96346797D01*
X155420394Y-96375811D01*
X155338389Y-96433023D01*
X155291967Y-96492586D01*
X155291761Y-96493191D01*
X155245294Y-96548281D01*
X155159698Y-96599780D01*
X155151184Y-96603371D01*
X155053959Y-96656030D01*
X154984783Y-96715914D01*
X154983316Y-96717883D01*
X154917263Y-96763387D01*
X154874468Y-96760105D01*
X154833435Y-96755822D01*
X154835274Y-96772147D01*
X154815332Y-96804050D01*
X154742092Y-96854099D01*
X154631202Y-96911670D01*
X154626623Y-96913787D01*
X154491418Y-96976885D01*
X154369661Y-97035183D01*
X154296884Y-97071397D01*
X154196299Y-97109717D01*
X154117602Y-97122870D01*
X154025189Y-97139963D01*
X153936601Y-97174877D01*
X153855159Y-97204712D01*
X153719701Y-97241867D01*
X153549974Y-97281834D01*
X153365725Y-97320105D01*
X153186701Y-97352171D01*
X153107353Y-97364185D01*
X153003486Y-97379683D01*
X152884101Y-97398730D01*
X152883235Y-97398873D01*
X152774485Y-97413345D01*
X152627600Y-97428526D01*
X152509706Y-97438401D01*
X152369554Y-97450185D01*
X152185814Y-97467692D01*
X151975783Y-97489047D01*
X151756761Y-97512375D01*
X151546045Y-97535802D01*
X151360935Y-97557452D01*
X151218729Y-97575451D01*
X151146324Y-97586161D01*
X150955472Y-97612404D01*
X150700538Y-97636808D01*
X150392138Y-97658748D01*
X150040886Y-97677599D01*
X149657396Y-97692734D01*
X149252283Y-97703528D01*
X149110588Y-97706114D01*
X148824996Y-97710834D01*
X148545184Y-97715696D01*
X148285637Y-97720430D01*
X148060839Y-97724767D01*
X147885275Y-97728437D01*
X147793880Y-97730610D01*
X147648149Y-97731855D01*
X147535889Y-97727899D01*
X147473981Y-97719562D01*
X147467042Y-97714733D01*
X147434243Y-97704088D01*
X147351890Y-97706515D01*
X147312995Y-97710937D01*
X147212892Y-97715159D01*
X147061039Y-97710605D01*
X146879742Y-97698319D01*
X146727377Y-97683502D01*
X146542779Y-97663403D01*
X146417854Y-97652689D01*
X146338036Y-97652409D01*
X146288757Y-97663609D01*
X146255453Y-97687339D01*
X146227765Y-97719450D01*
X146177233Y-97804247D01*
X146159706Y-97870970D01*
X146140712Y-97956991D01*
X146089006Y-98087863D01*
X146012505Y-98245748D01*
X145919874Y-98411547D01*
X145835483Y-98553518D01*
X145768263Y-98669504D01*
X145704701Y-98783687D01*
X145631284Y-98920250D01*
X145554603Y-99065223D01*
X145461944Y-99234720D01*
X145362214Y-99407224D01*
X145272964Y-99552630D01*
X145249722Y-99588164D01*
X145170074Y-99712391D01*
X145102257Y-99827291D01*
X145066799Y-99895764D01*
X145013778Y-99964568D01*
X144932811Y-100023903D01*
X144849183Y-100059750D01*
X144788179Y-100058093D01*
X144782281Y-100053484D01*
X144794446Y-100018465D01*
X144848849Y-99953332D01*
X144885922Y-99916760D01*
X144963445Y-99835334D01*
X144995178Y-99763549D01*
X144994793Y-99665822D01*
X144992106Y-99640395D01*
X144988232Y-99548998D01*
X145004112Y-99462826D01*
X145046726Y-99359800D01*
X145123055Y-99217845D01*
X145129024Y-99207318D01*
X145215988Y-99049633D01*
X145318802Y-98856343D01*
X145420754Y-98659082D01*
X145464527Y-98572180D01*
X145553310Y-98404079D01*
X145646212Y-98244771D01*
X145729702Y-98116752D01*
X145770980Y-98062752D01*
X145883602Y-97910381D01*
X145946120Y-97778369D01*
X145953563Y-97677659D01*
X145950418Y-97667932D01*
X145902147Y-97630724D01*
X145799902Y-97599205D01*
X145736686Y-97588221D01*
X145620843Y-97565896D01*
X145471014Y-97528310D01*
X145308109Y-97481786D01*
X145153037Y-97432650D01*
X145026707Y-97387225D01*
X144950028Y-97351837D01*
X144945735Y-97348979D01*
X144890894Y-97321367D01*
X144792858Y-97280567D01*
X144730282Y-97256691D01*
X144514581Y-97154983D01*
X144292509Y-97004455D01*
X144053766Y-96797619D01*
X143926885Y-96672744D01*
X143800076Y-96547303D01*
X143712607Y-96471165D01*
X143654719Y-96437324D01*
X143616651Y-96438778D01*
X143608542Y-96444282D01*
X143553465Y-96469086D01*
X143532225Y-96462644D01*
X143509089Y-96465409D01*
X143507647Y-96477113D01*
X143476404Y-96515553D01*
X143399831Y-96558567D01*
X143386250Y-96564185D01*
X143296331Y-96611166D01*
X143200657Y-96687080D01*
X143089315Y-96801606D01*
X142952387Y-96964424D01*
X142871328Y-97066841D01*
X142752362Y-97221342D01*
X142677184Y-97329308D01*
X142642905Y-97402534D01*
X142646636Y-97452813D01*
X142685487Y-97491937D01*
X142756569Y-97531702D01*
X142757341Y-97532096D01*
X142852219Y-97585500D01*
X142915712Y-97630459D01*
X142926349Y-97642046D01*
X142977021Y-97682106D01*
X143079847Y-97737052D01*
X143216114Y-97798133D01*
X143367108Y-97856601D01*
X143434328Y-97879550D01*
X143588653Y-97911014D01*
X143786273Y-97925286D01*
X144000668Y-97923039D01*
X144205319Y-97904947D01*
X144373703Y-97871685D01*
X144424723Y-97854380D01*
X144545557Y-97783694D01*
X144635283Y-97692122D01*
X144641615Y-97682073D01*
X144696387Y-97607244D01*
X144743271Y-97571593D01*
X144747324Y-97571106D01*
X144771225Y-97602258D01*
X144772166Y-97680847D01*
X144753969Y-97784567D01*
X144720455Y-97891112D01*
X144678290Y-97974073D01*
X144622832Y-98069505D01*
X144589351Y-98150076D01*
X144539662Y-98215521D01*
X144489343Y-98236363D01*
X144402960Y-98270061D01*
X144364904Y-98301730D01*
X144296971Y-98341137D01*
X144210575Y-98355517D01*
X144140260Y-98365368D01*
X144121730Y-98389170D01*
X144122309Y-98390181D01*
X144127097Y-98411771D01*
X144105328Y-98430978D01*
X144046816Y-98450676D01*
X143941372Y-98473738D01*
X143778812Y-98503038D01*
X143638382Y-98526673D01*
X143480916Y-98553581D01*
X143353800Y-98576756D01*
X143273201Y-98593166D01*
X143253187Y-98598935D01*
X143271215Y-98621250D01*
X143338289Y-98657530D01*
X143432588Y-98698093D01*
X143532292Y-98733256D01*
X143591315Y-98748986D01*
X143687376Y-98776111D01*
X143751337Y-98805695D01*
X143752507Y-98806604D01*
X143808139Y-98823863D01*
X143914516Y-98837801D01*
X144036613Y-98844913D01*
X144182688Y-98855126D01*
X144313593Y-98874808D01*
X144387216Y-98894937D01*
X144493130Y-98938229D01*
X144364580Y-99016542D01*
X144271542Y-99070409D01*
X144136759Y-99145035D01*
X143984844Y-99226858D01*
X143937206Y-99252045D01*
X143694870Y-99384611D01*
X143508236Y-99502138D01*
X143363846Y-99617837D01*
X143248242Y-99744913D01*
X143147967Y-99896577D01*
X143049561Y-100086034D01*
X143017061Y-100155088D01*
X142953430Y-100292454D01*
X143382708Y-100273790D01*
X143566282Y-100266458D01*
X143686730Y-100264475D01*
X143755530Y-100269296D01*
X143784158Y-100282378D01*
X143784093Y-100305177D01*
X143775334Y-100323607D01*
X143730714Y-100397340D01*
X143678957Y-100453365D01*
X143608589Y-100495476D01*
X143508139Y-100527469D01*
X143366132Y-100553139D01*
X143171095Y-100576281D01*
X142947353Y-100597491D01*
X142756394Y-100616373D01*
X142575052Y-100637348D01*
X142426735Y-100657547D01*
X142349706Y-100670777D01*
X142224342Y-100695095D01*
X142061894Y-100724539D01*
X141909389Y-100750733D01*
X141768014Y-100779402D01*
X141645284Y-100819477D01*
X141517730Y-100881094D01*
X141361880Y-100974393D01*
X141300281Y-101013835D01*
X140963401Y-101231694D01*
X140554642Y-101231694D01*
X140389998Y-101229049D01*
X140257068Y-101221879D01*
X140170965Y-101211333D01*
X140145882Y-101200653D01*
X140175580Y-101163551D01*
X140247156Y-101117358D01*
X140248603Y-101116609D01*
X140335962Y-101059552D01*
X140443450Y-100973588D01*
X140498922Y-100923532D01*
X140593723Y-100844695D01*
X140677342Y-100793888D01*
X140713701Y-100783458D01*
X140770188Y-100766263D01*
X140780882Y-100746106D01*
X140813893Y-100721775D01*
X140895741Y-100708278D01*
X140920956Y-100707429D01*
X141042377Y-100691950D01*
X141148199Y-100656117D01*
X141154412Y-100652723D01*
X141265242Y-100611295D01*
X141356570Y-100598017D01*
X141460135Y-100585161D01*
X141604783Y-100553419D01*
X141761728Y-100510356D01*
X141902187Y-100463534D01*
X141961832Y-100438990D01*
X142051945Y-100411141D01*
X142169191Y-100390508D01*
X142185949Y-100388717D01*
X142396390Y-100367358D01*
X142547653Y-100344617D01*
X142654906Y-100311809D01*
X142733321Y-100260249D01*
X142798066Y-100181252D01*
X142864311Y-100066136D01*
X142912936Y-99972531D01*
X142996166Y-99827756D01*
X143097978Y-99675372D01*
X143207651Y-99528689D01*
X143314461Y-99401019D01*
X143407686Y-99305673D01*
X143476604Y-99255963D01*
X143493490Y-99251802D01*
X143541500Y-99230134D01*
X143618881Y-99176737D01*
X143638382Y-99161422D01*
X143750441Y-99071228D01*
X143645289Y-99030873D01*
X143551823Y-99001445D01*
X143487262Y-98990517D01*
X143431476Y-98975432D01*
X143326903Y-98935071D01*
X143191961Y-98876777D01*
X143125502Y-98846307D01*
X142980181Y-98779311D01*
X142854710Y-98723006D01*
X142768734Y-98686146D01*
X142748883Y-98678483D01*
X142704429Y-98641724D01*
X142706869Y-98613250D01*
X142704329Y-98587097D01*
X142658413Y-98595174D01*
X142565826Y-98588822D01*
X142499796Y-98550342D01*
X142443098Y-98498504D01*
X142442095Y-98460372D01*
X142485252Y-98412072D01*
X142533852Y-98355467D01*
X142545767Y-98327190D01*
X142577232Y-98320877D01*
X142670003Y-98314089D01*
X142810690Y-98307553D01*
X142985903Y-98301994D01*
X143031355Y-98300891D01*
X143252650Y-98295777D01*
X143410113Y-98291500D01*
X143514594Y-98287047D01*
X143576943Y-98281404D01*
X143608012Y-98273559D01*
X143618651Y-98262499D01*
X143619710Y-98247212D01*
X143619706Y-98245976D01*
X143593436Y-98210339D01*
X143508602Y-98178834D01*
X143395588Y-98154694D01*
X143287852Y-98125042D01*
X143145167Y-98073142D01*
X142994446Y-98010197D01*
X142862600Y-97947415D01*
X142779265Y-97898071D01*
X142732599Y-97863596D01*
X142643587Y-97798103D01*
X142530123Y-97714756D01*
X142511348Y-97700976D01*
X142395240Y-97613890D01*
X142329134Y-97554434D01*
X142302285Y-97506756D01*
X142303948Y-97454999D01*
X142315245Y-97411610D01*
X142338604Y-97327608D01*
X142349585Y-97283090D01*
X142349706Y-97281867D01*
X142381115Y-97274031D01*
X142423453Y-97272282D01*
X142495815Y-97238839D01*
X142555147Y-97160223D01*
X142601774Y-97084380D01*
X142638359Y-97048585D01*
X142640994Y-97048164D01*
X142674375Y-97018363D01*
X142724326Y-96943754D01*
X142742583Y-96911331D01*
X142826283Y-96787362D01*
X142944123Y-96653080D01*
X143081282Y-96521271D01*
X143222940Y-96404720D01*
X143354276Y-96316211D01*
X143460472Y-96268531D01*
X143493240Y-96263753D01*
X143533647Y-96253774D01*
X143536661Y-96217838D01*
X143498604Y-96146943D01*
X143415798Y-96032088D01*
X143379051Y-95984325D01*
X143247952Y-95790235D01*
X143182449Y-95629732D01*
X143179020Y-95513609D01*
X143156893Y-95468485D01*
X143109159Y-95450015D01*
X143042445Y-95416805D01*
X142950096Y-95342857D01*
X142866365Y-95259286D01*
X142778192Y-95152987D01*
X142678051Y-95017929D01*
X142574448Y-94867521D01*
X142475884Y-94715174D01*
X142390863Y-94574297D01*
X142327888Y-94458302D01*
X142295463Y-94380599D01*
X142294501Y-94357418D01*
X142290248Y-94323968D01*
X142277204Y-94321400D01*
X142245415Y-94292389D01*
X142239628Y-94229447D01*
X142259926Y-94168707D01*
X142276814Y-94152190D01*
X142291709Y-94108701D01*
X142267476Y-94069516D01*
X142242859Y-94006867D01*
X142228290Y-93886361D01*
X142223125Y-93701199D01*
X142223566Y-93605929D01*
X142222473Y-93437048D01*
X142215753Y-93304294D01*
X142204444Y-93221602D01*
X142193347Y-93200811D01*
X142176965Y-93176970D01*
X142185185Y-93157687D01*
X142189618Y-93132152D01*
X142168346Y-93141441D01*
X142120899Y-93132153D01*
X142054042Y-93078783D01*
X141986171Y-93001685D01*
X141982209Y-92995370D01*
X142050882Y-92995370D01*
X142069559Y-93014047D01*
X142088235Y-92995370D01*
X142069559Y-92976694D01*
X142050882Y-92995370D01*
X141982209Y-92995370D01*
X141935679Y-92921212D01*
X141920147Y-92866821D01*
X141894595Y-92795475D01*
X141859989Y-92752576D01*
X141811455Y-92676747D01*
X141758987Y-92547135D01*
X141826765Y-92547135D01*
X141845441Y-92565811D01*
X141864118Y-92547135D01*
X141845441Y-92528458D01*
X141826765Y-92547135D01*
X141758987Y-92547135D01*
X141756340Y-92540595D01*
X141698002Y-92357841D01*
X141639800Y-92142202D01*
X141585095Y-91907399D01*
X141537244Y-91667151D01*
X141499609Y-91435176D01*
X141475547Y-91225195D01*
X141471273Y-91165076D01*
X141451956Y-90838975D01*
X141435577Y-90579694D01*
X141421436Y-90379435D01*
X141408834Y-90230402D01*
X141397071Y-90124796D01*
X141385447Y-90054820D01*
X141373263Y-90012677D01*
X141366687Y-89999517D01*
X141351190Y-89943004D01*
X141335554Y-89835355D01*
X141323355Y-89702273D01*
X141307049Y-89519073D01*
X141282650Y-89313429D01*
X141252605Y-89099969D01*
X141219361Y-88893324D01*
X141185365Y-88708124D01*
X141153065Y-88558997D01*
X141124909Y-88460575D01*
X141110800Y-88431669D01*
X141085120Y-88369021D01*
X141063937Y-88265208D01*
X141059161Y-88225583D01*
X141055520Y-88115702D01*
X141077505Y-88051940D01*
X141120636Y-88015187D01*
X141193652Y-87992573D01*
X141277343Y-88017755D01*
X141383416Y-88096162D01*
X141467787Y-88176112D01*
X141540280Y-88239016D01*
X141594407Y-88269648D01*
X141599093Y-88270223D01*
X141646627Y-88298845D01*
X141670328Y-88331049D01*
X141708364Y-88367128D01*
X141729559Y-88351115D01*
X141725763Y-88298478D01*
X141705851Y-88251547D01*
X141826765Y-88251547D01*
X141845441Y-88270223D01*
X141864118Y-88251547D01*
X141845441Y-88232870D01*
X141826765Y-88251547D01*
X141705851Y-88251547D01*
X141688068Y-88209632D01*
X141655634Y-88153345D01*
X141563163Y-87985297D01*
X141519788Y-87854281D01*
X141527427Y-87766927D01*
X141539103Y-87751061D01*
X141589310Y-87715455D01*
X141634468Y-87730072D01*
X141690822Y-87802630D01*
X141709311Y-87831935D01*
X141770511Y-87914375D01*
X141868104Y-88028093D01*
X141984411Y-88152822D01*
X142026587Y-88195647D01*
X142131033Y-88303805D01*
X142209500Y-88392362D01*
X142250921Y-88448447D01*
X142254224Y-88460385D01*
X142273003Y-88490425D01*
X142332201Y-88525431D01*
X142400303Y-88541340D01*
X142427396Y-88522454D01*
X142397925Y-88482887D01*
X142387059Y-88475664D01*
X142352956Y-88421733D01*
X142349706Y-88397192D01*
X142325812Y-88331235D01*
X142274084Y-88260635D01*
X142267999Y-88251547D01*
X142312353Y-88251547D01*
X142331029Y-88270223D01*
X142349706Y-88251547D01*
X142331029Y-88232870D01*
X142312353Y-88251547D01*
X142267999Y-88251547D01*
X142225432Y-88187968D01*
X142216710Y-88131909D01*
X142211083Y-88094503D01*
X142194616Y-88093245D01*
X142150855Y-88070221D01*
X142096690Y-88002146D01*
X142089441Y-87990076D01*
X142043012Y-87909789D01*
X141970824Y-87784916D01*
X141884497Y-87635556D01*
X141830338Y-87541841D01*
X141745986Y-87389596D01*
X141675468Y-87250664D01*
X141628203Y-87144233D01*
X141614533Y-87102166D01*
X141599889Y-87056253D01*
X141938824Y-87056253D01*
X141957500Y-87074929D01*
X141976177Y-87056253D01*
X141957500Y-87037576D01*
X141938824Y-87056253D01*
X141599889Y-87056253D01*
X141588243Y-87019737D01*
X141560470Y-86978565D01*
X141532897Y-86925223D01*
X141531019Y-86842782D01*
X141553226Y-86771679D01*
X141569379Y-86754904D01*
X141619048Y-86762621D01*
X141684807Y-86815650D01*
X141691592Y-86823297D01*
X141819940Y-86918231D01*
X142009496Y-86975030D01*
X142260911Y-86993705D01*
X142574841Y-86974271D01*
X142951938Y-86916739D01*
X143251124Y-86854424D01*
X143377966Y-86832135D01*
X144478824Y-86832135D01*
X144497500Y-86850811D01*
X144516177Y-86832135D01*
X144497500Y-86813458D01*
X144478824Y-86832135D01*
X143377966Y-86832135D01*
X143412458Y-86826074D01*
X143617783Y-86801739D01*
X143836393Y-86784492D01*
X144018652Y-86777578D01*
X144115150Y-86754326D01*
X144117017Y-86751204D01*
X144528627Y-86751204D01*
X144533755Y-86773410D01*
X144553529Y-86776106D01*
X144584275Y-86762439D01*
X144578431Y-86751204D01*
X144534102Y-86746733D01*
X144528627Y-86751204D01*
X144117017Y-86751204D01*
X144151915Y-86692837D01*
X144128117Y-86600820D01*
X144049265Y-86492809D01*
X143970272Y-86391315D01*
X143882790Y-86256155D01*
X143825147Y-86153182D01*
X143763927Y-86038690D01*
X143713914Y-85952954D01*
X143687428Y-85916238D01*
X143652507Y-85866451D01*
X143609193Y-85775587D01*
X143567234Y-85668994D01*
X143536378Y-85572024D01*
X143526374Y-85510024D01*
X143528409Y-85502731D01*
X143519736Y-85471714D01*
X143500513Y-85467922D01*
X143491279Y-85448836D01*
X143534479Y-85403483D01*
X143540893Y-85398448D01*
X143607076Y-85353517D01*
X143651085Y-85356538D01*
X143702917Y-85402552D01*
X143787453Y-85466516D01*
X143896970Y-85525820D01*
X143909006Y-85531014D01*
X144039431Y-85567794D01*
X144204786Y-85590340D01*
X144379137Y-85597718D01*
X144536550Y-85588993D01*
X144651090Y-85563232D01*
X144662343Y-85558155D01*
X144752555Y-85529353D01*
X144885408Y-85505112D01*
X145003122Y-85492972D01*
X145195645Y-85475113D01*
X145340472Y-85450515D01*
X145427898Y-85421276D01*
X145450000Y-85396508D01*
X145425338Y-85355247D01*
X145365113Y-85290079D01*
X145356618Y-85281988D01*
X145292344Y-85202768D01*
X145263368Y-85129839D01*
X145263235Y-85126065D01*
X145278448Y-85080913D01*
X145336299Y-85061117D01*
X145412647Y-85057870D01*
X145506092Y-85055798D01*
X145557780Y-85050622D01*
X145561439Y-85048532D01*
X145549324Y-85011535D01*
X145518091Y-84923226D01*
X145474395Y-84802411D01*
X145472578Y-84797432D01*
X145412885Y-84652959D01*
X145352639Y-84559951D01*
X145275825Y-84496785D01*
X145231954Y-84472521D01*
X145209307Y-84428640D01*
X145191259Y-84342408D01*
X145181993Y-84246177D01*
X145183432Y-84217429D01*
X145450000Y-84217429D01*
X145468677Y-84236106D01*
X145487353Y-84217429D01*
X145468677Y-84198753D01*
X145450000Y-84217429D01*
X145183432Y-84217429D01*
X145185690Y-84172300D01*
X145191182Y-84157108D01*
X145198959Y-84089726D01*
X145186470Y-84065536D01*
X145165728Y-84001027D01*
X145165072Y-83905174D01*
X145165120Y-83904764D01*
X145168173Y-83818843D01*
X145156703Y-83772737D01*
X145155705Y-83772001D01*
X145144258Y-83727768D01*
X145139434Y-83622440D01*
X145140479Y-83469265D01*
X145144157Y-83357143D01*
X145447732Y-83357143D01*
X145454873Y-83549878D01*
X145461518Y-83619782D01*
X145472511Y-83714843D01*
X145487473Y-83853099D01*
X145502006Y-83993311D01*
X145534529Y-84237510D01*
X145580274Y-84476168D01*
X145634498Y-84689117D01*
X145692460Y-84856183D01*
X145717120Y-84908458D01*
X145768586Y-85003313D01*
X145813387Y-85078443D01*
X145863001Y-85148934D01*
X145928910Y-85229868D01*
X146022593Y-85336331D01*
X146150304Y-85477645D01*
X146228478Y-85540937D01*
X146315184Y-85589484D01*
X146389222Y-85629081D01*
X146421148Y-85659685D01*
X146421177Y-85660252D01*
X146451995Y-85687856D01*
X146532166Y-85735718D01*
X146626618Y-85784616D01*
X146746207Y-85849383D01*
X146809632Y-85903411D01*
X146831413Y-85960144D01*
X146832059Y-85974831D01*
X146823217Y-86035851D01*
X146781655Y-86051331D01*
X146720000Y-86042120D01*
X146641007Y-86033943D01*
X146611166Y-86060476D01*
X146607941Y-86095363D01*
X146623451Y-86149443D01*
X146683470Y-86164779D01*
X146716557Y-86163497D01*
X146825173Y-86155977D01*
X146805053Y-86422013D01*
X146801438Y-86586147D01*
X146814529Y-86714763D01*
X146839455Y-86801286D01*
X146871344Y-86839142D01*
X146905328Y-86821755D01*
X146936536Y-86742548D01*
X146956658Y-86626694D01*
X146987190Y-86433806D01*
X147029160Y-86254505D01*
X147076580Y-86111637D01*
X147108387Y-86047723D01*
X147154170Y-85953448D01*
X147182494Y-85867193D01*
X147219204Y-85768705D01*
X147279302Y-85651006D01*
X147300930Y-85615061D01*
X147393290Y-85468753D01*
X147262086Y-85468753D01*
X147169559Y-85451606D01*
X147126610Y-85409824D01*
X147143363Y-85357890D01*
X147169953Y-85336956D01*
X147160503Y-85307953D01*
X147098597Y-85254668D01*
X146997467Y-85188398D01*
X146992526Y-85185480D01*
X146872932Y-85114989D01*
X146773725Y-85056242D01*
X146720000Y-85024133D01*
X146676448Y-84974934D01*
X146673309Y-84949287D01*
X146651846Y-84914031D01*
X146623267Y-84908458D01*
X146545887Y-84874060D01*
X146454837Y-84776479D01*
X146357743Y-84624141D01*
X146345623Y-84601785D01*
X146292862Y-84495995D01*
X146277295Y-84428982D01*
X146298980Y-84374702D01*
X146346240Y-84319664D01*
X146400102Y-84270069D01*
X146451312Y-84260091D01*
X146531603Y-84286165D01*
X146555718Y-84296133D01*
X146645522Y-84327983D01*
X146701951Y-84337448D01*
X146708159Y-84335103D01*
X146699654Y-84296849D01*
X146658519Y-84218890D01*
X146625879Y-84166983D01*
X146561907Y-84048240D01*
X146557116Y-83973166D01*
X146611678Y-83939614D01*
X146644444Y-83937282D01*
X146738549Y-83949229D01*
X146801653Y-83978359D01*
X146812122Y-84014028D01*
X146825421Y-84052818D01*
X146873816Y-84089051D01*
X146923191Y-84111521D01*
X146942570Y-84097870D01*
X146938688Y-84033463D01*
X146928825Y-83969528D01*
X146890867Y-83722994D01*
X146866788Y-83529531D01*
X146861317Y-83445183D01*
X147117553Y-83445183D01*
X147124415Y-83675691D01*
X147138550Y-83840880D01*
X147159710Y-83937237D01*
X147175328Y-83960342D01*
X147203593Y-84010046D01*
X147205588Y-84029115D01*
X147228954Y-84096764D01*
X147291433Y-84202270D01*
X147381595Y-84331370D01*
X147488013Y-84469799D01*
X147599259Y-84603296D01*
X147703903Y-84717596D01*
X147790517Y-84798437D01*
X147847672Y-84831553D01*
X147848612Y-84831645D01*
X147885333Y-84804694D01*
X147913307Y-84762760D01*
X147968070Y-84696694D01*
X148074505Y-84599172D01*
X148221674Y-84479491D01*
X148398641Y-84346952D01*
X148422949Y-84329488D01*
X148521445Y-84249444D01*
X148601626Y-84170738D01*
X148664066Y-84110741D01*
X148707243Y-84086694D01*
X148755336Y-84067888D01*
X148839387Y-84020553D01*
X148877933Y-83996280D01*
X149009696Y-83924985D01*
X149153630Y-83866576D01*
X149175956Y-83859632D01*
X149274825Y-83822523D01*
X149329573Y-83785950D01*
X149331145Y-83759021D01*
X149284415Y-83750517D01*
X149198123Y-83729758D01*
X149097679Y-83679583D01*
X149014521Y-83618147D01*
X148982650Y-83576248D01*
X148981706Y-83484501D01*
X149037912Y-83403342D01*
X149133834Y-83347702D01*
X149252044Y-83332514D01*
X149265507Y-83333935D01*
X149289497Y-83317312D01*
X149270463Y-83265804D01*
X149219388Y-83196137D01*
X149147258Y-83125038D01*
X149109145Y-83095841D01*
X149030203Y-83028567D01*
X148952880Y-82932521D01*
X148867568Y-82793901D01*
X148768558Y-82606629D01*
X148682640Y-82443919D01*
X148599955Y-82299906D01*
X148530660Y-82191569D01*
X148489335Y-82139709D01*
X148407239Y-82062585D01*
X148440123Y-82206183D01*
X148468167Y-82309283D01*
X148513360Y-82455226D01*
X148567155Y-82616705D01*
X148581749Y-82658587D01*
X148626834Y-82798721D01*
X148654864Y-82910672D01*
X148661902Y-82977319D01*
X148657482Y-82987793D01*
X148618719Y-82977025D01*
X148601636Y-82948683D01*
X148552805Y-82906662D01*
X148511260Y-82910610D01*
X148434423Y-82910709D01*
X148329911Y-82883812D01*
X148306274Y-82874618D01*
X148211626Y-82842618D01*
X148146191Y-82834049D01*
X148137085Y-82836808D01*
X148105091Y-82833372D01*
X148062023Y-82784565D01*
X148004149Y-82683999D01*
X147927735Y-82525285D01*
X147849894Y-82349782D01*
X148214118Y-82349782D01*
X148232794Y-82368458D01*
X148251471Y-82349782D01*
X148232794Y-82331106D01*
X148214118Y-82349782D01*
X147849894Y-82349782D01*
X147841611Y-82331106D01*
X147759671Y-82142950D01*
X147696899Y-82002273D01*
X147643268Y-81887785D01*
X147588749Y-81778200D01*
X147523315Y-81652230D01*
X147509033Y-81625088D01*
X147491067Y-81596498D01*
X147703627Y-81596498D01*
X147708755Y-81618704D01*
X147728529Y-81621400D01*
X147759275Y-81607733D01*
X147753431Y-81596498D01*
X147709102Y-81592027D01*
X147703627Y-81596498D01*
X147491067Y-81596498D01*
X147448946Y-81529471D01*
X147404694Y-81503021D01*
X147375165Y-81546971D01*
X147359246Y-81662557D01*
X147355572Y-81795458D01*
X147332915Y-82022385D01*
X147264771Y-82295457D01*
X147239610Y-82374428D01*
X147185670Y-82548129D01*
X147150843Y-82695200D01*
X147130731Y-82843852D01*
X147120935Y-83022293D01*
X147118213Y-83152870D01*
X147117553Y-83445183D01*
X146861317Y-83445183D01*
X146856365Y-83368848D01*
X146859371Y-83220655D01*
X146875584Y-83064660D01*
X146904777Y-82880573D01*
X146916058Y-82816694D01*
X146939910Y-82683245D01*
X146955440Y-82599389D01*
X146967834Y-82541247D01*
X146982278Y-82484939D01*
X147003959Y-82406582D01*
X147009351Y-82387135D01*
X147053829Y-82201455D01*
X147084417Y-82007199D01*
X147104574Y-81778771D01*
X147112811Y-81621400D01*
X147123380Y-81379474D01*
X147132289Y-81201143D01*
X147141278Y-81075375D01*
X147152091Y-80991137D01*
X147166470Y-80937395D01*
X147186157Y-80903116D01*
X147212894Y-80877268D01*
X147232833Y-80861385D01*
X147303178Y-80817042D01*
X147354845Y-80823893D01*
X147378958Y-80841371D01*
X147421098Y-80897247D01*
X147483527Y-81005450D01*
X147557687Y-81149393D01*
X147635019Y-81312492D01*
X147704417Y-81471988D01*
X147713198Y-81470087D01*
X147712411Y-81408117D01*
X147704641Y-81322576D01*
X147683013Y-81144778D01*
X147665847Y-81038451D01*
X147653906Y-81005076D01*
X147643627Y-80973762D01*
X147632893Y-80922914D01*
X147637703Y-80842779D01*
X147677721Y-80813240D01*
X147734186Y-80845320D01*
X147744025Y-80857630D01*
X147800584Y-80899628D01*
X147836767Y-80895379D01*
X147852418Y-80858154D01*
X147806994Y-80795563D01*
X147795742Y-80784400D01*
X147732455Y-80721050D01*
X147634190Y-80620424D01*
X147633091Y-80619285D01*
X147988851Y-80619285D01*
X147999749Y-80652709D01*
X148062865Y-80734059D01*
X148178939Y-80865072D01*
X148210627Y-80899615D01*
X148317800Y-81019286D01*
X148400476Y-81118098D01*
X148448876Y-81183940D01*
X148456778Y-81204426D01*
X148469023Y-81236250D01*
X148513179Y-81274653D01*
X148571183Y-81334312D01*
X148587647Y-81377611D01*
X148605742Y-81432287D01*
X148616846Y-81440860D01*
X148653616Y-81484172D01*
X148706498Y-81579743D01*
X148767203Y-81709223D01*
X148827442Y-81854262D01*
X148878927Y-81996511D01*
X148901902Y-82071920D01*
X148955684Y-82231715D01*
X149027131Y-82401289D01*
X149062890Y-82473225D01*
X149132147Y-82583594D01*
X149228246Y-82711430D01*
X149342158Y-82847569D01*
X149464850Y-82982849D01*
X149587291Y-83108110D01*
X149700451Y-83214188D01*
X149795298Y-83291922D01*
X149862801Y-83332151D01*
X149893929Y-83325711D01*
X149895000Y-83317386D01*
X149875542Y-83274430D01*
X149828378Y-83200685D01*
X149825085Y-83195989D01*
X149732252Y-83044303D01*
X149632307Y-82849117D01*
X149538256Y-82638880D01*
X149463105Y-82442038D01*
X149429626Y-82331106D01*
X149406363Y-82261693D01*
X149366652Y-82160610D01*
X149356412Y-82136202D01*
X149305022Y-81972053D01*
X149309952Y-81847389D01*
X149355288Y-81768706D01*
X149393156Y-81734819D01*
X149436404Y-81728199D01*
X149506317Y-81751275D01*
X149604966Y-81797189D01*
X149759708Y-81856142D01*
X149931982Y-81899492D01*
X150004605Y-81910173D01*
X150152158Y-81935277D01*
X150293761Y-81976102D01*
X150351085Y-82000146D01*
X150449826Y-82044126D01*
X150524983Y-82068038D01*
X150537850Y-82069495D01*
X150551570Y-82061964D01*
X150526662Y-82037612D01*
X150458095Y-81993533D01*
X150340833Y-81926818D01*
X150169846Y-81834560D01*
X149940099Y-81713850D01*
X149764585Y-81622746D01*
X149556561Y-81512440D01*
X149356641Y-81401597D01*
X149180752Y-81299399D01*
X149044822Y-81215026D01*
X148982740Y-81172066D01*
X148848402Y-81081349D01*
X148680700Y-80982850D01*
X148515256Y-80897455D01*
X148510625Y-80895279D01*
X148363295Y-80823388D01*
X148228231Y-80752477D01*
X148131266Y-80696194D01*
X148120735Y-80689270D01*
X148029427Y-80632051D01*
X147988851Y-80619285D01*
X147633091Y-80619285D01*
X147517404Y-80499430D01*
X147455382Y-80434667D01*
X147338789Y-80317743D01*
X147233868Y-80221769D01*
X147155633Y-80160042D01*
X147128544Y-80145216D01*
X147069473Y-80113294D01*
X147056177Y-80091183D01*
X147023701Y-80050852D01*
X146940209Y-79999896D01*
X146826605Y-79947904D01*
X146703790Y-79904464D01*
X146594560Y-79879422D01*
X146464401Y-79876166D01*
X146346435Y-79914144D01*
X146289819Y-79944694D01*
X146200493Y-80001185D01*
X146126340Y-80062356D01*
X146062744Y-80137756D01*
X146005089Y-80236929D01*
X145948759Y-80369424D01*
X145889139Y-80544785D01*
X145821612Y-80772560D01*
X145741564Y-81062296D01*
X145731500Y-81099451D01*
X145638726Y-81464641D01*
X145570753Y-81787341D01*
X145522496Y-82093531D01*
X145501406Y-82275076D01*
X145476681Y-82557563D01*
X145459151Y-82843636D01*
X145449329Y-83115946D01*
X145447732Y-83357143D01*
X145144157Y-83357143D01*
X145146639Y-83281489D01*
X145157161Y-83072358D01*
X145171290Y-82855119D01*
X145188274Y-82643019D01*
X145207357Y-82449303D01*
X145227787Y-82287219D01*
X145246190Y-82181694D01*
X145264321Y-82090365D01*
X145287832Y-81962574D01*
X145300294Y-81891668D01*
X145324115Y-81772706D01*
X145348149Y-81682438D01*
X145360035Y-81653224D01*
X145379843Y-81589405D01*
X145393153Y-81490617D01*
X145393729Y-81481959D01*
X145411534Y-81386518D01*
X145444478Y-81326431D01*
X145448459Y-81323529D01*
X145472572Y-81287187D01*
X145456918Y-81270822D01*
X145451542Y-81228221D01*
X145470201Y-81139184D01*
X145505550Y-81025069D01*
X145550244Y-80907235D01*
X145596937Y-80807042D01*
X145637015Y-80747091D01*
X145671911Y-80677650D01*
X145674118Y-80657736D01*
X145688398Y-80591407D01*
X145723747Y-80493136D01*
X145733956Y-80469104D01*
X145780597Y-80360278D01*
X145817880Y-80269103D01*
X145822160Y-80258017D01*
X145897922Y-80074703D01*
X145964289Y-79953022D01*
X146028100Y-79881685D01*
X146062874Y-79860587D01*
X146137339Y-79807919D01*
X146169724Y-79758538D01*
X146218290Y-79703089D01*
X146314828Y-79658420D01*
X146432679Y-79631920D01*
X146545188Y-79630977D01*
X146590096Y-79642010D01*
X146706715Y-79674296D01*
X146797308Y-79677624D01*
X146845223Y-79653227D01*
X146845601Y-79623108D01*
X146849601Y-79577650D01*
X146901309Y-79568307D01*
X146985550Y-79590862D01*
G37*
%TD*%
M02*
