%TF.GenerationSoftware,KiCad,Pcbnew,7.0.10+dfsg-1*%
%TF.CreationDate,2024-02-23T09:49:32+01:00*%
%TF.ProjectId,chibi_v2_1,63686962-695f-4763-925f-312e6b696361,rev?*%
%TF.SameCoordinates,Original*%
%TF.FileFunction,Copper,L2,Bot*%
%TF.FilePolarity,Positive*%
%FSLAX46Y46*%
G04 Gerber Fmt 4.6, Leading zero omitted, Abs format (unit mm)*
G04 Created by KiCad (PCBNEW 7.0.10+dfsg-1) date 2024-02-23 09:49:32*
%MOMM*%
%LPD*%
G01*
G04 APERTURE LIST*
%TA.AperFunction,ComponentPad*%
%ADD10C,1.600000*%
%TD*%
%TA.AperFunction,ComponentPad*%
%ADD11O,1.600000X1.600000*%
%TD*%
%TA.AperFunction,ComponentPad*%
%ADD12R,1.800000X1.800000*%
%TD*%
%TA.AperFunction,ComponentPad*%
%ADD13C,1.800000*%
%TD*%
%TA.AperFunction,ComponentPad*%
%ADD14R,1.700000X1.700000*%
%TD*%
%TA.AperFunction,ComponentPad*%
%ADD15O,1.700000X1.700000*%
%TD*%
%TA.AperFunction,ComponentPad*%
%ADD16R,2.000000X2.000000*%
%TD*%
%TA.AperFunction,ComponentPad*%
%ADD17C,2.000000*%
%TD*%
%TA.AperFunction,ComponentPad*%
%ADD18C,1.676400*%
%TD*%
%TA.AperFunction,ComponentPad*%
%ADD19O,1.600000X2.000000*%
%TD*%
%TA.AperFunction,SMDPad,CuDef*%
%ADD20R,3.500000X1.700000*%
%TD*%
%TA.AperFunction,SMDPad,CuDef*%
%ADD21R,1.700000X3.500000*%
%TD*%
%TA.AperFunction,ViaPad*%
%ADD22C,2.200000*%
%TD*%
%TA.AperFunction,Conductor*%
%ADD23C,0.250000*%
%TD*%
G04 APERTURE END LIST*
D10*
%TO.P,R2,1*%
%TO.N,Net-(Q2-C)*%
X134620000Y-50800000D03*
D11*
%TO.P,R2,2*%
%TO.N,Net-(D1-A)*%
X134620000Y-40640000D03*
%TD*%
D12*
%TO.P,D1,1,K*%
%TO.N,GND*%
X140315000Y-40410000D03*
D13*
%TO.P,D1,2,A*%
%TO.N,Net-(D1-A)*%
X137775000Y-40410000D03*
%TD*%
D14*
%TO.P,J2,1,Pin_1*%
%TO.N,+3V3*%
X117500000Y-109920000D03*
D15*
%TO.P,J2,2,Pin_2*%
%TO.N,Net-(J2-Pin_2)*%
X117500000Y-112460000D03*
%TO.P,J2,3,Pin_3*%
%TO.N,Net-(J2-Pin_3)*%
X117500000Y-115000000D03*
%TO.P,J2,4,Pin_4*%
%TO.N,Net-(J2-Pin_4)*%
X117500000Y-117540000D03*
%TO.P,J2,5,Pin_5*%
%TO.N,Net-(J2-Pin_5)*%
X117500000Y-120080000D03*
%TO.P,J2,6,Pin_6*%
%TO.N,Net-(J2-Pin_6)*%
X117500000Y-122620000D03*
%TO.P,J2,7,Pin_7*%
%TO.N,Net-(J2-Pin_7)*%
X117500000Y-125160000D03*
%TO.P,J2,8,Pin_8*%
%TO.N,Net-(J2-Pin_8)*%
X117500000Y-127700000D03*
%TD*%
D12*
%TO.P,D2,1,K*%
%TO.N,GND*%
X147300000Y-40410000D03*
D13*
%TO.P,D2,2,A*%
%TO.N,Net-(D2-A)*%
X144760000Y-40410000D03*
%TD*%
D16*
%TO.P,BZ1,1,+*%
%TO.N,Net-(BZ1-+)*%
X161280000Y-41275000D03*
D17*
%TO.P,BZ1,2,-*%
%TO.N,+3V3*%
X153680000Y-41275000D03*
%TD*%
D10*
%TO.P,R1,1*%
%TO.N,Net-(Q3-C)*%
X144780000Y-53340000D03*
D11*
%TO.P,R1,2*%
%TO.N,Net-(D2-A)*%
X144780000Y-43180000D03*
%TD*%
D18*
%TO.P,Q3,1,C*%
%TO.N,Net-(Q3-C)*%
X149225000Y-49530000D03*
%TO.P,Q3,2,B*%
%TO.N,Net-(Pico1-GPIO11)*%
X151130000Y-48260000D03*
%TO.P,Q3,3,E*%
%TO.N,+3V3*%
X149225000Y-46990000D03*
%TD*%
%TO.P,Q2,1,C*%
%TO.N,Net-(Q2-C)*%
X138430000Y-50800000D03*
%TO.P,Q2,2,B*%
%TO.N,Net-(Pico1-GPIO10)*%
X139700000Y-52705000D03*
%TO.P,Q2,3,E*%
%TO.N,+3V3*%
X140970000Y-50800000D03*
%TD*%
%TO.P,Q1,1,C*%
%TO.N,GND*%
X156210000Y-52070000D03*
%TO.P,Q1,2,B*%
%TO.N,Net-(Pico1-GPIO9)*%
X157480000Y-53975000D03*
%TO.P,Q1,3,E*%
%TO.N,Net-(BZ1-+)*%
X158750000Y-52070000D03*
%TD*%
D19*
%TO.P,Display1,1,GND*%
%TO.N,GND*%
X132080000Y-57785000D03*
%TO.P,Display1,2,VCC*%
%TO.N,+3V3*%
X134620000Y-57785000D03*
%TO.P,Display1,3,SCL*%
%TO.N,Net-(Display1-SCL)*%
X137160000Y-57785000D03*
%TO.P,Display1,4,SDA*%
%TO.N,Net-(Display1-SDA)*%
X139700000Y-57785000D03*
%TD*%
D15*
%TO.P,Pico1,1,GPIO0*%
%TO.N,Net-(Display1-SDA)*%
X126365000Y-48260000D03*
D20*
X127265000Y-48260000D03*
D15*
%TO.P,Pico1,2,GPIO1*%
%TO.N,Net-(Display1-SCL)*%
X126365000Y-50800000D03*
D20*
X127265000Y-50800000D03*
D14*
%TO.P,Pico1,3,GND*%
%TO.N,GND*%
X126365000Y-53340000D03*
D20*
X127265000Y-53340000D03*
D15*
%TO.P,Pico1,4,GPIO2*%
%TO.N,Net-(J2-Pin_2)*%
X126365000Y-55880000D03*
D20*
X127265000Y-55880000D03*
D15*
%TO.P,Pico1,5,GPIO3*%
%TO.N,Net-(J2-Pin_3)*%
X126365000Y-58420000D03*
D20*
X127265000Y-58420000D03*
D15*
%TO.P,Pico1,6,GPIO4*%
%TO.N,Net-(J2-Pin_4)*%
X126365000Y-60960000D03*
D20*
X127265000Y-60960000D03*
D15*
%TO.P,Pico1,7,GPIO5*%
%TO.N,Net-(J2-Pin_5)*%
X126365000Y-63500000D03*
D20*
X127265000Y-63500000D03*
D14*
%TO.P,Pico1,8,GND*%
%TO.N,GND*%
X126365000Y-66040000D03*
D20*
X127265000Y-66040000D03*
D15*
%TO.P,Pico1,9,GPIO6*%
%TO.N,Net-(J2-Pin_6)*%
X126365000Y-68580000D03*
D20*
X127265000Y-68580000D03*
D15*
%TO.P,Pico1,10,GPIO7*%
%TO.N,Net-(J2-Pin_7)*%
X126365000Y-71120000D03*
D20*
X127265000Y-71120000D03*
D15*
%TO.P,Pico1,11,GPIO8*%
%TO.N,Net-(J2-Pin_8)*%
X126365000Y-73660000D03*
D20*
X127265000Y-73660000D03*
D15*
%TO.P,Pico1,12,GPIO9*%
%TO.N,Net-(Pico1-GPIO9)*%
X126365000Y-76200000D03*
D20*
X127265000Y-76200000D03*
D14*
%TO.P,Pico1,13,GND*%
%TO.N,GND*%
X126365000Y-78740000D03*
D20*
X127265000Y-78740000D03*
D15*
%TO.P,Pico1,14,GPIO10*%
%TO.N,Net-(Pico1-GPIO10)*%
X126365000Y-81280000D03*
D20*
X127265000Y-81280000D03*
D15*
%TO.P,Pico1,15,GPIO11*%
%TO.N,Net-(Pico1-GPIO11)*%
X126365000Y-83820000D03*
D20*
X127265000Y-83820000D03*
D15*
%TO.P,Pico1,16,GPIO12*%
%TO.N,unconnected-(Pico1-GPIO12-Pad16)*%
X126365000Y-86360000D03*
D20*
X127265000Y-86360000D03*
D15*
%TO.P,Pico1,17,GPIO13*%
%TO.N,unconnected-(Pico1-GPIO13-Pad17)*%
X126365000Y-88900000D03*
D20*
X127265000Y-88900000D03*
D14*
%TO.P,Pico1,18,GND*%
%TO.N,GND*%
X126365000Y-91440000D03*
D20*
X127265000Y-91440000D03*
D15*
%TO.P,Pico1,19,GPIO14*%
%TO.N,unconnected-(Pico1-GPIO14-Pad19)*%
X126365000Y-93980000D03*
D20*
X127265000Y-93980000D03*
D15*
%TO.P,Pico1,20,GPIO15*%
%TO.N,unconnected-(Pico1-GPIO15-Pad20)*%
X126365000Y-96520000D03*
D20*
X127265000Y-96520000D03*
D15*
%TO.P,Pico1,21,GPIO16*%
%TO.N,Net-(Pico1-GPIO16)*%
X108585000Y-96520000D03*
D20*
X107685000Y-96520000D03*
D15*
%TO.P,Pico1,22,GPIO17*%
%TO.N,Net-(Pico1-GPIO17)*%
X108585000Y-93980000D03*
D20*
X107685000Y-93980000D03*
D14*
%TO.P,Pico1,23,GND*%
%TO.N,unconnected-(Pico1-GND-Pad23)*%
X108585000Y-91440000D03*
D20*
X107685000Y-91440000D03*
D15*
%TO.P,Pico1,24,GPIO18*%
%TO.N,Net-(Pico1-GPIO18)*%
X108585000Y-88900000D03*
D20*
X107685000Y-88900000D03*
D15*
%TO.P,Pico1,25,GPIO19*%
%TO.N,Net-(Pico1-GPIO19)*%
X108585000Y-86360000D03*
D20*
X107685000Y-86360000D03*
D15*
%TO.P,Pico1,26,GPIO20*%
%TO.N,unconnected-(Pico1-GPIO20-Pad26)*%
X108585000Y-83820000D03*
D20*
X107685000Y-83820000D03*
D15*
%TO.P,Pico1,27,GPIO21*%
%TO.N,unconnected-(Pico1-GPIO21-Pad27)*%
X108585000Y-81280000D03*
D20*
X107685000Y-81280000D03*
D14*
%TO.P,Pico1,28,GND*%
%TO.N,unconnected-(Pico1-GND-Pad28)*%
X108585000Y-78740000D03*
D20*
X107685000Y-78740000D03*
D15*
%TO.P,Pico1,29,GPIO22*%
%TO.N,unconnected-(Pico1-GPIO22-Pad29)*%
X108585000Y-76200000D03*
D20*
X107685000Y-76200000D03*
D15*
%TO.P,Pico1,30,RUN*%
%TO.N,unconnected-(Pico1-RUN-Pad30)*%
X108585000Y-73660000D03*
D20*
X107685000Y-73660000D03*
D15*
%TO.P,Pico1,31,GPIO26_ADC0*%
%TO.N,unconnected-(Pico1-GPIO26_ADC0-Pad31)*%
X108585000Y-71120000D03*
D20*
X107685000Y-71120000D03*
D15*
%TO.P,Pico1,32,GPIO27_ADC1*%
%TO.N,unconnected-(Pico1-GPIO27_ADC1-Pad32)*%
X108585000Y-68580000D03*
D20*
X107685000Y-68580000D03*
D14*
%TO.P,Pico1,33,AGND*%
%TO.N,unconnected-(Pico1-AGND-Pad33)*%
X108585000Y-66040000D03*
D20*
X107685000Y-66040000D03*
D15*
%TO.P,Pico1,34,GPIO28_ADC2*%
%TO.N,unconnected-(Pico1-GPIO28_ADC2-Pad34)*%
X108585000Y-63500000D03*
D20*
X107685000Y-63500000D03*
D15*
%TO.P,Pico1,35,ADC_VREF*%
%TO.N,unconnected-(Pico1-ADC_VREF-Pad35)*%
X108585000Y-60960000D03*
D20*
X107685000Y-60960000D03*
D15*
%TO.P,Pico1,36,3V3*%
%TO.N,+3V3*%
X108585000Y-58420000D03*
D20*
X107685000Y-58420000D03*
D15*
%TO.P,Pico1,37,3V3_EN*%
%TO.N,unconnected-(Pico1-3V3_EN-Pad37)*%
X108585000Y-55880000D03*
D20*
X107685000Y-55880000D03*
D14*
%TO.P,Pico1,38,GND*%
%TO.N,GND*%
X108585000Y-53340000D03*
D20*
X107685000Y-53340000D03*
D15*
%TO.P,Pico1,39,VSYS*%
%TO.N,unconnected-(Pico1-VSYS-Pad39)*%
X108585000Y-50800000D03*
D20*
X107685000Y-50800000D03*
D15*
%TO.P,Pico1,40,VBUS*%
%TO.N,unconnected-(Pico1-VBUS-Pad40)*%
X108585000Y-48260000D03*
D20*
X107685000Y-48260000D03*
D15*
%TO.P,Pico1,41,SWCLK*%
%TO.N,unconnected-(Pico1-SWCLK-Pad41)*%
X120015000Y-96290000D03*
D21*
X120015000Y-97190000D03*
D14*
%TO.P,Pico1,42,GND*%
%TO.N,unconnected-(Pico1-GND-Pad42)*%
X117475000Y-96290000D03*
D21*
X117475000Y-97190000D03*
D15*
%TO.P,Pico1,43,SWDIO*%
%TO.N,unconnected-(Pico1-SWDIO-Pad43)*%
X114935000Y-96290000D03*
D21*
X114935000Y-97190000D03*
%TD*%
D15*
%TO.P,SDCard1,1,3v*%
%TO.N,+3V3*%
X137160000Y-99060000D03*
%TO.P,SDCard1,2,GND*%
%TO.N,GND*%
X137160000Y-96520000D03*
%TO.P,SDCard1,3,CLK*%
%TO.N,Net-(Pico1-GPIO18)*%
X137160000Y-93980000D03*
%TO.P,SDCard1,4,Slave_Output*%
%TO.N,Net-(Pico1-GPIO16)*%
X137160000Y-91440000D03*
%TO.P,SDCard1,5,Slave_Input*%
%TO.N,Net-(Pico1-GPIO19)*%
X137160000Y-88900000D03*
%TO.P,SDCard1,6,Chip_Select*%
%TO.N,Net-(Pico1-GPIO17)*%
X137160000Y-86360000D03*
%TO.P,SDCard1,7*%
%TO.N,unconnected-(SDCard1-Pad7)*%
X137160000Y-83820000D03*
%TO.P,SDCard1,8*%
%TO.N,unconnected-(SDCard1-Pad8)*%
X137160000Y-81280000D03*
%TO.P,SDCard1,9,Card_Detect*%
%TO.N,unconnected-(SDCard1-Card_Detect-Pad9)*%
X137160000Y-78740000D03*
%TD*%
D22*
%TO.N,*%
X163830000Y-102870000D03*
X101200000Y-130400000D03*
X163830000Y-36195000D03*
X101600000Y-36195000D03*
X120000000Y-130400000D03*
%TD*%
D23*
%TO.N,GND*%
X137160000Y-96520000D02*
X138335000Y-95345000D01*
X138335000Y-93123001D02*
X137826999Y-92615000D01*
X136431396Y-92615000D02*
X135256396Y-91440000D01*
X135256396Y-91440000D02*
X126365000Y-91440000D01*
X138335000Y-95345000D02*
X138335000Y-93123001D01*
X137826999Y-92615000D02*
X136431396Y-92615000D01*
%TO.N,Net-(Display1-SCL)*%
X129540000Y-50800000D02*
X136525000Y-57785000D01*
X136525000Y-57785000D02*
X137160000Y-57785000D01*
X126365000Y-50800000D02*
X129540000Y-50800000D01*
%TO.N,Net-(Display1-SDA)*%
X127975000Y-48260000D02*
X126365000Y-48260000D01*
X137053200Y-55138200D02*
X139700000Y-57785000D01*
X134853200Y-55138200D02*
X127975000Y-48260000D01*
X134853200Y-55138200D02*
X137053200Y-55138200D01*
%TO.N,Net-(J2-Pin_2)*%
X117509010Y-104218198D02*
X110224010Y-104218198D01*
X120045000Y-62200000D02*
X126365000Y-55880000D01*
X118800000Y-111160000D02*
X118800000Y-105509188D01*
X104260000Y-63675000D02*
X105735000Y-62200000D01*
X118800000Y-105509188D02*
X117509010Y-104218198D01*
X117500000Y-112460000D02*
X118800000Y-111160000D01*
X104260000Y-98254188D02*
X104260000Y-63675000D01*
X105735000Y-62200000D02*
X120045000Y-62200000D01*
X110224010Y-104218198D02*
X104260000Y-98254188D01*
%TO.N,Net-(J2-Pin_3)*%
X117695406Y-103768198D02*
X110410406Y-103768198D01*
X104710000Y-65765000D02*
X105800000Y-64675000D01*
X119363604Y-105436396D02*
X117695406Y-103768198D01*
X105800000Y-64675000D02*
X120110000Y-64675000D01*
X120110000Y-64675000D02*
X126365000Y-58420000D01*
X104710000Y-98067792D02*
X104710000Y-65765000D01*
X119363604Y-113136396D02*
X119363604Y-105436396D01*
X117500000Y-115000000D02*
X119363604Y-113136396D01*
X110410406Y-103768198D02*
X104710000Y-98067792D01*
%TO.N,Net-(J2-Pin_4)*%
X117881802Y-103318198D02*
X110596802Y-103318198D01*
X119950000Y-105386396D02*
X117881802Y-103318198D01*
X105160000Y-97881396D02*
X105160000Y-67855000D01*
X105800000Y-67215000D02*
X120110000Y-67215000D01*
X117500000Y-117540000D02*
X119950000Y-115090000D01*
X119950000Y-115090000D02*
X119950000Y-105386396D01*
X105160000Y-67855000D02*
X105800000Y-67215000D01*
X110596802Y-103318198D02*
X105160000Y-97881396D01*
X120110000Y-67215000D02*
X126365000Y-60960000D01*
%TO.N,Net-(J2-Pin_5)*%
X105610000Y-69945000D02*
X105610000Y-97695000D01*
X118000000Y-102800000D02*
X120400000Y-105200000D01*
X126365000Y-63500000D02*
X120110000Y-69755000D01*
X105800000Y-69755000D02*
X105610000Y-69945000D01*
X120400000Y-117180000D02*
X117500000Y-120080000D01*
X120400000Y-105200000D02*
X120400000Y-117180000D01*
X105610000Y-97695000D02*
X110715000Y-102800000D01*
X120110000Y-69755000D02*
X105800000Y-69755000D01*
X110715000Y-102800000D02*
X118000000Y-102800000D01*
%TO.N,Net-(Pico1-GPIO9)*%
X157480000Y-53975000D02*
X135255000Y-76200000D01*
X135255000Y-76200000D02*
X126365000Y-76200000D01*
%TO.N,Net-(Pico1-GPIO18)*%
X135795000Y-92615000D02*
X112300000Y-92615000D01*
X112300000Y-92615000D02*
X108585000Y-88900000D01*
X137160000Y-93980000D02*
X135795000Y-92615000D01*
%TO.N,Net-(Pico1-GPIO19)*%
X109950000Y-87725000D02*
X108585000Y-86360000D01*
X137160000Y-88900000D02*
X135985000Y-87725000D01*
X135985000Y-87725000D02*
X109950000Y-87725000D01*
%TD*%
%TA.AperFunction,Conductor*%
%TO.N,GND*%
G36*
X162283538Y-35479685D02*
G01*
X162329293Y-35532489D01*
X162339237Y-35601647D01*
X162331060Y-35631453D01*
X162303126Y-35698889D01*
X162244317Y-35943848D01*
X162224551Y-36195000D01*
X162244317Y-36446151D01*
X162303126Y-36691110D01*
X162399533Y-36923859D01*
X162531160Y-37138653D01*
X162531161Y-37138656D01*
X162531164Y-37138659D01*
X162694776Y-37330224D01*
X162843066Y-37456875D01*
X162886343Y-37493838D01*
X162886346Y-37493839D01*
X163101140Y-37625466D01*
X163333889Y-37721873D01*
X163578852Y-37780683D01*
X163830000Y-37800449D01*
X164081148Y-37780683D01*
X164247406Y-37740768D01*
X164317187Y-37744259D01*
X164374005Y-37784922D01*
X164399818Y-37849849D01*
X164400352Y-37861324D01*
X164409662Y-101205874D01*
X164389987Y-101272916D01*
X164337190Y-101318679D01*
X164268033Y-101328632D01*
X164256716Y-101326466D01*
X164081152Y-101284318D01*
X164081148Y-101284317D01*
X163830000Y-101264551D01*
X163578848Y-101284317D01*
X163333889Y-101343126D01*
X163101140Y-101439533D01*
X162886346Y-101571160D01*
X162886343Y-101571161D01*
X162694776Y-101734776D01*
X162531161Y-101926343D01*
X162531160Y-101926346D01*
X162399533Y-102141140D01*
X162303126Y-102373889D01*
X162244317Y-102618848D01*
X162224551Y-102870000D01*
X162244317Y-103121151D01*
X162298551Y-103347053D01*
X162295060Y-103416836D01*
X162254396Y-103473653D01*
X162189470Y-103499466D01*
X162177977Y-103500000D01*
X120810000Y-103500000D01*
X120809663Y-104425755D01*
X120789954Y-104492787D01*
X120737133Y-104538523D01*
X120667971Y-104548441D01*
X120604426Y-104519393D01*
X120597982Y-104513391D01*
X118500803Y-102416212D01*
X118490980Y-102403950D01*
X118490759Y-102404134D01*
X118485786Y-102398122D01*
X118436776Y-102352099D01*
X118433977Y-102349386D01*
X118414477Y-102329885D01*
X118414471Y-102329880D01*
X118411286Y-102327409D01*
X118402434Y-102319848D01*
X118370582Y-102289938D01*
X118370580Y-102289936D01*
X118370577Y-102289935D01*
X118353029Y-102280288D01*
X118336763Y-102269604D01*
X118320932Y-102257324D01*
X118280849Y-102239978D01*
X118270363Y-102234841D01*
X118232094Y-102213803D01*
X118232092Y-102213802D01*
X118212693Y-102208822D01*
X118194281Y-102202518D01*
X118175898Y-102194562D01*
X118175892Y-102194560D01*
X118132760Y-102187729D01*
X118121322Y-102185361D01*
X118079020Y-102174500D01*
X118079019Y-102174500D01*
X118058984Y-102174500D01*
X118039586Y-102172973D01*
X118032162Y-102171797D01*
X118019805Y-102169840D01*
X118019804Y-102169840D01*
X117976325Y-102173950D01*
X117964656Y-102174500D01*
X111025453Y-102174500D01*
X110958414Y-102154815D01*
X110937772Y-102138181D01*
X106881771Y-98082180D01*
X106848286Y-98020857D01*
X106853270Y-97951165D01*
X106895142Y-97895232D01*
X106960606Y-97870815D01*
X106969452Y-97870499D01*
X108520612Y-97870499D01*
X108531420Y-97870971D01*
X108584999Y-97875659D01*
X108585000Y-97875659D01*
X108585001Y-97875659D01*
X108638580Y-97870971D01*
X108649388Y-97870499D01*
X109482871Y-97870499D01*
X109482872Y-97870499D01*
X109542483Y-97864091D01*
X109677331Y-97813796D01*
X109792546Y-97727546D01*
X109878796Y-97612331D01*
X109929091Y-97477483D01*
X109935500Y-97417873D01*
X109935499Y-96584383D01*
X109935971Y-96573576D01*
X109940659Y-96520000D01*
X109940659Y-96519999D01*
X109935971Y-96466421D01*
X109935499Y-96455613D01*
X109935499Y-96290001D01*
X113579341Y-96290001D01*
X113584028Y-96343574D01*
X113584500Y-96354381D01*
X113584500Y-98987870D01*
X113584501Y-98987876D01*
X113590908Y-99047483D01*
X113641202Y-99182328D01*
X113641206Y-99182335D01*
X113727452Y-99297544D01*
X113727455Y-99297547D01*
X113842664Y-99383793D01*
X113842671Y-99383797D01*
X113977517Y-99434091D01*
X113977516Y-99434091D01*
X113984444Y-99434835D01*
X114037127Y-99440500D01*
X115832872Y-99440499D01*
X115892483Y-99434091D01*
X116027331Y-99383796D01*
X116130690Y-99306421D01*
X116196152Y-99282004D01*
X116264425Y-99296855D01*
X116279303Y-99306416D01*
X116382665Y-99383793D01*
X116382668Y-99383795D01*
X116382671Y-99383797D01*
X116517517Y-99434091D01*
X116517516Y-99434091D01*
X116524444Y-99434835D01*
X116577127Y-99440500D01*
X118372872Y-99440499D01*
X118432483Y-99434091D01*
X118567331Y-99383796D01*
X118670690Y-99306421D01*
X118736152Y-99282004D01*
X118804425Y-99296855D01*
X118819303Y-99306416D01*
X118922665Y-99383793D01*
X118922668Y-99383795D01*
X118922671Y-99383797D01*
X119057517Y-99434091D01*
X119057516Y-99434091D01*
X119064444Y-99434835D01*
X119117127Y-99440500D01*
X120912872Y-99440499D01*
X120972483Y-99434091D01*
X121107331Y-99383796D01*
X121222546Y-99297546D01*
X121308796Y-99182331D01*
X121359091Y-99047483D01*
X121365500Y-98987873D01*
X121365499Y-96354381D01*
X121365971Y-96343578D01*
X121370659Y-96290000D01*
X121370659Y-96289999D01*
X121365971Y-96236418D01*
X121365499Y-96225610D01*
X121365499Y-95392129D01*
X121365498Y-95392123D01*
X121365497Y-95392116D01*
X121359091Y-95332517D01*
X121356030Y-95324311D01*
X121308797Y-95197671D01*
X121308793Y-95197664D01*
X121222547Y-95082455D01*
X121222544Y-95082452D01*
X121107335Y-94996206D01*
X121107328Y-94996202D01*
X120972482Y-94945908D01*
X120972483Y-94945908D01*
X120912883Y-94939501D01*
X120912881Y-94939500D01*
X120912873Y-94939500D01*
X120912865Y-94939500D01*
X120079383Y-94939500D01*
X120068576Y-94939028D01*
X120015002Y-94934341D01*
X120014999Y-94934341D01*
X119979865Y-94937414D01*
X119961421Y-94939028D01*
X119950616Y-94939500D01*
X119117129Y-94939500D01*
X119117123Y-94939501D01*
X119057516Y-94945908D01*
X118922671Y-94996202D01*
X118922669Y-94996203D01*
X118819311Y-95073578D01*
X118753847Y-95097995D01*
X118685574Y-95083144D01*
X118670689Y-95073578D01*
X118567330Y-94996203D01*
X118567328Y-94996202D01*
X118432482Y-94945908D01*
X118432483Y-94945908D01*
X118372883Y-94939501D01*
X118372881Y-94939500D01*
X118372873Y-94939500D01*
X118372864Y-94939500D01*
X116577129Y-94939500D01*
X116577123Y-94939501D01*
X116517516Y-94945908D01*
X116382671Y-94996202D01*
X116382669Y-94996203D01*
X116279311Y-95073578D01*
X116213847Y-95097995D01*
X116145574Y-95083144D01*
X116130689Y-95073578D01*
X116027330Y-94996203D01*
X116027328Y-94996202D01*
X115892482Y-94945908D01*
X115892483Y-94945908D01*
X115832883Y-94939501D01*
X115832881Y-94939500D01*
X115832873Y-94939500D01*
X115832865Y-94939500D01*
X114999383Y-94939500D01*
X114988576Y-94939028D01*
X114935002Y-94934341D01*
X114934999Y-94934341D01*
X114899865Y-94937414D01*
X114881421Y-94939028D01*
X114870616Y-94939500D01*
X114037129Y-94939500D01*
X114037123Y-94939501D01*
X113977516Y-94945908D01*
X113842671Y-94996202D01*
X113842664Y-94996206D01*
X113727455Y-95082452D01*
X113727452Y-95082455D01*
X113641206Y-95197664D01*
X113641202Y-95197671D01*
X113590908Y-95332517D01*
X113584501Y-95392116D01*
X113584501Y-95392123D01*
X113584500Y-95392135D01*
X113584500Y-96225618D01*
X113584028Y-96236425D01*
X113579341Y-96289997D01*
X113579341Y-96290001D01*
X109935499Y-96290001D01*
X109935499Y-95622129D01*
X109935498Y-95622123D01*
X109935497Y-95622116D01*
X109929091Y-95562517D01*
X109899019Y-95481891D01*
X109878797Y-95427671D01*
X109878795Y-95427668D01*
X109852195Y-95392135D01*
X109801421Y-95324309D01*
X109777004Y-95258848D01*
X109791855Y-95190575D01*
X109801416Y-95175696D01*
X109878796Y-95072331D01*
X109929091Y-94937483D01*
X109935500Y-94877873D01*
X109935499Y-94044383D01*
X109935971Y-94033576D01*
X109940659Y-93980000D01*
X109940659Y-93979999D01*
X109935971Y-93926421D01*
X109935499Y-93915613D01*
X109935499Y-93082129D01*
X109935498Y-93082123D01*
X109933723Y-93065612D01*
X109929091Y-93022517D01*
X109926987Y-93016877D01*
X109878797Y-92887671D01*
X109878795Y-92887668D01*
X109801421Y-92784309D01*
X109777004Y-92718848D01*
X109791855Y-92650575D01*
X109801416Y-92635696D01*
X109878796Y-92532331D01*
X109929091Y-92397483D01*
X109935500Y-92337873D01*
X109935499Y-91434450D01*
X109955183Y-91367412D01*
X110007987Y-91321657D01*
X110077146Y-91311713D01*
X110140702Y-91340738D01*
X110147178Y-91346768D01*
X111111804Y-92311395D01*
X111799197Y-92998788D01*
X111809022Y-93011051D01*
X111809243Y-93010869D01*
X111814211Y-93016874D01*
X111863222Y-93062899D01*
X111866021Y-93065612D01*
X111885522Y-93085114D01*
X111885526Y-93085117D01*
X111885529Y-93085120D01*
X111888702Y-93087581D01*
X111897574Y-93095159D01*
X111929418Y-93125062D01*
X111946976Y-93134714D01*
X111963235Y-93145395D01*
X111979064Y-93157673D01*
X112019155Y-93175021D01*
X112029626Y-93180151D01*
X112052180Y-93192550D01*
X112067902Y-93201194D01*
X112067904Y-93201195D01*
X112067908Y-93201197D01*
X112087316Y-93206180D01*
X112105719Y-93212481D01*
X112124101Y-93220436D01*
X112124102Y-93220436D01*
X112124104Y-93220437D01*
X112167250Y-93227270D01*
X112178672Y-93229636D01*
X112220981Y-93240500D01*
X112241016Y-93240500D01*
X112260414Y-93242026D01*
X112280194Y-93245159D01*
X112280195Y-93245160D01*
X112280195Y-93245159D01*
X112280196Y-93245160D01*
X112323675Y-93241050D01*
X112335344Y-93240500D01*
X124890500Y-93240500D01*
X124957539Y-93260185D01*
X125003294Y-93312989D01*
X125014500Y-93364500D01*
X125014500Y-93915616D01*
X125014028Y-93926423D01*
X125009341Y-93979997D01*
X125009341Y-93980002D01*
X125014028Y-94033576D01*
X125014500Y-94044383D01*
X125014500Y-94877870D01*
X125014501Y-94877876D01*
X125020908Y-94937483D01*
X125071202Y-95072328D01*
X125071203Y-95072330D01*
X125148578Y-95175689D01*
X125172995Y-95241153D01*
X125158144Y-95309426D01*
X125148578Y-95324311D01*
X125071203Y-95427669D01*
X125071202Y-95427671D01*
X125020908Y-95562517D01*
X125014501Y-95622116D01*
X125014501Y-95622123D01*
X125014500Y-95622135D01*
X125014500Y-96455616D01*
X125014028Y-96466423D01*
X125009341Y-96519997D01*
X125009341Y-96520002D01*
X125014028Y-96573576D01*
X125014500Y-96584383D01*
X125014500Y-97417870D01*
X125014501Y-97417876D01*
X125020908Y-97477483D01*
X125071202Y-97612328D01*
X125071206Y-97612335D01*
X125157452Y-97727544D01*
X125157455Y-97727547D01*
X125272664Y-97813793D01*
X125272671Y-97813797D01*
X125407517Y-97864091D01*
X125407516Y-97864091D01*
X125414444Y-97864835D01*
X125467127Y-97870500D01*
X126300616Y-97870499D01*
X126311425Y-97870971D01*
X126365000Y-97875659D01*
X126418575Y-97870971D01*
X126429384Y-97870499D01*
X129062871Y-97870499D01*
X129062872Y-97870499D01*
X129122483Y-97864091D01*
X129257331Y-97813796D01*
X129372546Y-97727546D01*
X129458796Y-97612331D01*
X129509091Y-97477483D01*
X129515500Y-97417873D01*
X129515499Y-95622128D01*
X129509091Y-95562517D01*
X129479019Y-95481891D01*
X129458797Y-95427671D01*
X129458795Y-95427668D01*
X129432195Y-95392135D01*
X129381421Y-95324309D01*
X129357004Y-95258848D01*
X129371855Y-95190575D01*
X129381416Y-95175696D01*
X129458796Y-95072331D01*
X129509091Y-94937483D01*
X129515500Y-94877873D01*
X129515499Y-93364499D01*
X129535184Y-93297461D01*
X129587987Y-93251706D01*
X129639499Y-93240500D01*
X135484548Y-93240500D01*
X135551587Y-93260185D01*
X135572229Y-93276819D01*
X135819762Y-93524352D01*
X135853247Y-93585675D01*
X135851856Y-93644126D01*
X135824938Y-93744586D01*
X135824936Y-93744596D01*
X135804341Y-93979999D01*
X135804341Y-93980000D01*
X135824936Y-94215403D01*
X135824938Y-94215413D01*
X135886094Y-94443655D01*
X135886096Y-94443659D01*
X135886097Y-94443663D01*
X135985965Y-94657830D01*
X135985967Y-94657834D01*
X136121501Y-94851395D01*
X136121506Y-94851402D01*
X136288597Y-95018493D01*
X136288603Y-95018498D01*
X136474594Y-95148730D01*
X136518219Y-95203307D01*
X136525413Y-95272805D01*
X136493890Y-95335160D01*
X136474595Y-95351880D01*
X136288922Y-95481890D01*
X136288920Y-95481891D01*
X136121891Y-95648920D01*
X136121886Y-95648926D01*
X135986400Y-95842420D01*
X135986399Y-95842422D01*
X135886570Y-96056507D01*
X135886567Y-96056513D01*
X135829364Y-96269999D01*
X135829364Y-96270000D01*
X136714428Y-96270000D01*
X136691318Y-96305960D01*
X136650000Y-96446673D01*
X136650000Y-96593327D01*
X136691318Y-96734040D01*
X136714428Y-96770000D01*
X135829364Y-96770000D01*
X135886567Y-96983486D01*
X135886570Y-96983492D01*
X135986399Y-97197578D01*
X136121894Y-97391082D01*
X136288917Y-97558105D01*
X136474595Y-97688119D01*
X136518219Y-97742696D01*
X136525412Y-97812195D01*
X136493890Y-97874549D01*
X136474595Y-97891269D01*
X136288594Y-98021508D01*
X136121505Y-98188597D01*
X135985965Y-98382169D01*
X135985964Y-98382171D01*
X135886098Y-98596335D01*
X135886094Y-98596344D01*
X135824938Y-98824586D01*
X135824936Y-98824596D01*
X135804341Y-99059999D01*
X135804341Y-99060000D01*
X135824936Y-99295403D01*
X135824938Y-99295413D01*
X135886094Y-99523655D01*
X135886096Y-99523659D01*
X135886097Y-99523663D01*
X135985965Y-99737830D01*
X135985967Y-99737834D01*
X136094281Y-99892521D01*
X136121505Y-99931401D01*
X136288599Y-100098495D01*
X136385384Y-100166265D01*
X136482165Y-100234032D01*
X136482167Y-100234033D01*
X136482170Y-100234035D01*
X136696337Y-100333903D01*
X136924592Y-100395063D01*
X137112918Y-100411539D01*
X137159999Y-100415659D01*
X137160000Y-100415659D01*
X137160001Y-100415659D01*
X137199234Y-100412226D01*
X137395408Y-100395063D01*
X137623663Y-100333903D01*
X137837830Y-100234035D01*
X138031401Y-100098495D01*
X138198495Y-99931401D01*
X138334035Y-99737830D01*
X138433903Y-99523663D01*
X138495063Y-99295408D01*
X138515659Y-99060000D01*
X138495063Y-98824592D01*
X138433903Y-98596337D01*
X138334035Y-98382171D01*
X138326946Y-98372046D01*
X138198494Y-98188597D01*
X138031402Y-98021506D01*
X138031401Y-98021505D01*
X137845405Y-97891269D01*
X137801781Y-97836692D01*
X137794588Y-97767193D01*
X137826110Y-97704839D01*
X137845405Y-97688119D01*
X138031082Y-97558105D01*
X138198105Y-97391082D01*
X138333600Y-97197578D01*
X138433429Y-96983492D01*
X138433432Y-96983486D01*
X138490636Y-96770000D01*
X137605572Y-96770000D01*
X137628682Y-96734040D01*
X137670000Y-96593327D01*
X137670000Y-96446673D01*
X137628682Y-96305960D01*
X137605572Y-96270000D01*
X138490636Y-96270000D01*
X138490635Y-96269999D01*
X138433432Y-96056513D01*
X138433429Y-96056507D01*
X138333600Y-95842422D01*
X138333599Y-95842420D01*
X138198113Y-95648926D01*
X138198108Y-95648920D01*
X138031078Y-95481890D01*
X137845405Y-95351879D01*
X137801780Y-95297302D01*
X137794588Y-95227804D01*
X137826110Y-95165449D01*
X137845406Y-95148730D01*
X137917863Y-95097995D01*
X138031401Y-95018495D01*
X138198495Y-94851401D01*
X138334035Y-94657830D01*
X138433903Y-94443663D01*
X138495063Y-94215408D01*
X138515659Y-93980000D01*
X138495063Y-93744592D01*
X138433903Y-93516337D01*
X138334035Y-93302171D01*
X138316284Y-93276819D01*
X138198494Y-93108597D01*
X138031402Y-92941506D01*
X138031396Y-92941501D01*
X137845842Y-92811575D01*
X137802217Y-92756998D01*
X137795023Y-92687500D01*
X137826546Y-92625145D01*
X137845842Y-92608425D01*
X137954515Y-92532331D01*
X138031401Y-92478495D01*
X138198495Y-92311401D01*
X138334035Y-92117830D01*
X138433903Y-91903663D01*
X138495063Y-91675408D01*
X138515659Y-91440000D01*
X138495063Y-91204592D01*
X138433903Y-90976337D01*
X138334035Y-90762171D01*
X138198495Y-90568599D01*
X138198494Y-90568597D01*
X138031402Y-90401506D01*
X138031396Y-90401501D01*
X137845842Y-90271575D01*
X137802217Y-90216998D01*
X137795023Y-90147500D01*
X137826546Y-90085145D01*
X137845842Y-90068425D01*
X137868026Y-90052891D01*
X138031401Y-89938495D01*
X138198495Y-89771401D01*
X138334035Y-89577830D01*
X138433903Y-89363663D01*
X138495063Y-89135408D01*
X138515659Y-88900000D01*
X138495063Y-88664592D01*
X138433903Y-88436337D01*
X138334035Y-88222171D01*
X138198495Y-88028599D01*
X138198494Y-88028597D01*
X138031402Y-87861506D01*
X138031396Y-87861501D01*
X137845842Y-87731575D01*
X137802217Y-87676998D01*
X137795023Y-87607500D01*
X137826546Y-87545145D01*
X137845842Y-87528425D01*
X137868026Y-87512891D01*
X138031401Y-87398495D01*
X138198495Y-87231401D01*
X138334035Y-87037830D01*
X138433903Y-86823663D01*
X138495063Y-86595408D01*
X138515659Y-86360000D01*
X138495063Y-86124592D01*
X138433903Y-85896337D01*
X138334035Y-85682171D01*
X138198495Y-85488599D01*
X138198494Y-85488597D01*
X138031402Y-85321506D01*
X138031396Y-85321501D01*
X137845842Y-85191575D01*
X137802217Y-85136998D01*
X137795023Y-85067500D01*
X137826546Y-85005145D01*
X137845842Y-84988425D01*
X137954515Y-84912331D01*
X138031401Y-84858495D01*
X138198495Y-84691401D01*
X138334035Y-84497830D01*
X138433903Y-84283663D01*
X138495063Y-84055408D01*
X138515659Y-83820000D01*
X138495063Y-83584592D01*
X138433903Y-83356337D01*
X138334035Y-83142171D01*
X138198495Y-82948599D01*
X138198494Y-82948597D01*
X138031402Y-82781506D01*
X138031396Y-82781501D01*
X137845842Y-82651575D01*
X137802217Y-82596998D01*
X137795023Y-82527500D01*
X137826546Y-82465145D01*
X137845842Y-82448425D01*
X137954515Y-82372331D01*
X138031401Y-82318495D01*
X138198495Y-82151401D01*
X138334035Y-81957830D01*
X138433903Y-81743663D01*
X138495063Y-81515408D01*
X138515659Y-81280000D01*
X138495063Y-81044592D01*
X138433903Y-80816337D01*
X138334035Y-80602171D01*
X138198495Y-80408599D01*
X138198494Y-80408597D01*
X138031402Y-80241506D01*
X138031396Y-80241501D01*
X137845842Y-80111575D01*
X137802217Y-80056998D01*
X137795023Y-79987500D01*
X137826546Y-79925145D01*
X137845842Y-79908425D01*
X137954515Y-79832331D01*
X138031401Y-79778495D01*
X138198495Y-79611401D01*
X138334035Y-79417830D01*
X138433903Y-79203663D01*
X138495063Y-78975408D01*
X138515659Y-78740000D01*
X138495063Y-78504592D01*
X138433903Y-78276337D01*
X138334035Y-78062171D01*
X138198495Y-77868599D01*
X138198494Y-77868597D01*
X138031402Y-77701506D01*
X138031395Y-77701501D01*
X137837834Y-77565967D01*
X137837830Y-77565965D01*
X137790921Y-77544091D01*
X137623663Y-77466097D01*
X137623659Y-77466096D01*
X137623655Y-77466094D01*
X137395413Y-77404938D01*
X137395403Y-77404936D01*
X137160001Y-77384341D01*
X137159999Y-77384341D01*
X136924596Y-77404936D01*
X136924586Y-77404938D01*
X136696344Y-77466094D01*
X136696335Y-77466098D01*
X136482171Y-77565964D01*
X136482169Y-77565965D01*
X136288597Y-77701505D01*
X136121505Y-77868597D01*
X135985965Y-78062169D01*
X135985964Y-78062171D01*
X135886098Y-78276335D01*
X135886094Y-78276344D01*
X135824938Y-78504586D01*
X135824936Y-78504596D01*
X135804341Y-78739999D01*
X135804341Y-78740000D01*
X135824936Y-78975403D01*
X135824938Y-78975413D01*
X135886094Y-79203655D01*
X135886096Y-79203659D01*
X135886097Y-79203663D01*
X135985965Y-79417830D01*
X135985967Y-79417834D01*
X136121501Y-79611395D01*
X136121506Y-79611402D01*
X136288597Y-79778493D01*
X136288603Y-79778498D01*
X136474158Y-79908425D01*
X136517783Y-79963002D01*
X136524977Y-80032500D01*
X136493454Y-80094855D01*
X136474158Y-80111575D01*
X136288597Y-80241505D01*
X136121505Y-80408597D01*
X135985965Y-80602169D01*
X135985964Y-80602171D01*
X135886098Y-80816335D01*
X135886094Y-80816344D01*
X135824938Y-81044586D01*
X135824936Y-81044596D01*
X135804341Y-81279999D01*
X135804341Y-81280000D01*
X135824936Y-81515403D01*
X135824938Y-81515413D01*
X135886094Y-81743655D01*
X135886096Y-81743659D01*
X135886097Y-81743663D01*
X135985965Y-81957830D01*
X135985967Y-81957834D01*
X136121501Y-82151395D01*
X136121506Y-82151402D01*
X136288597Y-82318493D01*
X136288603Y-82318498D01*
X136474158Y-82448425D01*
X136517783Y-82503002D01*
X136524977Y-82572500D01*
X136493454Y-82634855D01*
X136474158Y-82651575D01*
X136288597Y-82781505D01*
X136121505Y-82948597D01*
X135985965Y-83142169D01*
X135985964Y-83142171D01*
X135886098Y-83356335D01*
X135886094Y-83356344D01*
X135824938Y-83584586D01*
X135824936Y-83584596D01*
X135804341Y-83819999D01*
X135804341Y-83820000D01*
X135824936Y-84055403D01*
X135824938Y-84055413D01*
X135886094Y-84283655D01*
X135886096Y-84283659D01*
X135886097Y-84283663D01*
X135985965Y-84497830D01*
X135985967Y-84497834D01*
X136121501Y-84691395D01*
X136121506Y-84691402D01*
X136288597Y-84858493D01*
X136288603Y-84858498D01*
X136474158Y-84988425D01*
X136517783Y-85043002D01*
X136524977Y-85112500D01*
X136493454Y-85174855D01*
X136474158Y-85191575D01*
X136288597Y-85321505D01*
X136121505Y-85488597D01*
X135985965Y-85682169D01*
X135985964Y-85682171D01*
X135886098Y-85896335D01*
X135886094Y-85896344D01*
X135824938Y-86124586D01*
X135824936Y-86124596D01*
X135804341Y-86359999D01*
X135804341Y-86360000D01*
X135824936Y-86595403D01*
X135824938Y-86595413D01*
X135886094Y-86823655D01*
X135886096Y-86823659D01*
X135886097Y-86823663D01*
X135887144Y-86825908D01*
X135932463Y-86923095D01*
X135942955Y-86992173D01*
X135914435Y-87055957D01*
X135855959Y-87094196D01*
X135820081Y-87099500D01*
X129639500Y-87099500D01*
X129572461Y-87079815D01*
X129526706Y-87027011D01*
X129515500Y-86975500D01*
X129515499Y-85462129D01*
X129515498Y-85462123D01*
X129515497Y-85462116D01*
X129509091Y-85402517D01*
X129458796Y-85267669D01*
X129381421Y-85164309D01*
X129357004Y-85098848D01*
X129371855Y-85030575D01*
X129381416Y-85015696D01*
X129458796Y-84912331D01*
X129509091Y-84777483D01*
X129515500Y-84717873D01*
X129515499Y-82922128D01*
X129509091Y-82862517D01*
X129458796Y-82727669D01*
X129381421Y-82624309D01*
X129357004Y-82558848D01*
X129371855Y-82490575D01*
X129381416Y-82475696D01*
X129458796Y-82372331D01*
X129509091Y-82237483D01*
X129515500Y-82177873D01*
X129515499Y-80382128D01*
X129509091Y-80322517D01*
X129458796Y-80187669D01*
X129381109Y-80083893D01*
X129356692Y-80018430D01*
X129371543Y-79950157D01*
X129381110Y-79935271D01*
X129458352Y-79832089D01*
X129458354Y-79832086D01*
X129508596Y-79697379D01*
X129508598Y-79697372D01*
X129514999Y-79637844D01*
X129515000Y-79637827D01*
X129515000Y-78990000D01*
X126810572Y-78990000D01*
X126833682Y-78954040D01*
X126875000Y-78813327D01*
X126875000Y-78666673D01*
X126833682Y-78525960D01*
X126810572Y-78490000D01*
X129515000Y-78490000D01*
X129515000Y-77842172D01*
X129514999Y-77842155D01*
X129508598Y-77782627D01*
X129508596Y-77782620D01*
X129458354Y-77647913D01*
X129458352Y-77647910D01*
X129381110Y-77544729D01*
X129356692Y-77479265D01*
X129371543Y-77410992D01*
X129381105Y-77396111D01*
X129458796Y-77292331D01*
X129509091Y-77157483D01*
X129515500Y-77097873D01*
X129515500Y-76949500D01*
X129535185Y-76882461D01*
X129587989Y-76836706D01*
X129639500Y-76825500D01*
X135172257Y-76825500D01*
X135187877Y-76827224D01*
X135187904Y-76826939D01*
X135195660Y-76827671D01*
X135195667Y-76827673D01*
X135262873Y-76825561D01*
X135266768Y-76825500D01*
X135294346Y-76825500D01*
X135294350Y-76825500D01*
X135298324Y-76824997D01*
X135309963Y-76824080D01*
X135353627Y-76822709D01*
X135372869Y-76817117D01*
X135391912Y-76813174D01*
X135411792Y-76810664D01*
X135452401Y-76794585D01*
X135463444Y-76790803D01*
X135505390Y-76778618D01*
X135522629Y-76768422D01*
X135540103Y-76759862D01*
X135558727Y-76752488D01*
X135558727Y-76752487D01*
X135558732Y-76752486D01*
X135594083Y-76726800D01*
X135603814Y-76720408D01*
X135641420Y-76698170D01*
X135655589Y-76683999D01*
X135670379Y-76671368D01*
X135686587Y-76659594D01*
X135714438Y-76625926D01*
X135722279Y-76617309D01*
X157033989Y-55305600D01*
X157095310Y-55272117D01*
X157153757Y-55273507D01*
X157246649Y-55298398D01*
X157433329Y-55314730D01*
X157479999Y-55318814D01*
X157480000Y-55318814D01*
X157480001Y-55318814D01*
X157518891Y-55315411D01*
X157713351Y-55298398D01*
X157939611Y-55237772D01*
X158151907Y-55138777D01*
X158343787Y-55004421D01*
X158509421Y-54838787D01*
X158643777Y-54646907D01*
X158742772Y-54434611D01*
X158803398Y-54208351D01*
X158823814Y-53975000D01*
X158823181Y-53967770D01*
X158807322Y-53786497D01*
X158803398Y-53741649D01*
X158754591Y-53559498D01*
X158756254Y-53489650D01*
X158795416Y-53431787D01*
X158859645Y-53404283D01*
X158863517Y-53403882D01*
X158983351Y-53393398D01*
X159209611Y-53332772D01*
X159421907Y-53233777D01*
X159613787Y-53099421D01*
X159779421Y-52933787D01*
X159913777Y-52741907D01*
X160012772Y-52529611D01*
X160073398Y-52303351D01*
X160093814Y-52070000D01*
X160093181Y-52062770D01*
X160084520Y-51963776D01*
X160073398Y-51836649D01*
X160020163Y-51637972D01*
X160012774Y-51610396D01*
X160012773Y-51610395D01*
X160012772Y-51610389D01*
X159913777Y-51398093D01*
X159779421Y-51206213D01*
X159613787Y-51040579D01*
X159421907Y-50906223D01*
X159209611Y-50807228D01*
X159209607Y-50807227D01*
X159209603Y-50807225D01*
X158983356Y-50746603D01*
X158983346Y-50746601D01*
X158750001Y-50726186D01*
X158749999Y-50726186D01*
X158516653Y-50746601D01*
X158516643Y-50746603D01*
X158290396Y-50807225D01*
X158290389Y-50807227D01*
X158290389Y-50807228D01*
X158078093Y-50906223D01*
X157886213Y-51040579D01*
X157886211Y-51040580D01*
X157886208Y-51040583D01*
X157720583Y-51206208D01*
X157720580Y-51206211D01*
X157720579Y-51206213D01*
X157586223Y-51398093D01*
X157583118Y-51402528D01*
X157581819Y-51401618D01*
X157536505Y-51444807D01*
X157467895Y-51458015D01*
X157403036Y-51432033D01*
X157377224Y-51402234D01*
X157376447Y-51402779D01*
X157316453Y-51317099D01*
X157316453Y-51317098D01*
X156613547Y-52020004D01*
X156601327Y-51942850D01*
X156542883Y-51828146D01*
X156451854Y-51737117D01*
X156337150Y-51678673D01*
X156259994Y-51666452D01*
X156962900Y-50963546D01*
X156962899Y-50963545D01*
X156881656Y-50906658D01*
X156881654Y-50906657D01*
X156669441Y-50807701D01*
X156669432Y-50807697D01*
X156443268Y-50747097D01*
X156443258Y-50747095D01*
X156210002Y-50726688D01*
X156209998Y-50726688D01*
X155976741Y-50747095D01*
X155976731Y-50747097D01*
X155750567Y-50807697D01*
X155750558Y-50807701D01*
X155538341Y-50906659D01*
X155457099Y-50963544D01*
X155457098Y-50963545D01*
X156160006Y-51666452D01*
X156082850Y-51678673D01*
X155968146Y-51737117D01*
X155877117Y-51828146D01*
X155818673Y-51942850D01*
X155806452Y-52020005D01*
X155103545Y-51317098D01*
X155103544Y-51317099D01*
X155046659Y-51398341D01*
X154947701Y-51610558D01*
X154947697Y-51610567D01*
X154887097Y-51836731D01*
X154887095Y-51836741D01*
X154866688Y-52069998D01*
X154866688Y-52070001D01*
X154887095Y-52303258D01*
X154887097Y-52303268D01*
X154947697Y-52529432D01*
X154947701Y-52529441D01*
X155046657Y-52741654D01*
X155046658Y-52741656D01*
X155103545Y-52822899D01*
X155103546Y-52822900D01*
X155806452Y-52119993D01*
X155818673Y-52197150D01*
X155877117Y-52311854D01*
X155968146Y-52402883D01*
X156082850Y-52461327D01*
X156160005Y-52473547D01*
X155457098Y-53176453D01*
X155538343Y-53233341D01*
X155538345Y-53233342D01*
X155750558Y-53332298D01*
X155750567Y-53332302D01*
X155976731Y-53392902D01*
X155976741Y-53392904D01*
X156096571Y-53403388D01*
X156161640Y-53428840D01*
X156202619Y-53485431D01*
X156206497Y-53555193D01*
X156205539Y-53559009D01*
X156156603Y-53741643D01*
X156156601Y-53741653D01*
X156136186Y-53974999D01*
X156136186Y-53975000D01*
X156156601Y-54208346D01*
X156156603Y-54208356D01*
X156181490Y-54301237D01*
X156179827Y-54371087D01*
X156149396Y-54421011D01*
X135032228Y-75538181D01*
X134970905Y-75571666D01*
X134944547Y-75574500D01*
X129639499Y-75574500D01*
X129572460Y-75554815D01*
X129526705Y-75502011D01*
X129515499Y-75450500D01*
X129515499Y-75302129D01*
X129515498Y-75302123D01*
X129515497Y-75302116D01*
X129509091Y-75242517D01*
X129458796Y-75107669D01*
X129381421Y-75004309D01*
X129357004Y-74938848D01*
X129371855Y-74870575D01*
X129381416Y-74855696D01*
X129458796Y-74752331D01*
X129509091Y-74617483D01*
X129515500Y-74557873D01*
X129515499Y-72762128D01*
X129509091Y-72702517D01*
X129458796Y-72567669D01*
X129381421Y-72464309D01*
X129357004Y-72398848D01*
X129371855Y-72330575D01*
X129381416Y-72315696D01*
X129458796Y-72212331D01*
X129509091Y-72077483D01*
X129515500Y-72017873D01*
X129515499Y-70222128D01*
X129509091Y-70162517D01*
X129458796Y-70027669D01*
X129381421Y-69924309D01*
X129357004Y-69858848D01*
X129371855Y-69790575D01*
X129381416Y-69775696D01*
X129458796Y-69672331D01*
X129509091Y-69537483D01*
X129515500Y-69477873D01*
X129515499Y-67682128D01*
X129509091Y-67622517D01*
X129458796Y-67487669D01*
X129381109Y-67383893D01*
X129356692Y-67318430D01*
X129371543Y-67250157D01*
X129381110Y-67235271D01*
X129458352Y-67132089D01*
X129458354Y-67132086D01*
X129508596Y-66997379D01*
X129508598Y-66997372D01*
X129514999Y-66937844D01*
X129515000Y-66937827D01*
X129515000Y-66290000D01*
X126810572Y-66290000D01*
X126833682Y-66254040D01*
X126875000Y-66113327D01*
X126875000Y-65966673D01*
X126833682Y-65825960D01*
X126810572Y-65790000D01*
X129515000Y-65790000D01*
X129515000Y-65142172D01*
X129514999Y-65142155D01*
X129508598Y-65082627D01*
X129508596Y-65082620D01*
X129458354Y-64947913D01*
X129458352Y-64947910D01*
X129381110Y-64844729D01*
X129356692Y-64779265D01*
X129371543Y-64710992D01*
X129381105Y-64696111D01*
X129458796Y-64592331D01*
X129509091Y-64457483D01*
X129515500Y-64397873D01*
X129515499Y-62602128D01*
X129509091Y-62542517D01*
X129458796Y-62407669D01*
X129381421Y-62304309D01*
X129357004Y-62238848D01*
X129371855Y-62170575D01*
X129381416Y-62155696D01*
X129458796Y-62052331D01*
X129509091Y-61917483D01*
X129515500Y-61857873D01*
X129515499Y-60062128D01*
X129509091Y-60002517D01*
X129458796Y-59867669D01*
X129381421Y-59764309D01*
X129357004Y-59698848D01*
X129371855Y-59630575D01*
X129381416Y-59615696D01*
X129458796Y-59512331D01*
X129509091Y-59377483D01*
X129515500Y-59317873D01*
X129515499Y-57522128D01*
X129509091Y-57462517D01*
X129470221Y-57358302D01*
X129458797Y-57327671D01*
X129458795Y-57327668D01*
X129381421Y-57224309D01*
X129357004Y-57158848D01*
X129371855Y-57090575D01*
X129381416Y-57075696D01*
X129458796Y-56972331D01*
X129509091Y-56837483D01*
X129515500Y-56777873D01*
X129515499Y-54982128D01*
X129509091Y-54922517D01*
X129477863Y-54838791D01*
X129458797Y-54787671D01*
X129458795Y-54787668D01*
X129381109Y-54683893D01*
X129356692Y-54618430D01*
X129371543Y-54550157D01*
X129381110Y-54535271D01*
X129458352Y-54432089D01*
X129458354Y-54432086D01*
X129508596Y-54297379D01*
X129508598Y-54297372D01*
X129514999Y-54237844D01*
X129515000Y-54237827D01*
X129515000Y-53590000D01*
X126810572Y-53590000D01*
X126833682Y-53554040D01*
X126875000Y-53413327D01*
X126875000Y-53266673D01*
X126833682Y-53125960D01*
X126810572Y-53090000D01*
X129515000Y-53090000D01*
X129515000Y-52442172D01*
X129514999Y-52442155D01*
X129508598Y-52382627D01*
X129508596Y-52382620D01*
X129458354Y-52247913D01*
X129458352Y-52247910D01*
X129381110Y-52144729D01*
X129356692Y-52079265D01*
X129371543Y-52010992D01*
X129381105Y-51996111D01*
X129458796Y-51892331D01*
X129469861Y-51862663D01*
X129511729Y-51806730D01*
X129577193Y-51782311D01*
X129645466Y-51797161D01*
X129673724Y-51818314D01*
X134075675Y-56220265D01*
X134109160Y-56281588D01*
X134104176Y-56351280D01*
X134062304Y-56407213D01*
X134040401Y-56420327D01*
X133967268Y-56454430D01*
X133967265Y-56454432D01*
X133780858Y-56584954D01*
X133619954Y-56745858D01*
X133489433Y-56932264D01*
X133489432Y-56932266D01*
X133489315Y-56932518D01*
X133462106Y-56990867D01*
X133415933Y-57043306D01*
X133348739Y-57062457D01*
X133281858Y-57042241D01*
X133237342Y-56990865D01*
X133210135Y-56932520D01*
X133210134Y-56932518D01*
X133079657Y-56746179D01*
X132918820Y-56585342D01*
X132732482Y-56454865D01*
X132526328Y-56358734D01*
X132330000Y-56306127D01*
X132330000Y-57349498D01*
X132222315Y-57300320D01*
X132115763Y-57285000D01*
X132044237Y-57285000D01*
X131937685Y-57300320D01*
X131830000Y-57349498D01*
X131830000Y-56306127D01*
X131633671Y-56358734D01*
X131427517Y-56454865D01*
X131241179Y-56585342D01*
X131080342Y-56746179D01*
X130949865Y-56932517D01*
X130853734Y-57138673D01*
X130853730Y-57138682D01*
X130794860Y-57358389D01*
X130794858Y-57358400D01*
X130780000Y-57528233D01*
X130780000Y-57535000D01*
X131646314Y-57535000D01*
X131620507Y-57575156D01*
X131580000Y-57713111D01*
X131580000Y-57856889D01*
X131620507Y-57994844D01*
X131646314Y-58035000D01*
X130780000Y-58035000D01*
X130780000Y-58041766D01*
X130794858Y-58211599D01*
X130794860Y-58211610D01*
X130853730Y-58431317D01*
X130853734Y-58431326D01*
X130949865Y-58637482D01*
X131080342Y-58823820D01*
X131241179Y-58984657D01*
X131427517Y-59115134D01*
X131633673Y-59211265D01*
X131633682Y-59211269D01*
X131829999Y-59263872D01*
X131830000Y-59263871D01*
X131830000Y-58220501D01*
X131937685Y-58269680D01*
X132044237Y-58285000D01*
X132115763Y-58285000D01*
X132222315Y-58269680D01*
X132330000Y-58220501D01*
X132330000Y-59263872D01*
X132526317Y-59211269D01*
X132526326Y-59211265D01*
X132732482Y-59115134D01*
X132918820Y-58984657D01*
X133079657Y-58823820D01*
X133210132Y-58637484D01*
X133237341Y-58579134D01*
X133283513Y-58526695D01*
X133350707Y-58507542D01*
X133417588Y-58527757D01*
X133462106Y-58579133D01*
X133489431Y-58637732D01*
X133489432Y-58637734D01*
X133619954Y-58824141D01*
X133780858Y-58985045D01*
X133780861Y-58985047D01*
X133967266Y-59115568D01*
X134173504Y-59211739D01*
X134393308Y-59270635D01*
X134555230Y-59284801D01*
X134619998Y-59290468D01*
X134620000Y-59290468D01*
X134620002Y-59290468D01*
X134676673Y-59285509D01*
X134846692Y-59270635D01*
X135066496Y-59211739D01*
X135272734Y-59115568D01*
X135459139Y-58985047D01*
X135620047Y-58824139D01*
X135750568Y-58637734D01*
X135777618Y-58579724D01*
X135823790Y-58527285D01*
X135890983Y-58508133D01*
X135957865Y-58528348D01*
X136002382Y-58579725D01*
X136029429Y-58637728D01*
X136029432Y-58637734D01*
X136159954Y-58824141D01*
X136320858Y-58985045D01*
X136320861Y-58985047D01*
X136507266Y-59115568D01*
X136713504Y-59211739D01*
X136933308Y-59270635D01*
X137095230Y-59284801D01*
X137159998Y-59290468D01*
X137160000Y-59290468D01*
X137160002Y-59290468D01*
X137216673Y-59285509D01*
X137386692Y-59270635D01*
X137606496Y-59211739D01*
X137812734Y-59115568D01*
X137999139Y-58985047D01*
X138160047Y-58824139D01*
X138290568Y-58637734D01*
X138317618Y-58579724D01*
X138363790Y-58527285D01*
X138430983Y-58508133D01*
X138497865Y-58528348D01*
X138542382Y-58579725D01*
X138569429Y-58637728D01*
X138569432Y-58637734D01*
X138699954Y-58824141D01*
X138860858Y-58985045D01*
X138860861Y-58985047D01*
X139047266Y-59115568D01*
X139253504Y-59211739D01*
X139473308Y-59270635D01*
X139635230Y-59284801D01*
X139699998Y-59290468D01*
X139700000Y-59290468D01*
X139700002Y-59290468D01*
X139756673Y-59285509D01*
X139926692Y-59270635D01*
X140146496Y-59211739D01*
X140352734Y-59115568D01*
X140539139Y-58985047D01*
X140700047Y-58824139D01*
X140830568Y-58637734D01*
X140926739Y-58431496D01*
X140985635Y-58211692D01*
X141000500Y-58041784D01*
X141000500Y-57528216D01*
X140985635Y-57358308D01*
X140926739Y-57138504D01*
X140830568Y-56932266D01*
X140700047Y-56745861D01*
X140700045Y-56745858D01*
X140539141Y-56584954D01*
X140352734Y-56454432D01*
X140352732Y-56454431D01*
X140146497Y-56358261D01*
X140146488Y-56358258D01*
X139926697Y-56299366D01*
X139926693Y-56299365D01*
X139926692Y-56299365D01*
X139926691Y-56299364D01*
X139926686Y-56299364D01*
X139700002Y-56279532D01*
X139699998Y-56279532D01*
X139473313Y-56299364D01*
X139473302Y-56299366D01*
X139248274Y-56359662D01*
X139247673Y-56357422D01*
X139187754Y-56361169D01*
X139127516Y-56327925D01*
X137554003Y-54754412D01*
X137544180Y-54742150D01*
X137543959Y-54742334D01*
X137538986Y-54736322D01*
X137489976Y-54690299D01*
X137487177Y-54687586D01*
X137467677Y-54668085D01*
X137467671Y-54668080D01*
X137464486Y-54665609D01*
X137455634Y-54658048D01*
X137423782Y-54628138D01*
X137423780Y-54628136D01*
X137423777Y-54628135D01*
X137406229Y-54618488D01*
X137389963Y-54607804D01*
X137374132Y-54595524D01*
X137334049Y-54578178D01*
X137323563Y-54573041D01*
X137285294Y-54552003D01*
X137285292Y-54552002D01*
X137265893Y-54547022D01*
X137247481Y-54540718D01*
X137229098Y-54532762D01*
X137229092Y-54532760D01*
X137185960Y-54525929D01*
X137174522Y-54523561D01*
X137132220Y-54512700D01*
X137132219Y-54512700D01*
X137112184Y-54512700D01*
X137092786Y-54511173D01*
X137085362Y-54509997D01*
X137073005Y-54508040D01*
X137073004Y-54508040D01*
X137029525Y-54512150D01*
X137017856Y-54512700D01*
X135163652Y-54512700D01*
X135096613Y-54493015D01*
X135075971Y-54476381D01*
X131399591Y-50800001D01*
X133314532Y-50800001D01*
X133334364Y-51026686D01*
X133334366Y-51026697D01*
X133393258Y-51246488D01*
X133393261Y-51246497D01*
X133489431Y-51452732D01*
X133489432Y-51452734D01*
X133619954Y-51639141D01*
X133780858Y-51800045D01*
X133792202Y-51807988D01*
X133967266Y-51930568D01*
X134173504Y-52026739D01*
X134173509Y-52026740D01*
X134173511Y-52026741D01*
X134202588Y-52034532D01*
X134393308Y-52085635D01*
X134555230Y-52099801D01*
X134619998Y-52105468D01*
X134620000Y-52105468D01*
X134620002Y-52105468D01*
X134676673Y-52100509D01*
X134846692Y-52085635D01*
X135066496Y-52026739D01*
X135272734Y-51930568D01*
X135459139Y-51800047D01*
X135620047Y-51639139D01*
X135750568Y-51452734D01*
X135846739Y-51246496D01*
X135905635Y-51026692D01*
X135925468Y-50800000D01*
X137086186Y-50800000D01*
X137106601Y-51033346D01*
X137106603Y-51033356D01*
X137167225Y-51259603D01*
X137167227Y-51259607D01*
X137167228Y-51259611D01*
X137266223Y-51471907D01*
X137400579Y-51663787D01*
X137566213Y-51829421D01*
X137758093Y-51963777D01*
X137970389Y-52062772D01*
X137970395Y-52062773D01*
X137970396Y-52062774D01*
X137997364Y-52070000D01*
X138196649Y-52123398D01*
X138316441Y-52133878D01*
X138381509Y-52159330D01*
X138422488Y-52215921D01*
X138426366Y-52285683D01*
X138425408Y-52289499D01*
X138376603Y-52471643D01*
X138376601Y-52471653D01*
X138356186Y-52704999D01*
X138356186Y-52705000D01*
X138376601Y-52938346D01*
X138376603Y-52938356D01*
X138437225Y-53164603D01*
X138437227Y-53164607D01*
X138437228Y-53164611D01*
X138536223Y-53376907D01*
X138670579Y-53568787D01*
X138836213Y-53734421D01*
X139028093Y-53868777D01*
X139240389Y-53967772D01*
X139240395Y-53967773D01*
X139240396Y-53967774D01*
X139267364Y-53975000D01*
X139466649Y-54028398D01*
X139653329Y-54044730D01*
X139699999Y-54048814D01*
X139700000Y-54048814D01*
X139700001Y-54048814D01*
X139738891Y-54045411D01*
X139933351Y-54028398D01*
X140159611Y-53967772D01*
X140371907Y-53868777D01*
X140563787Y-53734421D01*
X140729421Y-53568787D01*
X140863777Y-53376907D01*
X140880987Y-53340001D01*
X143474532Y-53340001D01*
X143494364Y-53566686D01*
X143494366Y-53566697D01*
X143553258Y-53786488D01*
X143553261Y-53786497D01*
X143649431Y-53992732D01*
X143649432Y-53992734D01*
X143779954Y-54179141D01*
X143940858Y-54340045D01*
X143940861Y-54340047D01*
X144127266Y-54470568D01*
X144333504Y-54566739D01*
X144333509Y-54566740D01*
X144333511Y-54566741D01*
X144367537Y-54575858D01*
X144553308Y-54625635D01*
X144715230Y-54639801D01*
X144779998Y-54645468D01*
X144780000Y-54645468D01*
X144780002Y-54645468D01*
X144836673Y-54640509D01*
X145006692Y-54625635D01*
X145226496Y-54566739D01*
X145432734Y-54470568D01*
X145619139Y-54340047D01*
X145780047Y-54179139D01*
X145910568Y-53992734D01*
X146006739Y-53786496D01*
X146065635Y-53566692D01*
X146085468Y-53340000D01*
X146084835Y-53332770D01*
X146076175Y-53233777D01*
X146065635Y-53113308D01*
X146006739Y-52893504D01*
X145910568Y-52687266D01*
X145812839Y-52547693D01*
X145780045Y-52500858D01*
X145619141Y-52339954D01*
X145432734Y-52209432D01*
X145432732Y-52209431D01*
X145226497Y-52113261D01*
X145226488Y-52113258D01*
X145006697Y-52054366D01*
X145006693Y-52054365D01*
X145006692Y-52054365D01*
X145006691Y-52054364D01*
X145006686Y-52054364D01*
X144780002Y-52034532D01*
X144779998Y-52034532D01*
X144553313Y-52054364D01*
X144553302Y-52054366D01*
X144333511Y-52113258D01*
X144333502Y-52113261D01*
X144127267Y-52209431D01*
X144127265Y-52209432D01*
X143940858Y-52339954D01*
X143779954Y-52500858D01*
X143649432Y-52687265D01*
X143649431Y-52687267D01*
X143553261Y-52893502D01*
X143553258Y-52893511D01*
X143494366Y-53113302D01*
X143494364Y-53113313D01*
X143474532Y-53339998D01*
X143474532Y-53340001D01*
X140880987Y-53340001D01*
X140962772Y-53164611D01*
X141023398Y-52938351D01*
X141043814Y-52705000D01*
X141023398Y-52471649D01*
X140974591Y-52289498D01*
X140976254Y-52219650D01*
X141015416Y-52161787D01*
X141079645Y-52134283D01*
X141083517Y-52133882D01*
X141203351Y-52123398D01*
X141429611Y-52062772D01*
X141641907Y-51963777D01*
X141833787Y-51829421D01*
X141999421Y-51663787D01*
X142133777Y-51471907D01*
X142232772Y-51259611D01*
X142293398Y-51033351D01*
X142313814Y-50800000D01*
X142313181Y-50792770D01*
X142309126Y-50746421D01*
X142293398Y-50566649D01*
X142236286Y-50353502D01*
X142232774Y-50340396D01*
X142232773Y-50340395D01*
X142232772Y-50340389D01*
X142133777Y-50128093D01*
X141999421Y-49936213D01*
X141833787Y-49770579D01*
X141641907Y-49636223D01*
X141429611Y-49537228D01*
X141429607Y-49537227D01*
X141429603Y-49537225D01*
X141402639Y-49530000D01*
X147881186Y-49530000D01*
X147901601Y-49763346D01*
X147901603Y-49763356D01*
X147962225Y-49989603D01*
X147962227Y-49989607D01*
X147962228Y-49989611D01*
X148061223Y-50201907D01*
X148195579Y-50393787D01*
X148361213Y-50559421D01*
X148553093Y-50693777D01*
X148765389Y-50792772D01*
X148765395Y-50792773D01*
X148765396Y-50792774D01*
X148792364Y-50800000D01*
X148991649Y-50853398D01*
X149178329Y-50869730D01*
X149224999Y-50873814D01*
X149225000Y-50873814D01*
X149225001Y-50873814D01*
X149263891Y-50870411D01*
X149458351Y-50853398D01*
X149684611Y-50792772D01*
X149896907Y-50693777D01*
X150088787Y-50559421D01*
X150254421Y-50393787D01*
X150388777Y-50201907D01*
X150487772Y-49989611D01*
X150548398Y-49763351D01*
X150558878Y-49643556D01*
X150584330Y-49578490D01*
X150640921Y-49537511D01*
X150710683Y-49533633D01*
X150714472Y-49534584D01*
X150896649Y-49583398D01*
X151083329Y-49599730D01*
X151129999Y-49603814D01*
X151130000Y-49603814D01*
X151130001Y-49603814D01*
X151168891Y-49600411D01*
X151363351Y-49583398D01*
X151589611Y-49522772D01*
X151801907Y-49423777D01*
X151993787Y-49289421D01*
X152159421Y-49123787D01*
X152293777Y-48931907D01*
X152392772Y-48719611D01*
X152453398Y-48493351D01*
X152473814Y-48260000D01*
X152453398Y-48026649D01*
X152392772Y-47800389D01*
X152293777Y-47588093D01*
X152159421Y-47396213D01*
X151993787Y-47230579D01*
X151801907Y-47096223D01*
X151589611Y-46997228D01*
X151589607Y-46997227D01*
X151589603Y-46997225D01*
X151363356Y-46936603D01*
X151363346Y-46936601D01*
X151130001Y-46916186D01*
X151129999Y-46916186D01*
X150896653Y-46936601D01*
X150896643Y-46936603D01*
X150714499Y-46985408D01*
X150644649Y-46983745D01*
X150586787Y-46944582D01*
X150559283Y-46880354D01*
X150558881Y-46876476D01*
X150548398Y-46756649D01*
X150487772Y-46530389D01*
X150388777Y-46318093D01*
X150254421Y-46126213D01*
X150088787Y-45960579D01*
X149896907Y-45826223D01*
X149684611Y-45727228D01*
X149684607Y-45727227D01*
X149684603Y-45727225D01*
X149458356Y-45666603D01*
X149458346Y-45666601D01*
X149225001Y-45646186D01*
X149224999Y-45646186D01*
X148991653Y-45666601D01*
X148991643Y-45666603D01*
X148765396Y-45727225D01*
X148765389Y-45727227D01*
X148765389Y-45727228D01*
X148553093Y-45826223D01*
X148361213Y-45960579D01*
X148361211Y-45960580D01*
X148361208Y-45960583D01*
X148195583Y-46126208D01*
X148061223Y-46318093D01*
X147962229Y-46530387D01*
X147962225Y-46530396D01*
X147901603Y-46756643D01*
X147901601Y-46756653D01*
X147881186Y-46989999D01*
X147881186Y-46990000D01*
X147901601Y-47223346D01*
X147901603Y-47223356D01*
X147962225Y-47449603D01*
X147962227Y-47449607D01*
X147962228Y-47449611D01*
X148061223Y-47661907D01*
X148195579Y-47853787D01*
X148361213Y-48019421D01*
X148553093Y-48153777D01*
X148553094Y-48153777D01*
X148557528Y-48156882D01*
X148556521Y-48158319D01*
X148599297Y-48203190D01*
X148612513Y-48271798D01*
X148586540Y-48336660D01*
X148556953Y-48362297D01*
X148557528Y-48363118D01*
X148553094Y-48366222D01*
X148553093Y-48366223D01*
X148361213Y-48500579D01*
X148361211Y-48500580D01*
X148361208Y-48500583D01*
X148195583Y-48666208D01*
X148195580Y-48666211D01*
X148195579Y-48666213D01*
X148061223Y-48858093D01*
X147975674Y-49041555D01*
X147962229Y-49070387D01*
X147962225Y-49070396D01*
X147901603Y-49296643D01*
X147901601Y-49296653D01*
X147881186Y-49529999D01*
X147881186Y-49530000D01*
X141402639Y-49530000D01*
X141203356Y-49476603D01*
X141203346Y-49476601D01*
X140970001Y-49456186D01*
X140969999Y-49456186D01*
X140736653Y-49476601D01*
X140736643Y-49476603D01*
X140510396Y-49537225D01*
X140510389Y-49537227D01*
X140510389Y-49537228D01*
X140298093Y-49636223D01*
X140106213Y-49770579D01*
X140106211Y-49770580D01*
X140106208Y-49770583D01*
X139940583Y-49936208D01*
X139940580Y-49936211D01*
X139940579Y-49936213D01*
X139903189Y-49989612D01*
X139803118Y-50132528D01*
X139801680Y-50131521D01*
X139756810Y-50174297D01*
X139688202Y-50187513D01*
X139623340Y-50161540D01*
X139597702Y-50131953D01*
X139596882Y-50132528D01*
X139593777Y-50128093D01*
X139459421Y-49936213D01*
X139293787Y-49770579D01*
X139101907Y-49636223D01*
X138889611Y-49537228D01*
X138889607Y-49537227D01*
X138889603Y-49537225D01*
X138663356Y-49476603D01*
X138663346Y-49476601D01*
X138430001Y-49456186D01*
X138429999Y-49456186D01*
X138196653Y-49476601D01*
X138196643Y-49476603D01*
X137970396Y-49537225D01*
X137970389Y-49537227D01*
X137970389Y-49537228D01*
X137758093Y-49636223D01*
X137566213Y-49770579D01*
X137566211Y-49770580D01*
X137566208Y-49770583D01*
X137400583Y-49936208D01*
X137400580Y-49936211D01*
X137400579Y-49936213D01*
X137266223Y-50128093D01*
X137179678Y-50313691D01*
X137167229Y-50340387D01*
X137167225Y-50340396D01*
X137106603Y-50566643D01*
X137106601Y-50566653D01*
X137086186Y-50799999D01*
X137086186Y-50800000D01*
X135925468Y-50800000D01*
X135924835Y-50792770D01*
X135916175Y-50693777D01*
X135905635Y-50573308D01*
X135846739Y-50353504D01*
X135750568Y-50147266D01*
X135652839Y-50007693D01*
X135620045Y-49960858D01*
X135459141Y-49799954D01*
X135272734Y-49669432D01*
X135272732Y-49669431D01*
X135066497Y-49573261D01*
X135066488Y-49573258D01*
X134846697Y-49514366D01*
X134846693Y-49514365D01*
X134846692Y-49514365D01*
X134846691Y-49514364D01*
X134846686Y-49514364D01*
X134620002Y-49494532D01*
X134619998Y-49494532D01*
X134393313Y-49514364D01*
X134393302Y-49514366D01*
X134173511Y-49573258D01*
X134173502Y-49573261D01*
X133967267Y-49669431D01*
X133967265Y-49669432D01*
X133780858Y-49799954D01*
X133619954Y-49960858D01*
X133489432Y-50147265D01*
X133489431Y-50147267D01*
X133393261Y-50353502D01*
X133393258Y-50353511D01*
X133334366Y-50573302D01*
X133334364Y-50573313D01*
X133314532Y-50799998D01*
X133314532Y-50800001D01*
X131399591Y-50800001D01*
X129551818Y-48952228D01*
X129518333Y-48890905D01*
X129515499Y-48864547D01*
X129515499Y-47362129D01*
X129515498Y-47362123D01*
X129515497Y-47362116D01*
X129509091Y-47302517D01*
X129506817Y-47296421D01*
X129458797Y-47167671D01*
X129458793Y-47167664D01*
X129372547Y-47052455D01*
X129372544Y-47052452D01*
X129257335Y-46966206D01*
X129257328Y-46966202D01*
X129122482Y-46915908D01*
X129122483Y-46915908D01*
X129062883Y-46909501D01*
X129062881Y-46909500D01*
X129062873Y-46909500D01*
X129062865Y-46909500D01*
X126429385Y-46909500D01*
X126418578Y-46909028D01*
X126365001Y-46904341D01*
X126364997Y-46904341D01*
X126311419Y-46909028D01*
X126300613Y-46909500D01*
X125467129Y-46909500D01*
X125467123Y-46909501D01*
X125407516Y-46915908D01*
X125272671Y-46966202D01*
X125272664Y-46966206D01*
X125157455Y-47052452D01*
X125157452Y-47052455D01*
X125071206Y-47167664D01*
X125071202Y-47167671D01*
X125020908Y-47302517D01*
X125014877Y-47358621D01*
X125014501Y-47362123D01*
X125014500Y-47362135D01*
X125014500Y-48195616D01*
X125014028Y-48206423D01*
X125009341Y-48259997D01*
X125009341Y-48260002D01*
X125014028Y-48313576D01*
X125014500Y-48324383D01*
X125014500Y-49157870D01*
X125014501Y-49157876D01*
X125020908Y-49217483D01*
X125071202Y-49352328D01*
X125071203Y-49352330D01*
X125148578Y-49455689D01*
X125172995Y-49521153D01*
X125158144Y-49589426D01*
X125148578Y-49604309D01*
X125138168Y-49618216D01*
X125071203Y-49707669D01*
X125071202Y-49707671D01*
X125020908Y-49842517D01*
X125014501Y-49902116D01*
X125014501Y-49902123D01*
X125014500Y-49902135D01*
X125014500Y-50735616D01*
X125014028Y-50746423D01*
X125009341Y-50799997D01*
X125009341Y-50800002D01*
X125014028Y-50853576D01*
X125014500Y-50864383D01*
X125014500Y-51697870D01*
X125014501Y-51697876D01*
X125020908Y-51757483D01*
X125071202Y-51892328D01*
X125071206Y-51892335D01*
X125148889Y-51996105D01*
X125173307Y-52061569D01*
X125158456Y-52129842D01*
X125148890Y-52144727D01*
X125071647Y-52247910D01*
X125071645Y-52247913D01*
X125021403Y-52382620D01*
X125021401Y-52382627D01*
X125015000Y-52442155D01*
X125015000Y-53090000D01*
X125919428Y-53090000D01*
X125896318Y-53125960D01*
X125855000Y-53266673D01*
X125855000Y-53413327D01*
X125896318Y-53554040D01*
X125919428Y-53590000D01*
X125015000Y-53590000D01*
X125015000Y-54237844D01*
X125021401Y-54297372D01*
X125021403Y-54297379D01*
X125071645Y-54432086D01*
X125071646Y-54432088D01*
X125148890Y-54535272D01*
X125173307Y-54600736D01*
X125158456Y-54669009D01*
X125148890Y-54683894D01*
X125071204Y-54787669D01*
X125071202Y-54787671D01*
X125020908Y-54922517D01*
X125014501Y-54982116D01*
X125014501Y-54982123D01*
X125014500Y-54982135D01*
X125014500Y-55815616D01*
X125014028Y-55826423D01*
X125009341Y-55879997D01*
X125009341Y-55880002D01*
X125014028Y-55933576D01*
X125014500Y-55944383D01*
X125014500Y-56294547D01*
X124994815Y-56361586D01*
X124978181Y-56382228D01*
X119822228Y-61538181D01*
X119760905Y-61571666D01*
X119734547Y-61574500D01*
X110059500Y-61574500D01*
X109992461Y-61554815D01*
X109946706Y-61502011D01*
X109935500Y-61450500D01*
X109935499Y-61024385D01*
X109935971Y-61013576D01*
X109940659Y-60960000D01*
X109940659Y-60959999D01*
X109935971Y-60906421D01*
X109935499Y-60895613D01*
X109935499Y-60062129D01*
X109935498Y-60062123D01*
X109935497Y-60062116D01*
X109929091Y-60002517D01*
X109878796Y-59867669D01*
X109801421Y-59764309D01*
X109777004Y-59698848D01*
X109791855Y-59630575D01*
X109801416Y-59615696D01*
X109878796Y-59512331D01*
X109929091Y-59377483D01*
X109935500Y-59317873D01*
X109935499Y-58484383D01*
X109935971Y-58473576D01*
X109940659Y-58420000D01*
X109940659Y-58419999D01*
X109935971Y-58366421D01*
X109935499Y-58355613D01*
X109935499Y-57522129D01*
X109935498Y-57522123D01*
X109935497Y-57522116D01*
X109929091Y-57462517D01*
X109890221Y-57358302D01*
X109878797Y-57327671D01*
X109878795Y-57327668D01*
X109801421Y-57224309D01*
X109777004Y-57158848D01*
X109791855Y-57090575D01*
X109801416Y-57075696D01*
X109878796Y-56972331D01*
X109929091Y-56837483D01*
X109935500Y-56777873D01*
X109935499Y-55944383D01*
X109935971Y-55933576D01*
X109940659Y-55880000D01*
X109940659Y-55879999D01*
X109935971Y-55826421D01*
X109935499Y-55815613D01*
X109935499Y-54982129D01*
X109935498Y-54982123D01*
X109935497Y-54982116D01*
X109929091Y-54922517D01*
X109897863Y-54838791D01*
X109878797Y-54787671D01*
X109878795Y-54787668D01*
X109801109Y-54683893D01*
X109776692Y-54618430D01*
X109791543Y-54550157D01*
X109801110Y-54535271D01*
X109878352Y-54432089D01*
X109878354Y-54432086D01*
X109928596Y-54297379D01*
X109928598Y-54297372D01*
X109934999Y-54237844D01*
X109935000Y-54237827D01*
X109935000Y-53590000D01*
X109030572Y-53590000D01*
X109053682Y-53554040D01*
X109095000Y-53413327D01*
X109095000Y-53266673D01*
X109053682Y-53125960D01*
X109030572Y-53090000D01*
X109935000Y-53090000D01*
X109935000Y-52442172D01*
X109934999Y-52442155D01*
X109928598Y-52382627D01*
X109928596Y-52382620D01*
X109878354Y-52247913D01*
X109878352Y-52247910D01*
X109801110Y-52144729D01*
X109776692Y-52079265D01*
X109791543Y-52010992D01*
X109801105Y-51996111D01*
X109878796Y-51892331D01*
X109929091Y-51757483D01*
X109935500Y-51697873D01*
X109935500Y-51420003D01*
X113794723Y-51420003D01*
X113796331Y-51438389D01*
X113796678Y-51454752D01*
X113795709Y-51476324D01*
X113795710Y-51476328D01*
X113806444Y-51555576D01*
X113807094Y-51561412D01*
X113813792Y-51637972D01*
X113813795Y-51637989D01*
X113819461Y-51659134D01*
X113822563Y-51674576D01*
X113825923Y-51699380D01*
X113825926Y-51699392D01*
X113849573Y-51772169D01*
X113851417Y-51778393D01*
X113870423Y-51849324D01*
X113870428Y-51849337D01*
X113881135Y-51872300D01*
X113886682Y-51886380D01*
X113895483Y-51913464D01*
X113922557Y-51963777D01*
X113930128Y-51977845D01*
X113933316Y-51984200D01*
X113962897Y-52047638D01*
X113962898Y-52047639D01*
X113979410Y-52071221D01*
X113987025Y-52083578D01*
X114002146Y-52111678D01*
X114002152Y-52111687D01*
X114045587Y-52166153D01*
X114050214Y-52172340D01*
X114075510Y-52208465D01*
X114088402Y-52226877D01*
X114088405Y-52226880D01*
X114111186Y-52249661D01*
X114120452Y-52260029D01*
X114142492Y-52287666D01*
X114192387Y-52331259D01*
X114198484Y-52336959D01*
X114243116Y-52381592D01*
X114243121Y-52381596D01*
X114243123Y-52381598D01*
X114244583Y-52382620D01*
X114272332Y-52402050D01*
X114282793Y-52410244D01*
X114312004Y-52435765D01*
X114312013Y-52435771D01*
X114365924Y-52467981D01*
X114373449Y-52472854D01*
X114422359Y-52507101D01*
X114422365Y-52507104D01*
X114457798Y-52523627D01*
X114468992Y-52529561D01*
X114505234Y-52551214D01*
X114505236Y-52551215D01*
X114550728Y-52568288D01*
X114560838Y-52572082D01*
X114569669Y-52575792D01*
X114613300Y-52596138D01*
X114620670Y-52599575D01*
X114620675Y-52599577D01*
X114661756Y-52610584D01*
X114673227Y-52614262D01*
X114715976Y-52630307D01*
X114771047Y-52640301D01*
X114780965Y-52642526D01*
X114832023Y-52656207D01*
X114877829Y-52660214D01*
X114889121Y-52661728D01*
X114937453Y-52670500D01*
X114989985Y-52670500D01*
X115000792Y-52670972D01*
X115049998Y-52675277D01*
X115050000Y-52675277D01*
X115100369Y-52670870D01*
X115105600Y-52670524D01*
X115106122Y-52670500D01*
X115106155Y-52670500D01*
X115159217Y-52665724D01*
X115160173Y-52665638D01*
X115160180Y-52665724D01*
X115160477Y-52665611D01*
X115267977Y-52656207D01*
X115267982Y-52656205D01*
X115270000Y-52656029D01*
X115272205Y-52655736D01*
X115274182Y-52655377D01*
X115274188Y-52655377D01*
X115377684Y-52626812D01*
X115378350Y-52626631D01*
X115479330Y-52599575D01*
X115479337Y-52599571D01*
X115483913Y-52597906D01*
X115489449Y-52596138D01*
X115491159Y-52595495D01*
X115491170Y-52595493D01*
X115584890Y-52550359D01*
X115586016Y-52549825D01*
X115677639Y-52507102D01*
X115677640Y-52507101D01*
X115682327Y-52504395D01*
X115682400Y-52504522D01*
X115693164Y-52498218D01*
X115693973Y-52497829D01*
X115775325Y-52438721D01*
X115776993Y-52437531D01*
X115856877Y-52381598D01*
X115857747Y-52380727D01*
X115872550Y-52368084D01*
X115876078Y-52365522D01*
X115943237Y-52295277D01*
X115945098Y-52293376D01*
X116011592Y-52226883D01*
X116011592Y-52226882D01*
X116011598Y-52226877D01*
X116014285Y-52223039D01*
X116026239Y-52208465D01*
X116031629Y-52202828D01*
X116031628Y-52202828D01*
X116031632Y-52202825D01*
X116083266Y-52124600D01*
X116085083Y-52121928D01*
X116137102Y-52047639D01*
X116140543Y-52040259D01*
X116149432Y-52024364D01*
X116155635Y-52014968D01*
X116191114Y-51931958D01*
X116192713Y-51928377D01*
X116229575Y-51849330D01*
X116232570Y-51838148D01*
X116238325Y-51821505D01*
X116239689Y-51818314D01*
X116244103Y-51807988D01*
X116245916Y-51800047D01*
X116263417Y-51723366D01*
X116264533Y-51718863D01*
X116265181Y-51716446D01*
X116286207Y-51637977D01*
X116287515Y-51623015D01*
X116290150Y-51606237D01*
X116294191Y-51588537D01*
X116297934Y-51505183D01*
X116298274Y-51500036D01*
X116305277Y-51420003D01*
X118644723Y-51420003D01*
X118646331Y-51438389D01*
X118646678Y-51454752D01*
X118645709Y-51476324D01*
X118645710Y-51476328D01*
X118656444Y-51555576D01*
X118657094Y-51561412D01*
X118663792Y-51637972D01*
X118663795Y-51637989D01*
X118669461Y-51659134D01*
X118672563Y-51674576D01*
X118675923Y-51699380D01*
X118675926Y-51699392D01*
X118699573Y-51772169D01*
X118701417Y-51778393D01*
X118720423Y-51849324D01*
X118720428Y-51849337D01*
X118731135Y-51872300D01*
X118736682Y-51886380D01*
X118745483Y-51913464D01*
X118772557Y-51963777D01*
X118780128Y-51977845D01*
X118783316Y-51984200D01*
X118812897Y-52047638D01*
X118812898Y-52047639D01*
X118829410Y-52071221D01*
X118837025Y-52083578D01*
X118852146Y-52111678D01*
X118852152Y-52111687D01*
X118895587Y-52166153D01*
X118900214Y-52172340D01*
X118925510Y-52208465D01*
X118938402Y-52226877D01*
X118938405Y-52226880D01*
X118961186Y-52249661D01*
X118970452Y-52260029D01*
X118992492Y-52287666D01*
X119042387Y-52331259D01*
X119048484Y-52336959D01*
X119093116Y-52381592D01*
X119093121Y-52381596D01*
X119093123Y-52381598D01*
X119094583Y-52382620D01*
X119122332Y-52402050D01*
X119132793Y-52410244D01*
X119162004Y-52435765D01*
X119162013Y-52435771D01*
X119215924Y-52467981D01*
X119223449Y-52472854D01*
X119272359Y-52507101D01*
X119272365Y-52507104D01*
X119307798Y-52523627D01*
X119318992Y-52529561D01*
X119355234Y-52551214D01*
X119355236Y-52551215D01*
X119400728Y-52568288D01*
X119410838Y-52572082D01*
X119419669Y-52575792D01*
X119463300Y-52596138D01*
X119470670Y-52599575D01*
X119470675Y-52599577D01*
X119511756Y-52610584D01*
X119523227Y-52614262D01*
X119565976Y-52630307D01*
X119621047Y-52640301D01*
X119630965Y-52642526D01*
X119682023Y-52656207D01*
X119727829Y-52660214D01*
X119739121Y-52661728D01*
X119787453Y-52670500D01*
X119839985Y-52670500D01*
X119850792Y-52670972D01*
X119899998Y-52675277D01*
X119900000Y-52675277D01*
X119950369Y-52670870D01*
X119955600Y-52670524D01*
X119956122Y-52670500D01*
X119956155Y-52670500D01*
X120009217Y-52665724D01*
X120010173Y-52665638D01*
X120010180Y-52665724D01*
X120010477Y-52665611D01*
X120117977Y-52656207D01*
X120117982Y-52656205D01*
X120120000Y-52656029D01*
X120122205Y-52655736D01*
X120124182Y-52655377D01*
X120124188Y-52655377D01*
X120227684Y-52626812D01*
X120228350Y-52626631D01*
X120329330Y-52599575D01*
X120329337Y-52599571D01*
X120333913Y-52597906D01*
X120339449Y-52596138D01*
X120341159Y-52595495D01*
X120341170Y-52595493D01*
X120434890Y-52550359D01*
X120436016Y-52549825D01*
X120527639Y-52507102D01*
X120527640Y-52507101D01*
X120532327Y-52504395D01*
X120532400Y-52504522D01*
X120543164Y-52498218D01*
X120543973Y-52497829D01*
X120625325Y-52438721D01*
X120626993Y-52437531D01*
X120706877Y-52381598D01*
X120707747Y-52380727D01*
X120722550Y-52368084D01*
X120726078Y-52365522D01*
X120793237Y-52295277D01*
X120795098Y-52293376D01*
X120861592Y-52226883D01*
X120861592Y-52226882D01*
X120861598Y-52226877D01*
X120864285Y-52223039D01*
X120876239Y-52208465D01*
X120881629Y-52202828D01*
X120881628Y-52202828D01*
X120881632Y-52202825D01*
X120933266Y-52124600D01*
X120935083Y-52121928D01*
X120987102Y-52047639D01*
X120990543Y-52040259D01*
X120999432Y-52024364D01*
X121005635Y-52014968D01*
X121041114Y-51931958D01*
X121042713Y-51928377D01*
X121079575Y-51849330D01*
X121082570Y-51838148D01*
X121088325Y-51821505D01*
X121089689Y-51818314D01*
X121094103Y-51807988D01*
X121095916Y-51800047D01*
X121113417Y-51723366D01*
X121114533Y-51718863D01*
X121115181Y-51716446D01*
X121136207Y-51637977D01*
X121137515Y-51623015D01*
X121140150Y-51606237D01*
X121144191Y-51588537D01*
X121147934Y-51505183D01*
X121148274Y-51500036D01*
X121155277Y-51420000D01*
X121153667Y-51401608D01*
X121153321Y-51385239D01*
X121154290Y-51363670D01*
X121143549Y-51284385D01*
X121142905Y-51278600D01*
X121136207Y-51202023D01*
X121130539Y-51180870D01*
X121127434Y-51165412D01*
X121124076Y-51140619D01*
X121124075Y-51140618D01*
X121124075Y-51140613D01*
X121100414Y-51067795D01*
X121098578Y-51061593D01*
X121079576Y-50990674D01*
X121079575Y-50990671D01*
X121079575Y-50990670D01*
X121068863Y-50967699D01*
X121063317Y-50953618D01*
X121054519Y-50926541D01*
X121054517Y-50926537D01*
X121054517Y-50926536D01*
X121019869Y-50862149D01*
X121016681Y-50855794D01*
X120994398Y-50808009D01*
X120987102Y-50792362D01*
X120970592Y-50768785D01*
X120962976Y-50756425D01*
X120947852Y-50728319D01*
X120904398Y-50673830D01*
X120899785Y-50667661D01*
X120861598Y-50613123D01*
X120838804Y-50590329D01*
X120829545Y-50579968D01*
X120818927Y-50566653D01*
X120807508Y-50552334D01*
X120800967Y-50546619D01*
X120757611Y-50508739D01*
X120751514Y-50503039D01*
X120706878Y-50458402D01*
X120677663Y-50437946D01*
X120667210Y-50429759D01*
X120637996Y-50404235D01*
X120635156Y-50402538D01*
X120584073Y-50372017D01*
X120576550Y-50367145D01*
X120527641Y-50332899D01*
X120492205Y-50316374D01*
X120481015Y-50310442D01*
X120444769Y-50288787D01*
X120444767Y-50288786D01*
X120436951Y-50285852D01*
X120389154Y-50267914D01*
X120380349Y-50264216D01*
X120329330Y-50240425D01*
X120288232Y-50229412D01*
X120276759Y-50225731D01*
X120234024Y-50209692D01*
X120178965Y-50199700D01*
X120169016Y-50197468D01*
X120117977Y-50183793D01*
X120072176Y-50179785D01*
X120060846Y-50178264D01*
X120012552Y-50169500D01*
X120012547Y-50169500D01*
X119960015Y-50169500D01*
X119949208Y-50169028D01*
X119900002Y-50164723D01*
X119899996Y-50164723D01*
X119849651Y-50169127D01*
X119844442Y-50169473D01*
X119843848Y-50169499D01*
X119789915Y-50174352D01*
X119789613Y-50174379D01*
X119692239Y-50182899D01*
X119682023Y-50183793D01*
X119682022Y-50183793D01*
X119680081Y-50183963D01*
X119677708Y-50184278D01*
X119675809Y-50184623D01*
X119572522Y-50213129D01*
X119571628Y-50213372D01*
X119470668Y-50240425D01*
X119466051Y-50242105D01*
X119460520Y-50243872D01*
X119458836Y-50244504D01*
X119365246Y-50289573D01*
X119363853Y-50290233D01*
X119272359Y-50332899D01*
X119267670Y-50335606D01*
X119267598Y-50335481D01*
X119256871Y-50341764D01*
X119256031Y-50342168D01*
X119174662Y-50401284D01*
X119172904Y-50402538D01*
X119093121Y-50458403D01*
X119092241Y-50459284D01*
X119077461Y-50471906D01*
X119073928Y-50474472D01*
X119073921Y-50474478D01*
X119006847Y-50544632D01*
X119004903Y-50546619D01*
X118938404Y-50613119D01*
X118938402Y-50613121D01*
X118935711Y-50616965D01*
X118923773Y-50631521D01*
X118918368Y-50637174D01*
X118898253Y-50667647D01*
X118866750Y-50715369D01*
X118864865Y-50718142D01*
X118812901Y-50792356D01*
X118812891Y-50792374D01*
X118809457Y-50799738D01*
X118800572Y-50815628D01*
X118794363Y-50825034D01*
X118758893Y-50908020D01*
X118757254Y-50911688D01*
X118720426Y-50990664D01*
X118720424Y-50990671D01*
X118717425Y-51001860D01*
X118711681Y-51018475D01*
X118705899Y-51032005D01*
X118705896Y-51032014D01*
X118686576Y-51116659D01*
X118685460Y-51121158D01*
X118663793Y-51202022D01*
X118662483Y-51216992D01*
X118659847Y-51233769D01*
X118655809Y-51251459D01*
X118655809Y-51251464D01*
X118652066Y-51334777D01*
X118651719Y-51340016D01*
X118644723Y-51419995D01*
X118644723Y-51420003D01*
X116305277Y-51420003D01*
X116305277Y-51420000D01*
X116303667Y-51401608D01*
X116303321Y-51385239D01*
X116304290Y-51363670D01*
X116293549Y-51284385D01*
X116292905Y-51278600D01*
X116286207Y-51202023D01*
X116280539Y-51180870D01*
X116277434Y-51165412D01*
X116274076Y-51140619D01*
X116274075Y-51140618D01*
X116274075Y-51140613D01*
X116250414Y-51067795D01*
X116248578Y-51061593D01*
X116229576Y-50990674D01*
X116229575Y-50990671D01*
X116229575Y-50990670D01*
X116218863Y-50967699D01*
X116213317Y-50953618D01*
X116204519Y-50926541D01*
X116204517Y-50926537D01*
X116204517Y-50926536D01*
X116169869Y-50862149D01*
X116166681Y-50855794D01*
X116144398Y-50808009D01*
X116137102Y-50792362D01*
X116120592Y-50768785D01*
X116112976Y-50756425D01*
X116097852Y-50728319D01*
X116054398Y-50673830D01*
X116049785Y-50667661D01*
X116011598Y-50613123D01*
X115988804Y-50590329D01*
X115979545Y-50579968D01*
X115968927Y-50566653D01*
X115957508Y-50552334D01*
X115950967Y-50546619D01*
X115907611Y-50508739D01*
X115901514Y-50503039D01*
X115856878Y-50458402D01*
X115827663Y-50437946D01*
X115817210Y-50429759D01*
X115787996Y-50404235D01*
X115785156Y-50402538D01*
X115734073Y-50372017D01*
X115726550Y-50367145D01*
X115677641Y-50332899D01*
X115642205Y-50316374D01*
X115631015Y-50310442D01*
X115594769Y-50288787D01*
X115594767Y-50288786D01*
X115586951Y-50285852D01*
X115539154Y-50267914D01*
X115530349Y-50264216D01*
X115479330Y-50240425D01*
X115438232Y-50229412D01*
X115426759Y-50225731D01*
X115384024Y-50209692D01*
X115328965Y-50199700D01*
X115319016Y-50197468D01*
X115267977Y-50183793D01*
X115222176Y-50179785D01*
X115210846Y-50178264D01*
X115162552Y-50169500D01*
X115162547Y-50169500D01*
X115110015Y-50169500D01*
X115099208Y-50169028D01*
X115050002Y-50164723D01*
X115049996Y-50164723D01*
X114999651Y-50169127D01*
X114994442Y-50169473D01*
X114993848Y-50169499D01*
X114939915Y-50174352D01*
X114939613Y-50174379D01*
X114842239Y-50182899D01*
X114832023Y-50183793D01*
X114832022Y-50183793D01*
X114830081Y-50183963D01*
X114827708Y-50184278D01*
X114825809Y-50184623D01*
X114722522Y-50213129D01*
X114721628Y-50213372D01*
X114620668Y-50240425D01*
X114616051Y-50242105D01*
X114610520Y-50243872D01*
X114608836Y-50244504D01*
X114515246Y-50289573D01*
X114513853Y-50290233D01*
X114422359Y-50332899D01*
X114417670Y-50335606D01*
X114417598Y-50335481D01*
X114406871Y-50341764D01*
X114406031Y-50342168D01*
X114324662Y-50401284D01*
X114322904Y-50402538D01*
X114243121Y-50458403D01*
X114242241Y-50459284D01*
X114227461Y-50471906D01*
X114223928Y-50474472D01*
X114223921Y-50474478D01*
X114156847Y-50544632D01*
X114154903Y-50546619D01*
X114088404Y-50613119D01*
X114088402Y-50613121D01*
X114085711Y-50616965D01*
X114073773Y-50631521D01*
X114068368Y-50637174D01*
X114048253Y-50667647D01*
X114016750Y-50715369D01*
X114014865Y-50718142D01*
X113962901Y-50792356D01*
X113962891Y-50792374D01*
X113959457Y-50799738D01*
X113950572Y-50815628D01*
X113944363Y-50825034D01*
X113908893Y-50908020D01*
X113907254Y-50911688D01*
X113870426Y-50990664D01*
X113870424Y-50990671D01*
X113867425Y-51001860D01*
X113861681Y-51018475D01*
X113855899Y-51032005D01*
X113855896Y-51032014D01*
X113836576Y-51116659D01*
X113835460Y-51121158D01*
X113813793Y-51202022D01*
X113812483Y-51216992D01*
X113809847Y-51233769D01*
X113805809Y-51251459D01*
X113805809Y-51251464D01*
X113802066Y-51334777D01*
X113801719Y-51340016D01*
X113794723Y-51419995D01*
X113794723Y-51420003D01*
X109935500Y-51420003D01*
X109935499Y-50864383D01*
X109935971Y-50853576D01*
X109938469Y-50825034D01*
X109940659Y-50800000D01*
X109937406Y-50762827D01*
X109935971Y-50746421D01*
X109935499Y-50735613D01*
X109935499Y-49902129D01*
X109935498Y-49902123D01*
X109935497Y-49902116D01*
X109929091Y-49842517D01*
X109906331Y-49781495D01*
X109878797Y-49707671D01*
X109878795Y-49707668D01*
X109801421Y-49604309D01*
X109777004Y-49538848D01*
X109791855Y-49470575D01*
X109801416Y-49455696D01*
X109878796Y-49352331D01*
X109929091Y-49217483D01*
X109935500Y-49157873D01*
X109935499Y-48389998D01*
X113344700Y-48389998D01*
X113351750Y-48475098D01*
X113352061Y-48480071D01*
X113355819Y-48568523D01*
X113355820Y-48568534D01*
X113360092Y-48588355D01*
X113362451Y-48604238D01*
X113363865Y-48621301D01*
X113363865Y-48621306D01*
X113385660Y-48707372D01*
X113386670Y-48711685D01*
X113406044Y-48801575D01*
X113406046Y-48801582D01*
X113412333Y-48817228D01*
X113417477Y-48833010D01*
X113420843Y-48846300D01*
X113450571Y-48914075D01*
X113457875Y-48930725D01*
X113459377Y-48934300D01*
X113494934Y-49022787D01*
X113494935Y-49022788D01*
X113501981Y-49034232D01*
X113509943Y-49049428D01*
X113514076Y-49058850D01*
X113566366Y-49138886D01*
X113568147Y-49141693D01*
X113619930Y-49225794D01*
X113626543Y-49233308D01*
X113637263Y-49247402D01*
X113641019Y-49253151D01*
X113641021Y-49253153D01*
X113708117Y-49326040D01*
X113709930Y-49328054D01*
X113777436Y-49404755D01*
X113782564Y-49408895D01*
X113795882Y-49421377D01*
X113798216Y-49423913D01*
X113865912Y-49476602D01*
X113879062Y-49486837D01*
X113880795Y-49488211D01*
X113962920Y-49554523D01*
X113962922Y-49554524D01*
X113965678Y-49556064D01*
X113981360Y-49566460D01*
X113981367Y-49566465D01*
X113981371Y-49566467D01*
X113981374Y-49566470D01*
X114074507Y-49616870D01*
X114075785Y-49617573D01*
X114129637Y-49647657D01*
X114171051Y-49670793D01*
X114173849Y-49672058D01*
X114180695Y-49675097D01*
X114180794Y-49674873D01*
X114185491Y-49676933D01*
X114185497Y-49676936D01*
X114288950Y-49712451D01*
X114289557Y-49712662D01*
X114395829Y-49750211D01*
X114395843Y-49750213D01*
X114397392Y-49750617D01*
X114403492Y-49751910D01*
X114404999Y-49752291D01*
X114405019Y-49752298D01*
X114516192Y-49770849D01*
X114516608Y-49770919D01*
X114542416Y-49775345D01*
X114630792Y-49790499D01*
X114630800Y-49790500D01*
X114866044Y-49790500D01*
X114866049Y-49790500D01*
X114920013Y-49781494D01*
X114929883Y-49780252D01*
X114987541Y-49775346D01*
X115036925Y-49762487D01*
X115047760Y-49760177D01*
X115094981Y-49752298D01*
X115149963Y-49733421D01*
X115158941Y-49730716D01*
X115218249Y-49715275D01*
X115261642Y-49695659D01*
X115272436Y-49691377D01*
X115314503Y-49676936D01*
X115368611Y-49647653D01*
X115376541Y-49643721D01*
X115435486Y-49617077D01*
X115472120Y-49592316D01*
X115482503Y-49586018D01*
X115518626Y-49566470D01*
X115569878Y-49526578D01*
X115576584Y-49521710D01*
X115633003Y-49483579D01*
X115662460Y-49455345D01*
X115672075Y-49447035D01*
X115701784Y-49423913D01*
X115748070Y-49373632D01*
X115753490Y-49368100D01*
X115805118Y-49318621D01*
X115827351Y-49288557D01*
X115835799Y-49278331D01*
X115858979Y-49253153D01*
X115898223Y-49193084D01*
X115902317Y-49187196D01*
X115946879Y-49126947D01*
X115962176Y-49096604D01*
X115969074Y-49084637D01*
X115985924Y-49058849D01*
X116016130Y-48989984D01*
X116018927Y-48984045D01*
X116054207Y-48914074D01*
X116063155Y-48884854D01*
X116068153Y-48871383D01*
X116079157Y-48846300D01*
X116098450Y-48770110D01*
X116100088Y-48764255D01*
X116124015Y-48686126D01*
X116124016Y-48686121D01*
X116126566Y-48666213D01*
X116127460Y-48659225D01*
X116130251Y-48644535D01*
X116136132Y-48621311D01*
X116136134Y-48621305D01*
X116142903Y-48539600D01*
X116143484Y-48534095D01*
X116154298Y-48449654D01*
X116153291Y-48425961D01*
X116153602Y-48410481D01*
X116155300Y-48390000D01*
X116155300Y-48389998D01*
X118794700Y-48389998D01*
X118801750Y-48475098D01*
X118802061Y-48480071D01*
X118805819Y-48568523D01*
X118805820Y-48568534D01*
X118810092Y-48588355D01*
X118812451Y-48604238D01*
X118813865Y-48621301D01*
X118813865Y-48621306D01*
X118835660Y-48707372D01*
X118836670Y-48711685D01*
X118856044Y-48801575D01*
X118856046Y-48801582D01*
X118862333Y-48817228D01*
X118867477Y-48833010D01*
X118870843Y-48846300D01*
X118900571Y-48914075D01*
X118907875Y-48930725D01*
X118909377Y-48934300D01*
X118944934Y-49022787D01*
X118944935Y-49022788D01*
X118951981Y-49034232D01*
X118959943Y-49049428D01*
X118964076Y-49058850D01*
X119016366Y-49138886D01*
X119018147Y-49141693D01*
X119069930Y-49225794D01*
X119076543Y-49233308D01*
X119087263Y-49247402D01*
X119091019Y-49253151D01*
X119091021Y-49253153D01*
X119158117Y-49326040D01*
X119159930Y-49328054D01*
X119227436Y-49404755D01*
X119232564Y-49408895D01*
X119245882Y-49421377D01*
X119248216Y-49423913D01*
X119315912Y-49476602D01*
X119329062Y-49486837D01*
X119330795Y-49488211D01*
X119412920Y-49554523D01*
X119412922Y-49554524D01*
X119415678Y-49556064D01*
X119431360Y-49566460D01*
X119431367Y-49566465D01*
X119431371Y-49566467D01*
X119431374Y-49566470D01*
X119524507Y-49616870D01*
X119525785Y-49617573D01*
X119579637Y-49647657D01*
X119621051Y-49670793D01*
X119623849Y-49672058D01*
X119630695Y-49675097D01*
X119630794Y-49674873D01*
X119635491Y-49676933D01*
X119635497Y-49676936D01*
X119738950Y-49712451D01*
X119739557Y-49712662D01*
X119845829Y-49750211D01*
X119845843Y-49750213D01*
X119847392Y-49750617D01*
X119853492Y-49751910D01*
X119854999Y-49752291D01*
X119855019Y-49752298D01*
X119966192Y-49770849D01*
X119966608Y-49770919D01*
X119992416Y-49775345D01*
X120080792Y-49790499D01*
X120080800Y-49790500D01*
X120316044Y-49790500D01*
X120316049Y-49790500D01*
X120370013Y-49781494D01*
X120379883Y-49780252D01*
X120437541Y-49775346D01*
X120486925Y-49762487D01*
X120497760Y-49760177D01*
X120544981Y-49752298D01*
X120599963Y-49733421D01*
X120608941Y-49730716D01*
X120668249Y-49715275D01*
X120711642Y-49695659D01*
X120722436Y-49691377D01*
X120764503Y-49676936D01*
X120818611Y-49647653D01*
X120826541Y-49643721D01*
X120885486Y-49617077D01*
X120922120Y-49592316D01*
X120932503Y-49586018D01*
X120968626Y-49566470D01*
X121019878Y-49526578D01*
X121026584Y-49521710D01*
X121083003Y-49483579D01*
X121112460Y-49455345D01*
X121122075Y-49447035D01*
X121151784Y-49423913D01*
X121198070Y-49373632D01*
X121203490Y-49368100D01*
X121255118Y-49318621D01*
X121277351Y-49288557D01*
X121285799Y-49278331D01*
X121308979Y-49253153D01*
X121348223Y-49193084D01*
X121352317Y-49187196D01*
X121396879Y-49126947D01*
X121412176Y-49096604D01*
X121419074Y-49084637D01*
X121435924Y-49058849D01*
X121466130Y-48989984D01*
X121468927Y-48984045D01*
X121504207Y-48914074D01*
X121513155Y-48884854D01*
X121518153Y-48871383D01*
X121529157Y-48846300D01*
X121548450Y-48770110D01*
X121550088Y-48764255D01*
X121574015Y-48686126D01*
X121574016Y-48686121D01*
X121576566Y-48666213D01*
X121577460Y-48659225D01*
X121580251Y-48644535D01*
X121586132Y-48621311D01*
X121586134Y-48621305D01*
X121592903Y-48539600D01*
X121593484Y-48534095D01*
X121604298Y-48449654D01*
X121603291Y-48425961D01*
X121603602Y-48410481D01*
X121605300Y-48390000D01*
X121603004Y-48362297D01*
X121599863Y-48324383D01*
X121598248Y-48304902D01*
X121597938Y-48299943D01*
X121596742Y-48271798D01*
X121594180Y-48211468D01*
X121589906Y-48191640D01*
X121587548Y-48175764D01*
X121586134Y-48158695D01*
X121564325Y-48072577D01*
X121563336Y-48068354D01*
X121543954Y-47978419D01*
X121537665Y-47962770D01*
X121532519Y-47946980D01*
X121529157Y-47933700D01*
X121492092Y-47849202D01*
X121490621Y-47845697D01*
X121455064Y-47757210D01*
X121448021Y-47745771D01*
X121440053Y-47730565D01*
X121435924Y-47721151D01*
X121383639Y-47641122D01*
X121381859Y-47638315D01*
X121330074Y-47554212D01*
X121330071Y-47554209D01*
X121330069Y-47554205D01*
X121323451Y-47546686D01*
X121312727Y-47532584D01*
X121308980Y-47526848D01*
X121285800Y-47501668D01*
X121241876Y-47453953D01*
X121240068Y-47451944D01*
X121172565Y-47375246D01*
X121167439Y-47371107D01*
X121154117Y-47358621D01*
X121151785Y-47356088D01*
X121151783Y-47356086D01*
X121070936Y-47293161D01*
X121069198Y-47291783D01*
X120987080Y-47225477D01*
X120987073Y-47225472D01*
X120984311Y-47223929D01*
X120968643Y-47213542D01*
X120968634Y-47213535D01*
X120968628Y-47213532D01*
X120968626Y-47213530D01*
X120875485Y-47163125D01*
X120874094Y-47162359D01*
X120778961Y-47109213D01*
X120776381Y-47108047D01*
X120769284Y-47104898D01*
X120769188Y-47105119D01*
X120764499Y-47103062D01*
X120661278Y-47067626D01*
X120660233Y-47067262D01*
X120554172Y-47029789D01*
X120552635Y-47029389D01*
X120546549Y-47028098D01*
X120544995Y-47027704D01*
X120433772Y-47009144D01*
X120433227Y-47009051D01*
X120319210Y-46989500D01*
X120319200Y-46989500D01*
X120316049Y-46989500D01*
X120083951Y-46989500D01*
X120029993Y-46998503D01*
X120020101Y-46999747D01*
X119962470Y-47004652D01*
X119962461Y-47004653D01*
X119913077Y-47017511D01*
X119902250Y-47019819D01*
X119855012Y-47027703D01*
X119800068Y-47046566D01*
X119791051Y-47049284D01*
X119731749Y-47064725D01*
X119731743Y-47064727D01*
X119688361Y-47084337D01*
X119677553Y-47088624D01*
X119635504Y-47103060D01*
X119635498Y-47103063D01*
X119581396Y-47132341D01*
X119573460Y-47136275D01*
X119514514Y-47162922D01*
X119477883Y-47187679D01*
X119467470Y-47193994D01*
X119431379Y-47213526D01*
X119431367Y-47213533D01*
X119380126Y-47253416D01*
X119373402Y-47258297D01*
X119317001Y-47296417D01*
X119316994Y-47296423D01*
X119287546Y-47324644D01*
X119277918Y-47332967D01*
X119248217Y-47356085D01*
X119248209Y-47356093D01*
X119201925Y-47406369D01*
X119196500Y-47411905D01*
X119144882Y-47461378D01*
X119144880Y-47461380D01*
X119122657Y-47491427D01*
X119114198Y-47501668D01*
X119091021Y-47526846D01*
X119051781Y-47586906D01*
X119047671Y-47592814D01*
X119003124Y-47653047D01*
X119003119Y-47653055D01*
X118987826Y-47683384D01*
X118980918Y-47695370D01*
X118964076Y-47721149D01*
X118933887Y-47789974D01*
X118931060Y-47795975D01*
X118904189Y-47849274D01*
X118895791Y-47865930D01*
X118886847Y-47895131D01*
X118881842Y-47908620D01*
X118870845Y-47933691D01*
X118870845Y-47933692D01*
X118851552Y-48009872D01*
X118849913Y-48015735D01*
X118825984Y-48093877D01*
X118825983Y-48093879D01*
X118822538Y-48120777D01*
X118819750Y-48135454D01*
X118813867Y-48158687D01*
X118813864Y-48158706D01*
X118807097Y-48240377D01*
X118806517Y-48245887D01*
X118795702Y-48330344D01*
X118795701Y-48330345D01*
X118796707Y-48354025D01*
X118796396Y-48369520D01*
X118794700Y-48389998D01*
X116155300Y-48389998D01*
X116153004Y-48362297D01*
X116149863Y-48324383D01*
X116148248Y-48304902D01*
X116147938Y-48299943D01*
X116146742Y-48271798D01*
X116144180Y-48211468D01*
X116139906Y-48191640D01*
X116137548Y-48175764D01*
X116136134Y-48158695D01*
X116114325Y-48072577D01*
X116113336Y-48068354D01*
X116093954Y-47978419D01*
X116087665Y-47962770D01*
X116082519Y-47946980D01*
X116079157Y-47933700D01*
X116042092Y-47849202D01*
X116040621Y-47845697D01*
X116005064Y-47757210D01*
X115998021Y-47745771D01*
X115990053Y-47730565D01*
X115985924Y-47721151D01*
X115933639Y-47641122D01*
X115931859Y-47638315D01*
X115880074Y-47554212D01*
X115880071Y-47554209D01*
X115880069Y-47554205D01*
X115873451Y-47546686D01*
X115862727Y-47532584D01*
X115858980Y-47526848D01*
X115835800Y-47501668D01*
X115791876Y-47453953D01*
X115790068Y-47451944D01*
X115722565Y-47375246D01*
X115717439Y-47371107D01*
X115704117Y-47358621D01*
X115701785Y-47356088D01*
X115701783Y-47356086D01*
X115620936Y-47293161D01*
X115619198Y-47291783D01*
X115537080Y-47225477D01*
X115537073Y-47225472D01*
X115534311Y-47223929D01*
X115518643Y-47213542D01*
X115518634Y-47213535D01*
X115518628Y-47213532D01*
X115518626Y-47213530D01*
X115425485Y-47163125D01*
X115424094Y-47162359D01*
X115328961Y-47109213D01*
X115326381Y-47108047D01*
X115319284Y-47104898D01*
X115319188Y-47105119D01*
X115314499Y-47103062D01*
X115211278Y-47067626D01*
X115210233Y-47067262D01*
X115104172Y-47029789D01*
X115102635Y-47029389D01*
X115096549Y-47028098D01*
X115094995Y-47027704D01*
X114983772Y-47009144D01*
X114983227Y-47009051D01*
X114869210Y-46989500D01*
X114869200Y-46989500D01*
X114866049Y-46989500D01*
X114633951Y-46989500D01*
X114579993Y-46998503D01*
X114570101Y-46999747D01*
X114512470Y-47004652D01*
X114512461Y-47004653D01*
X114463077Y-47017511D01*
X114452250Y-47019819D01*
X114405012Y-47027703D01*
X114350068Y-47046566D01*
X114341051Y-47049284D01*
X114281749Y-47064725D01*
X114281743Y-47064727D01*
X114238361Y-47084337D01*
X114227553Y-47088624D01*
X114185504Y-47103060D01*
X114185498Y-47103063D01*
X114131396Y-47132341D01*
X114123460Y-47136275D01*
X114064514Y-47162922D01*
X114027883Y-47187679D01*
X114017470Y-47193994D01*
X113981379Y-47213526D01*
X113981367Y-47213533D01*
X113930126Y-47253416D01*
X113923402Y-47258297D01*
X113867001Y-47296417D01*
X113866994Y-47296423D01*
X113837546Y-47324644D01*
X113827918Y-47332967D01*
X113798217Y-47356085D01*
X113798209Y-47356093D01*
X113751925Y-47406369D01*
X113746500Y-47411905D01*
X113694882Y-47461378D01*
X113694880Y-47461380D01*
X113672657Y-47491427D01*
X113664198Y-47501668D01*
X113641021Y-47526846D01*
X113601781Y-47586906D01*
X113597671Y-47592814D01*
X113553124Y-47653047D01*
X113553119Y-47653055D01*
X113537826Y-47683384D01*
X113530918Y-47695370D01*
X113514076Y-47721149D01*
X113483887Y-47789974D01*
X113481060Y-47795975D01*
X113454189Y-47849274D01*
X113445791Y-47865930D01*
X113436847Y-47895131D01*
X113431842Y-47908620D01*
X113420845Y-47933691D01*
X113420845Y-47933692D01*
X113401552Y-48009872D01*
X113399913Y-48015735D01*
X113375984Y-48093877D01*
X113375983Y-48093879D01*
X113372538Y-48120777D01*
X113369750Y-48135454D01*
X113363867Y-48158687D01*
X113363864Y-48158706D01*
X113357097Y-48240377D01*
X113356517Y-48245887D01*
X113345702Y-48330344D01*
X113345701Y-48330345D01*
X113346707Y-48354025D01*
X113346396Y-48369520D01*
X113344700Y-48389998D01*
X109935499Y-48389998D01*
X109935499Y-48324383D01*
X109935971Y-48313576D01*
X109940659Y-48260000D01*
X109940659Y-48259999D01*
X109935971Y-48206421D01*
X109935499Y-48195613D01*
X109935499Y-47362129D01*
X109935498Y-47362123D01*
X109935497Y-47362116D01*
X109929091Y-47302517D01*
X109926817Y-47296421D01*
X109878797Y-47167671D01*
X109878793Y-47167664D01*
X109792547Y-47052455D01*
X109792544Y-47052452D01*
X109677335Y-46966206D01*
X109677328Y-46966202D01*
X109542482Y-46915908D01*
X109542483Y-46915908D01*
X109482883Y-46909501D01*
X109482881Y-46909500D01*
X109482873Y-46909500D01*
X109482865Y-46909500D01*
X108649380Y-46909500D01*
X108638573Y-46909028D01*
X108612024Y-46906705D01*
X108585001Y-46904341D01*
X108584998Y-46904341D01*
X108531424Y-46909028D01*
X108520617Y-46909500D01*
X105887129Y-46909500D01*
X105887123Y-46909501D01*
X105827516Y-46915908D01*
X105692671Y-46966202D01*
X105692664Y-46966206D01*
X105577455Y-47052452D01*
X105577452Y-47052455D01*
X105491206Y-47167664D01*
X105491202Y-47167671D01*
X105440908Y-47302517D01*
X105434877Y-47358621D01*
X105434501Y-47362123D01*
X105434500Y-47362135D01*
X105434500Y-49157870D01*
X105434501Y-49157876D01*
X105440908Y-49217483D01*
X105491202Y-49352328D01*
X105491203Y-49352330D01*
X105568578Y-49455689D01*
X105592995Y-49521153D01*
X105578144Y-49589426D01*
X105568578Y-49604309D01*
X105558168Y-49618216D01*
X105491203Y-49707669D01*
X105491202Y-49707671D01*
X105440908Y-49842517D01*
X105434501Y-49902116D01*
X105434501Y-49902123D01*
X105434500Y-49902135D01*
X105434500Y-51697870D01*
X105434501Y-51697876D01*
X105440908Y-51757483D01*
X105491202Y-51892328D01*
X105491206Y-51892335D01*
X105568889Y-51996105D01*
X105593307Y-52061569D01*
X105578456Y-52129842D01*
X105568890Y-52144727D01*
X105491647Y-52247910D01*
X105491645Y-52247913D01*
X105441403Y-52382620D01*
X105441401Y-52382627D01*
X105435000Y-52442155D01*
X105435000Y-53090000D01*
X108139428Y-53090000D01*
X108116318Y-53125960D01*
X108075000Y-53266673D01*
X108075000Y-53413327D01*
X108116318Y-53554040D01*
X108139428Y-53590000D01*
X105435000Y-53590000D01*
X105435000Y-54237844D01*
X105441401Y-54297372D01*
X105441403Y-54297379D01*
X105491645Y-54432086D01*
X105491646Y-54432088D01*
X105568890Y-54535272D01*
X105593307Y-54600736D01*
X105578456Y-54669009D01*
X105568890Y-54683894D01*
X105491204Y-54787669D01*
X105491202Y-54787671D01*
X105440908Y-54922517D01*
X105434501Y-54982116D01*
X105434501Y-54982123D01*
X105434500Y-54982135D01*
X105434500Y-56777870D01*
X105434501Y-56777876D01*
X105440908Y-56837483D01*
X105491202Y-56972328D01*
X105491203Y-56972330D01*
X105568578Y-57075689D01*
X105592995Y-57141153D01*
X105578144Y-57209426D01*
X105568578Y-57224311D01*
X105491203Y-57327669D01*
X105491202Y-57327671D01*
X105440908Y-57462517D01*
X105434501Y-57522116D01*
X105434501Y-57522123D01*
X105434500Y-57522135D01*
X105434500Y-59317870D01*
X105434501Y-59317876D01*
X105440908Y-59377483D01*
X105491202Y-59512328D01*
X105491203Y-59512330D01*
X105568578Y-59615689D01*
X105592995Y-59681153D01*
X105578144Y-59749426D01*
X105568578Y-59764311D01*
X105491203Y-59867669D01*
X105491202Y-59867671D01*
X105440908Y-60002517D01*
X105434501Y-60062116D01*
X105434501Y-60062123D01*
X105434500Y-60062135D01*
X105434500Y-61580288D01*
X105414815Y-61647327D01*
X105373625Y-61687017D01*
X105348580Y-61701830D01*
X105348577Y-61701832D01*
X105334414Y-61715995D01*
X105319624Y-61728627D01*
X105303414Y-61740404D01*
X105303411Y-61740407D01*
X105275573Y-61774058D01*
X105267711Y-61782697D01*
X103876208Y-63174199D01*
X103863951Y-63184020D01*
X103864134Y-63184241D01*
X103858122Y-63189214D01*
X103812098Y-63238223D01*
X103809391Y-63241016D01*
X103789889Y-63260517D01*
X103789875Y-63260534D01*
X103787407Y-63263715D01*
X103779843Y-63272570D01*
X103749937Y-63304418D01*
X103749936Y-63304420D01*
X103740284Y-63321976D01*
X103729610Y-63338226D01*
X103717329Y-63354061D01*
X103717324Y-63354068D01*
X103699975Y-63394158D01*
X103694838Y-63404644D01*
X103673803Y-63442906D01*
X103668822Y-63462307D01*
X103662521Y-63480710D01*
X103654562Y-63499102D01*
X103654561Y-63499105D01*
X103647728Y-63542243D01*
X103645360Y-63553674D01*
X103634501Y-63595971D01*
X103634500Y-63595982D01*
X103634500Y-63616016D01*
X103632973Y-63635415D01*
X103629840Y-63655194D01*
X103629840Y-63655195D01*
X103633950Y-63698674D01*
X103634500Y-63710343D01*
X103634500Y-98171443D01*
X103632775Y-98187060D01*
X103633061Y-98187087D01*
X103632326Y-98194853D01*
X103634439Y-98262060D01*
X103634500Y-98265955D01*
X103634500Y-98293545D01*
X103635003Y-98297523D01*
X103635918Y-98309155D01*
X103637290Y-98352812D01*
X103637291Y-98352815D01*
X103642880Y-98372055D01*
X103646824Y-98391099D01*
X103649336Y-98410980D01*
X103665414Y-98451591D01*
X103669197Y-98462640D01*
X103681381Y-98504576D01*
X103691580Y-98521822D01*
X103700138Y-98539291D01*
X103707514Y-98557920D01*
X103733181Y-98593248D01*
X103739593Y-98603009D01*
X103761828Y-98640605D01*
X103761833Y-98640612D01*
X103775990Y-98654768D01*
X103788628Y-98669564D01*
X103800405Y-98685774D01*
X103800406Y-98685775D01*
X103834057Y-98713613D01*
X103842698Y-98721476D01*
X109723207Y-104601986D01*
X109733032Y-104614249D01*
X109733253Y-104614067D01*
X109738221Y-104620072D01*
X109787232Y-104666097D01*
X109790031Y-104668810D01*
X109809532Y-104688312D01*
X109809536Y-104688315D01*
X109809539Y-104688318D01*
X109812712Y-104690779D01*
X109821584Y-104698357D01*
X109853428Y-104728260D01*
X109870986Y-104737912D01*
X109887243Y-104748591D01*
X109903074Y-104760871D01*
X109920503Y-104768413D01*
X109943162Y-104778219D01*
X109953651Y-104783358D01*
X109970308Y-104792515D01*
X109991918Y-104804395D01*
X110004533Y-104807633D01*
X110011315Y-104809375D01*
X110029729Y-104815679D01*
X110048114Y-104823636D01*
X110091271Y-104830471D01*
X110102666Y-104832830D01*
X110144991Y-104843698D01*
X110165026Y-104843698D01*
X110184423Y-104845224D01*
X110204206Y-104848358D01*
X110247685Y-104844248D01*
X110259354Y-104843698D01*
X117198558Y-104843698D01*
X117265597Y-104863383D01*
X117286239Y-104880017D01*
X118138181Y-105731959D01*
X118171666Y-105793282D01*
X118174500Y-105819640D01*
X118174500Y-108445500D01*
X118154815Y-108512539D01*
X118102011Y-108558294D01*
X118050500Y-108569500D01*
X116602129Y-108569500D01*
X116602123Y-108569501D01*
X116542516Y-108575908D01*
X116407671Y-108626202D01*
X116407664Y-108626206D01*
X116292455Y-108712452D01*
X116292452Y-108712455D01*
X116206206Y-108827664D01*
X116206202Y-108827671D01*
X116155908Y-108962517D01*
X116149501Y-109022116D01*
X116149500Y-109022135D01*
X116149500Y-110817870D01*
X116149501Y-110817876D01*
X116155908Y-110877483D01*
X116206202Y-111012328D01*
X116206206Y-111012335D01*
X116292452Y-111127544D01*
X116292455Y-111127547D01*
X116407664Y-111213793D01*
X116407671Y-111213797D01*
X116539081Y-111262810D01*
X116595015Y-111304681D01*
X116619432Y-111370145D01*
X116604580Y-111438418D01*
X116583430Y-111466673D01*
X116461503Y-111588600D01*
X116325965Y-111782169D01*
X116325964Y-111782171D01*
X116226098Y-111996335D01*
X116226094Y-111996344D01*
X116164938Y-112224586D01*
X116164936Y-112224596D01*
X116144341Y-112459999D01*
X116144341Y-112460000D01*
X116164936Y-112695403D01*
X116164938Y-112695413D01*
X116226094Y-112923655D01*
X116226096Y-112923659D01*
X116226097Y-112923663D01*
X116325965Y-113137830D01*
X116325967Y-113137834D01*
X116461501Y-113331395D01*
X116461506Y-113331402D01*
X116628597Y-113498493D01*
X116628603Y-113498498D01*
X116814158Y-113628425D01*
X116857783Y-113683002D01*
X116864977Y-113752500D01*
X116833454Y-113814855D01*
X116814158Y-113831575D01*
X116628597Y-113961505D01*
X116461505Y-114128597D01*
X116325965Y-114322169D01*
X116325964Y-114322171D01*
X116226098Y-114536335D01*
X116226094Y-114536344D01*
X116164938Y-114764586D01*
X116164936Y-114764596D01*
X116144341Y-114999999D01*
X116144341Y-115000000D01*
X116164936Y-115235403D01*
X116164938Y-115235413D01*
X116226094Y-115463655D01*
X116226096Y-115463659D01*
X116226097Y-115463663D01*
X116325965Y-115677830D01*
X116325967Y-115677834D01*
X116461501Y-115871395D01*
X116461506Y-115871402D01*
X116628597Y-116038493D01*
X116628603Y-116038498D01*
X116814158Y-116168425D01*
X116857783Y-116223002D01*
X116864977Y-116292500D01*
X116833454Y-116354855D01*
X116814158Y-116371575D01*
X116628597Y-116501505D01*
X116461505Y-116668597D01*
X116325965Y-116862169D01*
X116325964Y-116862171D01*
X116226098Y-117076335D01*
X116226094Y-117076344D01*
X116164938Y-117304586D01*
X116164936Y-117304596D01*
X116144341Y-117539999D01*
X116144341Y-117540000D01*
X116164936Y-117775403D01*
X116164938Y-117775413D01*
X116226094Y-118003655D01*
X116226096Y-118003659D01*
X116226097Y-118003663D01*
X116325965Y-118217830D01*
X116325967Y-118217834D01*
X116461501Y-118411395D01*
X116461506Y-118411402D01*
X116628597Y-118578493D01*
X116628603Y-118578498D01*
X116814158Y-118708425D01*
X116857783Y-118763002D01*
X116864977Y-118832500D01*
X116833454Y-118894855D01*
X116814158Y-118911575D01*
X116628597Y-119041505D01*
X116461505Y-119208597D01*
X116325965Y-119402169D01*
X116325964Y-119402171D01*
X116226098Y-119616335D01*
X116226094Y-119616344D01*
X116164938Y-119844586D01*
X116164936Y-119844596D01*
X116144341Y-120079999D01*
X116144341Y-120080000D01*
X116164936Y-120315403D01*
X116164938Y-120315413D01*
X116226094Y-120543655D01*
X116226096Y-120543659D01*
X116226097Y-120543663D01*
X116325965Y-120757830D01*
X116325967Y-120757834D01*
X116461501Y-120951395D01*
X116461506Y-120951402D01*
X116628597Y-121118493D01*
X116628603Y-121118498D01*
X116814158Y-121248425D01*
X116857783Y-121303002D01*
X116864977Y-121372500D01*
X116833454Y-121434855D01*
X116814158Y-121451575D01*
X116628597Y-121581505D01*
X116461505Y-121748597D01*
X116325965Y-121942169D01*
X116325964Y-121942171D01*
X116226098Y-122156335D01*
X116226094Y-122156344D01*
X116164938Y-122384586D01*
X116164936Y-122384596D01*
X116144341Y-122619999D01*
X116144341Y-122620000D01*
X116164936Y-122855403D01*
X116164938Y-122855413D01*
X116226094Y-123083655D01*
X116226096Y-123083659D01*
X116226097Y-123083663D01*
X116325965Y-123297830D01*
X116325967Y-123297834D01*
X116461501Y-123491395D01*
X116461506Y-123491402D01*
X116628597Y-123658493D01*
X116628603Y-123658498D01*
X116814158Y-123788425D01*
X116857783Y-123843002D01*
X116864977Y-123912500D01*
X116833454Y-123974855D01*
X116814158Y-123991575D01*
X116628597Y-124121505D01*
X116461505Y-124288597D01*
X116325965Y-124482169D01*
X116325964Y-124482171D01*
X116226098Y-124696335D01*
X116226094Y-124696344D01*
X116164938Y-124924586D01*
X116164936Y-124924596D01*
X116144341Y-125159999D01*
X116144341Y-125160000D01*
X116164936Y-125395403D01*
X116164938Y-125395413D01*
X116226094Y-125623655D01*
X116226096Y-125623659D01*
X116226097Y-125623663D01*
X116325965Y-125837830D01*
X116325967Y-125837834D01*
X116461501Y-126031395D01*
X116461506Y-126031402D01*
X116628597Y-126198493D01*
X116628603Y-126198498D01*
X116814158Y-126328425D01*
X116857783Y-126383002D01*
X116864977Y-126452500D01*
X116833454Y-126514855D01*
X116814158Y-126531575D01*
X116628597Y-126661505D01*
X116461505Y-126828597D01*
X116325965Y-127022169D01*
X116325964Y-127022171D01*
X116226098Y-127236335D01*
X116226094Y-127236344D01*
X116164938Y-127464586D01*
X116164936Y-127464596D01*
X116144341Y-127699999D01*
X116144341Y-127700000D01*
X116164936Y-127935403D01*
X116164938Y-127935413D01*
X116226094Y-128163655D01*
X116226096Y-128163659D01*
X116226097Y-128163663D01*
X116325965Y-128377830D01*
X116325967Y-128377834D01*
X116434281Y-128532521D01*
X116461505Y-128571401D01*
X116628599Y-128738495D01*
X116708655Y-128794551D01*
X116822165Y-128874032D01*
X116822167Y-128874033D01*
X116822170Y-128874035D01*
X117036337Y-128973903D01*
X117264592Y-129035063D01*
X117452918Y-129051539D01*
X117499999Y-129055659D01*
X117500000Y-129055659D01*
X117500001Y-129055659D01*
X117539234Y-129052226D01*
X117735408Y-129035063D01*
X117963663Y-128973903D01*
X118177830Y-128874035D01*
X118371401Y-128738495D01*
X118538495Y-128571401D01*
X118674035Y-128377830D01*
X118773903Y-128163663D01*
X118835063Y-127935408D01*
X118855659Y-127700000D01*
X118835063Y-127464592D01*
X118773903Y-127236337D01*
X118674035Y-127022171D01*
X118538495Y-126828599D01*
X118538494Y-126828597D01*
X118371402Y-126661506D01*
X118371396Y-126661501D01*
X118185842Y-126531575D01*
X118142217Y-126476998D01*
X118135023Y-126407500D01*
X118166546Y-126345145D01*
X118185842Y-126328425D01*
X118208026Y-126312891D01*
X118371401Y-126198495D01*
X118538495Y-126031401D01*
X118674035Y-125837830D01*
X118773903Y-125623663D01*
X118835063Y-125395408D01*
X118855659Y-125160000D01*
X118835063Y-124924592D01*
X118773903Y-124696337D01*
X118674035Y-124482171D01*
X118538495Y-124288599D01*
X118538494Y-124288597D01*
X118371402Y-124121506D01*
X118371396Y-124121501D01*
X118185842Y-123991575D01*
X118142217Y-123936998D01*
X118135023Y-123867500D01*
X118166546Y-123805145D01*
X118185842Y-123788425D01*
X118208026Y-123772891D01*
X118371401Y-123658495D01*
X118538495Y-123491401D01*
X118674035Y-123297830D01*
X118773903Y-123083663D01*
X118835063Y-122855408D01*
X118855659Y-122620000D01*
X118835063Y-122384592D01*
X118773903Y-122156337D01*
X118674035Y-121942171D01*
X118538495Y-121748599D01*
X118538494Y-121748597D01*
X118371402Y-121581506D01*
X118371396Y-121581501D01*
X118185842Y-121451575D01*
X118142217Y-121396998D01*
X118135023Y-121327500D01*
X118166546Y-121265145D01*
X118185842Y-121248425D01*
X118208026Y-121232891D01*
X118371401Y-121118495D01*
X118538495Y-120951401D01*
X118674035Y-120757830D01*
X118773903Y-120543663D01*
X118835063Y-120315408D01*
X118855659Y-120080000D01*
X118835063Y-119844592D01*
X118808143Y-119744125D01*
X118809806Y-119674276D01*
X118840235Y-119624353D01*
X120593061Y-117871527D01*
X120654383Y-117838044D01*
X120724075Y-117843028D01*
X120780008Y-117884900D01*
X120804425Y-117950364D01*
X120804741Y-117959255D01*
X120800794Y-128813796D01*
X120781085Y-128880828D01*
X120728264Y-128926564D01*
X120659102Y-128936482D01*
X120629342Y-128928312D01*
X120496113Y-128873127D01*
X120251151Y-128814317D01*
X120000000Y-128794551D01*
X119748848Y-128814317D01*
X119503889Y-128873126D01*
X119271140Y-128969533D01*
X119056346Y-129101160D01*
X119056343Y-129101161D01*
X118864776Y-129264776D01*
X118701161Y-129456343D01*
X118701160Y-129456346D01*
X118569533Y-129671140D01*
X118473126Y-129903889D01*
X118414317Y-130148848D01*
X118394551Y-130400000D01*
X118414317Y-130651151D01*
X118461349Y-130847053D01*
X118457858Y-130916836D01*
X118417194Y-130973653D01*
X118352268Y-130999466D01*
X118340775Y-131000000D01*
X102859225Y-131000000D01*
X102792186Y-130980315D01*
X102746431Y-130927511D01*
X102736487Y-130858353D01*
X102738651Y-130847053D01*
X102785682Y-130651151D01*
X102785683Y-130651148D01*
X102805449Y-130400000D01*
X102785683Y-130148852D01*
X102726873Y-129903889D01*
X102630466Y-129671141D01*
X102630466Y-129671140D01*
X102498839Y-129456346D01*
X102498838Y-129456343D01*
X102461875Y-129413066D01*
X102335224Y-129264776D01*
X102208571Y-129156604D01*
X102143656Y-129101161D01*
X102143653Y-129101160D01*
X101928859Y-128969533D01*
X101696110Y-128873126D01*
X101451151Y-128814317D01*
X101200000Y-128794551D01*
X100948848Y-128814317D01*
X100749918Y-128862076D01*
X100680135Y-128858585D01*
X100623318Y-128817921D01*
X100597505Y-128752995D01*
X100596972Y-128741690D01*
X100478844Y-40640001D01*
X133314532Y-40640001D01*
X133334364Y-40866686D01*
X133334366Y-40866697D01*
X133393258Y-41086488D01*
X133393261Y-41086497D01*
X133489431Y-41292732D01*
X133489432Y-41292734D01*
X133619954Y-41479141D01*
X133780858Y-41640045D01*
X133780861Y-41640047D01*
X133967266Y-41770568D01*
X134173504Y-41866739D01*
X134393308Y-41925635D01*
X134555230Y-41939801D01*
X134619998Y-41945468D01*
X134620000Y-41945468D01*
X134620002Y-41945468D01*
X134676673Y-41940509D01*
X134846692Y-41925635D01*
X135066496Y-41866739D01*
X135272734Y-41770568D01*
X135459139Y-41640047D01*
X135620047Y-41479139D01*
X135750568Y-41292734D01*
X135846739Y-41086496D01*
X135905635Y-40866692D01*
X135925468Y-40640000D01*
X135905635Y-40413308D01*
X135904750Y-40410006D01*
X136369700Y-40410006D01*
X136388864Y-40641297D01*
X136388866Y-40641308D01*
X136445842Y-40866300D01*
X136539075Y-41078848D01*
X136666016Y-41273147D01*
X136666019Y-41273151D01*
X136666021Y-41273153D01*
X136823216Y-41443913D01*
X136823219Y-41443915D01*
X136823222Y-41443918D01*
X137006365Y-41586464D01*
X137006371Y-41586468D01*
X137006374Y-41586470D01*
X137210497Y-41696936D01*
X137292880Y-41725218D01*
X137430015Y-41772297D01*
X137430017Y-41772297D01*
X137430019Y-41772298D01*
X137658951Y-41810500D01*
X137658952Y-41810500D01*
X137891048Y-41810500D01*
X137891049Y-41810500D01*
X138119981Y-41772298D01*
X138339503Y-41696936D01*
X138543626Y-41586470D01*
X138726784Y-41443913D01*
X138735511Y-41434432D01*
X138795394Y-41398441D01*
X138865232Y-41400538D01*
X138922850Y-41440060D01*
X138942924Y-41475080D01*
X138971645Y-41552086D01*
X138971649Y-41552093D01*
X139057809Y-41667187D01*
X139057812Y-41667190D01*
X139172906Y-41753350D01*
X139172913Y-41753354D01*
X139307620Y-41803596D01*
X139307627Y-41803598D01*
X139367155Y-41809999D01*
X139367172Y-41810000D01*
X140065000Y-41810000D01*
X140065000Y-40784189D01*
X140117547Y-40820016D01*
X140247173Y-40860000D01*
X140348724Y-40860000D01*
X140449138Y-40844865D01*
X140565000Y-40789068D01*
X140565000Y-41810000D01*
X141262828Y-41810000D01*
X141262844Y-41809999D01*
X141322372Y-41803598D01*
X141322379Y-41803596D01*
X141457086Y-41753354D01*
X141457093Y-41753350D01*
X141572187Y-41667190D01*
X141572190Y-41667187D01*
X141658350Y-41552093D01*
X141658354Y-41552086D01*
X141708596Y-41417379D01*
X141708598Y-41417372D01*
X141714999Y-41357844D01*
X141715000Y-41357827D01*
X141715000Y-40660000D01*
X140690278Y-40660000D01*
X140738625Y-40576260D01*
X140768810Y-40444008D01*
X140766262Y-40410006D01*
X143354700Y-40410006D01*
X143373864Y-40641297D01*
X143373866Y-40641308D01*
X143430842Y-40866300D01*
X143524075Y-41078848D01*
X143651016Y-41273147D01*
X143651019Y-41273151D01*
X143651021Y-41273153D01*
X143808216Y-41443913D01*
X143808219Y-41443915D01*
X143808222Y-41443918D01*
X143991365Y-41586464D01*
X143991371Y-41586468D01*
X143991374Y-41586470D01*
X144195497Y-41696936D01*
X144240055Y-41712232D01*
X144300922Y-41733129D01*
X144357937Y-41773514D01*
X144384068Y-41838314D01*
X144371017Y-41906954D01*
X144322928Y-41957642D01*
X144313064Y-41962792D01*
X144127267Y-42049431D01*
X144127265Y-42049432D01*
X143940858Y-42179954D01*
X143779954Y-42340858D01*
X143649432Y-42527265D01*
X143649431Y-42527267D01*
X143553261Y-42733502D01*
X143553258Y-42733511D01*
X143494366Y-42953302D01*
X143494364Y-42953313D01*
X143474532Y-43179998D01*
X143474532Y-43180001D01*
X143494364Y-43406686D01*
X143494366Y-43406697D01*
X143553258Y-43626488D01*
X143553261Y-43626497D01*
X143649431Y-43832732D01*
X143649432Y-43832734D01*
X143779954Y-44019141D01*
X143940858Y-44180045D01*
X143940861Y-44180047D01*
X144127266Y-44310568D01*
X144333504Y-44406739D01*
X144553308Y-44465635D01*
X144715230Y-44479801D01*
X144779998Y-44485468D01*
X144780000Y-44485468D01*
X144780002Y-44485468D01*
X144836673Y-44480509D01*
X145006692Y-44465635D01*
X145226496Y-44406739D01*
X145432734Y-44310568D01*
X145619139Y-44180047D01*
X145780047Y-44019139D01*
X145910568Y-43832734D01*
X146006739Y-43626496D01*
X146065635Y-43406692D01*
X146085468Y-43180000D01*
X146065635Y-42953308D01*
X146006739Y-42733504D01*
X145910568Y-42527266D01*
X145780047Y-42340861D01*
X145780045Y-42340858D01*
X145619141Y-42179954D01*
X145432734Y-42049432D01*
X145432732Y-42049431D01*
X145229973Y-41954882D01*
X145177534Y-41908709D01*
X145158382Y-41841516D01*
X145178598Y-41774635D01*
X145231764Y-41729300D01*
X145242094Y-41725226D01*
X145324503Y-41696936D01*
X145528626Y-41586470D01*
X145711784Y-41443913D01*
X145720511Y-41434432D01*
X145780394Y-41398441D01*
X145850232Y-41400538D01*
X145907850Y-41440060D01*
X145927924Y-41475080D01*
X145956645Y-41552086D01*
X145956649Y-41552093D01*
X146042809Y-41667187D01*
X146042812Y-41667190D01*
X146157906Y-41753350D01*
X146157913Y-41753354D01*
X146292620Y-41803596D01*
X146292627Y-41803598D01*
X146352155Y-41809999D01*
X146352172Y-41810000D01*
X147050000Y-41810000D01*
X147050000Y-40784189D01*
X147102547Y-40820016D01*
X147232173Y-40860000D01*
X147333724Y-40860000D01*
X147434138Y-40844865D01*
X147550000Y-40789068D01*
X147550000Y-41810000D01*
X148247828Y-41810000D01*
X148247844Y-41809999D01*
X148307372Y-41803598D01*
X148307379Y-41803596D01*
X148442086Y-41753354D01*
X148442093Y-41753350D01*
X148557187Y-41667190D01*
X148557190Y-41667187D01*
X148643350Y-41552093D01*
X148643354Y-41552086D01*
X148693596Y-41417379D01*
X148693598Y-41417372D01*
X148699999Y-41357844D01*
X148700000Y-41357827D01*
X148700000Y-41275005D01*
X152174357Y-41275005D01*
X152194890Y-41522812D01*
X152194892Y-41522824D01*
X152255936Y-41763881D01*
X152355826Y-41991606D01*
X152491833Y-42199782D01*
X152491836Y-42199785D01*
X152660256Y-42382738D01*
X152856491Y-42535474D01*
X153075190Y-42653828D01*
X153310386Y-42734571D01*
X153555665Y-42775500D01*
X153804335Y-42775500D01*
X154049614Y-42734571D01*
X154284810Y-42653828D01*
X154503509Y-42535474D01*
X154699744Y-42382738D01*
X154754856Y-42322870D01*
X159779500Y-42322870D01*
X159779501Y-42322876D01*
X159785908Y-42382483D01*
X159836202Y-42517328D01*
X159836206Y-42517335D01*
X159922452Y-42632544D01*
X159922455Y-42632547D01*
X160037664Y-42718793D01*
X160037671Y-42718797D01*
X160172517Y-42769091D01*
X160172516Y-42769091D01*
X160179444Y-42769835D01*
X160232127Y-42775500D01*
X162327872Y-42775499D01*
X162387483Y-42769091D01*
X162522331Y-42718796D01*
X162637546Y-42632546D01*
X162723796Y-42517331D01*
X162774091Y-42382483D01*
X162780500Y-42322873D01*
X162780499Y-40227128D01*
X162774091Y-40167517D01*
X162771287Y-40160000D01*
X162723797Y-40032671D01*
X162723793Y-40032664D01*
X162637547Y-39917455D01*
X162637544Y-39917452D01*
X162522335Y-39831206D01*
X162522328Y-39831202D01*
X162387482Y-39780908D01*
X162387483Y-39780908D01*
X162327883Y-39774501D01*
X162327881Y-39774500D01*
X162327873Y-39774500D01*
X162327864Y-39774500D01*
X160232129Y-39774500D01*
X160232123Y-39774501D01*
X160172516Y-39780908D01*
X160037671Y-39831202D01*
X160037664Y-39831206D01*
X159922455Y-39917452D01*
X159922452Y-39917455D01*
X159836206Y-40032664D01*
X159836202Y-40032671D01*
X159785908Y-40167517D01*
X159783114Y-40193511D01*
X159779501Y-40227123D01*
X159779500Y-40227135D01*
X159779500Y-42322870D01*
X154754856Y-42322870D01*
X154868164Y-42199785D01*
X155004173Y-41991607D01*
X155104063Y-41763881D01*
X155165108Y-41522821D01*
X155165109Y-41522812D01*
X155185643Y-41275005D01*
X155185643Y-41274994D01*
X155165109Y-41027187D01*
X155165107Y-41027175D01*
X155104063Y-40786118D01*
X155004173Y-40558393D01*
X154868166Y-40350217D01*
X154829979Y-40308735D01*
X154699744Y-40167262D01*
X154503509Y-40014526D01*
X154503507Y-40014525D01*
X154503506Y-40014524D01*
X154284811Y-39896172D01*
X154284802Y-39896169D01*
X154049616Y-39815429D01*
X153804335Y-39774500D01*
X153555665Y-39774500D01*
X153310383Y-39815429D01*
X153075197Y-39896169D01*
X153075188Y-39896172D01*
X152856493Y-40014524D01*
X152660257Y-40167261D01*
X152491833Y-40350217D01*
X152355826Y-40558393D01*
X152255936Y-40786118D01*
X152194892Y-41027175D01*
X152194890Y-41027187D01*
X152174357Y-41274994D01*
X152174357Y-41275005D01*
X148700000Y-41275005D01*
X148700000Y-40660000D01*
X147675278Y-40660000D01*
X147723625Y-40576260D01*
X147753810Y-40444008D01*
X147743673Y-40308735D01*
X147694113Y-40182459D01*
X147676203Y-40160000D01*
X148700000Y-40160000D01*
X148700000Y-39462172D01*
X148699999Y-39462155D01*
X148693598Y-39402627D01*
X148693596Y-39402620D01*
X148643354Y-39267913D01*
X148643350Y-39267906D01*
X148557190Y-39152812D01*
X148557187Y-39152809D01*
X148442093Y-39066649D01*
X148442086Y-39066645D01*
X148307379Y-39016403D01*
X148307372Y-39016401D01*
X148247844Y-39010000D01*
X147550000Y-39010000D01*
X147550000Y-40035810D01*
X147497453Y-39999984D01*
X147367827Y-39960000D01*
X147266276Y-39960000D01*
X147165862Y-39975135D01*
X147050000Y-40030931D01*
X147050000Y-39010000D01*
X146352155Y-39010000D01*
X146292627Y-39016401D01*
X146292620Y-39016403D01*
X146157913Y-39066645D01*
X146157906Y-39066649D01*
X146042812Y-39152809D01*
X146042809Y-39152812D01*
X145956649Y-39267906D01*
X145956646Y-39267911D01*
X145927924Y-39344920D01*
X145886052Y-39400853D01*
X145820588Y-39425270D01*
X145752315Y-39410418D01*
X145720514Y-39385571D01*
X145711784Y-39376087D01*
X145711779Y-39376083D01*
X145711777Y-39376081D01*
X145528634Y-39233535D01*
X145528628Y-39233531D01*
X145324504Y-39123064D01*
X145324495Y-39123061D01*
X145104984Y-39047702D01*
X144917404Y-39016401D01*
X144876049Y-39009500D01*
X144643951Y-39009500D01*
X144602596Y-39016401D01*
X144415015Y-39047702D01*
X144195504Y-39123061D01*
X144195495Y-39123064D01*
X143991371Y-39233531D01*
X143991365Y-39233535D01*
X143808222Y-39376081D01*
X143808219Y-39376084D01*
X143808216Y-39376086D01*
X143808216Y-39376087D01*
X143783791Y-39402620D01*
X143651016Y-39546852D01*
X143524075Y-39741151D01*
X143430842Y-39953699D01*
X143373866Y-40178691D01*
X143373864Y-40178702D01*
X143354700Y-40409993D01*
X143354700Y-40410006D01*
X140766262Y-40410006D01*
X140758673Y-40308735D01*
X140709113Y-40182459D01*
X140691203Y-40160000D01*
X141715000Y-40160000D01*
X141715000Y-39462172D01*
X141714999Y-39462155D01*
X141708598Y-39402627D01*
X141708596Y-39402620D01*
X141658354Y-39267913D01*
X141658350Y-39267906D01*
X141572190Y-39152812D01*
X141572187Y-39152809D01*
X141457093Y-39066649D01*
X141457086Y-39066645D01*
X141322379Y-39016403D01*
X141322372Y-39016401D01*
X141262844Y-39010000D01*
X140565000Y-39010000D01*
X140565000Y-40035810D01*
X140512453Y-39999984D01*
X140382827Y-39960000D01*
X140281276Y-39960000D01*
X140180862Y-39975135D01*
X140065000Y-40030931D01*
X140065000Y-39010000D01*
X139367155Y-39010000D01*
X139307627Y-39016401D01*
X139307620Y-39016403D01*
X139172913Y-39066645D01*
X139172906Y-39066649D01*
X139057812Y-39152809D01*
X139057809Y-39152812D01*
X138971649Y-39267906D01*
X138971646Y-39267911D01*
X138942924Y-39344920D01*
X138901052Y-39400853D01*
X138835588Y-39425270D01*
X138767315Y-39410418D01*
X138735514Y-39385571D01*
X138726784Y-39376087D01*
X138726779Y-39376083D01*
X138726777Y-39376081D01*
X138543634Y-39233535D01*
X138543628Y-39233531D01*
X138339504Y-39123064D01*
X138339495Y-39123061D01*
X138119984Y-39047702D01*
X137932404Y-39016401D01*
X137891049Y-39009500D01*
X137658951Y-39009500D01*
X137617596Y-39016401D01*
X137430015Y-39047702D01*
X137210504Y-39123061D01*
X137210495Y-39123064D01*
X137006371Y-39233531D01*
X137006365Y-39233535D01*
X136823222Y-39376081D01*
X136823219Y-39376084D01*
X136823216Y-39376086D01*
X136823216Y-39376087D01*
X136798791Y-39402620D01*
X136666016Y-39546852D01*
X136539075Y-39741151D01*
X136445842Y-39953699D01*
X136388866Y-40178691D01*
X136388864Y-40178702D01*
X136369700Y-40409993D01*
X136369700Y-40410006D01*
X135904750Y-40410006D01*
X135855749Y-40227129D01*
X135846741Y-40193511D01*
X135846738Y-40193502D01*
X135839833Y-40178695D01*
X135750568Y-39987266D01*
X135620047Y-39800861D01*
X135620045Y-39800858D01*
X135459141Y-39639954D01*
X135272734Y-39509432D01*
X135272732Y-39509431D01*
X135066497Y-39413261D01*
X135066488Y-39413258D01*
X134846697Y-39354366D01*
X134846693Y-39354365D01*
X134846692Y-39354365D01*
X134846691Y-39354364D01*
X134846686Y-39354364D01*
X134620002Y-39334532D01*
X134619998Y-39334532D01*
X134393313Y-39354364D01*
X134393302Y-39354366D01*
X134173511Y-39413258D01*
X134173502Y-39413261D01*
X133967267Y-39509431D01*
X133967265Y-39509432D01*
X133780858Y-39639954D01*
X133619954Y-39800858D01*
X133489432Y-39987265D01*
X133489431Y-39987267D01*
X133393261Y-40193502D01*
X133393258Y-40193511D01*
X133334366Y-40413302D01*
X133334364Y-40413313D01*
X133314532Y-40639998D01*
X133314532Y-40640001D01*
X100478844Y-40640001D01*
X100474774Y-37604151D01*
X100494369Y-37537089D01*
X100547111Y-37491264D01*
X100616256Y-37481228D01*
X100663564Y-37498262D01*
X100871140Y-37625466D01*
X101103889Y-37721873D01*
X101348852Y-37780683D01*
X101600000Y-37800449D01*
X101851148Y-37780683D01*
X102096111Y-37721873D01*
X102328859Y-37625466D01*
X102543659Y-37493836D01*
X102735224Y-37330224D01*
X102898836Y-37138659D01*
X103030466Y-36923859D01*
X103126873Y-36691111D01*
X103185683Y-36446148D01*
X103205449Y-36195000D01*
X103185683Y-35943852D01*
X103126873Y-35698889D01*
X103098939Y-35631452D01*
X103091471Y-35561984D01*
X103122746Y-35499505D01*
X103182835Y-35463852D01*
X103213501Y-35460000D01*
X162216499Y-35460000D01*
X162283538Y-35479685D01*
G37*
%TD.AperFunction*%
%TA.AperFunction,Conductor*%
G36*
X124957539Y-88370185D02*
G01*
X125003294Y-88422989D01*
X125014500Y-88474500D01*
X125014500Y-88835616D01*
X125014028Y-88846423D01*
X125009341Y-88899997D01*
X125009341Y-88900002D01*
X125014028Y-88953576D01*
X125014500Y-88964383D01*
X125014500Y-89797870D01*
X125014501Y-89797876D01*
X125020908Y-89857483D01*
X125071202Y-89992328D01*
X125071206Y-89992335D01*
X125148889Y-90096105D01*
X125173307Y-90161569D01*
X125158456Y-90229842D01*
X125148890Y-90244727D01*
X125071647Y-90347910D01*
X125071645Y-90347913D01*
X125021403Y-90482620D01*
X125021401Y-90482627D01*
X125015000Y-90542155D01*
X125015000Y-91190000D01*
X125919428Y-91190000D01*
X125896318Y-91225960D01*
X125855000Y-91366673D01*
X125855000Y-91513327D01*
X125896318Y-91654040D01*
X125919428Y-91690000D01*
X125015000Y-91690000D01*
X125015000Y-91865500D01*
X124995315Y-91932539D01*
X124942511Y-91978294D01*
X124891000Y-91989500D01*
X112610453Y-91989500D01*
X112543414Y-91969815D01*
X112522772Y-91953181D01*
X109971818Y-89402227D01*
X109938333Y-89340904D01*
X109935499Y-89314546D01*
X109935499Y-88964385D01*
X109935971Y-88953576D01*
X109940659Y-88900000D01*
X109940659Y-88899999D01*
X109935971Y-88846421D01*
X109935499Y-88835613D01*
X109935499Y-88474500D01*
X109955184Y-88407461D01*
X110007988Y-88361706D01*
X110059499Y-88350500D01*
X124890500Y-88350500D01*
X124957539Y-88370185D01*
G37*
%TD.AperFunction*%
%TA.AperFunction,Conductor*%
G36*
X135741587Y-88370185D02*
G01*
X135762229Y-88386819D01*
X135819762Y-88444352D01*
X135853247Y-88505675D01*
X135851856Y-88564126D01*
X135824938Y-88664586D01*
X135824936Y-88664596D01*
X135804341Y-88899999D01*
X135804341Y-88900000D01*
X135824936Y-89135403D01*
X135824938Y-89135413D01*
X135886094Y-89363655D01*
X135886096Y-89363659D01*
X135886097Y-89363663D01*
X135887144Y-89365908D01*
X135985965Y-89577830D01*
X135985967Y-89577834D01*
X136121501Y-89771395D01*
X136121506Y-89771402D01*
X136288597Y-89938493D01*
X136288603Y-89938498D01*
X136474158Y-90068425D01*
X136517783Y-90123002D01*
X136524977Y-90192500D01*
X136493454Y-90254855D01*
X136474158Y-90271575D01*
X136288597Y-90401505D01*
X136121505Y-90568597D01*
X135985965Y-90762169D01*
X135985964Y-90762171D01*
X135886098Y-90976335D01*
X135886094Y-90976344D01*
X135824938Y-91204586D01*
X135824936Y-91204596D01*
X135804341Y-91439999D01*
X135804341Y-91440000D01*
X135824936Y-91675403D01*
X135824938Y-91675413D01*
X135867272Y-91833407D01*
X135865609Y-91903257D01*
X135826446Y-91961119D01*
X135762218Y-91988623D01*
X135747497Y-91989500D01*
X129639000Y-91989500D01*
X129571961Y-91969815D01*
X129526206Y-91917011D01*
X129515000Y-91865500D01*
X129515000Y-91690000D01*
X126810572Y-91690000D01*
X126833682Y-91654040D01*
X126875000Y-91513327D01*
X126875000Y-91366673D01*
X126833682Y-91225960D01*
X126810572Y-91190000D01*
X129515000Y-91190000D01*
X129515000Y-90542172D01*
X129514999Y-90542155D01*
X129508598Y-90482627D01*
X129508596Y-90482620D01*
X129458354Y-90347913D01*
X129458352Y-90347910D01*
X129381110Y-90244729D01*
X129356692Y-90179265D01*
X129371543Y-90110992D01*
X129381105Y-90096111D01*
X129458796Y-89992331D01*
X129509091Y-89857483D01*
X129515500Y-89797873D01*
X129515499Y-88474499D01*
X129535184Y-88407461D01*
X129587987Y-88361706D01*
X129639499Y-88350500D01*
X135674548Y-88350500D01*
X135741587Y-88370185D01*
G37*
%TD.AperFunction*%
%TA.AperFunction,Conductor*%
G36*
X125896318Y-65825960D02*
G01*
X125855000Y-65966673D01*
X125855000Y-66113327D01*
X125896318Y-66254040D01*
X125919428Y-66290000D01*
X125015000Y-66290000D01*
X125015000Y-66937844D01*
X125021401Y-66997372D01*
X125021403Y-66997379D01*
X125071645Y-67132086D01*
X125071646Y-67132088D01*
X125148890Y-67235272D01*
X125173307Y-67300736D01*
X125158456Y-67369009D01*
X125148890Y-67383894D01*
X125071204Y-67487669D01*
X125071202Y-67487671D01*
X125020908Y-67622517D01*
X125015310Y-67674594D01*
X125014501Y-67682123D01*
X125014500Y-67682135D01*
X125014500Y-68515616D01*
X125014028Y-68526423D01*
X125009341Y-68579997D01*
X125009341Y-68580002D01*
X125014028Y-68633576D01*
X125014500Y-68644383D01*
X125014500Y-69477870D01*
X125014501Y-69477876D01*
X125020908Y-69537483D01*
X125071202Y-69672328D01*
X125071203Y-69672330D01*
X125148578Y-69775689D01*
X125172995Y-69841153D01*
X125158144Y-69909426D01*
X125148578Y-69924311D01*
X125071203Y-70027669D01*
X125071202Y-70027671D01*
X125020908Y-70162517D01*
X125015310Y-70214594D01*
X125014501Y-70222123D01*
X125014500Y-70222135D01*
X125014500Y-71055616D01*
X125014028Y-71066423D01*
X125009341Y-71119997D01*
X125009341Y-71120002D01*
X125014028Y-71173576D01*
X125014500Y-71184383D01*
X125014500Y-72017870D01*
X125014501Y-72017876D01*
X125020908Y-72077483D01*
X125071202Y-72212328D01*
X125071203Y-72212330D01*
X125148578Y-72315689D01*
X125172995Y-72381153D01*
X125158144Y-72449426D01*
X125148578Y-72464311D01*
X125071203Y-72567669D01*
X125071202Y-72567671D01*
X125020908Y-72702517D01*
X125014501Y-72762116D01*
X125014501Y-72762123D01*
X125014500Y-72762135D01*
X125014500Y-73595616D01*
X125014028Y-73606423D01*
X125009341Y-73659997D01*
X125009341Y-73660002D01*
X125014028Y-73713576D01*
X125014500Y-73724383D01*
X125014500Y-74557870D01*
X125014501Y-74557876D01*
X125020908Y-74617483D01*
X125071202Y-74752328D01*
X125071203Y-74752330D01*
X125148578Y-74855689D01*
X125172995Y-74921153D01*
X125158144Y-74989426D01*
X125148578Y-75004311D01*
X125071203Y-75107669D01*
X125071202Y-75107671D01*
X125020908Y-75242517D01*
X125014501Y-75302116D01*
X125014501Y-75302123D01*
X125014500Y-75302135D01*
X125014500Y-76135616D01*
X125014028Y-76146423D01*
X125009341Y-76199997D01*
X125009341Y-76200002D01*
X125014028Y-76253576D01*
X125014500Y-76264383D01*
X125014500Y-77097870D01*
X125014501Y-77097876D01*
X125020908Y-77157483D01*
X125071202Y-77292328D01*
X125071206Y-77292335D01*
X125148889Y-77396105D01*
X125173307Y-77461569D01*
X125158456Y-77529842D01*
X125148890Y-77544727D01*
X125071647Y-77647910D01*
X125071645Y-77647913D01*
X125021403Y-77782620D01*
X125021401Y-77782627D01*
X125015000Y-77842155D01*
X125015000Y-78490000D01*
X125919428Y-78490000D01*
X125896318Y-78525960D01*
X125855000Y-78666673D01*
X125855000Y-78813327D01*
X125896318Y-78954040D01*
X125919428Y-78990000D01*
X125015000Y-78990000D01*
X125015000Y-79637844D01*
X125021401Y-79697372D01*
X125021403Y-79697379D01*
X125071645Y-79832086D01*
X125071646Y-79832088D01*
X125148890Y-79935272D01*
X125173307Y-80000736D01*
X125158456Y-80069009D01*
X125148890Y-80083894D01*
X125071204Y-80187669D01*
X125071202Y-80187671D01*
X125020908Y-80322517D01*
X125014501Y-80382116D01*
X125014501Y-80382123D01*
X125014500Y-80382135D01*
X125014500Y-81215616D01*
X125014028Y-81226423D01*
X125009341Y-81279997D01*
X125009341Y-81280002D01*
X125014028Y-81333576D01*
X125014500Y-81344383D01*
X125014500Y-82177870D01*
X125014501Y-82177876D01*
X125020908Y-82237483D01*
X125071202Y-82372328D01*
X125071203Y-82372330D01*
X125148578Y-82475689D01*
X125172995Y-82541153D01*
X125158144Y-82609426D01*
X125148578Y-82624311D01*
X125071203Y-82727669D01*
X125071202Y-82727671D01*
X125020908Y-82862517D01*
X125014501Y-82922116D01*
X125014501Y-82922123D01*
X125014500Y-82922135D01*
X125014500Y-83755616D01*
X125014028Y-83766423D01*
X125009341Y-83819997D01*
X125009341Y-83820002D01*
X125014028Y-83873576D01*
X125014500Y-83884383D01*
X125014500Y-84717870D01*
X125014501Y-84717876D01*
X125020908Y-84777483D01*
X125071202Y-84912328D01*
X125071203Y-84912330D01*
X125148578Y-85015689D01*
X125172995Y-85081153D01*
X125158144Y-85149426D01*
X125148578Y-85164311D01*
X125071203Y-85267669D01*
X125071202Y-85267671D01*
X125020908Y-85402517D01*
X125014501Y-85462116D01*
X125014501Y-85462123D01*
X125014500Y-85462135D01*
X125014500Y-86295616D01*
X125014028Y-86306423D01*
X125009341Y-86359997D01*
X125009341Y-86360002D01*
X125014028Y-86413576D01*
X125014500Y-86424383D01*
X125014501Y-86975500D01*
X124994817Y-87042539D01*
X124942013Y-87088294D01*
X124890501Y-87099500D01*
X110260453Y-87099500D01*
X110193414Y-87079815D01*
X110172772Y-87063181D01*
X109971818Y-86862227D01*
X109938333Y-86800904D01*
X109935499Y-86774546D01*
X109935499Y-86424385D01*
X109935971Y-86413576D01*
X109940659Y-86360000D01*
X109940659Y-86359999D01*
X109935971Y-86306421D01*
X109935499Y-86295613D01*
X109935499Y-85462129D01*
X109935498Y-85462123D01*
X109935497Y-85462116D01*
X109929091Y-85402517D01*
X109878796Y-85267669D01*
X109801421Y-85164309D01*
X109777004Y-85098848D01*
X109791855Y-85030575D01*
X109801416Y-85015696D01*
X109878796Y-84912331D01*
X109929091Y-84777483D01*
X109935500Y-84717873D01*
X109935499Y-83884383D01*
X109935971Y-83873576D01*
X109940659Y-83820000D01*
X109940659Y-83819999D01*
X109935971Y-83766421D01*
X109935499Y-83755613D01*
X109935499Y-82922129D01*
X109935498Y-82922123D01*
X109935497Y-82922116D01*
X109929091Y-82862517D01*
X109878796Y-82727669D01*
X109801421Y-82624309D01*
X109777004Y-82558848D01*
X109791855Y-82490575D01*
X109801416Y-82475696D01*
X109878796Y-82372331D01*
X109929091Y-82237483D01*
X109935500Y-82177873D01*
X109935499Y-81344383D01*
X109935971Y-81333576D01*
X109940659Y-81280000D01*
X109940659Y-81279999D01*
X109935971Y-81226421D01*
X109935499Y-81215613D01*
X109935499Y-80382129D01*
X109935498Y-80382123D01*
X109935497Y-80382116D01*
X109929091Y-80322517D01*
X109878796Y-80187669D01*
X109801421Y-80084309D01*
X109777004Y-80018848D01*
X109791855Y-79950575D01*
X109801416Y-79935696D01*
X109878796Y-79832331D01*
X109929091Y-79697483D01*
X109935500Y-79637873D01*
X109935499Y-77842128D01*
X109929091Y-77782517D01*
X109878796Y-77647669D01*
X109801421Y-77544309D01*
X109777004Y-77478848D01*
X109791855Y-77410575D01*
X109801416Y-77395696D01*
X109878796Y-77292331D01*
X109929091Y-77157483D01*
X109935500Y-77097873D01*
X109935499Y-76264383D01*
X109935971Y-76253576D01*
X109940659Y-76200000D01*
X109940659Y-76199999D01*
X109935971Y-76146421D01*
X109935499Y-76135613D01*
X109935499Y-75302129D01*
X109935498Y-75302123D01*
X109935497Y-75302116D01*
X109929091Y-75242517D01*
X109878796Y-75107669D01*
X109801421Y-75004309D01*
X109777004Y-74938848D01*
X109791855Y-74870575D01*
X109801416Y-74855696D01*
X109878796Y-74752331D01*
X109929091Y-74617483D01*
X109935500Y-74557873D01*
X109935499Y-73724383D01*
X109935971Y-73713576D01*
X109940659Y-73660000D01*
X109940659Y-73659999D01*
X109935971Y-73606421D01*
X109935499Y-73595613D01*
X109935499Y-72762129D01*
X109935498Y-72762123D01*
X109935497Y-72762116D01*
X109929091Y-72702517D01*
X109878796Y-72567669D01*
X109801421Y-72464309D01*
X109777004Y-72398848D01*
X109791855Y-72330575D01*
X109801416Y-72315696D01*
X109878796Y-72212331D01*
X109929091Y-72077483D01*
X109935500Y-72017873D01*
X109935499Y-71184383D01*
X109935971Y-71173576D01*
X109940659Y-71120000D01*
X109940659Y-71119999D01*
X109935971Y-71066421D01*
X109935499Y-71055613D01*
X109935499Y-70504500D01*
X109955184Y-70437461D01*
X110007988Y-70391706D01*
X110059499Y-70380500D01*
X120027257Y-70380500D01*
X120042877Y-70382224D01*
X120042904Y-70381939D01*
X120050660Y-70382671D01*
X120050667Y-70382673D01*
X120117873Y-70380561D01*
X120121768Y-70380500D01*
X120149346Y-70380500D01*
X120149350Y-70380500D01*
X120153324Y-70379997D01*
X120164963Y-70379080D01*
X120208627Y-70377709D01*
X120227869Y-70372117D01*
X120246912Y-70368174D01*
X120266792Y-70365664D01*
X120307401Y-70349585D01*
X120318444Y-70345803D01*
X120360390Y-70333618D01*
X120377629Y-70323422D01*
X120395103Y-70314862D01*
X120413727Y-70307488D01*
X120413727Y-70307487D01*
X120413732Y-70307486D01*
X120449083Y-70281800D01*
X120458814Y-70275408D01*
X120496420Y-70253170D01*
X120510589Y-70238999D01*
X120525379Y-70226368D01*
X120541587Y-70214594D01*
X120569438Y-70180926D01*
X120577279Y-70172309D01*
X124923270Y-65826319D01*
X124984593Y-65792834D01*
X125010951Y-65790000D01*
X125919428Y-65790000D01*
X125896318Y-65825960D01*
G37*
%TD.AperFunction*%
%TD*%
M02*
